G04 #@! TF.GenerationSoftware,KiCad,Pcbnew,6.0.0-unknown-ea0edab~86~ubuntu18.04.1*
G04 #@! TF.CreationDate,2019-07-07T11:36:40+02:00*
G04 #@! TF.ProjectId,ir-transmitter,69722d74-7261-46e7-936d-69747465722e,rev?*
G04 #@! TF.SameCoordinates,Original*
G04 #@! TF.FileFunction,Paste,Top*
G04 #@! TF.FilePolarity,Positive*
%FSLAX46Y46*%
G04 Gerber Fmt 4.6, Leading zero omitted, Abs format (unit mm)*
G04 Created by KiCad (PCBNEW 6.0.0-unknown-ea0edab~86~ubuntu18.04.1) date 2019-07-07 11:36:40*
%MOMM*%
%LPD*%
G04 APERTURE LIST*
%ADD10R,0.900000X0.800000*%
%ADD11C,0.100000*%
%ADD12C,1.150000*%
%ADD13C,1.425000*%
G04 APERTURE END LIST*
D10*
X95587000Y-136187000D03*
X93587000Y-137137000D03*
X93587000Y-135237000D03*
X95587000Y-142918000D03*
X93587000Y-143868000D03*
X93587000Y-141968000D03*
D11*
G36*
X90045671Y-134363030D02*
G01*
X90126777Y-134417223D01*
X90180970Y-134498329D01*
X90200000Y-134593999D01*
X90200000Y-135494001D01*
X90180970Y-135589671D01*
X90126777Y-135670777D01*
X90045671Y-135724970D01*
X89950001Y-135744000D01*
X89299999Y-135744000D01*
X89204329Y-135724970D01*
X89123223Y-135670777D01*
X89069030Y-135589671D01*
X89050000Y-135494001D01*
X89050000Y-134593999D01*
X89069030Y-134498329D01*
X89123223Y-134417223D01*
X89204329Y-134363030D01*
X89299999Y-134344000D01*
X89950001Y-134344000D01*
X90045671Y-134363030D01*
X90045671Y-134363030D01*
G37*
D12*
X89625000Y-135044000D03*
D11*
G36*
X92095671Y-134363030D02*
G01*
X92176777Y-134417223D01*
X92230970Y-134498329D01*
X92250000Y-134593999D01*
X92250000Y-135494001D01*
X92230970Y-135589671D01*
X92176777Y-135670777D01*
X92095671Y-135724970D01*
X92000001Y-135744000D01*
X91349999Y-135744000D01*
X91254329Y-135724970D01*
X91173223Y-135670777D01*
X91119030Y-135589671D01*
X91100000Y-135494001D01*
X91100000Y-134593999D01*
X91119030Y-134498329D01*
X91173223Y-134417223D01*
X91254329Y-134363030D01*
X91349999Y-134344000D01*
X92000001Y-134344000D01*
X92095671Y-134363030D01*
X92095671Y-134363030D01*
G37*
D12*
X91675000Y-135044000D03*
D11*
G36*
X90045671Y-136649030D02*
G01*
X90126777Y-136703223D01*
X90180970Y-136784329D01*
X90200000Y-136879999D01*
X90200000Y-137780001D01*
X90180970Y-137875671D01*
X90126777Y-137956777D01*
X90045671Y-138010970D01*
X89950001Y-138030000D01*
X89299999Y-138030000D01*
X89204329Y-138010970D01*
X89123223Y-137956777D01*
X89069030Y-137875671D01*
X89050000Y-137780001D01*
X89050000Y-136879999D01*
X89069030Y-136784329D01*
X89123223Y-136703223D01*
X89204329Y-136649030D01*
X89299999Y-136630000D01*
X89950001Y-136630000D01*
X90045671Y-136649030D01*
X90045671Y-136649030D01*
G37*
D12*
X89625000Y-137330000D03*
D11*
G36*
X92095671Y-136649030D02*
G01*
X92176777Y-136703223D01*
X92230970Y-136784329D01*
X92250000Y-136879999D01*
X92250000Y-137780001D01*
X92230970Y-137875671D01*
X92176777Y-137956777D01*
X92095671Y-138010970D01*
X92000001Y-138030000D01*
X91349999Y-138030000D01*
X91254329Y-138010970D01*
X91173223Y-137956777D01*
X91119030Y-137875671D01*
X91100000Y-137780001D01*
X91100000Y-136879999D01*
X91119030Y-136784329D01*
X91173223Y-136703223D01*
X91254329Y-136649030D01*
X91349999Y-136630000D01*
X92000001Y-136630000D01*
X92095671Y-136649030D01*
X92095671Y-136649030D01*
G37*
D12*
X91675000Y-137330000D03*
D11*
G36*
X90045671Y-141221030D02*
G01*
X90126777Y-141275223D01*
X90180970Y-141356329D01*
X90200000Y-141451999D01*
X90200000Y-142352001D01*
X90180970Y-142447671D01*
X90126777Y-142528777D01*
X90045671Y-142582970D01*
X89950001Y-142602000D01*
X89299999Y-142602000D01*
X89204329Y-142582970D01*
X89123223Y-142528777D01*
X89069030Y-142447671D01*
X89050000Y-142352001D01*
X89050000Y-141451999D01*
X89069030Y-141356329D01*
X89123223Y-141275223D01*
X89204329Y-141221030D01*
X89299999Y-141202000D01*
X89950001Y-141202000D01*
X90045671Y-141221030D01*
X90045671Y-141221030D01*
G37*
D12*
X89625000Y-141902000D03*
D11*
G36*
X92095671Y-141221030D02*
G01*
X92176777Y-141275223D01*
X92230970Y-141356329D01*
X92250000Y-141451999D01*
X92250000Y-142352001D01*
X92230970Y-142447671D01*
X92176777Y-142528777D01*
X92095671Y-142582970D01*
X92000001Y-142602000D01*
X91349999Y-142602000D01*
X91254329Y-142582970D01*
X91173223Y-142528777D01*
X91119030Y-142447671D01*
X91100000Y-142352001D01*
X91100000Y-141451999D01*
X91119030Y-141356329D01*
X91173223Y-141275223D01*
X91254329Y-141221030D01*
X91349999Y-141202000D01*
X92000001Y-141202000D01*
X92095671Y-141221030D01*
X92095671Y-141221030D01*
G37*
D12*
X91675000Y-141902000D03*
D11*
G36*
X90045671Y-143507030D02*
G01*
X90126777Y-143561223D01*
X90180970Y-143642329D01*
X90200000Y-143737999D01*
X90200000Y-144638001D01*
X90180970Y-144733671D01*
X90126777Y-144814777D01*
X90045671Y-144868970D01*
X89950001Y-144888000D01*
X89299999Y-144888000D01*
X89204329Y-144868970D01*
X89123223Y-144814777D01*
X89069030Y-144733671D01*
X89050000Y-144638001D01*
X89050000Y-143737999D01*
X89069030Y-143642329D01*
X89123223Y-143561223D01*
X89204329Y-143507030D01*
X89299999Y-143488000D01*
X89950001Y-143488000D01*
X90045671Y-143507030D01*
X90045671Y-143507030D01*
G37*
D12*
X89625000Y-144188000D03*
D11*
G36*
X92095671Y-143507030D02*
G01*
X92176777Y-143561223D01*
X92230970Y-143642329D01*
X92250000Y-143737999D01*
X92250000Y-144638001D01*
X92230970Y-144733671D01*
X92176777Y-144814777D01*
X92095671Y-144868970D01*
X92000001Y-144888000D01*
X91349999Y-144888000D01*
X91254329Y-144868970D01*
X91173223Y-144814777D01*
X91119030Y-144733671D01*
X91100000Y-144638001D01*
X91100000Y-143737999D01*
X91119030Y-143642329D01*
X91173223Y-143561223D01*
X91254329Y-143507030D01*
X91349999Y-143488000D01*
X92000001Y-143488000D01*
X92095671Y-143507030D01*
X92095671Y-143507030D01*
G37*
D12*
X91675000Y-144188000D03*
D11*
G36*
X92314671Y-145745030D02*
G01*
X92395777Y-145799223D01*
X92449970Y-145880329D01*
X92469000Y-145976000D01*
X92469000Y-147226000D01*
X92449970Y-147321671D01*
X92395777Y-147402777D01*
X92314671Y-147456970D01*
X92219000Y-147476000D01*
X91294000Y-147476000D01*
X91198329Y-147456970D01*
X91117223Y-147402777D01*
X91063030Y-147321671D01*
X91044000Y-147226000D01*
X91044000Y-145976000D01*
X91063030Y-145880329D01*
X91117223Y-145799223D01*
X91198329Y-145745030D01*
X91294000Y-145726000D01*
X92219000Y-145726000D01*
X92314671Y-145745030D01*
X92314671Y-145745030D01*
G37*
D13*
X91756500Y-146601000D03*
D11*
G36*
X89339671Y-145745030D02*
G01*
X89420777Y-145799223D01*
X89474970Y-145880329D01*
X89494000Y-145976000D01*
X89494000Y-147226000D01*
X89474970Y-147321671D01*
X89420777Y-147402777D01*
X89339671Y-147456970D01*
X89244000Y-147476000D01*
X88319000Y-147476000D01*
X88223329Y-147456970D01*
X88142223Y-147402777D01*
X88088030Y-147321671D01*
X88069000Y-147226000D01*
X88069000Y-145976000D01*
X88088030Y-145880329D01*
X88142223Y-145799223D01*
X88223329Y-145745030D01*
X88319000Y-145726000D01*
X89244000Y-145726000D01*
X89339671Y-145745030D01*
X89339671Y-145745030D01*
G37*
D13*
X88781500Y-146601000D03*
M02*
