G04 #@! TF.GenerationSoftware,KiCad,Pcbnew,6.0.0-unknown-ea0edab~86~ubuntu18.04.1*
G04 #@! TF.CreationDate,2019-07-07T11:36:40+02:00*
G04 #@! TF.ProjectId,ir-transmitter,69722d74-7261-46e7-936d-69747465722e,rev?*
G04 #@! TF.SameCoordinates,Original*
G04 #@! TF.FileFunction,Copper,L1,Top*
G04 #@! TF.FilePolarity,Positive*
%FSLAX46Y46*%
G04 Gerber Fmt 4.6, Leading zero omitted, Abs format (unit mm)*
G04 Created by KiCad (PCBNEW 6.0.0-unknown-ea0edab~86~ubuntu18.04.1) date 2019-07-07 11:36:40*
%MOMM*%
%LPD*%
G04 APERTURE LIST*
%ADD10O,1.700000X1.700000*%
%ADD11R,1.700000X1.700000*%
%ADD12R,0.900000X0.800000*%
%ADD13C,0.100000*%
%ADD14C,1.150000*%
%ADD15C,1.800000*%
%ADD16R,1.800000X1.800000*%
%ADD17C,1.425000*%
%ADD18C,0.250000*%
%ADD19C,0.300000*%
%ADD20C,0.150000*%
G04 APERTURE END LIST*
D10*
X83000000Y-134840000D03*
X83000000Y-137380000D03*
X83000000Y-139920000D03*
X83000000Y-142460000D03*
D11*
X83000000Y-145000000D03*
D12*
X95587000Y-136187000D03*
X93587000Y-137137000D03*
X93587000Y-135237000D03*
X95587000Y-142918000D03*
X93587000Y-143868000D03*
X93587000Y-141968000D03*
D13*
G36*
X90045671Y-134363030D02*
G01*
X90126777Y-134417223D01*
X90180970Y-134498329D01*
X90200000Y-134593999D01*
X90200000Y-135494001D01*
X90180970Y-135589671D01*
X90126777Y-135670777D01*
X90045671Y-135724970D01*
X89950001Y-135744000D01*
X89299999Y-135744000D01*
X89204329Y-135724970D01*
X89123223Y-135670777D01*
X89069030Y-135589671D01*
X89050000Y-135494001D01*
X89050000Y-134593999D01*
X89069030Y-134498329D01*
X89123223Y-134417223D01*
X89204329Y-134363030D01*
X89299999Y-134344000D01*
X89950001Y-134344000D01*
X90045671Y-134363030D01*
X90045671Y-134363030D01*
G37*
D14*
X89625000Y-135044000D03*
D13*
G36*
X92095671Y-134363030D02*
G01*
X92176777Y-134417223D01*
X92230970Y-134498329D01*
X92250000Y-134593999D01*
X92250000Y-135494001D01*
X92230970Y-135589671D01*
X92176777Y-135670777D01*
X92095671Y-135724970D01*
X92000001Y-135744000D01*
X91349999Y-135744000D01*
X91254329Y-135724970D01*
X91173223Y-135670777D01*
X91119030Y-135589671D01*
X91100000Y-135494001D01*
X91100000Y-134593999D01*
X91119030Y-134498329D01*
X91173223Y-134417223D01*
X91254329Y-134363030D01*
X91349999Y-134344000D01*
X92000001Y-134344000D01*
X92095671Y-134363030D01*
X92095671Y-134363030D01*
G37*
D14*
X91675000Y-135044000D03*
D13*
G36*
X90045671Y-136649030D02*
G01*
X90126777Y-136703223D01*
X90180970Y-136784329D01*
X90200000Y-136879999D01*
X90200000Y-137780001D01*
X90180970Y-137875671D01*
X90126777Y-137956777D01*
X90045671Y-138010970D01*
X89950001Y-138030000D01*
X89299999Y-138030000D01*
X89204329Y-138010970D01*
X89123223Y-137956777D01*
X89069030Y-137875671D01*
X89050000Y-137780001D01*
X89050000Y-136879999D01*
X89069030Y-136784329D01*
X89123223Y-136703223D01*
X89204329Y-136649030D01*
X89299999Y-136630000D01*
X89950001Y-136630000D01*
X90045671Y-136649030D01*
X90045671Y-136649030D01*
G37*
D14*
X89625000Y-137330000D03*
D13*
G36*
X92095671Y-136649030D02*
G01*
X92176777Y-136703223D01*
X92230970Y-136784329D01*
X92250000Y-136879999D01*
X92250000Y-137780001D01*
X92230970Y-137875671D01*
X92176777Y-137956777D01*
X92095671Y-138010970D01*
X92000001Y-138030000D01*
X91349999Y-138030000D01*
X91254329Y-138010970D01*
X91173223Y-137956777D01*
X91119030Y-137875671D01*
X91100000Y-137780001D01*
X91100000Y-136879999D01*
X91119030Y-136784329D01*
X91173223Y-136703223D01*
X91254329Y-136649030D01*
X91349999Y-136630000D01*
X92000001Y-136630000D01*
X92095671Y-136649030D01*
X92095671Y-136649030D01*
G37*
D14*
X91675000Y-137330000D03*
D13*
G36*
X90045671Y-141221030D02*
G01*
X90126777Y-141275223D01*
X90180970Y-141356329D01*
X90200000Y-141451999D01*
X90200000Y-142352001D01*
X90180970Y-142447671D01*
X90126777Y-142528777D01*
X90045671Y-142582970D01*
X89950001Y-142602000D01*
X89299999Y-142602000D01*
X89204329Y-142582970D01*
X89123223Y-142528777D01*
X89069030Y-142447671D01*
X89050000Y-142352001D01*
X89050000Y-141451999D01*
X89069030Y-141356329D01*
X89123223Y-141275223D01*
X89204329Y-141221030D01*
X89299999Y-141202000D01*
X89950001Y-141202000D01*
X90045671Y-141221030D01*
X90045671Y-141221030D01*
G37*
D14*
X89625000Y-141902000D03*
D13*
G36*
X92095671Y-141221030D02*
G01*
X92176777Y-141275223D01*
X92230970Y-141356329D01*
X92250000Y-141451999D01*
X92250000Y-142352001D01*
X92230970Y-142447671D01*
X92176777Y-142528777D01*
X92095671Y-142582970D01*
X92000001Y-142602000D01*
X91349999Y-142602000D01*
X91254329Y-142582970D01*
X91173223Y-142528777D01*
X91119030Y-142447671D01*
X91100000Y-142352001D01*
X91100000Y-141451999D01*
X91119030Y-141356329D01*
X91173223Y-141275223D01*
X91254329Y-141221030D01*
X91349999Y-141202000D01*
X92000001Y-141202000D01*
X92095671Y-141221030D01*
X92095671Y-141221030D01*
G37*
D14*
X91675000Y-141902000D03*
D13*
G36*
X90045671Y-143507030D02*
G01*
X90126777Y-143561223D01*
X90180970Y-143642329D01*
X90200000Y-143737999D01*
X90200000Y-144638001D01*
X90180970Y-144733671D01*
X90126777Y-144814777D01*
X90045671Y-144868970D01*
X89950001Y-144888000D01*
X89299999Y-144888000D01*
X89204329Y-144868970D01*
X89123223Y-144814777D01*
X89069030Y-144733671D01*
X89050000Y-144638001D01*
X89050000Y-143737999D01*
X89069030Y-143642329D01*
X89123223Y-143561223D01*
X89204329Y-143507030D01*
X89299999Y-143488000D01*
X89950001Y-143488000D01*
X90045671Y-143507030D01*
X90045671Y-143507030D01*
G37*
D14*
X89625000Y-144188000D03*
D13*
G36*
X92095671Y-143507030D02*
G01*
X92176777Y-143561223D01*
X92230970Y-143642329D01*
X92250000Y-143737999D01*
X92250000Y-144638001D01*
X92230970Y-144733671D01*
X92176777Y-144814777D01*
X92095671Y-144868970D01*
X92000001Y-144888000D01*
X91349999Y-144888000D01*
X91254329Y-144868970D01*
X91173223Y-144814777D01*
X91119030Y-144733671D01*
X91100000Y-144638001D01*
X91100000Y-143737999D01*
X91119030Y-143642329D01*
X91173223Y-143561223D01*
X91254329Y-143507030D01*
X91349999Y-143488000D01*
X92000001Y-143488000D01*
X92095671Y-143507030D01*
X92095671Y-143507030D01*
G37*
D14*
X91675000Y-144188000D03*
D15*
X101237000Y-136187000D03*
D16*
X98697000Y-136187000D03*
D15*
X107841000Y-136187000D03*
D16*
X105301000Y-136187000D03*
D15*
X114445000Y-136187000D03*
D16*
X111905000Y-136187000D03*
D15*
X121049000Y-136187000D03*
D16*
X118509000Y-136187000D03*
D15*
X101237000Y-142918000D03*
D16*
X98697000Y-142918000D03*
D15*
X107841000Y-142918000D03*
D16*
X105301000Y-142918000D03*
D15*
X114445000Y-142918000D03*
D16*
X111905000Y-142918000D03*
D15*
X121049000Y-142918000D03*
D16*
X118509000Y-142918000D03*
D13*
G36*
X92314671Y-145745030D02*
G01*
X92395777Y-145799223D01*
X92449970Y-145880329D01*
X92469000Y-145976000D01*
X92469000Y-147226000D01*
X92449970Y-147321671D01*
X92395777Y-147402777D01*
X92314671Y-147456970D01*
X92219000Y-147476000D01*
X91294000Y-147476000D01*
X91198329Y-147456970D01*
X91117223Y-147402777D01*
X91063030Y-147321671D01*
X91044000Y-147226000D01*
X91044000Y-145976000D01*
X91063030Y-145880329D01*
X91117223Y-145799223D01*
X91198329Y-145745030D01*
X91294000Y-145726000D01*
X92219000Y-145726000D01*
X92314671Y-145745030D01*
X92314671Y-145745030D01*
G37*
D17*
X91756500Y-146601000D03*
D13*
G36*
X89339671Y-145745030D02*
G01*
X89420777Y-145799223D01*
X89474970Y-145880329D01*
X89494000Y-145976000D01*
X89494000Y-147226000D01*
X89474970Y-147321671D01*
X89420777Y-147402777D01*
X89339671Y-147456970D01*
X89244000Y-147476000D01*
X88319000Y-147476000D01*
X88223329Y-147456970D01*
X88142223Y-147402777D01*
X88088030Y-147321671D01*
X88069000Y-147226000D01*
X88069000Y-145976000D01*
X88088030Y-145880329D01*
X88142223Y-145799223D01*
X88223329Y-145745030D01*
X88319000Y-145726000D01*
X89244000Y-145726000D01*
X89339671Y-145745030D01*
X89339671Y-145745030D01*
G37*
D17*
X88781500Y-146601000D03*
D18*
X83579002Y-141300000D02*
X83564001Y-141284999D01*
X83564001Y-141284999D02*
X82115001Y-141284999D01*
X83900000Y-141300000D02*
X83579002Y-141300000D01*
X89200000Y-148000000D02*
X88781500Y-147581500D01*
X88781500Y-147581500D02*
X88781500Y-146601000D01*
X120500000Y-148000000D02*
X89200000Y-148000000D01*
X86801000Y-146601000D02*
X85200000Y-145000000D01*
X85200000Y-145000000D02*
X83000000Y-145000000D01*
X88781500Y-146601000D02*
X86801000Y-146601000D01*
X88780000Y-139920000D02*
X89625000Y-139075000D01*
X89625000Y-139075000D02*
X89625000Y-137330000D01*
X83000000Y-139920000D02*
X88780000Y-139920000D01*
X85998000Y-141902000D02*
X85440000Y-142460000D01*
X85440000Y-142460000D02*
X83000000Y-142460000D01*
X89625000Y-141902000D02*
X85998000Y-141902000D01*
X89625000Y-135044000D02*
X89625000Y-137330000D01*
X91868000Y-135237000D02*
X91675000Y-135044000D01*
X93587000Y-135237000D02*
X91868000Y-135237000D01*
X91868000Y-137137000D02*
X91675000Y-137330000D01*
X96287000Y-136187000D02*
X98397000Y-136187000D01*
X95587000Y-136187000D02*
X96287000Y-136187000D01*
X102509792Y-136187000D02*
X105301000Y-136187000D01*
X101237000Y-136187000D02*
X102509792Y-136187000D01*
X97247000Y-142918000D02*
X95587000Y-142918000D01*
X98697000Y-142918000D02*
X97547000Y-142918000D01*
X102509792Y-142918000D02*
X105301000Y-142918000D01*
X101237000Y-142918000D02*
X102509792Y-142918000D01*
X118509000Y-142918000D02*
X114445000Y-142918000D01*
X115717792Y-136187000D02*
X118509000Y-136187000D01*
X114445000Y-136187000D02*
X115717792Y-136187000D01*
X111905000Y-136187000D02*
X107841000Y-136187000D01*
X107841000Y-142918000D02*
X111905000Y-142918000D01*
X89625000Y-144188000D02*
X89625000Y-141902000D01*
X91741000Y-141968000D02*
X91675000Y-141902000D01*
X93587000Y-141968000D02*
X91741000Y-141968000D01*
X91756500Y-144269500D02*
X91675000Y-144188000D01*
X91756500Y-146601000D02*
X91756500Y-144269500D01*
X93267000Y-144188000D02*
X93587000Y-143868000D01*
D19*
X121049000Y-147451000D02*
X121049000Y-142918000D01*
X120500000Y-148000000D02*
X121049000Y-147451000D01*
X121049000Y-141645208D02*
X121049000Y-136187000D01*
X121049000Y-142918000D02*
X121049000Y-141645208D01*
D20*
G36*
X129525001Y-149525000D02*
G01*
X80475000Y-149525000D01*
X80475000Y-141320289D01*
X81509663Y-141320289D01*
X81511595Y-141344841D01*
X81553730Y-141514466D01*
X81563511Y-141537068D01*
X81658319Y-141683899D01*
X81674894Y-141702115D01*
X81812151Y-141810320D01*
X81833817Y-141821040D01*
X81831515Y-141825228D01*
X81741826Y-142029543D01*
X81737573Y-142042181D01*
X81685484Y-142259150D01*
X81683536Y-142272341D01*
X81670691Y-142495105D01*
X81671110Y-142508432D01*
X81697917Y-142729950D01*
X81700689Y-142742993D01*
X81766299Y-142956263D01*
X81771338Y-142968609D01*
X81873679Y-143166889D01*
X81880823Y-143178147D01*
X82016658Y-143355172D01*
X82025684Y-143364988D01*
X82190721Y-143515159D01*
X82201342Y-143523220D01*
X82390363Y-143641794D01*
X82402244Y-143647848D01*
X82450294Y-143667164D01*
X82150000Y-143667164D01*
X82135368Y-143668605D01*
X81979296Y-143699650D01*
X81952261Y-143710849D01*
X81819949Y-143799256D01*
X81799256Y-143819949D01*
X81710849Y-143952261D01*
X81699650Y-143979296D01*
X81668605Y-144135368D01*
X81667164Y-144150000D01*
X81667164Y-145850000D01*
X81668605Y-145864632D01*
X81699650Y-146020704D01*
X81710849Y-146047739D01*
X81799256Y-146180051D01*
X81819949Y-146200744D01*
X81952261Y-146289151D01*
X81979296Y-146300350D01*
X82135368Y-146331395D01*
X82150000Y-146332836D01*
X83850000Y-146332836D01*
X83864632Y-146331395D01*
X84020704Y-146300350D01*
X84047739Y-146289151D01*
X84180051Y-146200744D01*
X84200744Y-146180051D01*
X84289151Y-146047739D01*
X84300350Y-146020704D01*
X84331395Y-145864632D01*
X84332836Y-145850000D01*
X84332836Y-145600000D01*
X84951473Y-145600000D01*
X86331460Y-146979988D01*
X86344318Y-146999901D01*
X86360893Y-147018116D01*
X86401972Y-147050500D01*
X86407573Y-147056101D01*
X86417000Y-147064089D01*
X86440624Y-147080971D01*
X86498150Y-147126321D01*
X86517445Y-147135867D01*
X86523232Y-147140003D01*
X86545349Y-147150839D01*
X86712801Y-147200917D01*
X86737235Y-147204003D01*
X86813665Y-147201000D01*
X87589482Y-147201000D01*
X87589482Y-147223176D01*
X87590790Y-147237119D01*
X87636230Y-147477273D01*
X87644970Y-147500830D01*
X87742941Y-147670522D01*
X87756880Y-147688001D01*
X87900517Y-147821276D01*
X87918989Y-147833870D01*
X88095528Y-147918887D01*
X88116891Y-147925476D01*
X88302809Y-147953499D01*
X88310023Y-147962799D01*
X88366219Y-148014746D01*
X88730460Y-148378988D01*
X88743318Y-148398901D01*
X88759893Y-148417116D01*
X88800972Y-148449500D01*
X88806573Y-148455101D01*
X88816000Y-148463089D01*
X88839621Y-148479969D01*
X88897150Y-148525321D01*
X88916444Y-148534867D01*
X88922232Y-148539003D01*
X88944348Y-148549837D01*
X89111799Y-148599916D01*
X89136234Y-148603003D01*
X89212664Y-148600000D01*
X120317184Y-148600000D01*
X120457949Y-148630305D01*
X120482549Y-148631465D01*
X120664382Y-148609944D01*
X120693745Y-148600020D01*
X120906142Y-148474408D01*
X120920997Y-148462885D01*
X121443778Y-147940105D01*
X121464958Y-147926429D01*
X121483174Y-147909854D01*
X121517234Y-147866649D01*
X121523249Y-147860634D01*
X121531236Y-147851208D01*
X121548968Y-147826396D01*
X121596532Y-147766060D01*
X121606544Y-147745825D01*
X121610765Y-147739918D01*
X121621600Y-147717802D01*
X121674063Y-147542376D01*
X121677149Y-147517943D01*
X121674000Y-147437789D01*
X121674000Y-144144869D01*
X121834997Y-144051917D01*
X121845706Y-144044418D01*
X122019959Y-143898203D01*
X122029203Y-143888959D01*
X122175418Y-143714706D01*
X122182917Y-143703997D01*
X122296652Y-143507002D01*
X122302177Y-143495153D01*
X122379976Y-143281401D01*
X122383360Y-143268774D01*
X122422860Y-143044759D01*
X122423999Y-143031735D01*
X122423999Y-142804265D01*
X122422860Y-142791241D01*
X122383360Y-142567226D01*
X122379976Y-142554599D01*
X122302177Y-142340847D01*
X122296652Y-142328998D01*
X122182917Y-142132003D01*
X122175418Y-142121294D01*
X122029203Y-141947041D01*
X122019959Y-141937797D01*
X121845706Y-141791582D01*
X121834997Y-141784083D01*
X121674000Y-141691131D01*
X121674000Y-137413869D01*
X121834997Y-137320917D01*
X121845706Y-137313418D01*
X122019959Y-137167203D01*
X122029203Y-137157959D01*
X122175418Y-136983706D01*
X122182917Y-136972997D01*
X122296652Y-136776002D01*
X122302177Y-136764153D01*
X122379976Y-136550401D01*
X122383360Y-136537774D01*
X122422860Y-136313759D01*
X122423999Y-136300735D01*
X122423999Y-136073265D01*
X122422860Y-136060241D01*
X122383360Y-135836226D01*
X122379976Y-135823599D01*
X122302177Y-135609847D01*
X122296652Y-135597998D01*
X122182917Y-135401003D01*
X122175418Y-135390294D01*
X122029203Y-135216041D01*
X122019959Y-135206797D01*
X121845706Y-135060582D01*
X121834997Y-135053083D01*
X121638002Y-134939348D01*
X121626153Y-134933823D01*
X121412401Y-134856024D01*
X121399774Y-134852640D01*
X121175759Y-134813140D01*
X121162735Y-134812001D01*
X120935265Y-134812001D01*
X120922241Y-134813140D01*
X120698226Y-134852640D01*
X120685599Y-134856024D01*
X120471847Y-134933823D01*
X120459998Y-134939348D01*
X120263003Y-135053083D01*
X120252294Y-135060582D01*
X120078041Y-135206797D01*
X120068797Y-135216041D01*
X119922582Y-135390294D01*
X119915083Y-135401003D01*
X119891836Y-135441268D01*
X119891836Y-135287000D01*
X119890395Y-135272368D01*
X119859350Y-135116296D01*
X119848151Y-135089261D01*
X119759744Y-134956949D01*
X119739051Y-134936256D01*
X119606739Y-134847849D01*
X119579704Y-134836650D01*
X119423632Y-134805605D01*
X119409000Y-134804164D01*
X117609000Y-134804164D01*
X117594368Y-134805605D01*
X117438296Y-134836650D01*
X117411261Y-134847849D01*
X117278949Y-134936256D01*
X117258256Y-134956949D01*
X117169849Y-135089261D01*
X117158650Y-135116296D01*
X117127605Y-135272368D01*
X117126164Y-135287000D01*
X117126164Y-135587000D01*
X115686302Y-135587000D01*
X115578917Y-135401003D01*
X115571418Y-135390294D01*
X115425203Y-135216041D01*
X115415959Y-135206797D01*
X115241706Y-135060582D01*
X115230997Y-135053083D01*
X115034002Y-134939348D01*
X115022153Y-134933823D01*
X114808401Y-134856024D01*
X114795774Y-134852640D01*
X114571759Y-134813140D01*
X114558735Y-134812001D01*
X114331265Y-134812001D01*
X114318241Y-134813140D01*
X114094226Y-134852640D01*
X114081599Y-134856024D01*
X113867847Y-134933823D01*
X113855998Y-134939348D01*
X113659003Y-135053083D01*
X113648294Y-135060582D01*
X113474041Y-135206797D01*
X113464797Y-135216041D01*
X113318582Y-135390294D01*
X113311083Y-135401003D01*
X113287836Y-135441268D01*
X113287836Y-135287000D01*
X113286395Y-135272368D01*
X113255350Y-135116296D01*
X113244151Y-135089261D01*
X113155744Y-134956949D01*
X113135051Y-134936256D01*
X113002739Y-134847849D01*
X112975704Y-134836650D01*
X112819632Y-134805605D01*
X112805000Y-134804164D01*
X111005000Y-134804164D01*
X110990368Y-134805605D01*
X110834296Y-134836650D01*
X110807261Y-134847849D01*
X110674949Y-134936256D01*
X110654256Y-134956949D01*
X110565849Y-135089261D01*
X110554650Y-135116296D01*
X110523605Y-135272368D01*
X110522164Y-135287000D01*
X110522164Y-135587000D01*
X109082302Y-135587000D01*
X108974917Y-135401003D01*
X108967418Y-135390294D01*
X108821203Y-135216041D01*
X108811959Y-135206797D01*
X108637706Y-135060582D01*
X108626997Y-135053083D01*
X108430002Y-134939348D01*
X108418153Y-134933823D01*
X108204401Y-134856024D01*
X108191774Y-134852640D01*
X107967759Y-134813140D01*
X107954735Y-134812001D01*
X107727265Y-134812001D01*
X107714241Y-134813140D01*
X107490226Y-134852640D01*
X107477599Y-134856024D01*
X107263847Y-134933823D01*
X107251998Y-134939348D01*
X107055003Y-135053083D01*
X107044294Y-135060582D01*
X106870041Y-135206797D01*
X106860797Y-135216041D01*
X106714582Y-135390294D01*
X106707083Y-135401003D01*
X106683836Y-135441268D01*
X106683836Y-135287000D01*
X106682395Y-135272368D01*
X106651350Y-135116296D01*
X106640151Y-135089261D01*
X106551744Y-134956949D01*
X106531051Y-134936256D01*
X106398739Y-134847849D01*
X106371704Y-134836650D01*
X106215632Y-134805605D01*
X106201000Y-134804164D01*
X104401000Y-134804164D01*
X104386368Y-134805605D01*
X104230296Y-134836650D01*
X104203261Y-134847849D01*
X104070949Y-134936256D01*
X104050256Y-134956949D01*
X103961849Y-135089261D01*
X103950650Y-135116296D01*
X103919605Y-135272368D01*
X103918164Y-135287000D01*
X103918164Y-135587000D01*
X102478302Y-135587000D01*
X102370917Y-135401003D01*
X102363418Y-135390294D01*
X102217203Y-135216041D01*
X102207959Y-135206797D01*
X102033706Y-135060582D01*
X102022997Y-135053083D01*
X101826002Y-134939348D01*
X101814153Y-134933823D01*
X101600401Y-134856024D01*
X101587774Y-134852640D01*
X101363759Y-134813140D01*
X101350735Y-134812001D01*
X101123265Y-134812001D01*
X101110241Y-134813140D01*
X100886226Y-134852640D01*
X100873599Y-134856024D01*
X100659847Y-134933823D01*
X100647998Y-134939348D01*
X100451003Y-135053083D01*
X100440294Y-135060582D01*
X100266041Y-135206797D01*
X100256797Y-135216041D01*
X100110582Y-135390294D01*
X100103083Y-135401003D01*
X100079836Y-135441268D01*
X100079836Y-135287000D01*
X100078395Y-135272368D01*
X100047350Y-135116296D01*
X100036151Y-135089261D01*
X99947744Y-134956949D01*
X99927051Y-134936256D01*
X99794739Y-134847849D01*
X99767704Y-134836650D01*
X99611632Y-134805605D01*
X99597000Y-134804164D01*
X97797000Y-134804164D01*
X97782368Y-134805605D01*
X97626296Y-134836650D01*
X97599261Y-134847849D01*
X97466949Y-134936256D01*
X97446256Y-134956949D01*
X97357849Y-135089261D01*
X97346650Y-135116296D01*
X97315605Y-135272368D01*
X97314164Y-135287000D01*
X97314164Y-135587000D01*
X96474640Y-135587000D01*
X96387744Y-135456949D01*
X96367051Y-135436256D01*
X96234739Y-135347849D01*
X96207704Y-135336650D01*
X96051632Y-135305605D01*
X96037000Y-135304164D01*
X95137000Y-135304164D01*
X95122368Y-135305605D01*
X94966296Y-135336650D01*
X94939261Y-135347849D01*
X94806949Y-135436256D01*
X94786256Y-135456949D01*
X94697849Y-135589261D01*
X94686650Y-135616296D01*
X94655605Y-135772368D01*
X94654164Y-135787000D01*
X94654164Y-136587000D01*
X94655605Y-136601632D01*
X94686650Y-136757704D01*
X94697849Y-136784739D01*
X94786256Y-136917051D01*
X94806949Y-136937744D01*
X94939261Y-137026151D01*
X94966296Y-137037350D01*
X95122368Y-137068395D01*
X95137000Y-137069836D01*
X96037000Y-137069836D01*
X96051632Y-137068395D01*
X96207704Y-137037350D01*
X96234739Y-137026151D01*
X96367051Y-136937744D01*
X96387744Y-136917051D01*
X96474640Y-136787000D01*
X97314164Y-136787000D01*
X97314164Y-137087000D01*
X97315605Y-137101632D01*
X97346650Y-137257704D01*
X97357849Y-137284739D01*
X97446256Y-137417051D01*
X97466949Y-137437744D01*
X97599261Y-137526151D01*
X97626296Y-137537350D01*
X97782368Y-137568395D01*
X97797000Y-137569836D01*
X99597000Y-137569836D01*
X99611632Y-137568395D01*
X99767704Y-137537350D01*
X99794739Y-137526151D01*
X99927051Y-137437744D01*
X99947744Y-137417051D01*
X100036151Y-137284739D01*
X100047350Y-137257704D01*
X100078395Y-137101632D01*
X100079836Y-137087000D01*
X100079836Y-136932732D01*
X100103083Y-136972997D01*
X100110582Y-136983706D01*
X100256797Y-137157959D01*
X100266041Y-137167203D01*
X100440294Y-137313418D01*
X100451003Y-137320917D01*
X100647998Y-137434652D01*
X100659847Y-137440177D01*
X100873599Y-137517976D01*
X100886226Y-137521360D01*
X101110241Y-137560860D01*
X101123265Y-137561999D01*
X101350735Y-137561999D01*
X101363759Y-137560860D01*
X101587774Y-137521360D01*
X101600401Y-137517976D01*
X101814153Y-137440177D01*
X101826002Y-137434652D01*
X102022997Y-137320917D01*
X102033706Y-137313418D01*
X102207959Y-137167203D01*
X102217203Y-137157959D01*
X102363418Y-136983706D01*
X102370917Y-136972997D01*
X102478302Y-136787000D01*
X103918164Y-136787000D01*
X103918164Y-137087000D01*
X103919605Y-137101632D01*
X103950650Y-137257704D01*
X103961849Y-137284739D01*
X104050256Y-137417051D01*
X104070949Y-137437744D01*
X104203261Y-137526151D01*
X104230296Y-137537350D01*
X104386368Y-137568395D01*
X104401000Y-137569836D01*
X106201000Y-137569836D01*
X106215632Y-137568395D01*
X106371704Y-137537350D01*
X106398739Y-137526151D01*
X106531051Y-137437744D01*
X106551744Y-137417051D01*
X106640151Y-137284739D01*
X106651350Y-137257704D01*
X106682395Y-137101632D01*
X106683836Y-137087000D01*
X106683836Y-136932732D01*
X106707083Y-136972997D01*
X106714582Y-136983706D01*
X106860797Y-137157959D01*
X106870041Y-137167203D01*
X107044294Y-137313418D01*
X107055003Y-137320917D01*
X107251998Y-137434652D01*
X107263847Y-137440177D01*
X107477599Y-137517976D01*
X107490226Y-137521360D01*
X107714241Y-137560860D01*
X107727265Y-137561999D01*
X107954735Y-137561999D01*
X107967759Y-137560860D01*
X108191774Y-137521360D01*
X108204401Y-137517976D01*
X108418153Y-137440177D01*
X108430002Y-137434652D01*
X108626997Y-137320917D01*
X108637706Y-137313418D01*
X108811959Y-137167203D01*
X108821203Y-137157959D01*
X108967418Y-136983706D01*
X108974917Y-136972997D01*
X109082302Y-136787000D01*
X110522164Y-136787000D01*
X110522164Y-137087000D01*
X110523605Y-137101632D01*
X110554650Y-137257704D01*
X110565849Y-137284739D01*
X110654256Y-137417051D01*
X110674949Y-137437744D01*
X110807261Y-137526151D01*
X110834296Y-137537350D01*
X110990368Y-137568395D01*
X111005000Y-137569836D01*
X112805000Y-137569836D01*
X112819632Y-137568395D01*
X112975704Y-137537350D01*
X113002739Y-137526151D01*
X113135051Y-137437744D01*
X113155744Y-137417051D01*
X113244151Y-137284739D01*
X113255350Y-137257704D01*
X113286395Y-137101632D01*
X113287836Y-137087000D01*
X113287836Y-136932732D01*
X113311083Y-136972997D01*
X113318582Y-136983706D01*
X113464797Y-137157959D01*
X113474041Y-137167203D01*
X113648294Y-137313418D01*
X113659003Y-137320917D01*
X113855998Y-137434652D01*
X113867847Y-137440177D01*
X114081599Y-137517976D01*
X114094226Y-137521360D01*
X114318241Y-137560860D01*
X114331265Y-137561999D01*
X114558735Y-137561999D01*
X114571759Y-137560860D01*
X114795774Y-137521360D01*
X114808401Y-137517976D01*
X115022153Y-137440177D01*
X115034002Y-137434652D01*
X115230997Y-137320917D01*
X115241706Y-137313418D01*
X115415959Y-137167203D01*
X115425203Y-137157959D01*
X115571418Y-136983706D01*
X115578917Y-136972997D01*
X115686302Y-136787000D01*
X117126164Y-136787000D01*
X117126164Y-137087000D01*
X117127605Y-137101632D01*
X117158650Y-137257704D01*
X117169849Y-137284739D01*
X117258256Y-137417051D01*
X117278949Y-137437744D01*
X117411261Y-137526151D01*
X117438296Y-137537350D01*
X117594368Y-137568395D01*
X117609000Y-137569836D01*
X119409000Y-137569836D01*
X119423632Y-137568395D01*
X119579704Y-137537350D01*
X119606739Y-137526151D01*
X119739051Y-137437744D01*
X119759744Y-137417051D01*
X119848151Y-137284739D01*
X119859350Y-137257704D01*
X119890395Y-137101632D01*
X119891836Y-137087000D01*
X119891836Y-136932732D01*
X119915083Y-136972997D01*
X119922582Y-136983706D01*
X120068797Y-137157959D01*
X120078041Y-137167203D01*
X120252294Y-137313418D01*
X120263003Y-137320917D01*
X120424001Y-137413869D01*
X120424000Y-141690898D01*
X120424001Y-141690910D01*
X120424001Y-141691131D01*
X120263003Y-141784083D01*
X120252294Y-141791582D01*
X120078041Y-141937797D01*
X120068797Y-141947041D01*
X119922582Y-142121294D01*
X119915083Y-142132003D01*
X119891836Y-142172268D01*
X119891836Y-142018000D01*
X119890395Y-142003368D01*
X119859350Y-141847296D01*
X119848151Y-141820261D01*
X119759744Y-141687949D01*
X119739051Y-141667256D01*
X119606739Y-141578849D01*
X119579704Y-141567650D01*
X119423632Y-141536605D01*
X119409000Y-141535164D01*
X117609000Y-141535164D01*
X117594368Y-141536605D01*
X117438296Y-141567650D01*
X117411261Y-141578849D01*
X117278949Y-141667256D01*
X117258256Y-141687949D01*
X117169849Y-141820261D01*
X117158650Y-141847296D01*
X117127605Y-142003368D01*
X117126164Y-142018000D01*
X117126164Y-142318000D01*
X115686302Y-142318000D01*
X115578917Y-142132003D01*
X115571418Y-142121294D01*
X115425203Y-141947041D01*
X115415959Y-141937797D01*
X115241706Y-141791582D01*
X115230997Y-141784083D01*
X115034002Y-141670348D01*
X115022153Y-141664823D01*
X114808401Y-141587024D01*
X114795774Y-141583640D01*
X114571759Y-141544140D01*
X114558735Y-141543001D01*
X114331265Y-141543001D01*
X114318241Y-141544140D01*
X114094226Y-141583640D01*
X114081599Y-141587024D01*
X113867847Y-141664823D01*
X113855998Y-141670348D01*
X113659003Y-141784083D01*
X113648294Y-141791582D01*
X113474041Y-141937797D01*
X113464797Y-141947041D01*
X113318582Y-142121294D01*
X113311083Y-142132003D01*
X113287836Y-142172268D01*
X113287836Y-142018000D01*
X113286395Y-142003368D01*
X113255350Y-141847296D01*
X113244151Y-141820261D01*
X113155744Y-141687949D01*
X113135051Y-141667256D01*
X113002739Y-141578849D01*
X112975704Y-141567650D01*
X112819632Y-141536605D01*
X112805000Y-141535164D01*
X111005000Y-141535164D01*
X110990368Y-141536605D01*
X110834296Y-141567650D01*
X110807261Y-141578849D01*
X110674949Y-141667256D01*
X110654256Y-141687949D01*
X110565849Y-141820261D01*
X110554650Y-141847296D01*
X110523605Y-142003368D01*
X110522164Y-142018000D01*
X110522164Y-142318000D01*
X109082302Y-142318000D01*
X108974917Y-142132003D01*
X108967418Y-142121294D01*
X108821203Y-141947041D01*
X108811959Y-141937797D01*
X108637706Y-141791582D01*
X108626997Y-141784083D01*
X108430002Y-141670348D01*
X108418153Y-141664823D01*
X108204401Y-141587024D01*
X108191774Y-141583640D01*
X107967759Y-141544140D01*
X107954735Y-141543001D01*
X107727265Y-141543001D01*
X107714241Y-141544140D01*
X107490226Y-141583640D01*
X107477599Y-141587024D01*
X107263847Y-141664823D01*
X107251998Y-141670348D01*
X107055003Y-141784083D01*
X107044294Y-141791582D01*
X106870041Y-141937797D01*
X106860797Y-141947041D01*
X106714582Y-142121294D01*
X106707083Y-142132003D01*
X106683836Y-142172268D01*
X106683836Y-142018000D01*
X106682395Y-142003368D01*
X106651350Y-141847296D01*
X106640151Y-141820261D01*
X106551744Y-141687949D01*
X106531051Y-141667256D01*
X106398739Y-141578849D01*
X106371704Y-141567650D01*
X106215632Y-141536605D01*
X106201000Y-141535164D01*
X104401000Y-141535164D01*
X104386368Y-141536605D01*
X104230296Y-141567650D01*
X104203261Y-141578849D01*
X104070949Y-141667256D01*
X104050256Y-141687949D01*
X103961849Y-141820261D01*
X103950650Y-141847296D01*
X103919605Y-142003368D01*
X103918164Y-142018000D01*
X103918164Y-142318000D01*
X102478302Y-142318000D01*
X102370917Y-142132003D01*
X102363418Y-142121294D01*
X102217203Y-141947041D01*
X102207959Y-141937797D01*
X102033706Y-141791582D01*
X102022997Y-141784083D01*
X101826002Y-141670348D01*
X101814153Y-141664823D01*
X101600401Y-141587024D01*
X101587774Y-141583640D01*
X101363759Y-141544140D01*
X101350735Y-141543001D01*
X101123265Y-141543001D01*
X101110241Y-141544140D01*
X100886226Y-141583640D01*
X100873599Y-141587024D01*
X100659847Y-141664823D01*
X100647998Y-141670348D01*
X100451003Y-141784083D01*
X100440294Y-141791582D01*
X100266041Y-141937797D01*
X100256797Y-141947041D01*
X100110582Y-142121294D01*
X100103083Y-142132003D01*
X100079836Y-142172268D01*
X100079836Y-142018000D01*
X100078395Y-142003368D01*
X100047350Y-141847296D01*
X100036151Y-141820261D01*
X99947744Y-141687949D01*
X99927051Y-141667256D01*
X99794739Y-141578849D01*
X99767704Y-141567650D01*
X99611632Y-141536605D01*
X99597000Y-141535164D01*
X97797000Y-141535164D01*
X97782368Y-141536605D01*
X97626296Y-141567650D01*
X97599261Y-141578849D01*
X97466949Y-141667256D01*
X97446256Y-141687949D01*
X97357849Y-141820261D01*
X97346650Y-141847296D01*
X97315605Y-142003368D01*
X97314164Y-142018000D01*
X97314164Y-142325553D01*
X97293924Y-142320356D01*
X97275272Y-142318000D01*
X96474640Y-142318000D01*
X96387744Y-142187949D01*
X96367051Y-142167256D01*
X96234739Y-142078849D01*
X96207704Y-142067650D01*
X96051632Y-142036605D01*
X96037000Y-142035164D01*
X95137000Y-142035164D01*
X95122368Y-142036605D01*
X94966296Y-142067650D01*
X94939261Y-142078849D01*
X94806949Y-142167256D01*
X94786256Y-142187949D01*
X94697849Y-142320261D01*
X94686650Y-142347296D01*
X94655605Y-142503368D01*
X94654164Y-142518000D01*
X94654164Y-143318000D01*
X94655605Y-143332632D01*
X94686650Y-143488704D01*
X94697849Y-143515739D01*
X94786256Y-143648051D01*
X94806949Y-143668744D01*
X94939261Y-143757151D01*
X94966296Y-143768350D01*
X95122368Y-143799395D01*
X95137000Y-143800836D01*
X96037000Y-143800836D01*
X96051632Y-143799395D01*
X96207704Y-143768350D01*
X96234739Y-143757151D01*
X96367051Y-143668744D01*
X96387744Y-143648051D01*
X96474640Y-143518000D01*
X97290611Y-143518000D01*
X97302925Y-143516982D01*
X97314164Y-143515111D01*
X97314164Y-143818000D01*
X97315605Y-143832632D01*
X97346650Y-143988704D01*
X97357849Y-144015739D01*
X97446256Y-144148051D01*
X97466949Y-144168744D01*
X97599261Y-144257151D01*
X97626296Y-144268350D01*
X97782368Y-144299395D01*
X97797000Y-144300836D01*
X99597000Y-144300836D01*
X99611632Y-144299395D01*
X99767704Y-144268350D01*
X99794739Y-144257151D01*
X99927051Y-144168744D01*
X99947744Y-144148051D01*
X100036151Y-144015739D01*
X100047350Y-143988704D01*
X100078395Y-143832632D01*
X100079836Y-143818000D01*
X100079836Y-143663732D01*
X100103083Y-143703997D01*
X100110582Y-143714706D01*
X100256797Y-143888959D01*
X100266041Y-143898203D01*
X100440294Y-144044418D01*
X100451003Y-144051917D01*
X100647998Y-144165652D01*
X100659847Y-144171177D01*
X100873599Y-144248976D01*
X100886226Y-144252360D01*
X101110241Y-144291860D01*
X101123265Y-144292999D01*
X101350735Y-144292999D01*
X101363759Y-144291860D01*
X101587774Y-144252360D01*
X101600401Y-144248976D01*
X101814153Y-144171177D01*
X101826002Y-144165652D01*
X102022997Y-144051917D01*
X102033706Y-144044418D01*
X102207959Y-143898203D01*
X102217203Y-143888959D01*
X102363418Y-143714706D01*
X102370917Y-143703997D01*
X102478302Y-143518000D01*
X103918164Y-143518000D01*
X103918164Y-143818000D01*
X103919605Y-143832632D01*
X103950650Y-143988704D01*
X103961849Y-144015739D01*
X104050256Y-144148051D01*
X104070949Y-144168744D01*
X104203261Y-144257151D01*
X104230296Y-144268350D01*
X104386368Y-144299395D01*
X104401000Y-144300836D01*
X106201000Y-144300836D01*
X106215632Y-144299395D01*
X106371704Y-144268350D01*
X106398739Y-144257151D01*
X106531051Y-144168744D01*
X106551744Y-144148051D01*
X106640151Y-144015739D01*
X106651350Y-143988704D01*
X106682395Y-143832632D01*
X106683836Y-143818000D01*
X106683836Y-143663732D01*
X106707083Y-143703997D01*
X106714582Y-143714706D01*
X106860797Y-143888959D01*
X106870041Y-143898203D01*
X107044294Y-144044418D01*
X107055003Y-144051917D01*
X107251998Y-144165652D01*
X107263847Y-144171177D01*
X107477599Y-144248976D01*
X107490226Y-144252360D01*
X107714241Y-144291860D01*
X107727265Y-144292999D01*
X107954735Y-144292999D01*
X107967759Y-144291860D01*
X108191774Y-144252360D01*
X108204401Y-144248976D01*
X108418153Y-144171177D01*
X108430002Y-144165652D01*
X108626997Y-144051917D01*
X108637706Y-144044418D01*
X108811959Y-143898203D01*
X108821203Y-143888959D01*
X108967418Y-143714706D01*
X108974917Y-143703997D01*
X109082302Y-143518000D01*
X110522164Y-143518000D01*
X110522164Y-143818000D01*
X110523605Y-143832632D01*
X110554650Y-143988704D01*
X110565849Y-144015739D01*
X110654256Y-144148051D01*
X110674949Y-144168744D01*
X110807261Y-144257151D01*
X110834296Y-144268350D01*
X110990368Y-144299395D01*
X111005000Y-144300836D01*
X112805000Y-144300836D01*
X112819632Y-144299395D01*
X112975704Y-144268350D01*
X113002739Y-144257151D01*
X113135051Y-144168744D01*
X113155744Y-144148051D01*
X113244151Y-144015739D01*
X113255350Y-143988704D01*
X113286395Y-143832632D01*
X113287836Y-143818000D01*
X113287836Y-143663732D01*
X113311083Y-143703997D01*
X113318582Y-143714706D01*
X113464797Y-143888959D01*
X113474041Y-143898203D01*
X113648294Y-144044418D01*
X113659003Y-144051917D01*
X113855998Y-144165652D01*
X113867847Y-144171177D01*
X114081599Y-144248976D01*
X114094226Y-144252360D01*
X114318241Y-144291860D01*
X114331265Y-144292999D01*
X114558735Y-144292999D01*
X114571759Y-144291860D01*
X114795774Y-144252360D01*
X114808401Y-144248976D01*
X115022153Y-144171177D01*
X115034002Y-144165652D01*
X115230997Y-144051917D01*
X115241706Y-144044418D01*
X115415959Y-143898203D01*
X115425203Y-143888959D01*
X115571418Y-143714706D01*
X115578917Y-143703997D01*
X115686302Y-143518000D01*
X117126164Y-143518000D01*
X117126164Y-143818000D01*
X117127605Y-143832632D01*
X117158650Y-143988704D01*
X117169849Y-144015739D01*
X117258256Y-144148051D01*
X117278949Y-144168744D01*
X117411261Y-144257151D01*
X117438296Y-144268350D01*
X117594368Y-144299395D01*
X117609000Y-144300836D01*
X119409000Y-144300836D01*
X119423632Y-144299395D01*
X119579704Y-144268350D01*
X119606739Y-144257151D01*
X119739051Y-144168744D01*
X119759744Y-144148051D01*
X119848151Y-144015739D01*
X119859350Y-143988704D01*
X119890395Y-143832632D01*
X119891836Y-143818000D01*
X119891836Y-143663732D01*
X119915083Y-143703997D01*
X119922582Y-143714706D01*
X120068797Y-143888959D01*
X120078041Y-143898203D01*
X120252294Y-144044418D01*
X120263003Y-144051917D01*
X120424001Y-144144869D01*
X120424000Y-147192116D01*
X120216117Y-147400000D01*
X93032609Y-147400000D01*
X93056461Y-147234103D01*
X93057224Y-147223429D01*
X93057224Y-146855000D01*
X93039677Y-146806791D01*
X92982224Y-146780000D01*
X90530776Y-146780000D01*
X90482567Y-146797547D01*
X90455776Y-146855000D01*
X90455776Y-147223429D01*
X90457490Y-147239371D01*
X90492433Y-147400000D01*
X89947713Y-147400000D01*
X89972680Y-147234354D01*
X89973518Y-147223176D01*
X89973518Y-145978824D01*
X89972210Y-145964881D01*
X89926770Y-145724727D01*
X89918030Y-145701170D01*
X89820059Y-145531478D01*
X89806120Y-145513999D01*
X89662483Y-145380724D01*
X89644011Y-145368130D01*
X89642740Y-145367518D01*
X89947177Y-145367518D01*
X89961120Y-145366210D01*
X90201274Y-145320770D01*
X90224831Y-145312030D01*
X90394522Y-145214059D01*
X90412001Y-145200120D01*
X90545277Y-145056483D01*
X90557871Y-145038011D01*
X90586473Y-144978619D01*
X90592885Y-144994100D01*
X90710728Y-145177466D01*
X90724707Y-145193599D01*
X90832248Y-145286784D01*
X90754534Y-145336728D01*
X90738401Y-145350707D01*
X90595662Y-145515436D01*
X90584121Y-145533395D01*
X90493574Y-145731666D01*
X90487559Y-145752148D01*
X90456539Y-145967897D01*
X90455776Y-145978571D01*
X90455776Y-146347000D01*
X90473323Y-146395209D01*
X90530776Y-146422000D01*
X92982224Y-146422000D01*
X93030433Y-146404453D01*
X93057224Y-146347000D01*
X93057224Y-145978571D01*
X93055510Y-145962629D01*
X92986307Y-145644506D01*
X92976115Y-145619900D01*
X92858272Y-145436534D01*
X92844293Y-145420401D01*
X92679564Y-145277662D01*
X92661605Y-145266121D01*
X92583898Y-145230634D01*
X92698338Y-145098564D01*
X92709879Y-145080605D01*
X92800426Y-144882335D01*
X92806441Y-144861853D01*
X92821245Y-144758890D01*
X92923073Y-144817680D01*
X92947549Y-144826589D01*
X93123976Y-144857698D01*
X93137000Y-144858837D01*
X93333000Y-144858837D01*
X93381209Y-144841290D01*
X93408000Y-144783837D01*
X93408000Y-144122000D01*
X93766000Y-144122000D01*
X93766000Y-144783837D01*
X93783547Y-144832046D01*
X93841000Y-144858837D01*
X94037000Y-144858837D01*
X94056411Y-144856281D01*
X94314330Y-144787172D01*
X94343128Y-144772181D01*
X94480363Y-144657027D01*
X94497106Y-144637074D01*
X94586680Y-144481927D01*
X94595589Y-144457451D01*
X94626698Y-144281024D01*
X94627837Y-144268000D01*
X94627837Y-144122000D01*
X94610290Y-144073791D01*
X94552837Y-144047000D01*
X93841000Y-144047000D01*
X93792791Y-144064547D01*
X93766000Y-144122000D01*
X93408000Y-144122000D01*
X93408000Y-142952163D01*
X93766000Y-142952163D01*
X93766000Y-143614000D01*
X93783547Y-143662209D01*
X93841000Y-143689000D01*
X94552837Y-143689000D01*
X94601046Y-143671453D01*
X94627837Y-143614000D01*
X94627837Y-143468000D01*
X94625281Y-143448589D01*
X94556172Y-143190671D01*
X94541181Y-143161873D01*
X94426027Y-143024637D01*
X94406074Y-143007894D01*
X94250927Y-142918320D01*
X94226451Y-142909411D01*
X94050024Y-142878302D01*
X94037000Y-142877163D01*
X93841000Y-142877163D01*
X93792791Y-142894710D01*
X93766000Y-142952163D01*
X93408000Y-142952163D01*
X93390453Y-142903954D01*
X93333000Y-142877163D01*
X93137000Y-142877163D01*
X93117589Y-142879719D01*
X92859671Y-142948828D01*
X92830873Y-142963819D01*
X92693637Y-143078973D01*
X92676894Y-143098926D01*
X92627337Y-143184761D01*
X92625293Y-143182401D01*
X92460564Y-143039662D01*
X92442605Y-143028121D01*
X92346907Y-142984417D01*
X92444522Y-142928059D01*
X92462001Y-142914120D01*
X92595277Y-142770483D01*
X92607871Y-142752011D01*
X92692887Y-142575473D01*
X92695192Y-142568000D01*
X92699360Y-142568000D01*
X92786256Y-142698051D01*
X92806949Y-142718744D01*
X92939261Y-142807151D01*
X92966296Y-142818350D01*
X93122368Y-142849395D01*
X93137000Y-142850836D01*
X94037000Y-142850836D01*
X94051632Y-142849395D01*
X94207704Y-142818350D01*
X94234739Y-142807151D01*
X94367051Y-142718744D01*
X94387744Y-142698051D01*
X94476151Y-142565739D01*
X94487350Y-142538704D01*
X94518395Y-142382632D01*
X94519836Y-142368000D01*
X94519836Y-141568000D01*
X94518395Y-141553368D01*
X94487350Y-141397296D01*
X94476151Y-141370261D01*
X94387744Y-141237949D01*
X94367051Y-141217256D01*
X94234739Y-141128849D01*
X94207704Y-141117650D01*
X94051632Y-141086605D01*
X94037000Y-141085164D01*
X93137000Y-141085164D01*
X93122368Y-141086605D01*
X92966296Y-141117650D01*
X92939261Y-141128849D01*
X92806949Y-141217256D01*
X92786256Y-141237949D01*
X92711097Y-141350434D01*
X92682770Y-141200725D01*
X92674030Y-141177169D01*
X92576059Y-141007478D01*
X92562120Y-140989999D01*
X92418483Y-140856723D01*
X92400011Y-140844129D01*
X92223473Y-140759113D01*
X92202110Y-140752524D01*
X92008355Y-140723320D01*
X91997177Y-140722482D01*
X91352823Y-140722482D01*
X91338880Y-140723790D01*
X91098726Y-140769230D01*
X91075169Y-140777970D01*
X90905478Y-140875941D01*
X90887999Y-140889880D01*
X90754723Y-141033517D01*
X90742129Y-141051989D01*
X90657113Y-141228527D01*
X90650524Y-141249890D01*
X90646777Y-141274752D01*
X90632770Y-141200726D01*
X90624030Y-141177169D01*
X90526059Y-141007478D01*
X90512120Y-140989999D01*
X90368483Y-140856723D01*
X90350011Y-140844129D01*
X90173473Y-140759113D01*
X90152110Y-140752524D01*
X89958355Y-140723320D01*
X89947177Y-140722482D01*
X89302823Y-140722482D01*
X89288880Y-140723790D01*
X89048726Y-140769230D01*
X89025169Y-140777970D01*
X88855478Y-140875941D01*
X88837999Y-140889880D01*
X88704723Y-141033517D01*
X88692129Y-141051989D01*
X88607113Y-141228527D01*
X88600524Y-141249890D01*
X88592670Y-141302000D01*
X86062021Y-141302000D01*
X86038857Y-141297013D01*
X86014257Y-141295853D01*
X85962321Y-141302000D01*
X85954389Y-141302000D01*
X85942074Y-141303018D01*
X85913412Y-141307789D01*
X85840689Y-141316396D01*
X85820301Y-141323287D01*
X85813278Y-141324456D01*
X85789978Y-141332433D01*
X85636161Y-141415428D01*
X85616701Y-141430523D01*
X85564765Y-141486707D01*
X85191473Y-141860000D01*
X84181491Y-141860000D01*
X84169350Y-141836477D01*
X84261839Y-141786572D01*
X84281299Y-141771477D01*
X84399940Y-141643132D01*
X84413462Y-141622548D01*
X84484133Y-141462693D01*
X84490257Y-141438838D01*
X84505338Y-141264710D01*
X84503406Y-141240158D01*
X84461271Y-141070533D01*
X84451490Y-141047931D01*
X84356682Y-140901100D01*
X84340107Y-140882884D01*
X84202850Y-140774679D01*
X84175070Y-140760934D01*
X84052522Y-140729469D01*
X84162061Y-140566457D01*
X84168484Y-140554773D01*
X84183749Y-140520000D01*
X88715979Y-140520000D01*
X88739143Y-140524987D01*
X88763743Y-140526147D01*
X88815681Y-140520000D01*
X88823611Y-140520000D01*
X88835926Y-140518982D01*
X88864577Y-140514213D01*
X88937310Y-140505605D01*
X88957705Y-140498712D01*
X88964722Y-140497544D01*
X88988022Y-140489567D01*
X89141839Y-140406572D01*
X89161299Y-140391477D01*
X89213246Y-140335281D01*
X90003991Y-139544537D01*
X90023900Y-139531682D01*
X90042116Y-139515107D01*
X90074500Y-139474028D01*
X90080101Y-139468427D01*
X90088089Y-139459000D01*
X90104969Y-139435379D01*
X90150321Y-139377850D01*
X90159867Y-139358556D01*
X90164003Y-139352768D01*
X90174837Y-139330652D01*
X90224916Y-139163201D01*
X90228003Y-139138766D01*
X90225000Y-139062336D01*
X90225000Y-138453932D01*
X90394522Y-138356059D01*
X90412001Y-138342120D01*
X90545277Y-138198483D01*
X90557871Y-138180011D01*
X90586473Y-138120619D01*
X90592885Y-138136100D01*
X90710728Y-138319466D01*
X90724707Y-138335599D01*
X90889436Y-138478338D01*
X90907395Y-138489879D01*
X91105665Y-138580426D01*
X91126147Y-138586441D01*
X91341896Y-138617461D01*
X91352570Y-138618224D01*
X91421000Y-138618224D01*
X91469209Y-138600677D01*
X91496000Y-138543224D01*
X91496000Y-137151000D01*
X91854000Y-137151000D01*
X91854000Y-138543224D01*
X91871547Y-138591433D01*
X91929000Y-138618224D01*
X91997430Y-138618224D01*
X92013372Y-138616510D01*
X92331494Y-138547307D01*
X92356100Y-138537115D01*
X92539466Y-138419272D01*
X92555599Y-138405293D01*
X92698338Y-138240564D01*
X92709879Y-138222605D01*
X92800426Y-138024335D01*
X92802552Y-138017097D01*
X92923073Y-138086680D01*
X92947549Y-138095589D01*
X93123976Y-138126698D01*
X93137000Y-138127837D01*
X93333000Y-138127837D01*
X93381209Y-138110290D01*
X93408000Y-138052837D01*
X93408000Y-137391000D01*
X93766000Y-137391000D01*
X93766000Y-138052837D01*
X93783547Y-138101046D01*
X93841000Y-138127837D01*
X94037000Y-138127837D01*
X94056411Y-138125281D01*
X94314330Y-138056172D01*
X94343128Y-138041181D01*
X94480363Y-137926027D01*
X94497106Y-137906074D01*
X94586680Y-137750927D01*
X94595589Y-137726451D01*
X94626698Y-137550024D01*
X94627837Y-137537000D01*
X94627837Y-137391000D01*
X94610290Y-137342791D01*
X94552837Y-137316000D01*
X93841000Y-137316000D01*
X93792791Y-137333547D01*
X93766000Y-137391000D01*
X93408000Y-137391000D01*
X93408000Y-136221163D01*
X93766000Y-136221163D01*
X93766000Y-136883000D01*
X93783547Y-136931209D01*
X93841000Y-136958000D01*
X94552837Y-136958000D01*
X94601046Y-136940453D01*
X94627837Y-136883000D01*
X94627837Y-136737000D01*
X94625281Y-136717589D01*
X94556172Y-136459671D01*
X94541181Y-136430873D01*
X94426027Y-136293637D01*
X94406074Y-136276894D01*
X94250927Y-136187320D01*
X94226451Y-136178411D01*
X94050024Y-136147302D01*
X94037000Y-136146163D01*
X93841000Y-136146163D01*
X93792791Y-136163710D01*
X93766000Y-136221163D01*
X93408000Y-136221163D01*
X93390453Y-136172954D01*
X93333000Y-136146163D01*
X93137000Y-136146163D01*
X93117589Y-136148719D01*
X92859671Y-136217828D01*
X92830873Y-136232819D01*
X92693637Y-136347973D01*
X92676894Y-136367926D01*
X92667421Y-136384334D01*
X92639272Y-136340534D01*
X92625293Y-136324401D01*
X92460564Y-136181662D01*
X92442605Y-136170121D01*
X92346907Y-136126417D01*
X92444522Y-136070059D01*
X92462001Y-136056120D01*
X92595277Y-135912483D01*
X92607871Y-135894011D01*
X92635326Y-135837000D01*
X92699360Y-135837000D01*
X92786256Y-135967051D01*
X92806949Y-135987744D01*
X92939261Y-136076151D01*
X92966296Y-136087350D01*
X93122368Y-136118395D01*
X93137000Y-136119836D01*
X94037000Y-136119836D01*
X94051632Y-136118395D01*
X94207704Y-136087350D01*
X94234739Y-136076151D01*
X94367051Y-135987744D01*
X94387744Y-135967051D01*
X94476151Y-135834739D01*
X94487350Y-135807704D01*
X94518395Y-135651632D01*
X94519836Y-135637000D01*
X94519836Y-134837000D01*
X94518395Y-134822368D01*
X94487350Y-134666296D01*
X94476151Y-134639261D01*
X94387744Y-134506949D01*
X94367051Y-134486256D01*
X94234739Y-134397849D01*
X94207704Y-134386650D01*
X94051632Y-134355605D01*
X94037000Y-134354164D01*
X93137000Y-134354164D01*
X93122368Y-134355605D01*
X92966296Y-134386650D01*
X92939261Y-134397849D01*
X92806949Y-134486256D01*
X92786256Y-134506949D01*
X92729110Y-134592475D01*
X92728210Y-134582880D01*
X92682770Y-134342726D01*
X92674030Y-134319169D01*
X92576059Y-134149478D01*
X92562120Y-134131999D01*
X92418483Y-133998723D01*
X92400011Y-133986129D01*
X92223473Y-133901113D01*
X92202110Y-133894524D01*
X92008355Y-133865320D01*
X91997177Y-133864482D01*
X91352823Y-133864482D01*
X91338880Y-133865790D01*
X91098726Y-133911230D01*
X91075169Y-133919970D01*
X90905478Y-134017941D01*
X90887999Y-134031880D01*
X90754723Y-134175517D01*
X90742129Y-134193989D01*
X90657113Y-134370527D01*
X90650524Y-134391890D01*
X90646777Y-134416752D01*
X90632770Y-134342726D01*
X90624030Y-134319169D01*
X90526059Y-134149478D01*
X90512120Y-134131999D01*
X90368483Y-133998723D01*
X90350011Y-133986129D01*
X90173473Y-133901113D01*
X90152110Y-133894524D01*
X89958355Y-133865320D01*
X89947177Y-133864482D01*
X89302823Y-133864482D01*
X89288880Y-133865790D01*
X89048726Y-133911230D01*
X89025169Y-133919970D01*
X88855478Y-134017941D01*
X88837999Y-134031880D01*
X88704723Y-134175517D01*
X88692129Y-134193989D01*
X88607113Y-134370527D01*
X88600524Y-134391890D01*
X88571320Y-134585645D01*
X88570482Y-134596823D01*
X88570482Y-135491177D01*
X88571790Y-135505120D01*
X88617230Y-135745274D01*
X88625970Y-135768831D01*
X88723941Y-135938522D01*
X88737880Y-135956001D01*
X88881517Y-136089277D01*
X88899989Y-136101871D01*
X89025000Y-136162073D01*
X89025001Y-136206067D01*
X88855478Y-136303941D01*
X88837999Y-136317880D01*
X88704723Y-136461517D01*
X88692129Y-136479989D01*
X88607113Y-136656527D01*
X88600524Y-136677890D01*
X88571320Y-136871645D01*
X88570482Y-136882823D01*
X88570482Y-137777177D01*
X88571790Y-137791120D01*
X88617230Y-138031274D01*
X88625970Y-138054831D01*
X88723941Y-138224522D01*
X88737880Y-138242001D01*
X88881517Y-138375277D01*
X88899989Y-138387871D01*
X89025000Y-138448073D01*
X89025000Y-138826471D01*
X88531473Y-139320000D01*
X84181491Y-139320000D01*
X84126321Y-139213111D01*
X84119177Y-139201853D01*
X83983342Y-139024828D01*
X83974316Y-139015012D01*
X83809279Y-138864841D01*
X83798658Y-138856780D01*
X83609637Y-138738206D01*
X83597756Y-138732152D01*
X83390724Y-138648926D01*
X83386973Y-138647910D01*
X83457267Y-138628680D01*
X83469764Y-138624032D01*
X83671161Y-138527970D01*
X83682639Y-138521182D01*
X83863843Y-138390974D01*
X83873936Y-138382262D01*
X84029218Y-138222024D01*
X84037610Y-138211661D01*
X84162061Y-138026457D01*
X84168485Y-138014772D01*
X84258174Y-137810457D01*
X84262427Y-137797819D01*
X84314516Y-137580850D01*
X84316464Y-137567659D01*
X84329309Y-137344895D01*
X84328890Y-137331568D01*
X84302083Y-137110050D01*
X84299311Y-137097007D01*
X84233701Y-136883737D01*
X84228662Y-136871391D01*
X84126321Y-136673111D01*
X84119177Y-136661853D01*
X83983342Y-136484828D01*
X83974316Y-136475012D01*
X83809279Y-136324841D01*
X83798658Y-136316780D01*
X83609637Y-136198206D01*
X83597756Y-136192152D01*
X83539445Y-136168711D01*
X83693635Y-136099254D01*
X83704716Y-136093086D01*
X83895889Y-135964381D01*
X83905773Y-135956435D01*
X84072527Y-135797359D01*
X84080930Y-135787860D01*
X84218498Y-135602962D01*
X84225181Y-135592184D01*
X84329629Y-135386750D01*
X84334400Y-135375000D01*
X84402741Y-135154906D01*
X84405465Y-135142520D01*
X84410590Y-135103855D01*
X84399530Y-135053758D01*
X84336240Y-135019000D01*
X81665694Y-135019000D01*
X81617485Y-135036547D01*
X81591833Y-135080976D01*
X81592292Y-135109401D01*
X81621173Y-135247047D01*
X81624818Y-135259194D01*
X81709469Y-135473545D01*
X81715108Y-135484905D01*
X81834665Y-135681929D01*
X81842137Y-135692176D01*
X81993181Y-135866239D01*
X82002273Y-135875081D01*
X82180486Y-136021206D01*
X82190937Y-136028389D01*
X82391222Y-136142398D01*
X82402735Y-136147717D01*
X82461150Y-136168921D01*
X82328839Y-136232030D01*
X82317361Y-136238818D01*
X82136157Y-136369026D01*
X82126064Y-136377738D01*
X81970782Y-136537976D01*
X81962390Y-136548339D01*
X81837939Y-136733543D01*
X81831515Y-136745228D01*
X81741826Y-136949543D01*
X81737573Y-136962181D01*
X81685484Y-137179150D01*
X81683536Y-137192341D01*
X81670691Y-137415105D01*
X81671110Y-137428432D01*
X81697917Y-137649950D01*
X81700689Y-137662993D01*
X81766299Y-137876263D01*
X81771338Y-137888609D01*
X81873679Y-138086889D01*
X81880823Y-138098147D01*
X82016658Y-138275172D01*
X82025684Y-138284988D01*
X82190721Y-138435159D01*
X82201342Y-138443220D01*
X82390363Y-138561794D01*
X82402244Y-138567848D01*
X82609276Y-138651074D01*
X82613027Y-138652090D01*
X82542733Y-138671320D01*
X82530236Y-138675968D01*
X82328839Y-138772030D01*
X82317361Y-138778818D01*
X82136157Y-138909026D01*
X82126064Y-138917738D01*
X81970782Y-139077976D01*
X81962390Y-139088339D01*
X81837939Y-139273543D01*
X81831515Y-139285228D01*
X81741826Y-139489543D01*
X81737573Y-139502181D01*
X81685484Y-139719150D01*
X81683536Y-139732341D01*
X81670691Y-139955105D01*
X81671110Y-139968432D01*
X81697917Y-140189950D01*
X81700689Y-140202993D01*
X81766299Y-140416263D01*
X81771338Y-140428609D01*
X81873679Y-140626889D01*
X81880823Y-140638147D01*
X81933583Y-140706905D01*
X81930279Y-140707455D01*
X81906979Y-140715432D01*
X81753162Y-140798427D01*
X81733702Y-140813522D01*
X81615061Y-140941867D01*
X81601539Y-140962451D01*
X81530868Y-141122306D01*
X81524744Y-141146161D01*
X81509663Y-141320289D01*
X80475000Y-141320289D01*
X80475000Y-134576145D01*
X81589410Y-134576145D01*
X81600470Y-134626242D01*
X81663760Y-134661000D01*
X82746000Y-134661000D01*
X82794209Y-134643453D01*
X82821000Y-134586000D01*
X82821000Y-133510756D01*
X83179000Y-133510756D01*
X83179000Y-134586000D01*
X83196547Y-134634209D01*
X83254000Y-134661000D01*
X84334306Y-134661000D01*
X84382515Y-134643453D01*
X84408167Y-134599024D01*
X84407708Y-134570599D01*
X84378827Y-134432953D01*
X84375182Y-134420806D01*
X84290531Y-134206455D01*
X84284892Y-134195095D01*
X84165335Y-133998071D01*
X84157863Y-133987824D01*
X84006819Y-133813761D01*
X83997727Y-133804919D01*
X83819514Y-133658794D01*
X83809063Y-133651611D01*
X83608778Y-133537602D01*
X83597265Y-133532283D01*
X83380634Y-133453650D01*
X83364899Y-133449799D01*
X83263855Y-133436406D01*
X83213758Y-133447466D01*
X83179000Y-133510756D01*
X82821000Y-133510756D01*
X82821000Y-133502900D01*
X82803453Y-133454691D01*
X82759024Y-133429039D01*
X82727158Y-133430305D01*
X82528453Y-133481878D01*
X82516491Y-133486091D01*
X82306365Y-133580746D01*
X82295284Y-133586914D01*
X82104111Y-133715619D01*
X82094227Y-133723565D01*
X81927473Y-133882641D01*
X81919070Y-133892140D01*
X81781502Y-134077038D01*
X81774819Y-134087816D01*
X81670371Y-134293250D01*
X81665600Y-134305000D01*
X81597259Y-134525094D01*
X81594535Y-134537480D01*
X81589410Y-134576145D01*
X80475000Y-134576145D01*
X80475000Y-130475000D01*
X129525000Y-130475000D01*
X129525001Y-149525000D01*
X129525001Y-149525000D01*
G37*
X129525001Y-149525000D02*
X80475000Y-149525000D01*
X80475000Y-141320289D01*
X81509663Y-141320289D01*
X81511595Y-141344841D01*
X81553730Y-141514466D01*
X81563511Y-141537068D01*
X81658319Y-141683899D01*
X81674894Y-141702115D01*
X81812151Y-141810320D01*
X81833817Y-141821040D01*
X81831515Y-141825228D01*
X81741826Y-142029543D01*
X81737573Y-142042181D01*
X81685484Y-142259150D01*
X81683536Y-142272341D01*
X81670691Y-142495105D01*
X81671110Y-142508432D01*
X81697917Y-142729950D01*
X81700689Y-142742993D01*
X81766299Y-142956263D01*
X81771338Y-142968609D01*
X81873679Y-143166889D01*
X81880823Y-143178147D01*
X82016658Y-143355172D01*
X82025684Y-143364988D01*
X82190721Y-143515159D01*
X82201342Y-143523220D01*
X82390363Y-143641794D01*
X82402244Y-143647848D01*
X82450294Y-143667164D01*
X82150000Y-143667164D01*
X82135368Y-143668605D01*
X81979296Y-143699650D01*
X81952261Y-143710849D01*
X81819949Y-143799256D01*
X81799256Y-143819949D01*
X81710849Y-143952261D01*
X81699650Y-143979296D01*
X81668605Y-144135368D01*
X81667164Y-144150000D01*
X81667164Y-145850000D01*
X81668605Y-145864632D01*
X81699650Y-146020704D01*
X81710849Y-146047739D01*
X81799256Y-146180051D01*
X81819949Y-146200744D01*
X81952261Y-146289151D01*
X81979296Y-146300350D01*
X82135368Y-146331395D01*
X82150000Y-146332836D01*
X83850000Y-146332836D01*
X83864632Y-146331395D01*
X84020704Y-146300350D01*
X84047739Y-146289151D01*
X84180051Y-146200744D01*
X84200744Y-146180051D01*
X84289151Y-146047739D01*
X84300350Y-146020704D01*
X84331395Y-145864632D01*
X84332836Y-145850000D01*
X84332836Y-145600000D01*
X84951473Y-145600000D01*
X86331460Y-146979988D01*
X86344318Y-146999901D01*
X86360893Y-147018116D01*
X86401972Y-147050500D01*
X86407573Y-147056101D01*
X86417000Y-147064089D01*
X86440624Y-147080971D01*
X86498150Y-147126321D01*
X86517445Y-147135867D01*
X86523232Y-147140003D01*
X86545349Y-147150839D01*
X86712801Y-147200917D01*
X86737235Y-147204003D01*
X86813665Y-147201000D01*
X87589482Y-147201000D01*
X87589482Y-147223176D01*
X87590790Y-147237119D01*
X87636230Y-147477273D01*
X87644970Y-147500830D01*
X87742941Y-147670522D01*
X87756880Y-147688001D01*
X87900517Y-147821276D01*
X87918989Y-147833870D01*
X88095528Y-147918887D01*
X88116891Y-147925476D01*
X88302809Y-147953499D01*
X88310023Y-147962799D01*
X88366219Y-148014746D01*
X88730460Y-148378988D01*
X88743318Y-148398901D01*
X88759893Y-148417116D01*
X88800972Y-148449500D01*
X88806573Y-148455101D01*
X88816000Y-148463089D01*
X88839621Y-148479969D01*
X88897150Y-148525321D01*
X88916444Y-148534867D01*
X88922232Y-148539003D01*
X88944348Y-148549837D01*
X89111799Y-148599916D01*
X89136234Y-148603003D01*
X89212664Y-148600000D01*
X120317184Y-148600000D01*
X120457949Y-148630305D01*
X120482549Y-148631465D01*
X120664382Y-148609944D01*
X120693745Y-148600020D01*
X120906142Y-148474408D01*
X120920997Y-148462885D01*
X121443778Y-147940105D01*
X121464958Y-147926429D01*
X121483174Y-147909854D01*
X121517234Y-147866649D01*
X121523249Y-147860634D01*
X121531236Y-147851208D01*
X121548968Y-147826396D01*
X121596532Y-147766060D01*
X121606544Y-147745825D01*
X121610765Y-147739918D01*
X121621600Y-147717802D01*
X121674063Y-147542376D01*
X121677149Y-147517943D01*
X121674000Y-147437789D01*
X121674000Y-144144869D01*
X121834997Y-144051917D01*
X121845706Y-144044418D01*
X122019959Y-143898203D01*
X122029203Y-143888959D01*
X122175418Y-143714706D01*
X122182917Y-143703997D01*
X122296652Y-143507002D01*
X122302177Y-143495153D01*
X122379976Y-143281401D01*
X122383360Y-143268774D01*
X122422860Y-143044759D01*
X122423999Y-143031735D01*
X122423999Y-142804265D01*
X122422860Y-142791241D01*
X122383360Y-142567226D01*
X122379976Y-142554599D01*
X122302177Y-142340847D01*
X122296652Y-142328998D01*
X122182917Y-142132003D01*
X122175418Y-142121294D01*
X122029203Y-141947041D01*
X122019959Y-141937797D01*
X121845706Y-141791582D01*
X121834997Y-141784083D01*
X121674000Y-141691131D01*
X121674000Y-137413869D01*
X121834997Y-137320917D01*
X121845706Y-137313418D01*
X122019959Y-137167203D01*
X122029203Y-137157959D01*
X122175418Y-136983706D01*
X122182917Y-136972997D01*
X122296652Y-136776002D01*
X122302177Y-136764153D01*
X122379976Y-136550401D01*
X122383360Y-136537774D01*
X122422860Y-136313759D01*
X122423999Y-136300735D01*
X122423999Y-136073265D01*
X122422860Y-136060241D01*
X122383360Y-135836226D01*
X122379976Y-135823599D01*
X122302177Y-135609847D01*
X122296652Y-135597998D01*
X122182917Y-135401003D01*
X122175418Y-135390294D01*
X122029203Y-135216041D01*
X122019959Y-135206797D01*
X121845706Y-135060582D01*
X121834997Y-135053083D01*
X121638002Y-134939348D01*
X121626153Y-134933823D01*
X121412401Y-134856024D01*
X121399774Y-134852640D01*
X121175759Y-134813140D01*
X121162735Y-134812001D01*
X120935265Y-134812001D01*
X120922241Y-134813140D01*
X120698226Y-134852640D01*
X120685599Y-134856024D01*
X120471847Y-134933823D01*
X120459998Y-134939348D01*
X120263003Y-135053083D01*
X120252294Y-135060582D01*
X120078041Y-135206797D01*
X120068797Y-135216041D01*
X119922582Y-135390294D01*
X119915083Y-135401003D01*
X119891836Y-135441268D01*
X119891836Y-135287000D01*
X119890395Y-135272368D01*
X119859350Y-135116296D01*
X119848151Y-135089261D01*
X119759744Y-134956949D01*
X119739051Y-134936256D01*
X119606739Y-134847849D01*
X119579704Y-134836650D01*
X119423632Y-134805605D01*
X119409000Y-134804164D01*
X117609000Y-134804164D01*
X117594368Y-134805605D01*
X117438296Y-134836650D01*
X117411261Y-134847849D01*
X117278949Y-134936256D01*
X117258256Y-134956949D01*
X117169849Y-135089261D01*
X117158650Y-135116296D01*
X117127605Y-135272368D01*
X117126164Y-135287000D01*
X117126164Y-135587000D01*
X115686302Y-135587000D01*
X115578917Y-135401003D01*
X115571418Y-135390294D01*
X115425203Y-135216041D01*
X115415959Y-135206797D01*
X115241706Y-135060582D01*
X115230997Y-135053083D01*
X115034002Y-134939348D01*
X115022153Y-134933823D01*
X114808401Y-134856024D01*
X114795774Y-134852640D01*
X114571759Y-134813140D01*
X114558735Y-134812001D01*
X114331265Y-134812001D01*
X114318241Y-134813140D01*
X114094226Y-134852640D01*
X114081599Y-134856024D01*
X113867847Y-134933823D01*
X113855998Y-134939348D01*
X113659003Y-135053083D01*
X113648294Y-135060582D01*
X113474041Y-135206797D01*
X113464797Y-135216041D01*
X113318582Y-135390294D01*
X113311083Y-135401003D01*
X113287836Y-135441268D01*
X113287836Y-135287000D01*
X113286395Y-135272368D01*
X113255350Y-135116296D01*
X113244151Y-135089261D01*
X113155744Y-134956949D01*
X113135051Y-134936256D01*
X113002739Y-134847849D01*
X112975704Y-134836650D01*
X112819632Y-134805605D01*
X112805000Y-134804164D01*
X111005000Y-134804164D01*
X110990368Y-134805605D01*
X110834296Y-134836650D01*
X110807261Y-134847849D01*
X110674949Y-134936256D01*
X110654256Y-134956949D01*
X110565849Y-135089261D01*
X110554650Y-135116296D01*
X110523605Y-135272368D01*
X110522164Y-135287000D01*
X110522164Y-135587000D01*
X109082302Y-135587000D01*
X108974917Y-135401003D01*
X108967418Y-135390294D01*
X108821203Y-135216041D01*
X108811959Y-135206797D01*
X108637706Y-135060582D01*
X108626997Y-135053083D01*
X108430002Y-134939348D01*
X108418153Y-134933823D01*
X108204401Y-134856024D01*
X108191774Y-134852640D01*
X107967759Y-134813140D01*
X107954735Y-134812001D01*
X107727265Y-134812001D01*
X107714241Y-134813140D01*
X107490226Y-134852640D01*
X107477599Y-134856024D01*
X107263847Y-134933823D01*
X107251998Y-134939348D01*
X107055003Y-135053083D01*
X107044294Y-135060582D01*
X106870041Y-135206797D01*
X106860797Y-135216041D01*
X106714582Y-135390294D01*
X106707083Y-135401003D01*
X106683836Y-135441268D01*
X106683836Y-135287000D01*
X106682395Y-135272368D01*
X106651350Y-135116296D01*
X106640151Y-135089261D01*
X106551744Y-134956949D01*
X106531051Y-134936256D01*
X106398739Y-134847849D01*
X106371704Y-134836650D01*
X106215632Y-134805605D01*
X106201000Y-134804164D01*
X104401000Y-134804164D01*
X104386368Y-134805605D01*
X104230296Y-134836650D01*
X104203261Y-134847849D01*
X104070949Y-134936256D01*
X104050256Y-134956949D01*
X103961849Y-135089261D01*
X103950650Y-135116296D01*
X103919605Y-135272368D01*
X103918164Y-135287000D01*
X103918164Y-135587000D01*
X102478302Y-135587000D01*
X102370917Y-135401003D01*
X102363418Y-135390294D01*
X102217203Y-135216041D01*
X102207959Y-135206797D01*
X102033706Y-135060582D01*
X102022997Y-135053083D01*
X101826002Y-134939348D01*
X101814153Y-134933823D01*
X101600401Y-134856024D01*
X101587774Y-134852640D01*
X101363759Y-134813140D01*
X101350735Y-134812001D01*
X101123265Y-134812001D01*
X101110241Y-134813140D01*
X100886226Y-134852640D01*
X100873599Y-134856024D01*
X100659847Y-134933823D01*
X100647998Y-134939348D01*
X100451003Y-135053083D01*
X100440294Y-135060582D01*
X100266041Y-135206797D01*
X100256797Y-135216041D01*
X100110582Y-135390294D01*
X100103083Y-135401003D01*
X100079836Y-135441268D01*
X100079836Y-135287000D01*
X100078395Y-135272368D01*
X100047350Y-135116296D01*
X100036151Y-135089261D01*
X99947744Y-134956949D01*
X99927051Y-134936256D01*
X99794739Y-134847849D01*
X99767704Y-134836650D01*
X99611632Y-134805605D01*
X99597000Y-134804164D01*
X97797000Y-134804164D01*
X97782368Y-134805605D01*
X97626296Y-134836650D01*
X97599261Y-134847849D01*
X97466949Y-134936256D01*
X97446256Y-134956949D01*
X97357849Y-135089261D01*
X97346650Y-135116296D01*
X97315605Y-135272368D01*
X97314164Y-135287000D01*
X97314164Y-135587000D01*
X96474640Y-135587000D01*
X96387744Y-135456949D01*
X96367051Y-135436256D01*
X96234739Y-135347849D01*
X96207704Y-135336650D01*
X96051632Y-135305605D01*
X96037000Y-135304164D01*
X95137000Y-135304164D01*
X95122368Y-135305605D01*
X94966296Y-135336650D01*
X94939261Y-135347849D01*
X94806949Y-135436256D01*
X94786256Y-135456949D01*
X94697849Y-135589261D01*
X94686650Y-135616296D01*
X94655605Y-135772368D01*
X94654164Y-135787000D01*
X94654164Y-136587000D01*
X94655605Y-136601632D01*
X94686650Y-136757704D01*
X94697849Y-136784739D01*
X94786256Y-136917051D01*
X94806949Y-136937744D01*
X94939261Y-137026151D01*
X94966296Y-137037350D01*
X95122368Y-137068395D01*
X95137000Y-137069836D01*
X96037000Y-137069836D01*
X96051632Y-137068395D01*
X96207704Y-137037350D01*
X96234739Y-137026151D01*
X96367051Y-136937744D01*
X96387744Y-136917051D01*
X96474640Y-136787000D01*
X97314164Y-136787000D01*
X97314164Y-137087000D01*
X97315605Y-137101632D01*
X97346650Y-137257704D01*
X97357849Y-137284739D01*
X97446256Y-137417051D01*
X97466949Y-137437744D01*
X97599261Y-137526151D01*
X97626296Y-137537350D01*
X97782368Y-137568395D01*
X97797000Y-137569836D01*
X99597000Y-137569836D01*
X99611632Y-137568395D01*
X99767704Y-137537350D01*
X99794739Y-137526151D01*
X99927051Y-137437744D01*
X99947744Y-137417051D01*
X100036151Y-137284739D01*
X100047350Y-137257704D01*
X100078395Y-137101632D01*
X100079836Y-137087000D01*
X100079836Y-136932732D01*
X100103083Y-136972997D01*
X100110582Y-136983706D01*
X100256797Y-137157959D01*
X100266041Y-137167203D01*
X100440294Y-137313418D01*
X100451003Y-137320917D01*
X100647998Y-137434652D01*
X100659847Y-137440177D01*
X100873599Y-137517976D01*
X100886226Y-137521360D01*
X101110241Y-137560860D01*
X101123265Y-137561999D01*
X101350735Y-137561999D01*
X101363759Y-137560860D01*
X101587774Y-137521360D01*
X101600401Y-137517976D01*
X101814153Y-137440177D01*
X101826002Y-137434652D01*
X102022997Y-137320917D01*
X102033706Y-137313418D01*
X102207959Y-137167203D01*
X102217203Y-137157959D01*
X102363418Y-136983706D01*
X102370917Y-136972997D01*
X102478302Y-136787000D01*
X103918164Y-136787000D01*
X103918164Y-137087000D01*
X103919605Y-137101632D01*
X103950650Y-137257704D01*
X103961849Y-137284739D01*
X104050256Y-137417051D01*
X104070949Y-137437744D01*
X104203261Y-137526151D01*
X104230296Y-137537350D01*
X104386368Y-137568395D01*
X104401000Y-137569836D01*
X106201000Y-137569836D01*
X106215632Y-137568395D01*
X106371704Y-137537350D01*
X106398739Y-137526151D01*
X106531051Y-137437744D01*
X106551744Y-137417051D01*
X106640151Y-137284739D01*
X106651350Y-137257704D01*
X106682395Y-137101632D01*
X106683836Y-137087000D01*
X106683836Y-136932732D01*
X106707083Y-136972997D01*
X106714582Y-136983706D01*
X106860797Y-137157959D01*
X106870041Y-137167203D01*
X107044294Y-137313418D01*
X107055003Y-137320917D01*
X107251998Y-137434652D01*
X107263847Y-137440177D01*
X107477599Y-137517976D01*
X107490226Y-137521360D01*
X107714241Y-137560860D01*
X107727265Y-137561999D01*
X107954735Y-137561999D01*
X107967759Y-137560860D01*
X108191774Y-137521360D01*
X108204401Y-137517976D01*
X108418153Y-137440177D01*
X108430002Y-137434652D01*
X108626997Y-137320917D01*
X108637706Y-137313418D01*
X108811959Y-137167203D01*
X108821203Y-137157959D01*
X108967418Y-136983706D01*
X108974917Y-136972997D01*
X109082302Y-136787000D01*
X110522164Y-136787000D01*
X110522164Y-137087000D01*
X110523605Y-137101632D01*
X110554650Y-137257704D01*
X110565849Y-137284739D01*
X110654256Y-137417051D01*
X110674949Y-137437744D01*
X110807261Y-137526151D01*
X110834296Y-137537350D01*
X110990368Y-137568395D01*
X111005000Y-137569836D01*
X112805000Y-137569836D01*
X112819632Y-137568395D01*
X112975704Y-137537350D01*
X113002739Y-137526151D01*
X113135051Y-137437744D01*
X113155744Y-137417051D01*
X113244151Y-137284739D01*
X113255350Y-137257704D01*
X113286395Y-137101632D01*
X113287836Y-137087000D01*
X113287836Y-136932732D01*
X113311083Y-136972997D01*
X113318582Y-136983706D01*
X113464797Y-137157959D01*
X113474041Y-137167203D01*
X113648294Y-137313418D01*
X113659003Y-137320917D01*
X113855998Y-137434652D01*
X113867847Y-137440177D01*
X114081599Y-137517976D01*
X114094226Y-137521360D01*
X114318241Y-137560860D01*
X114331265Y-137561999D01*
X114558735Y-137561999D01*
X114571759Y-137560860D01*
X114795774Y-137521360D01*
X114808401Y-137517976D01*
X115022153Y-137440177D01*
X115034002Y-137434652D01*
X115230997Y-137320917D01*
X115241706Y-137313418D01*
X115415959Y-137167203D01*
X115425203Y-137157959D01*
X115571418Y-136983706D01*
X115578917Y-136972997D01*
X115686302Y-136787000D01*
X117126164Y-136787000D01*
X117126164Y-137087000D01*
X117127605Y-137101632D01*
X117158650Y-137257704D01*
X117169849Y-137284739D01*
X117258256Y-137417051D01*
X117278949Y-137437744D01*
X117411261Y-137526151D01*
X117438296Y-137537350D01*
X117594368Y-137568395D01*
X117609000Y-137569836D01*
X119409000Y-137569836D01*
X119423632Y-137568395D01*
X119579704Y-137537350D01*
X119606739Y-137526151D01*
X119739051Y-137437744D01*
X119759744Y-137417051D01*
X119848151Y-137284739D01*
X119859350Y-137257704D01*
X119890395Y-137101632D01*
X119891836Y-137087000D01*
X119891836Y-136932732D01*
X119915083Y-136972997D01*
X119922582Y-136983706D01*
X120068797Y-137157959D01*
X120078041Y-137167203D01*
X120252294Y-137313418D01*
X120263003Y-137320917D01*
X120424001Y-137413869D01*
X120424000Y-141690898D01*
X120424001Y-141690910D01*
X120424001Y-141691131D01*
X120263003Y-141784083D01*
X120252294Y-141791582D01*
X120078041Y-141937797D01*
X120068797Y-141947041D01*
X119922582Y-142121294D01*
X119915083Y-142132003D01*
X119891836Y-142172268D01*
X119891836Y-142018000D01*
X119890395Y-142003368D01*
X119859350Y-141847296D01*
X119848151Y-141820261D01*
X119759744Y-141687949D01*
X119739051Y-141667256D01*
X119606739Y-141578849D01*
X119579704Y-141567650D01*
X119423632Y-141536605D01*
X119409000Y-141535164D01*
X117609000Y-141535164D01*
X117594368Y-141536605D01*
X117438296Y-141567650D01*
X117411261Y-141578849D01*
X117278949Y-141667256D01*
X117258256Y-141687949D01*
X117169849Y-141820261D01*
X117158650Y-141847296D01*
X117127605Y-142003368D01*
X117126164Y-142018000D01*
X117126164Y-142318000D01*
X115686302Y-142318000D01*
X115578917Y-142132003D01*
X115571418Y-142121294D01*
X115425203Y-141947041D01*
X115415959Y-141937797D01*
X115241706Y-141791582D01*
X115230997Y-141784083D01*
X115034002Y-141670348D01*
X115022153Y-141664823D01*
X114808401Y-141587024D01*
X114795774Y-141583640D01*
X114571759Y-141544140D01*
X114558735Y-141543001D01*
X114331265Y-141543001D01*
X114318241Y-141544140D01*
X114094226Y-141583640D01*
X114081599Y-141587024D01*
X113867847Y-141664823D01*
X113855998Y-141670348D01*
X113659003Y-141784083D01*
X113648294Y-141791582D01*
X113474041Y-141937797D01*
X113464797Y-141947041D01*
X113318582Y-142121294D01*
X113311083Y-142132003D01*
X113287836Y-142172268D01*
X113287836Y-142018000D01*
X113286395Y-142003368D01*
X113255350Y-141847296D01*
X113244151Y-141820261D01*
X113155744Y-141687949D01*
X113135051Y-141667256D01*
X113002739Y-141578849D01*
X112975704Y-141567650D01*
X112819632Y-141536605D01*
X112805000Y-141535164D01*
X111005000Y-141535164D01*
X110990368Y-141536605D01*
X110834296Y-141567650D01*
X110807261Y-141578849D01*
X110674949Y-141667256D01*
X110654256Y-141687949D01*
X110565849Y-141820261D01*
X110554650Y-141847296D01*
X110523605Y-142003368D01*
X110522164Y-142018000D01*
X110522164Y-142318000D01*
X109082302Y-142318000D01*
X108974917Y-142132003D01*
X108967418Y-142121294D01*
X108821203Y-141947041D01*
X108811959Y-141937797D01*
X108637706Y-141791582D01*
X108626997Y-141784083D01*
X108430002Y-141670348D01*
X108418153Y-141664823D01*
X108204401Y-141587024D01*
X108191774Y-141583640D01*
X107967759Y-141544140D01*
X107954735Y-141543001D01*
X107727265Y-141543001D01*
X107714241Y-141544140D01*
X107490226Y-141583640D01*
X107477599Y-141587024D01*
X107263847Y-141664823D01*
X107251998Y-141670348D01*
X107055003Y-141784083D01*
X107044294Y-141791582D01*
X106870041Y-141937797D01*
X106860797Y-141947041D01*
X106714582Y-142121294D01*
X106707083Y-142132003D01*
X106683836Y-142172268D01*
X106683836Y-142018000D01*
X106682395Y-142003368D01*
X106651350Y-141847296D01*
X106640151Y-141820261D01*
X106551744Y-141687949D01*
X106531051Y-141667256D01*
X106398739Y-141578849D01*
X106371704Y-141567650D01*
X106215632Y-141536605D01*
X106201000Y-141535164D01*
X104401000Y-141535164D01*
X104386368Y-141536605D01*
X104230296Y-141567650D01*
X104203261Y-141578849D01*
X104070949Y-141667256D01*
X104050256Y-141687949D01*
X103961849Y-141820261D01*
X103950650Y-141847296D01*
X103919605Y-142003368D01*
X103918164Y-142018000D01*
X103918164Y-142318000D01*
X102478302Y-142318000D01*
X102370917Y-142132003D01*
X102363418Y-142121294D01*
X102217203Y-141947041D01*
X102207959Y-141937797D01*
X102033706Y-141791582D01*
X102022997Y-141784083D01*
X101826002Y-141670348D01*
X101814153Y-141664823D01*
X101600401Y-141587024D01*
X101587774Y-141583640D01*
X101363759Y-141544140D01*
X101350735Y-141543001D01*
X101123265Y-141543001D01*
X101110241Y-141544140D01*
X100886226Y-141583640D01*
X100873599Y-141587024D01*
X100659847Y-141664823D01*
X100647998Y-141670348D01*
X100451003Y-141784083D01*
X100440294Y-141791582D01*
X100266041Y-141937797D01*
X100256797Y-141947041D01*
X100110582Y-142121294D01*
X100103083Y-142132003D01*
X100079836Y-142172268D01*
X100079836Y-142018000D01*
X100078395Y-142003368D01*
X100047350Y-141847296D01*
X100036151Y-141820261D01*
X99947744Y-141687949D01*
X99927051Y-141667256D01*
X99794739Y-141578849D01*
X99767704Y-141567650D01*
X99611632Y-141536605D01*
X99597000Y-141535164D01*
X97797000Y-141535164D01*
X97782368Y-141536605D01*
X97626296Y-141567650D01*
X97599261Y-141578849D01*
X97466949Y-141667256D01*
X97446256Y-141687949D01*
X97357849Y-141820261D01*
X97346650Y-141847296D01*
X97315605Y-142003368D01*
X97314164Y-142018000D01*
X97314164Y-142325553D01*
X97293924Y-142320356D01*
X97275272Y-142318000D01*
X96474640Y-142318000D01*
X96387744Y-142187949D01*
X96367051Y-142167256D01*
X96234739Y-142078849D01*
X96207704Y-142067650D01*
X96051632Y-142036605D01*
X96037000Y-142035164D01*
X95137000Y-142035164D01*
X95122368Y-142036605D01*
X94966296Y-142067650D01*
X94939261Y-142078849D01*
X94806949Y-142167256D01*
X94786256Y-142187949D01*
X94697849Y-142320261D01*
X94686650Y-142347296D01*
X94655605Y-142503368D01*
X94654164Y-142518000D01*
X94654164Y-143318000D01*
X94655605Y-143332632D01*
X94686650Y-143488704D01*
X94697849Y-143515739D01*
X94786256Y-143648051D01*
X94806949Y-143668744D01*
X94939261Y-143757151D01*
X94966296Y-143768350D01*
X95122368Y-143799395D01*
X95137000Y-143800836D01*
X96037000Y-143800836D01*
X96051632Y-143799395D01*
X96207704Y-143768350D01*
X96234739Y-143757151D01*
X96367051Y-143668744D01*
X96387744Y-143648051D01*
X96474640Y-143518000D01*
X97290611Y-143518000D01*
X97302925Y-143516982D01*
X97314164Y-143515111D01*
X97314164Y-143818000D01*
X97315605Y-143832632D01*
X97346650Y-143988704D01*
X97357849Y-144015739D01*
X97446256Y-144148051D01*
X97466949Y-144168744D01*
X97599261Y-144257151D01*
X97626296Y-144268350D01*
X97782368Y-144299395D01*
X97797000Y-144300836D01*
X99597000Y-144300836D01*
X99611632Y-144299395D01*
X99767704Y-144268350D01*
X99794739Y-144257151D01*
X99927051Y-144168744D01*
X99947744Y-144148051D01*
X100036151Y-144015739D01*
X100047350Y-143988704D01*
X100078395Y-143832632D01*
X100079836Y-143818000D01*
X100079836Y-143663732D01*
X100103083Y-143703997D01*
X100110582Y-143714706D01*
X100256797Y-143888959D01*
X100266041Y-143898203D01*
X100440294Y-144044418D01*
X100451003Y-144051917D01*
X100647998Y-144165652D01*
X100659847Y-144171177D01*
X100873599Y-144248976D01*
X100886226Y-144252360D01*
X101110241Y-144291860D01*
X101123265Y-144292999D01*
X101350735Y-144292999D01*
X101363759Y-144291860D01*
X101587774Y-144252360D01*
X101600401Y-144248976D01*
X101814153Y-144171177D01*
X101826002Y-144165652D01*
X102022997Y-144051917D01*
X102033706Y-144044418D01*
X102207959Y-143898203D01*
X102217203Y-143888959D01*
X102363418Y-143714706D01*
X102370917Y-143703997D01*
X102478302Y-143518000D01*
X103918164Y-143518000D01*
X103918164Y-143818000D01*
X103919605Y-143832632D01*
X103950650Y-143988704D01*
X103961849Y-144015739D01*
X104050256Y-144148051D01*
X104070949Y-144168744D01*
X104203261Y-144257151D01*
X104230296Y-144268350D01*
X104386368Y-144299395D01*
X104401000Y-144300836D01*
X106201000Y-144300836D01*
X106215632Y-144299395D01*
X106371704Y-144268350D01*
X106398739Y-144257151D01*
X106531051Y-144168744D01*
X106551744Y-144148051D01*
X106640151Y-144015739D01*
X106651350Y-143988704D01*
X106682395Y-143832632D01*
X106683836Y-143818000D01*
X106683836Y-143663732D01*
X106707083Y-143703997D01*
X106714582Y-143714706D01*
X106860797Y-143888959D01*
X106870041Y-143898203D01*
X107044294Y-144044418D01*
X107055003Y-144051917D01*
X107251998Y-144165652D01*
X107263847Y-144171177D01*
X107477599Y-144248976D01*
X107490226Y-144252360D01*
X107714241Y-144291860D01*
X107727265Y-144292999D01*
X107954735Y-144292999D01*
X107967759Y-144291860D01*
X108191774Y-144252360D01*
X108204401Y-144248976D01*
X108418153Y-144171177D01*
X108430002Y-144165652D01*
X108626997Y-144051917D01*
X108637706Y-144044418D01*
X108811959Y-143898203D01*
X108821203Y-143888959D01*
X108967418Y-143714706D01*
X108974917Y-143703997D01*
X109082302Y-143518000D01*
X110522164Y-143518000D01*
X110522164Y-143818000D01*
X110523605Y-143832632D01*
X110554650Y-143988704D01*
X110565849Y-144015739D01*
X110654256Y-144148051D01*
X110674949Y-144168744D01*
X110807261Y-144257151D01*
X110834296Y-144268350D01*
X110990368Y-144299395D01*
X111005000Y-144300836D01*
X112805000Y-144300836D01*
X112819632Y-144299395D01*
X112975704Y-144268350D01*
X113002739Y-144257151D01*
X113135051Y-144168744D01*
X113155744Y-144148051D01*
X113244151Y-144015739D01*
X113255350Y-143988704D01*
X113286395Y-143832632D01*
X113287836Y-143818000D01*
X113287836Y-143663732D01*
X113311083Y-143703997D01*
X113318582Y-143714706D01*
X113464797Y-143888959D01*
X113474041Y-143898203D01*
X113648294Y-144044418D01*
X113659003Y-144051917D01*
X113855998Y-144165652D01*
X113867847Y-144171177D01*
X114081599Y-144248976D01*
X114094226Y-144252360D01*
X114318241Y-144291860D01*
X114331265Y-144292999D01*
X114558735Y-144292999D01*
X114571759Y-144291860D01*
X114795774Y-144252360D01*
X114808401Y-144248976D01*
X115022153Y-144171177D01*
X115034002Y-144165652D01*
X115230997Y-144051917D01*
X115241706Y-144044418D01*
X115415959Y-143898203D01*
X115425203Y-143888959D01*
X115571418Y-143714706D01*
X115578917Y-143703997D01*
X115686302Y-143518000D01*
X117126164Y-143518000D01*
X117126164Y-143818000D01*
X117127605Y-143832632D01*
X117158650Y-143988704D01*
X117169849Y-144015739D01*
X117258256Y-144148051D01*
X117278949Y-144168744D01*
X117411261Y-144257151D01*
X117438296Y-144268350D01*
X117594368Y-144299395D01*
X117609000Y-144300836D01*
X119409000Y-144300836D01*
X119423632Y-144299395D01*
X119579704Y-144268350D01*
X119606739Y-144257151D01*
X119739051Y-144168744D01*
X119759744Y-144148051D01*
X119848151Y-144015739D01*
X119859350Y-143988704D01*
X119890395Y-143832632D01*
X119891836Y-143818000D01*
X119891836Y-143663732D01*
X119915083Y-143703997D01*
X119922582Y-143714706D01*
X120068797Y-143888959D01*
X120078041Y-143898203D01*
X120252294Y-144044418D01*
X120263003Y-144051917D01*
X120424001Y-144144869D01*
X120424000Y-147192116D01*
X120216117Y-147400000D01*
X93032609Y-147400000D01*
X93056461Y-147234103D01*
X93057224Y-147223429D01*
X93057224Y-146855000D01*
X93039677Y-146806791D01*
X92982224Y-146780000D01*
X90530776Y-146780000D01*
X90482567Y-146797547D01*
X90455776Y-146855000D01*
X90455776Y-147223429D01*
X90457490Y-147239371D01*
X90492433Y-147400000D01*
X89947713Y-147400000D01*
X89972680Y-147234354D01*
X89973518Y-147223176D01*
X89973518Y-145978824D01*
X89972210Y-145964881D01*
X89926770Y-145724727D01*
X89918030Y-145701170D01*
X89820059Y-145531478D01*
X89806120Y-145513999D01*
X89662483Y-145380724D01*
X89644011Y-145368130D01*
X89642740Y-145367518D01*
X89947177Y-145367518D01*
X89961120Y-145366210D01*
X90201274Y-145320770D01*
X90224831Y-145312030D01*
X90394522Y-145214059D01*
X90412001Y-145200120D01*
X90545277Y-145056483D01*
X90557871Y-145038011D01*
X90586473Y-144978619D01*
X90592885Y-144994100D01*
X90710728Y-145177466D01*
X90724707Y-145193599D01*
X90832248Y-145286784D01*
X90754534Y-145336728D01*
X90738401Y-145350707D01*
X90595662Y-145515436D01*
X90584121Y-145533395D01*
X90493574Y-145731666D01*
X90487559Y-145752148D01*
X90456539Y-145967897D01*
X90455776Y-145978571D01*
X90455776Y-146347000D01*
X90473323Y-146395209D01*
X90530776Y-146422000D01*
X92982224Y-146422000D01*
X93030433Y-146404453D01*
X93057224Y-146347000D01*
X93057224Y-145978571D01*
X93055510Y-145962629D01*
X92986307Y-145644506D01*
X92976115Y-145619900D01*
X92858272Y-145436534D01*
X92844293Y-145420401D01*
X92679564Y-145277662D01*
X92661605Y-145266121D01*
X92583898Y-145230634D01*
X92698338Y-145098564D01*
X92709879Y-145080605D01*
X92800426Y-144882335D01*
X92806441Y-144861853D01*
X92821245Y-144758890D01*
X92923073Y-144817680D01*
X92947549Y-144826589D01*
X93123976Y-144857698D01*
X93137000Y-144858837D01*
X93333000Y-144858837D01*
X93381209Y-144841290D01*
X93408000Y-144783837D01*
X93408000Y-144122000D01*
X93766000Y-144122000D01*
X93766000Y-144783837D01*
X93783547Y-144832046D01*
X93841000Y-144858837D01*
X94037000Y-144858837D01*
X94056411Y-144856281D01*
X94314330Y-144787172D01*
X94343128Y-144772181D01*
X94480363Y-144657027D01*
X94497106Y-144637074D01*
X94586680Y-144481927D01*
X94595589Y-144457451D01*
X94626698Y-144281024D01*
X94627837Y-144268000D01*
X94627837Y-144122000D01*
X94610290Y-144073791D01*
X94552837Y-144047000D01*
X93841000Y-144047000D01*
X93792791Y-144064547D01*
X93766000Y-144122000D01*
X93408000Y-144122000D01*
X93408000Y-142952163D01*
X93766000Y-142952163D01*
X93766000Y-143614000D01*
X93783547Y-143662209D01*
X93841000Y-143689000D01*
X94552837Y-143689000D01*
X94601046Y-143671453D01*
X94627837Y-143614000D01*
X94627837Y-143468000D01*
X94625281Y-143448589D01*
X94556172Y-143190671D01*
X94541181Y-143161873D01*
X94426027Y-143024637D01*
X94406074Y-143007894D01*
X94250927Y-142918320D01*
X94226451Y-142909411D01*
X94050024Y-142878302D01*
X94037000Y-142877163D01*
X93841000Y-142877163D01*
X93792791Y-142894710D01*
X93766000Y-142952163D01*
X93408000Y-142952163D01*
X93390453Y-142903954D01*
X93333000Y-142877163D01*
X93137000Y-142877163D01*
X93117589Y-142879719D01*
X92859671Y-142948828D01*
X92830873Y-142963819D01*
X92693637Y-143078973D01*
X92676894Y-143098926D01*
X92627337Y-143184761D01*
X92625293Y-143182401D01*
X92460564Y-143039662D01*
X92442605Y-143028121D01*
X92346907Y-142984417D01*
X92444522Y-142928059D01*
X92462001Y-142914120D01*
X92595277Y-142770483D01*
X92607871Y-142752011D01*
X92692887Y-142575473D01*
X92695192Y-142568000D01*
X92699360Y-142568000D01*
X92786256Y-142698051D01*
X92806949Y-142718744D01*
X92939261Y-142807151D01*
X92966296Y-142818350D01*
X93122368Y-142849395D01*
X93137000Y-142850836D01*
X94037000Y-142850836D01*
X94051632Y-142849395D01*
X94207704Y-142818350D01*
X94234739Y-142807151D01*
X94367051Y-142718744D01*
X94387744Y-142698051D01*
X94476151Y-142565739D01*
X94487350Y-142538704D01*
X94518395Y-142382632D01*
X94519836Y-142368000D01*
X94519836Y-141568000D01*
X94518395Y-141553368D01*
X94487350Y-141397296D01*
X94476151Y-141370261D01*
X94387744Y-141237949D01*
X94367051Y-141217256D01*
X94234739Y-141128849D01*
X94207704Y-141117650D01*
X94051632Y-141086605D01*
X94037000Y-141085164D01*
X93137000Y-141085164D01*
X93122368Y-141086605D01*
X92966296Y-141117650D01*
X92939261Y-141128849D01*
X92806949Y-141217256D01*
X92786256Y-141237949D01*
X92711097Y-141350434D01*
X92682770Y-141200725D01*
X92674030Y-141177169D01*
X92576059Y-141007478D01*
X92562120Y-140989999D01*
X92418483Y-140856723D01*
X92400011Y-140844129D01*
X92223473Y-140759113D01*
X92202110Y-140752524D01*
X92008355Y-140723320D01*
X91997177Y-140722482D01*
X91352823Y-140722482D01*
X91338880Y-140723790D01*
X91098726Y-140769230D01*
X91075169Y-140777970D01*
X90905478Y-140875941D01*
X90887999Y-140889880D01*
X90754723Y-141033517D01*
X90742129Y-141051989D01*
X90657113Y-141228527D01*
X90650524Y-141249890D01*
X90646777Y-141274752D01*
X90632770Y-141200726D01*
X90624030Y-141177169D01*
X90526059Y-141007478D01*
X90512120Y-140989999D01*
X90368483Y-140856723D01*
X90350011Y-140844129D01*
X90173473Y-140759113D01*
X90152110Y-140752524D01*
X89958355Y-140723320D01*
X89947177Y-140722482D01*
X89302823Y-140722482D01*
X89288880Y-140723790D01*
X89048726Y-140769230D01*
X89025169Y-140777970D01*
X88855478Y-140875941D01*
X88837999Y-140889880D01*
X88704723Y-141033517D01*
X88692129Y-141051989D01*
X88607113Y-141228527D01*
X88600524Y-141249890D01*
X88592670Y-141302000D01*
X86062021Y-141302000D01*
X86038857Y-141297013D01*
X86014257Y-141295853D01*
X85962321Y-141302000D01*
X85954389Y-141302000D01*
X85942074Y-141303018D01*
X85913412Y-141307789D01*
X85840689Y-141316396D01*
X85820301Y-141323287D01*
X85813278Y-141324456D01*
X85789978Y-141332433D01*
X85636161Y-141415428D01*
X85616701Y-141430523D01*
X85564765Y-141486707D01*
X85191473Y-141860000D01*
X84181491Y-141860000D01*
X84169350Y-141836477D01*
X84261839Y-141786572D01*
X84281299Y-141771477D01*
X84399940Y-141643132D01*
X84413462Y-141622548D01*
X84484133Y-141462693D01*
X84490257Y-141438838D01*
X84505338Y-141264710D01*
X84503406Y-141240158D01*
X84461271Y-141070533D01*
X84451490Y-141047931D01*
X84356682Y-140901100D01*
X84340107Y-140882884D01*
X84202850Y-140774679D01*
X84175070Y-140760934D01*
X84052522Y-140729469D01*
X84162061Y-140566457D01*
X84168484Y-140554773D01*
X84183749Y-140520000D01*
X88715979Y-140520000D01*
X88739143Y-140524987D01*
X88763743Y-140526147D01*
X88815681Y-140520000D01*
X88823611Y-140520000D01*
X88835926Y-140518982D01*
X88864577Y-140514213D01*
X88937310Y-140505605D01*
X88957705Y-140498712D01*
X88964722Y-140497544D01*
X88988022Y-140489567D01*
X89141839Y-140406572D01*
X89161299Y-140391477D01*
X89213246Y-140335281D01*
X90003991Y-139544537D01*
X90023900Y-139531682D01*
X90042116Y-139515107D01*
X90074500Y-139474028D01*
X90080101Y-139468427D01*
X90088089Y-139459000D01*
X90104969Y-139435379D01*
X90150321Y-139377850D01*
X90159867Y-139358556D01*
X90164003Y-139352768D01*
X90174837Y-139330652D01*
X90224916Y-139163201D01*
X90228003Y-139138766D01*
X90225000Y-139062336D01*
X90225000Y-138453932D01*
X90394522Y-138356059D01*
X90412001Y-138342120D01*
X90545277Y-138198483D01*
X90557871Y-138180011D01*
X90586473Y-138120619D01*
X90592885Y-138136100D01*
X90710728Y-138319466D01*
X90724707Y-138335599D01*
X90889436Y-138478338D01*
X90907395Y-138489879D01*
X91105665Y-138580426D01*
X91126147Y-138586441D01*
X91341896Y-138617461D01*
X91352570Y-138618224D01*
X91421000Y-138618224D01*
X91469209Y-138600677D01*
X91496000Y-138543224D01*
X91496000Y-137151000D01*
X91854000Y-137151000D01*
X91854000Y-138543224D01*
X91871547Y-138591433D01*
X91929000Y-138618224D01*
X91997430Y-138618224D01*
X92013372Y-138616510D01*
X92331494Y-138547307D01*
X92356100Y-138537115D01*
X92539466Y-138419272D01*
X92555599Y-138405293D01*
X92698338Y-138240564D01*
X92709879Y-138222605D01*
X92800426Y-138024335D01*
X92802552Y-138017097D01*
X92923073Y-138086680D01*
X92947549Y-138095589D01*
X93123976Y-138126698D01*
X93137000Y-138127837D01*
X93333000Y-138127837D01*
X93381209Y-138110290D01*
X93408000Y-138052837D01*
X93408000Y-137391000D01*
X93766000Y-137391000D01*
X93766000Y-138052837D01*
X93783547Y-138101046D01*
X93841000Y-138127837D01*
X94037000Y-138127837D01*
X94056411Y-138125281D01*
X94314330Y-138056172D01*
X94343128Y-138041181D01*
X94480363Y-137926027D01*
X94497106Y-137906074D01*
X94586680Y-137750927D01*
X94595589Y-137726451D01*
X94626698Y-137550024D01*
X94627837Y-137537000D01*
X94627837Y-137391000D01*
X94610290Y-137342791D01*
X94552837Y-137316000D01*
X93841000Y-137316000D01*
X93792791Y-137333547D01*
X93766000Y-137391000D01*
X93408000Y-137391000D01*
X93408000Y-136221163D01*
X93766000Y-136221163D01*
X93766000Y-136883000D01*
X93783547Y-136931209D01*
X93841000Y-136958000D01*
X94552837Y-136958000D01*
X94601046Y-136940453D01*
X94627837Y-136883000D01*
X94627837Y-136737000D01*
X94625281Y-136717589D01*
X94556172Y-136459671D01*
X94541181Y-136430873D01*
X94426027Y-136293637D01*
X94406074Y-136276894D01*
X94250927Y-136187320D01*
X94226451Y-136178411D01*
X94050024Y-136147302D01*
X94037000Y-136146163D01*
X93841000Y-136146163D01*
X93792791Y-136163710D01*
X93766000Y-136221163D01*
X93408000Y-136221163D01*
X93390453Y-136172954D01*
X93333000Y-136146163D01*
X93137000Y-136146163D01*
X93117589Y-136148719D01*
X92859671Y-136217828D01*
X92830873Y-136232819D01*
X92693637Y-136347973D01*
X92676894Y-136367926D01*
X92667421Y-136384334D01*
X92639272Y-136340534D01*
X92625293Y-136324401D01*
X92460564Y-136181662D01*
X92442605Y-136170121D01*
X92346907Y-136126417D01*
X92444522Y-136070059D01*
X92462001Y-136056120D01*
X92595277Y-135912483D01*
X92607871Y-135894011D01*
X92635326Y-135837000D01*
X92699360Y-135837000D01*
X92786256Y-135967051D01*
X92806949Y-135987744D01*
X92939261Y-136076151D01*
X92966296Y-136087350D01*
X93122368Y-136118395D01*
X93137000Y-136119836D01*
X94037000Y-136119836D01*
X94051632Y-136118395D01*
X94207704Y-136087350D01*
X94234739Y-136076151D01*
X94367051Y-135987744D01*
X94387744Y-135967051D01*
X94476151Y-135834739D01*
X94487350Y-135807704D01*
X94518395Y-135651632D01*
X94519836Y-135637000D01*
X94519836Y-134837000D01*
X94518395Y-134822368D01*
X94487350Y-134666296D01*
X94476151Y-134639261D01*
X94387744Y-134506949D01*
X94367051Y-134486256D01*
X94234739Y-134397849D01*
X94207704Y-134386650D01*
X94051632Y-134355605D01*
X94037000Y-134354164D01*
X93137000Y-134354164D01*
X93122368Y-134355605D01*
X92966296Y-134386650D01*
X92939261Y-134397849D01*
X92806949Y-134486256D01*
X92786256Y-134506949D01*
X92729110Y-134592475D01*
X92728210Y-134582880D01*
X92682770Y-134342726D01*
X92674030Y-134319169D01*
X92576059Y-134149478D01*
X92562120Y-134131999D01*
X92418483Y-133998723D01*
X92400011Y-133986129D01*
X92223473Y-133901113D01*
X92202110Y-133894524D01*
X92008355Y-133865320D01*
X91997177Y-133864482D01*
X91352823Y-133864482D01*
X91338880Y-133865790D01*
X91098726Y-133911230D01*
X91075169Y-133919970D01*
X90905478Y-134017941D01*
X90887999Y-134031880D01*
X90754723Y-134175517D01*
X90742129Y-134193989D01*
X90657113Y-134370527D01*
X90650524Y-134391890D01*
X90646777Y-134416752D01*
X90632770Y-134342726D01*
X90624030Y-134319169D01*
X90526059Y-134149478D01*
X90512120Y-134131999D01*
X90368483Y-133998723D01*
X90350011Y-133986129D01*
X90173473Y-133901113D01*
X90152110Y-133894524D01*
X89958355Y-133865320D01*
X89947177Y-133864482D01*
X89302823Y-133864482D01*
X89288880Y-133865790D01*
X89048726Y-133911230D01*
X89025169Y-133919970D01*
X88855478Y-134017941D01*
X88837999Y-134031880D01*
X88704723Y-134175517D01*
X88692129Y-134193989D01*
X88607113Y-134370527D01*
X88600524Y-134391890D01*
X88571320Y-134585645D01*
X88570482Y-134596823D01*
X88570482Y-135491177D01*
X88571790Y-135505120D01*
X88617230Y-135745274D01*
X88625970Y-135768831D01*
X88723941Y-135938522D01*
X88737880Y-135956001D01*
X88881517Y-136089277D01*
X88899989Y-136101871D01*
X89025000Y-136162073D01*
X89025001Y-136206067D01*
X88855478Y-136303941D01*
X88837999Y-136317880D01*
X88704723Y-136461517D01*
X88692129Y-136479989D01*
X88607113Y-136656527D01*
X88600524Y-136677890D01*
X88571320Y-136871645D01*
X88570482Y-136882823D01*
X88570482Y-137777177D01*
X88571790Y-137791120D01*
X88617230Y-138031274D01*
X88625970Y-138054831D01*
X88723941Y-138224522D01*
X88737880Y-138242001D01*
X88881517Y-138375277D01*
X88899989Y-138387871D01*
X89025000Y-138448073D01*
X89025000Y-138826471D01*
X88531473Y-139320000D01*
X84181491Y-139320000D01*
X84126321Y-139213111D01*
X84119177Y-139201853D01*
X83983342Y-139024828D01*
X83974316Y-139015012D01*
X83809279Y-138864841D01*
X83798658Y-138856780D01*
X83609637Y-138738206D01*
X83597756Y-138732152D01*
X83390724Y-138648926D01*
X83386973Y-138647910D01*
X83457267Y-138628680D01*
X83469764Y-138624032D01*
X83671161Y-138527970D01*
X83682639Y-138521182D01*
X83863843Y-138390974D01*
X83873936Y-138382262D01*
X84029218Y-138222024D01*
X84037610Y-138211661D01*
X84162061Y-138026457D01*
X84168485Y-138014772D01*
X84258174Y-137810457D01*
X84262427Y-137797819D01*
X84314516Y-137580850D01*
X84316464Y-137567659D01*
X84329309Y-137344895D01*
X84328890Y-137331568D01*
X84302083Y-137110050D01*
X84299311Y-137097007D01*
X84233701Y-136883737D01*
X84228662Y-136871391D01*
X84126321Y-136673111D01*
X84119177Y-136661853D01*
X83983342Y-136484828D01*
X83974316Y-136475012D01*
X83809279Y-136324841D01*
X83798658Y-136316780D01*
X83609637Y-136198206D01*
X83597756Y-136192152D01*
X83539445Y-136168711D01*
X83693635Y-136099254D01*
X83704716Y-136093086D01*
X83895889Y-135964381D01*
X83905773Y-135956435D01*
X84072527Y-135797359D01*
X84080930Y-135787860D01*
X84218498Y-135602962D01*
X84225181Y-135592184D01*
X84329629Y-135386750D01*
X84334400Y-135375000D01*
X84402741Y-135154906D01*
X84405465Y-135142520D01*
X84410590Y-135103855D01*
X84399530Y-135053758D01*
X84336240Y-135019000D01*
X81665694Y-135019000D01*
X81617485Y-135036547D01*
X81591833Y-135080976D01*
X81592292Y-135109401D01*
X81621173Y-135247047D01*
X81624818Y-135259194D01*
X81709469Y-135473545D01*
X81715108Y-135484905D01*
X81834665Y-135681929D01*
X81842137Y-135692176D01*
X81993181Y-135866239D01*
X82002273Y-135875081D01*
X82180486Y-136021206D01*
X82190937Y-136028389D01*
X82391222Y-136142398D01*
X82402735Y-136147717D01*
X82461150Y-136168921D01*
X82328839Y-136232030D01*
X82317361Y-136238818D01*
X82136157Y-136369026D01*
X82126064Y-136377738D01*
X81970782Y-136537976D01*
X81962390Y-136548339D01*
X81837939Y-136733543D01*
X81831515Y-136745228D01*
X81741826Y-136949543D01*
X81737573Y-136962181D01*
X81685484Y-137179150D01*
X81683536Y-137192341D01*
X81670691Y-137415105D01*
X81671110Y-137428432D01*
X81697917Y-137649950D01*
X81700689Y-137662993D01*
X81766299Y-137876263D01*
X81771338Y-137888609D01*
X81873679Y-138086889D01*
X81880823Y-138098147D01*
X82016658Y-138275172D01*
X82025684Y-138284988D01*
X82190721Y-138435159D01*
X82201342Y-138443220D01*
X82390363Y-138561794D01*
X82402244Y-138567848D01*
X82609276Y-138651074D01*
X82613027Y-138652090D01*
X82542733Y-138671320D01*
X82530236Y-138675968D01*
X82328839Y-138772030D01*
X82317361Y-138778818D01*
X82136157Y-138909026D01*
X82126064Y-138917738D01*
X81970782Y-139077976D01*
X81962390Y-139088339D01*
X81837939Y-139273543D01*
X81831515Y-139285228D01*
X81741826Y-139489543D01*
X81737573Y-139502181D01*
X81685484Y-139719150D01*
X81683536Y-139732341D01*
X81670691Y-139955105D01*
X81671110Y-139968432D01*
X81697917Y-140189950D01*
X81700689Y-140202993D01*
X81766299Y-140416263D01*
X81771338Y-140428609D01*
X81873679Y-140626889D01*
X81880823Y-140638147D01*
X81933583Y-140706905D01*
X81930279Y-140707455D01*
X81906979Y-140715432D01*
X81753162Y-140798427D01*
X81733702Y-140813522D01*
X81615061Y-140941867D01*
X81601539Y-140962451D01*
X81530868Y-141122306D01*
X81524744Y-141146161D01*
X81509663Y-141320289D01*
X80475000Y-141320289D01*
X80475000Y-134576145D01*
X81589410Y-134576145D01*
X81600470Y-134626242D01*
X81663760Y-134661000D01*
X82746000Y-134661000D01*
X82794209Y-134643453D01*
X82821000Y-134586000D01*
X82821000Y-133510756D01*
X83179000Y-133510756D01*
X83179000Y-134586000D01*
X83196547Y-134634209D01*
X83254000Y-134661000D01*
X84334306Y-134661000D01*
X84382515Y-134643453D01*
X84408167Y-134599024D01*
X84407708Y-134570599D01*
X84378827Y-134432953D01*
X84375182Y-134420806D01*
X84290531Y-134206455D01*
X84284892Y-134195095D01*
X84165335Y-133998071D01*
X84157863Y-133987824D01*
X84006819Y-133813761D01*
X83997727Y-133804919D01*
X83819514Y-133658794D01*
X83809063Y-133651611D01*
X83608778Y-133537602D01*
X83597265Y-133532283D01*
X83380634Y-133453650D01*
X83364899Y-133449799D01*
X83263855Y-133436406D01*
X83213758Y-133447466D01*
X83179000Y-133510756D01*
X82821000Y-133510756D01*
X82821000Y-133502900D01*
X82803453Y-133454691D01*
X82759024Y-133429039D01*
X82727158Y-133430305D01*
X82528453Y-133481878D01*
X82516491Y-133486091D01*
X82306365Y-133580746D01*
X82295284Y-133586914D01*
X82104111Y-133715619D01*
X82094227Y-133723565D01*
X81927473Y-133882641D01*
X81919070Y-133892140D01*
X81781502Y-134077038D01*
X81774819Y-134087816D01*
X81670371Y-134293250D01*
X81665600Y-134305000D01*
X81597259Y-134525094D01*
X81594535Y-134537480D01*
X81589410Y-134576145D01*
X80475000Y-134576145D01*
X80475000Y-130475000D01*
X129525000Y-130475000D01*
X129525001Y-149525000D01*
M02*
