G04 #@! TF.GenerationSoftware,KiCad,Pcbnew,6.0.0-unknown-ea0edab~86~ubuntu18.04.1*
G04 #@! TF.CreationDate,2019-07-07T16:33:58+02:00*
G04 #@! TF.ProjectId,ir-transmitter,69722d74-7261-46e7-936d-69747465722e,rev?*
G04 #@! TF.SameCoordinates,Original*
G04 #@! TF.FileFunction,Paste,Top*
G04 #@! TF.FilePolarity,Positive*
%FSLAX46Y46*%
G04 Gerber Fmt 4.6, Leading zero omitted, Abs format (unit mm)*
G04 Created by KiCad (PCBNEW 6.0.0-unknown-ea0edab~86~ubuntu18.04.1) date 2019-07-07 16:33:58*
%MOMM*%
%LPD*%
G04 APERTURE LIST*
%ADD10R,0.900000X0.800000*%
%ADD11C,0.100000*%
%ADD12C,1.150000*%
%ADD13C,1.425000*%
G04 APERTURE END LIST*
D10*
X95587000Y-136187000D03*
X93587000Y-137137000D03*
X93587000Y-135237000D03*
X95587000Y-142918000D03*
X93587000Y-143868000D03*
X93587000Y-141968000D03*
D11*
G36*
X90045671Y-134363030D02*
G01*
X90126777Y-134417223D01*
X90180970Y-134498329D01*
X90200000Y-134593999D01*
X90200000Y-135494001D01*
X90180970Y-135589671D01*
X90126777Y-135670777D01*
X90045671Y-135724970D01*
X89950001Y-135744000D01*
X89299999Y-135744000D01*
X89204329Y-135724970D01*
X89123223Y-135670777D01*
X89069030Y-135589671D01*
X89050000Y-135494001D01*
X89050000Y-134593999D01*
X89069030Y-134498329D01*
X89123223Y-134417223D01*
X89204329Y-134363030D01*
X89299999Y-134344000D01*
X89950001Y-134344000D01*
X90045671Y-134363030D01*
X90045671Y-134363030D01*
G37*
D12*
X89625000Y-135044000D03*
D11*
G36*
X92095671Y-134363030D02*
G01*
X92176777Y-134417223D01*
X92230970Y-134498329D01*
X92250000Y-134593999D01*
X92250000Y-135494001D01*
X92230970Y-135589671D01*
X92176777Y-135670777D01*
X92095671Y-135724970D01*
X92000001Y-135744000D01*
X91349999Y-135744000D01*
X91254329Y-135724970D01*
X91173223Y-135670777D01*
X91119030Y-135589671D01*
X91100000Y-135494001D01*
X91100000Y-134593999D01*
X91119030Y-134498329D01*
X91173223Y-134417223D01*
X91254329Y-134363030D01*
X91349999Y-134344000D01*
X92000001Y-134344000D01*
X92095671Y-134363030D01*
X92095671Y-134363030D01*
G37*
D12*
X91675000Y-135044000D03*
D11*
G36*
X90045671Y-136649030D02*
G01*
X90126777Y-136703223D01*
X90180970Y-136784329D01*
X90200000Y-136879999D01*
X90200000Y-137780001D01*
X90180970Y-137875671D01*
X90126777Y-137956777D01*
X90045671Y-138010970D01*
X89950001Y-138030000D01*
X89299999Y-138030000D01*
X89204329Y-138010970D01*
X89123223Y-137956777D01*
X89069030Y-137875671D01*
X89050000Y-137780001D01*
X89050000Y-136879999D01*
X89069030Y-136784329D01*
X89123223Y-136703223D01*
X89204329Y-136649030D01*
X89299999Y-136630000D01*
X89950001Y-136630000D01*
X90045671Y-136649030D01*
X90045671Y-136649030D01*
G37*
D12*
X89625000Y-137330000D03*
D11*
G36*
X92095671Y-136649030D02*
G01*
X92176777Y-136703223D01*
X92230970Y-136784329D01*
X92250000Y-136879999D01*
X92250000Y-137780001D01*
X92230970Y-137875671D01*
X92176777Y-137956777D01*
X92095671Y-138010970D01*
X92000001Y-138030000D01*
X91349999Y-138030000D01*
X91254329Y-138010970D01*
X91173223Y-137956777D01*
X91119030Y-137875671D01*
X91100000Y-137780001D01*
X91100000Y-136879999D01*
X91119030Y-136784329D01*
X91173223Y-136703223D01*
X91254329Y-136649030D01*
X91349999Y-136630000D01*
X92000001Y-136630000D01*
X92095671Y-136649030D01*
X92095671Y-136649030D01*
G37*
D12*
X91675000Y-137330000D03*
D11*
G36*
X90045671Y-141221030D02*
G01*
X90126777Y-141275223D01*
X90180970Y-141356329D01*
X90200000Y-141451999D01*
X90200000Y-142352001D01*
X90180970Y-142447671D01*
X90126777Y-142528777D01*
X90045671Y-142582970D01*
X89950001Y-142602000D01*
X89299999Y-142602000D01*
X89204329Y-142582970D01*
X89123223Y-142528777D01*
X89069030Y-142447671D01*
X89050000Y-142352001D01*
X89050000Y-141451999D01*
X89069030Y-141356329D01*
X89123223Y-141275223D01*
X89204329Y-141221030D01*
X89299999Y-141202000D01*
X89950001Y-141202000D01*
X90045671Y-141221030D01*
X90045671Y-141221030D01*
G37*
D12*
X89625000Y-141902000D03*
D11*
G36*
X92095671Y-141221030D02*
G01*
X92176777Y-141275223D01*
X92230970Y-141356329D01*
X92250000Y-141451999D01*
X92250000Y-142352001D01*
X92230970Y-142447671D01*
X92176777Y-142528777D01*
X92095671Y-142582970D01*
X92000001Y-142602000D01*
X91349999Y-142602000D01*
X91254329Y-142582970D01*
X91173223Y-142528777D01*
X91119030Y-142447671D01*
X91100000Y-142352001D01*
X91100000Y-141451999D01*
X91119030Y-141356329D01*
X91173223Y-141275223D01*
X91254329Y-141221030D01*
X91349999Y-141202000D01*
X92000001Y-141202000D01*
X92095671Y-141221030D01*
X92095671Y-141221030D01*
G37*
D12*
X91675000Y-141902000D03*
D11*
G36*
X90045671Y-143507030D02*
G01*
X90126777Y-143561223D01*
X90180970Y-143642329D01*
X90200000Y-143737999D01*
X90200000Y-144638001D01*
X90180970Y-144733671D01*
X90126777Y-144814777D01*
X90045671Y-144868970D01*
X89950001Y-144888000D01*
X89299999Y-144888000D01*
X89204329Y-144868970D01*
X89123223Y-144814777D01*
X89069030Y-144733671D01*
X89050000Y-144638001D01*
X89050000Y-143737999D01*
X89069030Y-143642329D01*
X89123223Y-143561223D01*
X89204329Y-143507030D01*
X89299999Y-143488000D01*
X89950001Y-143488000D01*
X90045671Y-143507030D01*
X90045671Y-143507030D01*
G37*
D12*
X89625000Y-144188000D03*
D11*
G36*
X92095671Y-143507030D02*
G01*
X92176777Y-143561223D01*
X92230970Y-143642329D01*
X92250000Y-143737999D01*
X92250000Y-144638001D01*
X92230970Y-144733671D01*
X92176777Y-144814777D01*
X92095671Y-144868970D01*
X92000001Y-144888000D01*
X91349999Y-144888000D01*
X91254329Y-144868970D01*
X91173223Y-144814777D01*
X91119030Y-144733671D01*
X91100000Y-144638001D01*
X91100000Y-143737999D01*
X91119030Y-143642329D01*
X91173223Y-143561223D01*
X91254329Y-143507030D01*
X91349999Y-143488000D01*
X92000001Y-143488000D01*
X92095671Y-143507030D01*
X92095671Y-143507030D01*
G37*
D12*
X91675000Y-144188000D03*
D11*
G36*
X127645671Y-138544030D02*
G01*
X127726777Y-138598223D01*
X127780970Y-138679329D01*
X127800000Y-138775000D01*
X127800000Y-140025000D01*
X127780970Y-140120671D01*
X127726777Y-140201777D01*
X127645671Y-140255970D01*
X127550000Y-140275000D01*
X126625000Y-140275000D01*
X126529329Y-140255970D01*
X126448223Y-140201777D01*
X126394030Y-140120671D01*
X126375000Y-140025000D01*
X126375000Y-138775000D01*
X126394030Y-138679329D01*
X126448223Y-138598223D01*
X126529329Y-138544030D01*
X126625000Y-138525000D01*
X127550000Y-138525000D01*
X127645671Y-138544030D01*
X127645671Y-138544030D01*
G37*
D13*
X127087500Y-139400000D03*
D11*
G36*
X124670671Y-138544030D02*
G01*
X124751777Y-138598223D01*
X124805970Y-138679329D01*
X124825000Y-138775000D01*
X124825000Y-140025000D01*
X124805970Y-140120671D01*
X124751777Y-140201777D01*
X124670671Y-140255970D01*
X124575000Y-140275000D01*
X123650000Y-140275000D01*
X123554329Y-140255970D01*
X123473223Y-140201777D01*
X123419030Y-140120671D01*
X123400000Y-140025000D01*
X123400000Y-138775000D01*
X123419030Y-138679329D01*
X123473223Y-138598223D01*
X123554329Y-138544030D01*
X123650000Y-138525000D01*
X124575000Y-138525000D01*
X124670671Y-138544030D01*
X124670671Y-138544030D01*
G37*
D13*
X124112500Y-139400000D03*
M02*
