M48
; DRILL file {KiCad 6.0.0-unknown-ea0edab~86~ubuntu18.04.1} date So 07 Jul 2019 11:36:35 CEST
; FORMAT={-:-/ absolute / inch / decimal}
; #@! TF.CreationDate,2019-07-07T11:36:35+02:00
; #@! TF.GenerationSoftware,Kicad,Pcbnew,6.0.0-unknown-ea0edab~86~ubuntu18.04.1
; #@! TF.FileFunction,Plated,1,2,PTH
FMAT,2
INCH
T1C0.0354
T2C0.0394
%
G90
G05
T1
X4.1457Y-5.3617
X4.4057Y-5.3617
X4.5057Y-5.3617
X3.8857Y-5.3617
X3.9857Y-5.3617
X4.4057Y-5.6267
X4.5057Y-5.6267
X4.6657Y-5.3617
X4.7657Y-5.3617
X4.6657Y-5.6267
X4.1457Y-5.6267
X4.2457Y-5.6267
X4.7657Y-5.6267
X4.2457Y-5.3617
X3.8857Y-5.6267
X3.9857Y-5.6267
T2
X3.2677Y-5.3087
X3.2677Y-5.4087
X3.2677Y-5.5087
X3.2677Y-5.6087
X3.2677Y-5.7087
T0
M30
