M48
; DRILL file {KiCad 6.0.0-unknown-ea0edab~86~ubuntu18.04.1} date So 07 Jul 2019 16:33:56 CEST
; FORMAT={-:-/ absolute / inch / decimal}
; #@! TF.CreationDate,2019-07-07T16:33:56+02:00
; #@! TF.GenerationSoftware,Kicad,Pcbnew,6.0.0-unknown-ea0edab~86~ubuntu18.04.1
; #@! TF.FileFunction,Plated,1,2,PTH
FMAT,2
INCH
T1C0.0157
T2C0.0354
T3C0.0394
%
G90
G05
T1
X3.189Y-5.1575
X3.6142Y-5.4646
X3.6142Y-5.7402
X3.685Y-5.4488
X3.685Y-5.7165
X5.0079Y-5.3937
X5.0079Y-5.5906
T2
X3.8857Y-5.3617
X3.9857Y-5.3617
X3.8857Y-5.6267
X3.9857Y-5.6267
X4.2457Y-5.3617
X4.1457Y-5.6267
X4.2457Y-5.6267
X4.1457Y-5.3617
X4.4057Y-5.3617
X4.5057Y-5.3617
X4.6657Y-5.3617
X4.7657Y-5.3617
X4.4057Y-5.6267
X4.5057Y-5.6267
X4.6657Y-5.6267
X4.7657Y-5.6267
T3
X3.2677Y-5.3087
X3.2677Y-5.4087
X3.2677Y-5.5087
X3.2677Y-5.6087
X3.2677Y-5.7087
T0
M30
