G04 #@! TF.GenerationSoftware,KiCad,Pcbnew,6.0.0-unknown-ea0edab~86~ubuntu18.04.1*
G04 #@! TF.CreationDate,2019-07-07T16:33:58+02:00*
G04 #@! TF.ProjectId,ir-transmitter,69722d74-7261-46e7-936d-69747465722e,rev?*
G04 #@! TF.SameCoordinates,Original*
G04 #@! TF.FileFunction,Soldermask,Bot*
G04 #@! TF.FilePolarity,Negative*
%FSLAX46Y46*%
G04 Gerber Fmt 4.6, Leading zero omitted, Abs format (unit mm)*
G04 Created by KiCad (PCBNEW 6.0.0-unknown-ea0edab~86~ubuntu18.04.1) date 2019-07-07 16:33:58*
%MOMM*%
%LPD*%
G04 APERTURE LIST*
%ADD10C,0.100000*%
G04 APERTURE END LIST*
D10*
G36*
X83869899Y-144101959D02*
G01*
X83886769Y-144113231D01*
X83898041Y-144130101D01*
X83904448Y-144162312D01*
X83904448Y-145837688D01*
X83901999Y-145850000D01*
X83898041Y-145869899D01*
X83886769Y-145886769D01*
X83869899Y-145898041D01*
X83850000Y-145901999D01*
X83837688Y-145904448D01*
X82162312Y-145904448D01*
X82130101Y-145898041D01*
X82113231Y-145886769D01*
X82101959Y-145869899D01*
X82095552Y-145837688D01*
X82095552Y-144162312D01*
X82101959Y-144130101D01*
X82113231Y-144113231D01*
X82130101Y-144101959D01*
X82162312Y-144095552D01*
X83837688Y-144095552D01*
X83869899Y-144101959D01*
X83869899Y-144101959D01*
G37*
G36*
X121145675Y-141970627D02*
G01*
X121186905Y-141972680D01*
X121235080Y-141984468D01*
X121289954Y-141992963D01*
X121328728Y-142007383D01*
X121363176Y-142015812D01*
X121413544Y-142038925D01*
X121471037Y-142060307D01*
X121501173Y-142079138D01*
X121528107Y-142091498D01*
X121577922Y-142127097D01*
X121634880Y-142162688D01*
X121656387Y-142183168D01*
X121675749Y-142197005D01*
X121721931Y-142245585D01*
X121774790Y-142295922D01*
X121788404Y-142315511D01*
X121800782Y-142328531D01*
X121840083Y-142389866D01*
X121885052Y-142454569D01*
X121892145Y-142471119D01*
X121898683Y-142481322D01*
X121927818Y-142554349D01*
X121961162Y-142632146D01*
X121963606Y-142644051D01*
X121965928Y-142649872D01*
X121981813Y-142732748D01*
X122000010Y-142821400D01*
X121999988Y-142827580D01*
X122000056Y-142827932D01*
X121999404Y-143014704D01*
X121999335Y-143015053D01*
X121999313Y-143021237D01*
X121980491Y-143109785D01*
X121964034Y-143192522D01*
X121961671Y-143198327D01*
X121959144Y-143210215D01*
X121925246Y-143287806D01*
X121895613Y-143360599D01*
X121889009Y-143370748D01*
X121881797Y-143387257D01*
X121836357Y-143451672D01*
X121796645Y-143512707D01*
X121784180Y-143525637D01*
X121770430Y-143545129D01*
X121717221Y-143595096D01*
X121670704Y-143643349D01*
X121651248Y-143657048D01*
X121629593Y-143677384D01*
X121572380Y-143712582D01*
X121522323Y-143747828D01*
X121495302Y-143760000D01*
X121465039Y-143778618D01*
X121407399Y-143799597D01*
X121356868Y-143822360D01*
X121322362Y-143830549D01*
X121283490Y-143844697D01*
X121228568Y-143852807D01*
X121180307Y-143864260D01*
X121139057Y-143866025D01*
X121092363Y-143872920D01*
X121042741Y-143870146D01*
X120999000Y-143872017D01*
X120952403Y-143865095D01*
X120899464Y-143862135D01*
X120857057Y-143850931D01*
X120819504Y-143845352D01*
X120769566Y-143827815D01*
X120712673Y-143812783D01*
X120678600Y-143795869D01*
X120648288Y-143785224D01*
X120597557Y-143755639D01*
X120539621Y-143726879D01*
X120514245Y-143707053D01*
X120491528Y-143693805D01*
X120442930Y-143651335D01*
X120387378Y-143607933D01*
X120370292Y-143587857D01*
X120354884Y-143574392D01*
X120311628Y-143518928D01*
X120262161Y-143460804D01*
X120252277Y-143442825D01*
X120243285Y-143431295D01*
X120208661Y-143363488D01*
X120169086Y-143291501D01*
X120164749Y-143277492D01*
X120160760Y-143269679D01*
X120137983Y-143191022D01*
X120111955Y-143106941D01*
X120111095Y-143098173D01*
X120110285Y-143095375D01*
X120102295Y-143008423D01*
X120093102Y-142914663D01*
X120102949Y-142820976D01*
X120111546Y-142734079D01*
X120112376Y-142731287D01*
X120113297Y-142722521D01*
X120139920Y-142638594D01*
X120163237Y-142560129D01*
X120167280Y-142552346D01*
X120171715Y-142538365D01*
X120211811Y-142466621D01*
X120246891Y-142399090D01*
X120255956Y-142387632D01*
X120265969Y-142369716D01*
X120315849Y-142311930D01*
X120359484Y-142256776D01*
X120374984Y-142243420D01*
X120392210Y-142223464D01*
X120448069Y-142180447D01*
X120496959Y-142138321D01*
X120519768Y-142125232D01*
X120545281Y-142105584D01*
X120603401Y-142077237D01*
X120654350Y-142047999D01*
X120684746Y-142037562D01*
X120718928Y-142020891D01*
X120775921Y-142006258D01*
X120825983Y-141989069D01*
X120863572Y-141983753D01*
X120906059Y-141972844D01*
X120959020Y-141970254D01*
X121005663Y-141963657D01*
X121049388Y-141965834D01*
X121099028Y-141963406D01*
X121145675Y-141970627D01*
X121145675Y-141970627D01*
G37*
G36*
X101333675Y-141970627D02*
G01*
X101374905Y-141972680D01*
X101423080Y-141984468D01*
X101477954Y-141992963D01*
X101516728Y-142007383D01*
X101551176Y-142015812D01*
X101601544Y-142038925D01*
X101659037Y-142060307D01*
X101689173Y-142079138D01*
X101716107Y-142091498D01*
X101765922Y-142127097D01*
X101822880Y-142162688D01*
X101844387Y-142183168D01*
X101863749Y-142197005D01*
X101909931Y-142245585D01*
X101962790Y-142295922D01*
X101976404Y-142315511D01*
X101988782Y-142328531D01*
X102028083Y-142389866D01*
X102073052Y-142454569D01*
X102080145Y-142471119D01*
X102086683Y-142481322D01*
X102115818Y-142554349D01*
X102149162Y-142632146D01*
X102151606Y-142644051D01*
X102153928Y-142649872D01*
X102169813Y-142732748D01*
X102188010Y-142821400D01*
X102187988Y-142827580D01*
X102188056Y-142827932D01*
X102187404Y-143014704D01*
X102187335Y-143015053D01*
X102187313Y-143021237D01*
X102168491Y-143109785D01*
X102152034Y-143192522D01*
X102149671Y-143198327D01*
X102147144Y-143210215D01*
X102113246Y-143287806D01*
X102083613Y-143360599D01*
X102077009Y-143370748D01*
X102069797Y-143387257D01*
X102024357Y-143451672D01*
X101984645Y-143512707D01*
X101972180Y-143525637D01*
X101958430Y-143545129D01*
X101905221Y-143595096D01*
X101858704Y-143643349D01*
X101839248Y-143657048D01*
X101817593Y-143677384D01*
X101760380Y-143712582D01*
X101710323Y-143747828D01*
X101683302Y-143760000D01*
X101653039Y-143778618D01*
X101595399Y-143799597D01*
X101544868Y-143822360D01*
X101510362Y-143830549D01*
X101471490Y-143844697D01*
X101416568Y-143852807D01*
X101368307Y-143864260D01*
X101327057Y-143866025D01*
X101280363Y-143872920D01*
X101230741Y-143870146D01*
X101187000Y-143872017D01*
X101140403Y-143865095D01*
X101087464Y-143862135D01*
X101045057Y-143850931D01*
X101007504Y-143845352D01*
X100957566Y-143827815D01*
X100900673Y-143812783D01*
X100866600Y-143795869D01*
X100836288Y-143785224D01*
X100785557Y-143755639D01*
X100727621Y-143726879D01*
X100702245Y-143707053D01*
X100679528Y-143693805D01*
X100630930Y-143651335D01*
X100575378Y-143607933D01*
X100558292Y-143587857D01*
X100542884Y-143574392D01*
X100499628Y-143518928D01*
X100450161Y-143460804D01*
X100440277Y-143442825D01*
X100431285Y-143431295D01*
X100396661Y-143363488D01*
X100357086Y-143291501D01*
X100352749Y-143277492D01*
X100348760Y-143269679D01*
X100325983Y-143191022D01*
X100299955Y-143106941D01*
X100299095Y-143098173D01*
X100298285Y-143095375D01*
X100290295Y-143008423D01*
X100281102Y-142914663D01*
X100290949Y-142820976D01*
X100299546Y-142734079D01*
X100300376Y-142731287D01*
X100301297Y-142722521D01*
X100327920Y-142638594D01*
X100351237Y-142560129D01*
X100355280Y-142552346D01*
X100359715Y-142538365D01*
X100399811Y-142466621D01*
X100434891Y-142399090D01*
X100443956Y-142387632D01*
X100453969Y-142369716D01*
X100503849Y-142311930D01*
X100547484Y-142256776D01*
X100562984Y-142243420D01*
X100580210Y-142223464D01*
X100636069Y-142180447D01*
X100684959Y-142138321D01*
X100707768Y-142125232D01*
X100733281Y-142105584D01*
X100791401Y-142077237D01*
X100842350Y-142047999D01*
X100872746Y-142037562D01*
X100906928Y-142020891D01*
X100963921Y-142006258D01*
X101013983Y-141989069D01*
X101051572Y-141983753D01*
X101094059Y-141972844D01*
X101147020Y-141970254D01*
X101193663Y-141963657D01*
X101237388Y-141965834D01*
X101287028Y-141963406D01*
X101333675Y-141970627D01*
X101333675Y-141970627D01*
G37*
G36*
X107937675Y-141970627D02*
G01*
X107978905Y-141972680D01*
X108027080Y-141984468D01*
X108081954Y-141992963D01*
X108120728Y-142007383D01*
X108155176Y-142015812D01*
X108205544Y-142038925D01*
X108263037Y-142060307D01*
X108293173Y-142079138D01*
X108320107Y-142091498D01*
X108369922Y-142127097D01*
X108426880Y-142162688D01*
X108448387Y-142183168D01*
X108467749Y-142197005D01*
X108513931Y-142245585D01*
X108566790Y-142295922D01*
X108580404Y-142315511D01*
X108592782Y-142328531D01*
X108632083Y-142389866D01*
X108677052Y-142454569D01*
X108684145Y-142471119D01*
X108690683Y-142481322D01*
X108719818Y-142554349D01*
X108753162Y-142632146D01*
X108755606Y-142644051D01*
X108757928Y-142649872D01*
X108773813Y-142732748D01*
X108792010Y-142821400D01*
X108791988Y-142827580D01*
X108792056Y-142827932D01*
X108791404Y-143014704D01*
X108791335Y-143015053D01*
X108791313Y-143021237D01*
X108772491Y-143109785D01*
X108756034Y-143192522D01*
X108753671Y-143198327D01*
X108751144Y-143210215D01*
X108717246Y-143287806D01*
X108687613Y-143360599D01*
X108681009Y-143370748D01*
X108673797Y-143387257D01*
X108628357Y-143451672D01*
X108588645Y-143512707D01*
X108576180Y-143525637D01*
X108562430Y-143545129D01*
X108509221Y-143595096D01*
X108462704Y-143643349D01*
X108443248Y-143657048D01*
X108421593Y-143677384D01*
X108364380Y-143712582D01*
X108314323Y-143747828D01*
X108287302Y-143760000D01*
X108257039Y-143778618D01*
X108199399Y-143799597D01*
X108148868Y-143822360D01*
X108114362Y-143830549D01*
X108075490Y-143844697D01*
X108020568Y-143852807D01*
X107972307Y-143864260D01*
X107931057Y-143866025D01*
X107884363Y-143872920D01*
X107834741Y-143870146D01*
X107791000Y-143872017D01*
X107744403Y-143865095D01*
X107691464Y-143862135D01*
X107649057Y-143850931D01*
X107611504Y-143845352D01*
X107561566Y-143827815D01*
X107504673Y-143812783D01*
X107470600Y-143795869D01*
X107440288Y-143785224D01*
X107389557Y-143755639D01*
X107331621Y-143726879D01*
X107306245Y-143707053D01*
X107283528Y-143693805D01*
X107234930Y-143651335D01*
X107179378Y-143607933D01*
X107162292Y-143587857D01*
X107146884Y-143574392D01*
X107103628Y-143518928D01*
X107054161Y-143460804D01*
X107044277Y-143442825D01*
X107035285Y-143431295D01*
X107000661Y-143363488D01*
X106961086Y-143291501D01*
X106956749Y-143277492D01*
X106952760Y-143269679D01*
X106929983Y-143191022D01*
X106903955Y-143106941D01*
X106903095Y-143098173D01*
X106902285Y-143095375D01*
X106894295Y-143008423D01*
X106885102Y-142914663D01*
X106894949Y-142820976D01*
X106903546Y-142734079D01*
X106904376Y-142731287D01*
X106905297Y-142722521D01*
X106931920Y-142638594D01*
X106955237Y-142560129D01*
X106959280Y-142552346D01*
X106963715Y-142538365D01*
X107003811Y-142466621D01*
X107038891Y-142399090D01*
X107047956Y-142387632D01*
X107057969Y-142369716D01*
X107107849Y-142311930D01*
X107151484Y-142256776D01*
X107166984Y-142243420D01*
X107184210Y-142223464D01*
X107240069Y-142180447D01*
X107288959Y-142138321D01*
X107311768Y-142125232D01*
X107337281Y-142105584D01*
X107395401Y-142077237D01*
X107446350Y-142047999D01*
X107476746Y-142037562D01*
X107510928Y-142020891D01*
X107567921Y-142006258D01*
X107617983Y-141989069D01*
X107655572Y-141983753D01*
X107698059Y-141972844D01*
X107751020Y-141970254D01*
X107797663Y-141963657D01*
X107841388Y-141965834D01*
X107891028Y-141963406D01*
X107937675Y-141970627D01*
X107937675Y-141970627D01*
G37*
G36*
X114541675Y-141970627D02*
G01*
X114582905Y-141972680D01*
X114631080Y-141984468D01*
X114685954Y-141992963D01*
X114724728Y-142007383D01*
X114759176Y-142015812D01*
X114809544Y-142038925D01*
X114867037Y-142060307D01*
X114897173Y-142079138D01*
X114924107Y-142091498D01*
X114973922Y-142127097D01*
X115030880Y-142162688D01*
X115052387Y-142183168D01*
X115071749Y-142197005D01*
X115117931Y-142245585D01*
X115170790Y-142295922D01*
X115184404Y-142315511D01*
X115196782Y-142328531D01*
X115236083Y-142389866D01*
X115281052Y-142454569D01*
X115288145Y-142471119D01*
X115294683Y-142481322D01*
X115323818Y-142554349D01*
X115357162Y-142632146D01*
X115359606Y-142644051D01*
X115361928Y-142649872D01*
X115377813Y-142732748D01*
X115396010Y-142821400D01*
X115395988Y-142827580D01*
X115396056Y-142827932D01*
X115395404Y-143014704D01*
X115395335Y-143015053D01*
X115395313Y-143021237D01*
X115376491Y-143109785D01*
X115360034Y-143192522D01*
X115357671Y-143198327D01*
X115355144Y-143210215D01*
X115321246Y-143287806D01*
X115291613Y-143360599D01*
X115285009Y-143370748D01*
X115277797Y-143387257D01*
X115232357Y-143451672D01*
X115192645Y-143512707D01*
X115180180Y-143525637D01*
X115166430Y-143545129D01*
X115113221Y-143595096D01*
X115066704Y-143643349D01*
X115047248Y-143657048D01*
X115025593Y-143677384D01*
X114968380Y-143712582D01*
X114918323Y-143747828D01*
X114891302Y-143760000D01*
X114861039Y-143778618D01*
X114803399Y-143799597D01*
X114752868Y-143822360D01*
X114718362Y-143830549D01*
X114679490Y-143844697D01*
X114624568Y-143852807D01*
X114576307Y-143864260D01*
X114535057Y-143866025D01*
X114488363Y-143872920D01*
X114438741Y-143870146D01*
X114395000Y-143872017D01*
X114348403Y-143865095D01*
X114295464Y-143862135D01*
X114253057Y-143850931D01*
X114215504Y-143845352D01*
X114165566Y-143827815D01*
X114108673Y-143812783D01*
X114074600Y-143795869D01*
X114044288Y-143785224D01*
X113993557Y-143755639D01*
X113935621Y-143726879D01*
X113910245Y-143707053D01*
X113887528Y-143693805D01*
X113838930Y-143651335D01*
X113783378Y-143607933D01*
X113766292Y-143587857D01*
X113750884Y-143574392D01*
X113707628Y-143518928D01*
X113658161Y-143460804D01*
X113648277Y-143442825D01*
X113639285Y-143431295D01*
X113604661Y-143363488D01*
X113565086Y-143291501D01*
X113560749Y-143277492D01*
X113556760Y-143269679D01*
X113533983Y-143191022D01*
X113507955Y-143106941D01*
X113507095Y-143098173D01*
X113506285Y-143095375D01*
X113498295Y-143008423D01*
X113489102Y-142914663D01*
X113498949Y-142820976D01*
X113507546Y-142734079D01*
X113508376Y-142731287D01*
X113509297Y-142722521D01*
X113535920Y-142638594D01*
X113559237Y-142560129D01*
X113563280Y-142552346D01*
X113567715Y-142538365D01*
X113607811Y-142466621D01*
X113642891Y-142399090D01*
X113651956Y-142387632D01*
X113661969Y-142369716D01*
X113711849Y-142311930D01*
X113755484Y-142256776D01*
X113770984Y-142243420D01*
X113788210Y-142223464D01*
X113844069Y-142180447D01*
X113892959Y-142138321D01*
X113915768Y-142125232D01*
X113941281Y-142105584D01*
X113999401Y-142077237D01*
X114050350Y-142047999D01*
X114080746Y-142037562D01*
X114114928Y-142020891D01*
X114171921Y-142006258D01*
X114221983Y-141989069D01*
X114259572Y-141983753D01*
X114302059Y-141972844D01*
X114355020Y-141970254D01*
X114401663Y-141963657D01*
X114445388Y-141965834D01*
X114495028Y-141963406D01*
X114541675Y-141970627D01*
X114541675Y-141970627D01*
G37*
G36*
X112824899Y-141969959D02*
G01*
X112841769Y-141981231D01*
X112853041Y-141998101D01*
X112859448Y-142030312D01*
X112859448Y-143805688D01*
X112856999Y-143818000D01*
X112853041Y-143837899D01*
X112841769Y-143854769D01*
X112824899Y-143866041D01*
X112805000Y-143869999D01*
X112792688Y-143872448D01*
X111017312Y-143872448D01*
X110985101Y-143866041D01*
X110968231Y-143854769D01*
X110956959Y-143837899D01*
X110950552Y-143805688D01*
X110950552Y-142030312D01*
X110956959Y-141998101D01*
X110968231Y-141981231D01*
X110985101Y-141969959D01*
X111017312Y-141963552D01*
X112792688Y-141963552D01*
X112824899Y-141969959D01*
X112824899Y-141969959D01*
G37*
G36*
X106220899Y-141969959D02*
G01*
X106237769Y-141981231D01*
X106249041Y-141998101D01*
X106255448Y-142030312D01*
X106255448Y-143805688D01*
X106252999Y-143818000D01*
X106249041Y-143837899D01*
X106237769Y-143854769D01*
X106220899Y-143866041D01*
X106201000Y-143869999D01*
X106188688Y-143872448D01*
X104413312Y-143872448D01*
X104381101Y-143866041D01*
X104364231Y-143854769D01*
X104352959Y-143837899D01*
X104346552Y-143805688D01*
X104346552Y-142030312D01*
X104352959Y-141998101D01*
X104364231Y-141981231D01*
X104381101Y-141969959D01*
X104413312Y-141963552D01*
X106188688Y-141963552D01*
X106220899Y-141969959D01*
X106220899Y-141969959D01*
G37*
G36*
X99616899Y-141969959D02*
G01*
X99633769Y-141981231D01*
X99645041Y-141998101D01*
X99651448Y-142030312D01*
X99651448Y-143805688D01*
X99648999Y-143818000D01*
X99645041Y-143837899D01*
X99633769Y-143854769D01*
X99616899Y-143866041D01*
X99597000Y-143869999D01*
X99584688Y-143872448D01*
X97809312Y-143872448D01*
X97777101Y-143866041D01*
X97760231Y-143854769D01*
X97748959Y-143837899D01*
X97742552Y-143805688D01*
X97742552Y-142030312D01*
X97748959Y-141998101D01*
X97760231Y-141981231D01*
X97777101Y-141969959D01*
X97809312Y-141963552D01*
X99584688Y-141963552D01*
X99616899Y-141969959D01*
X99616899Y-141969959D01*
G37*
G36*
X119428899Y-141969959D02*
G01*
X119445769Y-141981231D01*
X119457041Y-141998101D01*
X119463448Y-142030312D01*
X119463448Y-143805688D01*
X119460999Y-143818000D01*
X119457041Y-143837899D01*
X119445769Y-143854769D01*
X119428899Y-143866041D01*
X119409000Y-143869999D01*
X119396688Y-143872448D01*
X117621312Y-143872448D01*
X117589101Y-143866041D01*
X117572231Y-143854769D01*
X117560959Y-143837899D01*
X117554552Y-143805688D01*
X117554552Y-142030312D01*
X117560959Y-141998101D01*
X117572231Y-141981231D01*
X117589101Y-141969959D01*
X117621312Y-141963552D01*
X119396688Y-141963552D01*
X119428899Y-141969959D01*
X119428899Y-141969959D01*
G37*
G36*
X83188360Y-141573835D02*
G01*
X83269397Y-141600166D01*
X83356663Y-141627848D01*
X83359655Y-141629493D01*
X83368488Y-141632363D01*
X83440466Y-141673919D01*
X83511499Y-141712970D01*
X83518986Y-141719253D01*
X83532511Y-141727061D01*
X83590259Y-141779057D01*
X83646857Y-141826549D01*
X83656962Y-141839118D01*
X83673261Y-141853793D01*
X83715454Y-141911867D01*
X83757579Y-141964260D01*
X83767994Y-141984182D01*
X83784586Y-142007019D01*
X83811297Y-142067012D01*
X83839439Y-142120843D01*
X83847582Y-142148510D01*
X83861621Y-142180042D01*
X83873992Y-142238241D01*
X83889328Y-142290349D01*
X83892518Y-142325401D01*
X83900999Y-142365301D01*
X83900999Y-142418592D01*
X83905343Y-142466324D01*
X83900999Y-142507653D01*
X83900999Y-142554699D01*
X83891217Y-142600721D01*
X83886873Y-142642047D01*
X83872702Y-142687827D01*
X83861621Y-142739958D01*
X83845028Y-142777226D01*
X83834622Y-142810843D01*
X83808789Y-142858620D01*
X83784586Y-142912981D01*
X83764298Y-142940905D01*
X83750580Y-142966276D01*
X83711859Y-143013082D01*
X83673261Y-143066207D01*
X83652284Y-143085095D01*
X83637952Y-143102419D01*
X83585845Y-143144917D01*
X83532511Y-143192939D01*
X83513524Y-143203901D01*
X83501025Y-143214095D01*
X83435780Y-143248786D01*
X83368488Y-143287637D01*
X83353636Y-143292463D01*
X83345003Y-143297053D01*
X83267430Y-143320473D01*
X83188360Y-143346165D01*
X83179114Y-143347137D01*
X83175851Y-143348122D01*
X83084710Y-143357059D01*
X83047211Y-143361000D01*
X82952789Y-143361000D01*
X82811640Y-143346165D01*
X82730603Y-143319834D01*
X82643337Y-143292152D01*
X82640345Y-143290507D01*
X82631512Y-143287637D01*
X82559534Y-143246081D01*
X82488501Y-143207030D01*
X82481014Y-143200747D01*
X82467489Y-143192939D01*
X82409741Y-143140943D01*
X82353143Y-143093451D01*
X82343038Y-143080882D01*
X82326739Y-143066207D01*
X82284546Y-143008133D01*
X82242421Y-142955740D01*
X82232006Y-142935818D01*
X82215414Y-142912981D01*
X82188703Y-142852988D01*
X82160561Y-142799157D01*
X82152418Y-142771490D01*
X82138379Y-142739958D01*
X82126008Y-142681759D01*
X82110672Y-142629651D01*
X82107482Y-142594599D01*
X82099001Y-142554699D01*
X82099001Y-142501408D01*
X82094657Y-142453676D01*
X82099001Y-142412347D01*
X82099001Y-142365301D01*
X82108783Y-142319279D01*
X82113127Y-142277953D01*
X82127298Y-142232173D01*
X82138379Y-142180042D01*
X82154972Y-142142774D01*
X82165378Y-142109157D01*
X82191211Y-142061380D01*
X82215414Y-142007019D01*
X82235702Y-141979095D01*
X82249420Y-141953724D01*
X82288141Y-141906918D01*
X82326739Y-141853793D01*
X82347716Y-141834905D01*
X82362048Y-141817581D01*
X82414155Y-141775083D01*
X82467489Y-141727061D01*
X82486476Y-141716099D01*
X82498975Y-141705905D01*
X82564220Y-141671214D01*
X82631512Y-141632363D01*
X82646364Y-141627537D01*
X82654997Y-141622947D01*
X82732570Y-141599527D01*
X82811640Y-141573835D01*
X82820886Y-141572863D01*
X82824149Y-141571878D01*
X82915290Y-141562941D01*
X82952789Y-141559000D01*
X83047211Y-141559000D01*
X83188360Y-141573835D01*
X83188360Y-141573835D01*
G37*
G36*
X83188360Y-139033835D02*
G01*
X83269397Y-139060166D01*
X83356663Y-139087848D01*
X83359655Y-139089493D01*
X83368488Y-139092363D01*
X83440466Y-139133919D01*
X83511499Y-139172970D01*
X83518986Y-139179253D01*
X83532511Y-139187061D01*
X83590259Y-139239057D01*
X83646857Y-139286549D01*
X83656962Y-139299118D01*
X83673261Y-139313793D01*
X83715454Y-139371867D01*
X83757579Y-139424260D01*
X83767994Y-139444182D01*
X83784586Y-139467019D01*
X83811297Y-139527012D01*
X83839439Y-139580843D01*
X83847582Y-139608510D01*
X83861621Y-139640042D01*
X83873992Y-139698241D01*
X83889328Y-139750349D01*
X83892518Y-139785401D01*
X83900999Y-139825301D01*
X83900999Y-139878592D01*
X83905343Y-139926324D01*
X83900999Y-139967653D01*
X83900999Y-140014699D01*
X83891217Y-140060721D01*
X83886873Y-140102047D01*
X83872702Y-140147827D01*
X83861621Y-140199958D01*
X83845028Y-140237226D01*
X83834622Y-140270843D01*
X83808789Y-140318620D01*
X83784586Y-140372981D01*
X83764298Y-140400905D01*
X83750580Y-140426276D01*
X83711859Y-140473082D01*
X83673261Y-140526207D01*
X83652284Y-140545095D01*
X83637952Y-140562419D01*
X83585845Y-140604917D01*
X83532511Y-140652939D01*
X83513524Y-140663901D01*
X83501025Y-140674095D01*
X83435780Y-140708786D01*
X83368488Y-140747637D01*
X83353636Y-140752463D01*
X83345003Y-140757053D01*
X83267430Y-140780473D01*
X83188360Y-140806165D01*
X83179114Y-140807137D01*
X83175851Y-140808122D01*
X83084710Y-140817059D01*
X83047211Y-140821000D01*
X82952789Y-140821000D01*
X82811640Y-140806165D01*
X82730603Y-140779834D01*
X82643337Y-140752152D01*
X82640345Y-140750507D01*
X82631512Y-140747637D01*
X82559534Y-140706081D01*
X82488501Y-140667030D01*
X82481014Y-140660747D01*
X82467489Y-140652939D01*
X82409741Y-140600943D01*
X82353143Y-140553451D01*
X82343038Y-140540882D01*
X82326739Y-140526207D01*
X82284546Y-140468133D01*
X82242421Y-140415740D01*
X82232006Y-140395818D01*
X82215414Y-140372981D01*
X82188703Y-140312988D01*
X82160561Y-140259157D01*
X82152418Y-140231490D01*
X82138379Y-140199958D01*
X82126008Y-140141759D01*
X82110672Y-140089651D01*
X82107482Y-140054599D01*
X82099001Y-140014699D01*
X82099001Y-139961408D01*
X82094657Y-139913676D01*
X82099001Y-139872347D01*
X82099001Y-139825301D01*
X82108783Y-139779279D01*
X82113127Y-139737953D01*
X82127298Y-139692173D01*
X82138379Y-139640042D01*
X82154972Y-139602774D01*
X82165378Y-139569157D01*
X82191211Y-139521380D01*
X82215414Y-139467019D01*
X82235702Y-139439095D01*
X82249420Y-139413724D01*
X82288141Y-139366918D01*
X82326739Y-139313793D01*
X82347716Y-139294905D01*
X82362048Y-139277581D01*
X82414155Y-139235083D01*
X82467489Y-139187061D01*
X82486476Y-139176099D01*
X82498975Y-139165905D01*
X82564220Y-139131214D01*
X82631512Y-139092363D01*
X82646364Y-139087537D01*
X82654997Y-139082947D01*
X82732570Y-139059527D01*
X82811640Y-139033835D01*
X82820886Y-139032863D01*
X82824149Y-139031878D01*
X82915290Y-139022941D01*
X82952789Y-139019000D01*
X83047211Y-139019000D01*
X83188360Y-139033835D01*
X83188360Y-139033835D01*
G37*
G36*
X83188360Y-136493835D02*
G01*
X83269397Y-136520166D01*
X83356663Y-136547848D01*
X83359655Y-136549493D01*
X83368488Y-136552363D01*
X83440466Y-136593919D01*
X83511499Y-136632970D01*
X83518986Y-136639253D01*
X83532511Y-136647061D01*
X83590259Y-136699057D01*
X83646857Y-136746549D01*
X83656962Y-136759118D01*
X83673261Y-136773793D01*
X83715454Y-136831867D01*
X83757579Y-136884260D01*
X83767994Y-136904182D01*
X83784586Y-136927019D01*
X83811297Y-136987012D01*
X83839439Y-137040843D01*
X83847582Y-137068510D01*
X83861621Y-137100042D01*
X83873992Y-137158241D01*
X83889328Y-137210349D01*
X83892518Y-137245401D01*
X83900999Y-137285301D01*
X83900999Y-137338592D01*
X83905343Y-137386324D01*
X83900999Y-137427653D01*
X83900999Y-137474699D01*
X83891217Y-137520721D01*
X83886873Y-137562047D01*
X83872702Y-137607827D01*
X83861621Y-137659958D01*
X83845028Y-137697226D01*
X83834622Y-137730843D01*
X83808789Y-137778620D01*
X83784586Y-137832981D01*
X83764298Y-137860905D01*
X83750580Y-137886276D01*
X83711859Y-137933082D01*
X83673261Y-137986207D01*
X83652284Y-138005095D01*
X83637952Y-138022419D01*
X83585845Y-138064917D01*
X83532511Y-138112939D01*
X83513524Y-138123901D01*
X83501025Y-138134095D01*
X83435780Y-138168786D01*
X83368488Y-138207637D01*
X83353636Y-138212463D01*
X83345003Y-138217053D01*
X83267430Y-138240473D01*
X83188360Y-138266165D01*
X83179114Y-138267137D01*
X83175851Y-138268122D01*
X83084710Y-138277059D01*
X83047211Y-138281000D01*
X82952789Y-138281000D01*
X82811640Y-138266165D01*
X82730603Y-138239834D01*
X82643337Y-138212152D01*
X82640345Y-138210507D01*
X82631512Y-138207637D01*
X82559534Y-138166081D01*
X82488501Y-138127030D01*
X82481014Y-138120747D01*
X82467489Y-138112939D01*
X82409741Y-138060943D01*
X82353143Y-138013451D01*
X82343038Y-138000882D01*
X82326739Y-137986207D01*
X82284546Y-137928133D01*
X82242421Y-137875740D01*
X82232006Y-137855818D01*
X82215414Y-137832981D01*
X82188703Y-137772988D01*
X82160561Y-137719157D01*
X82152418Y-137691490D01*
X82138379Y-137659958D01*
X82126008Y-137601759D01*
X82110672Y-137549651D01*
X82107482Y-137514599D01*
X82099001Y-137474699D01*
X82099001Y-137421408D01*
X82094657Y-137373676D01*
X82099001Y-137332347D01*
X82099001Y-137285301D01*
X82108783Y-137239279D01*
X82113127Y-137197953D01*
X82127298Y-137152173D01*
X82138379Y-137100042D01*
X82154972Y-137062774D01*
X82165378Y-137029157D01*
X82191211Y-136981380D01*
X82215414Y-136927019D01*
X82235702Y-136899095D01*
X82249420Y-136873724D01*
X82288141Y-136826918D01*
X82326739Y-136773793D01*
X82347716Y-136754905D01*
X82362048Y-136737581D01*
X82414155Y-136695083D01*
X82467489Y-136647061D01*
X82486476Y-136636099D01*
X82498975Y-136625905D01*
X82564220Y-136591214D01*
X82631512Y-136552363D01*
X82646364Y-136547537D01*
X82654997Y-136542947D01*
X82732570Y-136519527D01*
X82811640Y-136493835D01*
X82820886Y-136492863D01*
X82824149Y-136491878D01*
X82915290Y-136482941D01*
X82952789Y-136479000D01*
X83047211Y-136479000D01*
X83188360Y-136493835D01*
X83188360Y-136493835D01*
G37*
G36*
X114541675Y-135239627D02*
G01*
X114582905Y-135241680D01*
X114631080Y-135253468D01*
X114685954Y-135261963D01*
X114724728Y-135276383D01*
X114759176Y-135284812D01*
X114809544Y-135307925D01*
X114867037Y-135329307D01*
X114897173Y-135348138D01*
X114924107Y-135360498D01*
X114973922Y-135396097D01*
X115030880Y-135431688D01*
X115052387Y-135452168D01*
X115071749Y-135466005D01*
X115117931Y-135514585D01*
X115170790Y-135564922D01*
X115184404Y-135584511D01*
X115196782Y-135597531D01*
X115236083Y-135658866D01*
X115281052Y-135723569D01*
X115288145Y-135740119D01*
X115294683Y-135750322D01*
X115323818Y-135823349D01*
X115357162Y-135901146D01*
X115359606Y-135913051D01*
X115361928Y-135918872D01*
X115377813Y-136001748D01*
X115396010Y-136090400D01*
X115395988Y-136096580D01*
X115396056Y-136096932D01*
X115395404Y-136283704D01*
X115395335Y-136284053D01*
X115395313Y-136290237D01*
X115376491Y-136378785D01*
X115360034Y-136461522D01*
X115357671Y-136467327D01*
X115355144Y-136479215D01*
X115321246Y-136556806D01*
X115291613Y-136629599D01*
X115285009Y-136639748D01*
X115277797Y-136656257D01*
X115232357Y-136720672D01*
X115192645Y-136781707D01*
X115180180Y-136794637D01*
X115166430Y-136814129D01*
X115113221Y-136864096D01*
X115066704Y-136912349D01*
X115047248Y-136926048D01*
X115025593Y-136946384D01*
X114968380Y-136981582D01*
X114918323Y-137016828D01*
X114891302Y-137029000D01*
X114861039Y-137047618D01*
X114803399Y-137068597D01*
X114752868Y-137091360D01*
X114718362Y-137099549D01*
X114679490Y-137113697D01*
X114624568Y-137121807D01*
X114576307Y-137133260D01*
X114535057Y-137135025D01*
X114488363Y-137141920D01*
X114438741Y-137139146D01*
X114395000Y-137141017D01*
X114348403Y-137134095D01*
X114295464Y-137131135D01*
X114253057Y-137119931D01*
X114215504Y-137114352D01*
X114165566Y-137096815D01*
X114108673Y-137081783D01*
X114074600Y-137064869D01*
X114044288Y-137054224D01*
X113993557Y-137024639D01*
X113935621Y-136995879D01*
X113910245Y-136976053D01*
X113887528Y-136962805D01*
X113838930Y-136920335D01*
X113783378Y-136876933D01*
X113766292Y-136856857D01*
X113750884Y-136843392D01*
X113707628Y-136787928D01*
X113658161Y-136729804D01*
X113648277Y-136711825D01*
X113639285Y-136700295D01*
X113604661Y-136632488D01*
X113565086Y-136560501D01*
X113560749Y-136546492D01*
X113556760Y-136538679D01*
X113533983Y-136460022D01*
X113507955Y-136375941D01*
X113507095Y-136367173D01*
X113506285Y-136364375D01*
X113498295Y-136277423D01*
X113489102Y-136183663D01*
X113498949Y-136089976D01*
X113507546Y-136003079D01*
X113508376Y-136000287D01*
X113509297Y-135991521D01*
X113535920Y-135907594D01*
X113559237Y-135829129D01*
X113563280Y-135821346D01*
X113567715Y-135807365D01*
X113607811Y-135735621D01*
X113642891Y-135668090D01*
X113651956Y-135656632D01*
X113661969Y-135638716D01*
X113711849Y-135580930D01*
X113755484Y-135525776D01*
X113770984Y-135512420D01*
X113788210Y-135492464D01*
X113844069Y-135449447D01*
X113892959Y-135407321D01*
X113915768Y-135394232D01*
X113941281Y-135374584D01*
X113999401Y-135346237D01*
X114050350Y-135316999D01*
X114080746Y-135306562D01*
X114114928Y-135289891D01*
X114171921Y-135275258D01*
X114221983Y-135258069D01*
X114259572Y-135252753D01*
X114302059Y-135241844D01*
X114355020Y-135239254D01*
X114401663Y-135232657D01*
X114445388Y-135234834D01*
X114495028Y-135232406D01*
X114541675Y-135239627D01*
X114541675Y-135239627D01*
G37*
G36*
X121145675Y-135239627D02*
G01*
X121186905Y-135241680D01*
X121235080Y-135253468D01*
X121289954Y-135261963D01*
X121328728Y-135276383D01*
X121363176Y-135284812D01*
X121413544Y-135307925D01*
X121471037Y-135329307D01*
X121501173Y-135348138D01*
X121528107Y-135360498D01*
X121577922Y-135396097D01*
X121634880Y-135431688D01*
X121656387Y-135452168D01*
X121675749Y-135466005D01*
X121721931Y-135514585D01*
X121774790Y-135564922D01*
X121788404Y-135584511D01*
X121800782Y-135597531D01*
X121840083Y-135658866D01*
X121885052Y-135723569D01*
X121892145Y-135740119D01*
X121898683Y-135750322D01*
X121927818Y-135823349D01*
X121961162Y-135901146D01*
X121963606Y-135913051D01*
X121965928Y-135918872D01*
X121981813Y-136001748D01*
X122000010Y-136090400D01*
X121999988Y-136096580D01*
X122000056Y-136096932D01*
X121999404Y-136283704D01*
X121999335Y-136284053D01*
X121999313Y-136290237D01*
X121980491Y-136378785D01*
X121964034Y-136461522D01*
X121961671Y-136467327D01*
X121959144Y-136479215D01*
X121925246Y-136556806D01*
X121895613Y-136629599D01*
X121889009Y-136639748D01*
X121881797Y-136656257D01*
X121836357Y-136720672D01*
X121796645Y-136781707D01*
X121784180Y-136794637D01*
X121770430Y-136814129D01*
X121717221Y-136864096D01*
X121670704Y-136912349D01*
X121651248Y-136926048D01*
X121629593Y-136946384D01*
X121572380Y-136981582D01*
X121522323Y-137016828D01*
X121495302Y-137029000D01*
X121465039Y-137047618D01*
X121407399Y-137068597D01*
X121356868Y-137091360D01*
X121322362Y-137099549D01*
X121283490Y-137113697D01*
X121228568Y-137121807D01*
X121180307Y-137133260D01*
X121139057Y-137135025D01*
X121092363Y-137141920D01*
X121042741Y-137139146D01*
X120999000Y-137141017D01*
X120952403Y-137134095D01*
X120899464Y-137131135D01*
X120857057Y-137119931D01*
X120819504Y-137114352D01*
X120769566Y-137096815D01*
X120712673Y-137081783D01*
X120678600Y-137064869D01*
X120648288Y-137054224D01*
X120597557Y-137024639D01*
X120539621Y-136995879D01*
X120514245Y-136976053D01*
X120491528Y-136962805D01*
X120442930Y-136920335D01*
X120387378Y-136876933D01*
X120370292Y-136856857D01*
X120354884Y-136843392D01*
X120311628Y-136787928D01*
X120262161Y-136729804D01*
X120252277Y-136711825D01*
X120243285Y-136700295D01*
X120208661Y-136632488D01*
X120169086Y-136560501D01*
X120164749Y-136546492D01*
X120160760Y-136538679D01*
X120137983Y-136460022D01*
X120111955Y-136375941D01*
X120111095Y-136367173D01*
X120110285Y-136364375D01*
X120102295Y-136277423D01*
X120093102Y-136183663D01*
X120102949Y-136089976D01*
X120111546Y-136003079D01*
X120112376Y-136000287D01*
X120113297Y-135991521D01*
X120139920Y-135907594D01*
X120163237Y-135829129D01*
X120167280Y-135821346D01*
X120171715Y-135807365D01*
X120211811Y-135735621D01*
X120246891Y-135668090D01*
X120255956Y-135656632D01*
X120265969Y-135638716D01*
X120315849Y-135580930D01*
X120359484Y-135525776D01*
X120374984Y-135512420D01*
X120392210Y-135492464D01*
X120448069Y-135449447D01*
X120496959Y-135407321D01*
X120519768Y-135394232D01*
X120545281Y-135374584D01*
X120603401Y-135346237D01*
X120654350Y-135316999D01*
X120684746Y-135306562D01*
X120718928Y-135289891D01*
X120775921Y-135275258D01*
X120825983Y-135258069D01*
X120863572Y-135252753D01*
X120906059Y-135241844D01*
X120959020Y-135239254D01*
X121005663Y-135232657D01*
X121049388Y-135234834D01*
X121099028Y-135232406D01*
X121145675Y-135239627D01*
X121145675Y-135239627D01*
G37*
G36*
X107937675Y-135239627D02*
G01*
X107978905Y-135241680D01*
X108027080Y-135253468D01*
X108081954Y-135261963D01*
X108120728Y-135276383D01*
X108155176Y-135284812D01*
X108205544Y-135307925D01*
X108263037Y-135329307D01*
X108293173Y-135348138D01*
X108320107Y-135360498D01*
X108369922Y-135396097D01*
X108426880Y-135431688D01*
X108448387Y-135452168D01*
X108467749Y-135466005D01*
X108513931Y-135514585D01*
X108566790Y-135564922D01*
X108580404Y-135584511D01*
X108592782Y-135597531D01*
X108632083Y-135658866D01*
X108677052Y-135723569D01*
X108684145Y-135740119D01*
X108690683Y-135750322D01*
X108719818Y-135823349D01*
X108753162Y-135901146D01*
X108755606Y-135913051D01*
X108757928Y-135918872D01*
X108773813Y-136001748D01*
X108792010Y-136090400D01*
X108791988Y-136096580D01*
X108792056Y-136096932D01*
X108791404Y-136283704D01*
X108791335Y-136284053D01*
X108791313Y-136290237D01*
X108772491Y-136378785D01*
X108756034Y-136461522D01*
X108753671Y-136467327D01*
X108751144Y-136479215D01*
X108717246Y-136556806D01*
X108687613Y-136629599D01*
X108681009Y-136639748D01*
X108673797Y-136656257D01*
X108628357Y-136720672D01*
X108588645Y-136781707D01*
X108576180Y-136794637D01*
X108562430Y-136814129D01*
X108509221Y-136864096D01*
X108462704Y-136912349D01*
X108443248Y-136926048D01*
X108421593Y-136946384D01*
X108364380Y-136981582D01*
X108314323Y-137016828D01*
X108287302Y-137029000D01*
X108257039Y-137047618D01*
X108199399Y-137068597D01*
X108148868Y-137091360D01*
X108114362Y-137099549D01*
X108075490Y-137113697D01*
X108020568Y-137121807D01*
X107972307Y-137133260D01*
X107931057Y-137135025D01*
X107884363Y-137141920D01*
X107834741Y-137139146D01*
X107791000Y-137141017D01*
X107744403Y-137134095D01*
X107691464Y-137131135D01*
X107649057Y-137119931D01*
X107611504Y-137114352D01*
X107561566Y-137096815D01*
X107504673Y-137081783D01*
X107470600Y-137064869D01*
X107440288Y-137054224D01*
X107389557Y-137024639D01*
X107331621Y-136995879D01*
X107306245Y-136976053D01*
X107283528Y-136962805D01*
X107234930Y-136920335D01*
X107179378Y-136876933D01*
X107162292Y-136856857D01*
X107146884Y-136843392D01*
X107103628Y-136787928D01*
X107054161Y-136729804D01*
X107044277Y-136711825D01*
X107035285Y-136700295D01*
X107000661Y-136632488D01*
X106961086Y-136560501D01*
X106956749Y-136546492D01*
X106952760Y-136538679D01*
X106929983Y-136460022D01*
X106903955Y-136375941D01*
X106903095Y-136367173D01*
X106902285Y-136364375D01*
X106894295Y-136277423D01*
X106885102Y-136183663D01*
X106894949Y-136089976D01*
X106903546Y-136003079D01*
X106904376Y-136000287D01*
X106905297Y-135991521D01*
X106931920Y-135907594D01*
X106955237Y-135829129D01*
X106959280Y-135821346D01*
X106963715Y-135807365D01*
X107003811Y-135735621D01*
X107038891Y-135668090D01*
X107047956Y-135656632D01*
X107057969Y-135638716D01*
X107107849Y-135580930D01*
X107151484Y-135525776D01*
X107166984Y-135512420D01*
X107184210Y-135492464D01*
X107240069Y-135449447D01*
X107288959Y-135407321D01*
X107311768Y-135394232D01*
X107337281Y-135374584D01*
X107395401Y-135346237D01*
X107446350Y-135316999D01*
X107476746Y-135306562D01*
X107510928Y-135289891D01*
X107567921Y-135275258D01*
X107617983Y-135258069D01*
X107655572Y-135252753D01*
X107698059Y-135241844D01*
X107751020Y-135239254D01*
X107797663Y-135232657D01*
X107841388Y-135234834D01*
X107891028Y-135232406D01*
X107937675Y-135239627D01*
X107937675Y-135239627D01*
G37*
G36*
X101333675Y-135239627D02*
G01*
X101374905Y-135241680D01*
X101423080Y-135253468D01*
X101477954Y-135261963D01*
X101516728Y-135276383D01*
X101551176Y-135284812D01*
X101601544Y-135307925D01*
X101659037Y-135329307D01*
X101689173Y-135348138D01*
X101716107Y-135360498D01*
X101765922Y-135396097D01*
X101822880Y-135431688D01*
X101844387Y-135452168D01*
X101863749Y-135466005D01*
X101909931Y-135514585D01*
X101962790Y-135564922D01*
X101976404Y-135584511D01*
X101988782Y-135597531D01*
X102028083Y-135658866D01*
X102073052Y-135723569D01*
X102080145Y-135740119D01*
X102086683Y-135750322D01*
X102115818Y-135823349D01*
X102149162Y-135901146D01*
X102151606Y-135913051D01*
X102153928Y-135918872D01*
X102169813Y-136001748D01*
X102188010Y-136090400D01*
X102187988Y-136096580D01*
X102188056Y-136096932D01*
X102187404Y-136283704D01*
X102187335Y-136284053D01*
X102187313Y-136290237D01*
X102168491Y-136378785D01*
X102152034Y-136461522D01*
X102149671Y-136467327D01*
X102147144Y-136479215D01*
X102113246Y-136556806D01*
X102083613Y-136629599D01*
X102077009Y-136639748D01*
X102069797Y-136656257D01*
X102024357Y-136720672D01*
X101984645Y-136781707D01*
X101972180Y-136794637D01*
X101958430Y-136814129D01*
X101905221Y-136864096D01*
X101858704Y-136912349D01*
X101839248Y-136926048D01*
X101817593Y-136946384D01*
X101760380Y-136981582D01*
X101710323Y-137016828D01*
X101683302Y-137029000D01*
X101653039Y-137047618D01*
X101595399Y-137068597D01*
X101544868Y-137091360D01*
X101510362Y-137099549D01*
X101471490Y-137113697D01*
X101416568Y-137121807D01*
X101368307Y-137133260D01*
X101327057Y-137135025D01*
X101280363Y-137141920D01*
X101230741Y-137139146D01*
X101187000Y-137141017D01*
X101140403Y-137134095D01*
X101087464Y-137131135D01*
X101045057Y-137119931D01*
X101007504Y-137114352D01*
X100957566Y-137096815D01*
X100900673Y-137081783D01*
X100866600Y-137064869D01*
X100836288Y-137054224D01*
X100785557Y-137024639D01*
X100727621Y-136995879D01*
X100702245Y-136976053D01*
X100679528Y-136962805D01*
X100630930Y-136920335D01*
X100575378Y-136876933D01*
X100558292Y-136856857D01*
X100542884Y-136843392D01*
X100499628Y-136787928D01*
X100450161Y-136729804D01*
X100440277Y-136711825D01*
X100431285Y-136700295D01*
X100396661Y-136632488D01*
X100357086Y-136560501D01*
X100352749Y-136546492D01*
X100348760Y-136538679D01*
X100325983Y-136460022D01*
X100299955Y-136375941D01*
X100299095Y-136367173D01*
X100298285Y-136364375D01*
X100290295Y-136277423D01*
X100281102Y-136183663D01*
X100290949Y-136089976D01*
X100299546Y-136003079D01*
X100300376Y-136000287D01*
X100301297Y-135991521D01*
X100327920Y-135907594D01*
X100351237Y-135829129D01*
X100355280Y-135821346D01*
X100359715Y-135807365D01*
X100399811Y-135735621D01*
X100434891Y-135668090D01*
X100443956Y-135656632D01*
X100453969Y-135638716D01*
X100503849Y-135580930D01*
X100547484Y-135525776D01*
X100562984Y-135512420D01*
X100580210Y-135492464D01*
X100636069Y-135449447D01*
X100684959Y-135407321D01*
X100707768Y-135394232D01*
X100733281Y-135374584D01*
X100791401Y-135346237D01*
X100842350Y-135316999D01*
X100872746Y-135306562D01*
X100906928Y-135289891D01*
X100963921Y-135275258D01*
X101013983Y-135258069D01*
X101051572Y-135252753D01*
X101094059Y-135241844D01*
X101147020Y-135239254D01*
X101193663Y-135232657D01*
X101237388Y-135234834D01*
X101287028Y-135232406D01*
X101333675Y-135239627D01*
X101333675Y-135239627D01*
G37*
G36*
X119428899Y-135238959D02*
G01*
X119445769Y-135250231D01*
X119457041Y-135267101D01*
X119463448Y-135299312D01*
X119463448Y-137074688D01*
X119460999Y-137087000D01*
X119457041Y-137106899D01*
X119445769Y-137123769D01*
X119428899Y-137135041D01*
X119409000Y-137138999D01*
X119396688Y-137141448D01*
X117621312Y-137141448D01*
X117589101Y-137135041D01*
X117572231Y-137123769D01*
X117560959Y-137106899D01*
X117554552Y-137074688D01*
X117554552Y-135299312D01*
X117560959Y-135267101D01*
X117572231Y-135250231D01*
X117589101Y-135238959D01*
X117621312Y-135232552D01*
X119396688Y-135232552D01*
X119428899Y-135238959D01*
X119428899Y-135238959D01*
G37*
G36*
X112824899Y-135238959D02*
G01*
X112841769Y-135250231D01*
X112853041Y-135267101D01*
X112859448Y-135299312D01*
X112859448Y-137074688D01*
X112856999Y-137087000D01*
X112853041Y-137106899D01*
X112841769Y-137123769D01*
X112824899Y-137135041D01*
X112805000Y-137138999D01*
X112792688Y-137141448D01*
X111017312Y-137141448D01*
X110985101Y-137135041D01*
X110968231Y-137123769D01*
X110956959Y-137106899D01*
X110950552Y-137074688D01*
X110950552Y-135299312D01*
X110956959Y-135267101D01*
X110968231Y-135250231D01*
X110985101Y-135238959D01*
X111017312Y-135232552D01*
X112792688Y-135232552D01*
X112824899Y-135238959D01*
X112824899Y-135238959D01*
G37*
G36*
X106220899Y-135238959D02*
G01*
X106237769Y-135250231D01*
X106249041Y-135267101D01*
X106255448Y-135299312D01*
X106255448Y-137074688D01*
X106252999Y-137087000D01*
X106249041Y-137106899D01*
X106237769Y-137123769D01*
X106220899Y-137135041D01*
X106201000Y-137138999D01*
X106188688Y-137141448D01*
X104413312Y-137141448D01*
X104381101Y-137135041D01*
X104364231Y-137123769D01*
X104352959Y-137106899D01*
X104346552Y-137074688D01*
X104346552Y-135299312D01*
X104352959Y-135267101D01*
X104364231Y-135250231D01*
X104381101Y-135238959D01*
X104413312Y-135232552D01*
X106188688Y-135232552D01*
X106220899Y-135238959D01*
X106220899Y-135238959D01*
G37*
G36*
X99616899Y-135238959D02*
G01*
X99633769Y-135250231D01*
X99645041Y-135267101D01*
X99651448Y-135299312D01*
X99651448Y-137074688D01*
X99648999Y-137087000D01*
X99645041Y-137106899D01*
X99633769Y-137123769D01*
X99616899Y-137135041D01*
X99597000Y-137138999D01*
X99584688Y-137141448D01*
X97809312Y-137141448D01*
X97777101Y-137135041D01*
X97760231Y-137123769D01*
X97748959Y-137106899D01*
X97742552Y-137074688D01*
X97742552Y-135299312D01*
X97748959Y-135267101D01*
X97760231Y-135250231D01*
X97777101Y-135238959D01*
X97809312Y-135232552D01*
X99584688Y-135232552D01*
X99616899Y-135238959D01*
X99616899Y-135238959D01*
G37*
G36*
X83188360Y-133953835D02*
G01*
X83269397Y-133980166D01*
X83356663Y-134007848D01*
X83359655Y-134009493D01*
X83368488Y-134012363D01*
X83440466Y-134053919D01*
X83511499Y-134092970D01*
X83518986Y-134099253D01*
X83532511Y-134107061D01*
X83590259Y-134159057D01*
X83646857Y-134206549D01*
X83656962Y-134219118D01*
X83673261Y-134233793D01*
X83715454Y-134291867D01*
X83757579Y-134344260D01*
X83767994Y-134364182D01*
X83784586Y-134387019D01*
X83811297Y-134447012D01*
X83839439Y-134500843D01*
X83847582Y-134528510D01*
X83861621Y-134560042D01*
X83873992Y-134618241D01*
X83889328Y-134670349D01*
X83892518Y-134705401D01*
X83900999Y-134745301D01*
X83900999Y-134798592D01*
X83905343Y-134846324D01*
X83900999Y-134887653D01*
X83900999Y-134934699D01*
X83891217Y-134980721D01*
X83886873Y-135022047D01*
X83872702Y-135067827D01*
X83861621Y-135119958D01*
X83845028Y-135157226D01*
X83834622Y-135190843D01*
X83808789Y-135238620D01*
X83784586Y-135292981D01*
X83764298Y-135320905D01*
X83750580Y-135346276D01*
X83711859Y-135393082D01*
X83673261Y-135446207D01*
X83652284Y-135465095D01*
X83637952Y-135482419D01*
X83585845Y-135524917D01*
X83532511Y-135572939D01*
X83513524Y-135583901D01*
X83501025Y-135594095D01*
X83435780Y-135628786D01*
X83368488Y-135667637D01*
X83353636Y-135672463D01*
X83345003Y-135677053D01*
X83267430Y-135700473D01*
X83188360Y-135726165D01*
X83179114Y-135727137D01*
X83175851Y-135728122D01*
X83084710Y-135737059D01*
X83047211Y-135741000D01*
X82952789Y-135741000D01*
X82811640Y-135726165D01*
X82730603Y-135699834D01*
X82643337Y-135672152D01*
X82640345Y-135670507D01*
X82631512Y-135667637D01*
X82559534Y-135626081D01*
X82488501Y-135587030D01*
X82481014Y-135580747D01*
X82467489Y-135572939D01*
X82409741Y-135520943D01*
X82353143Y-135473451D01*
X82343038Y-135460882D01*
X82326739Y-135446207D01*
X82284546Y-135388133D01*
X82242421Y-135335740D01*
X82232006Y-135315818D01*
X82215414Y-135292981D01*
X82188703Y-135232988D01*
X82160561Y-135179157D01*
X82152418Y-135151490D01*
X82138379Y-135119958D01*
X82126008Y-135061759D01*
X82110672Y-135009651D01*
X82107482Y-134974599D01*
X82099001Y-134934699D01*
X82099001Y-134881408D01*
X82094657Y-134833676D01*
X82099001Y-134792347D01*
X82099001Y-134745301D01*
X82108783Y-134699279D01*
X82113127Y-134657953D01*
X82127298Y-134612173D01*
X82138379Y-134560042D01*
X82154972Y-134522774D01*
X82165378Y-134489157D01*
X82191211Y-134441380D01*
X82215414Y-134387019D01*
X82235702Y-134359095D01*
X82249420Y-134333724D01*
X82288141Y-134286918D01*
X82326739Y-134233793D01*
X82347716Y-134214905D01*
X82362048Y-134197581D01*
X82414155Y-134155083D01*
X82467489Y-134107061D01*
X82486476Y-134096099D01*
X82498975Y-134085905D01*
X82564220Y-134051214D01*
X82631512Y-134012363D01*
X82646364Y-134007537D01*
X82654997Y-134002947D01*
X82732570Y-133979527D01*
X82811640Y-133953835D01*
X82820886Y-133952863D01*
X82824149Y-133951878D01*
X82915290Y-133942941D01*
X82952789Y-133939000D01*
X83047211Y-133939000D01*
X83188360Y-133953835D01*
X83188360Y-133953835D01*
G37*
M02*
