G04 #@! TF.GenerationSoftware,KiCad,Pcbnew,6.0.0-unknown-ea0edab~86~ubuntu18.04.1*
G04 #@! TF.CreationDate,2019-07-07T16:33:58+02:00*
G04 #@! TF.ProjectId,ir-transmitter,69722d74-7261-46e7-936d-69747465722e,rev?*
G04 #@! TF.SameCoordinates,Original*
G04 #@! TF.FileFunction,Legend,Top*
G04 #@! TF.FilePolarity,Positive*
%FSLAX46Y46*%
G04 Gerber Fmt 4.6, Leading zero omitted, Abs format (unit mm)*
G04 Created by KiCad (PCBNEW 6.0.0-unknown-ea0edab~86~ubuntu18.04.1) date 2019-07-07 16:33:58*
%MOMM*%
%LPD*%
G04 APERTURE LIST*
%ADD10C,0.034395*%
%ADD11C,0.150000*%
%ADD12C,0.120000*%
G04 APERTURE END LIST*
D10*
X127384247Y-134827077D02*
X127385291Y-134827623D01*
X128101533Y-131352821D02*
X128100317Y-131353316D01*
X125324362Y-135033452D02*
X125325556Y-135032907D01*
X126255983Y-131532903D02*
X126253488Y-131533848D01*
X128436910Y-133617469D02*
X128438208Y-133617203D01*
X127607136Y-131691140D02*
X127604876Y-131692553D01*
X128131730Y-135029921D02*
X128132761Y-135029118D01*
X128229653Y-134098681D02*
X128229515Y-134095694D01*
X128134699Y-135027364D02*
X128134699Y-135027364D01*
X128546245Y-134615887D02*
X128547153Y-134614933D01*
X125822235Y-131693812D02*
X125819809Y-131692553D01*
X128127296Y-131354146D02*
X128126100Y-131353586D01*
X128229543Y-134092717D02*
X128229740Y-134089772D01*
X127029669Y-130906190D02*
X127028950Y-130905080D01*
X125291867Y-131357695D02*
X125290874Y-131358554D01*
X128133815Y-131358554D02*
X128132819Y-131357695D01*
X124871334Y-131802967D02*
X124871773Y-131804206D01*
X126395022Y-130906190D02*
X126394353Y-130907328D01*
D11*
X126966135Y-133829942D02*
X127373898Y-134815314D01*
D10*
X127609027Y-134719401D02*
X127611651Y-134718526D01*
X124417052Y-132883007D02*
X124416221Y-132884049D01*
X125820410Y-134721654D02*
X125820410Y-134721654D01*
X125812950Y-134718494D02*
X125815571Y-134719369D01*
X128132761Y-135029118D02*
X128133751Y-135028265D01*
D11*
X125019090Y-133646165D02*
X125191276Y-134076285D01*
D10*
X125810224Y-134717798D02*
X125812950Y-134718494D01*
X125817556Y-131691140D02*
X125817556Y-131691140D01*
X126044220Y-134824331D02*
X126045109Y-134823520D01*
X128230107Y-134086882D02*
X128230646Y-134084069D01*
X127171238Y-131533848D02*
X127171238Y-131533848D01*
X125311490Y-131350808D02*
X125308828Y-131350948D01*
X128410449Y-133636377D02*
X128412174Y-133634051D01*
X124430960Y-132873205D02*
X124429727Y-132873663D01*
X128552629Y-134605984D02*
X128553088Y-134604739D01*
X129014787Y-133485681D02*
X129014820Y-133484367D01*
X127004631Y-130890885D02*
X127003317Y-130890853D01*
X127144842Y-131508557D02*
X127143792Y-131505961D01*
X128230422Y-134104594D02*
X128229956Y-134101655D01*
X124409989Y-132898464D02*
X124409829Y-132899766D01*
X126281772Y-131503356D02*
X126280936Y-131505961D01*
X127014816Y-130893335D02*
X127013593Y-130892831D01*
X127169991Y-131533405D02*
X127168749Y-131532903D01*
X128552371Y-131805423D02*
X128552863Y-131804206D01*
X124420764Y-132879194D02*
X124419781Y-132880090D01*
X128405924Y-133644946D02*
X128406410Y-133643696D01*
X127033212Y-130914642D02*
X127032878Y-130913372D01*
X127005941Y-130890983D02*
X127004631Y-130890885D01*
X125010523Y-133631773D02*
X125012415Y-133634017D01*
X126027792Y-134829902D02*
X126028995Y-134829942D01*
X127570938Y-131696993D02*
X127568230Y-131696272D01*
X124872042Y-131780834D02*
X124871584Y-131782078D01*
X128998331Y-133511431D02*
X128999468Y-133510762D01*
X128550290Y-134610718D02*
X128550950Y-134609577D01*
X129014529Y-133488295D02*
X129014689Y-133486991D01*
X124874378Y-131776105D02*
X124873719Y-131777245D01*
X128554512Y-131797831D02*
X128554797Y-131795191D01*
X125320639Y-135034760D02*
X125321901Y-135034379D01*
X127033482Y-130915927D02*
X127033212Y-130914642D01*
X125293971Y-131356126D02*
X125292901Y-131356886D01*
X125194854Y-134089738D02*
X125195052Y-134092683D01*
X125777416Y-134723133D02*
X125777416Y-134723133D01*
X124423912Y-132876759D02*
X124422831Y-132877526D01*
X124420813Y-133507574D02*
X124422881Y-133509242D01*
X127622960Y-134716795D02*
X127625881Y-134716804D01*
X128551825Y-131806614D02*
X128552371Y-131805423D01*
X127582559Y-131698155D02*
X127579580Y-131698119D01*
X125801642Y-134716772D02*
X125804548Y-134716937D01*
X127392015Y-134829712D02*
X127393192Y-134829855D01*
X125301041Y-131352619D02*
X125298578Y-131353586D01*
X128551561Y-134608406D02*
X128552120Y-134607207D01*
X125298578Y-131353586D02*
X125296215Y-131354756D01*
X125845087Y-131698119D02*
X125842107Y-131698155D01*
X129002707Y-133508464D02*
X129003725Y-133507608D01*
X125836140Y-131697727D02*
X125833198Y-131697266D01*
D11*
X128549856Y-134576779D02*
X128236545Y-134120242D01*
D10*
X124986346Y-133617169D02*
X124986346Y-133617169D01*
X127373898Y-134815314D02*
X127373898Y-134815314D01*
X126279887Y-131508557D02*
X126278640Y-131511129D01*
D12*
X127600000Y-144100000D02*
X125600000Y-143100000D01*
D10*
X128553301Y-131802967D02*
X128554014Y-131800429D01*
X124410490Y-132895886D02*
X124410210Y-132897170D01*
X124410246Y-133489556D02*
X124410527Y-133490842D01*
X124877507Y-131771892D02*
X124876651Y-131772889D01*
X127159165Y-131527001D02*
X127156936Y-131525081D01*
X125195081Y-134095660D02*
X125194943Y-134098646D01*
X127400411Y-134829423D02*
X127401620Y-134829128D01*
X127388568Y-134828925D02*
X127389700Y-134829246D01*
X125018183Y-133643662D02*
X125018666Y-133644912D01*
X124409829Y-132899766D02*
X124409732Y-132901076D01*
X128420528Y-133625718D02*
X128422897Y-133623954D01*
X127573747Y-131697540D02*
X127570938Y-131696993D01*
X128095660Y-135030975D02*
X128095660Y-135030975D01*
X128552863Y-131804206D02*
X128553301Y-131802967D01*
X125318066Y-135035362D02*
X125319360Y-135035088D01*
X127374427Y-134816507D02*
X127375009Y-134817655D01*
X124428515Y-132874177D02*
X124427326Y-132874745D01*
X124988940Y-133617762D02*
X124991541Y-133618587D01*
X127399200Y-134829653D02*
X127400411Y-134829423D01*
X126265576Y-131527001D02*
X126263265Y-131528760D01*
X127163853Y-131530342D02*
X127161475Y-131528760D01*
X124409732Y-132901076D02*
X124409700Y-132902389D01*
X124409700Y-132902389D02*
X124409700Y-132902389D01*
X129014307Y-133489591D02*
X129014529Y-133488295D01*
X127631682Y-134717348D02*
X127634518Y-134717883D01*
X127011094Y-130891985D02*
X127009822Y-130891645D01*
X126411084Y-130892831D02*
X126409863Y-130893335D01*
X127404027Y-134828340D02*
X127405219Y-134827846D01*
X127395577Y-134829961D02*
X127396781Y-134829921D01*
X126391813Y-130913372D02*
X126391480Y-130914642D01*
X127032031Y-130910890D02*
X127031521Y-130909679D01*
X127591470Y-131697266D02*
X127588526Y-131697727D01*
X127033482Y-130915927D02*
X127033482Y-130915927D01*
X128134768Y-131359461D02*
X128134768Y-131359461D01*
X125295042Y-135031348D02*
X125296180Y-135032004D01*
X128991028Y-133514298D02*
X128992294Y-133513967D01*
X125190692Y-134115521D02*
X125189428Y-134117949D01*
X124869839Y-131795191D02*
X124870122Y-131797831D01*
X124426161Y-132875366D02*
X124425023Y-132876038D01*
X128434307Y-133618180D02*
X128435609Y-133617796D01*
X126458487Y-133829942D02*
X126458962Y-133828716D01*
X126459374Y-133827472D02*
X126459725Y-133826211D01*
X124869715Y-134594240D02*
X124869856Y-134596905D01*
X124875019Y-134611792D02*
X124875776Y-134612866D01*
X127023716Y-130899090D02*
X127022708Y-130898218D01*
X127604178Y-134721688D02*
X127606529Y-134720456D01*
X127604876Y-131692553D02*
X127602446Y-131693811D01*
X126050690Y-134815280D02*
X126050690Y-134815280D01*
X128097963Y-131354472D02*
X128096829Y-131355133D01*
X127389700Y-134829246D02*
X127390850Y-134829508D01*
X129001658Y-133509276D02*
X129002707Y-133508464D01*
X124409864Y-133486957D02*
X124410024Y-133488261D01*
X125815571Y-134719369D02*
X125818065Y-134720422D01*
X127405219Y-134827846D02*
X127406402Y-134827283D01*
X128236545Y-134120242D02*
X128235137Y-134117983D01*
X127152780Y-131520825D02*
X127150883Y-131518524D01*
X125818065Y-134720422D02*
X125820410Y-134721654D01*
X128128421Y-135032038D02*
X128129557Y-135031382D01*
X127617187Y-134717306D02*
X127620055Y-134716963D01*
D12*
X128600000Y-143100000D02*
X124600000Y-143100000D01*
D10*
X124986346Y-133617169D02*
X124987641Y-133617435D01*
X125299763Y-135033672D02*
X125301006Y-135034128D01*
X124871773Y-131804206D02*
X124872268Y-131805423D01*
D11*
X128546246Y-131770939D02*
X128134768Y-131359461D01*
D10*
X128547153Y-131771892D02*
X128546246Y-131770939D01*
X128097894Y-135032341D02*
X128099058Y-135032941D01*
X124874017Y-134577845D02*
X124873359Y-134578979D01*
X125325591Y-131353866D02*
X125324397Y-131353316D01*
X127013593Y-130892831D02*
X127012352Y-130892380D01*
X125019090Y-133646165D02*
X125019090Y-133646165D01*
X128550945Y-131777245D02*
X128550287Y-131776105D01*
D11*
X128438208Y-133617203D02*
X128989746Y-133514566D01*
D10*
X125859038Y-131695377D02*
X125856450Y-131696272D01*
X127394380Y-134829939D02*
X127395577Y-134829961D01*
X127393192Y-134829855D02*
X127394380Y-134829939D01*
X127017200Y-130894496D02*
X127016019Y-130893890D01*
X126273854Y-131518524D02*
X126271959Y-131520825D01*
D11*
X126391209Y-130915927D02*
X126282381Y-131500759D01*
D10*
X128231359Y-134081356D02*
X128232247Y-134078765D01*
X126258454Y-131531728D02*
X126255983Y-131532903D01*
X128554898Y-134594274D02*
X128554826Y-134591610D01*
X129014025Y-133490876D02*
X129014307Y-133489591D01*
X128405497Y-133646199D02*
X128405497Y-133646199D01*
X124872209Y-134581335D02*
X124871716Y-134582553D01*
X124409734Y-133484333D02*
X124409734Y-133484333D01*
X128113196Y-131350808D02*
X128110539Y-131350880D01*
X124870619Y-131800429D02*
X124870949Y-131801707D01*
X128989746Y-133514566D02*
X128989746Y-133514566D01*
D11*
X128220414Y-132290178D02*
X128549857Y-131810012D01*
D10*
X128099058Y-135032941D02*
X128100250Y-135033487D01*
X126048267Y-134819779D02*
X126048947Y-134818724D01*
X125306186Y-131351298D02*
X125303584Y-131351855D01*
X128121056Y-135034921D02*
X128123598Y-135034162D01*
X128430417Y-133619665D02*
X128433006Y-133618621D01*
X127032878Y-130913372D02*
X127032484Y-130912121D01*
X128548819Y-131773924D02*
X128548011Y-131772889D01*
D11*
X127003317Y-130890853D02*
X126421340Y-130890853D01*
D10*
X126037121Y-134828526D02*
X126038215Y-134828091D01*
X124872487Y-134607173D02*
X124873653Y-134609542D01*
X124874731Y-134576744D02*
X124874017Y-134577845D01*
X126018186Y-134827249D02*
X126018186Y-134827249D01*
D11*
X126050690Y-134815280D02*
X126458487Y-133829942D01*
X128233312Y-134076319D02*
X128405497Y-133646199D01*
D10*
X124416221Y-132884049D02*
X124415432Y-132885123D01*
D11*
X127142346Y-131500759D02*
X127033482Y-130915927D01*
D10*
X127032484Y-130912121D02*
X127032031Y-130910890D01*
X127379475Y-134823549D02*
X127380362Y-134824359D01*
X128130661Y-135030676D02*
X128131730Y-135029921D01*
X128096761Y-135031686D02*
X128097894Y-135032341D01*
X124414687Y-132886226D02*
X124413987Y-132887356D01*
D11*
X98971428Y-149478571D02*
X98971428Y-147978571D01*
X99685714Y-148478571D02*
X99685714Y-149478571D01*
X99685714Y-148621428D02*
X99757142Y-148550000D01*
X99900000Y-148478571D01*
X100114285Y-148478571D01*
X100257142Y-148550000D01*
X100328571Y-148692857D01*
X100328571Y-149478571D01*
X100828571Y-148478571D02*
X101400000Y-148478571D01*
X101042857Y-149478571D02*
X101042857Y-148192857D01*
X101114285Y-148050000D01*
X101257142Y-147978571D01*
X101400000Y-147978571D01*
X101900000Y-149478571D02*
X101900000Y-148478571D01*
X101900000Y-148764285D02*
X101971428Y-148621428D01*
X102042857Y-148550000D01*
X102185714Y-148478571D01*
X102328571Y-148478571D01*
X103471428Y-149478571D02*
X103471428Y-148692857D01*
X103400000Y-148550000D01*
X103257142Y-148478571D01*
X102971428Y-148478571D01*
X102828571Y-148550000D01*
X103471428Y-149407142D02*
X103328571Y-149478571D01*
X102971428Y-149478571D01*
X102828571Y-149407142D01*
X102757142Y-149264285D01*
X102757142Y-149121428D01*
X102828571Y-148978571D01*
X102971428Y-148907142D01*
X103328571Y-148907142D01*
X103471428Y-148835714D01*
X104185714Y-149478571D02*
X104185714Y-148478571D01*
X104185714Y-148764285D02*
X104257142Y-148621428D01*
X104328571Y-148550000D01*
X104471428Y-148478571D01*
X104614285Y-148478571D01*
X105685714Y-149407142D02*
X105542857Y-149478571D01*
X105257142Y-149478571D01*
X105114285Y-149407142D01*
X105042857Y-149264285D01*
X105042857Y-148692857D01*
X105114285Y-148550000D01*
X105257142Y-148478571D01*
X105542857Y-148478571D01*
X105685714Y-148550000D01*
X105757142Y-148692857D01*
X105757142Y-148835714D01*
X105042857Y-148978571D01*
X107042857Y-149478571D02*
X107042857Y-147978571D01*
X107042857Y-149407142D02*
X106900000Y-149478571D01*
X106614285Y-149478571D01*
X106471428Y-149407142D01*
X106400000Y-149335714D01*
X106328571Y-149192857D01*
X106328571Y-148764285D01*
X106400000Y-148621428D01*
X106471428Y-148550000D01*
X106614285Y-148478571D01*
X106900000Y-148478571D01*
X107042857Y-148550000D01*
X108685714Y-147978571D02*
X109542857Y-147978571D01*
X109114285Y-149478571D02*
X109114285Y-147978571D01*
X110042857Y-149478571D02*
X110042857Y-148478571D01*
X110042857Y-148764285D02*
X110114285Y-148621428D01*
X110185714Y-148550000D01*
X110328571Y-148478571D01*
X110471428Y-148478571D01*
X111614285Y-149478571D02*
X111614285Y-148692857D01*
X111542857Y-148550000D01*
X111400000Y-148478571D01*
X111114285Y-148478571D01*
X110971428Y-148550000D01*
X111614285Y-149407142D02*
X111471428Y-149478571D01*
X111114285Y-149478571D01*
X110971428Y-149407142D01*
X110900000Y-149264285D01*
X110900000Y-149121428D01*
X110971428Y-148978571D01*
X111114285Y-148907142D01*
X111471428Y-148907142D01*
X111614285Y-148835714D01*
X112328571Y-148478571D02*
X112328571Y-149478571D01*
X112328571Y-148621428D02*
X112400000Y-148550000D01*
X112542857Y-148478571D01*
X112757142Y-148478571D01*
X112900000Y-148550000D01*
X112971428Y-148692857D01*
X112971428Y-149478571D01*
X113614285Y-149407142D02*
X113757142Y-149478571D01*
X114042857Y-149478571D01*
X114185714Y-149407142D01*
X114257142Y-149264285D01*
X114257142Y-149192857D01*
X114185714Y-149050000D01*
X114042857Y-148978571D01*
X113828571Y-148978571D01*
X113685714Y-148907142D01*
X113614285Y-148764285D01*
X113614285Y-148692857D01*
X113685714Y-148550000D01*
X113828571Y-148478571D01*
X114042857Y-148478571D01*
X114185714Y-148550000D01*
X114900000Y-149478571D02*
X114900000Y-148478571D01*
X114900000Y-148621428D02*
X114971428Y-148550000D01*
X115114285Y-148478571D01*
X115328571Y-148478571D01*
X115471428Y-148550000D01*
X115542857Y-148692857D01*
X115542857Y-149478571D01*
X115542857Y-148692857D02*
X115614285Y-148550000D01*
X115757142Y-148478571D01*
X115971428Y-148478571D01*
X116114285Y-148550000D01*
X116185714Y-148692857D01*
X116185714Y-149478571D01*
X116900000Y-149478571D02*
X116900000Y-148478571D01*
X116900000Y-147978571D02*
X116828571Y-148050000D01*
X116900000Y-148121428D01*
X116971428Y-148050000D01*
X116900000Y-147978571D01*
X116900000Y-148121428D01*
X117400000Y-148478571D02*
X117971428Y-148478571D01*
X117614285Y-147978571D02*
X117614285Y-149264285D01*
X117685714Y-149407142D01*
X117828571Y-149478571D01*
X117971428Y-149478571D01*
X118257142Y-148478571D02*
X118828571Y-148478571D01*
X118471428Y-147978571D02*
X118471428Y-149264285D01*
X118542857Y-149407142D01*
X118685714Y-149478571D01*
X118828571Y-149478571D01*
X119900000Y-149407142D02*
X119757142Y-149478571D01*
X119471428Y-149478571D01*
X119328571Y-149407142D01*
X119257142Y-149264285D01*
X119257142Y-148692857D01*
X119328571Y-148550000D01*
X119471428Y-148478571D01*
X119757142Y-148478571D01*
X119900000Y-148550000D01*
X119971428Y-148692857D01*
X119971428Y-148835714D01*
X119257142Y-148978571D01*
X120614285Y-149478571D02*
X120614285Y-148478571D01*
X120614285Y-148764285D02*
X120685714Y-148621428D01*
X120757142Y-148550000D01*
X120900000Y-148478571D01*
X121042857Y-148478571D01*
D10*
X124422831Y-132877526D02*
X124421781Y-132878338D01*
X126400000Y-130900000D02*
X126398170Y-130901932D01*
X125824809Y-131694913D02*
X125822235Y-131693812D01*
X126392207Y-130912121D02*
X126391813Y-130913372D01*
X124410829Y-132894615D02*
X124410490Y-132895886D01*
X124412771Y-133497050D02*
X124414031Y-133499393D01*
X124426209Y-133511397D02*
X124427373Y-133512015D01*
X126040331Y-134827053D02*
X126041349Y-134826452D01*
X125316759Y-135035582D02*
X125318066Y-135035362D01*
X124870068Y-134588934D02*
X124869785Y-134591576D01*
D11*
X128134699Y-135027364D02*
X128546245Y-134615887D01*
D10*
X129007442Y-133503787D02*
X129008274Y-133502743D01*
X124870343Y-131799136D02*
X124870619Y-131800429D01*
X124872817Y-131806614D02*
X124873422Y-131807778D01*
X127585548Y-131698024D02*
X127582559Y-131698155D01*
X127385291Y-134827623D02*
X127386361Y-134828113D01*
D11*
X125817556Y-131691140D02*
X125328997Y-131355850D01*
D10*
X127620055Y-134716963D02*
X127622960Y-134716795D01*
X126396506Y-130904000D02*
X126395740Y-130905080D01*
X124433523Y-133514265D02*
X124434808Y-133514532D01*
X128104030Y-131351995D02*
X128102771Y-131352381D01*
D11*
X125328963Y-135030941D02*
X125777416Y-134723133D01*
D10*
X128095660Y-135030975D02*
X128096761Y-135031686D01*
X125192342Y-134078731D02*
X125193231Y-134081322D01*
X127021666Y-130897386D02*
X127020592Y-130896596D01*
X125316794Y-131351165D02*
X125314152Y-131350880D01*
X128129557Y-135031382D02*
X128130661Y-135030676D01*
X128126100Y-131353586D02*
X128124879Y-131353077D01*
X124872551Y-131779612D02*
X124872042Y-131780834D01*
X127030956Y-130908491D02*
X127030338Y-130907328D01*
X127606529Y-134720456D02*
X127609027Y-134719401D01*
X124869911Y-131789869D02*
X124869770Y-131792531D01*
X128552390Y-134581369D02*
X128551840Y-134580177D01*
X124870262Y-131787227D02*
X124869911Y-131789869D01*
X128554758Y-134596939D02*
X128554898Y-134594274D01*
X124434808Y-133514532D02*
X124434808Y-133514532D01*
X126413579Y-130891985D02*
X126412323Y-130892380D01*
X126260886Y-131530342D02*
X126258454Y-131531728D01*
X128554870Y-131792531D02*
X128554733Y-131789869D01*
X125323143Y-135033943D02*
X125324362Y-135033452D01*
X125195052Y-134092683D02*
X125195081Y-134095660D01*
X129004709Y-133506710D02*
X129005658Y-133505773D01*
X124409734Y-133484333D02*
X124409767Y-133485647D01*
X125290874Y-131358554D02*
X125289923Y-131359461D01*
X124877438Y-134614898D02*
X124878343Y-134615852D01*
X127628796Y-134716988D02*
X127631682Y-134717348D01*
X127030338Y-130907328D02*
X127029669Y-130906190D01*
X125327893Y-131355133D02*
X125326757Y-131354472D01*
X125301006Y-135034128D02*
X125303549Y-135034887D01*
X124996691Y-133620878D02*
X124999207Y-133622312D01*
X126406326Y-130895149D02*
X126404093Y-130896596D01*
X125194943Y-134098646D02*
X125194640Y-134101621D01*
X128427859Y-133620912D02*
X128430417Y-133619665D01*
X127142955Y-131503356D02*
X127142621Y-131502055D01*
X125319360Y-135035088D02*
X125320639Y-135034760D01*
X124874083Y-131808912D02*
X124874800Y-131810012D01*
X128546245Y-134615887D02*
X128546245Y-134615887D01*
X125842107Y-131698155D02*
X125839117Y-131698024D01*
X126049579Y-134817621D02*
X126050161Y-134816473D01*
X126041349Y-134826452D02*
X126042338Y-134825798D01*
X126263265Y-131528760D02*
X126260886Y-131530342D01*
X126047541Y-134820788D02*
X126048267Y-134819779D01*
X124413987Y-132887356D02*
X124413335Y-132888513D01*
X128406410Y-133643696D02*
X128407550Y-133641215D01*
X125293937Y-135030642D02*
X125295042Y-135031348D01*
X128553088Y-134604739D02*
X128553851Y-134602191D01*
X126050161Y-134816473D02*
X126050690Y-134815280D01*
X125193542Y-134107442D02*
X125192751Y-134110245D01*
X124873653Y-134609542D02*
X124874311Y-134610683D01*
X126271959Y-131520825D02*
X126269938Y-131523016D01*
X126393170Y-130909679D02*
X126392660Y-130910890D01*
X128133751Y-135028265D02*
X128134699Y-135027364D01*
X128435609Y-133617796D02*
X128436910Y-133617469D01*
X126045960Y-134822659D02*
X126046771Y-134821748D01*
X124431003Y-133513541D02*
X124432254Y-133513933D01*
X128554387Y-131787227D02*
X128553834Y-131784623D01*
X124875776Y-134612866D02*
X124876583Y-134613902D01*
X128997168Y-133512049D02*
X128998331Y-133511431D01*
X127008538Y-130891364D02*
X127007244Y-130891143D01*
X125018666Y-133644912D02*
X125019090Y-133646165D01*
X124434774Y-132872190D02*
X124434774Y-132872190D01*
X127387454Y-134828547D02*
X127388568Y-134828925D01*
X125807416Y-134717279D02*
X125810224Y-134717798D01*
X128115855Y-131350948D02*
X128113196Y-131350808D01*
X128407550Y-133641215D02*
X128408902Y-133638770D01*
X129013288Y-133493409D02*
X129013685Y-133492150D01*
X124410527Y-133490842D02*
X124410866Y-133492116D01*
X125289889Y-135027330D02*
X125289889Y-135027330D01*
X125006317Y-133627591D02*
X125008484Y-133629626D01*
X126018186Y-134827249D02*
X126019366Y-134827815D01*
X128554042Y-134586367D02*
X128553711Y-134585088D01*
X125015692Y-133638736D02*
X125017044Y-133641181D01*
X128551234Y-134579013D02*
X128550573Y-134577879D01*
X124412176Y-132890896D02*
X124411673Y-132892118D01*
X127171238Y-131533848D02*
X127169991Y-131533405D01*
X128552885Y-134582587D02*
X128552390Y-134581369D01*
X126030192Y-134829920D02*
X126031380Y-134829836D01*
X128422897Y-133623954D02*
X128425346Y-133622346D01*
X128121095Y-131351855D02*
X128118494Y-131351298D01*
X124411712Y-133494618D02*
X124412771Y-133497050D01*
X124870821Y-131784623D02*
X124870262Y-131787227D01*
X124429771Y-133513089D02*
X124431003Y-133513541D01*
X127149126Y-131516129D02*
X127147524Y-131513659D01*
X127637281Y-134718592D02*
X127639951Y-134719476D01*
X124417099Y-133503753D02*
X124418882Y-133505739D01*
X128123637Y-131352619D02*
X128121095Y-131351855D01*
X126046771Y-134821748D02*
X126047541Y-134820788D01*
X124432254Y-133513933D02*
X124433523Y-133514265D01*
X124873359Y-134578979D02*
X124872756Y-134580143D01*
X127003317Y-130890853D02*
X127003317Y-130890853D01*
X124870761Y-134602157D02*
X124871522Y-134604705D01*
X126416130Y-130891364D02*
X126414849Y-130891645D01*
X124876651Y-131772889D02*
X124875844Y-131773924D01*
X125856450Y-131696272D02*
X125853738Y-131696993D01*
X124411262Y-133493375D02*
X124411712Y-133494618D01*
X126028995Y-134829942D02*
X126030192Y-134829920D01*
X127604178Y-134721688D02*
X127604178Y-134721688D01*
X125861479Y-131694305D02*
X125859038Y-131695377D01*
X124411673Y-132892118D02*
X124411223Y-132893359D01*
X128412174Y-133634051D02*
X128414060Y-133631807D01*
X125012415Y-133634017D02*
X125014143Y-133636343D01*
X128118454Y-135035476D02*
X128121056Y-135034921D01*
X127401620Y-134829128D02*
X127402826Y-134828767D01*
X128233312Y-134076319D02*
X128233312Y-134076319D01*
X124873110Y-131778415D02*
X124872551Y-131779612D01*
X126026585Y-134829798D02*
X126027792Y-134829902D01*
X125787311Y-134718573D02*
X125790077Y-134717864D01*
X126045109Y-134823520D02*
X126045960Y-134822659D01*
X127154803Y-131523016D02*
X127152780Y-131520825D01*
X126032558Y-134829693D02*
X126033723Y-134829489D01*
X127012352Y-130892380D02*
X127011094Y-130891985D01*
X128110539Y-131350880D02*
X128107902Y-131351164D01*
X124871716Y-134582553D02*
X124871278Y-134583793D01*
X126459725Y-133826211D02*
X126460014Y-133824936D01*
X127607136Y-131691140D02*
X127607136Y-131691140D01*
X125804548Y-134716937D02*
X125807416Y-134717279D01*
X124869856Y-134596905D02*
X124870205Y-134599550D01*
X124412730Y-132889693D02*
X124412176Y-132890896D01*
X129012837Y-133494653D02*
X129013288Y-133493409D01*
X125191801Y-134112945D02*
X125190692Y-134115521D01*
X127642503Y-134720533D02*
X127644918Y-134721764D01*
X126414849Y-130891645D02*
X126413579Y-130891985D01*
X125289923Y-131359461D02*
X125289923Y-131359461D01*
X125314117Y-135035863D02*
X125316759Y-135035582D01*
X128549580Y-134611826D02*
X128550290Y-134610718D01*
X128229740Y-134089772D02*
X128230107Y-134086882D01*
X129000577Y-133510043D02*
X129001658Y-133509276D01*
X128433006Y-133618621D02*
X128434307Y-133618180D01*
X125830313Y-131696642D02*
X125827509Y-131695857D01*
X127647172Y-134723167D02*
X127647172Y-134723167D01*
X124874731Y-134576744D02*
X124874731Y-134576744D01*
X125850925Y-131697540D02*
X125848034Y-131697915D01*
X128100250Y-135033487D02*
X128101468Y-135033977D01*
X128118494Y-131351298D02*
X128115855Y-131350948D01*
X126039285Y-134827600D02*
X126040331Y-134827053D01*
X128553325Y-134583827D02*
X128552885Y-134582587D01*
X128095729Y-131355850D02*
X128095729Y-131355850D01*
X128549857Y-131810012D02*
X128550568Y-131808912D01*
X128546246Y-131770939D02*
X128546246Y-131770939D01*
D11*
X125876190Y-148252380D02*
X126209523Y-149252380D01*
X126542857Y-148252380D01*
X127400000Y-149252380D02*
X126828571Y-149252380D01*
X127114285Y-149252380D02*
X127114285Y-148252380D01*
X127019047Y-148395238D01*
X126923809Y-148490476D01*
X126828571Y-148538095D01*
X127828571Y-149157142D02*
X127876190Y-149204761D01*
X127828571Y-149252380D01*
X127780952Y-149204761D01*
X127828571Y-149157142D01*
X127828571Y-149252380D01*
X128495238Y-148252380D02*
X128590476Y-148252380D01*
X128685714Y-148300000D01*
X128733333Y-148347619D01*
X128780952Y-148442857D01*
X128828571Y-148633333D01*
X128828571Y-148871428D01*
X128780952Y-149061904D01*
X128733333Y-149157142D01*
X128685714Y-149204761D01*
X128590476Y-149252380D01*
X128495238Y-149252380D01*
X128400000Y-149204761D01*
X128352380Y-149157142D01*
X128304761Y-149061904D01*
X128257142Y-148871428D01*
X128257142Y-148633333D01*
X128304761Y-148442857D01*
X128352380Y-148347619D01*
X128400000Y-148300000D01*
X128495238Y-148252380D01*
D10*
X128105247Y-135035122D02*
X128107847Y-135035616D01*
X125194640Y-134101621D02*
X125194172Y-134104560D01*
X128105307Y-131351664D02*
X128104030Y-131351995D01*
X124878343Y-134615852D02*
X124878343Y-134615852D01*
X127031521Y-130909679D02*
X127030956Y-130908491D01*
X124417923Y-132881999D02*
X124417052Y-132883007D01*
X127597163Y-131695857D02*
X127594356Y-131696642D01*
X124869785Y-134591576D02*
X124869715Y-134594240D01*
X128229956Y-134101655D02*
X128229653Y-134098681D01*
X124415432Y-132885123D02*
X124414687Y-132886226D01*
X129013685Y-133492150D02*
X129014025Y-133490876D01*
X128101468Y-135033977D02*
X128102708Y-135034413D01*
X125297348Y-135032610D02*
X125298543Y-135033166D01*
X124429727Y-132873663D02*
X124428515Y-132874177D01*
X124999207Y-133622312D02*
X125001661Y-133623919D01*
X126024165Y-134829400D02*
X126025375Y-134829632D01*
X127376320Y-134819812D02*
X127377045Y-134820820D01*
X124418882Y-133505739D02*
X124420813Y-133507574D01*
X127007244Y-130891143D02*
X127005941Y-130890983D01*
X127639951Y-134719476D02*
X127642503Y-134720533D01*
X125321936Y-131352381D02*
X125319395Y-131351664D01*
D11*
X129014889Y-132902424D02*
X128424450Y-132767042D01*
D10*
X125289889Y-135027330D02*
X125290840Y-135028231D01*
D11*
X125033640Y-132738253D02*
X124434774Y-132872190D01*
D10*
X128438208Y-133617203D02*
X128438208Y-133617203D01*
X127397989Y-134829819D02*
X127399200Y-134829653D01*
X126421340Y-130890853D02*
X126420029Y-130890885D01*
X125326722Y-135032307D02*
X125327859Y-135031652D01*
X127381285Y-134825118D02*
X127382242Y-134825824D01*
X127028950Y-130905080D02*
X127028185Y-130904000D01*
X128229515Y-134095694D02*
X128229543Y-134092717D01*
X124419781Y-132880090D02*
X124418833Y-132881026D01*
X125328997Y-131355850D02*
X125328997Y-131355850D01*
X127634518Y-134717883D02*
X127637281Y-134718592D01*
X128100317Y-131353316D02*
X128099126Y-131353866D01*
X127380362Y-134824359D02*
X127381285Y-134825118D01*
X124873422Y-131807778D02*
X124874083Y-131808912D01*
X129011169Y-133498267D02*
X129011775Y-133497084D01*
X125853738Y-131696993D02*
X125850925Y-131697540D01*
X125325556Y-135032907D02*
X125326722Y-135032307D01*
X128549857Y-131810012D02*
X128549857Y-131810012D01*
X127377814Y-134821779D02*
X127378624Y-134822689D01*
D11*
X126960741Y-133816805D02*
G75*
G03X126460014Y-133824936I-260741J634987D01*
G01*
D10*
X126395740Y-130905080D02*
X126395022Y-130906190D01*
X125323178Y-131352821D02*
X125321936Y-131352381D01*
X128231837Y-134110279D02*
X128231050Y-134107477D01*
X128999468Y-133510762D02*
X129000577Y-133510043D01*
X128110488Y-135035897D02*
X128113149Y-135035966D01*
X124428560Y-133512580D02*
X124429771Y-133513089D01*
D12*
X125600000Y-143100000D02*
X127600000Y-142100000D01*
D10*
X127377045Y-134820820D02*
X127377814Y-134821779D01*
X125795803Y-134716969D02*
X125798719Y-134716783D01*
X124871584Y-131782078D02*
X124870821Y-131784623D01*
X127383230Y-134826477D02*
X127384247Y-134827077D01*
X124427373Y-133512015D02*
X124428560Y-133512580D01*
D11*
X127563213Y-131694305D02*
X127171238Y-131533848D01*
D10*
X129008274Y-133502743D02*
X129009065Y-133501667D01*
X128552120Y-134607207D02*
X128552629Y-134605984D01*
X125328997Y-131355850D02*
X125327893Y-131355133D01*
X128416093Y-133629660D02*
X128418254Y-133627626D01*
X128554542Y-134588968D02*
X128554319Y-134587661D01*
X128405497Y-133646199D02*
X128405924Y-133644946D01*
X129009065Y-133501667D02*
X129009812Y-133500561D01*
X127161475Y-131528760D02*
X127159165Y-131527001D01*
X127375641Y-134818757D02*
X127376320Y-134819812D01*
D12*
X127600000Y-142100000D02*
X127600000Y-144100000D01*
D10*
X128107847Y-135035616D02*
X128110488Y-135035897D01*
X129014820Y-133484367D02*
X129014820Y-133484367D01*
X125327859Y-135031652D02*
X125328963Y-135030941D01*
X128232247Y-134078765D02*
X128233312Y-134076319D01*
X126042338Y-134825798D02*
X126043296Y-134825090D01*
X127024689Y-130900000D02*
X127023716Y-130899090D01*
X126043296Y-134825090D02*
X126044220Y-134824331D01*
X125848034Y-131697915D02*
X125845087Y-131698119D01*
X125296180Y-135032004D02*
X125297348Y-135032610D01*
D11*
X124434808Y-133514532D02*
X124986346Y-133617169D01*
X127406402Y-134827283D02*
X127604178Y-134721688D01*
D10*
X127009822Y-130891645D02*
X127008538Y-130891364D01*
X125193945Y-134084036D02*
X125194485Y-134086848D01*
X126282381Y-131500759D02*
X126282381Y-131500759D01*
X125784640Y-134719455D02*
X125787311Y-134718573D01*
D11*
X124878343Y-134615852D02*
X125289889Y-135027330D01*
D10*
X124875086Y-131774998D02*
X124874378Y-131776105D01*
X127579580Y-131698119D02*
X127576635Y-131697915D01*
X124872268Y-131805423D02*
X124872817Y-131806614D01*
X127167512Y-131532343D02*
X127166282Y-131531728D01*
X128552111Y-131779612D02*
X128550945Y-131777245D01*
X128099126Y-131353866D02*
X128097963Y-131354472D01*
X125790077Y-134717864D02*
X125792915Y-134717329D01*
X128549578Y-131774998D02*
X128548819Y-131773924D01*
X125311456Y-135035932D02*
X125314117Y-135035863D01*
X128551840Y-134580177D02*
X128551234Y-134579013D01*
X128995982Y-133512614D02*
X128997168Y-133512049D01*
X129009812Y-133500561D02*
X129010514Y-133499427D01*
X127022708Y-130898218D02*
X127021666Y-130897386D01*
X129003725Y-133507608D02*
X129004709Y-133506710D01*
X124411223Y-132893359D02*
X124410829Y-132894615D01*
X128115811Y-135035825D02*
X128118454Y-135035476D01*
X126404093Y-130896596D02*
X126401979Y-130898218D01*
X127146091Y-131511129D02*
X127144842Y-131508557D01*
X127611651Y-134718526D02*
X127614378Y-134717827D01*
X127028185Y-130904000D02*
X127027374Y-130902950D01*
X126394353Y-130907328D02*
X126393735Y-130908491D01*
X125290840Y-135028231D02*
X125291833Y-135029084D01*
X126458487Y-133829942D02*
X126458487Y-133829942D01*
X126036007Y-134828905D02*
X126037121Y-134828526D01*
X124421781Y-132878338D02*
X124420764Y-132879194D01*
X124418833Y-132881026D02*
X124417923Y-132881999D01*
X125303584Y-131351855D02*
X125301041Y-131352619D01*
X127375009Y-134817655D02*
X127375641Y-134818757D01*
X125326757Y-131354472D02*
X125325591Y-131353866D01*
D11*
X129014820Y-133484367D02*
X129014889Y-132902424D01*
D10*
X126021753Y-134828741D02*
X126022957Y-134829104D01*
X128992294Y-133513967D02*
X128993543Y-133513575D01*
X127602446Y-131693811D02*
X127599867Y-131694913D01*
X128549856Y-134576779D02*
X128549856Y-134576779D01*
X125189428Y-134117949D02*
X125188008Y-134120208D01*
X129006569Y-133504798D02*
X129007442Y-133503787D01*
X124871278Y-134583793D02*
X124870565Y-134586333D01*
X128993543Y-133513575D02*
X128994773Y-133513123D01*
X129011775Y-133497084D02*
X129012332Y-133495878D01*
X128554826Y-134591610D02*
X128554542Y-134588968D01*
X128124879Y-131353077D02*
X128123637Y-131352619D01*
X124991541Y-133618587D02*
X124994130Y-133619631D01*
X125798719Y-134716783D02*
X125801642Y-134716772D01*
X128128465Y-131354756D02*
X128127296Y-131354146D01*
X128102708Y-135034413D02*
X128105247Y-135035122D01*
X124425072Y-133510728D02*
X124426209Y-133511397D01*
X128547153Y-134614933D02*
X128548011Y-134613936D01*
X126420029Y-130890885D02*
X126418722Y-130890983D01*
X127402826Y-134828767D02*
X127404027Y-134828340D01*
X128134768Y-131359461D02*
X128133815Y-131358554D01*
X124410024Y-133488261D02*
X124410246Y-133489556D01*
X125792915Y-134717329D02*
X125795803Y-134716969D01*
X128130711Y-131356126D02*
X128129604Y-131355416D01*
X127614378Y-134717827D02*
X127617187Y-134717306D01*
X124878412Y-131770939D02*
X124877507Y-131771892D01*
X124869770Y-131792531D02*
X124869839Y-131795191D01*
X124874800Y-131810012D02*
X124874800Y-131810012D01*
X129014689Y-133486991D02*
X129014787Y-133485681D01*
X128553711Y-134585088D02*
X128553325Y-134583827D01*
X128096829Y-131355133D02*
X128095729Y-131355850D01*
X124873719Y-131777245D02*
X124873110Y-131778415D01*
X126031380Y-134829836D02*
X126032558Y-134829693D01*
X126048947Y-134818724D02*
X126049579Y-134817621D01*
D11*
X125206995Y-132333895D02*
X125033640Y-132738253D01*
D10*
X128550287Y-131776105D02*
X128549578Y-131774998D01*
X124875844Y-131773924D02*
X124875086Y-131774998D01*
X125008484Y-133629626D02*
X125010523Y-133631773D01*
X124874311Y-134610683D02*
X124875019Y-134611792D01*
X126282381Y-131500759D02*
X126281772Y-131503356D01*
X126418722Y-130890983D02*
X126417422Y-130891143D01*
X126267805Y-131525081D02*
X126265576Y-131527001D01*
X128126060Y-135033200D02*
X128128421Y-135032038D01*
X127588526Y-131697727D02*
X127585548Y-131698024D01*
X128994773Y-133513123D02*
X128995982Y-133512614D01*
X126392660Y-130910890D02*
X126392207Y-130912121D01*
X128107902Y-131351164D02*
X128106598Y-131351387D01*
X127150883Y-131518524D02*
X127149126Y-131516129D01*
D11*
X125289923Y-131359461D02*
X124878412Y-131770939D01*
D10*
X128554408Y-134599585D02*
X128554758Y-134596939D01*
X125328963Y-135030941D02*
X125328963Y-135030941D01*
X124422881Y-133509242D02*
X124423962Y-133510009D01*
X124872756Y-134580143D02*
X124872209Y-134581335D01*
X127016019Y-130893890D02*
X127014816Y-130893335D01*
X125194485Y-134086848D02*
X125194854Y-134089738D01*
X124413335Y-132888513D02*
X124412730Y-132889693D01*
X128132819Y-131357695D02*
X128131783Y-131356886D01*
D11*
X125188008Y-134120208D02*
X124874731Y-134576744D01*
D12*
X125600000Y-142100000D02*
X125600000Y-144100000D01*
D10*
X124434774Y-132872190D02*
X124433486Y-132872467D01*
X125193231Y-134081322D02*
X125193945Y-134084036D01*
X128418254Y-133627626D02*
X128420528Y-133625718D01*
X126393735Y-130908491D02*
X126393170Y-130909679D01*
X126417422Y-130891143D02*
X126416130Y-130891364D01*
X124425023Y-132876038D02*
X124423912Y-132876759D01*
X125292866Y-135029887D02*
X125293937Y-135030642D01*
X127390850Y-134829508D02*
X127392015Y-134829712D01*
X125782086Y-134720509D02*
X125784640Y-134719455D01*
X127143792Y-131505961D02*
X127142955Y-131503356D01*
X125779670Y-134721735D02*
X125782086Y-134720509D01*
X125324397Y-131353316D02*
X125323178Y-131352821D01*
X128550573Y-134577879D02*
X128549856Y-134576779D01*
X127026520Y-130901932D02*
X127025624Y-130900948D01*
D11*
X124409700Y-132902389D02*
X124409734Y-133484333D01*
D10*
X124410866Y-133492116D02*
X124411262Y-133493375D01*
X125314152Y-131350880D02*
X125311490Y-131350808D01*
X125191276Y-134076285D02*
X125191276Y-134076285D01*
X127406402Y-134827283D02*
X127406402Y-134827283D01*
X124870205Y-134599550D02*
X124870761Y-134602157D01*
D11*
X127647172Y-134723167D02*
X128095660Y-135030975D01*
D10*
X127576635Y-131697915D02*
X127573747Y-131697540D01*
X126253488Y-131533848D02*
X126253488Y-131533848D01*
X127644918Y-134721764D02*
X127647172Y-134723167D01*
X125194172Y-134104560D02*
X125193542Y-134107442D01*
X127378624Y-134822689D02*
X127379475Y-134823549D01*
X124415478Y-133501633D02*
X124417099Y-133503753D01*
X125839117Y-131698024D02*
X125836140Y-131697727D01*
X127027374Y-130902950D02*
X127026520Y-130901932D01*
X125292901Y-131356886D02*
X125291867Y-131357695D01*
X126034873Y-134829226D02*
X126036007Y-134828905D01*
X128550568Y-131808912D02*
X128551224Y-131807778D01*
X128553834Y-131784623D02*
X128553075Y-131782078D01*
X126458962Y-133828716D02*
X126459374Y-133827472D01*
X128106598Y-131351387D02*
X128105307Y-131351664D01*
X124870949Y-131801707D02*
X124871334Y-131802967D01*
X125308828Y-131350948D02*
X125306186Y-131351298D01*
X124876583Y-134613902D02*
X124877438Y-134614898D01*
X128548011Y-131772889D02*
X128547153Y-131771892D01*
X126401979Y-130898218D02*
X126400000Y-130900000D01*
X128554797Y-131795191D02*
X128554870Y-131792531D01*
X125291833Y-135029084D02*
X125292866Y-135029887D01*
X125777416Y-134723133D02*
X125779670Y-134721735D01*
X126409863Y-130893335D02*
X126408661Y-130893890D01*
X125827509Y-131695857D02*
X125824809Y-131694913D01*
X125017044Y-133641181D02*
X125018183Y-133643662D01*
X126280936Y-131505961D02*
X126279887Y-131508557D01*
X126038215Y-134828091D02*
X126039285Y-134827600D01*
X125319395Y-131351664D02*
X125316794Y-131351165D01*
X124870565Y-134586333D02*
X124870068Y-134588934D01*
X125308794Y-135035791D02*
X125311456Y-135035932D01*
X126408661Y-130893890D02*
X126406326Y-130895149D01*
X126412323Y-130892380D02*
X126411084Y-130892831D01*
X128231050Y-134107477D02*
X128230422Y-134104594D01*
X127142346Y-131500759D02*
X127142346Y-131500759D01*
X127594356Y-131696642D02*
X127591470Y-131697266D01*
X129010514Y-133499427D02*
X129011169Y-133498267D01*
X127168749Y-131532903D02*
X127167512Y-131532343D01*
X127568230Y-131696272D02*
X127565648Y-131695377D01*
X126391480Y-130914642D02*
X126391209Y-130915927D01*
X127166282Y-131531728D02*
X127163853Y-131530342D01*
X128123598Y-135034162D02*
X128126060Y-135033200D01*
X128230646Y-134084069D02*
X128231359Y-134081356D01*
X124994130Y-133619631D02*
X124996691Y-133620878D01*
X126391209Y-130915927D02*
X126391209Y-130915927D01*
X128554319Y-134587661D02*
X128554042Y-134586367D01*
X128548820Y-134612900D02*
X128549580Y-134611826D01*
X129012332Y-133495878D02*
X129012837Y-133494653D01*
X127565648Y-131695377D02*
X127563213Y-131694305D01*
X128113149Y-135035966D02*
X128115811Y-135035825D01*
X125861479Y-131694305D02*
X125861479Y-131694305D01*
X126398170Y-130901932D02*
X126396506Y-130904000D01*
X128102771Y-131352381D02*
X128101533Y-131352821D01*
X127025624Y-130900948D02*
X127024689Y-130900000D01*
X127563213Y-131694305D02*
X127563213Y-131694305D01*
D11*
X128390983Y-132738253D02*
X128217662Y-132300000D01*
D10*
X128425346Y-133622346D02*
X128427859Y-133620912D01*
X127396781Y-134829921D02*
X127397989Y-134829819D01*
X127599867Y-131694913D02*
X127597163Y-131695857D01*
X127382242Y-134825824D02*
X127383230Y-134826477D01*
D11*
X125820410Y-134721654D02*
X126018186Y-134827249D01*
D10*
X125296215Y-131354756D02*
X125295077Y-131355416D01*
X128553851Y-134602191D02*
X128554408Y-134599585D01*
X124423962Y-133510009D02*
X124425072Y-133510728D01*
X124987641Y-133617435D02*
X124988940Y-133617762D01*
X126033723Y-134829489D02*
X126034873Y-134829226D01*
X125298543Y-135033166D02*
X125299763Y-135033672D01*
X126275609Y-131516129D02*
X126273854Y-131518524D01*
X128131783Y-131356886D02*
X128130711Y-131356126D01*
X128232782Y-134112979D02*
X128231837Y-134110279D01*
X127142621Y-131502055D02*
X127142346Y-131500759D01*
D11*
X126253488Y-131533848D02*
X125861479Y-131694305D01*
D10*
X125192751Y-134110245D02*
X125191801Y-134112945D01*
X124414031Y-133499393D02*
X124415478Y-133501633D01*
X125306151Y-135035442D02*
X125308794Y-135035791D01*
X128989746Y-133514566D02*
X128991028Y-133514298D01*
X127147524Y-131513659D02*
X127146091Y-131511129D01*
X128553075Y-131782078D02*
X128552111Y-131779612D01*
X127020592Y-130896596D02*
X127019489Y-130895850D01*
X128233882Y-134115555D02*
X128232782Y-134112979D01*
X127386361Y-134828113D02*
X127387454Y-134828547D01*
X124427326Y-132874745D02*
X124426161Y-132875366D01*
X125014143Y-133636343D02*
X125015692Y-133638736D01*
D11*
X128095729Y-131355850D02*
X127607136Y-131691140D01*
D10*
X125303549Y-135034887D02*
X125306151Y-135035442D01*
X126020556Y-134828312D02*
X126021753Y-134828741D01*
X128554733Y-131789869D02*
X128554387Y-131787227D01*
X125321901Y-135034379D02*
X125323143Y-135033943D01*
X125188008Y-134120208D02*
X125188008Y-134120208D01*
X128548011Y-134613936D02*
X128548820Y-134612900D01*
X126421340Y-130890853D02*
X126421340Y-130890853D01*
X125191276Y-134076285D02*
X125192342Y-134078731D01*
X128408902Y-133638770D02*
X128410449Y-133636377D01*
X126269938Y-131523016D02*
X126267805Y-131525081D01*
X125004037Y-133625684D02*
X125006317Y-133627591D01*
X126022957Y-134829104D02*
X126024165Y-134829400D01*
X128235137Y-134117983D02*
X128233882Y-134115555D01*
X128550950Y-134609577D02*
X128551561Y-134608406D01*
X128414060Y-133631807D02*
X128416093Y-133629660D01*
X124871522Y-134604705D02*
X124872487Y-134607173D01*
X127156936Y-131525081D02*
X127154803Y-131523016D01*
X127373898Y-134815314D02*
X127374427Y-134816507D01*
X125819809Y-131692553D02*
X125817556Y-131691140D01*
X124870122Y-131797831D02*
X124870343Y-131799136D01*
X124878412Y-131770939D02*
X124878412Y-131770939D01*
X124433486Y-132872467D02*
X124432214Y-132872806D01*
X124432214Y-132872806D02*
X124430960Y-132873205D01*
X124409767Y-133485647D02*
X124409864Y-133486957D01*
X128551224Y-131807778D02*
X128551825Y-131806614D01*
X125295077Y-131355416D02*
X125293971Y-131356126D01*
X126019366Y-134827815D02*
X126020556Y-134828312D01*
X126277209Y-131513659D02*
X126275609Y-131516129D01*
X127018358Y-130895149D02*
X127017200Y-130894496D01*
X124410210Y-132897170D02*
X124409989Y-132898464D01*
X126278640Y-131511129D02*
X126277209Y-131513659D01*
X126025375Y-134829632D02*
X126026585Y-134829798D01*
X128236545Y-134120242D02*
X128236545Y-134120242D01*
X125833198Y-131697266D02*
X125830313Y-131696642D01*
X128554014Y-131800429D02*
X128554512Y-131797831D01*
X128129604Y-131355416D02*
X128128465Y-131354756D01*
X129005658Y-133505773D02*
X129006569Y-133504798D01*
X125001661Y-133623919D02*
X125004037Y-133625684D01*
X127625881Y-134716804D02*
X127628796Y-134716988D01*
X127019489Y-130895850D02*
X127018358Y-130895149D01*
D11*
X124874800Y-131810012D02*
X125206995Y-132333895D01*
D12*
X84330000Y-133510000D02*
X81670000Y-133510000D01*
X84330000Y-143730000D02*
X84330000Y-133510000D01*
X81670000Y-143730000D02*
X81670000Y-133510000D01*
X84330000Y-143730000D02*
X81670000Y-143730000D01*
X84330000Y-145000000D02*
X84330000Y-146330000D01*
X84330000Y-146330000D02*
X83000000Y-146330000D01*
X95347000Y-137767000D02*
X93887000Y-137767000D01*
X95347000Y-134607000D02*
X93187000Y-134607000D01*
X95347000Y-134607000D02*
X95347000Y-135537000D01*
X95347000Y-137767000D02*
X95347000Y-136837000D01*
X95347000Y-144498000D02*
X93887000Y-144498000D01*
X95347000Y-141338000D02*
X93187000Y-141338000D01*
X95347000Y-141338000D02*
X95347000Y-142268000D01*
X95347000Y-144498000D02*
X95347000Y-143568000D01*
X90911252Y-134334000D02*
X90388748Y-134334000D01*
X90911252Y-135754000D02*
X90388748Y-135754000D01*
X90911252Y-136620000D02*
X90388748Y-136620000D01*
X90911252Y-138040000D02*
X90388748Y-138040000D01*
X90911252Y-141192000D02*
X90388748Y-141192000D01*
X90911252Y-142612000D02*
X90388748Y-142612000D01*
X90911252Y-143478000D02*
X90388748Y-143478000D01*
X90911252Y-144898000D02*
X90388748Y-144898000D01*
X97407000Y-134642000D02*
X97407000Y-137732000D01*
X102467000Y-136187000D02*
G75*
G03X102467000Y-136187000I-2500000J0D01*
G01*
X102957000Y-136186538D02*
G75*
G02X97407000Y-137731830I-2990000J-462D01*
G01*
X102957000Y-136187462D02*
G75*
G03X97407000Y-134642170I-2990000J462D01*
G01*
X104011000Y-134642000D02*
X104011000Y-137732000D01*
X109071000Y-136187000D02*
G75*
G03X109071000Y-136187000I-2500000J0D01*
G01*
X109561000Y-136186538D02*
G75*
G02X104011000Y-137731830I-2990000J-462D01*
G01*
X109561000Y-136187462D02*
G75*
G03X104011000Y-134642170I-2990000J462D01*
G01*
X110615000Y-134642000D02*
X110615000Y-137732000D01*
X115675000Y-136187000D02*
G75*
G03X115675000Y-136187000I-2500000J0D01*
G01*
X116165000Y-136186538D02*
G75*
G02X110615000Y-137731830I-2990000J-462D01*
G01*
X116165000Y-136187462D02*
G75*
G03X110615000Y-134642170I-2990000J462D01*
G01*
X117219000Y-134642000D02*
X117219000Y-137732000D01*
X122279000Y-136187000D02*
G75*
G03X122279000Y-136187000I-2500000J0D01*
G01*
X122769000Y-136186538D02*
G75*
G02X117219000Y-137731830I-2990000J-462D01*
G01*
X122769000Y-136187462D02*
G75*
G03X117219000Y-134642170I-2990000J462D01*
G01*
X97407000Y-141373000D02*
X97407000Y-144463000D01*
X102467000Y-142918000D02*
G75*
G03X102467000Y-142918000I-2500000J0D01*
G01*
X102957000Y-142917538D02*
G75*
G02X97407000Y-144462830I-2990000J-462D01*
G01*
X102957000Y-142918462D02*
G75*
G03X97407000Y-141373170I-2990000J462D01*
G01*
X104011000Y-141373000D02*
X104011000Y-144463000D01*
X109071000Y-142918000D02*
G75*
G03X109071000Y-142918000I-2500000J0D01*
G01*
X109561000Y-142917538D02*
G75*
G02X104011000Y-144462830I-2990000J-462D01*
G01*
X109561000Y-142918462D02*
G75*
G03X104011000Y-141373170I-2990000J462D01*
G01*
X110615000Y-141373000D02*
X110615000Y-144463000D01*
X115675000Y-142918000D02*
G75*
G03X115675000Y-142918000I-2500000J0D01*
G01*
X116165000Y-142917538D02*
G75*
G02X110615000Y-144462830I-2990000J-462D01*
G01*
X116165000Y-142918462D02*
G75*
G03X110615000Y-141373170I-2990000J462D01*
G01*
X117219000Y-141373000D02*
X117219000Y-144463000D01*
X122279000Y-142918000D02*
G75*
G03X122279000Y-142918000I-2500000J0D01*
G01*
X122769000Y-142917538D02*
G75*
G02X117219000Y-144462830I-2990000J-462D01*
G01*
X122769000Y-142918462D02*
G75*
G03X117219000Y-141373170I-2990000J462D01*
G01*
X124997936Y-140310000D02*
X126202064Y-140310000D01*
X124997936Y-138490000D02*
X126202064Y-138490000D01*
D11*
X82190476Y-147452380D02*
X82857142Y-148452380D01*
X82857142Y-147452380D02*
X82190476Y-148452380D01*
X83761904Y-148452380D02*
X83190476Y-148452380D01*
X83476190Y-148452380D02*
X83476190Y-147452380D01*
X83380952Y-147595238D01*
X83285714Y-147690476D01*
X83190476Y-147738095D01*
X93825095Y-133099380D02*
X94396523Y-133099380D01*
X94110809Y-134099380D02*
X94110809Y-133099380D01*
X94682238Y-133194619D02*
X94729857Y-133147000D01*
X94825095Y-133099380D01*
X95063190Y-133099380D01*
X95158428Y-133147000D01*
X95206047Y-133194619D01*
X95253666Y-133289857D01*
X95253666Y-133385095D01*
X95206047Y-133527952D01*
X94634619Y-134099380D01*
X95253666Y-134099380D01*
X93825095Y-139703380D02*
X94396523Y-139703380D01*
X94110809Y-140703380D02*
X94110809Y-139703380D01*
X95253666Y-140703380D02*
X94682238Y-140703380D01*
X94967952Y-140703380D02*
X94967952Y-139703380D01*
X94872714Y-139846238D01*
X94777476Y-139941476D01*
X94682238Y-139989095D01*
X87562333Y-135496380D02*
X87229000Y-135020190D01*
X86990904Y-135496380D02*
X86990904Y-134496380D01*
X87371857Y-134496380D01*
X87467095Y-134544000D01*
X87514714Y-134591619D01*
X87562333Y-134686857D01*
X87562333Y-134829714D01*
X87514714Y-134924952D01*
X87467095Y-134972571D01*
X87371857Y-135020190D01*
X86990904Y-135020190D01*
X88419476Y-134829714D02*
X88419476Y-135496380D01*
X88181380Y-134448761D02*
X87943285Y-135163047D01*
X88562333Y-135163047D01*
X87562333Y-137909380D02*
X87229000Y-137433190D01*
X86990904Y-137909380D02*
X86990904Y-136909380D01*
X87371857Y-136909380D01*
X87467095Y-136957000D01*
X87514714Y-137004619D01*
X87562333Y-137099857D01*
X87562333Y-137242714D01*
X87514714Y-137337952D01*
X87467095Y-137385571D01*
X87371857Y-137433190D01*
X86990904Y-137433190D01*
X87895666Y-136909380D02*
X88514714Y-136909380D01*
X88181380Y-137290333D01*
X88324238Y-137290333D01*
X88419476Y-137337952D01*
X88467095Y-137385571D01*
X88514714Y-137480809D01*
X88514714Y-137718904D01*
X88467095Y-137814142D01*
X88419476Y-137861761D01*
X88324238Y-137909380D01*
X88038523Y-137909380D01*
X87943285Y-137861761D01*
X87895666Y-137814142D01*
X87562333Y-142354380D02*
X87229000Y-141878190D01*
X86990904Y-142354380D02*
X86990904Y-141354380D01*
X87371857Y-141354380D01*
X87467095Y-141402000D01*
X87514714Y-141449619D01*
X87562333Y-141544857D01*
X87562333Y-141687714D01*
X87514714Y-141782952D01*
X87467095Y-141830571D01*
X87371857Y-141878190D01*
X86990904Y-141878190D01*
X87943285Y-141449619D02*
X87990904Y-141402000D01*
X88086142Y-141354380D01*
X88324238Y-141354380D01*
X88419476Y-141402000D01*
X88467095Y-141449619D01*
X88514714Y-141544857D01*
X88514714Y-141640095D01*
X88467095Y-141782952D01*
X87895666Y-142354380D01*
X88514714Y-142354380D01*
X87562333Y-144640380D02*
X87229000Y-144164190D01*
X86990904Y-144640380D02*
X86990904Y-143640380D01*
X87371857Y-143640380D01*
X87467095Y-143688000D01*
X87514714Y-143735619D01*
X87562333Y-143830857D01*
X87562333Y-143973714D01*
X87514714Y-144068952D01*
X87467095Y-144116571D01*
X87371857Y-144164190D01*
X86990904Y-144164190D01*
X88514714Y-144640380D02*
X87943285Y-144640380D01*
X88229000Y-144640380D02*
X88229000Y-143640380D01*
X88133761Y-143783238D01*
X88038523Y-143878476D01*
X87943285Y-143926095D01*
X99228904Y-132575380D02*
X99228904Y-131575380D01*
X99467000Y-131575380D01*
X99609857Y-131623000D01*
X99705095Y-131718238D01*
X99752714Y-131813476D01*
X99800333Y-132003952D01*
X99800333Y-132146809D01*
X99752714Y-132337285D01*
X99705095Y-132432523D01*
X99609857Y-132527761D01*
X99467000Y-132575380D01*
X99228904Y-132575380D01*
X100371761Y-132003952D02*
X100276523Y-131956333D01*
X100228904Y-131908714D01*
X100181285Y-131813476D01*
X100181285Y-131765857D01*
X100228904Y-131670619D01*
X100276523Y-131623000D01*
X100371761Y-131575380D01*
X100562238Y-131575380D01*
X100657476Y-131623000D01*
X100705095Y-131670619D01*
X100752714Y-131765857D01*
X100752714Y-131813476D01*
X100705095Y-131908714D01*
X100657476Y-131956333D01*
X100562238Y-132003952D01*
X100371761Y-132003952D01*
X100276523Y-132051571D01*
X100228904Y-132099190D01*
X100181285Y-132194428D01*
X100181285Y-132384904D01*
X100228904Y-132480142D01*
X100276523Y-132527761D01*
X100371761Y-132575380D01*
X100562238Y-132575380D01*
X100657476Y-132527761D01*
X100705095Y-132480142D01*
X100752714Y-132384904D01*
X100752714Y-132194428D01*
X100705095Y-132099190D01*
X100657476Y-132051571D01*
X100562238Y-132003952D01*
X105832904Y-132575380D02*
X105832904Y-131575380D01*
X106071000Y-131575380D01*
X106213857Y-131623000D01*
X106309095Y-131718238D01*
X106356714Y-131813476D01*
X106404333Y-132003952D01*
X106404333Y-132146809D01*
X106356714Y-132337285D01*
X106309095Y-132432523D01*
X106213857Y-132527761D01*
X106071000Y-132575380D01*
X105832904Y-132575380D01*
X106737666Y-131575380D02*
X107404333Y-131575380D01*
X106975761Y-132575380D01*
X112690904Y-132575380D02*
X112690904Y-131575380D01*
X112929000Y-131575380D01*
X113071857Y-131623000D01*
X113167095Y-131718238D01*
X113214714Y-131813476D01*
X113262333Y-132003952D01*
X113262333Y-132146809D01*
X113214714Y-132337285D01*
X113167095Y-132432523D01*
X113071857Y-132527761D01*
X112929000Y-132575380D01*
X112690904Y-132575380D01*
X114119476Y-131575380D02*
X113929000Y-131575380D01*
X113833761Y-131623000D01*
X113786142Y-131670619D01*
X113690904Y-131813476D01*
X113643285Y-132003952D01*
X113643285Y-132384904D01*
X113690904Y-132480142D01*
X113738523Y-132527761D01*
X113833761Y-132575380D01*
X114024238Y-132575380D01*
X114119476Y-132527761D01*
X114167095Y-132480142D01*
X114214714Y-132384904D01*
X114214714Y-132146809D01*
X114167095Y-132051571D01*
X114119476Y-132003952D01*
X114024238Y-131956333D01*
X113833761Y-131956333D01*
X113738523Y-132003952D01*
X113690904Y-132051571D01*
X113643285Y-132146809D01*
X119167904Y-132575380D02*
X119167904Y-131575380D01*
X119406000Y-131575380D01*
X119548857Y-131623000D01*
X119644095Y-131718238D01*
X119691714Y-131813476D01*
X119739333Y-132003952D01*
X119739333Y-132146809D01*
X119691714Y-132337285D01*
X119644095Y-132432523D01*
X119548857Y-132527761D01*
X119406000Y-132575380D01*
X119167904Y-132575380D01*
X120644095Y-131575380D02*
X120167904Y-131575380D01*
X120120285Y-132051571D01*
X120167904Y-132003952D01*
X120263142Y-131956333D01*
X120501238Y-131956333D01*
X120596476Y-132003952D01*
X120644095Y-132051571D01*
X120691714Y-132146809D01*
X120691714Y-132384904D01*
X120644095Y-132480142D01*
X120596476Y-132527761D01*
X120501238Y-132575380D01*
X120263142Y-132575380D01*
X120167904Y-132527761D01*
X120120285Y-132480142D01*
X99228904Y-147352380D02*
X99228904Y-146352380D01*
X99467000Y-146352380D01*
X99609857Y-146400000D01*
X99705095Y-146495238D01*
X99752714Y-146590476D01*
X99800333Y-146780952D01*
X99800333Y-146923809D01*
X99752714Y-147114285D01*
X99705095Y-147209523D01*
X99609857Y-147304761D01*
X99467000Y-147352380D01*
X99228904Y-147352380D01*
X100657476Y-146685714D02*
X100657476Y-147352380D01*
X100419380Y-146304761D02*
X100181285Y-147019047D01*
X100800333Y-147019047D01*
X105832904Y-147352380D02*
X105832904Y-146352380D01*
X106071000Y-146352380D01*
X106213857Y-146400000D01*
X106309095Y-146495238D01*
X106356714Y-146590476D01*
X106404333Y-146780952D01*
X106404333Y-146923809D01*
X106356714Y-147114285D01*
X106309095Y-147209523D01*
X106213857Y-147304761D01*
X106071000Y-147352380D01*
X105832904Y-147352380D01*
X106737666Y-146352380D02*
X107356714Y-146352380D01*
X107023380Y-146733333D01*
X107166238Y-146733333D01*
X107261476Y-146780952D01*
X107309095Y-146828571D01*
X107356714Y-146923809D01*
X107356714Y-147161904D01*
X107309095Y-147257142D01*
X107261476Y-147304761D01*
X107166238Y-147352380D01*
X106880523Y-147352380D01*
X106785285Y-147304761D01*
X106737666Y-147257142D01*
X112436904Y-147352380D02*
X112436904Y-146352380D01*
X112675000Y-146352380D01*
X112817857Y-146400000D01*
X112913095Y-146495238D01*
X112960714Y-146590476D01*
X113008333Y-146780952D01*
X113008333Y-146923809D01*
X112960714Y-147114285D01*
X112913095Y-147209523D01*
X112817857Y-147304761D01*
X112675000Y-147352380D01*
X112436904Y-147352380D01*
X113389285Y-146447619D02*
X113436904Y-146400000D01*
X113532142Y-146352380D01*
X113770238Y-146352380D01*
X113865476Y-146400000D01*
X113913095Y-146447619D01*
X113960714Y-146542857D01*
X113960714Y-146638095D01*
X113913095Y-146780952D01*
X113341666Y-147352380D01*
X113960714Y-147352380D01*
X119040904Y-147352380D02*
X119040904Y-146352380D01*
X119279000Y-146352380D01*
X119421857Y-146400000D01*
X119517095Y-146495238D01*
X119564714Y-146590476D01*
X119612333Y-146780952D01*
X119612333Y-146923809D01*
X119564714Y-147114285D01*
X119517095Y-147209523D01*
X119421857Y-147304761D01*
X119279000Y-147352380D01*
X119040904Y-147352380D01*
X120564714Y-147352380D02*
X119993285Y-147352380D01*
X120279000Y-147352380D02*
X120279000Y-146352380D01*
X120183761Y-146495238D01*
X120088523Y-146590476D01*
X119993285Y-146638095D01*
X125233333Y-137557142D02*
X125185714Y-137604761D01*
X125042857Y-137652380D01*
X124947619Y-137652380D01*
X124804761Y-137604761D01*
X124709523Y-137509523D01*
X124661904Y-137414285D01*
X124614285Y-137223809D01*
X124614285Y-137080952D01*
X124661904Y-136890476D01*
X124709523Y-136795238D01*
X124804761Y-136700000D01*
X124947619Y-136652380D01*
X125042857Y-136652380D01*
X125185714Y-136700000D01*
X125233333Y-136747619D01*
X126185714Y-137652380D02*
X125614285Y-137652380D01*
X125900000Y-137652380D02*
X125900000Y-136652380D01*
X125804761Y-136795238D01*
X125709523Y-136890476D01*
X125614285Y-136938095D01*
M02*
