G04 #@! TF.GenerationSoftware,KiCad,Pcbnew,6.0.0-unknown-ea0edab~86~ubuntu18.04.1*
G04 #@! TF.CreationDate,2019-07-07T16:33:58+02:00*
G04 #@! TF.ProjectId,ir-transmitter,69722d74-7261-46e7-936d-69747465722e,rev?*
G04 #@! TF.SameCoordinates,Original*
G04 #@! TF.FileFunction,Soldermask,Top*
G04 #@! TF.FilePolarity,Negative*
%FSLAX46Y46*%
G04 Gerber Fmt 4.6, Leading zero omitted, Abs format (unit mm)*
G04 Created by KiCad (PCBNEW 6.0.0-unknown-ea0edab~86~ubuntu18.04.1) date 2019-07-07 16:33:58*
%MOMM*%
%LPD*%
G04 APERTURE LIST*
%ADD10C,0.100000*%
G04 APERTURE END LIST*
D10*
G36*
X83869899Y-144101959D02*
G01*
X83886769Y-144113231D01*
X83898041Y-144130101D01*
X83904448Y-144162312D01*
X83904448Y-145837688D01*
X83901999Y-145850000D01*
X83898041Y-145869899D01*
X83886769Y-145886769D01*
X83869899Y-145898041D01*
X83850000Y-145901999D01*
X83837688Y-145904448D01*
X82162312Y-145904448D01*
X82130101Y-145898041D01*
X82113231Y-145886769D01*
X82101959Y-145869899D01*
X82095552Y-145837688D01*
X82095552Y-144162312D01*
X82101959Y-144130101D01*
X82113231Y-144113231D01*
X82130101Y-144101959D01*
X82162312Y-144095552D01*
X83837688Y-144095552D01*
X83869899Y-144101959D01*
X83869899Y-144101959D01*
G37*
G36*
X92086756Y-143449764D02*
G01*
X92098227Y-143455288D01*
X92106287Y-143456795D01*
X92123547Y-143467482D01*
X92168638Y-143489197D01*
X92188738Y-143507847D01*
X92201964Y-143516036D01*
X92212265Y-143529676D01*
X92235264Y-143551016D01*
X92257614Y-143589727D01*
X92269781Y-143605839D01*
X92271751Y-143614213D01*
X92279506Y-143627646D01*
X92298419Y-143727601D01*
X92301883Y-143742330D01*
X92301883Y-143745909D01*
X92303194Y-143752838D01*
X92303194Y-144625517D01*
X92288236Y-144724756D01*
X92282712Y-144736227D01*
X92281205Y-144744287D01*
X92270518Y-144761547D01*
X92248803Y-144806638D01*
X92230153Y-144826738D01*
X92221964Y-144839964D01*
X92208324Y-144850265D01*
X92186984Y-144873264D01*
X92148273Y-144895614D01*
X92132161Y-144907781D01*
X92123787Y-144909751D01*
X92110354Y-144917506D01*
X92010399Y-144936419D01*
X91995670Y-144939883D01*
X91992091Y-144939883D01*
X91985162Y-144941194D01*
X91362483Y-144941194D01*
X91263244Y-144926236D01*
X91251773Y-144920712D01*
X91243713Y-144919205D01*
X91226453Y-144908518D01*
X91181362Y-144886803D01*
X91161262Y-144868153D01*
X91148036Y-144859964D01*
X91137735Y-144846324D01*
X91114736Y-144824984D01*
X91092386Y-144786273D01*
X91080219Y-144770161D01*
X91078249Y-144761787D01*
X91070494Y-144748354D01*
X91051581Y-144648399D01*
X91048117Y-144633670D01*
X91048117Y-144630091D01*
X91046806Y-144623162D01*
X91046806Y-143750483D01*
X91061764Y-143651244D01*
X91067288Y-143639773D01*
X91068795Y-143631713D01*
X91079482Y-143614453D01*
X91101197Y-143569362D01*
X91119847Y-143549262D01*
X91128036Y-143536036D01*
X91141676Y-143525735D01*
X91163016Y-143502736D01*
X91201727Y-143480386D01*
X91217839Y-143468219D01*
X91226213Y-143466249D01*
X91239646Y-143458494D01*
X91339601Y-143439581D01*
X91354330Y-143436117D01*
X91357909Y-143436117D01*
X91364838Y-143434806D01*
X91987517Y-143434806D01*
X92086756Y-143449764D01*
X92086756Y-143449764D01*
G37*
G36*
X90036756Y-143449764D02*
G01*
X90048227Y-143455288D01*
X90056287Y-143456795D01*
X90073547Y-143467482D01*
X90118638Y-143489197D01*
X90138738Y-143507847D01*
X90151964Y-143516036D01*
X90162265Y-143529676D01*
X90185264Y-143551016D01*
X90207614Y-143589727D01*
X90219781Y-143605839D01*
X90221751Y-143614213D01*
X90229506Y-143627646D01*
X90248419Y-143727601D01*
X90251883Y-143742330D01*
X90251883Y-143745909D01*
X90253194Y-143752838D01*
X90253194Y-144625517D01*
X90238236Y-144724756D01*
X90232712Y-144736227D01*
X90231205Y-144744287D01*
X90220518Y-144761547D01*
X90198803Y-144806638D01*
X90180153Y-144826738D01*
X90171964Y-144839964D01*
X90158324Y-144850265D01*
X90136984Y-144873264D01*
X90098273Y-144895614D01*
X90082161Y-144907781D01*
X90073787Y-144909751D01*
X90060354Y-144917506D01*
X89960399Y-144936419D01*
X89945670Y-144939883D01*
X89942091Y-144939883D01*
X89935162Y-144941194D01*
X89312483Y-144941194D01*
X89213244Y-144926236D01*
X89201773Y-144920712D01*
X89193713Y-144919205D01*
X89176453Y-144908518D01*
X89131362Y-144886803D01*
X89111262Y-144868153D01*
X89098036Y-144859964D01*
X89087735Y-144846324D01*
X89064736Y-144824984D01*
X89042386Y-144786273D01*
X89030219Y-144770161D01*
X89028249Y-144761787D01*
X89020494Y-144748354D01*
X89001581Y-144648399D01*
X88998117Y-144633670D01*
X88998117Y-144630091D01*
X88996806Y-144623162D01*
X88996806Y-143750483D01*
X89011764Y-143651244D01*
X89017288Y-143639773D01*
X89018795Y-143631713D01*
X89029482Y-143614453D01*
X89051197Y-143569362D01*
X89069847Y-143549262D01*
X89078036Y-143536036D01*
X89091676Y-143525735D01*
X89113016Y-143502736D01*
X89151727Y-143480386D01*
X89167839Y-143468219D01*
X89176213Y-143466249D01*
X89189646Y-143458494D01*
X89289601Y-143439581D01*
X89304330Y-143436117D01*
X89307909Y-143436117D01*
X89314838Y-143434806D01*
X89937517Y-143434806D01*
X90036756Y-143449764D01*
X90036756Y-143449764D01*
G37*
G36*
X94056899Y-143419959D02*
G01*
X94073769Y-143431231D01*
X94085041Y-143448101D01*
X94091448Y-143480312D01*
X94091448Y-144255688D01*
X94088999Y-144268000D01*
X94085041Y-144287899D01*
X94073769Y-144304769D01*
X94056899Y-144316041D01*
X94037000Y-144319999D01*
X94024688Y-144322448D01*
X93149312Y-144322448D01*
X93117101Y-144316041D01*
X93100231Y-144304769D01*
X93088959Y-144287899D01*
X93082552Y-144255688D01*
X93082552Y-143480312D01*
X93088959Y-143448101D01*
X93100231Y-143431231D01*
X93117101Y-143419959D01*
X93149312Y-143413552D01*
X94024688Y-143413552D01*
X94056899Y-143419959D01*
X94056899Y-143419959D01*
G37*
G36*
X114541675Y-141970627D02*
G01*
X114582905Y-141972680D01*
X114631080Y-141984468D01*
X114685954Y-141992963D01*
X114724728Y-142007383D01*
X114759176Y-142015812D01*
X114809544Y-142038925D01*
X114867037Y-142060307D01*
X114897173Y-142079138D01*
X114924107Y-142091498D01*
X114973922Y-142127097D01*
X115030880Y-142162688D01*
X115052387Y-142183168D01*
X115071749Y-142197005D01*
X115117931Y-142245585D01*
X115170790Y-142295922D01*
X115184404Y-142315511D01*
X115196782Y-142328531D01*
X115236083Y-142389866D01*
X115281052Y-142454569D01*
X115288145Y-142471119D01*
X115294683Y-142481322D01*
X115323818Y-142554349D01*
X115357162Y-142632146D01*
X115359606Y-142644051D01*
X115361928Y-142649872D01*
X115377813Y-142732748D01*
X115396010Y-142821400D01*
X115395988Y-142827580D01*
X115396056Y-142827932D01*
X115395404Y-143014704D01*
X115395335Y-143015053D01*
X115395313Y-143021237D01*
X115376491Y-143109785D01*
X115360034Y-143192522D01*
X115357671Y-143198327D01*
X115355144Y-143210215D01*
X115321246Y-143287806D01*
X115291613Y-143360599D01*
X115285009Y-143370748D01*
X115277797Y-143387257D01*
X115232357Y-143451672D01*
X115192645Y-143512707D01*
X115180180Y-143525637D01*
X115166430Y-143545129D01*
X115113221Y-143595096D01*
X115066704Y-143643349D01*
X115047248Y-143657048D01*
X115025593Y-143677384D01*
X114968380Y-143712582D01*
X114918323Y-143747828D01*
X114891302Y-143760000D01*
X114861039Y-143778618D01*
X114803399Y-143799597D01*
X114752868Y-143822360D01*
X114718362Y-143830549D01*
X114679490Y-143844697D01*
X114624568Y-143852807D01*
X114576307Y-143864260D01*
X114535057Y-143866025D01*
X114488363Y-143872920D01*
X114438741Y-143870146D01*
X114395000Y-143872017D01*
X114348403Y-143865095D01*
X114295464Y-143862135D01*
X114253057Y-143850931D01*
X114215504Y-143845352D01*
X114165566Y-143827815D01*
X114108673Y-143812783D01*
X114074600Y-143795869D01*
X114044288Y-143785224D01*
X113993557Y-143755639D01*
X113935621Y-143726879D01*
X113910245Y-143707053D01*
X113887528Y-143693805D01*
X113838930Y-143651335D01*
X113783378Y-143607933D01*
X113766292Y-143587857D01*
X113750884Y-143574392D01*
X113707628Y-143518928D01*
X113658161Y-143460804D01*
X113648277Y-143442825D01*
X113639285Y-143431295D01*
X113604661Y-143363488D01*
X113565086Y-143291501D01*
X113560749Y-143277492D01*
X113556760Y-143269679D01*
X113533983Y-143191022D01*
X113507955Y-143106941D01*
X113507095Y-143098173D01*
X113506285Y-143095375D01*
X113498295Y-143008423D01*
X113489102Y-142914663D01*
X113498949Y-142820976D01*
X113507546Y-142734079D01*
X113508376Y-142731287D01*
X113509297Y-142722521D01*
X113535920Y-142638594D01*
X113559237Y-142560129D01*
X113563280Y-142552346D01*
X113567715Y-142538365D01*
X113607811Y-142466621D01*
X113642891Y-142399090D01*
X113651956Y-142387632D01*
X113661969Y-142369716D01*
X113711849Y-142311930D01*
X113755484Y-142256776D01*
X113770984Y-142243420D01*
X113788210Y-142223464D01*
X113844069Y-142180447D01*
X113892959Y-142138321D01*
X113915768Y-142125232D01*
X113941281Y-142105584D01*
X113999401Y-142077237D01*
X114050350Y-142047999D01*
X114080746Y-142037562D01*
X114114928Y-142020891D01*
X114171921Y-142006258D01*
X114221983Y-141989069D01*
X114259572Y-141983753D01*
X114302059Y-141972844D01*
X114355020Y-141970254D01*
X114401663Y-141963657D01*
X114445388Y-141965834D01*
X114495028Y-141963406D01*
X114541675Y-141970627D01*
X114541675Y-141970627D01*
G37*
G36*
X121145675Y-141970627D02*
G01*
X121186905Y-141972680D01*
X121235080Y-141984468D01*
X121289954Y-141992963D01*
X121328728Y-142007383D01*
X121363176Y-142015812D01*
X121413544Y-142038925D01*
X121471037Y-142060307D01*
X121501173Y-142079138D01*
X121528107Y-142091498D01*
X121577922Y-142127097D01*
X121634880Y-142162688D01*
X121656387Y-142183168D01*
X121675749Y-142197005D01*
X121721931Y-142245585D01*
X121774790Y-142295922D01*
X121788404Y-142315511D01*
X121800782Y-142328531D01*
X121840083Y-142389866D01*
X121885052Y-142454569D01*
X121892145Y-142471119D01*
X121898683Y-142481322D01*
X121927818Y-142554349D01*
X121961162Y-142632146D01*
X121963606Y-142644051D01*
X121965928Y-142649872D01*
X121981813Y-142732748D01*
X122000010Y-142821400D01*
X121999988Y-142827580D01*
X122000056Y-142827932D01*
X121999404Y-143014704D01*
X121999335Y-143015053D01*
X121999313Y-143021237D01*
X121980491Y-143109785D01*
X121964034Y-143192522D01*
X121961671Y-143198327D01*
X121959144Y-143210215D01*
X121925246Y-143287806D01*
X121895613Y-143360599D01*
X121889009Y-143370748D01*
X121881797Y-143387257D01*
X121836357Y-143451672D01*
X121796645Y-143512707D01*
X121784180Y-143525637D01*
X121770430Y-143545129D01*
X121717221Y-143595096D01*
X121670704Y-143643349D01*
X121651248Y-143657048D01*
X121629593Y-143677384D01*
X121572380Y-143712582D01*
X121522323Y-143747828D01*
X121495302Y-143760000D01*
X121465039Y-143778618D01*
X121407399Y-143799597D01*
X121356868Y-143822360D01*
X121322362Y-143830549D01*
X121283490Y-143844697D01*
X121228568Y-143852807D01*
X121180307Y-143864260D01*
X121139057Y-143866025D01*
X121092363Y-143872920D01*
X121042741Y-143870146D01*
X120999000Y-143872017D01*
X120952403Y-143865095D01*
X120899464Y-143862135D01*
X120857057Y-143850931D01*
X120819504Y-143845352D01*
X120769566Y-143827815D01*
X120712673Y-143812783D01*
X120678600Y-143795869D01*
X120648288Y-143785224D01*
X120597557Y-143755639D01*
X120539621Y-143726879D01*
X120514245Y-143707053D01*
X120491528Y-143693805D01*
X120442930Y-143651335D01*
X120387378Y-143607933D01*
X120370292Y-143587857D01*
X120354884Y-143574392D01*
X120311628Y-143518928D01*
X120262161Y-143460804D01*
X120252277Y-143442825D01*
X120243285Y-143431295D01*
X120208661Y-143363488D01*
X120169086Y-143291501D01*
X120164749Y-143277492D01*
X120160760Y-143269679D01*
X120137983Y-143191022D01*
X120111955Y-143106941D01*
X120111095Y-143098173D01*
X120110285Y-143095375D01*
X120102295Y-143008423D01*
X120093102Y-142914663D01*
X120102949Y-142820976D01*
X120111546Y-142734079D01*
X120112376Y-142731287D01*
X120113297Y-142722521D01*
X120139920Y-142638594D01*
X120163237Y-142560129D01*
X120167280Y-142552346D01*
X120171715Y-142538365D01*
X120211811Y-142466621D01*
X120246891Y-142399090D01*
X120255956Y-142387632D01*
X120265969Y-142369716D01*
X120315849Y-142311930D01*
X120359484Y-142256776D01*
X120374984Y-142243420D01*
X120392210Y-142223464D01*
X120448069Y-142180447D01*
X120496959Y-142138321D01*
X120519768Y-142125232D01*
X120545281Y-142105584D01*
X120603401Y-142077237D01*
X120654350Y-142047999D01*
X120684746Y-142037562D01*
X120718928Y-142020891D01*
X120775921Y-142006258D01*
X120825983Y-141989069D01*
X120863572Y-141983753D01*
X120906059Y-141972844D01*
X120959020Y-141970254D01*
X121005663Y-141963657D01*
X121049388Y-141965834D01*
X121099028Y-141963406D01*
X121145675Y-141970627D01*
X121145675Y-141970627D01*
G37*
G36*
X107937675Y-141970627D02*
G01*
X107978905Y-141972680D01*
X108027080Y-141984468D01*
X108081954Y-141992963D01*
X108120728Y-142007383D01*
X108155176Y-142015812D01*
X108205544Y-142038925D01*
X108263037Y-142060307D01*
X108293173Y-142079138D01*
X108320107Y-142091498D01*
X108369922Y-142127097D01*
X108426880Y-142162688D01*
X108448387Y-142183168D01*
X108467749Y-142197005D01*
X108513931Y-142245585D01*
X108566790Y-142295922D01*
X108580404Y-142315511D01*
X108592782Y-142328531D01*
X108632083Y-142389866D01*
X108677052Y-142454569D01*
X108684145Y-142471119D01*
X108690683Y-142481322D01*
X108719818Y-142554349D01*
X108753162Y-142632146D01*
X108755606Y-142644051D01*
X108757928Y-142649872D01*
X108773813Y-142732748D01*
X108792010Y-142821400D01*
X108791988Y-142827580D01*
X108792056Y-142827932D01*
X108791404Y-143014704D01*
X108791335Y-143015053D01*
X108791313Y-143021237D01*
X108772491Y-143109785D01*
X108756034Y-143192522D01*
X108753671Y-143198327D01*
X108751144Y-143210215D01*
X108717246Y-143287806D01*
X108687613Y-143360599D01*
X108681009Y-143370748D01*
X108673797Y-143387257D01*
X108628357Y-143451672D01*
X108588645Y-143512707D01*
X108576180Y-143525637D01*
X108562430Y-143545129D01*
X108509221Y-143595096D01*
X108462704Y-143643349D01*
X108443248Y-143657048D01*
X108421593Y-143677384D01*
X108364380Y-143712582D01*
X108314323Y-143747828D01*
X108287302Y-143760000D01*
X108257039Y-143778618D01*
X108199399Y-143799597D01*
X108148868Y-143822360D01*
X108114362Y-143830549D01*
X108075490Y-143844697D01*
X108020568Y-143852807D01*
X107972307Y-143864260D01*
X107931057Y-143866025D01*
X107884363Y-143872920D01*
X107834741Y-143870146D01*
X107791000Y-143872017D01*
X107744403Y-143865095D01*
X107691464Y-143862135D01*
X107649057Y-143850931D01*
X107611504Y-143845352D01*
X107561566Y-143827815D01*
X107504673Y-143812783D01*
X107470600Y-143795869D01*
X107440288Y-143785224D01*
X107389557Y-143755639D01*
X107331621Y-143726879D01*
X107306245Y-143707053D01*
X107283528Y-143693805D01*
X107234930Y-143651335D01*
X107179378Y-143607933D01*
X107162292Y-143587857D01*
X107146884Y-143574392D01*
X107103628Y-143518928D01*
X107054161Y-143460804D01*
X107044277Y-143442825D01*
X107035285Y-143431295D01*
X107000661Y-143363488D01*
X106961086Y-143291501D01*
X106956749Y-143277492D01*
X106952760Y-143269679D01*
X106929983Y-143191022D01*
X106903955Y-143106941D01*
X106903095Y-143098173D01*
X106902285Y-143095375D01*
X106894295Y-143008423D01*
X106885102Y-142914663D01*
X106894949Y-142820976D01*
X106903546Y-142734079D01*
X106904376Y-142731287D01*
X106905297Y-142722521D01*
X106931920Y-142638594D01*
X106955237Y-142560129D01*
X106959280Y-142552346D01*
X106963715Y-142538365D01*
X107003811Y-142466621D01*
X107038891Y-142399090D01*
X107047956Y-142387632D01*
X107057969Y-142369716D01*
X107107849Y-142311930D01*
X107151484Y-142256776D01*
X107166984Y-142243420D01*
X107184210Y-142223464D01*
X107240069Y-142180447D01*
X107288959Y-142138321D01*
X107311768Y-142125232D01*
X107337281Y-142105584D01*
X107395401Y-142077237D01*
X107446350Y-142047999D01*
X107476746Y-142037562D01*
X107510928Y-142020891D01*
X107567921Y-142006258D01*
X107617983Y-141989069D01*
X107655572Y-141983753D01*
X107698059Y-141972844D01*
X107751020Y-141970254D01*
X107797663Y-141963657D01*
X107841388Y-141965834D01*
X107891028Y-141963406D01*
X107937675Y-141970627D01*
X107937675Y-141970627D01*
G37*
G36*
X101333675Y-141970627D02*
G01*
X101374905Y-141972680D01*
X101423080Y-141984468D01*
X101477954Y-141992963D01*
X101516728Y-142007383D01*
X101551176Y-142015812D01*
X101601544Y-142038925D01*
X101659037Y-142060307D01*
X101689173Y-142079138D01*
X101716107Y-142091498D01*
X101765922Y-142127097D01*
X101822880Y-142162688D01*
X101844387Y-142183168D01*
X101863749Y-142197005D01*
X101909931Y-142245585D01*
X101962790Y-142295922D01*
X101976404Y-142315511D01*
X101988782Y-142328531D01*
X102028083Y-142389866D01*
X102073052Y-142454569D01*
X102080145Y-142471119D01*
X102086683Y-142481322D01*
X102115818Y-142554349D01*
X102149162Y-142632146D01*
X102151606Y-142644051D01*
X102153928Y-142649872D01*
X102169813Y-142732748D01*
X102188010Y-142821400D01*
X102187988Y-142827580D01*
X102188056Y-142827932D01*
X102187404Y-143014704D01*
X102187335Y-143015053D01*
X102187313Y-143021237D01*
X102168491Y-143109785D01*
X102152034Y-143192522D01*
X102149671Y-143198327D01*
X102147144Y-143210215D01*
X102113246Y-143287806D01*
X102083613Y-143360599D01*
X102077009Y-143370748D01*
X102069797Y-143387257D01*
X102024357Y-143451672D01*
X101984645Y-143512707D01*
X101972180Y-143525637D01*
X101958430Y-143545129D01*
X101905221Y-143595096D01*
X101858704Y-143643349D01*
X101839248Y-143657048D01*
X101817593Y-143677384D01*
X101760380Y-143712582D01*
X101710323Y-143747828D01*
X101683302Y-143760000D01*
X101653039Y-143778618D01*
X101595399Y-143799597D01*
X101544868Y-143822360D01*
X101510362Y-143830549D01*
X101471490Y-143844697D01*
X101416568Y-143852807D01*
X101368307Y-143864260D01*
X101327057Y-143866025D01*
X101280363Y-143872920D01*
X101230741Y-143870146D01*
X101187000Y-143872017D01*
X101140403Y-143865095D01*
X101087464Y-143862135D01*
X101045057Y-143850931D01*
X101007504Y-143845352D01*
X100957566Y-143827815D01*
X100900673Y-143812783D01*
X100866600Y-143795869D01*
X100836288Y-143785224D01*
X100785557Y-143755639D01*
X100727621Y-143726879D01*
X100702245Y-143707053D01*
X100679528Y-143693805D01*
X100630930Y-143651335D01*
X100575378Y-143607933D01*
X100558292Y-143587857D01*
X100542884Y-143574392D01*
X100499628Y-143518928D01*
X100450161Y-143460804D01*
X100440277Y-143442825D01*
X100431285Y-143431295D01*
X100396661Y-143363488D01*
X100357086Y-143291501D01*
X100352749Y-143277492D01*
X100348760Y-143269679D01*
X100325983Y-143191022D01*
X100299955Y-143106941D01*
X100299095Y-143098173D01*
X100298285Y-143095375D01*
X100290295Y-143008423D01*
X100281102Y-142914663D01*
X100290949Y-142820976D01*
X100299546Y-142734079D01*
X100300376Y-142731287D01*
X100301297Y-142722521D01*
X100327920Y-142638594D01*
X100351237Y-142560129D01*
X100355280Y-142552346D01*
X100359715Y-142538365D01*
X100399811Y-142466621D01*
X100434891Y-142399090D01*
X100443956Y-142387632D01*
X100453969Y-142369716D01*
X100503849Y-142311930D01*
X100547484Y-142256776D01*
X100562984Y-142243420D01*
X100580210Y-142223464D01*
X100636069Y-142180447D01*
X100684959Y-142138321D01*
X100707768Y-142125232D01*
X100733281Y-142105584D01*
X100791401Y-142077237D01*
X100842350Y-142047999D01*
X100872746Y-142037562D01*
X100906928Y-142020891D01*
X100963921Y-142006258D01*
X101013983Y-141989069D01*
X101051572Y-141983753D01*
X101094059Y-141972844D01*
X101147020Y-141970254D01*
X101193663Y-141963657D01*
X101237388Y-141965834D01*
X101287028Y-141963406D01*
X101333675Y-141970627D01*
X101333675Y-141970627D01*
G37*
G36*
X119428899Y-141969959D02*
G01*
X119445769Y-141981231D01*
X119457041Y-141998101D01*
X119463448Y-142030312D01*
X119463448Y-143805688D01*
X119460999Y-143818000D01*
X119457041Y-143837899D01*
X119445769Y-143854769D01*
X119428899Y-143866041D01*
X119409000Y-143869999D01*
X119396688Y-143872448D01*
X117621312Y-143872448D01*
X117589101Y-143866041D01*
X117572231Y-143854769D01*
X117560959Y-143837899D01*
X117554552Y-143805688D01*
X117554552Y-142030312D01*
X117560959Y-141998101D01*
X117572231Y-141981231D01*
X117589101Y-141969959D01*
X117621312Y-141963552D01*
X119396688Y-141963552D01*
X119428899Y-141969959D01*
X119428899Y-141969959D01*
G37*
G36*
X112824899Y-141969959D02*
G01*
X112841769Y-141981231D01*
X112853041Y-141998101D01*
X112859448Y-142030312D01*
X112859448Y-143805688D01*
X112856999Y-143818000D01*
X112853041Y-143837899D01*
X112841769Y-143854769D01*
X112824899Y-143866041D01*
X112805000Y-143869999D01*
X112792688Y-143872448D01*
X111017312Y-143872448D01*
X110985101Y-143866041D01*
X110968231Y-143854769D01*
X110956959Y-143837899D01*
X110950552Y-143805688D01*
X110950552Y-142030312D01*
X110956959Y-141998101D01*
X110968231Y-141981231D01*
X110985101Y-141969959D01*
X111017312Y-141963552D01*
X112792688Y-141963552D01*
X112824899Y-141969959D01*
X112824899Y-141969959D01*
G37*
G36*
X106220899Y-141969959D02*
G01*
X106237769Y-141981231D01*
X106249041Y-141998101D01*
X106255448Y-142030312D01*
X106255448Y-143805688D01*
X106252999Y-143818000D01*
X106249041Y-143837899D01*
X106237769Y-143854769D01*
X106220899Y-143866041D01*
X106201000Y-143869999D01*
X106188688Y-143872448D01*
X104413312Y-143872448D01*
X104381101Y-143866041D01*
X104364231Y-143854769D01*
X104352959Y-143837899D01*
X104346552Y-143805688D01*
X104346552Y-142030312D01*
X104352959Y-141998101D01*
X104364231Y-141981231D01*
X104381101Y-141969959D01*
X104413312Y-141963552D01*
X106188688Y-141963552D01*
X106220899Y-141969959D01*
X106220899Y-141969959D01*
G37*
G36*
X99616899Y-141969959D02*
G01*
X99633769Y-141981231D01*
X99645041Y-141998101D01*
X99651448Y-142030312D01*
X99651448Y-143805688D01*
X99648999Y-143818000D01*
X99645041Y-143837899D01*
X99633769Y-143854769D01*
X99616899Y-143866041D01*
X99597000Y-143869999D01*
X99584688Y-143872448D01*
X97809312Y-143872448D01*
X97777101Y-143866041D01*
X97760231Y-143854769D01*
X97748959Y-143837899D01*
X97742552Y-143805688D01*
X97742552Y-142030312D01*
X97748959Y-141998101D01*
X97760231Y-141981231D01*
X97777101Y-141969959D01*
X97809312Y-141963552D01*
X99584688Y-141963552D01*
X99616899Y-141969959D01*
X99616899Y-141969959D01*
G37*
G36*
X96056899Y-142469959D02*
G01*
X96073769Y-142481231D01*
X96085041Y-142498101D01*
X96091448Y-142530312D01*
X96091448Y-143305688D01*
X96088999Y-143318000D01*
X96085041Y-143337899D01*
X96073769Y-143354769D01*
X96056899Y-143366041D01*
X96037000Y-143369999D01*
X96024688Y-143372448D01*
X95149312Y-143372448D01*
X95117101Y-143366041D01*
X95100231Y-143354769D01*
X95088959Y-143337899D01*
X95082552Y-143305688D01*
X95082552Y-142530312D01*
X95088959Y-142498101D01*
X95100231Y-142481231D01*
X95117101Y-142469959D01*
X95149312Y-142463552D01*
X96024688Y-142463552D01*
X96056899Y-142469959D01*
X96056899Y-142469959D01*
G37*
G36*
X83188360Y-141573835D02*
G01*
X83269397Y-141600166D01*
X83356663Y-141627848D01*
X83359655Y-141629493D01*
X83368488Y-141632363D01*
X83440466Y-141673919D01*
X83511499Y-141712970D01*
X83518986Y-141719253D01*
X83532511Y-141727061D01*
X83590259Y-141779057D01*
X83646857Y-141826549D01*
X83656962Y-141839118D01*
X83673261Y-141853793D01*
X83715454Y-141911867D01*
X83757579Y-141964260D01*
X83767994Y-141984182D01*
X83784586Y-142007019D01*
X83811297Y-142067012D01*
X83839439Y-142120843D01*
X83847582Y-142148510D01*
X83861621Y-142180042D01*
X83873992Y-142238241D01*
X83889328Y-142290349D01*
X83892518Y-142325401D01*
X83900999Y-142365301D01*
X83900999Y-142418592D01*
X83905343Y-142466324D01*
X83900999Y-142507653D01*
X83900999Y-142554699D01*
X83891217Y-142600721D01*
X83886873Y-142642047D01*
X83872702Y-142687827D01*
X83861621Y-142739958D01*
X83845028Y-142777226D01*
X83834622Y-142810843D01*
X83808789Y-142858620D01*
X83784586Y-142912981D01*
X83764298Y-142940905D01*
X83750580Y-142966276D01*
X83711859Y-143013082D01*
X83673261Y-143066207D01*
X83652284Y-143085095D01*
X83637952Y-143102419D01*
X83585845Y-143144917D01*
X83532511Y-143192939D01*
X83513524Y-143203901D01*
X83501025Y-143214095D01*
X83435780Y-143248786D01*
X83368488Y-143287637D01*
X83353636Y-143292463D01*
X83345003Y-143297053D01*
X83267430Y-143320473D01*
X83188360Y-143346165D01*
X83179114Y-143347137D01*
X83175851Y-143348122D01*
X83084710Y-143357059D01*
X83047211Y-143361000D01*
X82952789Y-143361000D01*
X82811640Y-143346165D01*
X82730603Y-143319834D01*
X82643337Y-143292152D01*
X82640345Y-143290507D01*
X82631512Y-143287637D01*
X82559534Y-143246081D01*
X82488501Y-143207030D01*
X82481014Y-143200747D01*
X82467489Y-143192939D01*
X82409741Y-143140943D01*
X82353143Y-143093451D01*
X82343038Y-143080882D01*
X82326739Y-143066207D01*
X82284546Y-143008133D01*
X82242421Y-142955740D01*
X82232006Y-142935818D01*
X82215414Y-142912981D01*
X82188703Y-142852988D01*
X82160561Y-142799157D01*
X82152418Y-142771490D01*
X82138379Y-142739958D01*
X82126008Y-142681759D01*
X82110672Y-142629651D01*
X82107482Y-142594599D01*
X82099001Y-142554699D01*
X82099001Y-142501408D01*
X82094657Y-142453676D01*
X82099001Y-142412347D01*
X82099001Y-142365301D01*
X82108783Y-142319279D01*
X82113127Y-142277953D01*
X82127298Y-142232173D01*
X82138379Y-142180042D01*
X82154972Y-142142774D01*
X82165378Y-142109157D01*
X82191211Y-142061380D01*
X82215414Y-142007019D01*
X82235702Y-141979095D01*
X82249420Y-141953724D01*
X82288141Y-141906918D01*
X82326739Y-141853793D01*
X82347716Y-141834905D01*
X82362048Y-141817581D01*
X82414155Y-141775083D01*
X82467489Y-141727061D01*
X82486476Y-141716099D01*
X82498975Y-141705905D01*
X82564220Y-141671214D01*
X82631512Y-141632363D01*
X82646364Y-141627537D01*
X82654997Y-141622947D01*
X82732570Y-141599527D01*
X82811640Y-141573835D01*
X82820886Y-141572863D01*
X82824149Y-141571878D01*
X82915290Y-141562941D01*
X82952789Y-141559000D01*
X83047211Y-141559000D01*
X83188360Y-141573835D01*
X83188360Y-141573835D01*
G37*
G36*
X90036756Y-141163764D02*
G01*
X90048227Y-141169288D01*
X90056287Y-141170795D01*
X90073547Y-141181482D01*
X90118638Y-141203197D01*
X90138738Y-141221847D01*
X90151964Y-141230036D01*
X90162265Y-141243676D01*
X90185264Y-141265016D01*
X90207614Y-141303727D01*
X90219781Y-141319839D01*
X90221751Y-141328213D01*
X90229506Y-141341646D01*
X90248419Y-141441601D01*
X90251883Y-141456330D01*
X90251883Y-141459909D01*
X90253194Y-141466838D01*
X90253194Y-142339517D01*
X90238236Y-142438756D01*
X90232712Y-142450227D01*
X90231205Y-142458287D01*
X90220518Y-142475547D01*
X90198803Y-142520638D01*
X90180153Y-142540738D01*
X90171964Y-142553964D01*
X90158324Y-142564265D01*
X90136984Y-142587264D01*
X90098273Y-142609614D01*
X90082161Y-142621781D01*
X90073787Y-142623751D01*
X90060354Y-142631506D01*
X89960399Y-142650419D01*
X89945670Y-142653883D01*
X89942091Y-142653883D01*
X89935162Y-142655194D01*
X89312483Y-142655194D01*
X89213244Y-142640236D01*
X89201773Y-142634712D01*
X89193713Y-142633205D01*
X89176453Y-142622518D01*
X89131362Y-142600803D01*
X89111262Y-142582153D01*
X89098036Y-142573964D01*
X89087735Y-142560324D01*
X89064736Y-142538984D01*
X89042386Y-142500273D01*
X89030219Y-142484161D01*
X89028249Y-142475787D01*
X89020494Y-142462354D01*
X89001581Y-142362399D01*
X88998117Y-142347670D01*
X88998117Y-142344091D01*
X88996806Y-142337162D01*
X88996806Y-141464483D01*
X89011764Y-141365244D01*
X89017288Y-141353773D01*
X89018795Y-141345713D01*
X89029482Y-141328453D01*
X89051197Y-141283362D01*
X89069847Y-141263262D01*
X89078036Y-141250036D01*
X89091676Y-141239735D01*
X89113016Y-141216736D01*
X89151727Y-141194386D01*
X89167839Y-141182219D01*
X89176213Y-141180249D01*
X89189646Y-141172494D01*
X89289601Y-141153581D01*
X89304330Y-141150117D01*
X89307909Y-141150117D01*
X89314838Y-141148806D01*
X89937517Y-141148806D01*
X90036756Y-141163764D01*
X90036756Y-141163764D01*
G37*
G36*
X92086756Y-141163764D02*
G01*
X92098227Y-141169288D01*
X92106287Y-141170795D01*
X92123547Y-141181482D01*
X92168638Y-141203197D01*
X92188738Y-141221847D01*
X92201964Y-141230036D01*
X92212265Y-141243676D01*
X92235264Y-141265016D01*
X92257614Y-141303727D01*
X92269781Y-141319839D01*
X92271751Y-141328213D01*
X92279506Y-141341646D01*
X92298419Y-141441601D01*
X92301883Y-141456330D01*
X92301883Y-141459909D01*
X92303194Y-141466838D01*
X92303194Y-142339517D01*
X92288236Y-142438756D01*
X92282712Y-142450227D01*
X92281205Y-142458287D01*
X92270518Y-142475547D01*
X92248803Y-142520638D01*
X92230153Y-142540738D01*
X92221964Y-142553964D01*
X92208324Y-142564265D01*
X92186984Y-142587264D01*
X92148273Y-142609614D01*
X92132161Y-142621781D01*
X92123787Y-142623751D01*
X92110354Y-142631506D01*
X92010399Y-142650419D01*
X91995670Y-142653883D01*
X91992091Y-142653883D01*
X91985162Y-142655194D01*
X91362483Y-142655194D01*
X91263244Y-142640236D01*
X91251773Y-142634712D01*
X91243713Y-142633205D01*
X91226453Y-142622518D01*
X91181362Y-142600803D01*
X91161262Y-142582153D01*
X91148036Y-142573964D01*
X91137735Y-142560324D01*
X91114736Y-142538984D01*
X91092386Y-142500273D01*
X91080219Y-142484161D01*
X91078249Y-142475787D01*
X91070494Y-142462354D01*
X91051581Y-142362399D01*
X91048117Y-142347670D01*
X91048117Y-142344091D01*
X91046806Y-142337162D01*
X91046806Y-141464483D01*
X91061764Y-141365244D01*
X91067288Y-141353773D01*
X91068795Y-141345713D01*
X91079482Y-141328453D01*
X91101197Y-141283362D01*
X91119847Y-141263262D01*
X91128036Y-141250036D01*
X91141676Y-141239735D01*
X91163016Y-141216736D01*
X91201727Y-141194386D01*
X91217839Y-141182219D01*
X91226213Y-141180249D01*
X91239646Y-141172494D01*
X91339601Y-141153581D01*
X91354330Y-141150117D01*
X91357909Y-141150117D01*
X91364838Y-141148806D01*
X91987517Y-141148806D01*
X92086756Y-141163764D01*
X92086756Y-141163764D01*
G37*
G36*
X94056899Y-141519959D02*
G01*
X94073769Y-141531231D01*
X94085041Y-141548101D01*
X94091448Y-141580312D01*
X94091448Y-142355688D01*
X94088999Y-142368000D01*
X94085041Y-142387899D01*
X94073769Y-142404769D01*
X94056899Y-142416041D01*
X94037000Y-142419999D01*
X94024688Y-142422448D01*
X93149312Y-142422448D01*
X93117101Y-142416041D01*
X93100231Y-142404769D01*
X93088959Y-142387899D01*
X93082552Y-142355688D01*
X93082552Y-141580312D01*
X93088959Y-141548101D01*
X93100231Y-141531231D01*
X93117101Y-141519959D01*
X93149312Y-141513552D01*
X94024688Y-141513552D01*
X94056899Y-141519959D01*
X94056899Y-141519959D01*
G37*
G36*
X83188360Y-139033835D02*
G01*
X83269397Y-139060166D01*
X83356663Y-139087848D01*
X83359655Y-139089493D01*
X83368488Y-139092363D01*
X83440466Y-139133919D01*
X83511499Y-139172970D01*
X83518986Y-139179253D01*
X83532511Y-139187061D01*
X83590259Y-139239057D01*
X83646857Y-139286549D01*
X83656962Y-139299118D01*
X83673261Y-139313793D01*
X83715454Y-139371867D01*
X83757579Y-139424260D01*
X83767994Y-139444182D01*
X83784586Y-139467019D01*
X83811297Y-139527012D01*
X83839439Y-139580843D01*
X83847582Y-139608510D01*
X83861621Y-139640042D01*
X83873992Y-139698241D01*
X83889328Y-139750349D01*
X83892518Y-139785401D01*
X83900999Y-139825301D01*
X83900999Y-139878592D01*
X83905343Y-139926324D01*
X83900999Y-139967653D01*
X83900999Y-140014699D01*
X83891217Y-140060721D01*
X83886873Y-140102047D01*
X83872702Y-140147827D01*
X83861621Y-140199958D01*
X83845028Y-140237226D01*
X83834622Y-140270843D01*
X83808789Y-140318620D01*
X83784586Y-140372981D01*
X83764298Y-140400905D01*
X83750580Y-140426276D01*
X83711859Y-140473082D01*
X83673261Y-140526207D01*
X83652284Y-140545095D01*
X83637952Y-140562419D01*
X83585845Y-140604917D01*
X83532511Y-140652939D01*
X83513524Y-140663901D01*
X83501025Y-140674095D01*
X83435780Y-140708786D01*
X83368488Y-140747637D01*
X83353636Y-140752463D01*
X83345003Y-140757053D01*
X83267430Y-140780473D01*
X83188360Y-140806165D01*
X83179114Y-140807137D01*
X83175851Y-140808122D01*
X83084710Y-140817059D01*
X83047211Y-140821000D01*
X82952789Y-140821000D01*
X82811640Y-140806165D01*
X82730603Y-140779834D01*
X82643337Y-140752152D01*
X82640345Y-140750507D01*
X82631512Y-140747637D01*
X82559534Y-140706081D01*
X82488501Y-140667030D01*
X82481014Y-140660747D01*
X82467489Y-140652939D01*
X82409741Y-140600943D01*
X82353143Y-140553451D01*
X82343038Y-140540882D01*
X82326739Y-140526207D01*
X82284546Y-140468133D01*
X82242421Y-140415740D01*
X82232006Y-140395818D01*
X82215414Y-140372981D01*
X82188703Y-140312988D01*
X82160561Y-140259157D01*
X82152418Y-140231490D01*
X82138379Y-140199958D01*
X82126008Y-140141759D01*
X82110672Y-140089651D01*
X82107482Y-140054599D01*
X82099001Y-140014699D01*
X82099001Y-139961408D01*
X82094657Y-139913676D01*
X82099001Y-139872347D01*
X82099001Y-139825301D01*
X82108783Y-139779279D01*
X82113127Y-139737953D01*
X82127298Y-139692173D01*
X82138379Y-139640042D01*
X82154972Y-139602774D01*
X82165378Y-139569157D01*
X82191211Y-139521380D01*
X82215414Y-139467019D01*
X82235702Y-139439095D01*
X82249420Y-139413724D01*
X82288141Y-139366918D01*
X82326739Y-139313793D01*
X82347716Y-139294905D01*
X82362048Y-139277581D01*
X82414155Y-139235083D01*
X82467489Y-139187061D01*
X82486476Y-139176099D01*
X82498975Y-139165905D01*
X82564220Y-139131214D01*
X82631512Y-139092363D01*
X82646364Y-139087537D01*
X82654997Y-139082947D01*
X82732570Y-139059527D01*
X82811640Y-139033835D01*
X82820886Y-139032863D01*
X82824149Y-139031878D01*
X82915290Y-139022941D01*
X82952789Y-139019000D01*
X83047211Y-139019000D01*
X83188360Y-139033835D01*
X83188360Y-139033835D01*
G37*
G36*
X124661756Y-138486764D02*
G01*
X124673228Y-138492289D01*
X124681286Y-138493795D01*
X124698543Y-138504480D01*
X124743638Y-138526197D01*
X124763738Y-138544847D01*
X124776964Y-138553036D01*
X124787264Y-138566676D01*
X124810265Y-138588017D01*
X124832617Y-138626732D01*
X124844781Y-138642840D01*
X124846750Y-138651212D01*
X124854506Y-138664646D01*
X124873419Y-138764603D01*
X124876883Y-138779331D01*
X124876883Y-138782910D01*
X124878194Y-138789839D01*
X124878194Y-140012516D01*
X124863236Y-140111756D01*
X124857711Y-140123228D01*
X124856205Y-140131286D01*
X124845520Y-140148543D01*
X124823803Y-140193638D01*
X124805153Y-140213738D01*
X124796964Y-140226964D01*
X124783324Y-140237264D01*
X124761983Y-140260265D01*
X124723268Y-140282617D01*
X124707160Y-140294781D01*
X124698788Y-140296750D01*
X124685354Y-140304506D01*
X124585397Y-140323419D01*
X124570669Y-140326883D01*
X124567090Y-140326883D01*
X124560161Y-140328194D01*
X123662484Y-140328194D01*
X123563244Y-140313236D01*
X123551772Y-140307711D01*
X123543714Y-140306205D01*
X123526457Y-140295520D01*
X123481362Y-140273803D01*
X123461262Y-140255153D01*
X123448036Y-140246964D01*
X123437736Y-140233324D01*
X123414735Y-140211983D01*
X123392383Y-140173268D01*
X123380219Y-140157160D01*
X123378250Y-140148788D01*
X123370494Y-140135354D01*
X123351581Y-140035397D01*
X123348117Y-140020669D01*
X123348117Y-140017090D01*
X123346806Y-140010161D01*
X123346806Y-138787484D01*
X123361764Y-138688244D01*
X123367289Y-138676772D01*
X123368795Y-138668714D01*
X123379480Y-138651457D01*
X123401197Y-138606362D01*
X123419847Y-138586262D01*
X123428036Y-138573036D01*
X123441676Y-138562736D01*
X123463017Y-138539735D01*
X123501732Y-138517383D01*
X123517840Y-138505219D01*
X123526212Y-138503250D01*
X123539646Y-138495494D01*
X123639603Y-138476581D01*
X123654331Y-138473117D01*
X123657910Y-138473117D01*
X123664839Y-138471806D01*
X124562516Y-138471806D01*
X124661756Y-138486764D01*
X124661756Y-138486764D01*
G37*
G36*
X127636756Y-138486764D02*
G01*
X127648228Y-138492289D01*
X127656286Y-138493795D01*
X127673543Y-138504480D01*
X127718638Y-138526197D01*
X127738738Y-138544847D01*
X127751964Y-138553036D01*
X127762264Y-138566676D01*
X127785265Y-138588017D01*
X127807617Y-138626732D01*
X127819781Y-138642840D01*
X127821750Y-138651212D01*
X127829506Y-138664646D01*
X127848419Y-138764603D01*
X127851883Y-138779331D01*
X127851883Y-138782910D01*
X127853194Y-138789839D01*
X127853194Y-140012516D01*
X127838236Y-140111756D01*
X127832711Y-140123228D01*
X127831205Y-140131286D01*
X127820520Y-140148543D01*
X127798803Y-140193638D01*
X127780153Y-140213738D01*
X127771964Y-140226964D01*
X127758324Y-140237264D01*
X127736983Y-140260265D01*
X127698268Y-140282617D01*
X127682160Y-140294781D01*
X127673788Y-140296750D01*
X127660354Y-140304506D01*
X127560397Y-140323419D01*
X127545669Y-140326883D01*
X127542090Y-140326883D01*
X127535161Y-140328194D01*
X126637484Y-140328194D01*
X126538244Y-140313236D01*
X126526772Y-140307711D01*
X126518714Y-140306205D01*
X126501457Y-140295520D01*
X126456362Y-140273803D01*
X126436262Y-140255153D01*
X126423036Y-140246964D01*
X126412736Y-140233324D01*
X126389735Y-140211983D01*
X126367383Y-140173268D01*
X126355219Y-140157160D01*
X126353250Y-140148788D01*
X126345494Y-140135354D01*
X126326581Y-140035397D01*
X126323117Y-140020669D01*
X126323117Y-140017090D01*
X126321806Y-140010161D01*
X126321806Y-138787484D01*
X126336764Y-138688244D01*
X126342289Y-138676772D01*
X126343795Y-138668714D01*
X126354480Y-138651457D01*
X126376197Y-138606362D01*
X126394847Y-138586262D01*
X126403036Y-138573036D01*
X126416676Y-138562736D01*
X126438017Y-138539735D01*
X126476732Y-138517383D01*
X126492840Y-138505219D01*
X126501212Y-138503250D01*
X126514646Y-138495494D01*
X126614603Y-138476581D01*
X126629331Y-138473117D01*
X126632910Y-138473117D01*
X126639839Y-138471806D01*
X127537516Y-138471806D01*
X127636756Y-138486764D01*
X127636756Y-138486764D01*
G37*
G36*
X83188360Y-136493835D02*
G01*
X83269397Y-136520166D01*
X83356663Y-136547848D01*
X83359655Y-136549493D01*
X83368488Y-136552363D01*
X83440466Y-136593919D01*
X83511499Y-136632970D01*
X83518986Y-136639253D01*
X83532511Y-136647061D01*
X83590259Y-136699057D01*
X83646857Y-136746549D01*
X83656962Y-136759118D01*
X83673261Y-136773793D01*
X83715454Y-136831867D01*
X83757579Y-136884260D01*
X83767994Y-136904182D01*
X83784586Y-136927019D01*
X83811297Y-136987012D01*
X83839439Y-137040843D01*
X83847582Y-137068510D01*
X83861621Y-137100042D01*
X83873992Y-137158241D01*
X83889328Y-137210349D01*
X83892518Y-137245401D01*
X83900999Y-137285301D01*
X83900999Y-137338592D01*
X83905343Y-137386324D01*
X83900999Y-137427653D01*
X83900999Y-137474699D01*
X83891217Y-137520721D01*
X83886873Y-137562047D01*
X83872702Y-137607827D01*
X83861621Y-137659958D01*
X83845028Y-137697226D01*
X83834622Y-137730843D01*
X83808789Y-137778620D01*
X83784586Y-137832981D01*
X83764298Y-137860905D01*
X83750580Y-137886276D01*
X83711859Y-137933082D01*
X83673261Y-137986207D01*
X83652284Y-138005095D01*
X83637952Y-138022419D01*
X83585845Y-138064917D01*
X83532511Y-138112939D01*
X83513524Y-138123901D01*
X83501025Y-138134095D01*
X83435780Y-138168786D01*
X83368488Y-138207637D01*
X83353636Y-138212463D01*
X83345003Y-138217053D01*
X83267430Y-138240473D01*
X83188360Y-138266165D01*
X83179114Y-138267137D01*
X83175851Y-138268122D01*
X83084710Y-138277059D01*
X83047211Y-138281000D01*
X82952789Y-138281000D01*
X82811640Y-138266165D01*
X82730603Y-138239834D01*
X82643337Y-138212152D01*
X82640345Y-138210507D01*
X82631512Y-138207637D01*
X82559534Y-138166081D01*
X82488501Y-138127030D01*
X82481014Y-138120747D01*
X82467489Y-138112939D01*
X82409741Y-138060943D01*
X82353143Y-138013451D01*
X82343038Y-138000882D01*
X82326739Y-137986207D01*
X82284546Y-137928133D01*
X82242421Y-137875740D01*
X82232006Y-137855818D01*
X82215414Y-137832981D01*
X82188703Y-137772988D01*
X82160561Y-137719157D01*
X82152418Y-137691490D01*
X82138379Y-137659958D01*
X82126008Y-137601759D01*
X82110672Y-137549651D01*
X82107482Y-137514599D01*
X82099001Y-137474699D01*
X82099001Y-137421408D01*
X82094657Y-137373676D01*
X82099001Y-137332347D01*
X82099001Y-137285301D01*
X82108783Y-137239279D01*
X82113127Y-137197953D01*
X82127298Y-137152173D01*
X82138379Y-137100042D01*
X82154972Y-137062774D01*
X82165378Y-137029157D01*
X82191211Y-136981380D01*
X82215414Y-136927019D01*
X82235702Y-136899095D01*
X82249420Y-136873724D01*
X82288141Y-136826918D01*
X82326739Y-136773793D01*
X82347716Y-136754905D01*
X82362048Y-136737581D01*
X82414155Y-136695083D01*
X82467489Y-136647061D01*
X82486476Y-136636099D01*
X82498975Y-136625905D01*
X82564220Y-136591214D01*
X82631512Y-136552363D01*
X82646364Y-136547537D01*
X82654997Y-136542947D01*
X82732570Y-136519527D01*
X82811640Y-136493835D01*
X82820886Y-136492863D01*
X82824149Y-136491878D01*
X82915290Y-136482941D01*
X82952789Y-136479000D01*
X83047211Y-136479000D01*
X83188360Y-136493835D01*
X83188360Y-136493835D01*
G37*
G36*
X92086756Y-136591764D02*
G01*
X92098227Y-136597288D01*
X92106287Y-136598795D01*
X92123547Y-136609482D01*
X92168638Y-136631197D01*
X92188738Y-136649847D01*
X92201964Y-136658036D01*
X92212265Y-136671676D01*
X92235264Y-136693016D01*
X92257614Y-136731727D01*
X92269781Y-136747839D01*
X92271751Y-136756213D01*
X92279506Y-136769646D01*
X92298419Y-136869601D01*
X92301883Y-136884330D01*
X92301883Y-136887909D01*
X92303194Y-136894838D01*
X92303194Y-137767517D01*
X92288236Y-137866756D01*
X92282712Y-137878227D01*
X92281205Y-137886287D01*
X92270518Y-137903547D01*
X92248803Y-137948638D01*
X92230153Y-137968738D01*
X92221964Y-137981964D01*
X92208324Y-137992265D01*
X92186984Y-138015264D01*
X92148273Y-138037614D01*
X92132161Y-138049781D01*
X92123787Y-138051751D01*
X92110354Y-138059506D01*
X92010399Y-138078419D01*
X91995670Y-138081883D01*
X91992091Y-138081883D01*
X91985162Y-138083194D01*
X91362483Y-138083194D01*
X91263244Y-138068236D01*
X91251773Y-138062712D01*
X91243713Y-138061205D01*
X91226453Y-138050518D01*
X91181362Y-138028803D01*
X91161262Y-138010153D01*
X91148036Y-138001964D01*
X91137735Y-137988324D01*
X91114736Y-137966984D01*
X91092386Y-137928273D01*
X91080219Y-137912161D01*
X91078249Y-137903787D01*
X91070494Y-137890354D01*
X91051581Y-137790399D01*
X91048117Y-137775670D01*
X91048117Y-137772091D01*
X91046806Y-137765162D01*
X91046806Y-136892483D01*
X91061764Y-136793244D01*
X91067288Y-136781773D01*
X91068795Y-136773713D01*
X91079482Y-136756453D01*
X91101197Y-136711362D01*
X91119847Y-136691262D01*
X91128036Y-136678036D01*
X91141676Y-136667735D01*
X91163016Y-136644736D01*
X91201727Y-136622386D01*
X91217839Y-136610219D01*
X91226213Y-136608249D01*
X91239646Y-136600494D01*
X91339601Y-136581581D01*
X91354330Y-136578117D01*
X91357909Y-136578117D01*
X91364838Y-136576806D01*
X91987517Y-136576806D01*
X92086756Y-136591764D01*
X92086756Y-136591764D01*
G37*
G36*
X90036756Y-136591764D02*
G01*
X90048227Y-136597288D01*
X90056287Y-136598795D01*
X90073547Y-136609482D01*
X90118638Y-136631197D01*
X90138738Y-136649847D01*
X90151964Y-136658036D01*
X90162265Y-136671676D01*
X90185264Y-136693016D01*
X90207614Y-136731727D01*
X90219781Y-136747839D01*
X90221751Y-136756213D01*
X90229506Y-136769646D01*
X90248419Y-136869601D01*
X90251883Y-136884330D01*
X90251883Y-136887909D01*
X90253194Y-136894838D01*
X90253194Y-137767517D01*
X90238236Y-137866756D01*
X90232712Y-137878227D01*
X90231205Y-137886287D01*
X90220518Y-137903547D01*
X90198803Y-137948638D01*
X90180153Y-137968738D01*
X90171964Y-137981964D01*
X90158324Y-137992265D01*
X90136984Y-138015264D01*
X90098273Y-138037614D01*
X90082161Y-138049781D01*
X90073787Y-138051751D01*
X90060354Y-138059506D01*
X89960399Y-138078419D01*
X89945670Y-138081883D01*
X89942091Y-138081883D01*
X89935162Y-138083194D01*
X89312483Y-138083194D01*
X89213244Y-138068236D01*
X89201773Y-138062712D01*
X89193713Y-138061205D01*
X89176453Y-138050518D01*
X89131362Y-138028803D01*
X89111262Y-138010153D01*
X89098036Y-138001964D01*
X89087735Y-137988324D01*
X89064736Y-137966984D01*
X89042386Y-137928273D01*
X89030219Y-137912161D01*
X89028249Y-137903787D01*
X89020494Y-137890354D01*
X89001581Y-137790399D01*
X88998117Y-137775670D01*
X88998117Y-137772091D01*
X88996806Y-137765162D01*
X88996806Y-136892483D01*
X89011764Y-136793244D01*
X89017288Y-136781773D01*
X89018795Y-136773713D01*
X89029482Y-136756453D01*
X89051197Y-136711362D01*
X89069847Y-136691262D01*
X89078036Y-136678036D01*
X89091676Y-136667735D01*
X89113016Y-136644736D01*
X89151727Y-136622386D01*
X89167839Y-136610219D01*
X89176213Y-136608249D01*
X89189646Y-136600494D01*
X89289601Y-136581581D01*
X89304330Y-136578117D01*
X89307909Y-136578117D01*
X89314838Y-136576806D01*
X89937517Y-136576806D01*
X90036756Y-136591764D01*
X90036756Y-136591764D01*
G37*
G36*
X94056899Y-136688959D02*
G01*
X94073769Y-136700231D01*
X94085041Y-136717101D01*
X94091448Y-136749312D01*
X94091448Y-137524688D01*
X94088999Y-137537000D01*
X94085041Y-137556899D01*
X94073769Y-137573769D01*
X94056899Y-137585041D01*
X94037000Y-137588999D01*
X94024688Y-137591448D01*
X93149312Y-137591448D01*
X93117101Y-137585041D01*
X93100231Y-137573769D01*
X93088959Y-137556899D01*
X93082552Y-137524688D01*
X93082552Y-136749312D01*
X93088959Y-136717101D01*
X93100231Y-136700231D01*
X93117101Y-136688959D01*
X93149312Y-136682552D01*
X94024688Y-136682552D01*
X94056899Y-136688959D01*
X94056899Y-136688959D01*
G37*
G36*
X114541675Y-135239627D02*
G01*
X114582905Y-135241680D01*
X114631080Y-135253468D01*
X114685954Y-135261963D01*
X114724728Y-135276383D01*
X114759176Y-135284812D01*
X114809544Y-135307925D01*
X114867037Y-135329307D01*
X114897173Y-135348138D01*
X114924107Y-135360498D01*
X114973922Y-135396097D01*
X115030880Y-135431688D01*
X115052387Y-135452168D01*
X115071749Y-135466005D01*
X115117931Y-135514585D01*
X115170790Y-135564922D01*
X115184404Y-135584511D01*
X115196782Y-135597531D01*
X115236083Y-135658866D01*
X115281052Y-135723569D01*
X115288145Y-135740119D01*
X115294683Y-135750322D01*
X115323818Y-135823349D01*
X115357162Y-135901146D01*
X115359606Y-135913051D01*
X115361928Y-135918872D01*
X115377813Y-136001748D01*
X115396010Y-136090400D01*
X115395988Y-136096580D01*
X115396056Y-136096932D01*
X115395404Y-136283704D01*
X115395335Y-136284053D01*
X115395313Y-136290237D01*
X115376491Y-136378785D01*
X115360034Y-136461522D01*
X115357671Y-136467327D01*
X115355144Y-136479215D01*
X115321246Y-136556806D01*
X115291613Y-136629599D01*
X115285009Y-136639748D01*
X115277797Y-136656257D01*
X115232357Y-136720672D01*
X115192645Y-136781707D01*
X115180180Y-136794637D01*
X115166430Y-136814129D01*
X115113221Y-136864096D01*
X115066704Y-136912349D01*
X115047248Y-136926048D01*
X115025593Y-136946384D01*
X114968380Y-136981582D01*
X114918323Y-137016828D01*
X114891302Y-137029000D01*
X114861039Y-137047618D01*
X114803399Y-137068597D01*
X114752868Y-137091360D01*
X114718362Y-137099549D01*
X114679490Y-137113697D01*
X114624568Y-137121807D01*
X114576307Y-137133260D01*
X114535057Y-137135025D01*
X114488363Y-137141920D01*
X114438741Y-137139146D01*
X114395000Y-137141017D01*
X114348403Y-137134095D01*
X114295464Y-137131135D01*
X114253057Y-137119931D01*
X114215504Y-137114352D01*
X114165566Y-137096815D01*
X114108673Y-137081783D01*
X114074600Y-137064869D01*
X114044288Y-137054224D01*
X113993557Y-137024639D01*
X113935621Y-136995879D01*
X113910245Y-136976053D01*
X113887528Y-136962805D01*
X113838930Y-136920335D01*
X113783378Y-136876933D01*
X113766292Y-136856857D01*
X113750884Y-136843392D01*
X113707628Y-136787928D01*
X113658161Y-136729804D01*
X113648277Y-136711825D01*
X113639285Y-136700295D01*
X113604661Y-136632488D01*
X113565086Y-136560501D01*
X113560749Y-136546492D01*
X113556760Y-136538679D01*
X113533983Y-136460022D01*
X113507955Y-136375941D01*
X113507095Y-136367173D01*
X113506285Y-136364375D01*
X113498295Y-136277423D01*
X113489102Y-136183663D01*
X113498949Y-136089976D01*
X113507546Y-136003079D01*
X113508376Y-136000287D01*
X113509297Y-135991521D01*
X113535920Y-135907594D01*
X113559237Y-135829129D01*
X113563280Y-135821346D01*
X113567715Y-135807365D01*
X113607811Y-135735621D01*
X113642891Y-135668090D01*
X113651956Y-135656632D01*
X113661969Y-135638716D01*
X113711849Y-135580930D01*
X113755484Y-135525776D01*
X113770984Y-135512420D01*
X113788210Y-135492464D01*
X113844069Y-135449447D01*
X113892959Y-135407321D01*
X113915768Y-135394232D01*
X113941281Y-135374584D01*
X113999401Y-135346237D01*
X114050350Y-135316999D01*
X114080746Y-135306562D01*
X114114928Y-135289891D01*
X114171921Y-135275258D01*
X114221983Y-135258069D01*
X114259572Y-135252753D01*
X114302059Y-135241844D01*
X114355020Y-135239254D01*
X114401663Y-135232657D01*
X114445388Y-135234834D01*
X114495028Y-135232406D01*
X114541675Y-135239627D01*
X114541675Y-135239627D01*
G37*
G36*
X121145675Y-135239627D02*
G01*
X121186905Y-135241680D01*
X121235080Y-135253468D01*
X121289954Y-135261963D01*
X121328728Y-135276383D01*
X121363176Y-135284812D01*
X121413544Y-135307925D01*
X121471037Y-135329307D01*
X121501173Y-135348138D01*
X121528107Y-135360498D01*
X121577922Y-135396097D01*
X121634880Y-135431688D01*
X121656387Y-135452168D01*
X121675749Y-135466005D01*
X121721931Y-135514585D01*
X121774790Y-135564922D01*
X121788404Y-135584511D01*
X121800782Y-135597531D01*
X121840083Y-135658866D01*
X121885052Y-135723569D01*
X121892145Y-135740119D01*
X121898683Y-135750322D01*
X121927818Y-135823349D01*
X121961162Y-135901146D01*
X121963606Y-135913051D01*
X121965928Y-135918872D01*
X121981813Y-136001748D01*
X122000010Y-136090400D01*
X121999988Y-136096580D01*
X122000056Y-136096932D01*
X121999404Y-136283704D01*
X121999335Y-136284053D01*
X121999313Y-136290237D01*
X121980491Y-136378785D01*
X121964034Y-136461522D01*
X121961671Y-136467327D01*
X121959144Y-136479215D01*
X121925246Y-136556806D01*
X121895613Y-136629599D01*
X121889009Y-136639748D01*
X121881797Y-136656257D01*
X121836357Y-136720672D01*
X121796645Y-136781707D01*
X121784180Y-136794637D01*
X121770430Y-136814129D01*
X121717221Y-136864096D01*
X121670704Y-136912349D01*
X121651248Y-136926048D01*
X121629593Y-136946384D01*
X121572380Y-136981582D01*
X121522323Y-137016828D01*
X121495302Y-137029000D01*
X121465039Y-137047618D01*
X121407399Y-137068597D01*
X121356868Y-137091360D01*
X121322362Y-137099549D01*
X121283490Y-137113697D01*
X121228568Y-137121807D01*
X121180307Y-137133260D01*
X121139057Y-137135025D01*
X121092363Y-137141920D01*
X121042741Y-137139146D01*
X120999000Y-137141017D01*
X120952403Y-137134095D01*
X120899464Y-137131135D01*
X120857057Y-137119931D01*
X120819504Y-137114352D01*
X120769566Y-137096815D01*
X120712673Y-137081783D01*
X120678600Y-137064869D01*
X120648288Y-137054224D01*
X120597557Y-137024639D01*
X120539621Y-136995879D01*
X120514245Y-136976053D01*
X120491528Y-136962805D01*
X120442930Y-136920335D01*
X120387378Y-136876933D01*
X120370292Y-136856857D01*
X120354884Y-136843392D01*
X120311628Y-136787928D01*
X120262161Y-136729804D01*
X120252277Y-136711825D01*
X120243285Y-136700295D01*
X120208661Y-136632488D01*
X120169086Y-136560501D01*
X120164749Y-136546492D01*
X120160760Y-136538679D01*
X120137983Y-136460022D01*
X120111955Y-136375941D01*
X120111095Y-136367173D01*
X120110285Y-136364375D01*
X120102295Y-136277423D01*
X120093102Y-136183663D01*
X120102949Y-136089976D01*
X120111546Y-136003079D01*
X120112376Y-136000287D01*
X120113297Y-135991521D01*
X120139920Y-135907594D01*
X120163237Y-135829129D01*
X120167280Y-135821346D01*
X120171715Y-135807365D01*
X120211811Y-135735621D01*
X120246891Y-135668090D01*
X120255956Y-135656632D01*
X120265969Y-135638716D01*
X120315849Y-135580930D01*
X120359484Y-135525776D01*
X120374984Y-135512420D01*
X120392210Y-135492464D01*
X120448069Y-135449447D01*
X120496959Y-135407321D01*
X120519768Y-135394232D01*
X120545281Y-135374584D01*
X120603401Y-135346237D01*
X120654350Y-135316999D01*
X120684746Y-135306562D01*
X120718928Y-135289891D01*
X120775921Y-135275258D01*
X120825983Y-135258069D01*
X120863572Y-135252753D01*
X120906059Y-135241844D01*
X120959020Y-135239254D01*
X121005663Y-135232657D01*
X121049388Y-135234834D01*
X121099028Y-135232406D01*
X121145675Y-135239627D01*
X121145675Y-135239627D01*
G37*
G36*
X107937675Y-135239627D02*
G01*
X107978905Y-135241680D01*
X108027080Y-135253468D01*
X108081954Y-135261963D01*
X108120728Y-135276383D01*
X108155176Y-135284812D01*
X108205544Y-135307925D01*
X108263037Y-135329307D01*
X108293173Y-135348138D01*
X108320107Y-135360498D01*
X108369922Y-135396097D01*
X108426880Y-135431688D01*
X108448387Y-135452168D01*
X108467749Y-135466005D01*
X108513931Y-135514585D01*
X108566790Y-135564922D01*
X108580404Y-135584511D01*
X108592782Y-135597531D01*
X108632083Y-135658866D01*
X108677052Y-135723569D01*
X108684145Y-135740119D01*
X108690683Y-135750322D01*
X108719818Y-135823349D01*
X108753162Y-135901146D01*
X108755606Y-135913051D01*
X108757928Y-135918872D01*
X108773813Y-136001748D01*
X108792010Y-136090400D01*
X108791988Y-136096580D01*
X108792056Y-136096932D01*
X108791404Y-136283704D01*
X108791335Y-136284053D01*
X108791313Y-136290237D01*
X108772491Y-136378785D01*
X108756034Y-136461522D01*
X108753671Y-136467327D01*
X108751144Y-136479215D01*
X108717246Y-136556806D01*
X108687613Y-136629599D01*
X108681009Y-136639748D01*
X108673797Y-136656257D01*
X108628357Y-136720672D01*
X108588645Y-136781707D01*
X108576180Y-136794637D01*
X108562430Y-136814129D01*
X108509221Y-136864096D01*
X108462704Y-136912349D01*
X108443248Y-136926048D01*
X108421593Y-136946384D01*
X108364380Y-136981582D01*
X108314323Y-137016828D01*
X108287302Y-137029000D01*
X108257039Y-137047618D01*
X108199399Y-137068597D01*
X108148868Y-137091360D01*
X108114362Y-137099549D01*
X108075490Y-137113697D01*
X108020568Y-137121807D01*
X107972307Y-137133260D01*
X107931057Y-137135025D01*
X107884363Y-137141920D01*
X107834741Y-137139146D01*
X107791000Y-137141017D01*
X107744403Y-137134095D01*
X107691464Y-137131135D01*
X107649057Y-137119931D01*
X107611504Y-137114352D01*
X107561566Y-137096815D01*
X107504673Y-137081783D01*
X107470600Y-137064869D01*
X107440288Y-137054224D01*
X107389557Y-137024639D01*
X107331621Y-136995879D01*
X107306245Y-136976053D01*
X107283528Y-136962805D01*
X107234930Y-136920335D01*
X107179378Y-136876933D01*
X107162292Y-136856857D01*
X107146884Y-136843392D01*
X107103628Y-136787928D01*
X107054161Y-136729804D01*
X107044277Y-136711825D01*
X107035285Y-136700295D01*
X107000661Y-136632488D01*
X106961086Y-136560501D01*
X106956749Y-136546492D01*
X106952760Y-136538679D01*
X106929983Y-136460022D01*
X106903955Y-136375941D01*
X106903095Y-136367173D01*
X106902285Y-136364375D01*
X106894295Y-136277423D01*
X106885102Y-136183663D01*
X106894949Y-136089976D01*
X106903546Y-136003079D01*
X106904376Y-136000287D01*
X106905297Y-135991521D01*
X106931920Y-135907594D01*
X106955237Y-135829129D01*
X106959280Y-135821346D01*
X106963715Y-135807365D01*
X107003811Y-135735621D01*
X107038891Y-135668090D01*
X107047956Y-135656632D01*
X107057969Y-135638716D01*
X107107849Y-135580930D01*
X107151484Y-135525776D01*
X107166984Y-135512420D01*
X107184210Y-135492464D01*
X107240069Y-135449447D01*
X107288959Y-135407321D01*
X107311768Y-135394232D01*
X107337281Y-135374584D01*
X107395401Y-135346237D01*
X107446350Y-135316999D01*
X107476746Y-135306562D01*
X107510928Y-135289891D01*
X107567921Y-135275258D01*
X107617983Y-135258069D01*
X107655572Y-135252753D01*
X107698059Y-135241844D01*
X107751020Y-135239254D01*
X107797663Y-135232657D01*
X107841388Y-135234834D01*
X107891028Y-135232406D01*
X107937675Y-135239627D01*
X107937675Y-135239627D01*
G37*
G36*
X101333675Y-135239627D02*
G01*
X101374905Y-135241680D01*
X101423080Y-135253468D01*
X101477954Y-135261963D01*
X101516728Y-135276383D01*
X101551176Y-135284812D01*
X101601544Y-135307925D01*
X101659037Y-135329307D01*
X101689173Y-135348138D01*
X101716107Y-135360498D01*
X101765922Y-135396097D01*
X101822880Y-135431688D01*
X101844387Y-135452168D01*
X101863749Y-135466005D01*
X101909931Y-135514585D01*
X101962790Y-135564922D01*
X101976404Y-135584511D01*
X101988782Y-135597531D01*
X102028083Y-135658866D01*
X102073052Y-135723569D01*
X102080145Y-135740119D01*
X102086683Y-135750322D01*
X102115818Y-135823349D01*
X102149162Y-135901146D01*
X102151606Y-135913051D01*
X102153928Y-135918872D01*
X102169813Y-136001748D01*
X102188010Y-136090400D01*
X102187988Y-136096580D01*
X102188056Y-136096932D01*
X102187404Y-136283704D01*
X102187335Y-136284053D01*
X102187313Y-136290237D01*
X102168491Y-136378785D01*
X102152034Y-136461522D01*
X102149671Y-136467327D01*
X102147144Y-136479215D01*
X102113246Y-136556806D01*
X102083613Y-136629599D01*
X102077009Y-136639748D01*
X102069797Y-136656257D01*
X102024357Y-136720672D01*
X101984645Y-136781707D01*
X101972180Y-136794637D01*
X101958430Y-136814129D01*
X101905221Y-136864096D01*
X101858704Y-136912349D01*
X101839248Y-136926048D01*
X101817593Y-136946384D01*
X101760380Y-136981582D01*
X101710323Y-137016828D01*
X101683302Y-137029000D01*
X101653039Y-137047618D01*
X101595399Y-137068597D01*
X101544868Y-137091360D01*
X101510362Y-137099549D01*
X101471490Y-137113697D01*
X101416568Y-137121807D01*
X101368307Y-137133260D01*
X101327057Y-137135025D01*
X101280363Y-137141920D01*
X101230741Y-137139146D01*
X101187000Y-137141017D01*
X101140403Y-137134095D01*
X101087464Y-137131135D01*
X101045057Y-137119931D01*
X101007504Y-137114352D01*
X100957566Y-137096815D01*
X100900673Y-137081783D01*
X100866600Y-137064869D01*
X100836288Y-137054224D01*
X100785557Y-137024639D01*
X100727621Y-136995879D01*
X100702245Y-136976053D01*
X100679528Y-136962805D01*
X100630930Y-136920335D01*
X100575378Y-136876933D01*
X100558292Y-136856857D01*
X100542884Y-136843392D01*
X100499628Y-136787928D01*
X100450161Y-136729804D01*
X100440277Y-136711825D01*
X100431285Y-136700295D01*
X100396661Y-136632488D01*
X100357086Y-136560501D01*
X100352749Y-136546492D01*
X100348760Y-136538679D01*
X100325983Y-136460022D01*
X100299955Y-136375941D01*
X100299095Y-136367173D01*
X100298285Y-136364375D01*
X100290295Y-136277423D01*
X100281102Y-136183663D01*
X100290949Y-136089976D01*
X100299546Y-136003079D01*
X100300376Y-136000287D01*
X100301297Y-135991521D01*
X100327920Y-135907594D01*
X100351237Y-135829129D01*
X100355280Y-135821346D01*
X100359715Y-135807365D01*
X100399811Y-135735621D01*
X100434891Y-135668090D01*
X100443956Y-135656632D01*
X100453969Y-135638716D01*
X100503849Y-135580930D01*
X100547484Y-135525776D01*
X100562984Y-135512420D01*
X100580210Y-135492464D01*
X100636069Y-135449447D01*
X100684959Y-135407321D01*
X100707768Y-135394232D01*
X100733281Y-135374584D01*
X100791401Y-135346237D01*
X100842350Y-135316999D01*
X100872746Y-135306562D01*
X100906928Y-135289891D01*
X100963921Y-135275258D01*
X101013983Y-135258069D01*
X101051572Y-135252753D01*
X101094059Y-135241844D01*
X101147020Y-135239254D01*
X101193663Y-135232657D01*
X101237388Y-135234834D01*
X101287028Y-135232406D01*
X101333675Y-135239627D01*
X101333675Y-135239627D01*
G37*
G36*
X119428899Y-135238959D02*
G01*
X119445769Y-135250231D01*
X119457041Y-135267101D01*
X119463448Y-135299312D01*
X119463448Y-137074688D01*
X119460999Y-137087000D01*
X119457041Y-137106899D01*
X119445769Y-137123769D01*
X119428899Y-137135041D01*
X119409000Y-137138999D01*
X119396688Y-137141448D01*
X117621312Y-137141448D01*
X117589101Y-137135041D01*
X117572231Y-137123769D01*
X117560959Y-137106899D01*
X117554552Y-137074688D01*
X117554552Y-135299312D01*
X117560959Y-135267101D01*
X117572231Y-135250231D01*
X117589101Y-135238959D01*
X117621312Y-135232552D01*
X119396688Y-135232552D01*
X119428899Y-135238959D01*
X119428899Y-135238959D01*
G37*
G36*
X112824899Y-135238959D02*
G01*
X112841769Y-135250231D01*
X112853041Y-135267101D01*
X112859448Y-135299312D01*
X112859448Y-137074688D01*
X112856999Y-137087000D01*
X112853041Y-137106899D01*
X112841769Y-137123769D01*
X112824899Y-137135041D01*
X112805000Y-137138999D01*
X112792688Y-137141448D01*
X111017312Y-137141448D01*
X110985101Y-137135041D01*
X110968231Y-137123769D01*
X110956959Y-137106899D01*
X110950552Y-137074688D01*
X110950552Y-135299312D01*
X110956959Y-135267101D01*
X110968231Y-135250231D01*
X110985101Y-135238959D01*
X111017312Y-135232552D01*
X112792688Y-135232552D01*
X112824899Y-135238959D01*
X112824899Y-135238959D01*
G37*
G36*
X106220899Y-135238959D02*
G01*
X106237769Y-135250231D01*
X106249041Y-135267101D01*
X106255448Y-135299312D01*
X106255448Y-137074688D01*
X106252999Y-137087000D01*
X106249041Y-137106899D01*
X106237769Y-137123769D01*
X106220899Y-137135041D01*
X106201000Y-137138999D01*
X106188688Y-137141448D01*
X104413312Y-137141448D01*
X104381101Y-137135041D01*
X104364231Y-137123769D01*
X104352959Y-137106899D01*
X104346552Y-137074688D01*
X104346552Y-135299312D01*
X104352959Y-135267101D01*
X104364231Y-135250231D01*
X104381101Y-135238959D01*
X104413312Y-135232552D01*
X106188688Y-135232552D01*
X106220899Y-135238959D01*
X106220899Y-135238959D01*
G37*
G36*
X99616899Y-135238959D02*
G01*
X99633769Y-135250231D01*
X99645041Y-135267101D01*
X99651448Y-135299312D01*
X99651448Y-137074688D01*
X99648999Y-137087000D01*
X99645041Y-137106899D01*
X99633769Y-137123769D01*
X99616899Y-137135041D01*
X99597000Y-137138999D01*
X99584688Y-137141448D01*
X97809312Y-137141448D01*
X97777101Y-137135041D01*
X97760231Y-137123769D01*
X97748959Y-137106899D01*
X97742552Y-137074688D01*
X97742552Y-135299312D01*
X97748959Y-135267101D01*
X97760231Y-135250231D01*
X97777101Y-135238959D01*
X97809312Y-135232552D01*
X99584688Y-135232552D01*
X99616899Y-135238959D01*
X99616899Y-135238959D01*
G37*
G36*
X96056899Y-135738959D02*
G01*
X96073769Y-135750231D01*
X96085041Y-135767101D01*
X96091448Y-135799312D01*
X96091448Y-136574688D01*
X96088999Y-136587000D01*
X96085041Y-136606899D01*
X96073769Y-136623769D01*
X96056899Y-136635041D01*
X96037000Y-136638999D01*
X96024688Y-136641448D01*
X95149312Y-136641448D01*
X95117101Y-136635041D01*
X95100231Y-136623769D01*
X95088959Y-136606899D01*
X95082552Y-136574688D01*
X95082552Y-135799312D01*
X95088959Y-135767101D01*
X95100231Y-135750231D01*
X95117101Y-135738959D01*
X95149312Y-135732552D01*
X96024688Y-135732552D01*
X96056899Y-135738959D01*
X96056899Y-135738959D01*
G37*
G36*
X90036756Y-134305764D02*
G01*
X90048227Y-134311288D01*
X90056287Y-134312795D01*
X90073547Y-134323482D01*
X90118638Y-134345197D01*
X90138738Y-134363847D01*
X90151964Y-134372036D01*
X90162265Y-134385676D01*
X90185264Y-134407016D01*
X90207614Y-134445727D01*
X90219781Y-134461839D01*
X90221751Y-134470213D01*
X90229506Y-134483646D01*
X90248419Y-134583601D01*
X90251883Y-134598330D01*
X90251883Y-134601909D01*
X90253194Y-134608838D01*
X90253194Y-135481517D01*
X90238236Y-135580756D01*
X90232712Y-135592227D01*
X90231205Y-135600287D01*
X90220518Y-135617547D01*
X90198803Y-135662638D01*
X90180153Y-135682738D01*
X90171964Y-135695964D01*
X90158324Y-135706265D01*
X90136984Y-135729264D01*
X90098273Y-135751614D01*
X90082161Y-135763781D01*
X90073787Y-135765751D01*
X90060354Y-135773506D01*
X89960399Y-135792419D01*
X89945670Y-135795883D01*
X89942091Y-135795883D01*
X89935162Y-135797194D01*
X89312483Y-135797194D01*
X89213244Y-135782236D01*
X89201773Y-135776712D01*
X89193713Y-135775205D01*
X89176453Y-135764518D01*
X89131362Y-135742803D01*
X89111262Y-135724153D01*
X89098036Y-135715964D01*
X89087735Y-135702324D01*
X89064736Y-135680984D01*
X89042386Y-135642273D01*
X89030219Y-135626161D01*
X89028249Y-135617787D01*
X89020494Y-135604354D01*
X89001581Y-135504399D01*
X88998117Y-135489670D01*
X88998117Y-135486091D01*
X88996806Y-135479162D01*
X88996806Y-134606483D01*
X89011764Y-134507244D01*
X89017288Y-134495773D01*
X89018795Y-134487713D01*
X89029482Y-134470453D01*
X89051197Y-134425362D01*
X89069847Y-134405262D01*
X89078036Y-134392036D01*
X89091676Y-134381735D01*
X89113016Y-134358736D01*
X89151727Y-134336386D01*
X89167839Y-134324219D01*
X89176213Y-134322249D01*
X89189646Y-134314494D01*
X89289601Y-134295581D01*
X89304330Y-134292117D01*
X89307909Y-134292117D01*
X89314838Y-134290806D01*
X89937517Y-134290806D01*
X90036756Y-134305764D01*
X90036756Y-134305764D01*
G37*
G36*
X92086756Y-134305764D02*
G01*
X92098227Y-134311288D01*
X92106287Y-134312795D01*
X92123547Y-134323482D01*
X92168638Y-134345197D01*
X92188738Y-134363847D01*
X92201964Y-134372036D01*
X92212265Y-134385676D01*
X92235264Y-134407016D01*
X92257614Y-134445727D01*
X92269781Y-134461839D01*
X92271751Y-134470213D01*
X92279506Y-134483646D01*
X92298419Y-134583601D01*
X92301883Y-134598330D01*
X92301883Y-134601909D01*
X92303194Y-134608838D01*
X92303194Y-135481517D01*
X92288236Y-135580756D01*
X92282712Y-135592227D01*
X92281205Y-135600287D01*
X92270518Y-135617547D01*
X92248803Y-135662638D01*
X92230153Y-135682738D01*
X92221964Y-135695964D01*
X92208324Y-135706265D01*
X92186984Y-135729264D01*
X92148273Y-135751614D01*
X92132161Y-135763781D01*
X92123787Y-135765751D01*
X92110354Y-135773506D01*
X92010399Y-135792419D01*
X91995670Y-135795883D01*
X91992091Y-135795883D01*
X91985162Y-135797194D01*
X91362483Y-135797194D01*
X91263244Y-135782236D01*
X91251773Y-135776712D01*
X91243713Y-135775205D01*
X91226453Y-135764518D01*
X91181362Y-135742803D01*
X91161262Y-135724153D01*
X91148036Y-135715964D01*
X91137735Y-135702324D01*
X91114736Y-135680984D01*
X91092386Y-135642273D01*
X91080219Y-135626161D01*
X91078249Y-135617787D01*
X91070494Y-135604354D01*
X91051581Y-135504399D01*
X91048117Y-135489670D01*
X91048117Y-135486091D01*
X91046806Y-135479162D01*
X91046806Y-134606483D01*
X91061764Y-134507244D01*
X91067288Y-134495773D01*
X91068795Y-134487713D01*
X91079482Y-134470453D01*
X91101197Y-134425362D01*
X91119847Y-134405262D01*
X91128036Y-134392036D01*
X91141676Y-134381735D01*
X91163016Y-134358736D01*
X91201727Y-134336386D01*
X91217839Y-134324219D01*
X91226213Y-134322249D01*
X91239646Y-134314494D01*
X91339601Y-134295581D01*
X91354330Y-134292117D01*
X91357909Y-134292117D01*
X91364838Y-134290806D01*
X91987517Y-134290806D01*
X92086756Y-134305764D01*
X92086756Y-134305764D01*
G37*
G36*
X83188360Y-133953835D02*
G01*
X83269397Y-133980166D01*
X83356663Y-134007848D01*
X83359655Y-134009493D01*
X83368488Y-134012363D01*
X83440466Y-134053919D01*
X83511499Y-134092970D01*
X83518986Y-134099253D01*
X83532511Y-134107061D01*
X83590259Y-134159057D01*
X83646857Y-134206549D01*
X83656962Y-134219118D01*
X83673261Y-134233793D01*
X83715454Y-134291867D01*
X83757579Y-134344260D01*
X83767994Y-134364182D01*
X83784586Y-134387019D01*
X83811297Y-134447012D01*
X83839439Y-134500843D01*
X83847582Y-134528510D01*
X83861621Y-134560042D01*
X83873992Y-134618241D01*
X83889328Y-134670349D01*
X83892518Y-134705401D01*
X83900999Y-134745301D01*
X83900999Y-134798592D01*
X83905343Y-134846324D01*
X83900999Y-134887653D01*
X83900999Y-134934699D01*
X83891217Y-134980721D01*
X83886873Y-135022047D01*
X83872702Y-135067827D01*
X83861621Y-135119958D01*
X83845028Y-135157226D01*
X83834622Y-135190843D01*
X83808789Y-135238620D01*
X83784586Y-135292981D01*
X83764298Y-135320905D01*
X83750580Y-135346276D01*
X83711859Y-135393082D01*
X83673261Y-135446207D01*
X83652284Y-135465095D01*
X83637952Y-135482419D01*
X83585845Y-135524917D01*
X83532511Y-135572939D01*
X83513524Y-135583901D01*
X83501025Y-135594095D01*
X83435780Y-135628786D01*
X83368488Y-135667637D01*
X83353636Y-135672463D01*
X83345003Y-135677053D01*
X83267430Y-135700473D01*
X83188360Y-135726165D01*
X83179114Y-135727137D01*
X83175851Y-135728122D01*
X83084710Y-135737059D01*
X83047211Y-135741000D01*
X82952789Y-135741000D01*
X82811640Y-135726165D01*
X82730603Y-135699834D01*
X82643337Y-135672152D01*
X82640345Y-135670507D01*
X82631512Y-135667637D01*
X82559534Y-135626081D01*
X82488501Y-135587030D01*
X82481014Y-135580747D01*
X82467489Y-135572939D01*
X82409741Y-135520943D01*
X82353143Y-135473451D01*
X82343038Y-135460882D01*
X82326739Y-135446207D01*
X82284546Y-135388133D01*
X82242421Y-135335740D01*
X82232006Y-135315818D01*
X82215414Y-135292981D01*
X82188703Y-135232988D01*
X82160561Y-135179157D01*
X82152418Y-135151490D01*
X82138379Y-135119958D01*
X82126008Y-135061759D01*
X82110672Y-135009651D01*
X82107482Y-134974599D01*
X82099001Y-134934699D01*
X82099001Y-134881408D01*
X82094657Y-134833676D01*
X82099001Y-134792347D01*
X82099001Y-134745301D01*
X82108783Y-134699279D01*
X82113127Y-134657953D01*
X82127298Y-134612173D01*
X82138379Y-134560042D01*
X82154972Y-134522774D01*
X82165378Y-134489157D01*
X82191211Y-134441380D01*
X82215414Y-134387019D01*
X82235702Y-134359095D01*
X82249420Y-134333724D01*
X82288141Y-134286918D01*
X82326739Y-134233793D01*
X82347716Y-134214905D01*
X82362048Y-134197581D01*
X82414155Y-134155083D01*
X82467489Y-134107061D01*
X82486476Y-134096099D01*
X82498975Y-134085905D01*
X82564220Y-134051214D01*
X82631512Y-134012363D01*
X82646364Y-134007537D01*
X82654997Y-134002947D01*
X82732570Y-133979527D01*
X82811640Y-133953835D01*
X82820886Y-133952863D01*
X82824149Y-133951878D01*
X82915290Y-133942941D01*
X82952789Y-133939000D01*
X83047211Y-133939000D01*
X83188360Y-133953835D01*
X83188360Y-133953835D01*
G37*
G36*
X94056899Y-134788959D02*
G01*
X94073769Y-134800231D01*
X94085041Y-134817101D01*
X94091448Y-134849312D01*
X94091448Y-135624688D01*
X94088999Y-135637000D01*
X94085041Y-135656899D01*
X94073769Y-135673769D01*
X94056899Y-135685041D01*
X94037000Y-135688999D01*
X94024688Y-135691448D01*
X93149312Y-135691448D01*
X93117101Y-135685041D01*
X93100231Y-135673769D01*
X93088959Y-135656899D01*
X93082552Y-135624688D01*
X93082552Y-134849312D01*
X93088959Y-134817101D01*
X93100231Y-134800231D01*
X93117101Y-134788959D01*
X93149312Y-134782552D01*
X94024688Y-134782552D01*
X94056899Y-134788959D01*
X94056899Y-134788959D01*
G37*
M02*
