G04 #@! TF.GenerationSoftware,KiCad,Pcbnew,6.0.0-unknown-ea0edab~86~ubuntu18.04.1*
G04 #@! TF.CreationDate,2019-07-07T16:33:58+02:00*
G04 #@! TF.ProjectId,ir-transmitter,69722d74-7261-46e7-936d-69747465722e,rev?*
G04 #@! TF.SameCoordinates,Original*
G04 #@! TF.FileFunction,Copper,L1,Top*
G04 #@! TF.FilePolarity,Positive*
%FSLAX46Y46*%
G04 Gerber Fmt 4.6, Leading zero omitted, Abs format (unit mm)*
G04 Created by KiCad (PCBNEW 6.0.0-unknown-ea0edab~86~ubuntu18.04.1) date 2019-07-07 16:33:58*
%MOMM*%
%LPD*%
G04 APERTURE LIST*
%ADD10O,1.700000X1.700000*%
%ADD11R,1.700000X1.700000*%
%ADD12R,0.900000X0.800000*%
%ADD13C,0.100000*%
%ADD14C,1.150000*%
%ADD15C,1.800000*%
%ADD16R,1.800000X1.800000*%
%ADD17C,1.425000*%
%ADD18C,0.800000*%
%ADD19C,0.250000*%
%ADD20C,0.300000*%
%ADD21C,0.150000*%
G04 APERTURE END LIST*
D10*
X83000000Y-134840000D03*
X83000000Y-137380000D03*
X83000000Y-139920000D03*
X83000000Y-142460000D03*
D11*
X83000000Y-145000000D03*
D12*
X95587000Y-136187000D03*
X93587000Y-137137000D03*
X93587000Y-135237000D03*
X95587000Y-142918000D03*
X93587000Y-143868000D03*
X93587000Y-141968000D03*
D13*
G36*
X90045671Y-134363030D02*
G01*
X90126777Y-134417223D01*
X90180970Y-134498329D01*
X90200000Y-134593999D01*
X90200000Y-135494001D01*
X90180970Y-135589671D01*
X90126777Y-135670777D01*
X90045671Y-135724970D01*
X89950001Y-135744000D01*
X89299999Y-135744000D01*
X89204329Y-135724970D01*
X89123223Y-135670777D01*
X89069030Y-135589671D01*
X89050000Y-135494001D01*
X89050000Y-134593999D01*
X89069030Y-134498329D01*
X89123223Y-134417223D01*
X89204329Y-134363030D01*
X89299999Y-134344000D01*
X89950001Y-134344000D01*
X90045671Y-134363030D01*
X90045671Y-134363030D01*
G37*
D14*
X89625000Y-135044000D03*
D13*
G36*
X92095671Y-134363030D02*
G01*
X92176777Y-134417223D01*
X92230970Y-134498329D01*
X92250000Y-134593999D01*
X92250000Y-135494001D01*
X92230970Y-135589671D01*
X92176777Y-135670777D01*
X92095671Y-135724970D01*
X92000001Y-135744000D01*
X91349999Y-135744000D01*
X91254329Y-135724970D01*
X91173223Y-135670777D01*
X91119030Y-135589671D01*
X91100000Y-135494001D01*
X91100000Y-134593999D01*
X91119030Y-134498329D01*
X91173223Y-134417223D01*
X91254329Y-134363030D01*
X91349999Y-134344000D01*
X92000001Y-134344000D01*
X92095671Y-134363030D01*
X92095671Y-134363030D01*
G37*
D14*
X91675000Y-135044000D03*
D13*
G36*
X90045671Y-136649030D02*
G01*
X90126777Y-136703223D01*
X90180970Y-136784329D01*
X90200000Y-136879999D01*
X90200000Y-137780001D01*
X90180970Y-137875671D01*
X90126777Y-137956777D01*
X90045671Y-138010970D01*
X89950001Y-138030000D01*
X89299999Y-138030000D01*
X89204329Y-138010970D01*
X89123223Y-137956777D01*
X89069030Y-137875671D01*
X89050000Y-137780001D01*
X89050000Y-136879999D01*
X89069030Y-136784329D01*
X89123223Y-136703223D01*
X89204329Y-136649030D01*
X89299999Y-136630000D01*
X89950001Y-136630000D01*
X90045671Y-136649030D01*
X90045671Y-136649030D01*
G37*
D14*
X89625000Y-137330000D03*
D13*
G36*
X92095671Y-136649030D02*
G01*
X92176777Y-136703223D01*
X92230970Y-136784329D01*
X92250000Y-136879999D01*
X92250000Y-137780001D01*
X92230970Y-137875671D01*
X92176777Y-137956777D01*
X92095671Y-138010970D01*
X92000001Y-138030000D01*
X91349999Y-138030000D01*
X91254329Y-138010970D01*
X91173223Y-137956777D01*
X91119030Y-137875671D01*
X91100000Y-137780001D01*
X91100000Y-136879999D01*
X91119030Y-136784329D01*
X91173223Y-136703223D01*
X91254329Y-136649030D01*
X91349999Y-136630000D01*
X92000001Y-136630000D01*
X92095671Y-136649030D01*
X92095671Y-136649030D01*
G37*
D14*
X91675000Y-137330000D03*
D13*
G36*
X90045671Y-141221030D02*
G01*
X90126777Y-141275223D01*
X90180970Y-141356329D01*
X90200000Y-141451999D01*
X90200000Y-142352001D01*
X90180970Y-142447671D01*
X90126777Y-142528777D01*
X90045671Y-142582970D01*
X89950001Y-142602000D01*
X89299999Y-142602000D01*
X89204329Y-142582970D01*
X89123223Y-142528777D01*
X89069030Y-142447671D01*
X89050000Y-142352001D01*
X89050000Y-141451999D01*
X89069030Y-141356329D01*
X89123223Y-141275223D01*
X89204329Y-141221030D01*
X89299999Y-141202000D01*
X89950001Y-141202000D01*
X90045671Y-141221030D01*
X90045671Y-141221030D01*
G37*
D14*
X89625000Y-141902000D03*
D13*
G36*
X92095671Y-141221030D02*
G01*
X92176777Y-141275223D01*
X92230970Y-141356329D01*
X92250000Y-141451999D01*
X92250000Y-142352001D01*
X92230970Y-142447671D01*
X92176777Y-142528777D01*
X92095671Y-142582970D01*
X92000001Y-142602000D01*
X91349999Y-142602000D01*
X91254329Y-142582970D01*
X91173223Y-142528777D01*
X91119030Y-142447671D01*
X91100000Y-142352001D01*
X91100000Y-141451999D01*
X91119030Y-141356329D01*
X91173223Y-141275223D01*
X91254329Y-141221030D01*
X91349999Y-141202000D01*
X92000001Y-141202000D01*
X92095671Y-141221030D01*
X92095671Y-141221030D01*
G37*
D14*
X91675000Y-141902000D03*
D13*
G36*
X90045671Y-143507030D02*
G01*
X90126777Y-143561223D01*
X90180970Y-143642329D01*
X90200000Y-143737999D01*
X90200000Y-144638001D01*
X90180970Y-144733671D01*
X90126777Y-144814777D01*
X90045671Y-144868970D01*
X89950001Y-144888000D01*
X89299999Y-144888000D01*
X89204329Y-144868970D01*
X89123223Y-144814777D01*
X89069030Y-144733671D01*
X89050000Y-144638001D01*
X89050000Y-143737999D01*
X89069030Y-143642329D01*
X89123223Y-143561223D01*
X89204329Y-143507030D01*
X89299999Y-143488000D01*
X89950001Y-143488000D01*
X90045671Y-143507030D01*
X90045671Y-143507030D01*
G37*
D14*
X89625000Y-144188000D03*
D13*
G36*
X92095671Y-143507030D02*
G01*
X92176777Y-143561223D01*
X92230970Y-143642329D01*
X92250000Y-143737999D01*
X92250000Y-144638001D01*
X92230970Y-144733671D01*
X92176777Y-144814777D01*
X92095671Y-144868970D01*
X92000001Y-144888000D01*
X91349999Y-144888000D01*
X91254329Y-144868970D01*
X91173223Y-144814777D01*
X91119030Y-144733671D01*
X91100000Y-144638001D01*
X91100000Y-143737999D01*
X91119030Y-143642329D01*
X91173223Y-143561223D01*
X91254329Y-143507030D01*
X91349999Y-143488000D01*
X92000001Y-143488000D01*
X92095671Y-143507030D01*
X92095671Y-143507030D01*
G37*
D14*
X91675000Y-144188000D03*
D15*
X101237000Y-136187000D03*
D16*
X98697000Y-136187000D03*
D15*
X107841000Y-136187000D03*
D16*
X105301000Y-136187000D03*
D15*
X114445000Y-136187000D03*
D16*
X111905000Y-136187000D03*
D15*
X121049000Y-136187000D03*
D16*
X118509000Y-136187000D03*
D15*
X101237000Y-142918000D03*
D16*
X98697000Y-142918000D03*
D15*
X107841000Y-142918000D03*
D16*
X105301000Y-142918000D03*
D15*
X114445000Y-142918000D03*
D16*
X111905000Y-142918000D03*
D15*
X121049000Y-142918000D03*
D16*
X118509000Y-142918000D03*
D13*
G36*
X127645671Y-138544030D02*
G01*
X127726777Y-138598223D01*
X127780970Y-138679329D01*
X127800000Y-138775000D01*
X127800000Y-140025000D01*
X127780970Y-140120671D01*
X127726777Y-140201777D01*
X127645671Y-140255970D01*
X127550000Y-140275000D01*
X126625000Y-140275000D01*
X126529329Y-140255970D01*
X126448223Y-140201777D01*
X126394030Y-140120671D01*
X126375000Y-140025000D01*
X126375000Y-138775000D01*
X126394030Y-138679329D01*
X126448223Y-138598223D01*
X126529329Y-138544030D01*
X126625000Y-138525000D01*
X127550000Y-138525000D01*
X127645671Y-138544030D01*
X127645671Y-138544030D01*
G37*
D17*
X127087500Y-139400000D03*
D13*
G36*
X124670671Y-138544030D02*
G01*
X124751777Y-138598223D01*
X124805970Y-138679329D01*
X124825000Y-138775000D01*
X124825000Y-140025000D01*
X124805970Y-140120671D01*
X124751777Y-140201777D01*
X124670671Y-140255970D01*
X124575000Y-140275000D01*
X123650000Y-140275000D01*
X123554329Y-140255970D01*
X123473223Y-140201777D01*
X123419030Y-140120671D01*
X123400000Y-140025000D01*
X123400000Y-138775000D01*
X123419030Y-138679329D01*
X123473223Y-138598223D01*
X123554329Y-138544030D01*
X123650000Y-138525000D01*
X124575000Y-138525000D01*
X124670671Y-138544030D01*
X124670671Y-138544030D01*
G37*
D17*
X124112500Y-139400000D03*
D18*
X91800000Y-138800000D03*
X93600000Y-138400000D03*
X91800000Y-145800000D03*
X93600000Y-145200000D03*
X127200000Y-137000000D03*
X127200000Y-142000000D03*
X81000000Y-131000000D03*
D19*
X98697000Y-142918000D02*
X97682000Y-142918000D01*
X97682000Y-142918000D02*
X97547000Y-142918000D01*
X97682000Y-142918000D02*
X95587000Y-142918000D01*
D20*
X91800000Y-138800000D02*
X91800000Y-137481000D01*
X93600000Y-138400000D02*
X93600000Y-137081000D01*
X91800000Y-145800000D02*
X91800000Y-144481000D01*
X93600000Y-145200000D02*
X93600000Y-143881000D01*
X93600000Y-143881000D02*
X93587000Y-143868000D01*
X127200000Y-137000000D02*
X127200000Y-142000000D01*
D19*
X88780000Y-139920000D02*
X89625000Y-139075000D01*
X89625000Y-139075000D02*
X89625000Y-137330000D01*
X83000000Y-139920000D02*
X88780000Y-139920000D01*
X85998000Y-141902000D02*
X85440000Y-142460000D01*
X85440000Y-142460000D02*
X83000000Y-142460000D01*
X89625000Y-141902000D02*
X85998000Y-141902000D01*
X89625000Y-135044000D02*
X89625000Y-137330000D01*
X91868000Y-135237000D02*
X91675000Y-135044000D01*
X93587000Y-135237000D02*
X91868000Y-135237000D01*
X91868000Y-137137000D02*
X91675000Y-137330000D01*
X96287000Y-136187000D02*
X98397000Y-136187000D01*
X95587000Y-136187000D02*
X96287000Y-136187000D01*
X102509792Y-136187000D02*
X105301000Y-136187000D01*
X101237000Y-136187000D02*
X102509792Y-136187000D01*
X102509792Y-142918000D02*
X105301000Y-142918000D01*
X101237000Y-142918000D02*
X102509792Y-142918000D01*
X118509000Y-142918000D02*
X114445000Y-142918000D01*
X115717792Y-136187000D02*
X118509000Y-136187000D01*
X114445000Y-136187000D02*
X115717792Y-136187000D01*
X111905000Y-136187000D02*
X107841000Y-136187000D01*
X107841000Y-142918000D02*
X111905000Y-142918000D01*
X89625000Y-144188000D02*
X89625000Y-141902000D01*
X91741000Y-141968000D02*
X91675000Y-141902000D01*
X93587000Y-141968000D02*
X91741000Y-141968000D01*
X91756500Y-144269500D02*
X91675000Y-144188000D01*
X93267000Y-144188000D02*
X93587000Y-143868000D01*
D20*
X121049000Y-142918000D02*
X121049000Y-141645208D01*
D21*
G36*
X129725001Y-149725000D02*
G01*
X80275000Y-149725000D01*
X80275000Y-145254000D01*
X81559163Y-145254000D01*
X81559163Y-145850000D01*
X81561719Y-145869411D01*
X81630828Y-146127330D01*
X81645819Y-146156128D01*
X81760973Y-146293363D01*
X81780926Y-146310106D01*
X81936073Y-146399680D01*
X81960549Y-146408589D01*
X82136976Y-146439698D01*
X82150000Y-146440837D01*
X82746000Y-146440837D01*
X82794209Y-146423290D01*
X82821000Y-146365837D01*
X82821000Y-145254000D01*
X83179000Y-145254000D01*
X83179000Y-146365837D01*
X83196547Y-146414046D01*
X83254000Y-146440837D01*
X83850000Y-146440837D01*
X83869411Y-146438281D01*
X84127330Y-146369172D01*
X84156128Y-146354181D01*
X84293363Y-146239027D01*
X84310106Y-146219074D01*
X84399680Y-146063927D01*
X84408589Y-146039451D01*
X84439698Y-145863024D01*
X84440837Y-145850000D01*
X84440837Y-145254000D01*
X84423290Y-145205791D01*
X84365837Y-145179000D01*
X83254000Y-145179000D01*
X83205791Y-145196547D01*
X83179000Y-145254000D01*
X82821000Y-145254000D01*
X82803453Y-145205791D01*
X82746000Y-145179000D01*
X81634163Y-145179000D01*
X81585954Y-145196547D01*
X81559163Y-145254000D01*
X80275000Y-145254000D01*
X80275000Y-144150000D01*
X81559163Y-144150000D01*
X81559163Y-144746000D01*
X81576710Y-144794209D01*
X81634163Y-144821000D01*
X82746000Y-144821000D01*
X82794209Y-144803453D01*
X82821000Y-144746000D01*
X82821000Y-143634163D01*
X83179000Y-143634163D01*
X83179000Y-144746000D01*
X83196547Y-144794209D01*
X83254000Y-144821000D01*
X84365837Y-144821000D01*
X84414046Y-144803453D01*
X84440837Y-144746000D01*
X84440837Y-144150000D01*
X84438281Y-144130589D01*
X84369172Y-143872671D01*
X84354181Y-143843873D01*
X84239027Y-143706637D01*
X84219074Y-143689894D01*
X84063927Y-143600320D01*
X84039451Y-143591411D01*
X83863024Y-143560302D01*
X83850000Y-143559163D01*
X83254000Y-143559163D01*
X83205791Y-143576710D01*
X83179000Y-143634163D01*
X82821000Y-143634163D01*
X82803453Y-143585954D01*
X82749732Y-143560903D01*
X82757959Y-143563513D01*
X82772797Y-143566613D01*
X82943827Y-143584589D01*
X82951667Y-143585000D01*
X83051809Y-143585000D01*
X83059128Y-143584642D01*
X83212252Y-143569628D01*
X83226610Y-143566785D01*
X83423737Y-143507269D01*
X83437270Y-143501691D01*
X83619082Y-143405020D01*
X83631274Y-143396920D01*
X83790847Y-143266775D01*
X83801233Y-143256461D01*
X83932489Y-143097800D01*
X83940675Y-143085665D01*
X84038613Y-142904532D01*
X84044285Y-142891038D01*
X84053893Y-142860000D01*
X85429550Y-142860000D01*
X85488051Y-142863066D01*
X85526025Y-142854995D01*
X85540655Y-142847541D01*
X85590735Y-142836896D01*
X85619226Y-142824211D01*
X85731001Y-142743001D01*
X85751869Y-142719825D01*
X85760077Y-142705608D01*
X86163685Y-142302000D01*
X88771536Y-142302000D01*
X88771536Y-142347670D01*
X88773528Y-142364841D01*
X88821522Y-142568897D01*
X88834679Y-142596923D01*
X88936065Y-142731181D01*
X88956434Y-142749750D01*
X89099474Y-142838316D01*
X89125175Y-142848273D01*
X89225001Y-142866934D01*
X89225000Y-143226147D01*
X89083102Y-143259522D01*
X89055077Y-143272679D01*
X88920819Y-143374065D01*
X88902250Y-143394434D01*
X88813684Y-143537474D01*
X88803727Y-143563175D01*
X88772813Y-143728549D01*
X88771536Y-143742330D01*
X88771536Y-144633670D01*
X88773528Y-144650841D01*
X88821522Y-144854897D01*
X88834679Y-144882923D01*
X88936065Y-145017181D01*
X88956434Y-145035750D01*
X89099474Y-145124316D01*
X89125175Y-145134273D01*
X89290549Y-145165187D01*
X89304330Y-145166464D01*
X89945670Y-145166464D01*
X89962841Y-145164472D01*
X90166897Y-145116478D01*
X90194923Y-145103321D01*
X90329181Y-145001935D01*
X90347750Y-144981566D01*
X90436316Y-144838526D01*
X90446273Y-144812825D01*
X90477187Y-144647451D01*
X90478464Y-144633670D01*
X90478464Y-143742330D01*
X90821536Y-143742330D01*
X90821536Y-144633670D01*
X90823528Y-144650841D01*
X90871522Y-144854897D01*
X90884679Y-144882923D01*
X90986065Y-145017181D01*
X91006434Y-145035750D01*
X91149474Y-145124316D01*
X91175175Y-145134273D01*
X91340549Y-145165187D01*
X91354330Y-145166464D01*
X91375001Y-145166464D01*
X91375000Y-145274434D01*
X91326363Y-145309771D01*
X91309771Y-145326363D01*
X91198056Y-145480126D01*
X91187403Y-145501034D01*
X91128671Y-145681793D01*
X91125000Y-145704969D01*
X91125000Y-145895031D01*
X91128671Y-145918207D01*
X91187403Y-146098966D01*
X91198056Y-146119874D01*
X91309771Y-146273637D01*
X91326363Y-146290229D01*
X91480126Y-146401944D01*
X91501034Y-146412597D01*
X91681793Y-146471329D01*
X91704969Y-146475000D01*
X91895031Y-146475000D01*
X91918207Y-146471329D01*
X92098966Y-146412597D01*
X92119874Y-146401944D01*
X92273637Y-146290229D01*
X92290229Y-146273637D01*
X92401944Y-146119874D01*
X92412597Y-146098966D01*
X92471329Y-145918207D01*
X92475000Y-145895031D01*
X92475000Y-145704969D01*
X92471329Y-145681793D01*
X92412597Y-145501034D01*
X92401944Y-145480126D01*
X92290229Y-145326363D01*
X92273637Y-145309770D01*
X92225000Y-145274434D01*
X92225000Y-145112674D01*
X92244923Y-145103321D01*
X92379181Y-145001935D01*
X92397750Y-144981566D01*
X92486316Y-144838526D01*
X92496273Y-144812825D01*
X92527187Y-144647451D01*
X92528464Y-144633670D01*
X92528464Y-143742330D01*
X92526472Y-143725159D01*
X92478478Y-143521103D01*
X92465321Y-143493077D01*
X92446384Y-143468000D01*
X92858082Y-143468000D01*
X92858082Y-144268000D01*
X92859523Y-144282631D01*
X92875045Y-144360667D01*
X92886244Y-144387704D01*
X92930448Y-144453860D01*
X92951140Y-144474552D01*
X93017296Y-144518756D01*
X93044332Y-144529955D01*
X93065199Y-144534106D01*
X93146956Y-144575763D01*
X93175001Y-144583278D01*
X93175000Y-144674434D01*
X93126363Y-144709771D01*
X93109771Y-144726363D01*
X92998056Y-144880126D01*
X92987403Y-144901034D01*
X92928671Y-145081793D01*
X92925000Y-145104969D01*
X92925000Y-145295031D01*
X92928671Y-145318207D01*
X92987403Y-145498966D01*
X92998056Y-145519874D01*
X93109771Y-145673637D01*
X93126363Y-145690229D01*
X93280126Y-145801944D01*
X93301034Y-145812597D01*
X93481793Y-145871329D01*
X93504969Y-145875000D01*
X93695031Y-145875000D01*
X93718207Y-145871329D01*
X93898966Y-145812597D01*
X93919874Y-145801944D01*
X94073637Y-145690229D01*
X94090229Y-145673637D01*
X94201944Y-145519874D01*
X94212597Y-145498966D01*
X94271329Y-145318207D01*
X94275000Y-145295031D01*
X94275000Y-145104969D01*
X94271329Y-145081793D01*
X94212597Y-144901034D01*
X94201944Y-144880126D01*
X94090229Y-144726363D01*
X94073637Y-144709770D01*
X94025000Y-144674434D01*
X94025000Y-144546918D01*
X94037000Y-144546918D01*
X94051631Y-144545477D01*
X94129667Y-144529955D01*
X94156704Y-144518756D01*
X94222860Y-144474552D01*
X94243552Y-144453860D01*
X94287756Y-144387704D01*
X94298955Y-144360667D01*
X94314477Y-144282631D01*
X94315918Y-144268000D01*
X94315918Y-143468000D01*
X94314477Y-143453369D01*
X94298955Y-143375333D01*
X94287756Y-143348296D01*
X94243552Y-143282140D01*
X94222860Y-143261448D01*
X94156704Y-143217244D01*
X94129667Y-143206045D01*
X94051631Y-143190523D01*
X94037000Y-143189082D01*
X93137000Y-143189082D01*
X93122369Y-143190523D01*
X93044333Y-143206045D01*
X93017296Y-143217244D01*
X92951140Y-143261448D01*
X92930448Y-143282140D01*
X92886244Y-143348296D01*
X92875045Y-143375333D01*
X92859523Y-143453369D01*
X92858082Y-143468000D01*
X92446384Y-143468000D01*
X92363935Y-143358819D01*
X92343566Y-143340250D01*
X92200526Y-143251684D01*
X92174825Y-143241727D01*
X92009451Y-143210813D01*
X91995670Y-143209536D01*
X91354330Y-143209536D01*
X91337159Y-143211528D01*
X91133103Y-143259522D01*
X91105077Y-143272679D01*
X90970819Y-143374065D01*
X90952250Y-143394434D01*
X90863684Y-143537474D01*
X90853727Y-143563175D01*
X90822813Y-143728549D01*
X90821536Y-143742330D01*
X90478464Y-143742330D01*
X90476472Y-143725159D01*
X90428478Y-143521103D01*
X90415321Y-143493077D01*
X90313935Y-143358819D01*
X90293566Y-143340250D01*
X90150526Y-143251684D01*
X90124826Y-143241727D01*
X90025000Y-143223066D01*
X90025000Y-142863853D01*
X90166898Y-142830478D01*
X90194923Y-142817321D01*
X90329181Y-142715935D01*
X90347750Y-142695566D01*
X90436316Y-142552526D01*
X90446273Y-142526825D01*
X90477187Y-142361451D01*
X90478464Y-142347670D01*
X90478464Y-141456330D01*
X90821536Y-141456330D01*
X90821536Y-142347670D01*
X90823528Y-142364841D01*
X90871522Y-142568897D01*
X90884679Y-142596923D01*
X90986065Y-142731181D01*
X91006434Y-142749750D01*
X91149474Y-142838316D01*
X91175175Y-142848273D01*
X91340549Y-142879187D01*
X91354330Y-142880464D01*
X91995670Y-142880464D01*
X92012841Y-142878472D01*
X92216897Y-142830478D01*
X92244923Y-142817321D01*
X92379181Y-142715935D01*
X92397750Y-142695566D01*
X92486316Y-142552526D01*
X92496273Y-142526825D01*
X92525963Y-142368000D01*
X92858082Y-142368000D01*
X92859523Y-142382631D01*
X92875045Y-142460667D01*
X92886244Y-142487704D01*
X92930448Y-142553860D01*
X92951140Y-142574552D01*
X93017296Y-142618756D01*
X93044333Y-142629955D01*
X93122369Y-142645477D01*
X93137000Y-142646918D01*
X94037000Y-142646918D01*
X94051631Y-142645477D01*
X94129667Y-142629955D01*
X94156704Y-142618756D01*
X94222860Y-142574552D01*
X94243552Y-142553860D01*
X94267512Y-142518000D01*
X94858082Y-142518000D01*
X94858082Y-143318000D01*
X94859523Y-143332631D01*
X94875045Y-143410667D01*
X94886244Y-143437704D01*
X94930448Y-143503860D01*
X94951140Y-143524552D01*
X95017296Y-143568756D01*
X95044333Y-143579955D01*
X95122369Y-143595477D01*
X95137000Y-143596918D01*
X96037000Y-143596918D01*
X96051631Y-143595477D01*
X96129667Y-143579955D01*
X96156704Y-143568756D01*
X96222860Y-143524552D01*
X96243552Y-143503860D01*
X96287756Y-143437704D01*
X96298955Y-143410667D01*
X96314477Y-143332631D01*
X96315918Y-143318000D01*
X97518082Y-143318000D01*
X97518082Y-143818000D01*
X97519523Y-143832631D01*
X97535045Y-143910667D01*
X97546244Y-143937704D01*
X97590448Y-144003860D01*
X97611140Y-144024552D01*
X97677296Y-144068756D01*
X97704333Y-144079955D01*
X97782369Y-144095477D01*
X97797000Y-144096918D01*
X99597000Y-144096918D01*
X99611631Y-144095477D01*
X99689667Y-144079955D01*
X99716704Y-144068756D01*
X99782860Y-144024552D01*
X99803552Y-144003860D01*
X99847756Y-143937704D01*
X99858955Y-143910667D01*
X99874477Y-143832631D01*
X99875918Y-143818000D01*
X99875918Y-142921006D01*
X100057319Y-142921006D01*
X100076525Y-143130025D01*
X100079170Y-143144023D01*
X100137554Y-143345640D01*
X100142798Y-143358887D01*
X100238254Y-143545826D01*
X100245909Y-143557841D01*
X100374992Y-143723357D01*
X100384780Y-143733708D01*
X100542832Y-143871829D01*
X100554402Y-143880143D01*
X100735721Y-143985885D01*
X100748654Y-143991860D01*
X100946697Y-144061408D01*
X100960526Y-144064831D01*
X101168148Y-144095675D01*
X101182375Y-144096420D01*
X101392083Y-144087447D01*
X101406195Y-144085489D01*
X101610423Y-144037023D01*
X101623909Y-144032432D01*
X101815287Y-143946222D01*
X101827662Y-143939164D01*
X101999286Y-143818321D01*
X102010103Y-143809049D01*
X102155780Y-143657933D01*
X102164648Y-143646784D01*
X102279122Y-143470847D01*
X102285723Y-143458221D01*
X102342803Y-143318000D01*
X104122082Y-143318000D01*
X104122082Y-143818000D01*
X104123523Y-143832631D01*
X104139045Y-143910667D01*
X104150244Y-143937704D01*
X104194448Y-144003860D01*
X104215140Y-144024552D01*
X104281296Y-144068756D01*
X104308333Y-144079955D01*
X104386369Y-144095477D01*
X104401000Y-144096918D01*
X106201000Y-144096918D01*
X106215631Y-144095477D01*
X106293667Y-144079955D01*
X106320704Y-144068756D01*
X106386860Y-144024552D01*
X106407552Y-144003860D01*
X106451756Y-143937704D01*
X106462955Y-143910667D01*
X106478477Y-143832631D01*
X106479918Y-143818000D01*
X106479918Y-142921006D01*
X106661319Y-142921006D01*
X106680525Y-143130025D01*
X106683170Y-143144023D01*
X106741554Y-143345640D01*
X106746798Y-143358887D01*
X106842254Y-143545826D01*
X106849909Y-143557841D01*
X106978992Y-143723357D01*
X106988780Y-143733708D01*
X107146832Y-143871829D01*
X107158402Y-143880143D01*
X107339721Y-143985885D01*
X107352654Y-143991860D01*
X107550697Y-144061408D01*
X107564526Y-144064831D01*
X107772148Y-144095675D01*
X107786375Y-144096420D01*
X107996083Y-144087447D01*
X108010195Y-144085489D01*
X108214423Y-144037023D01*
X108227909Y-144032432D01*
X108419287Y-143946222D01*
X108431662Y-143939164D01*
X108603286Y-143818321D01*
X108614103Y-143809049D01*
X108759780Y-143657933D01*
X108768648Y-143646784D01*
X108883122Y-143470847D01*
X108889723Y-143458221D01*
X108946803Y-143318000D01*
X110726082Y-143318000D01*
X110726082Y-143818000D01*
X110727523Y-143832631D01*
X110743045Y-143910667D01*
X110754244Y-143937704D01*
X110798448Y-144003860D01*
X110819140Y-144024552D01*
X110885296Y-144068756D01*
X110912333Y-144079955D01*
X110990369Y-144095477D01*
X111005000Y-144096918D01*
X112805000Y-144096918D01*
X112819631Y-144095477D01*
X112897667Y-144079955D01*
X112924704Y-144068756D01*
X112990860Y-144024552D01*
X113011552Y-144003860D01*
X113055756Y-143937704D01*
X113066955Y-143910667D01*
X113082477Y-143832631D01*
X113083918Y-143818000D01*
X113083918Y-142921006D01*
X113265319Y-142921006D01*
X113284525Y-143130025D01*
X113287170Y-143144023D01*
X113345554Y-143345640D01*
X113350798Y-143358887D01*
X113446254Y-143545826D01*
X113453909Y-143557841D01*
X113582992Y-143723357D01*
X113592780Y-143733708D01*
X113750832Y-143871829D01*
X113762402Y-143880143D01*
X113943721Y-143985885D01*
X113956654Y-143991860D01*
X114154697Y-144061408D01*
X114168526Y-144064831D01*
X114376148Y-144095675D01*
X114390375Y-144096420D01*
X114600083Y-144087447D01*
X114614195Y-144085489D01*
X114818423Y-144037023D01*
X114831909Y-144032432D01*
X115023287Y-143946222D01*
X115035662Y-143939164D01*
X115207286Y-143818321D01*
X115218103Y-143809049D01*
X115363780Y-143657933D01*
X115372648Y-143646784D01*
X115487122Y-143470847D01*
X115493723Y-143458221D01*
X115550803Y-143318000D01*
X117330082Y-143318000D01*
X117330082Y-143818000D01*
X117331523Y-143832631D01*
X117347045Y-143910667D01*
X117358244Y-143937704D01*
X117402448Y-144003860D01*
X117423140Y-144024552D01*
X117489296Y-144068756D01*
X117516333Y-144079955D01*
X117594369Y-144095477D01*
X117609000Y-144096918D01*
X119409000Y-144096918D01*
X119423631Y-144095477D01*
X119501667Y-144079955D01*
X119522245Y-144071431D01*
X120173528Y-144071431D01*
X120202846Y-144137669D01*
X120246432Y-144170812D01*
X120257140Y-144177607D01*
X120468991Y-144288125D01*
X120480690Y-144293019D01*
X120708134Y-144366263D01*
X120720492Y-144369116D01*
X120957025Y-144402990D01*
X120969686Y-144403720D01*
X121208545Y-144397257D01*
X121221148Y-144395843D01*
X121455503Y-144349226D01*
X121467688Y-144345709D01*
X121690838Y-144260273D01*
X121702255Y-144254753D01*
X121889373Y-144143872D01*
X121921902Y-144104201D01*
X121921320Y-144052901D01*
X121904172Y-144026317D01*
X121102033Y-143224177D01*
X121055537Y-143202495D01*
X120995967Y-143224177D01*
X120195210Y-144024935D01*
X120173528Y-144071431D01*
X119522245Y-144071431D01*
X119528704Y-144068756D01*
X119594860Y-144024552D01*
X119615552Y-144003860D01*
X119659756Y-143937704D01*
X119670955Y-143910667D01*
X119686477Y-143832631D01*
X119687918Y-143818000D01*
X119687918Y-143506963D01*
X119738451Y-143622354D01*
X119744503Y-143633500D01*
X119827207Y-143759165D01*
X119868367Y-143789789D01*
X119919582Y-143786790D01*
X119942889Y-143770966D01*
X120742823Y-142971033D01*
X120764505Y-142924537D01*
X120759747Y-142911463D01*
X121333495Y-142911463D01*
X121355177Y-142971033D01*
X122157842Y-143773697D01*
X122204338Y-143795379D01*
X122253893Y-143782100D01*
X122275663Y-143758447D01*
X122390282Y-143561907D01*
X122395721Y-143550451D01*
X122479597Y-143326710D01*
X122483029Y-143314501D01*
X122528008Y-143079826D01*
X122529345Y-143066493D01*
X122532130Y-142800541D01*
X122531073Y-142787184D01*
X122491019Y-142551619D01*
X122487843Y-142539341D01*
X122408671Y-142313892D01*
X122403473Y-142302324D01*
X122287447Y-142093438D01*
X122280372Y-142082910D01*
X122269006Y-142068749D01*
X122225146Y-142042136D01*
X122157483Y-142062662D01*
X121355177Y-142864967D01*
X121333495Y-142911463D01*
X120759747Y-142911463D01*
X120742823Y-142864967D01*
X119943133Y-142065278D01*
X119896637Y-142043596D01*
X119847082Y-142056875D01*
X119828328Y-142075776D01*
X119759773Y-142175337D01*
X119753489Y-142186354D01*
X119687918Y-142327939D01*
X119687918Y-142018000D01*
X119686477Y-142003369D01*
X119670955Y-141925333D01*
X119659756Y-141898296D01*
X119615552Y-141832140D01*
X119594860Y-141811448D01*
X119528704Y-141767244D01*
X119501667Y-141756045D01*
X119424526Y-141740701D01*
X120176204Y-141740701D01*
X120195959Y-141811814D01*
X120995967Y-142611823D01*
X121042463Y-142633505D01*
X121102033Y-142611823D01*
X121902905Y-141810950D01*
X121924587Y-141764454D01*
X121911308Y-141714899D01*
X121889449Y-141694209D01*
X121730106Y-141595220D01*
X121718807Y-141589463D01*
X121497495Y-141499372D01*
X121485386Y-141495601D01*
X121252059Y-141444087D01*
X121239488Y-141442409D01*
X121000817Y-141430945D01*
X120988144Y-141431410D01*
X120750954Y-141460323D01*
X120738540Y-141462917D01*
X120509612Y-141531381D01*
X120497812Y-141536029D01*
X120283692Y-141642086D01*
X120272844Y-141648655D01*
X120204855Y-141698143D01*
X120176204Y-141740701D01*
X119424526Y-141740701D01*
X119423631Y-141740523D01*
X119409000Y-141739082D01*
X117609000Y-141739082D01*
X117594369Y-141740523D01*
X117516333Y-141756045D01*
X117489296Y-141767244D01*
X117423140Y-141811448D01*
X117402448Y-141832140D01*
X117358244Y-141898296D01*
X117347045Y-141925333D01*
X117331523Y-142003369D01*
X117330082Y-142018000D01*
X117330082Y-142518000D01*
X115550486Y-142518000D01*
X115497469Y-142385113D01*
X115490957Y-142372442D01*
X115377715Y-142195711D01*
X115368924Y-142184500D01*
X115224305Y-142032370D01*
X115213553Y-142023023D01*
X115042777Y-141900984D01*
X115030452Y-141893840D01*
X114839680Y-141806296D01*
X114826225Y-141801610D01*
X114622340Y-141751720D01*
X114608243Y-141749664D01*
X114398603Y-141739228D01*
X114384372Y-141739874D01*
X114176540Y-141769267D01*
X114162686Y-141772593D01*
X113964162Y-141840757D01*
X113951188Y-141846642D01*
X113769136Y-141951116D01*
X113757509Y-141959349D01*
X113598496Y-142096363D01*
X113588635Y-142106645D01*
X113458400Y-142271256D01*
X113450662Y-142283218D01*
X113353903Y-142469486D01*
X113348566Y-142482695D01*
X113288776Y-142683899D01*
X113286033Y-142697879D01*
X113265368Y-142906759D01*
X113265319Y-142921006D01*
X113083918Y-142921006D01*
X113083918Y-142018000D01*
X113082477Y-142003369D01*
X113066955Y-141925333D01*
X113055756Y-141898296D01*
X113011552Y-141832140D01*
X112990860Y-141811448D01*
X112924704Y-141767244D01*
X112897667Y-141756045D01*
X112819631Y-141740523D01*
X112805000Y-141739082D01*
X111005000Y-141739082D01*
X110990369Y-141740523D01*
X110912333Y-141756045D01*
X110885296Y-141767244D01*
X110819140Y-141811448D01*
X110798448Y-141832140D01*
X110754244Y-141898296D01*
X110743045Y-141925333D01*
X110727523Y-142003369D01*
X110726082Y-142018000D01*
X110726082Y-142518000D01*
X108946486Y-142518000D01*
X108893469Y-142385113D01*
X108886957Y-142372442D01*
X108773715Y-142195711D01*
X108764924Y-142184500D01*
X108620305Y-142032370D01*
X108609553Y-142023023D01*
X108438777Y-141900984D01*
X108426452Y-141893840D01*
X108235680Y-141806296D01*
X108222225Y-141801610D01*
X108018340Y-141751720D01*
X108004243Y-141749664D01*
X107794603Y-141739228D01*
X107780372Y-141739874D01*
X107572540Y-141769267D01*
X107558686Y-141772593D01*
X107360162Y-141840757D01*
X107347188Y-141846642D01*
X107165136Y-141951116D01*
X107153509Y-141959349D01*
X106994496Y-142096363D01*
X106984635Y-142106645D01*
X106854400Y-142271256D01*
X106846662Y-142283218D01*
X106749903Y-142469486D01*
X106744566Y-142482695D01*
X106684776Y-142683899D01*
X106682033Y-142697879D01*
X106661368Y-142906759D01*
X106661319Y-142921006D01*
X106479918Y-142921006D01*
X106479918Y-142018000D01*
X106478477Y-142003369D01*
X106462955Y-141925333D01*
X106451756Y-141898296D01*
X106407552Y-141832140D01*
X106386860Y-141811448D01*
X106320704Y-141767244D01*
X106293667Y-141756045D01*
X106215631Y-141740523D01*
X106201000Y-141739082D01*
X104401000Y-141739082D01*
X104386369Y-141740523D01*
X104308333Y-141756045D01*
X104281296Y-141767244D01*
X104215140Y-141811448D01*
X104194448Y-141832140D01*
X104150244Y-141898296D01*
X104139045Y-141925333D01*
X104123523Y-142003369D01*
X104122082Y-142018000D01*
X104122082Y-142518000D01*
X102342486Y-142518000D01*
X102289469Y-142385113D01*
X102282957Y-142372442D01*
X102169715Y-142195711D01*
X102160924Y-142184500D01*
X102016305Y-142032370D01*
X102005553Y-142023023D01*
X101834777Y-141900984D01*
X101822452Y-141893840D01*
X101631680Y-141806296D01*
X101618225Y-141801610D01*
X101414340Y-141751720D01*
X101400243Y-141749664D01*
X101190603Y-141739228D01*
X101176372Y-141739874D01*
X100968540Y-141769267D01*
X100954686Y-141772593D01*
X100756162Y-141840757D01*
X100743188Y-141846642D01*
X100561136Y-141951116D01*
X100549509Y-141959349D01*
X100390496Y-142096363D01*
X100380635Y-142106645D01*
X100250400Y-142271256D01*
X100242662Y-142283218D01*
X100145903Y-142469486D01*
X100140566Y-142482695D01*
X100080776Y-142683899D01*
X100078033Y-142697879D01*
X100057368Y-142906759D01*
X100057319Y-142921006D01*
X99875918Y-142921006D01*
X99875918Y-142018000D01*
X99874477Y-142003369D01*
X99858955Y-141925333D01*
X99847756Y-141898296D01*
X99803552Y-141832140D01*
X99782860Y-141811448D01*
X99716704Y-141767244D01*
X99689667Y-141756045D01*
X99611631Y-141740523D01*
X99597000Y-141739082D01*
X97797000Y-141739082D01*
X97782369Y-141740523D01*
X97704333Y-141756045D01*
X97677296Y-141767244D01*
X97611140Y-141811448D01*
X97590448Y-141832140D01*
X97546244Y-141898296D01*
X97535045Y-141925333D01*
X97519523Y-142003369D01*
X97518082Y-142018000D01*
X97518082Y-142518000D01*
X96315918Y-142518000D01*
X96314477Y-142503369D01*
X96298955Y-142425333D01*
X96287756Y-142398296D01*
X96243552Y-142332140D01*
X96222860Y-142311448D01*
X96156704Y-142267244D01*
X96129667Y-142256045D01*
X96051631Y-142240523D01*
X96037000Y-142239082D01*
X95137000Y-142239082D01*
X95122369Y-142240523D01*
X95044333Y-142256045D01*
X95017296Y-142267244D01*
X94951140Y-142311448D01*
X94930448Y-142332140D01*
X94886244Y-142398296D01*
X94875045Y-142425333D01*
X94859523Y-142503369D01*
X94858082Y-142518000D01*
X94267512Y-142518000D01*
X94287756Y-142487704D01*
X94298955Y-142460667D01*
X94314477Y-142382631D01*
X94315918Y-142368000D01*
X94315918Y-141568000D01*
X94314477Y-141553369D01*
X94298955Y-141475333D01*
X94287756Y-141448296D01*
X94243552Y-141382140D01*
X94222860Y-141361448D01*
X94156704Y-141317244D01*
X94129667Y-141306045D01*
X94051631Y-141290523D01*
X94037000Y-141289082D01*
X93137000Y-141289082D01*
X93122369Y-141290523D01*
X93044333Y-141306045D01*
X93017296Y-141317244D01*
X92951140Y-141361448D01*
X92930448Y-141382140D01*
X92886244Y-141448296D01*
X92875045Y-141475333D01*
X92859523Y-141553369D01*
X92858082Y-141568000D01*
X92528464Y-141568000D01*
X92528464Y-141456330D01*
X92526472Y-141439159D01*
X92478478Y-141235103D01*
X92465321Y-141207077D01*
X92363935Y-141072819D01*
X92343566Y-141054250D01*
X92200526Y-140965684D01*
X92174825Y-140955727D01*
X92009451Y-140924813D01*
X91995670Y-140923536D01*
X91354330Y-140923536D01*
X91337159Y-140925528D01*
X91133103Y-140973522D01*
X91105077Y-140986679D01*
X90970819Y-141088065D01*
X90952250Y-141108434D01*
X90863684Y-141251474D01*
X90853727Y-141277175D01*
X90822813Y-141442549D01*
X90821536Y-141456330D01*
X90478464Y-141456330D01*
X90476472Y-141439159D01*
X90428478Y-141235103D01*
X90415321Y-141207077D01*
X90313935Y-141072819D01*
X90293566Y-141054250D01*
X90150526Y-140965684D01*
X90124825Y-140955727D01*
X89959451Y-140924813D01*
X89945670Y-140923536D01*
X89304330Y-140923536D01*
X89287159Y-140925528D01*
X89083103Y-140973522D01*
X89055077Y-140986679D01*
X88920819Y-141088065D01*
X88902250Y-141108434D01*
X88813684Y-141251474D01*
X88803727Y-141277175D01*
X88772813Y-141442549D01*
X88771536Y-141456330D01*
X88771536Y-141502000D01*
X86008450Y-141502000D01*
X85949948Y-141498934D01*
X85911974Y-141507005D01*
X85897344Y-141514459D01*
X85847265Y-141525104D01*
X85818774Y-141537789D01*
X85706999Y-141618999D01*
X85686131Y-141642175D01*
X85677924Y-141656390D01*
X85274316Y-142060000D01*
X84055033Y-142060000D01*
X84050201Y-142043584D01*
X84044718Y-142030013D01*
X83949318Y-141847530D01*
X83941303Y-141835282D01*
X83812276Y-141674804D01*
X83802035Y-141664346D01*
X83644294Y-141531986D01*
X83632216Y-141523716D01*
X83451771Y-141424516D01*
X83438318Y-141418750D01*
X83242041Y-141356487D01*
X83227203Y-141353387D01*
X83056173Y-141335411D01*
X83048333Y-141335000D01*
X82948191Y-141335000D01*
X82940872Y-141335358D01*
X82787748Y-141350372D01*
X82773390Y-141353215D01*
X82576263Y-141412731D01*
X82562730Y-141418309D01*
X82380918Y-141514980D01*
X82368726Y-141523080D01*
X82209153Y-141653225D01*
X82198767Y-141663539D01*
X82067511Y-141822200D01*
X82059325Y-141834335D01*
X81961387Y-142015468D01*
X81955715Y-142028962D01*
X81894824Y-142225669D01*
X81891881Y-142240007D01*
X81870357Y-142444794D01*
X81870255Y-142459431D01*
X81888917Y-142664499D01*
X81891659Y-142678878D01*
X81949798Y-142876416D01*
X81955282Y-142889987D01*
X82050682Y-143072470D01*
X82058697Y-143084718D01*
X82187724Y-143245196D01*
X82197965Y-143255654D01*
X82355706Y-143388014D01*
X82367784Y-143396284D01*
X82548229Y-143495484D01*
X82561682Y-143501250D01*
X82744246Y-143559163D01*
X82150000Y-143559163D01*
X82130589Y-143561719D01*
X81872671Y-143630828D01*
X81843873Y-143645819D01*
X81706637Y-143760973D01*
X81689894Y-143780926D01*
X81600320Y-143936073D01*
X81591411Y-143960549D01*
X81560302Y-144136976D01*
X81559163Y-144150000D01*
X80275000Y-144150000D01*
X80275000Y-139919431D01*
X81870255Y-139919431D01*
X81888917Y-140124499D01*
X81891659Y-140138878D01*
X81949798Y-140336416D01*
X81955282Y-140349987D01*
X82050682Y-140532470D01*
X82058697Y-140544718D01*
X82187724Y-140705196D01*
X82197965Y-140715654D01*
X82355706Y-140848014D01*
X82367784Y-140856284D01*
X82548229Y-140955484D01*
X82561682Y-140961250D01*
X82757959Y-141023513D01*
X82772797Y-141026613D01*
X82943827Y-141044589D01*
X82951667Y-141045000D01*
X83051809Y-141045000D01*
X83059128Y-141044642D01*
X83212252Y-141029628D01*
X83226610Y-141026785D01*
X83423737Y-140967269D01*
X83437270Y-140961691D01*
X83619082Y-140865020D01*
X83631274Y-140856920D01*
X83790847Y-140726775D01*
X83801233Y-140716461D01*
X83932489Y-140557800D01*
X83940675Y-140545665D01*
X84038613Y-140364532D01*
X84044285Y-140351038D01*
X84053893Y-140320000D01*
X88769550Y-140320000D01*
X88828051Y-140323066D01*
X88866025Y-140314995D01*
X88880655Y-140307541D01*
X88930735Y-140296896D01*
X88959226Y-140284211D01*
X89071001Y-140203001D01*
X89091869Y-140179825D01*
X89100077Y-140165608D01*
X89611685Y-139654000D01*
X122811776Y-139654000D01*
X122811776Y-140022429D01*
X122813490Y-140038371D01*
X122882693Y-140356494D01*
X122892885Y-140381100D01*
X123010728Y-140564466D01*
X123024707Y-140580599D01*
X123189436Y-140723338D01*
X123207395Y-140734879D01*
X123405666Y-140825426D01*
X123426148Y-140831441D01*
X123641897Y-140862461D01*
X123652571Y-140863224D01*
X123858500Y-140863224D01*
X123906709Y-140845677D01*
X123933500Y-140788224D01*
X123933500Y-139654000D01*
X124291500Y-139654000D01*
X124291500Y-140788224D01*
X124309047Y-140836433D01*
X124366500Y-140863224D01*
X124572429Y-140863224D01*
X124588371Y-140861510D01*
X124906494Y-140792307D01*
X124931100Y-140782115D01*
X125114466Y-140664272D01*
X125130599Y-140650293D01*
X125273338Y-140485564D01*
X125284879Y-140467605D01*
X125375426Y-140269334D01*
X125381441Y-140248852D01*
X125412461Y-140033103D01*
X125413224Y-140022429D01*
X125413224Y-139654000D01*
X125395677Y-139605791D01*
X125338224Y-139579000D01*
X124366500Y-139579000D01*
X124318291Y-139596547D01*
X124291500Y-139654000D01*
X123933500Y-139654000D01*
X123915953Y-139605791D01*
X123858500Y-139579000D01*
X122886776Y-139579000D01*
X122838567Y-139596547D01*
X122811776Y-139654000D01*
X89611685Y-139654000D01*
X89900447Y-139365239D01*
X89943989Y-139326034D01*
X89965133Y-139293474D01*
X89970207Y-139277859D01*
X89998091Y-139234921D01*
X90009268Y-139205805D01*
X90030880Y-139069344D01*
X90029248Y-139038201D01*
X90025000Y-139022347D01*
X90025000Y-138291853D01*
X90166898Y-138258478D01*
X90194923Y-138245321D01*
X90329181Y-138143935D01*
X90347750Y-138123566D01*
X90436316Y-137980526D01*
X90446273Y-137954825D01*
X90477187Y-137789451D01*
X90478464Y-137775670D01*
X90478464Y-136884330D01*
X90821536Y-136884330D01*
X90821536Y-137775670D01*
X90823528Y-137792841D01*
X90871522Y-137996897D01*
X90884679Y-138024923D01*
X90986065Y-138159181D01*
X91006434Y-138177750D01*
X91149474Y-138266316D01*
X91175175Y-138276273D01*
X91332095Y-138305607D01*
X91326363Y-138309771D01*
X91309771Y-138326363D01*
X91198056Y-138480126D01*
X91187403Y-138501034D01*
X91128671Y-138681793D01*
X91125000Y-138704969D01*
X91125000Y-138895031D01*
X91128671Y-138918207D01*
X91187403Y-139098966D01*
X91198056Y-139119874D01*
X91309771Y-139273637D01*
X91326363Y-139290229D01*
X91480126Y-139401944D01*
X91501034Y-139412597D01*
X91681793Y-139471329D01*
X91704969Y-139475000D01*
X91895031Y-139475000D01*
X91918207Y-139471329D01*
X92098966Y-139412597D01*
X92119874Y-139401944D01*
X92273637Y-139290229D01*
X92290229Y-139273637D01*
X92401944Y-139119874D01*
X92412597Y-139098966D01*
X92471329Y-138918207D01*
X92475000Y-138895031D01*
X92475000Y-138704969D01*
X92471329Y-138681793D01*
X92412597Y-138501034D01*
X92401944Y-138480126D01*
X92290229Y-138326363D01*
X92273637Y-138309770D01*
X92225000Y-138274434D01*
X92225000Y-138254674D01*
X92244923Y-138245321D01*
X92379181Y-138143935D01*
X92397750Y-138123566D01*
X92486316Y-137980526D01*
X92496273Y-137954825D01*
X92527187Y-137789451D01*
X92528464Y-137775670D01*
X92528464Y-136884330D01*
X92526472Y-136867159D01*
X92495859Y-136737000D01*
X92858082Y-136737000D01*
X92858082Y-137537000D01*
X92859523Y-137551631D01*
X92875045Y-137629667D01*
X92886244Y-137656704D01*
X92930448Y-137722860D01*
X92951140Y-137743552D01*
X93017296Y-137787756D01*
X93044333Y-137798955D01*
X93122369Y-137814477D01*
X93137000Y-137815918D01*
X93175001Y-137815918D01*
X93175000Y-137874434D01*
X93126363Y-137909771D01*
X93109771Y-137926363D01*
X92998056Y-138080126D01*
X92987403Y-138101034D01*
X92928671Y-138281793D01*
X92925000Y-138304969D01*
X92925000Y-138495031D01*
X92928671Y-138518207D01*
X92987403Y-138698966D01*
X92998056Y-138719874D01*
X93109771Y-138873637D01*
X93126363Y-138890229D01*
X93280126Y-139001944D01*
X93301034Y-139012597D01*
X93481793Y-139071329D01*
X93504969Y-139075000D01*
X93695031Y-139075000D01*
X93718207Y-139071329D01*
X93898966Y-139012597D01*
X93919874Y-139001944D01*
X94073637Y-138890229D01*
X94090229Y-138873637D01*
X94160024Y-138777571D01*
X122811776Y-138777571D01*
X122811776Y-139146000D01*
X122829323Y-139194209D01*
X122886776Y-139221000D01*
X123858500Y-139221000D01*
X123906709Y-139203453D01*
X123933500Y-139146000D01*
X123933500Y-138011776D01*
X124291500Y-138011776D01*
X124291500Y-139146000D01*
X124309047Y-139194209D01*
X124366500Y-139221000D01*
X125338224Y-139221000D01*
X125386433Y-139203453D01*
X125413224Y-139146000D01*
X125413224Y-138779331D01*
X126096536Y-138779331D01*
X126096536Y-140020669D01*
X126098528Y-140037840D01*
X126146522Y-140241897D01*
X126159679Y-140269924D01*
X126261066Y-140404182D01*
X126281435Y-140422750D01*
X126424474Y-140511316D01*
X126450175Y-140521273D01*
X126615550Y-140552187D01*
X126629331Y-140553464D01*
X126775001Y-140553464D01*
X126775001Y-141474434D01*
X126726363Y-141509771D01*
X126709771Y-141526363D01*
X126598056Y-141680126D01*
X126587403Y-141701034D01*
X126528671Y-141881793D01*
X126525000Y-141904969D01*
X126525000Y-142095031D01*
X126528671Y-142118207D01*
X126587403Y-142298966D01*
X126598056Y-142319874D01*
X126709771Y-142473637D01*
X126726363Y-142490229D01*
X126880126Y-142601944D01*
X126901034Y-142612597D01*
X127081793Y-142671329D01*
X127104969Y-142675000D01*
X127295031Y-142675000D01*
X127318207Y-142671329D01*
X127498966Y-142612597D01*
X127519874Y-142601944D01*
X127673637Y-142490229D01*
X127690229Y-142473637D01*
X127801944Y-142319874D01*
X127812597Y-142298966D01*
X127871329Y-142118207D01*
X127875000Y-142095031D01*
X127875000Y-141904969D01*
X127871329Y-141881793D01*
X127812597Y-141701034D01*
X127801944Y-141680126D01*
X127690229Y-141526363D01*
X127673637Y-141509770D01*
X127625000Y-141474434D01*
X127625000Y-140536852D01*
X127766897Y-140503478D01*
X127794924Y-140490321D01*
X127929182Y-140388934D01*
X127947750Y-140368565D01*
X128036316Y-140225526D01*
X128046273Y-140199825D01*
X128077187Y-140034450D01*
X128078464Y-140020669D01*
X128078464Y-138779331D01*
X128076472Y-138762160D01*
X128028478Y-138558103D01*
X128015321Y-138530076D01*
X127913934Y-138395818D01*
X127893565Y-138377250D01*
X127750526Y-138288684D01*
X127724825Y-138278727D01*
X127625000Y-138260067D01*
X127625000Y-137525566D01*
X127673637Y-137490230D01*
X127690229Y-137473637D01*
X127801944Y-137319874D01*
X127812597Y-137298966D01*
X127871329Y-137118207D01*
X127875000Y-137095031D01*
X127875000Y-136904969D01*
X127871329Y-136881793D01*
X127812597Y-136701034D01*
X127801944Y-136680126D01*
X127690229Y-136526363D01*
X127673637Y-136509771D01*
X127519874Y-136398056D01*
X127498966Y-136387403D01*
X127318207Y-136328671D01*
X127295031Y-136325000D01*
X127104969Y-136325000D01*
X127081793Y-136328671D01*
X126901034Y-136387403D01*
X126880126Y-136398056D01*
X126726363Y-136509771D01*
X126709771Y-136526363D01*
X126598056Y-136680126D01*
X126587403Y-136701034D01*
X126528671Y-136881793D01*
X126525000Y-136904969D01*
X126525000Y-137095031D01*
X126528671Y-137118207D01*
X126587403Y-137298966D01*
X126598056Y-137319874D01*
X126709771Y-137473637D01*
X126726363Y-137490229D01*
X126775000Y-137525566D01*
X126775000Y-138246536D01*
X126629331Y-138246536D01*
X126612160Y-138248528D01*
X126408103Y-138296522D01*
X126380076Y-138309679D01*
X126245818Y-138411066D01*
X126227250Y-138431435D01*
X126138684Y-138574474D01*
X126128727Y-138600175D01*
X126097813Y-138765550D01*
X126096536Y-138779331D01*
X125413224Y-138779331D01*
X125413224Y-138777571D01*
X125411510Y-138761629D01*
X125342307Y-138443506D01*
X125332115Y-138418900D01*
X125214272Y-138235534D01*
X125200293Y-138219401D01*
X125035564Y-138076662D01*
X125017605Y-138065121D01*
X124819334Y-137974574D01*
X124798852Y-137968559D01*
X124583103Y-137937539D01*
X124572429Y-137936776D01*
X124366500Y-137936776D01*
X124318291Y-137954323D01*
X124291500Y-138011776D01*
X123933500Y-138011776D01*
X123915953Y-137963567D01*
X123858500Y-137936776D01*
X123652571Y-137936776D01*
X123636629Y-137938490D01*
X123318506Y-138007693D01*
X123293900Y-138017885D01*
X123110534Y-138135728D01*
X123094401Y-138149707D01*
X122951662Y-138314436D01*
X122940121Y-138332395D01*
X122849574Y-138530666D01*
X122843559Y-138551148D01*
X122812539Y-138766897D01*
X122811776Y-138777571D01*
X94160024Y-138777571D01*
X94201944Y-138719874D01*
X94212597Y-138698966D01*
X94271329Y-138518207D01*
X94275000Y-138495031D01*
X94275000Y-138304969D01*
X94271329Y-138281793D01*
X94212597Y-138101034D01*
X94201944Y-138080126D01*
X94090229Y-137926363D01*
X94073637Y-137909770D01*
X94025000Y-137874434D01*
X94025000Y-137815918D01*
X94037000Y-137815918D01*
X94051631Y-137814477D01*
X94129667Y-137798955D01*
X94156704Y-137787756D01*
X94222860Y-137743552D01*
X94243552Y-137722860D01*
X94287756Y-137656704D01*
X94298955Y-137629667D01*
X94314477Y-137551631D01*
X94315918Y-137537000D01*
X94315918Y-136737000D01*
X94314477Y-136722369D01*
X94298955Y-136644333D01*
X94287756Y-136617296D01*
X94243552Y-136551140D01*
X94222860Y-136530448D01*
X94156704Y-136486244D01*
X94129667Y-136475045D01*
X94051631Y-136459523D01*
X94037000Y-136458082D01*
X93137000Y-136458082D01*
X93122369Y-136459523D01*
X93044333Y-136475045D01*
X93017296Y-136486244D01*
X92951140Y-136530448D01*
X92930448Y-136551140D01*
X92886244Y-136617296D01*
X92875045Y-136644333D01*
X92859523Y-136722369D01*
X92858082Y-136737000D01*
X92495859Y-136737000D01*
X92478478Y-136663103D01*
X92465321Y-136635077D01*
X92363935Y-136500819D01*
X92343566Y-136482250D01*
X92200526Y-136393684D01*
X92174825Y-136383727D01*
X92009451Y-136352813D01*
X91995670Y-136351536D01*
X91354330Y-136351536D01*
X91337159Y-136353528D01*
X91133103Y-136401522D01*
X91105077Y-136414679D01*
X90970819Y-136516065D01*
X90952250Y-136536434D01*
X90863684Y-136679474D01*
X90853727Y-136705175D01*
X90822813Y-136870549D01*
X90821536Y-136884330D01*
X90478464Y-136884330D01*
X90476472Y-136867159D01*
X90428478Y-136663103D01*
X90415321Y-136635077D01*
X90313935Y-136500819D01*
X90293566Y-136482250D01*
X90150526Y-136393684D01*
X90124826Y-136383727D01*
X90025000Y-136365066D01*
X90025000Y-136005853D01*
X90166898Y-135972478D01*
X90194923Y-135959321D01*
X90329181Y-135857935D01*
X90347750Y-135837566D01*
X90436316Y-135694526D01*
X90446273Y-135668825D01*
X90477187Y-135503451D01*
X90478464Y-135489670D01*
X90478464Y-134598330D01*
X90821536Y-134598330D01*
X90821536Y-135489670D01*
X90823528Y-135506841D01*
X90871522Y-135710897D01*
X90884679Y-135738923D01*
X90986065Y-135873181D01*
X91006434Y-135891750D01*
X91149474Y-135980316D01*
X91175175Y-135990273D01*
X91340549Y-136021187D01*
X91354330Y-136022464D01*
X91995670Y-136022464D01*
X92012841Y-136020472D01*
X92216897Y-135972478D01*
X92244923Y-135959321D01*
X92379181Y-135857935D01*
X92397750Y-135837566D01*
X92486316Y-135694526D01*
X92496273Y-135668825D01*
X92502222Y-135637000D01*
X92858082Y-135637000D01*
X92859523Y-135651631D01*
X92875045Y-135729667D01*
X92886244Y-135756704D01*
X92930448Y-135822860D01*
X92951140Y-135843552D01*
X93017296Y-135887756D01*
X93044333Y-135898955D01*
X93122369Y-135914477D01*
X93137000Y-135915918D01*
X94037000Y-135915918D01*
X94051631Y-135914477D01*
X94129667Y-135898955D01*
X94156704Y-135887756D01*
X94222860Y-135843552D01*
X94243552Y-135822860D01*
X94267512Y-135787000D01*
X94858082Y-135787000D01*
X94858082Y-136587000D01*
X94859523Y-136601631D01*
X94875045Y-136679667D01*
X94886244Y-136706704D01*
X94930448Y-136772860D01*
X94951140Y-136793552D01*
X95017296Y-136837756D01*
X95044333Y-136848955D01*
X95122369Y-136864477D01*
X95137000Y-136865918D01*
X96037000Y-136865918D01*
X96051631Y-136864477D01*
X96129667Y-136848955D01*
X96156704Y-136837756D01*
X96222860Y-136793552D01*
X96243552Y-136772860D01*
X96287756Y-136706704D01*
X96298955Y-136679667D01*
X96314477Y-136601631D01*
X96315918Y-136587000D01*
X97518082Y-136587000D01*
X97518082Y-137087000D01*
X97519523Y-137101631D01*
X97535045Y-137179667D01*
X97546244Y-137206704D01*
X97590448Y-137272860D01*
X97611140Y-137293552D01*
X97677296Y-137337756D01*
X97704333Y-137348955D01*
X97782369Y-137364477D01*
X97797000Y-137365918D01*
X99597000Y-137365918D01*
X99611631Y-137364477D01*
X99689667Y-137348955D01*
X99716704Y-137337756D01*
X99782860Y-137293552D01*
X99803552Y-137272860D01*
X99847756Y-137206704D01*
X99858955Y-137179667D01*
X99874477Y-137101631D01*
X99875918Y-137087000D01*
X99875918Y-136190006D01*
X100057319Y-136190006D01*
X100076525Y-136399025D01*
X100079170Y-136413023D01*
X100137554Y-136614640D01*
X100142798Y-136627887D01*
X100238254Y-136814826D01*
X100245909Y-136826841D01*
X100374992Y-136992357D01*
X100384780Y-137002708D01*
X100542832Y-137140829D01*
X100554402Y-137149143D01*
X100735721Y-137254885D01*
X100748654Y-137260860D01*
X100946697Y-137330408D01*
X100960526Y-137333831D01*
X101168148Y-137364675D01*
X101182375Y-137365420D01*
X101392083Y-137356447D01*
X101406195Y-137354489D01*
X101610423Y-137306023D01*
X101623909Y-137301432D01*
X101815287Y-137215222D01*
X101827662Y-137208164D01*
X101999286Y-137087321D01*
X102010103Y-137078049D01*
X102155780Y-136926933D01*
X102164648Y-136915784D01*
X102279122Y-136739847D01*
X102285723Y-136727221D01*
X102342803Y-136587000D01*
X104122082Y-136587000D01*
X104122082Y-137087000D01*
X104123523Y-137101631D01*
X104139045Y-137179667D01*
X104150244Y-137206704D01*
X104194448Y-137272860D01*
X104215140Y-137293552D01*
X104281296Y-137337756D01*
X104308333Y-137348955D01*
X104386369Y-137364477D01*
X104401000Y-137365918D01*
X106201000Y-137365918D01*
X106215631Y-137364477D01*
X106293667Y-137348955D01*
X106320704Y-137337756D01*
X106386860Y-137293552D01*
X106407552Y-137272860D01*
X106451756Y-137206704D01*
X106462955Y-137179667D01*
X106478477Y-137101631D01*
X106479918Y-137087000D01*
X106479918Y-136190006D01*
X106661319Y-136190006D01*
X106680525Y-136399025D01*
X106683170Y-136413023D01*
X106741554Y-136614640D01*
X106746798Y-136627887D01*
X106842254Y-136814826D01*
X106849909Y-136826841D01*
X106978992Y-136992357D01*
X106988780Y-137002708D01*
X107146832Y-137140829D01*
X107158402Y-137149143D01*
X107339721Y-137254885D01*
X107352654Y-137260860D01*
X107550697Y-137330408D01*
X107564526Y-137333831D01*
X107772148Y-137364675D01*
X107786375Y-137365420D01*
X107996083Y-137356447D01*
X108010195Y-137354489D01*
X108214423Y-137306023D01*
X108227909Y-137301432D01*
X108419287Y-137215222D01*
X108431662Y-137208164D01*
X108603286Y-137087321D01*
X108614103Y-137078049D01*
X108759780Y-136926933D01*
X108768648Y-136915784D01*
X108883122Y-136739847D01*
X108889723Y-136727221D01*
X108946803Y-136587000D01*
X110726082Y-136587000D01*
X110726082Y-137087000D01*
X110727523Y-137101631D01*
X110743045Y-137179667D01*
X110754244Y-137206704D01*
X110798448Y-137272860D01*
X110819140Y-137293552D01*
X110885296Y-137337756D01*
X110912333Y-137348955D01*
X110990369Y-137364477D01*
X111005000Y-137365918D01*
X112805000Y-137365918D01*
X112819631Y-137364477D01*
X112897667Y-137348955D01*
X112924704Y-137337756D01*
X112990860Y-137293552D01*
X113011552Y-137272860D01*
X113055756Y-137206704D01*
X113066955Y-137179667D01*
X113082477Y-137101631D01*
X113083918Y-137087000D01*
X113083918Y-136190006D01*
X113265319Y-136190006D01*
X113284525Y-136399025D01*
X113287170Y-136413023D01*
X113345554Y-136614640D01*
X113350798Y-136627887D01*
X113446254Y-136814826D01*
X113453909Y-136826841D01*
X113582992Y-136992357D01*
X113592780Y-137002708D01*
X113750832Y-137140829D01*
X113762402Y-137149143D01*
X113943721Y-137254885D01*
X113956654Y-137260860D01*
X114154697Y-137330408D01*
X114168526Y-137333831D01*
X114376148Y-137364675D01*
X114390375Y-137365420D01*
X114600083Y-137356447D01*
X114614195Y-137354489D01*
X114818423Y-137306023D01*
X114831909Y-137301432D01*
X115023287Y-137215222D01*
X115035662Y-137208164D01*
X115207286Y-137087321D01*
X115218103Y-137078049D01*
X115363780Y-136926933D01*
X115372648Y-136915784D01*
X115487122Y-136739847D01*
X115493723Y-136727221D01*
X115550803Y-136587000D01*
X117330082Y-136587000D01*
X117330082Y-137087000D01*
X117331523Y-137101631D01*
X117347045Y-137179667D01*
X117358244Y-137206704D01*
X117402448Y-137272860D01*
X117423140Y-137293552D01*
X117489296Y-137337756D01*
X117516333Y-137348955D01*
X117594369Y-137364477D01*
X117609000Y-137365918D01*
X119409000Y-137365918D01*
X119423631Y-137364477D01*
X119501667Y-137348955D01*
X119522245Y-137340431D01*
X120173528Y-137340431D01*
X120202846Y-137406669D01*
X120246432Y-137439812D01*
X120257140Y-137446607D01*
X120468991Y-137557125D01*
X120480690Y-137562019D01*
X120708134Y-137635263D01*
X120720492Y-137638116D01*
X120957025Y-137671990D01*
X120969686Y-137672720D01*
X121208545Y-137666257D01*
X121221148Y-137664843D01*
X121455503Y-137618226D01*
X121467688Y-137614709D01*
X121690838Y-137529273D01*
X121702255Y-137523753D01*
X121889373Y-137412872D01*
X121921902Y-137373201D01*
X121921320Y-137321901D01*
X121904172Y-137295317D01*
X121102033Y-136493177D01*
X121055537Y-136471495D01*
X120995967Y-136493177D01*
X120195210Y-137293935D01*
X120173528Y-137340431D01*
X119522245Y-137340431D01*
X119528704Y-137337756D01*
X119594860Y-137293552D01*
X119615552Y-137272860D01*
X119659756Y-137206704D01*
X119670955Y-137179667D01*
X119686477Y-137101631D01*
X119687918Y-137087000D01*
X119687918Y-136775963D01*
X119738451Y-136891354D01*
X119744503Y-136902500D01*
X119827207Y-137028165D01*
X119868367Y-137058789D01*
X119919582Y-137055790D01*
X119942889Y-137039966D01*
X120742823Y-136240033D01*
X120764505Y-136193537D01*
X120759747Y-136180463D01*
X121333495Y-136180463D01*
X121355177Y-136240033D01*
X122157842Y-137042697D01*
X122204338Y-137064379D01*
X122253893Y-137051100D01*
X122275663Y-137027447D01*
X122390282Y-136830907D01*
X122395721Y-136819451D01*
X122479597Y-136595710D01*
X122483029Y-136583501D01*
X122528008Y-136348826D01*
X122529345Y-136335493D01*
X122532130Y-136069541D01*
X122531073Y-136056184D01*
X122491019Y-135820619D01*
X122487843Y-135808341D01*
X122408671Y-135582892D01*
X122403473Y-135571324D01*
X122287447Y-135362438D01*
X122280372Y-135351910D01*
X122269006Y-135337749D01*
X122225146Y-135311136D01*
X122157483Y-135331662D01*
X121355177Y-136133967D01*
X121333495Y-136180463D01*
X120759747Y-136180463D01*
X120742823Y-136133967D01*
X119943133Y-135334278D01*
X119896637Y-135312596D01*
X119847082Y-135325875D01*
X119828328Y-135344776D01*
X119759773Y-135444337D01*
X119753489Y-135455354D01*
X119687918Y-135596939D01*
X119687918Y-135287000D01*
X119686477Y-135272369D01*
X119670955Y-135194333D01*
X119659756Y-135167296D01*
X119615552Y-135101140D01*
X119594860Y-135080448D01*
X119528704Y-135036244D01*
X119501667Y-135025045D01*
X119424526Y-135009701D01*
X120176204Y-135009701D01*
X120195959Y-135080814D01*
X120995967Y-135880823D01*
X121042463Y-135902505D01*
X121102033Y-135880823D01*
X121902905Y-135079950D01*
X121924587Y-135033454D01*
X121911308Y-134983899D01*
X121889449Y-134963209D01*
X121730106Y-134864220D01*
X121718807Y-134858463D01*
X121497495Y-134768372D01*
X121485386Y-134764601D01*
X121252059Y-134713087D01*
X121239488Y-134711409D01*
X121000817Y-134699945D01*
X120988144Y-134700410D01*
X120750954Y-134729323D01*
X120738540Y-134731917D01*
X120509612Y-134800381D01*
X120497812Y-134805029D01*
X120283692Y-134911086D01*
X120272844Y-134917655D01*
X120204855Y-134967143D01*
X120176204Y-135009701D01*
X119424526Y-135009701D01*
X119423631Y-135009523D01*
X119409000Y-135008082D01*
X117609000Y-135008082D01*
X117594369Y-135009523D01*
X117516333Y-135025045D01*
X117489296Y-135036244D01*
X117423140Y-135080448D01*
X117402448Y-135101140D01*
X117358244Y-135167296D01*
X117347045Y-135194333D01*
X117331523Y-135272369D01*
X117330082Y-135287000D01*
X117330082Y-135787000D01*
X115550486Y-135787000D01*
X115497469Y-135654113D01*
X115490957Y-135641442D01*
X115377715Y-135464711D01*
X115368924Y-135453500D01*
X115224305Y-135301370D01*
X115213553Y-135292023D01*
X115042777Y-135169984D01*
X115030452Y-135162840D01*
X114839680Y-135075296D01*
X114826225Y-135070610D01*
X114622340Y-135020720D01*
X114608243Y-135018664D01*
X114398603Y-135008228D01*
X114384372Y-135008874D01*
X114176540Y-135038267D01*
X114162686Y-135041593D01*
X113964162Y-135109757D01*
X113951188Y-135115642D01*
X113769136Y-135220116D01*
X113757509Y-135228349D01*
X113598496Y-135365363D01*
X113588635Y-135375645D01*
X113458400Y-135540256D01*
X113450662Y-135552218D01*
X113353903Y-135738486D01*
X113348566Y-135751695D01*
X113288776Y-135952899D01*
X113286033Y-135966879D01*
X113265368Y-136175759D01*
X113265319Y-136190006D01*
X113083918Y-136190006D01*
X113083918Y-135287000D01*
X113082477Y-135272369D01*
X113066955Y-135194333D01*
X113055756Y-135167296D01*
X113011552Y-135101140D01*
X112990860Y-135080448D01*
X112924704Y-135036244D01*
X112897667Y-135025045D01*
X112819631Y-135009523D01*
X112805000Y-135008082D01*
X111005000Y-135008082D01*
X110990369Y-135009523D01*
X110912333Y-135025045D01*
X110885296Y-135036244D01*
X110819140Y-135080448D01*
X110798448Y-135101140D01*
X110754244Y-135167296D01*
X110743045Y-135194333D01*
X110727523Y-135272369D01*
X110726082Y-135287000D01*
X110726082Y-135787000D01*
X108946486Y-135787000D01*
X108893469Y-135654113D01*
X108886957Y-135641442D01*
X108773715Y-135464711D01*
X108764924Y-135453500D01*
X108620305Y-135301370D01*
X108609553Y-135292023D01*
X108438777Y-135169984D01*
X108426452Y-135162840D01*
X108235680Y-135075296D01*
X108222225Y-135070610D01*
X108018340Y-135020720D01*
X108004243Y-135018664D01*
X107794603Y-135008228D01*
X107780372Y-135008874D01*
X107572540Y-135038267D01*
X107558686Y-135041593D01*
X107360162Y-135109757D01*
X107347188Y-135115642D01*
X107165136Y-135220116D01*
X107153509Y-135228349D01*
X106994496Y-135365363D01*
X106984635Y-135375645D01*
X106854400Y-135540256D01*
X106846662Y-135552218D01*
X106749903Y-135738486D01*
X106744566Y-135751695D01*
X106684776Y-135952899D01*
X106682033Y-135966879D01*
X106661368Y-136175759D01*
X106661319Y-136190006D01*
X106479918Y-136190006D01*
X106479918Y-135287000D01*
X106478477Y-135272369D01*
X106462955Y-135194333D01*
X106451756Y-135167296D01*
X106407552Y-135101140D01*
X106386860Y-135080448D01*
X106320704Y-135036244D01*
X106293667Y-135025045D01*
X106215631Y-135009523D01*
X106201000Y-135008082D01*
X104401000Y-135008082D01*
X104386369Y-135009523D01*
X104308333Y-135025045D01*
X104281296Y-135036244D01*
X104215140Y-135080448D01*
X104194448Y-135101140D01*
X104150244Y-135167296D01*
X104139045Y-135194333D01*
X104123523Y-135272369D01*
X104122082Y-135287000D01*
X104122082Y-135787000D01*
X102342486Y-135787000D01*
X102289469Y-135654113D01*
X102282957Y-135641442D01*
X102169715Y-135464711D01*
X102160924Y-135453500D01*
X102016305Y-135301370D01*
X102005553Y-135292023D01*
X101834777Y-135169984D01*
X101822452Y-135162840D01*
X101631680Y-135075296D01*
X101618225Y-135070610D01*
X101414340Y-135020720D01*
X101400243Y-135018664D01*
X101190603Y-135008228D01*
X101176372Y-135008874D01*
X100968540Y-135038267D01*
X100954686Y-135041593D01*
X100756162Y-135109757D01*
X100743188Y-135115642D01*
X100561136Y-135220116D01*
X100549509Y-135228349D01*
X100390496Y-135365363D01*
X100380635Y-135375645D01*
X100250400Y-135540256D01*
X100242662Y-135552218D01*
X100145903Y-135738486D01*
X100140566Y-135751695D01*
X100080776Y-135952899D01*
X100078033Y-135966879D01*
X100057368Y-136175759D01*
X100057319Y-136190006D01*
X99875918Y-136190006D01*
X99875918Y-135287000D01*
X99874477Y-135272369D01*
X99858955Y-135194333D01*
X99847756Y-135167296D01*
X99803552Y-135101140D01*
X99782860Y-135080448D01*
X99716704Y-135036244D01*
X99689667Y-135025045D01*
X99611631Y-135009523D01*
X99597000Y-135008082D01*
X97797000Y-135008082D01*
X97782369Y-135009523D01*
X97704333Y-135025045D01*
X97677296Y-135036244D01*
X97611140Y-135080448D01*
X97590448Y-135101140D01*
X97546244Y-135167296D01*
X97535045Y-135194333D01*
X97519523Y-135272369D01*
X97518082Y-135287000D01*
X97518082Y-135787000D01*
X96315918Y-135787000D01*
X96314477Y-135772369D01*
X96298955Y-135694333D01*
X96287756Y-135667296D01*
X96243552Y-135601140D01*
X96222860Y-135580448D01*
X96156704Y-135536244D01*
X96129667Y-135525045D01*
X96051631Y-135509523D01*
X96037000Y-135508082D01*
X95137000Y-135508082D01*
X95122369Y-135509523D01*
X95044333Y-135525045D01*
X95017296Y-135536244D01*
X94951140Y-135580448D01*
X94930448Y-135601140D01*
X94886244Y-135667296D01*
X94875045Y-135694333D01*
X94859523Y-135772369D01*
X94858082Y-135787000D01*
X94267512Y-135787000D01*
X94287756Y-135756704D01*
X94298955Y-135729667D01*
X94314477Y-135651631D01*
X94315918Y-135637000D01*
X94315918Y-134837000D01*
X94314477Y-134822369D01*
X94298955Y-134744333D01*
X94287756Y-134717296D01*
X94243552Y-134651140D01*
X94222860Y-134630448D01*
X94156704Y-134586244D01*
X94129667Y-134575045D01*
X94051631Y-134559523D01*
X94037000Y-134558082D01*
X93137000Y-134558082D01*
X93122369Y-134559523D01*
X93044333Y-134575045D01*
X93017296Y-134586244D01*
X92951140Y-134630448D01*
X92930448Y-134651140D01*
X92886244Y-134717296D01*
X92875045Y-134744333D01*
X92859523Y-134822369D01*
X92858082Y-134837000D01*
X92528464Y-134837000D01*
X92528464Y-134598330D01*
X92526472Y-134581159D01*
X92478478Y-134377103D01*
X92465321Y-134349077D01*
X92363935Y-134214819D01*
X92343566Y-134196250D01*
X92200526Y-134107684D01*
X92174825Y-134097727D01*
X92009451Y-134066813D01*
X91995670Y-134065536D01*
X91354330Y-134065536D01*
X91337159Y-134067528D01*
X91133103Y-134115522D01*
X91105077Y-134128679D01*
X90970819Y-134230065D01*
X90952250Y-134250434D01*
X90863684Y-134393474D01*
X90853727Y-134419175D01*
X90822813Y-134584549D01*
X90821536Y-134598330D01*
X90478464Y-134598330D01*
X90476472Y-134581159D01*
X90428478Y-134377103D01*
X90415321Y-134349077D01*
X90313935Y-134214819D01*
X90293566Y-134196250D01*
X90150526Y-134107684D01*
X90124825Y-134097727D01*
X89959451Y-134066813D01*
X89945670Y-134065536D01*
X89304330Y-134065536D01*
X89287159Y-134067528D01*
X89083103Y-134115522D01*
X89055077Y-134128679D01*
X88920819Y-134230065D01*
X88902250Y-134250434D01*
X88813684Y-134393474D01*
X88803727Y-134419175D01*
X88772813Y-134584549D01*
X88771536Y-134598330D01*
X88771536Y-135489670D01*
X88773528Y-135506841D01*
X88821522Y-135710897D01*
X88834679Y-135738923D01*
X88936065Y-135873181D01*
X88956434Y-135891750D01*
X89099474Y-135980316D01*
X89125174Y-135990273D01*
X89225000Y-136008934D01*
X89225001Y-136368147D01*
X89083102Y-136401522D01*
X89055077Y-136414679D01*
X88920819Y-136516065D01*
X88902250Y-136536434D01*
X88813684Y-136679474D01*
X88803727Y-136705175D01*
X88772813Y-136870549D01*
X88771536Y-136884330D01*
X88771536Y-137775670D01*
X88773528Y-137792841D01*
X88821522Y-137996897D01*
X88834679Y-138024923D01*
X88936065Y-138159181D01*
X88956434Y-138177750D01*
X89099474Y-138266316D01*
X89125174Y-138276273D01*
X89225000Y-138294934D01*
X89225000Y-138909315D01*
X88614316Y-139520000D01*
X84055033Y-139520000D01*
X84050201Y-139503584D01*
X84044718Y-139490013D01*
X83949318Y-139307530D01*
X83941303Y-139295282D01*
X83812276Y-139134804D01*
X83802035Y-139124346D01*
X83644294Y-138991986D01*
X83632216Y-138983716D01*
X83451771Y-138884516D01*
X83438318Y-138878750D01*
X83242041Y-138816487D01*
X83227203Y-138813387D01*
X83056173Y-138795411D01*
X83048333Y-138795000D01*
X82948191Y-138795000D01*
X82940872Y-138795358D01*
X82787748Y-138810372D01*
X82773390Y-138813215D01*
X82576263Y-138872731D01*
X82562730Y-138878309D01*
X82380918Y-138974980D01*
X82368726Y-138983080D01*
X82209153Y-139113225D01*
X82198767Y-139123539D01*
X82067511Y-139282200D01*
X82059325Y-139294335D01*
X81961387Y-139475468D01*
X81955715Y-139488962D01*
X81894824Y-139685669D01*
X81891881Y-139700007D01*
X81870357Y-139904794D01*
X81870255Y-139919431D01*
X80275000Y-139919431D01*
X80275000Y-137379431D01*
X81870255Y-137379431D01*
X81888917Y-137584499D01*
X81891659Y-137598878D01*
X81949798Y-137796416D01*
X81955282Y-137809987D01*
X82050682Y-137992470D01*
X82058697Y-138004718D01*
X82187724Y-138165196D01*
X82197965Y-138175654D01*
X82355706Y-138308014D01*
X82367784Y-138316284D01*
X82548229Y-138415484D01*
X82561682Y-138421250D01*
X82757959Y-138483513D01*
X82772797Y-138486613D01*
X82943827Y-138504589D01*
X82951667Y-138505000D01*
X83051809Y-138505000D01*
X83059128Y-138504642D01*
X83212252Y-138489628D01*
X83226610Y-138486785D01*
X83423737Y-138427269D01*
X83437270Y-138421691D01*
X83619082Y-138325020D01*
X83631274Y-138316920D01*
X83790847Y-138186775D01*
X83801233Y-138176461D01*
X83932489Y-138017800D01*
X83940675Y-138005665D01*
X84038613Y-137824532D01*
X84044285Y-137811038D01*
X84105176Y-137614331D01*
X84108119Y-137599993D01*
X84129643Y-137395206D01*
X84129745Y-137380569D01*
X84111083Y-137175501D01*
X84108341Y-137161122D01*
X84050202Y-136963584D01*
X84044718Y-136950013D01*
X83949318Y-136767530D01*
X83941303Y-136755282D01*
X83812276Y-136594804D01*
X83802035Y-136584346D01*
X83644294Y-136451986D01*
X83632216Y-136443716D01*
X83451771Y-136344516D01*
X83438318Y-136338750D01*
X83242041Y-136276487D01*
X83227203Y-136273387D01*
X83056173Y-136255411D01*
X83048333Y-136255000D01*
X82948191Y-136255000D01*
X82940872Y-136255358D01*
X82787748Y-136270372D01*
X82773390Y-136273215D01*
X82576263Y-136332731D01*
X82562730Y-136338309D01*
X82380918Y-136434980D01*
X82368726Y-136443080D01*
X82209153Y-136573225D01*
X82198767Y-136583539D01*
X82067511Y-136742200D01*
X82059325Y-136754335D01*
X81961387Y-136935468D01*
X81955715Y-136948962D01*
X81894824Y-137145669D01*
X81891881Y-137160007D01*
X81870357Y-137364794D01*
X81870255Y-137379431D01*
X80275000Y-137379431D01*
X80275000Y-134839431D01*
X81870255Y-134839431D01*
X81888917Y-135044499D01*
X81891659Y-135058878D01*
X81949798Y-135256416D01*
X81955282Y-135269987D01*
X82050682Y-135452470D01*
X82058697Y-135464718D01*
X82187724Y-135625196D01*
X82197965Y-135635654D01*
X82355706Y-135768014D01*
X82367784Y-135776284D01*
X82548229Y-135875484D01*
X82561682Y-135881250D01*
X82757959Y-135943513D01*
X82772797Y-135946613D01*
X82943827Y-135964589D01*
X82951667Y-135965000D01*
X83051809Y-135965000D01*
X83059128Y-135964642D01*
X83212252Y-135949628D01*
X83226610Y-135946785D01*
X83423737Y-135887269D01*
X83437270Y-135881691D01*
X83619082Y-135785020D01*
X83631274Y-135776920D01*
X83790847Y-135646775D01*
X83801233Y-135636461D01*
X83932489Y-135477800D01*
X83940675Y-135465665D01*
X84038613Y-135284532D01*
X84044285Y-135271038D01*
X84105176Y-135074331D01*
X84108119Y-135059993D01*
X84129643Y-134855206D01*
X84129745Y-134840569D01*
X84111083Y-134635501D01*
X84108341Y-134621122D01*
X84050202Y-134423584D01*
X84044718Y-134410013D01*
X83949318Y-134227530D01*
X83941303Y-134215282D01*
X83812276Y-134054804D01*
X83802035Y-134044346D01*
X83644294Y-133911986D01*
X83632216Y-133903716D01*
X83451771Y-133804516D01*
X83438318Y-133798750D01*
X83242041Y-133736487D01*
X83227203Y-133733387D01*
X83056173Y-133715411D01*
X83048333Y-133715000D01*
X82948191Y-133715000D01*
X82940872Y-133715358D01*
X82787748Y-133730372D01*
X82773390Y-133733215D01*
X82576263Y-133792731D01*
X82562730Y-133798309D01*
X82380918Y-133894980D01*
X82368726Y-133903080D01*
X82209153Y-134033225D01*
X82198767Y-134043539D01*
X82067511Y-134202200D01*
X82059325Y-134214335D01*
X81961387Y-134395468D01*
X81955715Y-134408962D01*
X81894824Y-134605669D01*
X81891881Y-134620007D01*
X81870357Y-134824794D01*
X81870255Y-134839431D01*
X80275000Y-134839431D01*
X80275000Y-130904969D01*
X80325000Y-130904969D01*
X80325000Y-131095031D01*
X80328671Y-131118207D01*
X80387403Y-131298966D01*
X80398056Y-131319874D01*
X80509771Y-131473637D01*
X80526363Y-131490229D01*
X80680126Y-131601944D01*
X80701034Y-131612597D01*
X80881793Y-131671329D01*
X80904969Y-131675000D01*
X81095031Y-131675000D01*
X81118207Y-131671329D01*
X81298966Y-131612597D01*
X81319874Y-131601944D01*
X81473637Y-131490229D01*
X81490229Y-131473637D01*
X81601944Y-131319874D01*
X81612597Y-131298966D01*
X81671329Y-131118207D01*
X81675000Y-131095031D01*
X81675000Y-130904969D01*
X81671329Y-130881793D01*
X81612597Y-130701034D01*
X81601944Y-130680126D01*
X81490229Y-130526363D01*
X81473637Y-130509771D01*
X81319874Y-130398056D01*
X81298966Y-130387403D01*
X81118207Y-130328671D01*
X81095031Y-130325000D01*
X80904969Y-130325000D01*
X80881793Y-130328671D01*
X80701034Y-130387403D01*
X80680126Y-130398056D01*
X80526363Y-130509771D01*
X80509771Y-130526363D01*
X80398056Y-130680126D01*
X80387403Y-130701034D01*
X80328671Y-130881793D01*
X80325000Y-130904969D01*
X80275000Y-130904969D01*
X80275000Y-130275000D01*
X129725000Y-130275000D01*
X129725001Y-149725000D01*
X129725001Y-149725000D01*
G37*
X129725001Y-149725000D02*
X80275000Y-149725000D01*
X80275000Y-145254000D01*
X81559163Y-145254000D01*
X81559163Y-145850000D01*
X81561719Y-145869411D01*
X81630828Y-146127330D01*
X81645819Y-146156128D01*
X81760973Y-146293363D01*
X81780926Y-146310106D01*
X81936073Y-146399680D01*
X81960549Y-146408589D01*
X82136976Y-146439698D01*
X82150000Y-146440837D01*
X82746000Y-146440837D01*
X82794209Y-146423290D01*
X82821000Y-146365837D01*
X82821000Y-145254000D01*
X83179000Y-145254000D01*
X83179000Y-146365837D01*
X83196547Y-146414046D01*
X83254000Y-146440837D01*
X83850000Y-146440837D01*
X83869411Y-146438281D01*
X84127330Y-146369172D01*
X84156128Y-146354181D01*
X84293363Y-146239027D01*
X84310106Y-146219074D01*
X84399680Y-146063927D01*
X84408589Y-146039451D01*
X84439698Y-145863024D01*
X84440837Y-145850000D01*
X84440837Y-145254000D01*
X84423290Y-145205791D01*
X84365837Y-145179000D01*
X83254000Y-145179000D01*
X83205791Y-145196547D01*
X83179000Y-145254000D01*
X82821000Y-145254000D01*
X82803453Y-145205791D01*
X82746000Y-145179000D01*
X81634163Y-145179000D01*
X81585954Y-145196547D01*
X81559163Y-145254000D01*
X80275000Y-145254000D01*
X80275000Y-144150000D01*
X81559163Y-144150000D01*
X81559163Y-144746000D01*
X81576710Y-144794209D01*
X81634163Y-144821000D01*
X82746000Y-144821000D01*
X82794209Y-144803453D01*
X82821000Y-144746000D01*
X82821000Y-143634163D01*
X83179000Y-143634163D01*
X83179000Y-144746000D01*
X83196547Y-144794209D01*
X83254000Y-144821000D01*
X84365837Y-144821000D01*
X84414046Y-144803453D01*
X84440837Y-144746000D01*
X84440837Y-144150000D01*
X84438281Y-144130589D01*
X84369172Y-143872671D01*
X84354181Y-143843873D01*
X84239027Y-143706637D01*
X84219074Y-143689894D01*
X84063927Y-143600320D01*
X84039451Y-143591411D01*
X83863024Y-143560302D01*
X83850000Y-143559163D01*
X83254000Y-143559163D01*
X83205791Y-143576710D01*
X83179000Y-143634163D01*
X82821000Y-143634163D01*
X82803453Y-143585954D01*
X82749732Y-143560903D01*
X82757959Y-143563513D01*
X82772797Y-143566613D01*
X82943827Y-143584589D01*
X82951667Y-143585000D01*
X83051809Y-143585000D01*
X83059128Y-143584642D01*
X83212252Y-143569628D01*
X83226610Y-143566785D01*
X83423737Y-143507269D01*
X83437270Y-143501691D01*
X83619082Y-143405020D01*
X83631274Y-143396920D01*
X83790847Y-143266775D01*
X83801233Y-143256461D01*
X83932489Y-143097800D01*
X83940675Y-143085665D01*
X84038613Y-142904532D01*
X84044285Y-142891038D01*
X84053893Y-142860000D01*
X85429550Y-142860000D01*
X85488051Y-142863066D01*
X85526025Y-142854995D01*
X85540655Y-142847541D01*
X85590735Y-142836896D01*
X85619226Y-142824211D01*
X85731001Y-142743001D01*
X85751869Y-142719825D01*
X85760077Y-142705608D01*
X86163685Y-142302000D01*
X88771536Y-142302000D01*
X88771536Y-142347670D01*
X88773528Y-142364841D01*
X88821522Y-142568897D01*
X88834679Y-142596923D01*
X88936065Y-142731181D01*
X88956434Y-142749750D01*
X89099474Y-142838316D01*
X89125175Y-142848273D01*
X89225001Y-142866934D01*
X89225000Y-143226147D01*
X89083102Y-143259522D01*
X89055077Y-143272679D01*
X88920819Y-143374065D01*
X88902250Y-143394434D01*
X88813684Y-143537474D01*
X88803727Y-143563175D01*
X88772813Y-143728549D01*
X88771536Y-143742330D01*
X88771536Y-144633670D01*
X88773528Y-144650841D01*
X88821522Y-144854897D01*
X88834679Y-144882923D01*
X88936065Y-145017181D01*
X88956434Y-145035750D01*
X89099474Y-145124316D01*
X89125175Y-145134273D01*
X89290549Y-145165187D01*
X89304330Y-145166464D01*
X89945670Y-145166464D01*
X89962841Y-145164472D01*
X90166897Y-145116478D01*
X90194923Y-145103321D01*
X90329181Y-145001935D01*
X90347750Y-144981566D01*
X90436316Y-144838526D01*
X90446273Y-144812825D01*
X90477187Y-144647451D01*
X90478464Y-144633670D01*
X90478464Y-143742330D01*
X90821536Y-143742330D01*
X90821536Y-144633670D01*
X90823528Y-144650841D01*
X90871522Y-144854897D01*
X90884679Y-144882923D01*
X90986065Y-145017181D01*
X91006434Y-145035750D01*
X91149474Y-145124316D01*
X91175175Y-145134273D01*
X91340549Y-145165187D01*
X91354330Y-145166464D01*
X91375001Y-145166464D01*
X91375000Y-145274434D01*
X91326363Y-145309771D01*
X91309771Y-145326363D01*
X91198056Y-145480126D01*
X91187403Y-145501034D01*
X91128671Y-145681793D01*
X91125000Y-145704969D01*
X91125000Y-145895031D01*
X91128671Y-145918207D01*
X91187403Y-146098966D01*
X91198056Y-146119874D01*
X91309771Y-146273637D01*
X91326363Y-146290229D01*
X91480126Y-146401944D01*
X91501034Y-146412597D01*
X91681793Y-146471329D01*
X91704969Y-146475000D01*
X91895031Y-146475000D01*
X91918207Y-146471329D01*
X92098966Y-146412597D01*
X92119874Y-146401944D01*
X92273637Y-146290229D01*
X92290229Y-146273637D01*
X92401944Y-146119874D01*
X92412597Y-146098966D01*
X92471329Y-145918207D01*
X92475000Y-145895031D01*
X92475000Y-145704969D01*
X92471329Y-145681793D01*
X92412597Y-145501034D01*
X92401944Y-145480126D01*
X92290229Y-145326363D01*
X92273637Y-145309770D01*
X92225000Y-145274434D01*
X92225000Y-145112674D01*
X92244923Y-145103321D01*
X92379181Y-145001935D01*
X92397750Y-144981566D01*
X92486316Y-144838526D01*
X92496273Y-144812825D01*
X92527187Y-144647451D01*
X92528464Y-144633670D01*
X92528464Y-143742330D01*
X92526472Y-143725159D01*
X92478478Y-143521103D01*
X92465321Y-143493077D01*
X92446384Y-143468000D01*
X92858082Y-143468000D01*
X92858082Y-144268000D01*
X92859523Y-144282631D01*
X92875045Y-144360667D01*
X92886244Y-144387704D01*
X92930448Y-144453860D01*
X92951140Y-144474552D01*
X93017296Y-144518756D01*
X93044332Y-144529955D01*
X93065199Y-144534106D01*
X93146956Y-144575763D01*
X93175001Y-144583278D01*
X93175000Y-144674434D01*
X93126363Y-144709771D01*
X93109771Y-144726363D01*
X92998056Y-144880126D01*
X92987403Y-144901034D01*
X92928671Y-145081793D01*
X92925000Y-145104969D01*
X92925000Y-145295031D01*
X92928671Y-145318207D01*
X92987403Y-145498966D01*
X92998056Y-145519874D01*
X93109771Y-145673637D01*
X93126363Y-145690229D01*
X93280126Y-145801944D01*
X93301034Y-145812597D01*
X93481793Y-145871329D01*
X93504969Y-145875000D01*
X93695031Y-145875000D01*
X93718207Y-145871329D01*
X93898966Y-145812597D01*
X93919874Y-145801944D01*
X94073637Y-145690229D01*
X94090229Y-145673637D01*
X94201944Y-145519874D01*
X94212597Y-145498966D01*
X94271329Y-145318207D01*
X94275000Y-145295031D01*
X94275000Y-145104969D01*
X94271329Y-145081793D01*
X94212597Y-144901034D01*
X94201944Y-144880126D01*
X94090229Y-144726363D01*
X94073637Y-144709770D01*
X94025000Y-144674434D01*
X94025000Y-144546918D01*
X94037000Y-144546918D01*
X94051631Y-144545477D01*
X94129667Y-144529955D01*
X94156704Y-144518756D01*
X94222860Y-144474552D01*
X94243552Y-144453860D01*
X94287756Y-144387704D01*
X94298955Y-144360667D01*
X94314477Y-144282631D01*
X94315918Y-144268000D01*
X94315918Y-143468000D01*
X94314477Y-143453369D01*
X94298955Y-143375333D01*
X94287756Y-143348296D01*
X94243552Y-143282140D01*
X94222860Y-143261448D01*
X94156704Y-143217244D01*
X94129667Y-143206045D01*
X94051631Y-143190523D01*
X94037000Y-143189082D01*
X93137000Y-143189082D01*
X93122369Y-143190523D01*
X93044333Y-143206045D01*
X93017296Y-143217244D01*
X92951140Y-143261448D01*
X92930448Y-143282140D01*
X92886244Y-143348296D01*
X92875045Y-143375333D01*
X92859523Y-143453369D01*
X92858082Y-143468000D01*
X92446384Y-143468000D01*
X92363935Y-143358819D01*
X92343566Y-143340250D01*
X92200526Y-143251684D01*
X92174825Y-143241727D01*
X92009451Y-143210813D01*
X91995670Y-143209536D01*
X91354330Y-143209536D01*
X91337159Y-143211528D01*
X91133103Y-143259522D01*
X91105077Y-143272679D01*
X90970819Y-143374065D01*
X90952250Y-143394434D01*
X90863684Y-143537474D01*
X90853727Y-143563175D01*
X90822813Y-143728549D01*
X90821536Y-143742330D01*
X90478464Y-143742330D01*
X90476472Y-143725159D01*
X90428478Y-143521103D01*
X90415321Y-143493077D01*
X90313935Y-143358819D01*
X90293566Y-143340250D01*
X90150526Y-143251684D01*
X90124826Y-143241727D01*
X90025000Y-143223066D01*
X90025000Y-142863853D01*
X90166898Y-142830478D01*
X90194923Y-142817321D01*
X90329181Y-142715935D01*
X90347750Y-142695566D01*
X90436316Y-142552526D01*
X90446273Y-142526825D01*
X90477187Y-142361451D01*
X90478464Y-142347670D01*
X90478464Y-141456330D01*
X90821536Y-141456330D01*
X90821536Y-142347670D01*
X90823528Y-142364841D01*
X90871522Y-142568897D01*
X90884679Y-142596923D01*
X90986065Y-142731181D01*
X91006434Y-142749750D01*
X91149474Y-142838316D01*
X91175175Y-142848273D01*
X91340549Y-142879187D01*
X91354330Y-142880464D01*
X91995670Y-142880464D01*
X92012841Y-142878472D01*
X92216897Y-142830478D01*
X92244923Y-142817321D01*
X92379181Y-142715935D01*
X92397750Y-142695566D01*
X92486316Y-142552526D01*
X92496273Y-142526825D01*
X92525963Y-142368000D01*
X92858082Y-142368000D01*
X92859523Y-142382631D01*
X92875045Y-142460667D01*
X92886244Y-142487704D01*
X92930448Y-142553860D01*
X92951140Y-142574552D01*
X93017296Y-142618756D01*
X93044333Y-142629955D01*
X93122369Y-142645477D01*
X93137000Y-142646918D01*
X94037000Y-142646918D01*
X94051631Y-142645477D01*
X94129667Y-142629955D01*
X94156704Y-142618756D01*
X94222860Y-142574552D01*
X94243552Y-142553860D01*
X94267512Y-142518000D01*
X94858082Y-142518000D01*
X94858082Y-143318000D01*
X94859523Y-143332631D01*
X94875045Y-143410667D01*
X94886244Y-143437704D01*
X94930448Y-143503860D01*
X94951140Y-143524552D01*
X95017296Y-143568756D01*
X95044333Y-143579955D01*
X95122369Y-143595477D01*
X95137000Y-143596918D01*
X96037000Y-143596918D01*
X96051631Y-143595477D01*
X96129667Y-143579955D01*
X96156704Y-143568756D01*
X96222860Y-143524552D01*
X96243552Y-143503860D01*
X96287756Y-143437704D01*
X96298955Y-143410667D01*
X96314477Y-143332631D01*
X96315918Y-143318000D01*
X97518082Y-143318000D01*
X97518082Y-143818000D01*
X97519523Y-143832631D01*
X97535045Y-143910667D01*
X97546244Y-143937704D01*
X97590448Y-144003860D01*
X97611140Y-144024552D01*
X97677296Y-144068756D01*
X97704333Y-144079955D01*
X97782369Y-144095477D01*
X97797000Y-144096918D01*
X99597000Y-144096918D01*
X99611631Y-144095477D01*
X99689667Y-144079955D01*
X99716704Y-144068756D01*
X99782860Y-144024552D01*
X99803552Y-144003860D01*
X99847756Y-143937704D01*
X99858955Y-143910667D01*
X99874477Y-143832631D01*
X99875918Y-143818000D01*
X99875918Y-142921006D01*
X100057319Y-142921006D01*
X100076525Y-143130025D01*
X100079170Y-143144023D01*
X100137554Y-143345640D01*
X100142798Y-143358887D01*
X100238254Y-143545826D01*
X100245909Y-143557841D01*
X100374992Y-143723357D01*
X100384780Y-143733708D01*
X100542832Y-143871829D01*
X100554402Y-143880143D01*
X100735721Y-143985885D01*
X100748654Y-143991860D01*
X100946697Y-144061408D01*
X100960526Y-144064831D01*
X101168148Y-144095675D01*
X101182375Y-144096420D01*
X101392083Y-144087447D01*
X101406195Y-144085489D01*
X101610423Y-144037023D01*
X101623909Y-144032432D01*
X101815287Y-143946222D01*
X101827662Y-143939164D01*
X101999286Y-143818321D01*
X102010103Y-143809049D01*
X102155780Y-143657933D01*
X102164648Y-143646784D01*
X102279122Y-143470847D01*
X102285723Y-143458221D01*
X102342803Y-143318000D01*
X104122082Y-143318000D01*
X104122082Y-143818000D01*
X104123523Y-143832631D01*
X104139045Y-143910667D01*
X104150244Y-143937704D01*
X104194448Y-144003860D01*
X104215140Y-144024552D01*
X104281296Y-144068756D01*
X104308333Y-144079955D01*
X104386369Y-144095477D01*
X104401000Y-144096918D01*
X106201000Y-144096918D01*
X106215631Y-144095477D01*
X106293667Y-144079955D01*
X106320704Y-144068756D01*
X106386860Y-144024552D01*
X106407552Y-144003860D01*
X106451756Y-143937704D01*
X106462955Y-143910667D01*
X106478477Y-143832631D01*
X106479918Y-143818000D01*
X106479918Y-142921006D01*
X106661319Y-142921006D01*
X106680525Y-143130025D01*
X106683170Y-143144023D01*
X106741554Y-143345640D01*
X106746798Y-143358887D01*
X106842254Y-143545826D01*
X106849909Y-143557841D01*
X106978992Y-143723357D01*
X106988780Y-143733708D01*
X107146832Y-143871829D01*
X107158402Y-143880143D01*
X107339721Y-143985885D01*
X107352654Y-143991860D01*
X107550697Y-144061408D01*
X107564526Y-144064831D01*
X107772148Y-144095675D01*
X107786375Y-144096420D01*
X107996083Y-144087447D01*
X108010195Y-144085489D01*
X108214423Y-144037023D01*
X108227909Y-144032432D01*
X108419287Y-143946222D01*
X108431662Y-143939164D01*
X108603286Y-143818321D01*
X108614103Y-143809049D01*
X108759780Y-143657933D01*
X108768648Y-143646784D01*
X108883122Y-143470847D01*
X108889723Y-143458221D01*
X108946803Y-143318000D01*
X110726082Y-143318000D01*
X110726082Y-143818000D01*
X110727523Y-143832631D01*
X110743045Y-143910667D01*
X110754244Y-143937704D01*
X110798448Y-144003860D01*
X110819140Y-144024552D01*
X110885296Y-144068756D01*
X110912333Y-144079955D01*
X110990369Y-144095477D01*
X111005000Y-144096918D01*
X112805000Y-144096918D01*
X112819631Y-144095477D01*
X112897667Y-144079955D01*
X112924704Y-144068756D01*
X112990860Y-144024552D01*
X113011552Y-144003860D01*
X113055756Y-143937704D01*
X113066955Y-143910667D01*
X113082477Y-143832631D01*
X113083918Y-143818000D01*
X113083918Y-142921006D01*
X113265319Y-142921006D01*
X113284525Y-143130025D01*
X113287170Y-143144023D01*
X113345554Y-143345640D01*
X113350798Y-143358887D01*
X113446254Y-143545826D01*
X113453909Y-143557841D01*
X113582992Y-143723357D01*
X113592780Y-143733708D01*
X113750832Y-143871829D01*
X113762402Y-143880143D01*
X113943721Y-143985885D01*
X113956654Y-143991860D01*
X114154697Y-144061408D01*
X114168526Y-144064831D01*
X114376148Y-144095675D01*
X114390375Y-144096420D01*
X114600083Y-144087447D01*
X114614195Y-144085489D01*
X114818423Y-144037023D01*
X114831909Y-144032432D01*
X115023287Y-143946222D01*
X115035662Y-143939164D01*
X115207286Y-143818321D01*
X115218103Y-143809049D01*
X115363780Y-143657933D01*
X115372648Y-143646784D01*
X115487122Y-143470847D01*
X115493723Y-143458221D01*
X115550803Y-143318000D01*
X117330082Y-143318000D01*
X117330082Y-143818000D01*
X117331523Y-143832631D01*
X117347045Y-143910667D01*
X117358244Y-143937704D01*
X117402448Y-144003860D01*
X117423140Y-144024552D01*
X117489296Y-144068756D01*
X117516333Y-144079955D01*
X117594369Y-144095477D01*
X117609000Y-144096918D01*
X119409000Y-144096918D01*
X119423631Y-144095477D01*
X119501667Y-144079955D01*
X119522245Y-144071431D01*
X120173528Y-144071431D01*
X120202846Y-144137669D01*
X120246432Y-144170812D01*
X120257140Y-144177607D01*
X120468991Y-144288125D01*
X120480690Y-144293019D01*
X120708134Y-144366263D01*
X120720492Y-144369116D01*
X120957025Y-144402990D01*
X120969686Y-144403720D01*
X121208545Y-144397257D01*
X121221148Y-144395843D01*
X121455503Y-144349226D01*
X121467688Y-144345709D01*
X121690838Y-144260273D01*
X121702255Y-144254753D01*
X121889373Y-144143872D01*
X121921902Y-144104201D01*
X121921320Y-144052901D01*
X121904172Y-144026317D01*
X121102033Y-143224177D01*
X121055537Y-143202495D01*
X120995967Y-143224177D01*
X120195210Y-144024935D01*
X120173528Y-144071431D01*
X119522245Y-144071431D01*
X119528704Y-144068756D01*
X119594860Y-144024552D01*
X119615552Y-144003860D01*
X119659756Y-143937704D01*
X119670955Y-143910667D01*
X119686477Y-143832631D01*
X119687918Y-143818000D01*
X119687918Y-143506963D01*
X119738451Y-143622354D01*
X119744503Y-143633500D01*
X119827207Y-143759165D01*
X119868367Y-143789789D01*
X119919582Y-143786790D01*
X119942889Y-143770966D01*
X120742823Y-142971033D01*
X120764505Y-142924537D01*
X120759747Y-142911463D01*
X121333495Y-142911463D01*
X121355177Y-142971033D01*
X122157842Y-143773697D01*
X122204338Y-143795379D01*
X122253893Y-143782100D01*
X122275663Y-143758447D01*
X122390282Y-143561907D01*
X122395721Y-143550451D01*
X122479597Y-143326710D01*
X122483029Y-143314501D01*
X122528008Y-143079826D01*
X122529345Y-143066493D01*
X122532130Y-142800541D01*
X122531073Y-142787184D01*
X122491019Y-142551619D01*
X122487843Y-142539341D01*
X122408671Y-142313892D01*
X122403473Y-142302324D01*
X122287447Y-142093438D01*
X122280372Y-142082910D01*
X122269006Y-142068749D01*
X122225146Y-142042136D01*
X122157483Y-142062662D01*
X121355177Y-142864967D01*
X121333495Y-142911463D01*
X120759747Y-142911463D01*
X120742823Y-142864967D01*
X119943133Y-142065278D01*
X119896637Y-142043596D01*
X119847082Y-142056875D01*
X119828328Y-142075776D01*
X119759773Y-142175337D01*
X119753489Y-142186354D01*
X119687918Y-142327939D01*
X119687918Y-142018000D01*
X119686477Y-142003369D01*
X119670955Y-141925333D01*
X119659756Y-141898296D01*
X119615552Y-141832140D01*
X119594860Y-141811448D01*
X119528704Y-141767244D01*
X119501667Y-141756045D01*
X119424526Y-141740701D01*
X120176204Y-141740701D01*
X120195959Y-141811814D01*
X120995967Y-142611823D01*
X121042463Y-142633505D01*
X121102033Y-142611823D01*
X121902905Y-141810950D01*
X121924587Y-141764454D01*
X121911308Y-141714899D01*
X121889449Y-141694209D01*
X121730106Y-141595220D01*
X121718807Y-141589463D01*
X121497495Y-141499372D01*
X121485386Y-141495601D01*
X121252059Y-141444087D01*
X121239488Y-141442409D01*
X121000817Y-141430945D01*
X120988144Y-141431410D01*
X120750954Y-141460323D01*
X120738540Y-141462917D01*
X120509612Y-141531381D01*
X120497812Y-141536029D01*
X120283692Y-141642086D01*
X120272844Y-141648655D01*
X120204855Y-141698143D01*
X120176204Y-141740701D01*
X119424526Y-141740701D01*
X119423631Y-141740523D01*
X119409000Y-141739082D01*
X117609000Y-141739082D01*
X117594369Y-141740523D01*
X117516333Y-141756045D01*
X117489296Y-141767244D01*
X117423140Y-141811448D01*
X117402448Y-141832140D01*
X117358244Y-141898296D01*
X117347045Y-141925333D01*
X117331523Y-142003369D01*
X117330082Y-142018000D01*
X117330082Y-142518000D01*
X115550486Y-142518000D01*
X115497469Y-142385113D01*
X115490957Y-142372442D01*
X115377715Y-142195711D01*
X115368924Y-142184500D01*
X115224305Y-142032370D01*
X115213553Y-142023023D01*
X115042777Y-141900984D01*
X115030452Y-141893840D01*
X114839680Y-141806296D01*
X114826225Y-141801610D01*
X114622340Y-141751720D01*
X114608243Y-141749664D01*
X114398603Y-141739228D01*
X114384372Y-141739874D01*
X114176540Y-141769267D01*
X114162686Y-141772593D01*
X113964162Y-141840757D01*
X113951188Y-141846642D01*
X113769136Y-141951116D01*
X113757509Y-141959349D01*
X113598496Y-142096363D01*
X113588635Y-142106645D01*
X113458400Y-142271256D01*
X113450662Y-142283218D01*
X113353903Y-142469486D01*
X113348566Y-142482695D01*
X113288776Y-142683899D01*
X113286033Y-142697879D01*
X113265368Y-142906759D01*
X113265319Y-142921006D01*
X113083918Y-142921006D01*
X113083918Y-142018000D01*
X113082477Y-142003369D01*
X113066955Y-141925333D01*
X113055756Y-141898296D01*
X113011552Y-141832140D01*
X112990860Y-141811448D01*
X112924704Y-141767244D01*
X112897667Y-141756045D01*
X112819631Y-141740523D01*
X112805000Y-141739082D01*
X111005000Y-141739082D01*
X110990369Y-141740523D01*
X110912333Y-141756045D01*
X110885296Y-141767244D01*
X110819140Y-141811448D01*
X110798448Y-141832140D01*
X110754244Y-141898296D01*
X110743045Y-141925333D01*
X110727523Y-142003369D01*
X110726082Y-142018000D01*
X110726082Y-142518000D01*
X108946486Y-142518000D01*
X108893469Y-142385113D01*
X108886957Y-142372442D01*
X108773715Y-142195711D01*
X108764924Y-142184500D01*
X108620305Y-142032370D01*
X108609553Y-142023023D01*
X108438777Y-141900984D01*
X108426452Y-141893840D01*
X108235680Y-141806296D01*
X108222225Y-141801610D01*
X108018340Y-141751720D01*
X108004243Y-141749664D01*
X107794603Y-141739228D01*
X107780372Y-141739874D01*
X107572540Y-141769267D01*
X107558686Y-141772593D01*
X107360162Y-141840757D01*
X107347188Y-141846642D01*
X107165136Y-141951116D01*
X107153509Y-141959349D01*
X106994496Y-142096363D01*
X106984635Y-142106645D01*
X106854400Y-142271256D01*
X106846662Y-142283218D01*
X106749903Y-142469486D01*
X106744566Y-142482695D01*
X106684776Y-142683899D01*
X106682033Y-142697879D01*
X106661368Y-142906759D01*
X106661319Y-142921006D01*
X106479918Y-142921006D01*
X106479918Y-142018000D01*
X106478477Y-142003369D01*
X106462955Y-141925333D01*
X106451756Y-141898296D01*
X106407552Y-141832140D01*
X106386860Y-141811448D01*
X106320704Y-141767244D01*
X106293667Y-141756045D01*
X106215631Y-141740523D01*
X106201000Y-141739082D01*
X104401000Y-141739082D01*
X104386369Y-141740523D01*
X104308333Y-141756045D01*
X104281296Y-141767244D01*
X104215140Y-141811448D01*
X104194448Y-141832140D01*
X104150244Y-141898296D01*
X104139045Y-141925333D01*
X104123523Y-142003369D01*
X104122082Y-142018000D01*
X104122082Y-142518000D01*
X102342486Y-142518000D01*
X102289469Y-142385113D01*
X102282957Y-142372442D01*
X102169715Y-142195711D01*
X102160924Y-142184500D01*
X102016305Y-142032370D01*
X102005553Y-142023023D01*
X101834777Y-141900984D01*
X101822452Y-141893840D01*
X101631680Y-141806296D01*
X101618225Y-141801610D01*
X101414340Y-141751720D01*
X101400243Y-141749664D01*
X101190603Y-141739228D01*
X101176372Y-141739874D01*
X100968540Y-141769267D01*
X100954686Y-141772593D01*
X100756162Y-141840757D01*
X100743188Y-141846642D01*
X100561136Y-141951116D01*
X100549509Y-141959349D01*
X100390496Y-142096363D01*
X100380635Y-142106645D01*
X100250400Y-142271256D01*
X100242662Y-142283218D01*
X100145903Y-142469486D01*
X100140566Y-142482695D01*
X100080776Y-142683899D01*
X100078033Y-142697879D01*
X100057368Y-142906759D01*
X100057319Y-142921006D01*
X99875918Y-142921006D01*
X99875918Y-142018000D01*
X99874477Y-142003369D01*
X99858955Y-141925333D01*
X99847756Y-141898296D01*
X99803552Y-141832140D01*
X99782860Y-141811448D01*
X99716704Y-141767244D01*
X99689667Y-141756045D01*
X99611631Y-141740523D01*
X99597000Y-141739082D01*
X97797000Y-141739082D01*
X97782369Y-141740523D01*
X97704333Y-141756045D01*
X97677296Y-141767244D01*
X97611140Y-141811448D01*
X97590448Y-141832140D01*
X97546244Y-141898296D01*
X97535045Y-141925333D01*
X97519523Y-142003369D01*
X97518082Y-142018000D01*
X97518082Y-142518000D01*
X96315918Y-142518000D01*
X96314477Y-142503369D01*
X96298955Y-142425333D01*
X96287756Y-142398296D01*
X96243552Y-142332140D01*
X96222860Y-142311448D01*
X96156704Y-142267244D01*
X96129667Y-142256045D01*
X96051631Y-142240523D01*
X96037000Y-142239082D01*
X95137000Y-142239082D01*
X95122369Y-142240523D01*
X95044333Y-142256045D01*
X95017296Y-142267244D01*
X94951140Y-142311448D01*
X94930448Y-142332140D01*
X94886244Y-142398296D01*
X94875045Y-142425333D01*
X94859523Y-142503369D01*
X94858082Y-142518000D01*
X94267512Y-142518000D01*
X94287756Y-142487704D01*
X94298955Y-142460667D01*
X94314477Y-142382631D01*
X94315918Y-142368000D01*
X94315918Y-141568000D01*
X94314477Y-141553369D01*
X94298955Y-141475333D01*
X94287756Y-141448296D01*
X94243552Y-141382140D01*
X94222860Y-141361448D01*
X94156704Y-141317244D01*
X94129667Y-141306045D01*
X94051631Y-141290523D01*
X94037000Y-141289082D01*
X93137000Y-141289082D01*
X93122369Y-141290523D01*
X93044333Y-141306045D01*
X93017296Y-141317244D01*
X92951140Y-141361448D01*
X92930448Y-141382140D01*
X92886244Y-141448296D01*
X92875045Y-141475333D01*
X92859523Y-141553369D01*
X92858082Y-141568000D01*
X92528464Y-141568000D01*
X92528464Y-141456330D01*
X92526472Y-141439159D01*
X92478478Y-141235103D01*
X92465321Y-141207077D01*
X92363935Y-141072819D01*
X92343566Y-141054250D01*
X92200526Y-140965684D01*
X92174825Y-140955727D01*
X92009451Y-140924813D01*
X91995670Y-140923536D01*
X91354330Y-140923536D01*
X91337159Y-140925528D01*
X91133103Y-140973522D01*
X91105077Y-140986679D01*
X90970819Y-141088065D01*
X90952250Y-141108434D01*
X90863684Y-141251474D01*
X90853727Y-141277175D01*
X90822813Y-141442549D01*
X90821536Y-141456330D01*
X90478464Y-141456330D01*
X90476472Y-141439159D01*
X90428478Y-141235103D01*
X90415321Y-141207077D01*
X90313935Y-141072819D01*
X90293566Y-141054250D01*
X90150526Y-140965684D01*
X90124825Y-140955727D01*
X89959451Y-140924813D01*
X89945670Y-140923536D01*
X89304330Y-140923536D01*
X89287159Y-140925528D01*
X89083103Y-140973522D01*
X89055077Y-140986679D01*
X88920819Y-141088065D01*
X88902250Y-141108434D01*
X88813684Y-141251474D01*
X88803727Y-141277175D01*
X88772813Y-141442549D01*
X88771536Y-141456330D01*
X88771536Y-141502000D01*
X86008450Y-141502000D01*
X85949948Y-141498934D01*
X85911974Y-141507005D01*
X85897344Y-141514459D01*
X85847265Y-141525104D01*
X85818774Y-141537789D01*
X85706999Y-141618999D01*
X85686131Y-141642175D01*
X85677924Y-141656390D01*
X85274316Y-142060000D01*
X84055033Y-142060000D01*
X84050201Y-142043584D01*
X84044718Y-142030013D01*
X83949318Y-141847530D01*
X83941303Y-141835282D01*
X83812276Y-141674804D01*
X83802035Y-141664346D01*
X83644294Y-141531986D01*
X83632216Y-141523716D01*
X83451771Y-141424516D01*
X83438318Y-141418750D01*
X83242041Y-141356487D01*
X83227203Y-141353387D01*
X83056173Y-141335411D01*
X83048333Y-141335000D01*
X82948191Y-141335000D01*
X82940872Y-141335358D01*
X82787748Y-141350372D01*
X82773390Y-141353215D01*
X82576263Y-141412731D01*
X82562730Y-141418309D01*
X82380918Y-141514980D01*
X82368726Y-141523080D01*
X82209153Y-141653225D01*
X82198767Y-141663539D01*
X82067511Y-141822200D01*
X82059325Y-141834335D01*
X81961387Y-142015468D01*
X81955715Y-142028962D01*
X81894824Y-142225669D01*
X81891881Y-142240007D01*
X81870357Y-142444794D01*
X81870255Y-142459431D01*
X81888917Y-142664499D01*
X81891659Y-142678878D01*
X81949798Y-142876416D01*
X81955282Y-142889987D01*
X82050682Y-143072470D01*
X82058697Y-143084718D01*
X82187724Y-143245196D01*
X82197965Y-143255654D01*
X82355706Y-143388014D01*
X82367784Y-143396284D01*
X82548229Y-143495484D01*
X82561682Y-143501250D01*
X82744246Y-143559163D01*
X82150000Y-143559163D01*
X82130589Y-143561719D01*
X81872671Y-143630828D01*
X81843873Y-143645819D01*
X81706637Y-143760973D01*
X81689894Y-143780926D01*
X81600320Y-143936073D01*
X81591411Y-143960549D01*
X81560302Y-144136976D01*
X81559163Y-144150000D01*
X80275000Y-144150000D01*
X80275000Y-139919431D01*
X81870255Y-139919431D01*
X81888917Y-140124499D01*
X81891659Y-140138878D01*
X81949798Y-140336416D01*
X81955282Y-140349987D01*
X82050682Y-140532470D01*
X82058697Y-140544718D01*
X82187724Y-140705196D01*
X82197965Y-140715654D01*
X82355706Y-140848014D01*
X82367784Y-140856284D01*
X82548229Y-140955484D01*
X82561682Y-140961250D01*
X82757959Y-141023513D01*
X82772797Y-141026613D01*
X82943827Y-141044589D01*
X82951667Y-141045000D01*
X83051809Y-141045000D01*
X83059128Y-141044642D01*
X83212252Y-141029628D01*
X83226610Y-141026785D01*
X83423737Y-140967269D01*
X83437270Y-140961691D01*
X83619082Y-140865020D01*
X83631274Y-140856920D01*
X83790847Y-140726775D01*
X83801233Y-140716461D01*
X83932489Y-140557800D01*
X83940675Y-140545665D01*
X84038613Y-140364532D01*
X84044285Y-140351038D01*
X84053893Y-140320000D01*
X88769550Y-140320000D01*
X88828051Y-140323066D01*
X88866025Y-140314995D01*
X88880655Y-140307541D01*
X88930735Y-140296896D01*
X88959226Y-140284211D01*
X89071001Y-140203001D01*
X89091869Y-140179825D01*
X89100077Y-140165608D01*
X89611685Y-139654000D01*
X122811776Y-139654000D01*
X122811776Y-140022429D01*
X122813490Y-140038371D01*
X122882693Y-140356494D01*
X122892885Y-140381100D01*
X123010728Y-140564466D01*
X123024707Y-140580599D01*
X123189436Y-140723338D01*
X123207395Y-140734879D01*
X123405666Y-140825426D01*
X123426148Y-140831441D01*
X123641897Y-140862461D01*
X123652571Y-140863224D01*
X123858500Y-140863224D01*
X123906709Y-140845677D01*
X123933500Y-140788224D01*
X123933500Y-139654000D01*
X124291500Y-139654000D01*
X124291500Y-140788224D01*
X124309047Y-140836433D01*
X124366500Y-140863224D01*
X124572429Y-140863224D01*
X124588371Y-140861510D01*
X124906494Y-140792307D01*
X124931100Y-140782115D01*
X125114466Y-140664272D01*
X125130599Y-140650293D01*
X125273338Y-140485564D01*
X125284879Y-140467605D01*
X125375426Y-140269334D01*
X125381441Y-140248852D01*
X125412461Y-140033103D01*
X125413224Y-140022429D01*
X125413224Y-139654000D01*
X125395677Y-139605791D01*
X125338224Y-139579000D01*
X124366500Y-139579000D01*
X124318291Y-139596547D01*
X124291500Y-139654000D01*
X123933500Y-139654000D01*
X123915953Y-139605791D01*
X123858500Y-139579000D01*
X122886776Y-139579000D01*
X122838567Y-139596547D01*
X122811776Y-139654000D01*
X89611685Y-139654000D01*
X89900447Y-139365239D01*
X89943989Y-139326034D01*
X89965133Y-139293474D01*
X89970207Y-139277859D01*
X89998091Y-139234921D01*
X90009268Y-139205805D01*
X90030880Y-139069344D01*
X90029248Y-139038201D01*
X90025000Y-139022347D01*
X90025000Y-138291853D01*
X90166898Y-138258478D01*
X90194923Y-138245321D01*
X90329181Y-138143935D01*
X90347750Y-138123566D01*
X90436316Y-137980526D01*
X90446273Y-137954825D01*
X90477187Y-137789451D01*
X90478464Y-137775670D01*
X90478464Y-136884330D01*
X90821536Y-136884330D01*
X90821536Y-137775670D01*
X90823528Y-137792841D01*
X90871522Y-137996897D01*
X90884679Y-138024923D01*
X90986065Y-138159181D01*
X91006434Y-138177750D01*
X91149474Y-138266316D01*
X91175175Y-138276273D01*
X91332095Y-138305607D01*
X91326363Y-138309771D01*
X91309771Y-138326363D01*
X91198056Y-138480126D01*
X91187403Y-138501034D01*
X91128671Y-138681793D01*
X91125000Y-138704969D01*
X91125000Y-138895031D01*
X91128671Y-138918207D01*
X91187403Y-139098966D01*
X91198056Y-139119874D01*
X91309771Y-139273637D01*
X91326363Y-139290229D01*
X91480126Y-139401944D01*
X91501034Y-139412597D01*
X91681793Y-139471329D01*
X91704969Y-139475000D01*
X91895031Y-139475000D01*
X91918207Y-139471329D01*
X92098966Y-139412597D01*
X92119874Y-139401944D01*
X92273637Y-139290229D01*
X92290229Y-139273637D01*
X92401944Y-139119874D01*
X92412597Y-139098966D01*
X92471329Y-138918207D01*
X92475000Y-138895031D01*
X92475000Y-138704969D01*
X92471329Y-138681793D01*
X92412597Y-138501034D01*
X92401944Y-138480126D01*
X92290229Y-138326363D01*
X92273637Y-138309770D01*
X92225000Y-138274434D01*
X92225000Y-138254674D01*
X92244923Y-138245321D01*
X92379181Y-138143935D01*
X92397750Y-138123566D01*
X92486316Y-137980526D01*
X92496273Y-137954825D01*
X92527187Y-137789451D01*
X92528464Y-137775670D01*
X92528464Y-136884330D01*
X92526472Y-136867159D01*
X92495859Y-136737000D01*
X92858082Y-136737000D01*
X92858082Y-137537000D01*
X92859523Y-137551631D01*
X92875045Y-137629667D01*
X92886244Y-137656704D01*
X92930448Y-137722860D01*
X92951140Y-137743552D01*
X93017296Y-137787756D01*
X93044333Y-137798955D01*
X93122369Y-137814477D01*
X93137000Y-137815918D01*
X93175001Y-137815918D01*
X93175000Y-137874434D01*
X93126363Y-137909771D01*
X93109771Y-137926363D01*
X92998056Y-138080126D01*
X92987403Y-138101034D01*
X92928671Y-138281793D01*
X92925000Y-138304969D01*
X92925000Y-138495031D01*
X92928671Y-138518207D01*
X92987403Y-138698966D01*
X92998056Y-138719874D01*
X93109771Y-138873637D01*
X93126363Y-138890229D01*
X93280126Y-139001944D01*
X93301034Y-139012597D01*
X93481793Y-139071329D01*
X93504969Y-139075000D01*
X93695031Y-139075000D01*
X93718207Y-139071329D01*
X93898966Y-139012597D01*
X93919874Y-139001944D01*
X94073637Y-138890229D01*
X94090229Y-138873637D01*
X94160024Y-138777571D01*
X122811776Y-138777571D01*
X122811776Y-139146000D01*
X122829323Y-139194209D01*
X122886776Y-139221000D01*
X123858500Y-139221000D01*
X123906709Y-139203453D01*
X123933500Y-139146000D01*
X123933500Y-138011776D01*
X124291500Y-138011776D01*
X124291500Y-139146000D01*
X124309047Y-139194209D01*
X124366500Y-139221000D01*
X125338224Y-139221000D01*
X125386433Y-139203453D01*
X125413224Y-139146000D01*
X125413224Y-138779331D01*
X126096536Y-138779331D01*
X126096536Y-140020669D01*
X126098528Y-140037840D01*
X126146522Y-140241897D01*
X126159679Y-140269924D01*
X126261066Y-140404182D01*
X126281435Y-140422750D01*
X126424474Y-140511316D01*
X126450175Y-140521273D01*
X126615550Y-140552187D01*
X126629331Y-140553464D01*
X126775001Y-140553464D01*
X126775001Y-141474434D01*
X126726363Y-141509771D01*
X126709771Y-141526363D01*
X126598056Y-141680126D01*
X126587403Y-141701034D01*
X126528671Y-141881793D01*
X126525000Y-141904969D01*
X126525000Y-142095031D01*
X126528671Y-142118207D01*
X126587403Y-142298966D01*
X126598056Y-142319874D01*
X126709771Y-142473637D01*
X126726363Y-142490229D01*
X126880126Y-142601944D01*
X126901034Y-142612597D01*
X127081793Y-142671329D01*
X127104969Y-142675000D01*
X127295031Y-142675000D01*
X127318207Y-142671329D01*
X127498966Y-142612597D01*
X127519874Y-142601944D01*
X127673637Y-142490229D01*
X127690229Y-142473637D01*
X127801944Y-142319874D01*
X127812597Y-142298966D01*
X127871329Y-142118207D01*
X127875000Y-142095031D01*
X127875000Y-141904969D01*
X127871329Y-141881793D01*
X127812597Y-141701034D01*
X127801944Y-141680126D01*
X127690229Y-141526363D01*
X127673637Y-141509770D01*
X127625000Y-141474434D01*
X127625000Y-140536852D01*
X127766897Y-140503478D01*
X127794924Y-140490321D01*
X127929182Y-140388934D01*
X127947750Y-140368565D01*
X128036316Y-140225526D01*
X128046273Y-140199825D01*
X128077187Y-140034450D01*
X128078464Y-140020669D01*
X128078464Y-138779331D01*
X128076472Y-138762160D01*
X128028478Y-138558103D01*
X128015321Y-138530076D01*
X127913934Y-138395818D01*
X127893565Y-138377250D01*
X127750526Y-138288684D01*
X127724825Y-138278727D01*
X127625000Y-138260067D01*
X127625000Y-137525566D01*
X127673637Y-137490230D01*
X127690229Y-137473637D01*
X127801944Y-137319874D01*
X127812597Y-137298966D01*
X127871329Y-137118207D01*
X127875000Y-137095031D01*
X127875000Y-136904969D01*
X127871329Y-136881793D01*
X127812597Y-136701034D01*
X127801944Y-136680126D01*
X127690229Y-136526363D01*
X127673637Y-136509771D01*
X127519874Y-136398056D01*
X127498966Y-136387403D01*
X127318207Y-136328671D01*
X127295031Y-136325000D01*
X127104969Y-136325000D01*
X127081793Y-136328671D01*
X126901034Y-136387403D01*
X126880126Y-136398056D01*
X126726363Y-136509771D01*
X126709771Y-136526363D01*
X126598056Y-136680126D01*
X126587403Y-136701034D01*
X126528671Y-136881793D01*
X126525000Y-136904969D01*
X126525000Y-137095031D01*
X126528671Y-137118207D01*
X126587403Y-137298966D01*
X126598056Y-137319874D01*
X126709771Y-137473637D01*
X126726363Y-137490229D01*
X126775000Y-137525566D01*
X126775000Y-138246536D01*
X126629331Y-138246536D01*
X126612160Y-138248528D01*
X126408103Y-138296522D01*
X126380076Y-138309679D01*
X126245818Y-138411066D01*
X126227250Y-138431435D01*
X126138684Y-138574474D01*
X126128727Y-138600175D01*
X126097813Y-138765550D01*
X126096536Y-138779331D01*
X125413224Y-138779331D01*
X125413224Y-138777571D01*
X125411510Y-138761629D01*
X125342307Y-138443506D01*
X125332115Y-138418900D01*
X125214272Y-138235534D01*
X125200293Y-138219401D01*
X125035564Y-138076662D01*
X125017605Y-138065121D01*
X124819334Y-137974574D01*
X124798852Y-137968559D01*
X124583103Y-137937539D01*
X124572429Y-137936776D01*
X124366500Y-137936776D01*
X124318291Y-137954323D01*
X124291500Y-138011776D01*
X123933500Y-138011776D01*
X123915953Y-137963567D01*
X123858500Y-137936776D01*
X123652571Y-137936776D01*
X123636629Y-137938490D01*
X123318506Y-138007693D01*
X123293900Y-138017885D01*
X123110534Y-138135728D01*
X123094401Y-138149707D01*
X122951662Y-138314436D01*
X122940121Y-138332395D01*
X122849574Y-138530666D01*
X122843559Y-138551148D01*
X122812539Y-138766897D01*
X122811776Y-138777571D01*
X94160024Y-138777571D01*
X94201944Y-138719874D01*
X94212597Y-138698966D01*
X94271329Y-138518207D01*
X94275000Y-138495031D01*
X94275000Y-138304969D01*
X94271329Y-138281793D01*
X94212597Y-138101034D01*
X94201944Y-138080126D01*
X94090229Y-137926363D01*
X94073637Y-137909770D01*
X94025000Y-137874434D01*
X94025000Y-137815918D01*
X94037000Y-137815918D01*
X94051631Y-137814477D01*
X94129667Y-137798955D01*
X94156704Y-137787756D01*
X94222860Y-137743552D01*
X94243552Y-137722860D01*
X94287756Y-137656704D01*
X94298955Y-137629667D01*
X94314477Y-137551631D01*
X94315918Y-137537000D01*
X94315918Y-136737000D01*
X94314477Y-136722369D01*
X94298955Y-136644333D01*
X94287756Y-136617296D01*
X94243552Y-136551140D01*
X94222860Y-136530448D01*
X94156704Y-136486244D01*
X94129667Y-136475045D01*
X94051631Y-136459523D01*
X94037000Y-136458082D01*
X93137000Y-136458082D01*
X93122369Y-136459523D01*
X93044333Y-136475045D01*
X93017296Y-136486244D01*
X92951140Y-136530448D01*
X92930448Y-136551140D01*
X92886244Y-136617296D01*
X92875045Y-136644333D01*
X92859523Y-136722369D01*
X92858082Y-136737000D01*
X92495859Y-136737000D01*
X92478478Y-136663103D01*
X92465321Y-136635077D01*
X92363935Y-136500819D01*
X92343566Y-136482250D01*
X92200526Y-136393684D01*
X92174825Y-136383727D01*
X92009451Y-136352813D01*
X91995670Y-136351536D01*
X91354330Y-136351536D01*
X91337159Y-136353528D01*
X91133103Y-136401522D01*
X91105077Y-136414679D01*
X90970819Y-136516065D01*
X90952250Y-136536434D01*
X90863684Y-136679474D01*
X90853727Y-136705175D01*
X90822813Y-136870549D01*
X90821536Y-136884330D01*
X90478464Y-136884330D01*
X90476472Y-136867159D01*
X90428478Y-136663103D01*
X90415321Y-136635077D01*
X90313935Y-136500819D01*
X90293566Y-136482250D01*
X90150526Y-136393684D01*
X90124826Y-136383727D01*
X90025000Y-136365066D01*
X90025000Y-136005853D01*
X90166898Y-135972478D01*
X90194923Y-135959321D01*
X90329181Y-135857935D01*
X90347750Y-135837566D01*
X90436316Y-135694526D01*
X90446273Y-135668825D01*
X90477187Y-135503451D01*
X90478464Y-135489670D01*
X90478464Y-134598330D01*
X90821536Y-134598330D01*
X90821536Y-135489670D01*
X90823528Y-135506841D01*
X90871522Y-135710897D01*
X90884679Y-135738923D01*
X90986065Y-135873181D01*
X91006434Y-135891750D01*
X91149474Y-135980316D01*
X91175175Y-135990273D01*
X91340549Y-136021187D01*
X91354330Y-136022464D01*
X91995670Y-136022464D01*
X92012841Y-136020472D01*
X92216897Y-135972478D01*
X92244923Y-135959321D01*
X92379181Y-135857935D01*
X92397750Y-135837566D01*
X92486316Y-135694526D01*
X92496273Y-135668825D01*
X92502222Y-135637000D01*
X92858082Y-135637000D01*
X92859523Y-135651631D01*
X92875045Y-135729667D01*
X92886244Y-135756704D01*
X92930448Y-135822860D01*
X92951140Y-135843552D01*
X93017296Y-135887756D01*
X93044333Y-135898955D01*
X93122369Y-135914477D01*
X93137000Y-135915918D01*
X94037000Y-135915918D01*
X94051631Y-135914477D01*
X94129667Y-135898955D01*
X94156704Y-135887756D01*
X94222860Y-135843552D01*
X94243552Y-135822860D01*
X94267512Y-135787000D01*
X94858082Y-135787000D01*
X94858082Y-136587000D01*
X94859523Y-136601631D01*
X94875045Y-136679667D01*
X94886244Y-136706704D01*
X94930448Y-136772860D01*
X94951140Y-136793552D01*
X95017296Y-136837756D01*
X95044333Y-136848955D01*
X95122369Y-136864477D01*
X95137000Y-136865918D01*
X96037000Y-136865918D01*
X96051631Y-136864477D01*
X96129667Y-136848955D01*
X96156704Y-136837756D01*
X96222860Y-136793552D01*
X96243552Y-136772860D01*
X96287756Y-136706704D01*
X96298955Y-136679667D01*
X96314477Y-136601631D01*
X96315918Y-136587000D01*
X97518082Y-136587000D01*
X97518082Y-137087000D01*
X97519523Y-137101631D01*
X97535045Y-137179667D01*
X97546244Y-137206704D01*
X97590448Y-137272860D01*
X97611140Y-137293552D01*
X97677296Y-137337756D01*
X97704333Y-137348955D01*
X97782369Y-137364477D01*
X97797000Y-137365918D01*
X99597000Y-137365918D01*
X99611631Y-137364477D01*
X99689667Y-137348955D01*
X99716704Y-137337756D01*
X99782860Y-137293552D01*
X99803552Y-137272860D01*
X99847756Y-137206704D01*
X99858955Y-137179667D01*
X99874477Y-137101631D01*
X99875918Y-137087000D01*
X99875918Y-136190006D01*
X100057319Y-136190006D01*
X100076525Y-136399025D01*
X100079170Y-136413023D01*
X100137554Y-136614640D01*
X100142798Y-136627887D01*
X100238254Y-136814826D01*
X100245909Y-136826841D01*
X100374992Y-136992357D01*
X100384780Y-137002708D01*
X100542832Y-137140829D01*
X100554402Y-137149143D01*
X100735721Y-137254885D01*
X100748654Y-137260860D01*
X100946697Y-137330408D01*
X100960526Y-137333831D01*
X101168148Y-137364675D01*
X101182375Y-137365420D01*
X101392083Y-137356447D01*
X101406195Y-137354489D01*
X101610423Y-137306023D01*
X101623909Y-137301432D01*
X101815287Y-137215222D01*
X101827662Y-137208164D01*
X101999286Y-137087321D01*
X102010103Y-137078049D01*
X102155780Y-136926933D01*
X102164648Y-136915784D01*
X102279122Y-136739847D01*
X102285723Y-136727221D01*
X102342803Y-136587000D01*
X104122082Y-136587000D01*
X104122082Y-137087000D01*
X104123523Y-137101631D01*
X104139045Y-137179667D01*
X104150244Y-137206704D01*
X104194448Y-137272860D01*
X104215140Y-137293552D01*
X104281296Y-137337756D01*
X104308333Y-137348955D01*
X104386369Y-137364477D01*
X104401000Y-137365918D01*
X106201000Y-137365918D01*
X106215631Y-137364477D01*
X106293667Y-137348955D01*
X106320704Y-137337756D01*
X106386860Y-137293552D01*
X106407552Y-137272860D01*
X106451756Y-137206704D01*
X106462955Y-137179667D01*
X106478477Y-137101631D01*
X106479918Y-137087000D01*
X106479918Y-136190006D01*
X106661319Y-136190006D01*
X106680525Y-136399025D01*
X106683170Y-136413023D01*
X106741554Y-136614640D01*
X106746798Y-136627887D01*
X106842254Y-136814826D01*
X106849909Y-136826841D01*
X106978992Y-136992357D01*
X106988780Y-137002708D01*
X107146832Y-137140829D01*
X107158402Y-137149143D01*
X107339721Y-137254885D01*
X107352654Y-137260860D01*
X107550697Y-137330408D01*
X107564526Y-137333831D01*
X107772148Y-137364675D01*
X107786375Y-137365420D01*
X107996083Y-137356447D01*
X108010195Y-137354489D01*
X108214423Y-137306023D01*
X108227909Y-137301432D01*
X108419287Y-137215222D01*
X108431662Y-137208164D01*
X108603286Y-137087321D01*
X108614103Y-137078049D01*
X108759780Y-136926933D01*
X108768648Y-136915784D01*
X108883122Y-136739847D01*
X108889723Y-136727221D01*
X108946803Y-136587000D01*
X110726082Y-136587000D01*
X110726082Y-137087000D01*
X110727523Y-137101631D01*
X110743045Y-137179667D01*
X110754244Y-137206704D01*
X110798448Y-137272860D01*
X110819140Y-137293552D01*
X110885296Y-137337756D01*
X110912333Y-137348955D01*
X110990369Y-137364477D01*
X111005000Y-137365918D01*
X112805000Y-137365918D01*
X112819631Y-137364477D01*
X112897667Y-137348955D01*
X112924704Y-137337756D01*
X112990860Y-137293552D01*
X113011552Y-137272860D01*
X113055756Y-137206704D01*
X113066955Y-137179667D01*
X113082477Y-137101631D01*
X113083918Y-137087000D01*
X113083918Y-136190006D01*
X113265319Y-136190006D01*
X113284525Y-136399025D01*
X113287170Y-136413023D01*
X113345554Y-136614640D01*
X113350798Y-136627887D01*
X113446254Y-136814826D01*
X113453909Y-136826841D01*
X113582992Y-136992357D01*
X113592780Y-137002708D01*
X113750832Y-137140829D01*
X113762402Y-137149143D01*
X113943721Y-137254885D01*
X113956654Y-137260860D01*
X114154697Y-137330408D01*
X114168526Y-137333831D01*
X114376148Y-137364675D01*
X114390375Y-137365420D01*
X114600083Y-137356447D01*
X114614195Y-137354489D01*
X114818423Y-137306023D01*
X114831909Y-137301432D01*
X115023287Y-137215222D01*
X115035662Y-137208164D01*
X115207286Y-137087321D01*
X115218103Y-137078049D01*
X115363780Y-136926933D01*
X115372648Y-136915784D01*
X115487122Y-136739847D01*
X115493723Y-136727221D01*
X115550803Y-136587000D01*
X117330082Y-136587000D01*
X117330082Y-137087000D01*
X117331523Y-137101631D01*
X117347045Y-137179667D01*
X117358244Y-137206704D01*
X117402448Y-137272860D01*
X117423140Y-137293552D01*
X117489296Y-137337756D01*
X117516333Y-137348955D01*
X117594369Y-137364477D01*
X117609000Y-137365918D01*
X119409000Y-137365918D01*
X119423631Y-137364477D01*
X119501667Y-137348955D01*
X119522245Y-137340431D01*
X120173528Y-137340431D01*
X120202846Y-137406669D01*
X120246432Y-137439812D01*
X120257140Y-137446607D01*
X120468991Y-137557125D01*
X120480690Y-137562019D01*
X120708134Y-137635263D01*
X120720492Y-137638116D01*
X120957025Y-137671990D01*
X120969686Y-137672720D01*
X121208545Y-137666257D01*
X121221148Y-137664843D01*
X121455503Y-137618226D01*
X121467688Y-137614709D01*
X121690838Y-137529273D01*
X121702255Y-137523753D01*
X121889373Y-137412872D01*
X121921902Y-137373201D01*
X121921320Y-137321901D01*
X121904172Y-137295317D01*
X121102033Y-136493177D01*
X121055537Y-136471495D01*
X120995967Y-136493177D01*
X120195210Y-137293935D01*
X120173528Y-137340431D01*
X119522245Y-137340431D01*
X119528704Y-137337756D01*
X119594860Y-137293552D01*
X119615552Y-137272860D01*
X119659756Y-137206704D01*
X119670955Y-137179667D01*
X119686477Y-137101631D01*
X119687918Y-137087000D01*
X119687918Y-136775963D01*
X119738451Y-136891354D01*
X119744503Y-136902500D01*
X119827207Y-137028165D01*
X119868367Y-137058789D01*
X119919582Y-137055790D01*
X119942889Y-137039966D01*
X120742823Y-136240033D01*
X120764505Y-136193537D01*
X120759747Y-136180463D01*
X121333495Y-136180463D01*
X121355177Y-136240033D01*
X122157842Y-137042697D01*
X122204338Y-137064379D01*
X122253893Y-137051100D01*
X122275663Y-137027447D01*
X122390282Y-136830907D01*
X122395721Y-136819451D01*
X122479597Y-136595710D01*
X122483029Y-136583501D01*
X122528008Y-136348826D01*
X122529345Y-136335493D01*
X122532130Y-136069541D01*
X122531073Y-136056184D01*
X122491019Y-135820619D01*
X122487843Y-135808341D01*
X122408671Y-135582892D01*
X122403473Y-135571324D01*
X122287447Y-135362438D01*
X122280372Y-135351910D01*
X122269006Y-135337749D01*
X122225146Y-135311136D01*
X122157483Y-135331662D01*
X121355177Y-136133967D01*
X121333495Y-136180463D01*
X120759747Y-136180463D01*
X120742823Y-136133967D01*
X119943133Y-135334278D01*
X119896637Y-135312596D01*
X119847082Y-135325875D01*
X119828328Y-135344776D01*
X119759773Y-135444337D01*
X119753489Y-135455354D01*
X119687918Y-135596939D01*
X119687918Y-135287000D01*
X119686477Y-135272369D01*
X119670955Y-135194333D01*
X119659756Y-135167296D01*
X119615552Y-135101140D01*
X119594860Y-135080448D01*
X119528704Y-135036244D01*
X119501667Y-135025045D01*
X119424526Y-135009701D01*
X120176204Y-135009701D01*
X120195959Y-135080814D01*
X120995967Y-135880823D01*
X121042463Y-135902505D01*
X121102033Y-135880823D01*
X121902905Y-135079950D01*
X121924587Y-135033454D01*
X121911308Y-134983899D01*
X121889449Y-134963209D01*
X121730106Y-134864220D01*
X121718807Y-134858463D01*
X121497495Y-134768372D01*
X121485386Y-134764601D01*
X121252059Y-134713087D01*
X121239488Y-134711409D01*
X121000817Y-134699945D01*
X120988144Y-134700410D01*
X120750954Y-134729323D01*
X120738540Y-134731917D01*
X120509612Y-134800381D01*
X120497812Y-134805029D01*
X120283692Y-134911086D01*
X120272844Y-134917655D01*
X120204855Y-134967143D01*
X120176204Y-135009701D01*
X119424526Y-135009701D01*
X119423631Y-135009523D01*
X119409000Y-135008082D01*
X117609000Y-135008082D01*
X117594369Y-135009523D01*
X117516333Y-135025045D01*
X117489296Y-135036244D01*
X117423140Y-135080448D01*
X117402448Y-135101140D01*
X117358244Y-135167296D01*
X117347045Y-135194333D01*
X117331523Y-135272369D01*
X117330082Y-135287000D01*
X117330082Y-135787000D01*
X115550486Y-135787000D01*
X115497469Y-135654113D01*
X115490957Y-135641442D01*
X115377715Y-135464711D01*
X115368924Y-135453500D01*
X115224305Y-135301370D01*
X115213553Y-135292023D01*
X115042777Y-135169984D01*
X115030452Y-135162840D01*
X114839680Y-135075296D01*
X114826225Y-135070610D01*
X114622340Y-135020720D01*
X114608243Y-135018664D01*
X114398603Y-135008228D01*
X114384372Y-135008874D01*
X114176540Y-135038267D01*
X114162686Y-135041593D01*
X113964162Y-135109757D01*
X113951188Y-135115642D01*
X113769136Y-135220116D01*
X113757509Y-135228349D01*
X113598496Y-135365363D01*
X113588635Y-135375645D01*
X113458400Y-135540256D01*
X113450662Y-135552218D01*
X113353903Y-135738486D01*
X113348566Y-135751695D01*
X113288776Y-135952899D01*
X113286033Y-135966879D01*
X113265368Y-136175759D01*
X113265319Y-136190006D01*
X113083918Y-136190006D01*
X113083918Y-135287000D01*
X113082477Y-135272369D01*
X113066955Y-135194333D01*
X113055756Y-135167296D01*
X113011552Y-135101140D01*
X112990860Y-135080448D01*
X112924704Y-135036244D01*
X112897667Y-135025045D01*
X112819631Y-135009523D01*
X112805000Y-135008082D01*
X111005000Y-135008082D01*
X110990369Y-135009523D01*
X110912333Y-135025045D01*
X110885296Y-135036244D01*
X110819140Y-135080448D01*
X110798448Y-135101140D01*
X110754244Y-135167296D01*
X110743045Y-135194333D01*
X110727523Y-135272369D01*
X110726082Y-135287000D01*
X110726082Y-135787000D01*
X108946486Y-135787000D01*
X108893469Y-135654113D01*
X108886957Y-135641442D01*
X108773715Y-135464711D01*
X108764924Y-135453500D01*
X108620305Y-135301370D01*
X108609553Y-135292023D01*
X108438777Y-135169984D01*
X108426452Y-135162840D01*
X108235680Y-135075296D01*
X108222225Y-135070610D01*
X108018340Y-135020720D01*
X108004243Y-135018664D01*
X107794603Y-135008228D01*
X107780372Y-135008874D01*
X107572540Y-135038267D01*
X107558686Y-135041593D01*
X107360162Y-135109757D01*
X107347188Y-135115642D01*
X107165136Y-135220116D01*
X107153509Y-135228349D01*
X106994496Y-135365363D01*
X106984635Y-135375645D01*
X106854400Y-135540256D01*
X106846662Y-135552218D01*
X106749903Y-135738486D01*
X106744566Y-135751695D01*
X106684776Y-135952899D01*
X106682033Y-135966879D01*
X106661368Y-136175759D01*
X106661319Y-136190006D01*
X106479918Y-136190006D01*
X106479918Y-135287000D01*
X106478477Y-135272369D01*
X106462955Y-135194333D01*
X106451756Y-135167296D01*
X106407552Y-135101140D01*
X106386860Y-135080448D01*
X106320704Y-135036244D01*
X106293667Y-135025045D01*
X106215631Y-135009523D01*
X106201000Y-135008082D01*
X104401000Y-135008082D01*
X104386369Y-135009523D01*
X104308333Y-135025045D01*
X104281296Y-135036244D01*
X104215140Y-135080448D01*
X104194448Y-135101140D01*
X104150244Y-135167296D01*
X104139045Y-135194333D01*
X104123523Y-135272369D01*
X104122082Y-135287000D01*
X104122082Y-135787000D01*
X102342486Y-135787000D01*
X102289469Y-135654113D01*
X102282957Y-135641442D01*
X102169715Y-135464711D01*
X102160924Y-135453500D01*
X102016305Y-135301370D01*
X102005553Y-135292023D01*
X101834777Y-135169984D01*
X101822452Y-135162840D01*
X101631680Y-135075296D01*
X101618225Y-135070610D01*
X101414340Y-135020720D01*
X101400243Y-135018664D01*
X101190603Y-135008228D01*
X101176372Y-135008874D01*
X100968540Y-135038267D01*
X100954686Y-135041593D01*
X100756162Y-135109757D01*
X100743188Y-135115642D01*
X100561136Y-135220116D01*
X100549509Y-135228349D01*
X100390496Y-135365363D01*
X100380635Y-135375645D01*
X100250400Y-135540256D01*
X100242662Y-135552218D01*
X100145903Y-135738486D01*
X100140566Y-135751695D01*
X100080776Y-135952899D01*
X100078033Y-135966879D01*
X100057368Y-136175759D01*
X100057319Y-136190006D01*
X99875918Y-136190006D01*
X99875918Y-135287000D01*
X99874477Y-135272369D01*
X99858955Y-135194333D01*
X99847756Y-135167296D01*
X99803552Y-135101140D01*
X99782860Y-135080448D01*
X99716704Y-135036244D01*
X99689667Y-135025045D01*
X99611631Y-135009523D01*
X99597000Y-135008082D01*
X97797000Y-135008082D01*
X97782369Y-135009523D01*
X97704333Y-135025045D01*
X97677296Y-135036244D01*
X97611140Y-135080448D01*
X97590448Y-135101140D01*
X97546244Y-135167296D01*
X97535045Y-135194333D01*
X97519523Y-135272369D01*
X97518082Y-135287000D01*
X97518082Y-135787000D01*
X96315918Y-135787000D01*
X96314477Y-135772369D01*
X96298955Y-135694333D01*
X96287756Y-135667296D01*
X96243552Y-135601140D01*
X96222860Y-135580448D01*
X96156704Y-135536244D01*
X96129667Y-135525045D01*
X96051631Y-135509523D01*
X96037000Y-135508082D01*
X95137000Y-135508082D01*
X95122369Y-135509523D01*
X95044333Y-135525045D01*
X95017296Y-135536244D01*
X94951140Y-135580448D01*
X94930448Y-135601140D01*
X94886244Y-135667296D01*
X94875045Y-135694333D01*
X94859523Y-135772369D01*
X94858082Y-135787000D01*
X94267512Y-135787000D01*
X94287756Y-135756704D01*
X94298955Y-135729667D01*
X94314477Y-135651631D01*
X94315918Y-135637000D01*
X94315918Y-134837000D01*
X94314477Y-134822369D01*
X94298955Y-134744333D01*
X94287756Y-134717296D01*
X94243552Y-134651140D01*
X94222860Y-134630448D01*
X94156704Y-134586244D01*
X94129667Y-134575045D01*
X94051631Y-134559523D01*
X94037000Y-134558082D01*
X93137000Y-134558082D01*
X93122369Y-134559523D01*
X93044333Y-134575045D01*
X93017296Y-134586244D01*
X92951140Y-134630448D01*
X92930448Y-134651140D01*
X92886244Y-134717296D01*
X92875045Y-134744333D01*
X92859523Y-134822369D01*
X92858082Y-134837000D01*
X92528464Y-134837000D01*
X92528464Y-134598330D01*
X92526472Y-134581159D01*
X92478478Y-134377103D01*
X92465321Y-134349077D01*
X92363935Y-134214819D01*
X92343566Y-134196250D01*
X92200526Y-134107684D01*
X92174825Y-134097727D01*
X92009451Y-134066813D01*
X91995670Y-134065536D01*
X91354330Y-134065536D01*
X91337159Y-134067528D01*
X91133103Y-134115522D01*
X91105077Y-134128679D01*
X90970819Y-134230065D01*
X90952250Y-134250434D01*
X90863684Y-134393474D01*
X90853727Y-134419175D01*
X90822813Y-134584549D01*
X90821536Y-134598330D01*
X90478464Y-134598330D01*
X90476472Y-134581159D01*
X90428478Y-134377103D01*
X90415321Y-134349077D01*
X90313935Y-134214819D01*
X90293566Y-134196250D01*
X90150526Y-134107684D01*
X90124825Y-134097727D01*
X89959451Y-134066813D01*
X89945670Y-134065536D01*
X89304330Y-134065536D01*
X89287159Y-134067528D01*
X89083103Y-134115522D01*
X89055077Y-134128679D01*
X88920819Y-134230065D01*
X88902250Y-134250434D01*
X88813684Y-134393474D01*
X88803727Y-134419175D01*
X88772813Y-134584549D01*
X88771536Y-134598330D01*
X88771536Y-135489670D01*
X88773528Y-135506841D01*
X88821522Y-135710897D01*
X88834679Y-135738923D01*
X88936065Y-135873181D01*
X88956434Y-135891750D01*
X89099474Y-135980316D01*
X89125174Y-135990273D01*
X89225000Y-136008934D01*
X89225001Y-136368147D01*
X89083102Y-136401522D01*
X89055077Y-136414679D01*
X88920819Y-136516065D01*
X88902250Y-136536434D01*
X88813684Y-136679474D01*
X88803727Y-136705175D01*
X88772813Y-136870549D01*
X88771536Y-136884330D01*
X88771536Y-137775670D01*
X88773528Y-137792841D01*
X88821522Y-137996897D01*
X88834679Y-138024923D01*
X88936065Y-138159181D01*
X88956434Y-138177750D01*
X89099474Y-138266316D01*
X89125174Y-138276273D01*
X89225000Y-138294934D01*
X89225000Y-138909315D01*
X88614316Y-139520000D01*
X84055033Y-139520000D01*
X84050201Y-139503584D01*
X84044718Y-139490013D01*
X83949318Y-139307530D01*
X83941303Y-139295282D01*
X83812276Y-139134804D01*
X83802035Y-139124346D01*
X83644294Y-138991986D01*
X83632216Y-138983716D01*
X83451771Y-138884516D01*
X83438318Y-138878750D01*
X83242041Y-138816487D01*
X83227203Y-138813387D01*
X83056173Y-138795411D01*
X83048333Y-138795000D01*
X82948191Y-138795000D01*
X82940872Y-138795358D01*
X82787748Y-138810372D01*
X82773390Y-138813215D01*
X82576263Y-138872731D01*
X82562730Y-138878309D01*
X82380918Y-138974980D01*
X82368726Y-138983080D01*
X82209153Y-139113225D01*
X82198767Y-139123539D01*
X82067511Y-139282200D01*
X82059325Y-139294335D01*
X81961387Y-139475468D01*
X81955715Y-139488962D01*
X81894824Y-139685669D01*
X81891881Y-139700007D01*
X81870357Y-139904794D01*
X81870255Y-139919431D01*
X80275000Y-139919431D01*
X80275000Y-137379431D01*
X81870255Y-137379431D01*
X81888917Y-137584499D01*
X81891659Y-137598878D01*
X81949798Y-137796416D01*
X81955282Y-137809987D01*
X82050682Y-137992470D01*
X82058697Y-138004718D01*
X82187724Y-138165196D01*
X82197965Y-138175654D01*
X82355706Y-138308014D01*
X82367784Y-138316284D01*
X82548229Y-138415484D01*
X82561682Y-138421250D01*
X82757959Y-138483513D01*
X82772797Y-138486613D01*
X82943827Y-138504589D01*
X82951667Y-138505000D01*
X83051809Y-138505000D01*
X83059128Y-138504642D01*
X83212252Y-138489628D01*
X83226610Y-138486785D01*
X83423737Y-138427269D01*
X83437270Y-138421691D01*
X83619082Y-138325020D01*
X83631274Y-138316920D01*
X83790847Y-138186775D01*
X83801233Y-138176461D01*
X83932489Y-138017800D01*
X83940675Y-138005665D01*
X84038613Y-137824532D01*
X84044285Y-137811038D01*
X84105176Y-137614331D01*
X84108119Y-137599993D01*
X84129643Y-137395206D01*
X84129745Y-137380569D01*
X84111083Y-137175501D01*
X84108341Y-137161122D01*
X84050202Y-136963584D01*
X84044718Y-136950013D01*
X83949318Y-136767530D01*
X83941303Y-136755282D01*
X83812276Y-136594804D01*
X83802035Y-136584346D01*
X83644294Y-136451986D01*
X83632216Y-136443716D01*
X83451771Y-136344516D01*
X83438318Y-136338750D01*
X83242041Y-136276487D01*
X83227203Y-136273387D01*
X83056173Y-136255411D01*
X83048333Y-136255000D01*
X82948191Y-136255000D01*
X82940872Y-136255358D01*
X82787748Y-136270372D01*
X82773390Y-136273215D01*
X82576263Y-136332731D01*
X82562730Y-136338309D01*
X82380918Y-136434980D01*
X82368726Y-136443080D01*
X82209153Y-136573225D01*
X82198767Y-136583539D01*
X82067511Y-136742200D01*
X82059325Y-136754335D01*
X81961387Y-136935468D01*
X81955715Y-136948962D01*
X81894824Y-137145669D01*
X81891881Y-137160007D01*
X81870357Y-137364794D01*
X81870255Y-137379431D01*
X80275000Y-137379431D01*
X80275000Y-134839431D01*
X81870255Y-134839431D01*
X81888917Y-135044499D01*
X81891659Y-135058878D01*
X81949798Y-135256416D01*
X81955282Y-135269987D01*
X82050682Y-135452470D01*
X82058697Y-135464718D01*
X82187724Y-135625196D01*
X82197965Y-135635654D01*
X82355706Y-135768014D01*
X82367784Y-135776284D01*
X82548229Y-135875484D01*
X82561682Y-135881250D01*
X82757959Y-135943513D01*
X82772797Y-135946613D01*
X82943827Y-135964589D01*
X82951667Y-135965000D01*
X83051809Y-135965000D01*
X83059128Y-135964642D01*
X83212252Y-135949628D01*
X83226610Y-135946785D01*
X83423737Y-135887269D01*
X83437270Y-135881691D01*
X83619082Y-135785020D01*
X83631274Y-135776920D01*
X83790847Y-135646775D01*
X83801233Y-135636461D01*
X83932489Y-135477800D01*
X83940675Y-135465665D01*
X84038613Y-135284532D01*
X84044285Y-135271038D01*
X84105176Y-135074331D01*
X84108119Y-135059993D01*
X84129643Y-134855206D01*
X84129745Y-134840569D01*
X84111083Y-134635501D01*
X84108341Y-134621122D01*
X84050202Y-134423584D01*
X84044718Y-134410013D01*
X83949318Y-134227530D01*
X83941303Y-134215282D01*
X83812276Y-134054804D01*
X83802035Y-134044346D01*
X83644294Y-133911986D01*
X83632216Y-133903716D01*
X83451771Y-133804516D01*
X83438318Y-133798750D01*
X83242041Y-133736487D01*
X83227203Y-133733387D01*
X83056173Y-133715411D01*
X83048333Y-133715000D01*
X82948191Y-133715000D01*
X82940872Y-133715358D01*
X82787748Y-133730372D01*
X82773390Y-133733215D01*
X82576263Y-133792731D01*
X82562730Y-133798309D01*
X82380918Y-133894980D01*
X82368726Y-133903080D01*
X82209153Y-134033225D01*
X82198767Y-134043539D01*
X82067511Y-134202200D01*
X82059325Y-134214335D01*
X81961387Y-134395468D01*
X81955715Y-134408962D01*
X81894824Y-134605669D01*
X81891881Y-134620007D01*
X81870357Y-134824794D01*
X81870255Y-134839431D01*
X80275000Y-134839431D01*
X80275000Y-130904969D01*
X80325000Y-130904969D01*
X80325000Y-131095031D01*
X80328671Y-131118207D01*
X80387403Y-131298966D01*
X80398056Y-131319874D01*
X80509771Y-131473637D01*
X80526363Y-131490229D01*
X80680126Y-131601944D01*
X80701034Y-131612597D01*
X80881793Y-131671329D01*
X80904969Y-131675000D01*
X81095031Y-131675000D01*
X81118207Y-131671329D01*
X81298966Y-131612597D01*
X81319874Y-131601944D01*
X81473637Y-131490229D01*
X81490229Y-131473637D01*
X81601944Y-131319874D01*
X81612597Y-131298966D01*
X81671329Y-131118207D01*
X81675000Y-131095031D01*
X81675000Y-130904969D01*
X81671329Y-130881793D01*
X81612597Y-130701034D01*
X81601944Y-130680126D01*
X81490229Y-130526363D01*
X81473637Y-130509771D01*
X81319874Y-130398056D01*
X81298966Y-130387403D01*
X81118207Y-130328671D01*
X81095031Y-130325000D01*
X80904969Y-130325000D01*
X80881793Y-130328671D01*
X80701034Y-130387403D01*
X80680126Y-130398056D01*
X80526363Y-130509771D01*
X80509771Y-130526363D01*
X80398056Y-130680126D01*
X80387403Y-130701034D01*
X80328671Y-130881793D01*
X80325000Y-130904969D01*
X80275000Y-130904969D01*
X80275000Y-130275000D01*
X129725000Y-130275000D01*
X129725001Y-149725000D01*
M02*
