G04 #@! TF.GenerationSoftware,KiCad,Pcbnew,6.0.0-unknown-ea0edab~86~ubuntu18.04.1*
G04 #@! TF.CreationDate,2019-07-07T16:40:55+02:00*
G04 #@! TF.ProjectId,ir-receiver,69722d72-6563-4656-9976-65722e6b6963,rev?*
G04 #@! TF.SameCoordinates,Original*
G04 #@! TF.FileFunction,Soldermask,Bot*
G04 #@! TF.FilePolarity,Negative*
%FSLAX46Y46*%
G04 Gerber Fmt 4.6, Leading zero omitted, Abs format (unit mm)*
G04 Created by KiCad (PCBNEW 6.0.0-unknown-ea0edab~86~ubuntu18.04.1) date 2019-07-07 16:40:55*
%MOMM*%
%LPD*%
G04 APERTURE LIST*
%ADD10C,0.100000*%
G04 APERTURE END LIST*
D10*
G36*
X142788360Y-115633835D02*
G01*
X142869397Y-115660166D01*
X142956663Y-115687848D01*
X142959655Y-115689493D01*
X142968488Y-115692363D01*
X143040466Y-115733919D01*
X143111499Y-115772970D01*
X143118986Y-115779253D01*
X143132511Y-115787061D01*
X143190259Y-115839057D01*
X143246857Y-115886549D01*
X143256962Y-115899118D01*
X143273261Y-115913793D01*
X143315454Y-115971867D01*
X143357579Y-116024260D01*
X143367994Y-116044182D01*
X143384586Y-116067019D01*
X143411297Y-116127012D01*
X143439439Y-116180843D01*
X143447582Y-116208510D01*
X143461621Y-116240042D01*
X143473992Y-116298241D01*
X143489328Y-116350349D01*
X143492518Y-116385401D01*
X143500999Y-116425301D01*
X143500999Y-116478592D01*
X143505343Y-116526324D01*
X143500999Y-116567653D01*
X143500999Y-116614699D01*
X143491217Y-116660721D01*
X143486873Y-116702047D01*
X143472702Y-116747827D01*
X143461621Y-116799958D01*
X143445028Y-116837226D01*
X143434622Y-116870843D01*
X143408789Y-116918620D01*
X143384586Y-116972981D01*
X143364298Y-117000905D01*
X143350580Y-117026276D01*
X143311859Y-117073082D01*
X143273261Y-117126207D01*
X143252284Y-117145095D01*
X143237952Y-117162419D01*
X143185845Y-117204917D01*
X143132511Y-117252939D01*
X143113524Y-117263901D01*
X143101025Y-117274095D01*
X143035780Y-117308786D01*
X142968488Y-117347637D01*
X142953636Y-117352463D01*
X142945003Y-117357053D01*
X142867430Y-117380473D01*
X142788360Y-117406165D01*
X142779114Y-117407137D01*
X142775851Y-117408122D01*
X142684710Y-117417059D01*
X142647211Y-117421000D01*
X142552789Y-117421000D01*
X142411640Y-117406165D01*
X142330603Y-117379834D01*
X142243337Y-117352152D01*
X142240345Y-117350507D01*
X142231512Y-117347637D01*
X142159534Y-117306081D01*
X142088501Y-117267030D01*
X142081014Y-117260747D01*
X142067489Y-117252939D01*
X142009741Y-117200943D01*
X141953143Y-117153451D01*
X141943038Y-117140882D01*
X141926739Y-117126207D01*
X141884546Y-117068133D01*
X141842421Y-117015740D01*
X141832006Y-116995818D01*
X141815414Y-116972981D01*
X141788703Y-116912988D01*
X141760561Y-116859157D01*
X141752418Y-116831490D01*
X141738379Y-116799958D01*
X141726008Y-116741759D01*
X141710672Y-116689651D01*
X141707482Y-116654599D01*
X141699001Y-116614699D01*
X141699001Y-116561408D01*
X141694657Y-116513676D01*
X141699001Y-116472347D01*
X141699001Y-116425301D01*
X141708783Y-116379279D01*
X141713127Y-116337953D01*
X141727298Y-116292173D01*
X141738379Y-116240042D01*
X141754972Y-116202774D01*
X141765378Y-116169157D01*
X141791211Y-116121380D01*
X141815414Y-116067019D01*
X141835702Y-116039095D01*
X141849420Y-116013724D01*
X141888141Y-115966918D01*
X141926739Y-115913793D01*
X141947716Y-115894905D01*
X141962048Y-115877581D01*
X142014155Y-115835083D01*
X142067489Y-115787061D01*
X142086476Y-115776099D01*
X142098975Y-115765905D01*
X142164220Y-115731214D01*
X142231512Y-115692363D01*
X142246364Y-115687537D01*
X142254997Y-115682947D01*
X142332570Y-115659527D01*
X142411640Y-115633835D01*
X142420886Y-115632863D01*
X142424149Y-115631878D01*
X142515290Y-115622941D01*
X142552789Y-115619000D01*
X142647211Y-115619000D01*
X142788360Y-115633835D01*
X142788360Y-115633835D01*
G37*
G36*
X142788360Y-113093835D02*
G01*
X142869397Y-113120166D01*
X142956663Y-113147848D01*
X142959655Y-113149493D01*
X142968488Y-113152363D01*
X143040466Y-113193919D01*
X143111499Y-113232970D01*
X143118986Y-113239253D01*
X143132511Y-113247061D01*
X143190259Y-113299057D01*
X143246857Y-113346549D01*
X143256962Y-113359118D01*
X143273261Y-113373793D01*
X143315454Y-113431867D01*
X143357579Y-113484260D01*
X143367994Y-113504182D01*
X143384586Y-113527019D01*
X143411297Y-113587012D01*
X143439439Y-113640843D01*
X143447582Y-113668510D01*
X143461621Y-113700042D01*
X143473992Y-113758241D01*
X143489328Y-113810349D01*
X143492518Y-113845401D01*
X143500999Y-113885301D01*
X143500999Y-113938592D01*
X143505343Y-113986324D01*
X143500999Y-114027653D01*
X143500999Y-114074699D01*
X143491217Y-114120721D01*
X143486873Y-114162047D01*
X143472702Y-114207827D01*
X143461621Y-114259958D01*
X143445028Y-114297226D01*
X143434622Y-114330843D01*
X143408789Y-114378620D01*
X143384586Y-114432981D01*
X143364298Y-114460905D01*
X143350580Y-114486276D01*
X143311859Y-114533082D01*
X143273261Y-114586207D01*
X143252284Y-114605095D01*
X143237952Y-114622419D01*
X143185845Y-114664917D01*
X143132511Y-114712939D01*
X143113524Y-114723901D01*
X143101025Y-114734095D01*
X143035780Y-114768786D01*
X142968488Y-114807637D01*
X142953636Y-114812463D01*
X142945003Y-114817053D01*
X142867430Y-114840473D01*
X142788360Y-114866165D01*
X142779114Y-114867137D01*
X142775851Y-114868122D01*
X142684710Y-114877059D01*
X142647211Y-114881000D01*
X142552789Y-114881000D01*
X142411640Y-114866165D01*
X142330603Y-114839834D01*
X142243337Y-114812152D01*
X142240345Y-114810507D01*
X142231512Y-114807637D01*
X142159534Y-114766081D01*
X142088501Y-114727030D01*
X142081014Y-114720747D01*
X142067489Y-114712939D01*
X142009741Y-114660943D01*
X141953143Y-114613451D01*
X141943038Y-114600882D01*
X141926739Y-114586207D01*
X141884546Y-114528133D01*
X141842421Y-114475740D01*
X141832006Y-114455818D01*
X141815414Y-114432981D01*
X141788703Y-114372988D01*
X141760561Y-114319157D01*
X141752418Y-114291490D01*
X141738379Y-114259958D01*
X141726008Y-114201759D01*
X141710672Y-114149651D01*
X141707482Y-114114599D01*
X141699001Y-114074699D01*
X141699001Y-114021408D01*
X141694657Y-113973676D01*
X141699001Y-113932347D01*
X141699001Y-113885301D01*
X141708783Y-113839279D01*
X141713127Y-113797953D01*
X141727298Y-113752173D01*
X141738379Y-113700042D01*
X141754972Y-113662774D01*
X141765378Y-113629157D01*
X141791211Y-113581380D01*
X141815414Y-113527019D01*
X141835702Y-113499095D01*
X141849420Y-113473724D01*
X141888141Y-113426918D01*
X141926739Y-113373793D01*
X141947716Y-113354905D01*
X141962048Y-113337581D01*
X142014155Y-113295083D01*
X142067489Y-113247061D01*
X142086476Y-113236099D01*
X142098975Y-113225905D01*
X142164220Y-113191214D01*
X142231512Y-113152363D01*
X142246364Y-113147537D01*
X142254997Y-113142947D01*
X142332570Y-113119527D01*
X142411640Y-113093835D01*
X142420886Y-113092863D01*
X142424149Y-113091878D01*
X142515290Y-113082941D01*
X142552789Y-113079000D01*
X142647211Y-113079000D01*
X142788360Y-113093835D01*
X142788360Y-113093835D01*
G37*
G36*
X142788360Y-110553835D02*
G01*
X142869397Y-110580166D01*
X142956663Y-110607848D01*
X142959655Y-110609493D01*
X142968488Y-110612363D01*
X143040466Y-110653919D01*
X143111499Y-110692970D01*
X143118986Y-110699253D01*
X143132511Y-110707061D01*
X143190259Y-110759057D01*
X143246857Y-110806549D01*
X143256962Y-110819118D01*
X143273261Y-110833793D01*
X143315454Y-110891867D01*
X143357579Y-110944260D01*
X143367994Y-110964182D01*
X143384586Y-110987019D01*
X143411297Y-111047012D01*
X143439439Y-111100843D01*
X143447582Y-111128510D01*
X143461621Y-111160042D01*
X143473992Y-111218241D01*
X143489328Y-111270349D01*
X143492518Y-111305401D01*
X143500999Y-111345301D01*
X143500999Y-111398592D01*
X143505343Y-111446324D01*
X143500999Y-111487653D01*
X143500999Y-111534699D01*
X143491217Y-111580721D01*
X143486873Y-111622047D01*
X143472702Y-111667827D01*
X143461621Y-111719958D01*
X143445028Y-111757226D01*
X143434622Y-111790843D01*
X143408789Y-111838620D01*
X143384586Y-111892981D01*
X143364298Y-111920905D01*
X143350580Y-111946276D01*
X143311859Y-111993082D01*
X143273261Y-112046207D01*
X143252284Y-112065095D01*
X143237952Y-112082419D01*
X143185845Y-112124917D01*
X143132511Y-112172939D01*
X143113524Y-112183901D01*
X143101025Y-112194095D01*
X143035780Y-112228786D01*
X142968488Y-112267637D01*
X142953636Y-112272463D01*
X142945003Y-112277053D01*
X142867430Y-112300473D01*
X142788360Y-112326165D01*
X142779114Y-112327137D01*
X142775851Y-112328122D01*
X142684710Y-112337059D01*
X142647211Y-112341000D01*
X142552789Y-112341000D01*
X142411640Y-112326165D01*
X142330603Y-112299834D01*
X142243337Y-112272152D01*
X142240345Y-112270507D01*
X142231512Y-112267637D01*
X142159534Y-112226081D01*
X142088501Y-112187030D01*
X142081014Y-112180747D01*
X142067489Y-112172939D01*
X142009741Y-112120943D01*
X141953143Y-112073451D01*
X141943038Y-112060882D01*
X141926739Y-112046207D01*
X141884546Y-111988133D01*
X141842421Y-111935740D01*
X141832006Y-111915818D01*
X141815414Y-111892981D01*
X141788703Y-111832988D01*
X141760561Y-111779157D01*
X141752418Y-111751490D01*
X141738379Y-111719958D01*
X141726008Y-111661759D01*
X141710672Y-111609651D01*
X141707482Y-111574599D01*
X141699001Y-111534699D01*
X141699001Y-111481408D01*
X141694657Y-111433676D01*
X141699001Y-111392347D01*
X141699001Y-111345301D01*
X141708783Y-111299279D01*
X141713127Y-111257953D01*
X141727298Y-111212173D01*
X141738379Y-111160042D01*
X141754972Y-111122774D01*
X141765378Y-111089157D01*
X141791211Y-111041380D01*
X141815414Y-110987019D01*
X141835702Y-110959095D01*
X141849420Y-110933724D01*
X141888141Y-110886918D01*
X141926739Y-110833793D01*
X141947716Y-110814905D01*
X141962048Y-110797581D01*
X142014155Y-110755083D01*
X142067489Y-110707061D01*
X142086476Y-110696099D01*
X142098975Y-110685905D01*
X142164220Y-110651214D01*
X142231512Y-110612363D01*
X142246364Y-110607537D01*
X142254997Y-110602947D01*
X142332570Y-110579527D01*
X142411640Y-110553835D01*
X142420886Y-110552863D01*
X142424149Y-110551878D01*
X142515290Y-110542941D01*
X142552789Y-110539000D01*
X142647211Y-110539000D01*
X142788360Y-110553835D01*
X142788360Y-110553835D01*
G37*
G36*
X143469899Y-108001959D02*
G01*
X143486769Y-108013231D01*
X143498041Y-108030101D01*
X143504448Y-108062312D01*
X143504448Y-109737688D01*
X143501999Y-109750000D01*
X143498041Y-109769899D01*
X143486769Y-109786769D01*
X143469899Y-109798041D01*
X143450000Y-109801999D01*
X143437688Y-109804448D01*
X141762312Y-109804448D01*
X141730101Y-109798041D01*
X141713231Y-109786769D01*
X141701959Y-109769899D01*
X141695552Y-109737688D01*
X141695552Y-108062312D01*
X141701959Y-108030101D01*
X141713231Y-108013231D01*
X141730101Y-108001959D01*
X141762312Y-107995552D01*
X143437688Y-107995552D01*
X143469899Y-108001959D01*
X143469899Y-108001959D01*
G37*
M02*
