G04 #@! TF.GenerationSoftware,KiCad,Pcbnew,6.0.0-unknown-ea0edab~86~ubuntu18.04.1*
G04 #@! TF.CreationDate,2019-07-07T11:10:00+02:00*
G04 #@! TF.ProjectId,ir-receiver,69722d72-6563-4656-9976-65722e6b6963,rev?*
G04 #@! TF.SameCoordinates,Original*
G04 #@! TF.FileFunction,Copper,L1,Top*
G04 #@! TF.FilePolarity,Positive*
%FSLAX46Y46*%
G04 Gerber Fmt 4.6, Leading zero omitted, Abs format (unit mm)*
G04 Created by KiCad (PCBNEW 6.0.0-unknown-ea0edab~86~ubuntu18.04.1) date 2019-07-07 11:10:00*
%MOMM*%
%LPD*%
G04 APERTURE LIST*
%ADD10O,1.700000X1.700000*%
%ADD11R,1.700000X1.700000*%
%ADD12C,0.100000*%
%ADD13C,1.150000*%
%ADD14R,1.450000X0.450000*%
%ADD15C,0.750000*%
%ADD16C,1.425000*%
%ADD17C,0.200000*%
%ADD18C,0.254000*%
G04 APERTURE END LIST*
D10*
X142600000Y-116520000D03*
X142600000Y-113980000D03*
X142600000Y-111440000D03*
D11*
X142600000Y-108900000D03*
D12*
G36*
X148845671Y-113619030D02*
G01*
X148926777Y-113673223D01*
X148980970Y-113754329D01*
X149000000Y-113849999D01*
X149000000Y-114500001D01*
X148980970Y-114595671D01*
X148926777Y-114676777D01*
X148845671Y-114730970D01*
X148750001Y-114750000D01*
X147849999Y-114750000D01*
X147754329Y-114730970D01*
X147673223Y-114676777D01*
X147619030Y-114595671D01*
X147600000Y-114500001D01*
X147600000Y-113849999D01*
X147619030Y-113754329D01*
X147673223Y-113673223D01*
X147754329Y-113619030D01*
X147849999Y-113600000D01*
X148750001Y-113600000D01*
X148845671Y-113619030D01*
X148845671Y-113619030D01*
G37*
D13*
X148300000Y-114175000D03*
D12*
G36*
X148845671Y-115669030D02*
G01*
X148926777Y-115723223D01*
X148980970Y-115804329D01*
X149000000Y-115899999D01*
X149000000Y-116550001D01*
X148980970Y-116645671D01*
X148926777Y-116726777D01*
X148845671Y-116780970D01*
X148750001Y-116800000D01*
X147849999Y-116800000D01*
X147754329Y-116780970D01*
X147673223Y-116726777D01*
X147619030Y-116645671D01*
X147600000Y-116550001D01*
X147600000Y-115899999D01*
X147619030Y-115804329D01*
X147673223Y-115723223D01*
X147754329Y-115669030D01*
X147849999Y-115650000D01*
X148750001Y-115650000D01*
X148845671Y-115669030D01*
X148845671Y-115669030D01*
G37*
D13*
X148300000Y-116225000D03*
D14*
X151700000Y-110025000D03*
X151700000Y-110675000D03*
X151700000Y-111325000D03*
X151700000Y-111975000D03*
X147300000Y-111975000D03*
X147300000Y-111325000D03*
X147300000Y-110675000D03*
X147300000Y-110025000D03*
D12*
G36*
X205172217Y-110387674D02*
G01*
X205226233Y-110423767D01*
X205262326Y-110477783D01*
X205275000Y-110541500D01*
X205275000Y-110958500D01*
X205262326Y-111022217D01*
X205226233Y-111076233D01*
X205172217Y-111112326D01*
X205108500Y-111125000D01*
X200891500Y-111125000D01*
X200827783Y-111112326D01*
X200773767Y-111076233D01*
X200737674Y-111022217D01*
X200725000Y-110958500D01*
X200725000Y-110541500D01*
X200737674Y-110477783D01*
X200773767Y-110423767D01*
X200827783Y-110387674D01*
X200891500Y-110375000D01*
X205108500Y-110375000D01*
X205172217Y-110387674D01*
X205172217Y-110387674D01*
G37*
D15*
X203000000Y-110750000D03*
D12*
G36*
X205172217Y-114887674D02*
G01*
X205226233Y-114923767D01*
X205262326Y-114977783D01*
X205275000Y-115041500D01*
X205275000Y-115458500D01*
X205262326Y-115522217D01*
X205226233Y-115576233D01*
X205172217Y-115612326D01*
X205108500Y-115625000D01*
X200891500Y-115625000D01*
X200827783Y-115612326D01*
X200773767Y-115576233D01*
X200737674Y-115522217D01*
X200725000Y-115458500D01*
X200725000Y-115041500D01*
X200737674Y-114977783D01*
X200773767Y-114923767D01*
X200827783Y-114887674D01*
X200891500Y-114875000D01*
X205108500Y-114875000D01*
X205172217Y-114887674D01*
X205172217Y-114887674D01*
G37*
D15*
X203000000Y-115250000D03*
D12*
G36*
X200172217Y-110387674D02*
G01*
X200226233Y-110423767D01*
X200262326Y-110477783D01*
X200275000Y-110541500D01*
X200275000Y-110958500D01*
X200262326Y-111022217D01*
X200226233Y-111076233D01*
X200172217Y-111112326D01*
X200108500Y-111125000D01*
X195891500Y-111125000D01*
X195827783Y-111112326D01*
X195773767Y-111076233D01*
X195737674Y-111022217D01*
X195725000Y-110958500D01*
X195725000Y-110541500D01*
X195737674Y-110477783D01*
X195773767Y-110423767D01*
X195827783Y-110387674D01*
X195891500Y-110375000D01*
X200108500Y-110375000D01*
X200172217Y-110387674D01*
X200172217Y-110387674D01*
G37*
D15*
X198000000Y-110750000D03*
D12*
G36*
X200172217Y-114887674D02*
G01*
X200226233Y-114923767D01*
X200262326Y-114977783D01*
X200275000Y-115041500D01*
X200275000Y-115458500D01*
X200262326Y-115522217D01*
X200226233Y-115576233D01*
X200172217Y-115612326D01*
X200108500Y-115625000D01*
X195891500Y-115625000D01*
X195827783Y-115612326D01*
X195773767Y-115576233D01*
X195737674Y-115522217D01*
X195725000Y-115458500D01*
X195725000Y-115041500D01*
X195737674Y-114977783D01*
X195773767Y-114923767D01*
X195827783Y-114887674D01*
X195891500Y-114875000D01*
X200108500Y-114875000D01*
X200172217Y-114887674D01*
X200172217Y-114887674D01*
G37*
D15*
X198000000Y-115250000D03*
D12*
G36*
X195172217Y-110387674D02*
G01*
X195226233Y-110423767D01*
X195262326Y-110477783D01*
X195275000Y-110541500D01*
X195275000Y-110958500D01*
X195262326Y-111022217D01*
X195226233Y-111076233D01*
X195172217Y-111112326D01*
X195108500Y-111125000D01*
X190891500Y-111125000D01*
X190827783Y-111112326D01*
X190773767Y-111076233D01*
X190737674Y-111022217D01*
X190725000Y-110958500D01*
X190725000Y-110541500D01*
X190737674Y-110477783D01*
X190773767Y-110423767D01*
X190827783Y-110387674D01*
X190891500Y-110375000D01*
X195108500Y-110375000D01*
X195172217Y-110387674D01*
X195172217Y-110387674D01*
G37*
D15*
X193000000Y-110750000D03*
D12*
G36*
X195172217Y-114887674D02*
G01*
X195226233Y-114923767D01*
X195262326Y-114977783D01*
X195275000Y-115041500D01*
X195275000Y-115458500D01*
X195262326Y-115522217D01*
X195226233Y-115576233D01*
X195172217Y-115612326D01*
X195108500Y-115625000D01*
X190891500Y-115625000D01*
X190827783Y-115612326D01*
X190773767Y-115576233D01*
X190737674Y-115522217D01*
X190725000Y-115458500D01*
X190725000Y-115041500D01*
X190737674Y-114977783D01*
X190773767Y-114923767D01*
X190827783Y-114887674D01*
X190891500Y-114875000D01*
X195108500Y-114875000D01*
X195172217Y-114887674D01*
X195172217Y-114887674D01*
G37*
D15*
X193000000Y-115250000D03*
D12*
G36*
X190172217Y-110387674D02*
G01*
X190226233Y-110423767D01*
X190262326Y-110477783D01*
X190275000Y-110541500D01*
X190275000Y-110958500D01*
X190262326Y-111022217D01*
X190226233Y-111076233D01*
X190172217Y-111112326D01*
X190108500Y-111125000D01*
X185891500Y-111125000D01*
X185827783Y-111112326D01*
X185773767Y-111076233D01*
X185737674Y-111022217D01*
X185725000Y-110958500D01*
X185725000Y-110541500D01*
X185737674Y-110477783D01*
X185773767Y-110423767D01*
X185827783Y-110387674D01*
X185891500Y-110375000D01*
X190108500Y-110375000D01*
X190172217Y-110387674D01*
X190172217Y-110387674D01*
G37*
D15*
X188000000Y-110750000D03*
D12*
G36*
X190172217Y-114887674D02*
G01*
X190226233Y-114923767D01*
X190262326Y-114977783D01*
X190275000Y-115041500D01*
X190275000Y-115458500D01*
X190262326Y-115522217D01*
X190226233Y-115576233D01*
X190172217Y-115612326D01*
X190108500Y-115625000D01*
X185891500Y-115625000D01*
X185827783Y-115612326D01*
X185773767Y-115576233D01*
X185737674Y-115522217D01*
X185725000Y-115458500D01*
X185725000Y-115041500D01*
X185737674Y-114977783D01*
X185773767Y-114923767D01*
X185827783Y-114887674D01*
X185891500Y-114875000D01*
X190108500Y-114875000D01*
X190172217Y-114887674D01*
X190172217Y-114887674D01*
G37*
D15*
X188000000Y-115250000D03*
D12*
G36*
X185172217Y-110387674D02*
G01*
X185226233Y-110423767D01*
X185262326Y-110477783D01*
X185275000Y-110541500D01*
X185275000Y-110958500D01*
X185262326Y-111022217D01*
X185226233Y-111076233D01*
X185172217Y-111112326D01*
X185108500Y-111125000D01*
X180891500Y-111125000D01*
X180827783Y-111112326D01*
X180773767Y-111076233D01*
X180737674Y-111022217D01*
X180725000Y-110958500D01*
X180725000Y-110541500D01*
X180737674Y-110477783D01*
X180773767Y-110423767D01*
X180827783Y-110387674D01*
X180891500Y-110375000D01*
X185108500Y-110375000D01*
X185172217Y-110387674D01*
X185172217Y-110387674D01*
G37*
D15*
X183000000Y-110750000D03*
D12*
G36*
X185172217Y-114887674D02*
G01*
X185226233Y-114923767D01*
X185262326Y-114977783D01*
X185275000Y-115041500D01*
X185275000Y-115458500D01*
X185262326Y-115522217D01*
X185226233Y-115576233D01*
X185172217Y-115612326D01*
X185108500Y-115625000D01*
X180891500Y-115625000D01*
X180827783Y-115612326D01*
X180773767Y-115576233D01*
X180737674Y-115522217D01*
X180725000Y-115458500D01*
X180725000Y-115041500D01*
X180737674Y-114977783D01*
X180773767Y-114923767D01*
X180827783Y-114887674D01*
X180891500Y-114875000D01*
X185108500Y-114875000D01*
X185172217Y-114887674D01*
X185172217Y-114887674D01*
G37*
D15*
X183000000Y-115250000D03*
D12*
G36*
X180172217Y-110387674D02*
G01*
X180226233Y-110423767D01*
X180262326Y-110477783D01*
X180275000Y-110541500D01*
X180275000Y-110958500D01*
X180262326Y-111022217D01*
X180226233Y-111076233D01*
X180172217Y-111112326D01*
X180108500Y-111125000D01*
X175891500Y-111125000D01*
X175827783Y-111112326D01*
X175773767Y-111076233D01*
X175737674Y-111022217D01*
X175725000Y-110958500D01*
X175725000Y-110541500D01*
X175737674Y-110477783D01*
X175773767Y-110423767D01*
X175827783Y-110387674D01*
X175891500Y-110375000D01*
X180108500Y-110375000D01*
X180172217Y-110387674D01*
X180172217Y-110387674D01*
G37*
D15*
X178000000Y-110750000D03*
D12*
G36*
X180172217Y-114887674D02*
G01*
X180226233Y-114923767D01*
X180262326Y-114977783D01*
X180275000Y-115041500D01*
X180275000Y-115458500D01*
X180262326Y-115522217D01*
X180226233Y-115576233D01*
X180172217Y-115612326D01*
X180108500Y-115625000D01*
X175891500Y-115625000D01*
X175827783Y-115612326D01*
X175773767Y-115576233D01*
X175737674Y-115522217D01*
X175725000Y-115458500D01*
X175725000Y-115041500D01*
X175737674Y-114977783D01*
X175773767Y-114923767D01*
X175827783Y-114887674D01*
X175891500Y-114875000D01*
X180108500Y-114875000D01*
X180172217Y-114887674D01*
X180172217Y-114887674D01*
G37*
D15*
X178000000Y-115250000D03*
D12*
G36*
X175172217Y-110387674D02*
G01*
X175226233Y-110423767D01*
X175262326Y-110477783D01*
X175275000Y-110541500D01*
X175275000Y-110958500D01*
X175262326Y-111022217D01*
X175226233Y-111076233D01*
X175172217Y-111112326D01*
X175108500Y-111125000D01*
X170891500Y-111125000D01*
X170827783Y-111112326D01*
X170773767Y-111076233D01*
X170737674Y-111022217D01*
X170725000Y-110958500D01*
X170725000Y-110541500D01*
X170737674Y-110477783D01*
X170773767Y-110423767D01*
X170827783Y-110387674D01*
X170891500Y-110375000D01*
X175108500Y-110375000D01*
X175172217Y-110387674D01*
X175172217Y-110387674D01*
G37*
D15*
X173000000Y-110750000D03*
D12*
G36*
X175172217Y-114887674D02*
G01*
X175226233Y-114923767D01*
X175262326Y-114977783D01*
X175275000Y-115041500D01*
X175275000Y-115458500D01*
X175262326Y-115522217D01*
X175226233Y-115576233D01*
X175172217Y-115612326D01*
X175108500Y-115625000D01*
X170891500Y-115625000D01*
X170827783Y-115612326D01*
X170773767Y-115576233D01*
X170737674Y-115522217D01*
X170725000Y-115458500D01*
X170725000Y-115041500D01*
X170737674Y-114977783D01*
X170773767Y-114923767D01*
X170827783Y-114887674D01*
X170891500Y-114875000D01*
X175108500Y-114875000D01*
X175172217Y-114887674D01*
X175172217Y-114887674D01*
G37*
D15*
X173000000Y-115250000D03*
D12*
G36*
X170172217Y-110387674D02*
G01*
X170226233Y-110423767D01*
X170262326Y-110477783D01*
X170275000Y-110541500D01*
X170275000Y-110958500D01*
X170262326Y-111022217D01*
X170226233Y-111076233D01*
X170172217Y-111112326D01*
X170108500Y-111125000D01*
X165891500Y-111125000D01*
X165827783Y-111112326D01*
X165773767Y-111076233D01*
X165737674Y-111022217D01*
X165725000Y-110958500D01*
X165725000Y-110541500D01*
X165737674Y-110477783D01*
X165773767Y-110423767D01*
X165827783Y-110387674D01*
X165891500Y-110375000D01*
X170108500Y-110375000D01*
X170172217Y-110387674D01*
X170172217Y-110387674D01*
G37*
D15*
X168000000Y-110750000D03*
D12*
G36*
X170172217Y-114887674D02*
G01*
X170226233Y-114923767D01*
X170262326Y-114977783D01*
X170275000Y-115041500D01*
X170275000Y-115458500D01*
X170262326Y-115522217D01*
X170226233Y-115576233D01*
X170172217Y-115612326D01*
X170108500Y-115625000D01*
X165891500Y-115625000D01*
X165827783Y-115612326D01*
X165773767Y-115576233D01*
X165737674Y-115522217D01*
X165725000Y-115458500D01*
X165725000Y-115041500D01*
X165737674Y-114977783D01*
X165773767Y-114923767D01*
X165827783Y-114887674D01*
X165891500Y-114875000D01*
X170108500Y-114875000D01*
X170172217Y-114887674D01*
X170172217Y-114887674D01*
G37*
D15*
X168000000Y-115250000D03*
D12*
G36*
X165172217Y-110387674D02*
G01*
X165226233Y-110423767D01*
X165262326Y-110477783D01*
X165275000Y-110541500D01*
X165275000Y-110958500D01*
X165262326Y-111022217D01*
X165226233Y-111076233D01*
X165172217Y-111112326D01*
X165108500Y-111125000D01*
X160891500Y-111125000D01*
X160827783Y-111112326D01*
X160773767Y-111076233D01*
X160737674Y-111022217D01*
X160725000Y-110958500D01*
X160725000Y-110541500D01*
X160737674Y-110477783D01*
X160773767Y-110423767D01*
X160827783Y-110387674D01*
X160891500Y-110375000D01*
X165108500Y-110375000D01*
X165172217Y-110387674D01*
X165172217Y-110387674D01*
G37*
D15*
X163000000Y-110750000D03*
D12*
G36*
X165172217Y-114887674D02*
G01*
X165226233Y-114923767D01*
X165262326Y-114977783D01*
X165275000Y-115041500D01*
X165275000Y-115458500D01*
X165262326Y-115522217D01*
X165226233Y-115576233D01*
X165172217Y-115612326D01*
X165108500Y-115625000D01*
X160891500Y-115625000D01*
X160827783Y-115612326D01*
X160773767Y-115576233D01*
X160737674Y-115522217D01*
X160725000Y-115458500D01*
X160725000Y-115041500D01*
X160737674Y-114977783D01*
X160773767Y-114923767D01*
X160827783Y-114887674D01*
X160891500Y-114875000D01*
X165108500Y-114875000D01*
X165172217Y-114887674D01*
X165172217Y-114887674D01*
G37*
D15*
X163000000Y-115250000D03*
D12*
G36*
X160172217Y-110387674D02*
G01*
X160226233Y-110423767D01*
X160262326Y-110477783D01*
X160275000Y-110541500D01*
X160275000Y-110958500D01*
X160262326Y-111022217D01*
X160226233Y-111076233D01*
X160172217Y-111112326D01*
X160108500Y-111125000D01*
X155891500Y-111125000D01*
X155827783Y-111112326D01*
X155773767Y-111076233D01*
X155737674Y-111022217D01*
X155725000Y-110958500D01*
X155725000Y-110541500D01*
X155737674Y-110477783D01*
X155773767Y-110423767D01*
X155827783Y-110387674D01*
X155891500Y-110375000D01*
X160108500Y-110375000D01*
X160172217Y-110387674D01*
X160172217Y-110387674D01*
G37*
D15*
X158000000Y-110750000D03*
D12*
G36*
X160172217Y-114887674D02*
G01*
X160226233Y-114923767D01*
X160262326Y-114977783D01*
X160275000Y-115041500D01*
X160275000Y-115458500D01*
X160262326Y-115522217D01*
X160226233Y-115576233D01*
X160172217Y-115612326D01*
X160108500Y-115625000D01*
X155891500Y-115625000D01*
X155827783Y-115612326D01*
X155773767Y-115576233D01*
X155737674Y-115522217D01*
X155725000Y-115458500D01*
X155725000Y-115041500D01*
X155737674Y-114977783D01*
X155773767Y-114923767D01*
X155827783Y-114887674D01*
X155891500Y-114875000D01*
X160108500Y-114875000D01*
X160172217Y-114887674D01*
X160172217Y-114887674D01*
G37*
D15*
X158000000Y-115250000D03*
D12*
G36*
X158145671Y-106944030D02*
G01*
X158226777Y-106998223D01*
X158280970Y-107079329D01*
X158300000Y-107175000D01*
X158300000Y-108425000D01*
X158280970Y-108520671D01*
X158226777Y-108601777D01*
X158145671Y-108655970D01*
X158050000Y-108675000D01*
X157125000Y-108675000D01*
X157029329Y-108655970D01*
X156948223Y-108601777D01*
X156894030Y-108520671D01*
X156875000Y-108425000D01*
X156875000Y-107175000D01*
X156894030Y-107079329D01*
X156948223Y-106998223D01*
X157029329Y-106944030D01*
X157125000Y-106925000D01*
X158050000Y-106925000D01*
X158145671Y-106944030D01*
X158145671Y-106944030D01*
G37*
D16*
X157587500Y-107800000D03*
D12*
G36*
X155170671Y-106944030D02*
G01*
X155251777Y-106998223D01*
X155305970Y-107079329D01*
X155325000Y-107175000D01*
X155325000Y-108425000D01*
X155305970Y-108520671D01*
X155251777Y-108601777D01*
X155170671Y-108655970D01*
X155075000Y-108675000D01*
X154150000Y-108675000D01*
X154054329Y-108655970D01*
X153973223Y-108601777D01*
X153919030Y-108520671D01*
X153900000Y-108425000D01*
X153900000Y-107175000D01*
X153919030Y-107079329D01*
X153973223Y-106998223D01*
X154054329Y-106944030D01*
X154150000Y-106925000D01*
X155075000Y-106925000D01*
X155170671Y-106944030D01*
X155170671Y-106944030D01*
G37*
D16*
X154612500Y-107800000D03*
D12*
G36*
X150845671Y-115669030D02*
G01*
X150926777Y-115723223D01*
X150980970Y-115804329D01*
X151000000Y-115899999D01*
X151000000Y-116550001D01*
X150980970Y-116645671D01*
X150926777Y-116726777D01*
X150845671Y-116780970D01*
X150750001Y-116800000D01*
X149849999Y-116800000D01*
X149754329Y-116780970D01*
X149673223Y-116726777D01*
X149619030Y-116645671D01*
X149600000Y-116550001D01*
X149600000Y-115899999D01*
X149619030Y-115804329D01*
X149673223Y-115723223D01*
X149754329Y-115669030D01*
X149849999Y-115650000D01*
X150750001Y-115650000D01*
X150845671Y-115669030D01*
X150845671Y-115669030D01*
G37*
D13*
X150300000Y-116225000D03*
D12*
G36*
X150845671Y-113619030D02*
G01*
X150926777Y-113673223D01*
X150980970Y-113754329D01*
X151000000Y-113849999D01*
X151000000Y-114500001D01*
X150980970Y-114595671D01*
X150926777Y-114676777D01*
X150845671Y-114730970D01*
X150750001Y-114750000D01*
X149849999Y-114750000D01*
X149754329Y-114730970D01*
X149673223Y-114676777D01*
X149619030Y-114595671D01*
X149600000Y-114500001D01*
X149600000Y-113849999D01*
X149619030Y-113754329D01*
X149673223Y-113673223D01*
X149754329Y-113619030D01*
X149849999Y-113600000D01*
X150750001Y-113600000D01*
X150845671Y-113619030D01*
X150845671Y-113619030D01*
G37*
D13*
X150300000Y-114175000D03*
D17*
X146025000Y-110675000D02*
X144800000Y-111900000D01*
X147300000Y-110675000D02*
X146025000Y-110675000D01*
X144800000Y-111900000D02*
X144800000Y-114320000D01*
X144800000Y-114320000D02*
X142600000Y-116520000D01*
X148900000Y-110900000D02*
X148675000Y-110675000D01*
X148675000Y-110675000D02*
X147300000Y-110675000D01*
X148900000Y-111800000D02*
X148900000Y-110900000D01*
X148725000Y-111975000D02*
X148900000Y-111800000D01*
X147300000Y-111975000D02*
X148725000Y-111975000D01*
X146325000Y-111325000D02*
X146100000Y-111550000D01*
X147300000Y-111325000D02*
X146325000Y-111325000D01*
X146100000Y-111550000D02*
X146100000Y-116100000D01*
X146100000Y-116100000D02*
X146225000Y-116225000D01*
X146225000Y-116225000D02*
X148300000Y-116225000D01*
X178000000Y-115250000D02*
X203000000Y-115250000D01*
X173000000Y-115250000D02*
X178000000Y-115250000D01*
X168000000Y-115250000D02*
X173000000Y-115250000D01*
X163000000Y-115250000D02*
X168000000Y-115250000D01*
X144500000Y-109371764D02*
X144500000Y-111200000D01*
X150300000Y-108900000D02*
X149700000Y-108300000D01*
X145571764Y-108300000D02*
X144500000Y-109371764D01*
X150725000Y-111325000D02*
X150300000Y-110900000D01*
X149700000Y-108300000D02*
X145571764Y-108300000D01*
X150300000Y-110900000D02*
X150300000Y-108900000D01*
X144500000Y-111200000D02*
X144260000Y-111440000D01*
X144260000Y-111440000D02*
X142600000Y-111440000D01*
X154025000Y-110675000D02*
X154612500Y-110087500D01*
X154612500Y-110087500D02*
X154612500Y-107800000D01*
X151700000Y-110675000D02*
X154025000Y-110675000D01*
X144300000Y-108900000D02*
X145400000Y-107800000D01*
X145400000Y-107800000D02*
X154612500Y-107800000D01*
X142600000Y-108900000D02*
X144300000Y-108900000D01*
X151700000Y-111325000D02*
X150725000Y-111325000D01*
X150725000Y-111325000D02*
X150300000Y-111750000D01*
X150300000Y-111750000D02*
X150300000Y-113500000D01*
X150300000Y-113500000D02*
X150300000Y-114175000D01*
X158000000Y-115250000D02*
X163000000Y-115250000D01*
X152475000Y-116225000D02*
X153450000Y-115250000D01*
X153450000Y-115250000D02*
X157500000Y-115250000D01*
X150300000Y-116225000D02*
X152475000Y-116225000D01*
X150300000Y-116225000D02*
X148300000Y-116225000D01*
X150300000Y-114175000D02*
X148300000Y-114175000D01*
D18*
G36*
X209365000Y-119365000D02*
G01*
X140635000Y-119365000D01*
X140635000Y-116800079D01*
X141141401Y-116800079D01*
X141170282Y-116937725D01*
X141176453Y-116958295D01*
X141261104Y-117172646D01*
X141270652Y-117191881D01*
X141390209Y-117388905D01*
X141402862Y-117406257D01*
X141553906Y-117580320D01*
X141569302Y-117595292D01*
X141747515Y-117741417D01*
X141765213Y-117753580D01*
X141965498Y-117867589D01*
X141984993Y-117876597D01*
X142201624Y-117955230D01*
X142228269Y-117961750D01*
X142329313Y-117975143D01*
X142400028Y-117964179D01*
X142453589Y-117916724D01*
X142473000Y-117849244D01*
X142473000Y-116774000D01*
X142727000Y-116774000D01*
X142727000Y-117857100D01*
X142747161Y-117925761D01*
X142801242Y-117972623D01*
X142885905Y-117980027D01*
X143084610Y-117928454D01*
X143104866Y-117921321D01*
X143314992Y-117826666D01*
X143333757Y-117816222D01*
X143524930Y-117687517D01*
X143541666Y-117674060D01*
X143708420Y-117514984D01*
X143722650Y-117498901D01*
X143860218Y-117314003D01*
X143871534Y-117295751D01*
X143975982Y-117090317D01*
X143984062Y-117070420D01*
X144052403Y-116850326D01*
X144057014Y-116829353D01*
X144062139Y-116790688D01*
X144051175Y-116719973D01*
X144003720Y-116666411D01*
X143936240Y-116647000D01*
X142854000Y-116647000D01*
X142785339Y-116667161D01*
X142738477Y-116721242D01*
X142727000Y-116774000D01*
X142473000Y-116774000D01*
X142452839Y-116705339D01*
X142398758Y-116658477D01*
X142346000Y-116647000D01*
X141265694Y-116647000D01*
X141197033Y-116667161D01*
X141150171Y-116721242D01*
X141141401Y-116800079D01*
X140635000Y-116800079D01*
X140635000Y-108050000D01*
X141107163Y-108050000D01*
X141107163Y-109750000D01*
X141111490Y-109782870D01*
X141180599Y-110040789D01*
X141205984Y-110089553D01*
X141321138Y-110226788D01*
X141354926Y-110255139D01*
X141510073Y-110344713D01*
X141551520Y-110359799D01*
X141576325Y-110364173D01*
X141491580Y-110445016D01*
X141477350Y-110461099D01*
X141339782Y-110645997D01*
X141328466Y-110664249D01*
X141224018Y-110869683D01*
X141215938Y-110889580D01*
X141147597Y-111109674D01*
X141142986Y-111130648D01*
X141112705Y-111359111D01*
X141111693Y-111380563D01*
X141120339Y-111610862D01*
X141122957Y-111632176D01*
X141170282Y-111857725D01*
X141176453Y-111878295D01*
X141261104Y-112092646D01*
X141270652Y-112111881D01*
X141390209Y-112308905D01*
X141402862Y-112326257D01*
X141553906Y-112500320D01*
X141569302Y-112515292D01*
X141747515Y-112661417D01*
X141765213Y-112673580D01*
X141828164Y-112709414D01*
X141675070Y-112812483D01*
X141658334Y-112825940D01*
X141491580Y-112985016D01*
X141477350Y-113001099D01*
X141339782Y-113185997D01*
X141328466Y-113204249D01*
X141224018Y-113409683D01*
X141215938Y-113429580D01*
X141147597Y-113649674D01*
X141142986Y-113670648D01*
X141112705Y-113899111D01*
X141111693Y-113920563D01*
X141120339Y-114150862D01*
X141122957Y-114172176D01*
X141170282Y-114397725D01*
X141176453Y-114418295D01*
X141261104Y-114632646D01*
X141270652Y-114651881D01*
X141390209Y-114848905D01*
X141402862Y-114866257D01*
X141553906Y-115040320D01*
X141569302Y-115055292D01*
X141747515Y-115201417D01*
X141765213Y-115213580D01*
X141828164Y-115249414D01*
X141675070Y-115352483D01*
X141658334Y-115365940D01*
X141491580Y-115525016D01*
X141477350Y-115541099D01*
X141339782Y-115725997D01*
X141328466Y-115744249D01*
X141224018Y-115949683D01*
X141215938Y-115969580D01*
X141147597Y-116189674D01*
X141142986Y-116210647D01*
X141137861Y-116249312D01*
X141148825Y-116320027D01*
X141196280Y-116373589D01*
X141263760Y-116393000D01*
X143934306Y-116393000D01*
X144002967Y-116372839D01*
X144049829Y-116318758D01*
X144058599Y-116239921D01*
X144029718Y-116102275D01*
X144023547Y-116081705D01*
X143938896Y-115867354D01*
X143929348Y-115848119D01*
X143809791Y-115651095D01*
X143797138Y-115633743D01*
X143646094Y-115459680D01*
X143630698Y-115444708D01*
X143452485Y-115298583D01*
X143434787Y-115286420D01*
X143371836Y-115250586D01*
X143524930Y-115147517D01*
X143541666Y-115134060D01*
X143708420Y-114974984D01*
X143722650Y-114958901D01*
X143860218Y-114774003D01*
X143871534Y-114755751D01*
X143975982Y-114550317D01*
X143984062Y-114530420D01*
X144052403Y-114310326D01*
X144057014Y-114289352D01*
X144087295Y-114060889D01*
X144088307Y-114039437D01*
X144079661Y-113809138D01*
X144077043Y-113787824D01*
X144029718Y-113562275D01*
X144023547Y-113541705D01*
X143938896Y-113327354D01*
X143929348Y-113308119D01*
X143809791Y-113111095D01*
X143797138Y-113093743D01*
X143646094Y-112919680D01*
X143630698Y-112904708D01*
X143452485Y-112758583D01*
X143434787Y-112746420D01*
X143371836Y-112710586D01*
X143524930Y-112607517D01*
X143541666Y-112594060D01*
X143708420Y-112434984D01*
X143722650Y-112418901D01*
X143860218Y-112234003D01*
X143871534Y-112215751D01*
X143892253Y-112175000D01*
X144307845Y-112175000D01*
X144307857Y-112174999D01*
X144356297Y-112174999D01*
X144395543Y-112168783D01*
X144432115Y-112156900D01*
X144470091Y-112150885D01*
X144507880Y-112138607D01*
X144542143Y-112121149D01*
X144578712Y-112109267D01*
X144614114Y-112091228D01*
X144645216Y-112068631D01*
X144679484Y-112051171D01*
X144711631Y-112027816D01*
X145087816Y-111651631D01*
X145111171Y-111619484D01*
X145128631Y-111585216D01*
X145151228Y-111554114D01*
X145169267Y-111518712D01*
X145181149Y-111482143D01*
X145198607Y-111447880D01*
X145210885Y-111410092D01*
X145216900Y-111372115D01*
X145228783Y-111335544D01*
X145234999Y-111296298D01*
X145234999Y-111247857D01*
X145235000Y-111247845D01*
X145235000Y-109676210D01*
X145876211Y-109035000D01*
X149395554Y-109035000D01*
X149565001Y-109204448D01*
X149565000Y-110947844D01*
X149565001Y-110947856D01*
X149565001Y-110996297D01*
X149571217Y-111035542D01*
X149583100Y-111072113D01*
X149589115Y-111110091D01*
X149601393Y-111147879D01*
X149618850Y-111182140D01*
X149630733Y-111218712D01*
X149648771Y-111254114D01*
X149671371Y-111285220D01*
X149688829Y-111319484D01*
X149692837Y-111325000D01*
X149688829Y-111330516D01*
X149671371Y-111364780D01*
X149648771Y-111395886D01*
X149630733Y-111431288D01*
X149618850Y-111467860D01*
X149601393Y-111502121D01*
X149589115Y-111539909D01*
X149583100Y-111577887D01*
X149571217Y-111614458D01*
X149565001Y-111653703D01*
X149565001Y-111702144D01*
X149565000Y-111702156D01*
X149565001Y-113019362D01*
X149507453Y-113031881D01*
X149465786Y-113049140D01*
X149296907Y-113157673D01*
X149244617Y-113112363D01*
X149214207Y-113092820D01*
X149015937Y-113002273D01*
X148981253Y-112992089D01*
X148765504Y-112961069D01*
X148747430Y-112959776D01*
X147852570Y-112959776D01*
X147825574Y-112962678D01*
X147507452Y-113031881D01*
X147465786Y-113049140D01*
X147282420Y-113166983D01*
X147255102Y-113190655D01*
X147112363Y-113355384D01*
X147092820Y-113385793D01*
X147002273Y-113584063D01*
X146992089Y-113618747D01*
X146961069Y-113834496D01*
X146959776Y-113852570D01*
X146959776Y-114497430D01*
X146962678Y-114524426D01*
X147031881Y-114842548D01*
X147049140Y-114884214D01*
X147166983Y-115067580D01*
X147190655Y-115094898D01*
X147310627Y-115198855D01*
X147282420Y-115216983D01*
X147255102Y-115240655D01*
X147112363Y-115405384D01*
X147092820Y-115435793D01*
X147068064Y-115490000D01*
X146835000Y-115490000D01*
X146835000Y-112842837D01*
X147046000Y-112842837D01*
X147114661Y-112822676D01*
X147161523Y-112768595D01*
X147173000Y-112715837D01*
X147173000Y-112192837D01*
X147434867Y-112192837D01*
X147427000Y-112229000D01*
X147427000Y-112715837D01*
X147447161Y-112784498D01*
X147501242Y-112831360D01*
X147554000Y-112842837D01*
X148025000Y-112842837D01*
X148057870Y-112838510D01*
X148315789Y-112769401D01*
X148364553Y-112744016D01*
X148501788Y-112628862D01*
X148530139Y-112595074D01*
X148619713Y-112439927D01*
X148634799Y-112398480D01*
X148660794Y-112251053D01*
X148652862Y-112179934D01*
X148607739Y-112124393D01*
X148535723Y-112102000D01*
X148349216Y-112102000D01*
X148364553Y-112094016D01*
X148501788Y-111978862D01*
X148530139Y-111945074D01*
X148597028Y-111829219D01*
X148601727Y-111827839D01*
X148648589Y-111773758D01*
X148655739Y-111688131D01*
X148649528Y-111664950D01*
X148665908Y-111572053D01*
X148667837Y-111550000D01*
X148667837Y-111100000D01*
X148663510Y-111067130D01*
X148649528Y-111014948D01*
X148660794Y-110951053D01*
X148652862Y-110879934D01*
X148607739Y-110824393D01*
X148597625Y-110821248D01*
X148594400Y-110809211D01*
X148569016Y-110760448D01*
X148501065Y-110679467D01*
X148501788Y-110678861D01*
X148530139Y-110645074D01*
X148597028Y-110529219D01*
X148601727Y-110527839D01*
X148648589Y-110473758D01*
X148655739Y-110388131D01*
X148649528Y-110364950D01*
X148665908Y-110272053D01*
X148667837Y-110250000D01*
X148667837Y-109800000D01*
X148663510Y-109767130D01*
X148594401Y-109509212D01*
X148569016Y-109460448D01*
X148453862Y-109323212D01*
X148420074Y-109294861D01*
X148264927Y-109205287D01*
X148223480Y-109190201D01*
X148047053Y-109159092D01*
X148025000Y-109157163D01*
X146575000Y-109157163D01*
X146542130Y-109161490D01*
X146284212Y-109230599D01*
X146235448Y-109255984D01*
X146098212Y-109371138D01*
X146069861Y-109404926D01*
X145980287Y-109560073D01*
X145965201Y-109601520D01*
X145934092Y-109777947D01*
X145932163Y-109800000D01*
X145932163Y-110250000D01*
X145936490Y-110282870D01*
X145950472Y-110335052D01*
X145939206Y-110398947D01*
X145947138Y-110470066D01*
X145992261Y-110525607D01*
X146002374Y-110528751D01*
X146005599Y-110540789D01*
X146030984Y-110589553D01*
X146066456Y-110631827D01*
X146042857Y-110643851D01*
X146006288Y-110655733D01*
X145970886Y-110673772D01*
X145939784Y-110696369D01*
X145905516Y-110713829D01*
X145873369Y-110737184D01*
X145546445Y-111064108D01*
X145546443Y-111064111D01*
X145512184Y-111098370D01*
X145488829Y-111130516D01*
X145471371Y-111164780D01*
X145448771Y-111195886D01*
X145430733Y-111231288D01*
X145418850Y-111267860D01*
X145401393Y-111302121D01*
X145389115Y-111339909D01*
X145383100Y-111377887D01*
X145371217Y-111414458D01*
X145365001Y-111453703D01*
X145365001Y-111502144D01*
X145365000Y-111502156D01*
X145365001Y-116003703D01*
X145365001Y-116196297D01*
X145371217Y-116235543D01*
X145383102Y-116272121D01*
X145389116Y-116310091D01*
X145401393Y-116347879D01*
X145418849Y-116382139D01*
X145430733Y-116418713D01*
X145448772Y-116454115D01*
X145471374Y-116485223D01*
X145488830Y-116519484D01*
X145512185Y-116551631D01*
X145546442Y-116585888D01*
X145546445Y-116585892D01*
X145773369Y-116812816D01*
X145805516Y-116836171D01*
X145839784Y-116853631D01*
X145870886Y-116876228D01*
X145906288Y-116894267D01*
X145942857Y-116906149D01*
X145977120Y-116923607D01*
X146014908Y-116935885D01*
X146052885Y-116941900D01*
X146089456Y-116953783D01*
X146128702Y-116959999D01*
X146177143Y-116959999D01*
X146177155Y-116960000D01*
X147065712Y-116960000D01*
X147166983Y-117117580D01*
X147190655Y-117144898D01*
X147355384Y-117287637D01*
X147385793Y-117307180D01*
X147584063Y-117397727D01*
X147618747Y-117407911D01*
X147834496Y-117438931D01*
X147852570Y-117440224D01*
X148747430Y-117440224D01*
X148774426Y-117437322D01*
X149092548Y-117368119D01*
X149134214Y-117350860D01*
X149303093Y-117242327D01*
X149355383Y-117287637D01*
X149385793Y-117307180D01*
X149584063Y-117397727D01*
X149618747Y-117407911D01*
X149834496Y-117438931D01*
X149852570Y-117440224D01*
X150747430Y-117440224D01*
X150774426Y-117437322D01*
X151092548Y-117368119D01*
X151134214Y-117350860D01*
X151317580Y-117233017D01*
X151344898Y-117209345D01*
X151487637Y-117044616D01*
X151507180Y-117014207D01*
X151531936Y-116960000D01*
X152522845Y-116960000D01*
X152522857Y-116959999D01*
X152571297Y-116959999D01*
X152610543Y-116953783D01*
X152647115Y-116941900D01*
X152685091Y-116935885D01*
X152722880Y-116923607D01*
X152757143Y-116906149D01*
X152793712Y-116894267D01*
X152829114Y-116876228D01*
X152860216Y-116853631D01*
X152894484Y-116836171D01*
X152926631Y-116812816D01*
X153062816Y-116676631D01*
X153754448Y-115985000D01*
X155284463Y-115985000D01*
X155422748Y-116113310D01*
X155454027Y-116134635D01*
X155637220Y-116222856D01*
X155673394Y-116234014D01*
X155874452Y-116264319D01*
X155893381Y-116265738D01*
X160106619Y-116265738D01*
X160130230Y-116263524D01*
X160379436Y-116216372D01*
X160419325Y-116201571D01*
X160498318Y-116155964D01*
X160637220Y-116222856D01*
X160673394Y-116234014D01*
X160874452Y-116264319D01*
X160893381Y-116265738D01*
X165106619Y-116265738D01*
X165130230Y-116263524D01*
X165379436Y-116216372D01*
X165419325Y-116201571D01*
X165498318Y-116155964D01*
X165637220Y-116222856D01*
X165673394Y-116234014D01*
X165874452Y-116264319D01*
X165893381Y-116265738D01*
X170106619Y-116265738D01*
X170130230Y-116263524D01*
X170379436Y-116216372D01*
X170419325Y-116201571D01*
X170498318Y-116155964D01*
X170637220Y-116222856D01*
X170673394Y-116234014D01*
X170874452Y-116264319D01*
X170893381Y-116265738D01*
X175106619Y-116265738D01*
X175130230Y-116263524D01*
X175379436Y-116216372D01*
X175419325Y-116201571D01*
X175498318Y-116155964D01*
X175637220Y-116222856D01*
X175673394Y-116234014D01*
X175874452Y-116264319D01*
X175893381Y-116265738D01*
X180106619Y-116265738D01*
X180130230Y-116263524D01*
X180379436Y-116216372D01*
X180419325Y-116201571D01*
X180498318Y-116155964D01*
X180637220Y-116222856D01*
X180673394Y-116234014D01*
X180874452Y-116264319D01*
X180893381Y-116265738D01*
X185106619Y-116265738D01*
X185130230Y-116263524D01*
X185379436Y-116216372D01*
X185419325Y-116201571D01*
X185498318Y-116155964D01*
X185637220Y-116222856D01*
X185673394Y-116234014D01*
X185874452Y-116264319D01*
X185893381Y-116265738D01*
X190106619Y-116265738D01*
X190130230Y-116263524D01*
X190379436Y-116216372D01*
X190419325Y-116201571D01*
X190498318Y-116155964D01*
X190637220Y-116222856D01*
X190673394Y-116234014D01*
X190874452Y-116264319D01*
X190893381Y-116265738D01*
X195106619Y-116265738D01*
X195130230Y-116263524D01*
X195379436Y-116216372D01*
X195419325Y-116201571D01*
X195498318Y-116155964D01*
X195637220Y-116222856D01*
X195673394Y-116234014D01*
X195874452Y-116264319D01*
X195893381Y-116265738D01*
X200106619Y-116265738D01*
X200130230Y-116263524D01*
X200379436Y-116216372D01*
X200419325Y-116201571D01*
X200498318Y-116155964D01*
X200637220Y-116222856D01*
X200673394Y-116234014D01*
X200874452Y-116264319D01*
X200893381Y-116265738D01*
X205106619Y-116265738D01*
X205130230Y-116263524D01*
X205379436Y-116216372D01*
X205419325Y-116201571D01*
X205595413Y-116099906D01*
X205625011Y-116076303D01*
X205763310Y-115927252D01*
X205784635Y-115895973D01*
X205872856Y-115712780D01*
X205884014Y-115676606D01*
X205914319Y-115475548D01*
X205915738Y-115456619D01*
X205915738Y-115043381D01*
X205913524Y-115019770D01*
X205866372Y-114770564D01*
X205851571Y-114730675D01*
X205749906Y-114554587D01*
X205726303Y-114524989D01*
X205577252Y-114386690D01*
X205545973Y-114365365D01*
X205362780Y-114277144D01*
X205326606Y-114265986D01*
X205125548Y-114235681D01*
X205106619Y-114234262D01*
X200893381Y-114234262D01*
X200869770Y-114236476D01*
X200620564Y-114283628D01*
X200580675Y-114298429D01*
X200501682Y-114344036D01*
X200362780Y-114277144D01*
X200326606Y-114265986D01*
X200125548Y-114235681D01*
X200106619Y-114234262D01*
X195893381Y-114234262D01*
X195869770Y-114236476D01*
X195620564Y-114283628D01*
X195580675Y-114298429D01*
X195501682Y-114344036D01*
X195362780Y-114277144D01*
X195326606Y-114265986D01*
X195125548Y-114235681D01*
X195106619Y-114234262D01*
X190893381Y-114234262D01*
X190869770Y-114236476D01*
X190620564Y-114283628D01*
X190580675Y-114298429D01*
X190501682Y-114344036D01*
X190362780Y-114277144D01*
X190326606Y-114265986D01*
X190125548Y-114235681D01*
X190106619Y-114234262D01*
X185893381Y-114234262D01*
X185869770Y-114236476D01*
X185620564Y-114283628D01*
X185580675Y-114298429D01*
X185501682Y-114344036D01*
X185362780Y-114277144D01*
X185326606Y-114265986D01*
X185125548Y-114235681D01*
X185106619Y-114234262D01*
X180893381Y-114234262D01*
X180869770Y-114236476D01*
X180620564Y-114283628D01*
X180580675Y-114298429D01*
X180501682Y-114344036D01*
X180362780Y-114277144D01*
X180326606Y-114265986D01*
X180125548Y-114235681D01*
X180106619Y-114234262D01*
X175893381Y-114234262D01*
X175869770Y-114236476D01*
X175620564Y-114283628D01*
X175580675Y-114298429D01*
X175501682Y-114344036D01*
X175362780Y-114277144D01*
X175326606Y-114265986D01*
X175125548Y-114235681D01*
X175106619Y-114234262D01*
X170893381Y-114234262D01*
X170869770Y-114236476D01*
X170620564Y-114283628D01*
X170580675Y-114298429D01*
X170501682Y-114344036D01*
X170362780Y-114277144D01*
X170326606Y-114265986D01*
X170125548Y-114235681D01*
X170106619Y-114234262D01*
X165893381Y-114234262D01*
X165869770Y-114236476D01*
X165620564Y-114283628D01*
X165580675Y-114298429D01*
X165501682Y-114344036D01*
X165362780Y-114277144D01*
X165326606Y-114265986D01*
X165125548Y-114235681D01*
X165106619Y-114234262D01*
X160893381Y-114234262D01*
X160869770Y-114236476D01*
X160620564Y-114283628D01*
X160580675Y-114298429D01*
X160501682Y-114344036D01*
X160362780Y-114277144D01*
X160326606Y-114265986D01*
X160125548Y-114235681D01*
X160106619Y-114234262D01*
X155893381Y-114234262D01*
X155869770Y-114236476D01*
X155620564Y-114283628D01*
X155580675Y-114298429D01*
X155404587Y-114400094D01*
X155374989Y-114423697D01*
X155290272Y-114515000D01*
X153402155Y-114515000D01*
X153402143Y-114515001D01*
X153353702Y-114515001D01*
X153314457Y-114521217D01*
X153277886Y-114533100D01*
X153239908Y-114539115D01*
X153202120Y-114551393D01*
X153167859Y-114568850D01*
X153131287Y-114580733D01*
X153095885Y-114598771D01*
X153064779Y-114621371D01*
X153030515Y-114638829D01*
X152998369Y-114662184D01*
X152964115Y-114696438D01*
X152964107Y-114696445D01*
X152170553Y-115490000D01*
X151534288Y-115490000D01*
X151433017Y-115332420D01*
X151409345Y-115305102D01*
X151289373Y-115201145D01*
X151317580Y-115183017D01*
X151344898Y-115159345D01*
X151487637Y-114994616D01*
X151507180Y-114964207D01*
X151597727Y-114765937D01*
X151607911Y-114731253D01*
X151638931Y-114515504D01*
X151640224Y-114497430D01*
X151640224Y-113852570D01*
X151637322Y-113825574D01*
X151568119Y-113507452D01*
X151550860Y-113465786D01*
X151433017Y-113282420D01*
X151409345Y-113255102D01*
X151244616Y-113112363D01*
X151214207Y-113092820D01*
X151035000Y-113010979D01*
X151035000Y-112842837D01*
X152425000Y-112842837D01*
X152457870Y-112838510D01*
X152715789Y-112769401D01*
X152764553Y-112744016D01*
X152901788Y-112628862D01*
X152930139Y-112595074D01*
X153019713Y-112439927D01*
X153034799Y-112398480D01*
X153065908Y-112222053D01*
X153067837Y-112200000D01*
X153067837Y-111750000D01*
X153063510Y-111717130D01*
X153049528Y-111664949D01*
X153065908Y-111572053D01*
X153067837Y-111550000D01*
X153067837Y-111410000D01*
X154072845Y-111410000D01*
X154072857Y-111409999D01*
X154121297Y-111409999D01*
X154160543Y-111403783D01*
X154197115Y-111391900D01*
X154235091Y-111385885D01*
X154272880Y-111373607D01*
X154307143Y-111356149D01*
X154343712Y-111344267D01*
X154379114Y-111326228D01*
X154410216Y-111303631D01*
X154444484Y-111286171D01*
X154476631Y-111262816D01*
X154612816Y-111126631D01*
X154711836Y-111027611D01*
X155095441Y-111027611D01*
X155133628Y-111229436D01*
X155148429Y-111269325D01*
X155250094Y-111445413D01*
X155273697Y-111475011D01*
X155422748Y-111613310D01*
X155454027Y-111634635D01*
X155637220Y-111722856D01*
X155673394Y-111734014D01*
X155874452Y-111764319D01*
X155893381Y-111765738D01*
X157746000Y-111765738D01*
X157814661Y-111745577D01*
X157861523Y-111691496D01*
X157873000Y-111638738D01*
X157873000Y-111004000D01*
X157852839Y-110935339D01*
X157798758Y-110888477D01*
X157746000Y-110877000D01*
X155220227Y-110877000D01*
X155151566Y-110897161D01*
X155104704Y-110951242D01*
X155095441Y-111027611D01*
X154711836Y-111027611D01*
X155143516Y-110595932D01*
X155149018Y-110602370D01*
X155218404Y-110623000D01*
X157746000Y-110623000D01*
X157814661Y-110602839D01*
X157861523Y-110548758D01*
X157873000Y-110496000D01*
X157873000Y-109861262D01*
X158127000Y-109861262D01*
X158127000Y-111638738D01*
X158147161Y-111707399D01*
X158201242Y-111754261D01*
X158254000Y-111765738D01*
X160106619Y-111765738D01*
X160130230Y-111763524D01*
X160379436Y-111716372D01*
X160419325Y-111701571D01*
X160498318Y-111655964D01*
X160637220Y-111722856D01*
X160673394Y-111734014D01*
X160874452Y-111764319D01*
X160893381Y-111765738D01*
X162746000Y-111765738D01*
X162814661Y-111745577D01*
X162861523Y-111691496D01*
X162873000Y-111638738D01*
X162873000Y-109861262D01*
X163127000Y-109861262D01*
X163127000Y-111638738D01*
X163147161Y-111707399D01*
X163201242Y-111754261D01*
X163254000Y-111765738D01*
X165106619Y-111765738D01*
X165130230Y-111763524D01*
X165379436Y-111716372D01*
X165419325Y-111701571D01*
X165498318Y-111655964D01*
X165637220Y-111722856D01*
X165673394Y-111734014D01*
X165874452Y-111764319D01*
X165893381Y-111765738D01*
X167746000Y-111765738D01*
X167814661Y-111745577D01*
X167861523Y-111691496D01*
X167873000Y-111638738D01*
X167873000Y-109861262D01*
X168127000Y-109861262D01*
X168127000Y-111638738D01*
X168147161Y-111707399D01*
X168201242Y-111754261D01*
X168254000Y-111765738D01*
X170106619Y-111765738D01*
X170130230Y-111763524D01*
X170379436Y-111716372D01*
X170419325Y-111701571D01*
X170498318Y-111655964D01*
X170637220Y-111722856D01*
X170673394Y-111734014D01*
X170874452Y-111764319D01*
X170893381Y-111765738D01*
X172746000Y-111765738D01*
X172814661Y-111745577D01*
X172861523Y-111691496D01*
X172873000Y-111638738D01*
X172873000Y-109861262D01*
X173127000Y-109861262D01*
X173127000Y-111638738D01*
X173147161Y-111707399D01*
X173201242Y-111754261D01*
X173254000Y-111765738D01*
X175106619Y-111765738D01*
X175130230Y-111763524D01*
X175379436Y-111716372D01*
X175419325Y-111701571D01*
X175498318Y-111655964D01*
X175637220Y-111722856D01*
X175673394Y-111734014D01*
X175874452Y-111764319D01*
X175893381Y-111765738D01*
X177746000Y-111765738D01*
X177814661Y-111745577D01*
X177861523Y-111691496D01*
X177873000Y-111638738D01*
X177873000Y-109861262D01*
X178127000Y-109861262D01*
X178127000Y-111638738D01*
X178147161Y-111707399D01*
X178201242Y-111754261D01*
X178254000Y-111765738D01*
X180106619Y-111765738D01*
X180130230Y-111763524D01*
X180379436Y-111716372D01*
X180419325Y-111701571D01*
X180498318Y-111655964D01*
X180637220Y-111722856D01*
X180673394Y-111734014D01*
X180874452Y-111764319D01*
X180893381Y-111765738D01*
X182746000Y-111765738D01*
X182814661Y-111745577D01*
X182861523Y-111691496D01*
X182873000Y-111638738D01*
X182873000Y-109861262D01*
X183127000Y-109861262D01*
X183127000Y-111638738D01*
X183147161Y-111707399D01*
X183201242Y-111754261D01*
X183254000Y-111765738D01*
X185106619Y-111765738D01*
X185130230Y-111763524D01*
X185379436Y-111716372D01*
X185419325Y-111701571D01*
X185498318Y-111655964D01*
X185637220Y-111722856D01*
X185673394Y-111734014D01*
X185874452Y-111764319D01*
X185893381Y-111765738D01*
X187746000Y-111765738D01*
X187814661Y-111745577D01*
X187861523Y-111691496D01*
X187873000Y-111638738D01*
X187873000Y-109861262D01*
X188127000Y-109861262D01*
X188127000Y-111638738D01*
X188147161Y-111707399D01*
X188201242Y-111754261D01*
X188254000Y-111765738D01*
X190106619Y-111765738D01*
X190130230Y-111763524D01*
X190379436Y-111716372D01*
X190419325Y-111701571D01*
X190498318Y-111655964D01*
X190637220Y-111722856D01*
X190673394Y-111734014D01*
X190874452Y-111764319D01*
X190893381Y-111765738D01*
X192746000Y-111765738D01*
X192814661Y-111745577D01*
X192861523Y-111691496D01*
X192873000Y-111638738D01*
X192873000Y-109861262D01*
X193127000Y-109861262D01*
X193127000Y-111638738D01*
X193147161Y-111707399D01*
X193201242Y-111754261D01*
X193254000Y-111765738D01*
X195106619Y-111765738D01*
X195130230Y-111763524D01*
X195379436Y-111716372D01*
X195419325Y-111701571D01*
X195498318Y-111655964D01*
X195637220Y-111722856D01*
X195673394Y-111734014D01*
X195874452Y-111764319D01*
X195893381Y-111765738D01*
X197746000Y-111765738D01*
X197814661Y-111745577D01*
X197861523Y-111691496D01*
X197873000Y-111638738D01*
X197873000Y-109861262D01*
X198127000Y-109861262D01*
X198127000Y-111638738D01*
X198147161Y-111707399D01*
X198201242Y-111754261D01*
X198254000Y-111765738D01*
X200106619Y-111765738D01*
X200130230Y-111763524D01*
X200379436Y-111716372D01*
X200419325Y-111701571D01*
X200498318Y-111655964D01*
X200637220Y-111722856D01*
X200673394Y-111734014D01*
X200874452Y-111764319D01*
X200893381Y-111765738D01*
X202746000Y-111765738D01*
X202814661Y-111745577D01*
X202861523Y-111691496D01*
X202873000Y-111638738D01*
X202873000Y-111004000D01*
X203127000Y-111004000D01*
X203127000Y-111638738D01*
X203147161Y-111707399D01*
X203201242Y-111754261D01*
X203254000Y-111765738D01*
X205106619Y-111765738D01*
X205130230Y-111763524D01*
X205379436Y-111716372D01*
X205419325Y-111701571D01*
X205595413Y-111599906D01*
X205625011Y-111576303D01*
X205763310Y-111427252D01*
X205784635Y-111395973D01*
X205872856Y-111212780D01*
X205884015Y-111176605D01*
X205907178Y-111022928D01*
X205897475Y-110952029D01*
X205850982Y-110897630D01*
X205781596Y-110877000D01*
X203254000Y-110877000D01*
X203185339Y-110897161D01*
X203138477Y-110951242D01*
X203127000Y-111004000D01*
X202873000Y-111004000D01*
X202873000Y-109861262D01*
X203127000Y-109861262D01*
X203127000Y-110496000D01*
X203147161Y-110564661D01*
X203201242Y-110611523D01*
X203254000Y-110623000D01*
X205779773Y-110623000D01*
X205848434Y-110602839D01*
X205895296Y-110548758D01*
X205904559Y-110472389D01*
X205866372Y-110270564D01*
X205851571Y-110230675D01*
X205749906Y-110054587D01*
X205726303Y-110024989D01*
X205577252Y-109886690D01*
X205545973Y-109865365D01*
X205362780Y-109777144D01*
X205326606Y-109765986D01*
X205125548Y-109735681D01*
X205106619Y-109734262D01*
X203254000Y-109734262D01*
X203185339Y-109754423D01*
X203138477Y-109808504D01*
X203127000Y-109861262D01*
X202873000Y-109861262D01*
X202852839Y-109792601D01*
X202798758Y-109745739D01*
X202746000Y-109734262D01*
X200893381Y-109734262D01*
X200869770Y-109736476D01*
X200620564Y-109783628D01*
X200580675Y-109798429D01*
X200501682Y-109844036D01*
X200362780Y-109777144D01*
X200326606Y-109765986D01*
X200125548Y-109735681D01*
X200106619Y-109734262D01*
X198254000Y-109734262D01*
X198185339Y-109754423D01*
X198138477Y-109808504D01*
X198127000Y-109861262D01*
X197873000Y-109861262D01*
X197852839Y-109792601D01*
X197798758Y-109745739D01*
X197746000Y-109734262D01*
X195893381Y-109734262D01*
X195869770Y-109736476D01*
X195620564Y-109783628D01*
X195580675Y-109798429D01*
X195501682Y-109844036D01*
X195362780Y-109777144D01*
X195326606Y-109765986D01*
X195125548Y-109735681D01*
X195106619Y-109734262D01*
X193254000Y-109734262D01*
X193185339Y-109754423D01*
X193138477Y-109808504D01*
X193127000Y-109861262D01*
X192873000Y-109861262D01*
X192852839Y-109792601D01*
X192798758Y-109745739D01*
X192746000Y-109734262D01*
X190893381Y-109734262D01*
X190869770Y-109736476D01*
X190620564Y-109783628D01*
X190580675Y-109798429D01*
X190501682Y-109844036D01*
X190362780Y-109777144D01*
X190326606Y-109765986D01*
X190125548Y-109735681D01*
X190106619Y-109734262D01*
X188254000Y-109734262D01*
X188185339Y-109754423D01*
X188138477Y-109808504D01*
X188127000Y-109861262D01*
X187873000Y-109861262D01*
X187852839Y-109792601D01*
X187798758Y-109745739D01*
X187746000Y-109734262D01*
X185893381Y-109734262D01*
X185869770Y-109736476D01*
X185620564Y-109783628D01*
X185580675Y-109798429D01*
X185501682Y-109844036D01*
X185362780Y-109777144D01*
X185326606Y-109765986D01*
X185125548Y-109735681D01*
X185106619Y-109734262D01*
X183254000Y-109734262D01*
X183185339Y-109754423D01*
X183138477Y-109808504D01*
X183127000Y-109861262D01*
X182873000Y-109861262D01*
X182852839Y-109792601D01*
X182798758Y-109745739D01*
X182746000Y-109734262D01*
X180893381Y-109734262D01*
X180869770Y-109736476D01*
X180620564Y-109783628D01*
X180580675Y-109798429D01*
X180501682Y-109844036D01*
X180362780Y-109777144D01*
X180326606Y-109765986D01*
X180125548Y-109735681D01*
X180106619Y-109734262D01*
X178254000Y-109734262D01*
X178185339Y-109754423D01*
X178138477Y-109808504D01*
X178127000Y-109861262D01*
X177873000Y-109861262D01*
X177852839Y-109792601D01*
X177798758Y-109745739D01*
X177746000Y-109734262D01*
X175893381Y-109734262D01*
X175869770Y-109736476D01*
X175620564Y-109783628D01*
X175580675Y-109798429D01*
X175501682Y-109844036D01*
X175362780Y-109777144D01*
X175326606Y-109765986D01*
X175125548Y-109735681D01*
X175106619Y-109734262D01*
X173254000Y-109734262D01*
X173185339Y-109754423D01*
X173138477Y-109808504D01*
X173127000Y-109861262D01*
X172873000Y-109861262D01*
X172852839Y-109792601D01*
X172798758Y-109745739D01*
X172746000Y-109734262D01*
X170893381Y-109734262D01*
X170869770Y-109736476D01*
X170620564Y-109783628D01*
X170580675Y-109798429D01*
X170501682Y-109844036D01*
X170362780Y-109777144D01*
X170326606Y-109765986D01*
X170125548Y-109735681D01*
X170106619Y-109734262D01*
X168254000Y-109734262D01*
X168185339Y-109754423D01*
X168138477Y-109808504D01*
X168127000Y-109861262D01*
X167873000Y-109861262D01*
X167852839Y-109792601D01*
X167798758Y-109745739D01*
X167746000Y-109734262D01*
X165893381Y-109734262D01*
X165869770Y-109736476D01*
X165620564Y-109783628D01*
X165580675Y-109798429D01*
X165501682Y-109844036D01*
X165362780Y-109777144D01*
X165326606Y-109765986D01*
X165125548Y-109735681D01*
X165106619Y-109734262D01*
X163254000Y-109734262D01*
X163185339Y-109754423D01*
X163138477Y-109808504D01*
X163127000Y-109861262D01*
X162873000Y-109861262D01*
X162852839Y-109792601D01*
X162798758Y-109745739D01*
X162746000Y-109734262D01*
X160893381Y-109734262D01*
X160869770Y-109736476D01*
X160620564Y-109783628D01*
X160580675Y-109798429D01*
X160501682Y-109844036D01*
X160362780Y-109777144D01*
X160326606Y-109765986D01*
X160125548Y-109735681D01*
X160106619Y-109734262D01*
X158254000Y-109734262D01*
X158185339Y-109754423D01*
X158138477Y-109808504D01*
X158127000Y-109861262D01*
X157873000Y-109861262D01*
X157852839Y-109792601D01*
X157798758Y-109745739D01*
X157746000Y-109734262D01*
X155893381Y-109734262D01*
X155869770Y-109736476D01*
X155620564Y-109783628D01*
X155580675Y-109798429D01*
X155404587Y-109900094D01*
X155374989Y-109923697D01*
X155347500Y-109953323D01*
X155347500Y-109258357D01*
X155417547Y-109243119D01*
X155459214Y-109225860D01*
X155642580Y-109108017D01*
X155669898Y-109084345D01*
X155812637Y-108919616D01*
X155832180Y-108889207D01*
X155922727Y-108690936D01*
X155932911Y-108656252D01*
X155963931Y-108440503D01*
X155965224Y-108422429D01*
X155965224Y-108054000D01*
X156234776Y-108054000D01*
X156234776Y-108422429D01*
X156237678Y-108449425D01*
X156306881Y-108767548D01*
X156324140Y-108809214D01*
X156441983Y-108992580D01*
X156465655Y-109019898D01*
X156630384Y-109162637D01*
X156660793Y-109182180D01*
X156859064Y-109272727D01*
X156893748Y-109282911D01*
X157109497Y-109313931D01*
X157127571Y-109315224D01*
X157333500Y-109315224D01*
X157402161Y-109295063D01*
X157449023Y-109240982D01*
X157460500Y-109188224D01*
X157460500Y-108054000D01*
X157714500Y-108054000D01*
X157714500Y-109188224D01*
X157734661Y-109256885D01*
X157788742Y-109303747D01*
X157841500Y-109315224D01*
X158047429Y-109315224D01*
X158074425Y-109312322D01*
X158392548Y-109243119D01*
X158434214Y-109225860D01*
X158617580Y-109108017D01*
X158644898Y-109084345D01*
X158787637Y-108919616D01*
X158807180Y-108889207D01*
X158897727Y-108690936D01*
X158907911Y-108656252D01*
X158938931Y-108440503D01*
X158940224Y-108422429D01*
X158940224Y-108054000D01*
X158920063Y-107985339D01*
X158865982Y-107938477D01*
X158813224Y-107927000D01*
X157841500Y-107927000D01*
X157772839Y-107947161D01*
X157725977Y-108001242D01*
X157714500Y-108054000D01*
X157460500Y-108054000D01*
X157440339Y-107985339D01*
X157386258Y-107938477D01*
X157333500Y-107927000D01*
X156361776Y-107927000D01*
X156293115Y-107947161D01*
X156246253Y-108001242D01*
X156234776Y-108054000D01*
X155965224Y-108054000D01*
X155965224Y-107177571D01*
X156234776Y-107177571D01*
X156234776Y-107546000D01*
X156254937Y-107614661D01*
X156309018Y-107661523D01*
X156361776Y-107673000D01*
X157333500Y-107673000D01*
X157402161Y-107652839D01*
X157449023Y-107598758D01*
X157460500Y-107546000D01*
X157460500Y-106411776D01*
X157714500Y-106411776D01*
X157714500Y-107546000D01*
X157734661Y-107614661D01*
X157788742Y-107661523D01*
X157841500Y-107673000D01*
X158813224Y-107673000D01*
X158881885Y-107652839D01*
X158928747Y-107598758D01*
X158940224Y-107546000D01*
X158940224Y-107177571D01*
X158937322Y-107150575D01*
X158868119Y-106832452D01*
X158850860Y-106790786D01*
X158733017Y-106607420D01*
X158709345Y-106580102D01*
X158544616Y-106437363D01*
X158514207Y-106417820D01*
X158315936Y-106327273D01*
X158281252Y-106317089D01*
X158065503Y-106286069D01*
X158047429Y-106284776D01*
X157841500Y-106284776D01*
X157772839Y-106304937D01*
X157725977Y-106359018D01*
X157714500Y-106411776D01*
X157460500Y-106411776D01*
X157440339Y-106343115D01*
X157386258Y-106296253D01*
X157333500Y-106284776D01*
X157127571Y-106284776D01*
X157100575Y-106287678D01*
X156782452Y-106356881D01*
X156740786Y-106374140D01*
X156557420Y-106491983D01*
X156530102Y-106515655D01*
X156387363Y-106680384D01*
X156367820Y-106710793D01*
X156277273Y-106909064D01*
X156267089Y-106943748D01*
X156236069Y-107159497D01*
X156234776Y-107177571D01*
X155965224Y-107177571D01*
X155962322Y-107150575D01*
X155893119Y-106832452D01*
X155875860Y-106790786D01*
X155758017Y-106607420D01*
X155734345Y-106580102D01*
X155569616Y-106437363D01*
X155539207Y-106417820D01*
X155340936Y-106327273D01*
X155306252Y-106317089D01*
X155090503Y-106286069D01*
X155072429Y-106284776D01*
X154152571Y-106284776D01*
X154125575Y-106287678D01*
X153807452Y-106356881D01*
X153765786Y-106374140D01*
X153582420Y-106491983D01*
X153555102Y-106515655D01*
X153412363Y-106680384D01*
X153392820Y-106710793D01*
X153302273Y-106909064D01*
X153292089Y-106943748D01*
X153274656Y-107065000D01*
X145352155Y-107065000D01*
X145352143Y-107065001D01*
X145303702Y-107065001D01*
X145264457Y-107071217D01*
X145227886Y-107083100D01*
X145189908Y-107089115D01*
X145152120Y-107101393D01*
X145117859Y-107118850D01*
X145081287Y-107130733D01*
X145045885Y-107148771D01*
X145014779Y-107171371D01*
X144980515Y-107188829D01*
X144948369Y-107212184D01*
X144914115Y-107246438D01*
X144914107Y-107246445D01*
X144092837Y-108067716D01*
X144092837Y-108050000D01*
X144088510Y-108017130D01*
X144019401Y-107759212D01*
X143994016Y-107710448D01*
X143878862Y-107573212D01*
X143845074Y-107544861D01*
X143689927Y-107455287D01*
X143648480Y-107440201D01*
X143472053Y-107409092D01*
X143450000Y-107407163D01*
X141750000Y-107407163D01*
X141717130Y-107411490D01*
X141459212Y-107480599D01*
X141410448Y-107505984D01*
X141273212Y-107621138D01*
X141244861Y-107654926D01*
X141155287Y-107810073D01*
X141140201Y-107851520D01*
X141109092Y-108027947D01*
X141107163Y-108050000D01*
X140635000Y-108050000D01*
X140635000Y-105635000D01*
X209365001Y-105635000D01*
X209365000Y-119365000D01*
X209365000Y-119365000D01*
G37*
X209365000Y-119365000D02*
X140635000Y-119365000D01*
X140635000Y-116800079D01*
X141141401Y-116800079D01*
X141170282Y-116937725D01*
X141176453Y-116958295D01*
X141261104Y-117172646D01*
X141270652Y-117191881D01*
X141390209Y-117388905D01*
X141402862Y-117406257D01*
X141553906Y-117580320D01*
X141569302Y-117595292D01*
X141747515Y-117741417D01*
X141765213Y-117753580D01*
X141965498Y-117867589D01*
X141984993Y-117876597D01*
X142201624Y-117955230D01*
X142228269Y-117961750D01*
X142329313Y-117975143D01*
X142400028Y-117964179D01*
X142453589Y-117916724D01*
X142473000Y-117849244D01*
X142473000Y-116774000D01*
X142727000Y-116774000D01*
X142727000Y-117857100D01*
X142747161Y-117925761D01*
X142801242Y-117972623D01*
X142885905Y-117980027D01*
X143084610Y-117928454D01*
X143104866Y-117921321D01*
X143314992Y-117826666D01*
X143333757Y-117816222D01*
X143524930Y-117687517D01*
X143541666Y-117674060D01*
X143708420Y-117514984D01*
X143722650Y-117498901D01*
X143860218Y-117314003D01*
X143871534Y-117295751D01*
X143975982Y-117090317D01*
X143984062Y-117070420D01*
X144052403Y-116850326D01*
X144057014Y-116829353D01*
X144062139Y-116790688D01*
X144051175Y-116719973D01*
X144003720Y-116666411D01*
X143936240Y-116647000D01*
X142854000Y-116647000D01*
X142785339Y-116667161D01*
X142738477Y-116721242D01*
X142727000Y-116774000D01*
X142473000Y-116774000D01*
X142452839Y-116705339D01*
X142398758Y-116658477D01*
X142346000Y-116647000D01*
X141265694Y-116647000D01*
X141197033Y-116667161D01*
X141150171Y-116721242D01*
X141141401Y-116800079D01*
X140635000Y-116800079D01*
X140635000Y-108050000D01*
X141107163Y-108050000D01*
X141107163Y-109750000D01*
X141111490Y-109782870D01*
X141180599Y-110040789D01*
X141205984Y-110089553D01*
X141321138Y-110226788D01*
X141354926Y-110255139D01*
X141510073Y-110344713D01*
X141551520Y-110359799D01*
X141576325Y-110364173D01*
X141491580Y-110445016D01*
X141477350Y-110461099D01*
X141339782Y-110645997D01*
X141328466Y-110664249D01*
X141224018Y-110869683D01*
X141215938Y-110889580D01*
X141147597Y-111109674D01*
X141142986Y-111130648D01*
X141112705Y-111359111D01*
X141111693Y-111380563D01*
X141120339Y-111610862D01*
X141122957Y-111632176D01*
X141170282Y-111857725D01*
X141176453Y-111878295D01*
X141261104Y-112092646D01*
X141270652Y-112111881D01*
X141390209Y-112308905D01*
X141402862Y-112326257D01*
X141553906Y-112500320D01*
X141569302Y-112515292D01*
X141747515Y-112661417D01*
X141765213Y-112673580D01*
X141828164Y-112709414D01*
X141675070Y-112812483D01*
X141658334Y-112825940D01*
X141491580Y-112985016D01*
X141477350Y-113001099D01*
X141339782Y-113185997D01*
X141328466Y-113204249D01*
X141224018Y-113409683D01*
X141215938Y-113429580D01*
X141147597Y-113649674D01*
X141142986Y-113670648D01*
X141112705Y-113899111D01*
X141111693Y-113920563D01*
X141120339Y-114150862D01*
X141122957Y-114172176D01*
X141170282Y-114397725D01*
X141176453Y-114418295D01*
X141261104Y-114632646D01*
X141270652Y-114651881D01*
X141390209Y-114848905D01*
X141402862Y-114866257D01*
X141553906Y-115040320D01*
X141569302Y-115055292D01*
X141747515Y-115201417D01*
X141765213Y-115213580D01*
X141828164Y-115249414D01*
X141675070Y-115352483D01*
X141658334Y-115365940D01*
X141491580Y-115525016D01*
X141477350Y-115541099D01*
X141339782Y-115725997D01*
X141328466Y-115744249D01*
X141224018Y-115949683D01*
X141215938Y-115969580D01*
X141147597Y-116189674D01*
X141142986Y-116210647D01*
X141137861Y-116249312D01*
X141148825Y-116320027D01*
X141196280Y-116373589D01*
X141263760Y-116393000D01*
X143934306Y-116393000D01*
X144002967Y-116372839D01*
X144049829Y-116318758D01*
X144058599Y-116239921D01*
X144029718Y-116102275D01*
X144023547Y-116081705D01*
X143938896Y-115867354D01*
X143929348Y-115848119D01*
X143809791Y-115651095D01*
X143797138Y-115633743D01*
X143646094Y-115459680D01*
X143630698Y-115444708D01*
X143452485Y-115298583D01*
X143434787Y-115286420D01*
X143371836Y-115250586D01*
X143524930Y-115147517D01*
X143541666Y-115134060D01*
X143708420Y-114974984D01*
X143722650Y-114958901D01*
X143860218Y-114774003D01*
X143871534Y-114755751D01*
X143975982Y-114550317D01*
X143984062Y-114530420D01*
X144052403Y-114310326D01*
X144057014Y-114289352D01*
X144087295Y-114060889D01*
X144088307Y-114039437D01*
X144079661Y-113809138D01*
X144077043Y-113787824D01*
X144029718Y-113562275D01*
X144023547Y-113541705D01*
X143938896Y-113327354D01*
X143929348Y-113308119D01*
X143809791Y-113111095D01*
X143797138Y-113093743D01*
X143646094Y-112919680D01*
X143630698Y-112904708D01*
X143452485Y-112758583D01*
X143434787Y-112746420D01*
X143371836Y-112710586D01*
X143524930Y-112607517D01*
X143541666Y-112594060D01*
X143708420Y-112434984D01*
X143722650Y-112418901D01*
X143860218Y-112234003D01*
X143871534Y-112215751D01*
X143892253Y-112175000D01*
X144307845Y-112175000D01*
X144307857Y-112174999D01*
X144356297Y-112174999D01*
X144395543Y-112168783D01*
X144432115Y-112156900D01*
X144470091Y-112150885D01*
X144507880Y-112138607D01*
X144542143Y-112121149D01*
X144578712Y-112109267D01*
X144614114Y-112091228D01*
X144645216Y-112068631D01*
X144679484Y-112051171D01*
X144711631Y-112027816D01*
X145087816Y-111651631D01*
X145111171Y-111619484D01*
X145128631Y-111585216D01*
X145151228Y-111554114D01*
X145169267Y-111518712D01*
X145181149Y-111482143D01*
X145198607Y-111447880D01*
X145210885Y-111410092D01*
X145216900Y-111372115D01*
X145228783Y-111335544D01*
X145234999Y-111296298D01*
X145234999Y-111247857D01*
X145235000Y-111247845D01*
X145235000Y-109676210D01*
X145876211Y-109035000D01*
X149395554Y-109035000D01*
X149565001Y-109204448D01*
X149565000Y-110947844D01*
X149565001Y-110947856D01*
X149565001Y-110996297D01*
X149571217Y-111035542D01*
X149583100Y-111072113D01*
X149589115Y-111110091D01*
X149601393Y-111147879D01*
X149618850Y-111182140D01*
X149630733Y-111218712D01*
X149648771Y-111254114D01*
X149671371Y-111285220D01*
X149688829Y-111319484D01*
X149692837Y-111325000D01*
X149688829Y-111330516D01*
X149671371Y-111364780D01*
X149648771Y-111395886D01*
X149630733Y-111431288D01*
X149618850Y-111467860D01*
X149601393Y-111502121D01*
X149589115Y-111539909D01*
X149583100Y-111577887D01*
X149571217Y-111614458D01*
X149565001Y-111653703D01*
X149565001Y-111702144D01*
X149565000Y-111702156D01*
X149565001Y-113019362D01*
X149507453Y-113031881D01*
X149465786Y-113049140D01*
X149296907Y-113157673D01*
X149244617Y-113112363D01*
X149214207Y-113092820D01*
X149015937Y-113002273D01*
X148981253Y-112992089D01*
X148765504Y-112961069D01*
X148747430Y-112959776D01*
X147852570Y-112959776D01*
X147825574Y-112962678D01*
X147507452Y-113031881D01*
X147465786Y-113049140D01*
X147282420Y-113166983D01*
X147255102Y-113190655D01*
X147112363Y-113355384D01*
X147092820Y-113385793D01*
X147002273Y-113584063D01*
X146992089Y-113618747D01*
X146961069Y-113834496D01*
X146959776Y-113852570D01*
X146959776Y-114497430D01*
X146962678Y-114524426D01*
X147031881Y-114842548D01*
X147049140Y-114884214D01*
X147166983Y-115067580D01*
X147190655Y-115094898D01*
X147310627Y-115198855D01*
X147282420Y-115216983D01*
X147255102Y-115240655D01*
X147112363Y-115405384D01*
X147092820Y-115435793D01*
X147068064Y-115490000D01*
X146835000Y-115490000D01*
X146835000Y-112842837D01*
X147046000Y-112842837D01*
X147114661Y-112822676D01*
X147161523Y-112768595D01*
X147173000Y-112715837D01*
X147173000Y-112192837D01*
X147434867Y-112192837D01*
X147427000Y-112229000D01*
X147427000Y-112715837D01*
X147447161Y-112784498D01*
X147501242Y-112831360D01*
X147554000Y-112842837D01*
X148025000Y-112842837D01*
X148057870Y-112838510D01*
X148315789Y-112769401D01*
X148364553Y-112744016D01*
X148501788Y-112628862D01*
X148530139Y-112595074D01*
X148619713Y-112439927D01*
X148634799Y-112398480D01*
X148660794Y-112251053D01*
X148652862Y-112179934D01*
X148607739Y-112124393D01*
X148535723Y-112102000D01*
X148349216Y-112102000D01*
X148364553Y-112094016D01*
X148501788Y-111978862D01*
X148530139Y-111945074D01*
X148597028Y-111829219D01*
X148601727Y-111827839D01*
X148648589Y-111773758D01*
X148655739Y-111688131D01*
X148649528Y-111664950D01*
X148665908Y-111572053D01*
X148667837Y-111550000D01*
X148667837Y-111100000D01*
X148663510Y-111067130D01*
X148649528Y-111014948D01*
X148660794Y-110951053D01*
X148652862Y-110879934D01*
X148607739Y-110824393D01*
X148597625Y-110821248D01*
X148594400Y-110809211D01*
X148569016Y-110760448D01*
X148501065Y-110679467D01*
X148501788Y-110678861D01*
X148530139Y-110645074D01*
X148597028Y-110529219D01*
X148601727Y-110527839D01*
X148648589Y-110473758D01*
X148655739Y-110388131D01*
X148649528Y-110364950D01*
X148665908Y-110272053D01*
X148667837Y-110250000D01*
X148667837Y-109800000D01*
X148663510Y-109767130D01*
X148594401Y-109509212D01*
X148569016Y-109460448D01*
X148453862Y-109323212D01*
X148420074Y-109294861D01*
X148264927Y-109205287D01*
X148223480Y-109190201D01*
X148047053Y-109159092D01*
X148025000Y-109157163D01*
X146575000Y-109157163D01*
X146542130Y-109161490D01*
X146284212Y-109230599D01*
X146235448Y-109255984D01*
X146098212Y-109371138D01*
X146069861Y-109404926D01*
X145980287Y-109560073D01*
X145965201Y-109601520D01*
X145934092Y-109777947D01*
X145932163Y-109800000D01*
X145932163Y-110250000D01*
X145936490Y-110282870D01*
X145950472Y-110335052D01*
X145939206Y-110398947D01*
X145947138Y-110470066D01*
X145992261Y-110525607D01*
X146002374Y-110528751D01*
X146005599Y-110540789D01*
X146030984Y-110589553D01*
X146066456Y-110631827D01*
X146042857Y-110643851D01*
X146006288Y-110655733D01*
X145970886Y-110673772D01*
X145939784Y-110696369D01*
X145905516Y-110713829D01*
X145873369Y-110737184D01*
X145546445Y-111064108D01*
X145546443Y-111064111D01*
X145512184Y-111098370D01*
X145488829Y-111130516D01*
X145471371Y-111164780D01*
X145448771Y-111195886D01*
X145430733Y-111231288D01*
X145418850Y-111267860D01*
X145401393Y-111302121D01*
X145389115Y-111339909D01*
X145383100Y-111377887D01*
X145371217Y-111414458D01*
X145365001Y-111453703D01*
X145365001Y-111502144D01*
X145365000Y-111502156D01*
X145365001Y-116003703D01*
X145365001Y-116196297D01*
X145371217Y-116235543D01*
X145383102Y-116272121D01*
X145389116Y-116310091D01*
X145401393Y-116347879D01*
X145418849Y-116382139D01*
X145430733Y-116418713D01*
X145448772Y-116454115D01*
X145471374Y-116485223D01*
X145488830Y-116519484D01*
X145512185Y-116551631D01*
X145546442Y-116585888D01*
X145546445Y-116585892D01*
X145773369Y-116812816D01*
X145805516Y-116836171D01*
X145839784Y-116853631D01*
X145870886Y-116876228D01*
X145906288Y-116894267D01*
X145942857Y-116906149D01*
X145977120Y-116923607D01*
X146014908Y-116935885D01*
X146052885Y-116941900D01*
X146089456Y-116953783D01*
X146128702Y-116959999D01*
X146177143Y-116959999D01*
X146177155Y-116960000D01*
X147065712Y-116960000D01*
X147166983Y-117117580D01*
X147190655Y-117144898D01*
X147355384Y-117287637D01*
X147385793Y-117307180D01*
X147584063Y-117397727D01*
X147618747Y-117407911D01*
X147834496Y-117438931D01*
X147852570Y-117440224D01*
X148747430Y-117440224D01*
X148774426Y-117437322D01*
X149092548Y-117368119D01*
X149134214Y-117350860D01*
X149303093Y-117242327D01*
X149355383Y-117287637D01*
X149385793Y-117307180D01*
X149584063Y-117397727D01*
X149618747Y-117407911D01*
X149834496Y-117438931D01*
X149852570Y-117440224D01*
X150747430Y-117440224D01*
X150774426Y-117437322D01*
X151092548Y-117368119D01*
X151134214Y-117350860D01*
X151317580Y-117233017D01*
X151344898Y-117209345D01*
X151487637Y-117044616D01*
X151507180Y-117014207D01*
X151531936Y-116960000D01*
X152522845Y-116960000D01*
X152522857Y-116959999D01*
X152571297Y-116959999D01*
X152610543Y-116953783D01*
X152647115Y-116941900D01*
X152685091Y-116935885D01*
X152722880Y-116923607D01*
X152757143Y-116906149D01*
X152793712Y-116894267D01*
X152829114Y-116876228D01*
X152860216Y-116853631D01*
X152894484Y-116836171D01*
X152926631Y-116812816D01*
X153062816Y-116676631D01*
X153754448Y-115985000D01*
X155284463Y-115985000D01*
X155422748Y-116113310D01*
X155454027Y-116134635D01*
X155637220Y-116222856D01*
X155673394Y-116234014D01*
X155874452Y-116264319D01*
X155893381Y-116265738D01*
X160106619Y-116265738D01*
X160130230Y-116263524D01*
X160379436Y-116216372D01*
X160419325Y-116201571D01*
X160498318Y-116155964D01*
X160637220Y-116222856D01*
X160673394Y-116234014D01*
X160874452Y-116264319D01*
X160893381Y-116265738D01*
X165106619Y-116265738D01*
X165130230Y-116263524D01*
X165379436Y-116216372D01*
X165419325Y-116201571D01*
X165498318Y-116155964D01*
X165637220Y-116222856D01*
X165673394Y-116234014D01*
X165874452Y-116264319D01*
X165893381Y-116265738D01*
X170106619Y-116265738D01*
X170130230Y-116263524D01*
X170379436Y-116216372D01*
X170419325Y-116201571D01*
X170498318Y-116155964D01*
X170637220Y-116222856D01*
X170673394Y-116234014D01*
X170874452Y-116264319D01*
X170893381Y-116265738D01*
X175106619Y-116265738D01*
X175130230Y-116263524D01*
X175379436Y-116216372D01*
X175419325Y-116201571D01*
X175498318Y-116155964D01*
X175637220Y-116222856D01*
X175673394Y-116234014D01*
X175874452Y-116264319D01*
X175893381Y-116265738D01*
X180106619Y-116265738D01*
X180130230Y-116263524D01*
X180379436Y-116216372D01*
X180419325Y-116201571D01*
X180498318Y-116155964D01*
X180637220Y-116222856D01*
X180673394Y-116234014D01*
X180874452Y-116264319D01*
X180893381Y-116265738D01*
X185106619Y-116265738D01*
X185130230Y-116263524D01*
X185379436Y-116216372D01*
X185419325Y-116201571D01*
X185498318Y-116155964D01*
X185637220Y-116222856D01*
X185673394Y-116234014D01*
X185874452Y-116264319D01*
X185893381Y-116265738D01*
X190106619Y-116265738D01*
X190130230Y-116263524D01*
X190379436Y-116216372D01*
X190419325Y-116201571D01*
X190498318Y-116155964D01*
X190637220Y-116222856D01*
X190673394Y-116234014D01*
X190874452Y-116264319D01*
X190893381Y-116265738D01*
X195106619Y-116265738D01*
X195130230Y-116263524D01*
X195379436Y-116216372D01*
X195419325Y-116201571D01*
X195498318Y-116155964D01*
X195637220Y-116222856D01*
X195673394Y-116234014D01*
X195874452Y-116264319D01*
X195893381Y-116265738D01*
X200106619Y-116265738D01*
X200130230Y-116263524D01*
X200379436Y-116216372D01*
X200419325Y-116201571D01*
X200498318Y-116155964D01*
X200637220Y-116222856D01*
X200673394Y-116234014D01*
X200874452Y-116264319D01*
X200893381Y-116265738D01*
X205106619Y-116265738D01*
X205130230Y-116263524D01*
X205379436Y-116216372D01*
X205419325Y-116201571D01*
X205595413Y-116099906D01*
X205625011Y-116076303D01*
X205763310Y-115927252D01*
X205784635Y-115895973D01*
X205872856Y-115712780D01*
X205884014Y-115676606D01*
X205914319Y-115475548D01*
X205915738Y-115456619D01*
X205915738Y-115043381D01*
X205913524Y-115019770D01*
X205866372Y-114770564D01*
X205851571Y-114730675D01*
X205749906Y-114554587D01*
X205726303Y-114524989D01*
X205577252Y-114386690D01*
X205545973Y-114365365D01*
X205362780Y-114277144D01*
X205326606Y-114265986D01*
X205125548Y-114235681D01*
X205106619Y-114234262D01*
X200893381Y-114234262D01*
X200869770Y-114236476D01*
X200620564Y-114283628D01*
X200580675Y-114298429D01*
X200501682Y-114344036D01*
X200362780Y-114277144D01*
X200326606Y-114265986D01*
X200125548Y-114235681D01*
X200106619Y-114234262D01*
X195893381Y-114234262D01*
X195869770Y-114236476D01*
X195620564Y-114283628D01*
X195580675Y-114298429D01*
X195501682Y-114344036D01*
X195362780Y-114277144D01*
X195326606Y-114265986D01*
X195125548Y-114235681D01*
X195106619Y-114234262D01*
X190893381Y-114234262D01*
X190869770Y-114236476D01*
X190620564Y-114283628D01*
X190580675Y-114298429D01*
X190501682Y-114344036D01*
X190362780Y-114277144D01*
X190326606Y-114265986D01*
X190125548Y-114235681D01*
X190106619Y-114234262D01*
X185893381Y-114234262D01*
X185869770Y-114236476D01*
X185620564Y-114283628D01*
X185580675Y-114298429D01*
X185501682Y-114344036D01*
X185362780Y-114277144D01*
X185326606Y-114265986D01*
X185125548Y-114235681D01*
X185106619Y-114234262D01*
X180893381Y-114234262D01*
X180869770Y-114236476D01*
X180620564Y-114283628D01*
X180580675Y-114298429D01*
X180501682Y-114344036D01*
X180362780Y-114277144D01*
X180326606Y-114265986D01*
X180125548Y-114235681D01*
X180106619Y-114234262D01*
X175893381Y-114234262D01*
X175869770Y-114236476D01*
X175620564Y-114283628D01*
X175580675Y-114298429D01*
X175501682Y-114344036D01*
X175362780Y-114277144D01*
X175326606Y-114265986D01*
X175125548Y-114235681D01*
X175106619Y-114234262D01*
X170893381Y-114234262D01*
X170869770Y-114236476D01*
X170620564Y-114283628D01*
X170580675Y-114298429D01*
X170501682Y-114344036D01*
X170362780Y-114277144D01*
X170326606Y-114265986D01*
X170125548Y-114235681D01*
X170106619Y-114234262D01*
X165893381Y-114234262D01*
X165869770Y-114236476D01*
X165620564Y-114283628D01*
X165580675Y-114298429D01*
X165501682Y-114344036D01*
X165362780Y-114277144D01*
X165326606Y-114265986D01*
X165125548Y-114235681D01*
X165106619Y-114234262D01*
X160893381Y-114234262D01*
X160869770Y-114236476D01*
X160620564Y-114283628D01*
X160580675Y-114298429D01*
X160501682Y-114344036D01*
X160362780Y-114277144D01*
X160326606Y-114265986D01*
X160125548Y-114235681D01*
X160106619Y-114234262D01*
X155893381Y-114234262D01*
X155869770Y-114236476D01*
X155620564Y-114283628D01*
X155580675Y-114298429D01*
X155404587Y-114400094D01*
X155374989Y-114423697D01*
X155290272Y-114515000D01*
X153402155Y-114515000D01*
X153402143Y-114515001D01*
X153353702Y-114515001D01*
X153314457Y-114521217D01*
X153277886Y-114533100D01*
X153239908Y-114539115D01*
X153202120Y-114551393D01*
X153167859Y-114568850D01*
X153131287Y-114580733D01*
X153095885Y-114598771D01*
X153064779Y-114621371D01*
X153030515Y-114638829D01*
X152998369Y-114662184D01*
X152964115Y-114696438D01*
X152964107Y-114696445D01*
X152170553Y-115490000D01*
X151534288Y-115490000D01*
X151433017Y-115332420D01*
X151409345Y-115305102D01*
X151289373Y-115201145D01*
X151317580Y-115183017D01*
X151344898Y-115159345D01*
X151487637Y-114994616D01*
X151507180Y-114964207D01*
X151597727Y-114765937D01*
X151607911Y-114731253D01*
X151638931Y-114515504D01*
X151640224Y-114497430D01*
X151640224Y-113852570D01*
X151637322Y-113825574D01*
X151568119Y-113507452D01*
X151550860Y-113465786D01*
X151433017Y-113282420D01*
X151409345Y-113255102D01*
X151244616Y-113112363D01*
X151214207Y-113092820D01*
X151035000Y-113010979D01*
X151035000Y-112842837D01*
X152425000Y-112842837D01*
X152457870Y-112838510D01*
X152715789Y-112769401D01*
X152764553Y-112744016D01*
X152901788Y-112628862D01*
X152930139Y-112595074D01*
X153019713Y-112439927D01*
X153034799Y-112398480D01*
X153065908Y-112222053D01*
X153067837Y-112200000D01*
X153067837Y-111750000D01*
X153063510Y-111717130D01*
X153049528Y-111664949D01*
X153065908Y-111572053D01*
X153067837Y-111550000D01*
X153067837Y-111410000D01*
X154072845Y-111410000D01*
X154072857Y-111409999D01*
X154121297Y-111409999D01*
X154160543Y-111403783D01*
X154197115Y-111391900D01*
X154235091Y-111385885D01*
X154272880Y-111373607D01*
X154307143Y-111356149D01*
X154343712Y-111344267D01*
X154379114Y-111326228D01*
X154410216Y-111303631D01*
X154444484Y-111286171D01*
X154476631Y-111262816D01*
X154612816Y-111126631D01*
X154711836Y-111027611D01*
X155095441Y-111027611D01*
X155133628Y-111229436D01*
X155148429Y-111269325D01*
X155250094Y-111445413D01*
X155273697Y-111475011D01*
X155422748Y-111613310D01*
X155454027Y-111634635D01*
X155637220Y-111722856D01*
X155673394Y-111734014D01*
X155874452Y-111764319D01*
X155893381Y-111765738D01*
X157746000Y-111765738D01*
X157814661Y-111745577D01*
X157861523Y-111691496D01*
X157873000Y-111638738D01*
X157873000Y-111004000D01*
X157852839Y-110935339D01*
X157798758Y-110888477D01*
X157746000Y-110877000D01*
X155220227Y-110877000D01*
X155151566Y-110897161D01*
X155104704Y-110951242D01*
X155095441Y-111027611D01*
X154711836Y-111027611D01*
X155143516Y-110595932D01*
X155149018Y-110602370D01*
X155218404Y-110623000D01*
X157746000Y-110623000D01*
X157814661Y-110602839D01*
X157861523Y-110548758D01*
X157873000Y-110496000D01*
X157873000Y-109861262D01*
X158127000Y-109861262D01*
X158127000Y-111638738D01*
X158147161Y-111707399D01*
X158201242Y-111754261D01*
X158254000Y-111765738D01*
X160106619Y-111765738D01*
X160130230Y-111763524D01*
X160379436Y-111716372D01*
X160419325Y-111701571D01*
X160498318Y-111655964D01*
X160637220Y-111722856D01*
X160673394Y-111734014D01*
X160874452Y-111764319D01*
X160893381Y-111765738D01*
X162746000Y-111765738D01*
X162814661Y-111745577D01*
X162861523Y-111691496D01*
X162873000Y-111638738D01*
X162873000Y-109861262D01*
X163127000Y-109861262D01*
X163127000Y-111638738D01*
X163147161Y-111707399D01*
X163201242Y-111754261D01*
X163254000Y-111765738D01*
X165106619Y-111765738D01*
X165130230Y-111763524D01*
X165379436Y-111716372D01*
X165419325Y-111701571D01*
X165498318Y-111655964D01*
X165637220Y-111722856D01*
X165673394Y-111734014D01*
X165874452Y-111764319D01*
X165893381Y-111765738D01*
X167746000Y-111765738D01*
X167814661Y-111745577D01*
X167861523Y-111691496D01*
X167873000Y-111638738D01*
X167873000Y-109861262D01*
X168127000Y-109861262D01*
X168127000Y-111638738D01*
X168147161Y-111707399D01*
X168201242Y-111754261D01*
X168254000Y-111765738D01*
X170106619Y-111765738D01*
X170130230Y-111763524D01*
X170379436Y-111716372D01*
X170419325Y-111701571D01*
X170498318Y-111655964D01*
X170637220Y-111722856D01*
X170673394Y-111734014D01*
X170874452Y-111764319D01*
X170893381Y-111765738D01*
X172746000Y-111765738D01*
X172814661Y-111745577D01*
X172861523Y-111691496D01*
X172873000Y-111638738D01*
X172873000Y-109861262D01*
X173127000Y-109861262D01*
X173127000Y-111638738D01*
X173147161Y-111707399D01*
X173201242Y-111754261D01*
X173254000Y-111765738D01*
X175106619Y-111765738D01*
X175130230Y-111763524D01*
X175379436Y-111716372D01*
X175419325Y-111701571D01*
X175498318Y-111655964D01*
X175637220Y-111722856D01*
X175673394Y-111734014D01*
X175874452Y-111764319D01*
X175893381Y-111765738D01*
X177746000Y-111765738D01*
X177814661Y-111745577D01*
X177861523Y-111691496D01*
X177873000Y-111638738D01*
X177873000Y-109861262D01*
X178127000Y-109861262D01*
X178127000Y-111638738D01*
X178147161Y-111707399D01*
X178201242Y-111754261D01*
X178254000Y-111765738D01*
X180106619Y-111765738D01*
X180130230Y-111763524D01*
X180379436Y-111716372D01*
X180419325Y-111701571D01*
X180498318Y-111655964D01*
X180637220Y-111722856D01*
X180673394Y-111734014D01*
X180874452Y-111764319D01*
X180893381Y-111765738D01*
X182746000Y-111765738D01*
X182814661Y-111745577D01*
X182861523Y-111691496D01*
X182873000Y-111638738D01*
X182873000Y-109861262D01*
X183127000Y-109861262D01*
X183127000Y-111638738D01*
X183147161Y-111707399D01*
X183201242Y-111754261D01*
X183254000Y-111765738D01*
X185106619Y-111765738D01*
X185130230Y-111763524D01*
X185379436Y-111716372D01*
X185419325Y-111701571D01*
X185498318Y-111655964D01*
X185637220Y-111722856D01*
X185673394Y-111734014D01*
X185874452Y-111764319D01*
X185893381Y-111765738D01*
X187746000Y-111765738D01*
X187814661Y-111745577D01*
X187861523Y-111691496D01*
X187873000Y-111638738D01*
X187873000Y-109861262D01*
X188127000Y-109861262D01*
X188127000Y-111638738D01*
X188147161Y-111707399D01*
X188201242Y-111754261D01*
X188254000Y-111765738D01*
X190106619Y-111765738D01*
X190130230Y-111763524D01*
X190379436Y-111716372D01*
X190419325Y-111701571D01*
X190498318Y-111655964D01*
X190637220Y-111722856D01*
X190673394Y-111734014D01*
X190874452Y-111764319D01*
X190893381Y-111765738D01*
X192746000Y-111765738D01*
X192814661Y-111745577D01*
X192861523Y-111691496D01*
X192873000Y-111638738D01*
X192873000Y-109861262D01*
X193127000Y-109861262D01*
X193127000Y-111638738D01*
X193147161Y-111707399D01*
X193201242Y-111754261D01*
X193254000Y-111765738D01*
X195106619Y-111765738D01*
X195130230Y-111763524D01*
X195379436Y-111716372D01*
X195419325Y-111701571D01*
X195498318Y-111655964D01*
X195637220Y-111722856D01*
X195673394Y-111734014D01*
X195874452Y-111764319D01*
X195893381Y-111765738D01*
X197746000Y-111765738D01*
X197814661Y-111745577D01*
X197861523Y-111691496D01*
X197873000Y-111638738D01*
X197873000Y-109861262D01*
X198127000Y-109861262D01*
X198127000Y-111638738D01*
X198147161Y-111707399D01*
X198201242Y-111754261D01*
X198254000Y-111765738D01*
X200106619Y-111765738D01*
X200130230Y-111763524D01*
X200379436Y-111716372D01*
X200419325Y-111701571D01*
X200498318Y-111655964D01*
X200637220Y-111722856D01*
X200673394Y-111734014D01*
X200874452Y-111764319D01*
X200893381Y-111765738D01*
X202746000Y-111765738D01*
X202814661Y-111745577D01*
X202861523Y-111691496D01*
X202873000Y-111638738D01*
X202873000Y-111004000D01*
X203127000Y-111004000D01*
X203127000Y-111638738D01*
X203147161Y-111707399D01*
X203201242Y-111754261D01*
X203254000Y-111765738D01*
X205106619Y-111765738D01*
X205130230Y-111763524D01*
X205379436Y-111716372D01*
X205419325Y-111701571D01*
X205595413Y-111599906D01*
X205625011Y-111576303D01*
X205763310Y-111427252D01*
X205784635Y-111395973D01*
X205872856Y-111212780D01*
X205884015Y-111176605D01*
X205907178Y-111022928D01*
X205897475Y-110952029D01*
X205850982Y-110897630D01*
X205781596Y-110877000D01*
X203254000Y-110877000D01*
X203185339Y-110897161D01*
X203138477Y-110951242D01*
X203127000Y-111004000D01*
X202873000Y-111004000D01*
X202873000Y-109861262D01*
X203127000Y-109861262D01*
X203127000Y-110496000D01*
X203147161Y-110564661D01*
X203201242Y-110611523D01*
X203254000Y-110623000D01*
X205779773Y-110623000D01*
X205848434Y-110602839D01*
X205895296Y-110548758D01*
X205904559Y-110472389D01*
X205866372Y-110270564D01*
X205851571Y-110230675D01*
X205749906Y-110054587D01*
X205726303Y-110024989D01*
X205577252Y-109886690D01*
X205545973Y-109865365D01*
X205362780Y-109777144D01*
X205326606Y-109765986D01*
X205125548Y-109735681D01*
X205106619Y-109734262D01*
X203254000Y-109734262D01*
X203185339Y-109754423D01*
X203138477Y-109808504D01*
X203127000Y-109861262D01*
X202873000Y-109861262D01*
X202852839Y-109792601D01*
X202798758Y-109745739D01*
X202746000Y-109734262D01*
X200893381Y-109734262D01*
X200869770Y-109736476D01*
X200620564Y-109783628D01*
X200580675Y-109798429D01*
X200501682Y-109844036D01*
X200362780Y-109777144D01*
X200326606Y-109765986D01*
X200125548Y-109735681D01*
X200106619Y-109734262D01*
X198254000Y-109734262D01*
X198185339Y-109754423D01*
X198138477Y-109808504D01*
X198127000Y-109861262D01*
X197873000Y-109861262D01*
X197852839Y-109792601D01*
X197798758Y-109745739D01*
X197746000Y-109734262D01*
X195893381Y-109734262D01*
X195869770Y-109736476D01*
X195620564Y-109783628D01*
X195580675Y-109798429D01*
X195501682Y-109844036D01*
X195362780Y-109777144D01*
X195326606Y-109765986D01*
X195125548Y-109735681D01*
X195106619Y-109734262D01*
X193254000Y-109734262D01*
X193185339Y-109754423D01*
X193138477Y-109808504D01*
X193127000Y-109861262D01*
X192873000Y-109861262D01*
X192852839Y-109792601D01*
X192798758Y-109745739D01*
X192746000Y-109734262D01*
X190893381Y-109734262D01*
X190869770Y-109736476D01*
X190620564Y-109783628D01*
X190580675Y-109798429D01*
X190501682Y-109844036D01*
X190362780Y-109777144D01*
X190326606Y-109765986D01*
X190125548Y-109735681D01*
X190106619Y-109734262D01*
X188254000Y-109734262D01*
X188185339Y-109754423D01*
X188138477Y-109808504D01*
X188127000Y-109861262D01*
X187873000Y-109861262D01*
X187852839Y-109792601D01*
X187798758Y-109745739D01*
X187746000Y-109734262D01*
X185893381Y-109734262D01*
X185869770Y-109736476D01*
X185620564Y-109783628D01*
X185580675Y-109798429D01*
X185501682Y-109844036D01*
X185362780Y-109777144D01*
X185326606Y-109765986D01*
X185125548Y-109735681D01*
X185106619Y-109734262D01*
X183254000Y-109734262D01*
X183185339Y-109754423D01*
X183138477Y-109808504D01*
X183127000Y-109861262D01*
X182873000Y-109861262D01*
X182852839Y-109792601D01*
X182798758Y-109745739D01*
X182746000Y-109734262D01*
X180893381Y-109734262D01*
X180869770Y-109736476D01*
X180620564Y-109783628D01*
X180580675Y-109798429D01*
X180501682Y-109844036D01*
X180362780Y-109777144D01*
X180326606Y-109765986D01*
X180125548Y-109735681D01*
X180106619Y-109734262D01*
X178254000Y-109734262D01*
X178185339Y-109754423D01*
X178138477Y-109808504D01*
X178127000Y-109861262D01*
X177873000Y-109861262D01*
X177852839Y-109792601D01*
X177798758Y-109745739D01*
X177746000Y-109734262D01*
X175893381Y-109734262D01*
X175869770Y-109736476D01*
X175620564Y-109783628D01*
X175580675Y-109798429D01*
X175501682Y-109844036D01*
X175362780Y-109777144D01*
X175326606Y-109765986D01*
X175125548Y-109735681D01*
X175106619Y-109734262D01*
X173254000Y-109734262D01*
X173185339Y-109754423D01*
X173138477Y-109808504D01*
X173127000Y-109861262D01*
X172873000Y-109861262D01*
X172852839Y-109792601D01*
X172798758Y-109745739D01*
X172746000Y-109734262D01*
X170893381Y-109734262D01*
X170869770Y-109736476D01*
X170620564Y-109783628D01*
X170580675Y-109798429D01*
X170501682Y-109844036D01*
X170362780Y-109777144D01*
X170326606Y-109765986D01*
X170125548Y-109735681D01*
X170106619Y-109734262D01*
X168254000Y-109734262D01*
X168185339Y-109754423D01*
X168138477Y-109808504D01*
X168127000Y-109861262D01*
X167873000Y-109861262D01*
X167852839Y-109792601D01*
X167798758Y-109745739D01*
X167746000Y-109734262D01*
X165893381Y-109734262D01*
X165869770Y-109736476D01*
X165620564Y-109783628D01*
X165580675Y-109798429D01*
X165501682Y-109844036D01*
X165362780Y-109777144D01*
X165326606Y-109765986D01*
X165125548Y-109735681D01*
X165106619Y-109734262D01*
X163254000Y-109734262D01*
X163185339Y-109754423D01*
X163138477Y-109808504D01*
X163127000Y-109861262D01*
X162873000Y-109861262D01*
X162852839Y-109792601D01*
X162798758Y-109745739D01*
X162746000Y-109734262D01*
X160893381Y-109734262D01*
X160869770Y-109736476D01*
X160620564Y-109783628D01*
X160580675Y-109798429D01*
X160501682Y-109844036D01*
X160362780Y-109777144D01*
X160326606Y-109765986D01*
X160125548Y-109735681D01*
X160106619Y-109734262D01*
X158254000Y-109734262D01*
X158185339Y-109754423D01*
X158138477Y-109808504D01*
X158127000Y-109861262D01*
X157873000Y-109861262D01*
X157852839Y-109792601D01*
X157798758Y-109745739D01*
X157746000Y-109734262D01*
X155893381Y-109734262D01*
X155869770Y-109736476D01*
X155620564Y-109783628D01*
X155580675Y-109798429D01*
X155404587Y-109900094D01*
X155374989Y-109923697D01*
X155347500Y-109953323D01*
X155347500Y-109258357D01*
X155417547Y-109243119D01*
X155459214Y-109225860D01*
X155642580Y-109108017D01*
X155669898Y-109084345D01*
X155812637Y-108919616D01*
X155832180Y-108889207D01*
X155922727Y-108690936D01*
X155932911Y-108656252D01*
X155963931Y-108440503D01*
X155965224Y-108422429D01*
X155965224Y-108054000D01*
X156234776Y-108054000D01*
X156234776Y-108422429D01*
X156237678Y-108449425D01*
X156306881Y-108767548D01*
X156324140Y-108809214D01*
X156441983Y-108992580D01*
X156465655Y-109019898D01*
X156630384Y-109162637D01*
X156660793Y-109182180D01*
X156859064Y-109272727D01*
X156893748Y-109282911D01*
X157109497Y-109313931D01*
X157127571Y-109315224D01*
X157333500Y-109315224D01*
X157402161Y-109295063D01*
X157449023Y-109240982D01*
X157460500Y-109188224D01*
X157460500Y-108054000D01*
X157714500Y-108054000D01*
X157714500Y-109188224D01*
X157734661Y-109256885D01*
X157788742Y-109303747D01*
X157841500Y-109315224D01*
X158047429Y-109315224D01*
X158074425Y-109312322D01*
X158392548Y-109243119D01*
X158434214Y-109225860D01*
X158617580Y-109108017D01*
X158644898Y-109084345D01*
X158787637Y-108919616D01*
X158807180Y-108889207D01*
X158897727Y-108690936D01*
X158907911Y-108656252D01*
X158938931Y-108440503D01*
X158940224Y-108422429D01*
X158940224Y-108054000D01*
X158920063Y-107985339D01*
X158865982Y-107938477D01*
X158813224Y-107927000D01*
X157841500Y-107927000D01*
X157772839Y-107947161D01*
X157725977Y-108001242D01*
X157714500Y-108054000D01*
X157460500Y-108054000D01*
X157440339Y-107985339D01*
X157386258Y-107938477D01*
X157333500Y-107927000D01*
X156361776Y-107927000D01*
X156293115Y-107947161D01*
X156246253Y-108001242D01*
X156234776Y-108054000D01*
X155965224Y-108054000D01*
X155965224Y-107177571D01*
X156234776Y-107177571D01*
X156234776Y-107546000D01*
X156254937Y-107614661D01*
X156309018Y-107661523D01*
X156361776Y-107673000D01*
X157333500Y-107673000D01*
X157402161Y-107652839D01*
X157449023Y-107598758D01*
X157460500Y-107546000D01*
X157460500Y-106411776D01*
X157714500Y-106411776D01*
X157714500Y-107546000D01*
X157734661Y-107614661D01*
X157788742Y-107661523D01*
X157841500Y-107673000D01*
X158813224Y-107673000D01*
X158881885Y-107652839D01*
X158928747Y-107598758D01*
X158940224Y-107546000D01*
X158940224Y-107177571D01*
X158937322Y-107150575D01*
X158868119Y-106832452D01*
X158850860Y-106790786D01*
X158733017Y-106607420D01*
X158709345Y-106580102D01*
X158544616Y-106437363D01*
X158514207Y-106417820D01*
X158315936Y-106327273D01*
X158281252Y-106317089D01*
X158065503Y-106286069D01*
X158047429Y-106284776D01*
X157841500Y-106284776D01*
X157772839Y-106304937D01*
X157725977Y-106359018D01*
X157714500Y-106411776D01*
X157460500Y-106411776D01*
X157440339Y-106343115D01*
X157386258Y-106296253D01*
X157333500Y-106284776D01*
X157127571Y-106284776D01*
X157100575Y-106287678D01*
X156782452Y-106356881D01*
X156740786Y-106374140D01*
X156557420Y-106491983D01*
X156530102Y-106515655D01*
X156387363Y-106680384D01*
X156367820Y-106710793D01*
X156277273Y-106909064D01*
X156267089Y-106943748D01*
X156236069Y-107159497D01*
X156234776Y-107177571D01*
X155965224Y-107177571D01*
X155962322Y-107150575D01*
X155893119Y-106832452D01*
X155875860Y-106790786D01*
X155758017Y-106607420D01*
X155734345Y-106580102D01*
X155569616Y-106437363D01*
X155539207Y-106417820D01*
X155340936Y-106327273D01*
X155306252Y-106317089D01*
X155090503Y-106286069D01*
X155072429Y-106284776D01*
X154152571Y-106284776D01*
X154125575Y-106287678D01*
X153807452Y-106356881D01*
X153765786Y-106374140D01*
X153582420Y-106491983D01*
X153555102Y-106515655D01*
X153412363Y-106680384D01*
X153392820Y-106710793D01*
X153302273Y-106909064D01*
X153292089Y-106943748D01*
X153274656Y-107065000D01*
X145352155Y-107065000D01*
X145352143Y-107065001D01*
X145303702Y-107065001D01*
X145264457Y-107071217D01*
X145227886Y-107083100D01*
X145189908Y-107089115D01*
X145152120Y-107101393D01*
X145117859Y-107118850D01*
X145081287Y-107130733D01*
X145045885Y-107148771D01*
X145014779Y-107171371D01*
X144980515Y-107188829D01*
X144948369Y-107212184D01*
X144914115Y-107246438D01*
X144914107Y-107246445D01*
X144092837Y-108067716D01*
X144092837Y-108050000D01*
X144088510Y-108017130D01*
X144019401Y-107759212D01*
X143994016Y-107710448D01*
X143878862Y-107573212D01*
X143845074Y-107544861D01*
X143689927Y-107455287D01*
X143648480Y-107440201D01*
X143472053Y-107409092D01*
X143450000Y-107407163D01*
X141750000Y-107407163D01*
X141717130Y-107411490D01*
X141459212Y-107480599D01*
X141410448Y-107505984D01*
X141273212Y-107621138D01*
X141244861Y-107654926D01*
X141155287Y-107810073D01*
X141140201Y-107851520D01*
X141109092Y-108027947D01*
X141107163Y-108050000D01*
X140635000Y-108050000D01*
X140635000Y-105635000D01*
X209365001Y-105635000D01*
X209365000Y-119365000D01*
M02*
