G04 #@! TF.GenerationSoftware,KiCad,Pcbnew,6.0.0-unknown-ea0edab~86~ubuntu18.04.1*
G04 #@! TF.CreationDate,2019-07-07T15:34:29+02:00*
G04 #@! TF.ProjectId,ir-receiver,69722d72-6563-4656-9976-65722e6b6963,rev?*
G04 #@! TF.SameCoordinates,Original*
G04 #@! TF.FileFunction,Copper,L2,Bot*
G04 #@! TF.FilePolarity,Positive*
%FSLAX46Y46*%
G04 Gerber Fmt 4.6, Leading zero omitted, Abs format (unit mm)*
G04 Created by KiCad (PCBNEW 6.0.0-unknown-ea0edab~86~ubuntu18.04.1) date 2019-07-07 15:34:29*
%MOMM*%
%LPD*%
G04 APERTURE LIST*
%ADD10O,1.700000X1.700000*%
%ADD11R,1.700000X1.700000*%
%ADD12C,0.800000*%
%ADD13C,0.254000*%
G04 APERTURE END LIST*
D10*
X142600000Y-116520000D03*
X142600000Y-113980000D03*
X142600000Y-111440000D03*
D11*
X142600000Y-108900000D03*
D12*
X158000000Y-109200000D03*
X152200000Y-107400000D03*
X145600000Y-110700000D03*
X203000000Y-109300000D03*
X198000000Y-109300000D03*
X193000000Y-109300000D03*
X188000000Y-109300000D03*
X183000000Y-109300000D03*
X178000000Y-109300000D03*
X173000000Y-109300000D03*
X168000000Y-109300000D03*
X163000000Y-109400000D03*
X148900000Y-111100000D03*
D13*
G36*
X209365000Y-119365000D02*
G01*
X140635000Y-119365000D01*
X140635000Y-116800079D01*
X141141401Y-116800079D01*
X141170282Y-116937725D01*
X141176453Y-116958295D01*
X141261104Y-117172646D01*
X141270652Y-117191881D01*
X141390209Y-117388905D01*
X141402862Y-117406257D01*
X141553906Y-117580320D01*
X141569302Y-117595292D01*
X141747515Y-117741417D01*
X141765213Y-117753580D01*
X141965498Y-117867589D01*
X141984993Y-117876597D01*
X142201624Y-117955230D01*
X142228269Y-117961750D01*
X142329313Y-117975143D01*
X142400028Y-117964179D01*
X142453589Y-117916724D01*
X142473000Y-117849244D01*
X142473000Y-116774000D01*
X142727000Y-116774000D01*
X142727000Y-117857100D01*
X142747161Y-117925761D01*
X142801242Y-117972623D01*
X142885905Y-117980027D01*
X143084610Y-117928454D01*
X143104866Y-117921321D01*
X143314992Y-117826666D01*
X143333757Y-117816222D01*
X143524930Y-117687517D01*
X143541666Y-117674060D01*
X143708420Y-117514984D01*
X143722650Y-117498901D01*
X143860218Y-117314003D01*
X143871534Y-117295751D01*
X143975982Y-117090317D01*
X143984062Y-117070420D01*
X144052403Y-116850326D01*
X144057014Y-116829353D01*
X144062139Y-116790688D01*
X144051175Y-116719973D01*
X144003720Y-116666411D01*
X143936240Y-116647000D01*
X142854000Y-116647000D01*
X142785339Y-116667161D01*
X142738477Y-116721242D01*
X142727000Y-116774000D01*
X142473000Y-116774000D01*
X142452839Y-116705339D01*
X142398758Y-116658477D01*
X142346000Y-116647000D01*
X141265694Y-116647000D01*
X141197033Y-116667161D01*
X141150171Y-116721242D01*
X141141401Y-116800079D01*
X140635000Y-116800079D01*
X140635000Y-108050000D01*
X141107163Y-108050000D01*
X141107163Y-109750000D01*
X141111490Y-109782870D01*
X141180599Y-110040789D01*
X141205984Y-110089553D01*
X141321138Y-110226788D01*
X141354926Y-110255139D01*
X141510073Y-110344713D01*
X141551520Y-110359799D01*
X141576325Y-110364173D01*
X141491580Y-110445016D01*
X141477350Y-110461099D01*
X141339782Y-110645997D01*
X141328466Y-110664249D01*
X141224018Y-110869683D01*
X141215938Y-110889580D01*
X141147597Y-111109674D01*
X141142986Y-111130648D01*
X141112705Y-111359111D01*
X141111693Y-111380563D01*
X141120339Y-111610862D01*
X141122957Y-111632176D01*
X141170282Y-111857725D01*
X141176453Y-111878295D01*
X141261104Y-112092646D01*
X141270652Y-112111881D01*
X141390209Y-112308905D01*
X141402862Y-112326257D01*
X141553906Y-112500320D01*
X141569302Y-112515292D01*
X141747515Y-112661417D01*
X141765213Y-112673580D01*
X141828164Y-112709414D01*
X141675070Y-112812483D01*
X141658334Y-112825940D01*
X141491580Y-112985016D01*
X141477350Y-113001099D01*
X141339782Y-113185997D01*
X141328466Y-113204249D01*
X141224018Y-113409683D01*
X141215938Y-113429580D01*
X141147597Y-113649674D01*
X141142986Y-113670648D01*
X141112705Y-113899111D01*
X141111693Y-113920563D01*
X141120339Y-114150862D01*
X141122957Y-114172176D01*
X141170282Y-114397725D01*
X141176453Y-114418295D01*
X141261104Y-114632646D01*
X141270652Y-114651881D01*
X141390209Y-114848905D01*
X141402862Y-114866257D01*
X141553906Y-115040320D01*
X141569302Y-115055292D01*
X141747515Y-115201417D01*
X141765213Y-115213580D01*
X141828164Y-115249414D01*
X141675070Y-115352483D01*
X141658334Y-115365940D01*
X141491580Y-115525016D01*
X141477350Y-115541099D01*
X141339782Y-115725997D01*
X141328466Y-115744249D01*
X141224018Y-115949683D01*
X141215938Y-115969580D01*
X141147597Y-116189674D01*
X141142986Y-116210647D01*
X141137861Y-116249312D01*
X141148825Y-116320027D01*
X141196280Y-116373589D01*
X141263760Y-116393000D01*
X143934306Y-116393000D01*
X144002967Y-116372839D01*
X144049829Y-116318758D01*
X144058599Y-116239921D01*
X144029718Y-116102275D01*
X144023547Y-116081705D01*
X143938896Y-115867354D01*
X143929348Y-115848119D01*
X143809791Y-115651095D01*
X143797138Y-115633743D01*
X143646094Y-115459680D01*
X143630698Y-115444708D01*
X143452485Y-115298583D01*
X143434787Y-115286420D01*
X143371836Y-115250586D01*
X143524930Y-115147517D01*
X143541666Y-115134060D01*
X143708420Y-114974984D01*
X143722650Y-114958901D01*
X143860218Y-114774003D01*
X143871534Y-114755751D01*
X143975982Y-114550317D01*
X143984062Y-114530420D01*
X144052403Y-114310326D01*
X144057014Y-114289352D01*
X144087295Y-114060889D01*
X144088307Y-114039437D01*
X144079661Y-113809138D01*
X144077043Y-113787824D01*
X144029718Y-113562275D01*
X144023547Y-113541705D01*
X143938896Y-113327354D01*
X143929348Y-113308119D01*
X143809791Y-113111095D01*
X143797138Y-113093743D01*
X143646094Y-112919680D01*
X143630698Y-112904708D01*
X143452485Y-112758583D01*
X143434787Y-112746420D01*
X143371836Y-112710586D01*
X143524930Y-112607517D01*
X143541666Y-112594060D01*
X143708420Y-112434984D01*
X143722650Y-112418901D01*
X143860218Y-112234003D01*
X143871534Y-112215751D01*
X143975982Y-112010317D01*
X143984062Y-111990420D01*
X144052403Y-111770326D01*
X144057014Y-111749352D01*
X144087295Y-111520889D01*
X144088307Y-111499437D01*
X144079661Y-111269138D01*
X144077043Y-111247824D01*
X144029718Y-111022275D01*
X144023547Y-111001705D01*
X143938896Y-110787354D01*
X143929348Y-110768119D01*
X143809791Y-110571095D01*
X143797138Y-110553743D01*
X143646094Y-110379680D01*
X143630698Y-110364708D01*
X143616167Y-110352793D01*
X143740789Y-110319401D01*
X143789553Y-110294016D01*
X143926788Y-110178862D01*
X143955139Y-110145074D01*
X144044713Y-109989927D01*
X144059799Y-109948480D01*
X144090908Y-109772053D01*
X144092837Y-109750000D01*
X144092837Y-108050000D01*
X144088510Y-108017130D01*
X144019401Y-107759212D01*
X143994016Y-107710448D01*
X143878862Y-107573212D01*
X143845074Y-107544861D01*
X143689927Y-107455287D01*
X143648480Y-107440201D01*
X143472053Y-107409092D01*
X143450000Y-107407163D01*
X141750000Y-107407163D01*
X141717130Y-107411490D01*
X141459212Y-107480599D01*
X141410448Y-107505984D01*
X141273212Y-107621138D01*
X141244861Y-107654926D01*
X141155287Y-107810073D01*
X141140201Y-107851520D01*
X141109092Y-108027947D01*
X141107163Y-108050000D01*
X140635000Y-108050000D01*
X140635000Y-105635000D01*
X209365001Y-105635000D01*
X209365000Y-119365000D01*
X209365000Y-119365000D01*
G37*
X209365000Y-119365000D02*
X140635000Y-119365000D01*
X140635000Y-116800079D01*
X141141401Y-116800079D01*
X141170282Y-116937725D01*
X141176453Y-116958295D01*
X141261104Y-117172646D01*
X141270652Y-117191881D01*
X141390209Y-117388905D01*
X141402862Y-117406257D01*
X141553906Y-117580320D01*
X141569302Y-117595292D01*
X141747515Y-117741417D01*
X141765213Y-117753580D01*
X141965498Y-117867589D01*
X141984993Y-117876597D01*
X142201624Y-117955230D01*
X142228269Y-117961750D01*
X142329313Y-117975143D01*
X142400028Y-117964179D01*
X142453589Y-117916724D01*
X142473000Y-117849244D01*
X142473000Y-116774000D01*
X142727000Y-116774000D01*
X142727000Y-117857100D01*
X142747161Y-117925761D01*
X142801242Y-117972623D01*
X142885905Y-117980027D01*
X143084610Y-117928454D01*
X143104866Y-117921321D01*
X143314992Y-117826666D01*
X143333757Y-117816222D01*
X143524930Y-117687517D01*
X143541666Y-117674060D01*
X143708420Y-117514984D01*
X143722650Y-117498901D01*
X143860218Y-117314003D01*
X143871534Y-117295751D01*
X143975982Y-117090317D01*
X143984062Y-117070420D01*
X144052403Y-116850326D01*
X144057014Y-116829353D01*
X144062139Y-116790688D01*
X144051175Y-116719973D01*
X144003720Y-116666411D01*
X143936240Y-116647000D01*
X142854000Y-116647000D01*
X142785339Y-116667161D01*
X142738477Y-116721242D01*
X142727000Y-116774000D01*
X142473000Y-116774000D01*
X142452839Y-116705339D01*
X142398758Y-116658477D01*
X142346000Y-116647000D01*
X141265694Y-116647000D01*
X141197033Y-116667161D01*
X141150171Y-116721242D01*
X141141401Y-116800079D01*
X140635000Y-116800079D01*
X140635000Y-108050000D01*
X141107163Y-108050000D01*
X141107163Y-109750000D01*
X141111490Y-109782870D01*
X141180599Y-110040789D01*
X141205984Y-110089553D01*
X141321138Y-110226788D01*
X141354926Y-110255139D01*
X141510073Y-110344713D01*
X141551520Y-110359799D01*
X141576325Y-110364173D01*
X141491580Y-110445016D01*
X141477350Y-110461099D01*
X141339782Y-110645997D01*
X141328466Y-110664249D01*
X141224018Y-110869683D01*
X141215938Y-110889580D01*
X141147597Y-111109674D01*
X141142986Y-111130648D01*
X141112705Y-111359111D01*
X141111693Y-111380563D01*
X141120339Y-111610862D01*
X141122957Y-111632176D01*
X141170282Y-111857725D01*
X141176453Y-111878295D01*
X141261104Y-112092646D01*
X141270652Y-112111881D01*
X141390209Y-112308905D01*
X141402862Y-112326257D01*
X141553906Y-112500320D01*
X141569302Y-112515292D01*
X141747515Y-112661417D01*
X141765213Y-112673580D01*
X141828164Y-112709414D01*
X141675070Y-112812483D01*
X141658334Y-112825940D01*
X141491580Y-112985016D01*
X141477350Y-113001099D01*
X141339782Y-113185997D01*
X141328466Y-113204249D01*
X141224018Y-113409683D01*
X141215938Y-113429580D01*
X141147597Y-113649674D01*
X141142986Y-113670648D01*
X141112705Y-113899111D01*
X141111693Y-113920563D01*
X141120339Y-114150862D01*
X141122957Y-114172176D01*
X141170282Y-114397725D01*
X141176453Y-114418295D01*
X141261104Y-114632646D01*
X141270652Y-114651881D01*
X141390209Y-114848905D01*
X141402862Y-114866257D01*
X141553906Y-115040320D01*
X141569302Y-115055292D01*
X141747515Y-115201417D01*
X141765213Y-115213580D01*
X141828164Y-115249414D01*
X141675070Y-115352483D01*
X141658334Y-115365940D01*
X141491580Y-115525016D01*
X141477350Y-115541099D01*
X141339782Y-115725997D01*
X141328466Y-115744249D01*
X141224018Y-115949683D01*
X141215938Y-115969580D01*
X141147597Y-116189674D01*
X141142986Y-116210647D01*
X141137861Y-116249312D01*
X141148825Y-116320027D01*
X141196280Y-116373589D01*
X141263760Y-116393000D01*
X143934306Y-116393000D01*
X144002967Y-116372839D01*
X144049829Y-116318758D01*
X144058599Y-116239921D01*
X144029718Y-116102275D01*
X144023547Y-116081705D01*
X143938896Y-115867354D01*
X143929348Y-115848119D01*
X143809791Y-115651095D01*
X143797138Y-115633743D01*
X143646094Y-115459680D01*
X143630698Y-115444708D01*
X143452485Y-115298583D01*
X143434787Y-115286420D01*
X143371836Y-115250586D01*
X143524930Y-115147517D01*
X143541666Y-115134060D01*
X143708420Y-114974984D01*
X143722650Y-114958901D01*
X143860218Y-114774003D01*
X143871534Y-114755751D01*
X143975982Y-114550317D01*
X143984062Y-114530420D01*
X144052403Y-114310326D01*
X144057014Y-114289352D01*
X144087295Y-114060889D01*
X144088307Y-114039437D01*
X144079661Y-113809138D01*
X144077043Y-113787824D01*
X144029718Y-113562275D01*
X144023547Y-113541705D01*
X143938896Y-113327354D01*
X143929348Y-113308119D01*
X143809791Y-113111095D01*
X143797138Y-113093743D01*
X143646094Y-112919680D01*
X143630698Y-112904708D01*
X143452485Y-112758583D01*
X143434787Y-112746420D01*
X143371836Y-112710586D01*
X143524930Y-112607517D01*
X143541666Y-112594060D01*
X143708420Y-112434984D01*
X143722650Y-112418901D01*
X143860218Y-112234003D01*
X143871534Y-112215751D01*
X143975982Y-112010317D01*
X143984062Y-111990420D01*
X144052403Y-111770326D01*
X144057014Y-111749352D01*
X144087295Y-111520889D01*
X144088307Y-111499437D01*
X144079661Y-111269138D01*
X144077043Y-111247824D01*
X144029718Y-111022275D01*
X144023547Y-111001705D01*
X143938896Y-110787354D01*
X143929348Y-110768119D01*
X143809791Y-110571095D01*
X143797138Y-110553743D01*
X143646094Y-110379680D01*
X143630698Y-110364708D01*
X143616167Y-110352793D01*
X143740789Y-110319401D01*
X143789553Y-110294016D01*
X143926788Y-110178862D01*
X143955139Y-110145074D01*
X144044713Y-109989927D01*
X144059799Y-109948480D01*
X144090908Y-109772053D01*
X144092837Y-109750000D01*
X144092837Y-108050000D01*
X144088510Y-108017130D01*
X144019401Y-107759212D01*
X143994016Y-107710448D01*
X143878862Y-107573212D01*
X143845074Y-107544861D01*
X143689927Y-107455287D01*
X143648480Y-107440201D01*
X143472053Y-107409092D01*
X143450000Y-107407163D01*
X141750000Y-107407163D01*
X141717130Y-107411490D01*
X141459212Y-107480599D01*
X141410448Y-107505984D01*
X141273212Y-107621138D01*
X141244861Y-107654926D01*
X141155287Y-107810073D01*
X141140201Y-107851520D01*
X141109092Y-108027947D01*
X141107163Y-108050000D01*
X140635000Y-108050000D01*
X140635000Y-105635000D01*
X209365001Y-105635000D01*
X209365000Y-119365000D01*
M02*
