G04 #@! TF.GenerationSoftware,KiCad,Pcbnew,6.0.0-unknown-ea0edab~86~ubuntu18.04.1*
G04 #@! TF.CreationDate,2019-07-07T16:40:55+02:00*
G04 #@! TF.ProjectId,ir-receiver,69722d72-6563-4656-9976-65722e6b6963,rev?*
G04 #@! TF.SameCoordinates,Original*
G04 #@! TF.FileFunction,Legend,Top*
G04 #@! TF.FilePolarity,Positive*
%FSLAX46Y46*%
G04 Gerber Fmt 4.6, Leading zero omitted, Abs format (unit mm)*
G04 Created by KiCad (PCBNEW 6.0.0-unknown-ea0edab~86~ubuntu18.04.1) date 2019-07-07 16:40:55*
%MOMM*%
%LPD*%
G04 APERTURE LIST*
%ADD10C,0.150000*%
%ADD11C,0.034395*%
%ADD12C,0.120000*%
G04 APERTURE END LIST*
D10*
X207360741Y-108316805D02*
G75*
G03X206860014Y-108324936I-260741J634987D01*
G01*
D11*
X206801979Y-105398218D02*
X206800000Y-105400000D01*
X206813579Y-105391985D02*
X206812323Y-105392380D01*
X204812730Y-107389693D02*
X204812176Y-107390896D01*
X209394773Y-108013123D02*
X209395982Y-108012614D01*
X208954319Y-109087661D02*
X208954042Y-109086367D01*
X205276583Y-109113902D02*
X205277438Y-109114898D01*
X204823912Y-107376759D02*
X204822831Y-107377526D01*
X208953851Y-109102191D02*
X208954408Y-109099585D01*
X206207416Y-109217279D02*
X206210224Y-109217798D01*
X206447541Y-109320788D02*
X206448267Y-109319779D01*
X205274083Y-106308912D02*
X205274800Y-106310012D01*
X208834307Y-108118180D02*
X208835609Y-108117796D01*
X206812323Y-105392380D02*
X206811084Y-105392831D01*
X206811084Y-105392831D02*
X206809863Y-105393335D01*
X205693971Y-105856126D02*
X205692901Y-105856886D01*
X206809863Y-105393335D02*
X206808661Y-105393890D01*
X206808661Y-105393890D02*
X206806326Y-105395149D01*
X206806326Y-105395149D02*
X206804093Y-105396596D01*
X206437121Y-109328526D02*
X206438215Y-109328091D01*
X206804093Y-105396596D02*
X206801979Y-105398218D01*
X206814849Y-105391645D02*
X206813579Y-105391985D01*
X204815432Y-107385123D02*
X204814687Y-107386226D01*
D10*
X207403317Y-105390853D02*
X206821340Y-105390853D01*
D11*
X206177416Y-109223133D02*
X206179670Y-109221735D01*
X206821340Y-105390853D02*
X206821340Y-105390853D01*
X206821340Y-105390853D02*
X206820029Y-105390885D01*
X208805924Y-108144946D02*
X208806410Y-108143696D01*
X208633882Y-108615555D02*
X208632782Y-108612979D01*
X207776320Y-109319812D02*
X207777045Y-109320820D01*
D10*
X205274800Y-106310012D02*
X205606995Y-106833895D01*
D11*
X205399207Y-108122312D02*
X205401661Y-108123919D01*
X205273359Y-109078979D02*
X205272756Y-109080143D01*
X205270619Y-106300429D02*
X205270949Y-106301707D01*
X208028796Y-109216988D02*
X208031682Y-109217348D01*
X208515811Y-109535825D02*
X208518454Y-109535476D01*
X209408274Y-108002743D02*
X209409065Y-108001667D01*
X208629740Y-108589772D02*
X208630107Y-108586882D01*
X204811223Y-107393359D02*
X204810829Y-107394615D01*
X207805219Y-109327846D02*
X207806402Y-109327283D01*
X206792660Y-105410890D02*
X206792207Y-105412121D01*
X207789700Y-109329246D02*
X207790850Y-109329508D01*
X206204548Y-109216937D02*
X206207416Y-109217279D01*
X205270949Y-106301707D02*
X205271334Y-106302967D01*
X208039951Y-109219476D02*
X208042503Y-109220533D01*
X206820029Y-105390885D02*
X206818722Y-105390983D01*
X208830417Y-108119665D02*
X208833006Y-108118621D01*
X204832254Y-108013933D02*
X204833523Y-108014265D01*
X205404037Y-108125684D02*
X205406317Y-108127591D01*
X205695077Y-105855416D02*
X205693971Y-105856126D01*
X206818722Y-105390983D02*
X206817422Y-105391143D01*
X206219809Y-106192553D02*
X206217556Y-106191140D01*
X206817422Y-105391143D02*
X206816130Y-105391364D01*
X205690874Y-105858554D02*
X205689923Y-105859461D01*
X207779475Y-109323549D02*
X207780362Y-109324359D01*
X206816130Y-105391364D02*
X206814849Y-105391645D01*
X205277507Y-106271892D02*
X205276651Y-106272889D01*
X207403317Y-105390853D02*
X207403317Y-105390853D01*
X207412352Y-105392380D02*
X207411094Y-105391985D01*
X207411094Y-105391985D02*
X207409822Y-105391645D01*
X207780362Y-109324359D02*
X207781285Y-109325118D01*
X207409822Y-105391645D02*
X207408538Y-105391364D01*
X207408538Y-105391364D02*
X207407244Y-105391143D01*
X207407244Y-105391143D02*
X207405941Y-105390983D01*
X207405941Y-105390983D02*
X207404631Y-105390885D01*
X205696215Y-105854756D02*
X205695077Y-105855416D01*
X205698578Y-105853586D02*
X205696215Y-105854756D01*
X207404631Y-105390885D02*
X207403317Y-105390853D01*
X208952629Y-109105984D02*
X208953088Y-109104739D01*
X207413593Y-105392831D02*
X207412352Y-105392380D01*
X207421666Y-105397386D02*
X207420592Y-105396596D01*
X207420592Y-105396596D02*
X207419489Y-105395850D01*
X207419489Y-105395850D02*
X207418358Y-105395149D01*
X205724397Y-105853316D02*
X205723178Y-105852821D01*
X207418358Y-105395149D02*
X207417200Y-105394496D01*
X207417200Y-105394496D02*
X207416019Y-105393890D01*
X205701041Y-105852619D02*
X205698578Y-105853586D01*
X207416019Y-105393890D02*
X207414816Y-105393335D01*
X207414816Y-105393335D02*
X207413593Y-105392831D01*
X204833486Y-107372467D02*
X204832214Y-107372806D01*
X206794353Y-105407328D02*
X206793735Y-105408491D01*
X206433723Y-109329489D02*
X206434873Y-109329226D01*
X207422708Y-105398218D02*
X207421666Y-105397386D01*
X207428950Y-105405080D02*
X207428185Y-105404000D01*
X207428185Y-105404000D02*
X207427374Y-105402950D01*
X207427374Y-105402950D02*
X207426520Y-105401932D01*
X207426520Y-105401932D02*
X207425624Y-105400948D01*
X207425624Y-105400948D02*
X207424689Y-105400000D01*
X207424689Y-105400000D02*
X207423716Y-105399090D01*
X207423716Y-105399090D02*
X207422708Y-105398218D01*
X207429669Y-105406190D02*
X207428950Y-105405080D01*
X207433212Y-105414642D02*
X207432878Y-105413372D01*
X207432878Y-105413372D02*
X207432484Y-105412121D01*
X207432484Y-105412121D02*
X207432031Y-105410890D01*
X207432031Y-105410890D02*
X207431521Y-105409679D01*
X207431521Y-105409679D02*
X207430956Y-105408491D01*
X207430956Y-105408491D02*
X207430338Y-105407328D01*
X207430338Y-105407328D02*
X207429669Y-105406190D01*
X205692901Y-105856886D02*
X205691867Y-105857695D01*
X207433482Y-105415927D02*
X207433212Y-105414642D01*
X207544842Y-106008557D02*
X207543792Y-106005961D01*
X207543792Y-106005961D02*
X207542955Y-106003356D01*
X207542955Y-106003356D02*
X207542621Y-106002055D01*
X207542621Y-106002055D02*
X207542346Y-106000759D01*
X205703584Y-105851855D02*
X205701041Y-105852619D01*
X207542346Y-106000759D02*
X207542346Y-106000759D01*
D10*
X207542346Y-106000759D02*
X207433482Y-105415927D01*
D11*
X207433482Y-105415927D02*
X207433482Y-105415927D01*
X206427792Y-109329902D02*
X206428995Y-109329942D01*
X207546091Y-106011129D02*
X207544842Y-106008557D01*
X207559165Y-106027001D02*
X207556936Y-106025081D01*
X207773898Y-109315314D02*
X207774427Y-109316507D01*
X206669938Y-106023016D02*
X206667805Y-106025081D01*
X207556936Y-106025081D02*
X207554803Y-106023016D01*
X207554803Y-106023016D02*
X207552780Y-106020825D01*
X207552780Y-106020825D02*
X207550883Y-106018524D01*
X207550883Y-106018524D02*
X207549126Y-106016129D01*
X207549126Y-106016129D02*
X207547524Y-106013659D01*
X205691867Y-105857695D02*
X205690874Y-105858554D01*
X207547524Y-106013659D02*
X207546091Y-106011129D01*
X207561475Y-106028760D02*
X207559165Y-106027001D01*
X207571238Y-106033848D02*
X207571238Y-106033848D01*
X207571238Y-106033848D02*
X207569991Y-106033405D01*
X207569991Y-106033405D02*
X207568749Y-106032903D01*
X205275086Y-106274998D02*
X205274378Y-106276105D01*
X207568749Y-106032903D02*
X207567512Y-106032343D01*
X207567512Y-106032343D02*
X207566282Y-106031728D01*
X207566282Y-106031728D02*
X207563853Y-106030342D01*
X205706186Y-105851298D02*
X205703584Y-105851855D01*
X207563853Y-106030342D02*
X207561475Y-106028760D01*
D10*
X207963213Y-106194305D02*
X207571238Y-106033848D01*
D11*
X207979580Y-106198119D02*
X207976635Y-106197915D01*
X205726757Y-105854472D02*
X205725591Y-105853866D01*
X204810210Y-107397170D02*
X204809989Y-107398464D01*
X205725591Y-105853866D02*
X205724397Y-105853316D01*
X205274731Y-109076744D02*
X205274731Y-109076744D01*
X206230313Y-106196642D02*
X206227509Y-106195857D01*
X206653488Y-106033848D02*
X206653488Y-106033848D01*
X206679887Y-106008557D02*
X206678640Y-106011129D01*
X209412837Y-107994653D02*
X209413288Y-107993409D01*
D10*
X207806402Y-109327283D02*
X208004178Y-109221688D01*
D11*
X208954542Y-109088968D02*
X208954319Y-109087661D01*
X204832214Y-107372806D02*
X204830960Y-107373205D01*
X209413685Y-107992150D02*
X209414025Y-107990876D01*
X209391028Y-108014298D02*
X209392294Y-108013967D01*
X205708828Y-105850948D02*
X205706186Y-105851298D01*
X207976635Y-106197915D02*
X207973747Y-106197540D01*
X207797989Y-109329819D02*
X207799200Y-109329653D01*
X206220410Y-109221654D02*
X206220410Y-109221654D01*
D10*
X206450690Y-109315280D02*
X206858487Y-108329942D01*
D11*
X206442338Y-109325798D02*
X206443296Y-109325090D01*
X208946245Y-109115887D02*
X208946245Y-109115887D01*
X204834774Y-107372190D02*
X204834774Y-107372190D01*
X207778624Y-109322689D02*
X207779475Y-109323549D01*
X205387641Y-108117435D02*
X205388940Y-108117762D01*
X207973747Y-106197540D02*
X207970938Y-106196993D01*
X208812174Y-108134051D02*
X208814060Y-108131807D01*
D10*
X208633312Y-108576319D02*
X208805497Y-108146199D01*
D11*
X205706151Y-109535442D02*
X205708794Y-109535791D01*
X204826209Y-108011397D02*
X204827373Y-108012015D01*
X207775641Y-109318757D02*
X207776320Y-109319812D01*
X206791813Y-105413372D02*
X206791480Y-105414642D01*
X208810449Y-108136377D02*
X208812174Y-108134051D01*
X207970938Y-106196993D02*
X207968230Y-106196272D01*
X206859725Y-108326211D02*
X206860014Y-108324936D01*
X206441349Y-109326452D02*
X206442338Y-109325798D01*
X206680936Y-106005961D02*
X206679887Y-106008557D01*
X206418186Y-109327249D02*
X206419366Y-109327815D01*
X204817099Y-108003753D02*
X204818882Y-108005739D01*
X204812771Y-107997050D02*
X204814031Y-107999393D01*
X209410514Y-107999427D02*
X209411169Y-107998267D01*
X204828515Y-107374177D02*
X204827326Y-107374745D01*
X207968230Y-106196272D02*
X207965648Y-106195377D01*
X207965648Y-106195377D02*
X207963213Y-106194305D01*
X207775009Y-109317655D02*
X207775641Y-109318757D01*
X204809864Y-107986957D02*
X204810024Y-107988261D01*
X206791209Y-105415927D02*
X206791209Y-105415927D01*
X204830960Y-107373205D02*
X204829727Y-107373663D01*
X207963213Y-106194305D02*
X207963213Y-106194305D01*
X206448267Y-109319779D02*
X206448947Y-109318724D01*
X208500250Y-109533487D02*
X208501468Y-109533977D01*
X207804027Y-109328340D02*
X207805219Y-109327846D01*
X208633312Y-108576319D02*
X208633312Y-108576319D01*
X206236140Y-106197727D02*
X206233198Y-106197266D01*
X209404709Y-108006710D02*
X209405658Y-108005773D01*
X207982559Y-106198155D02*
X207979580Y-106198119D01*
X208534699Y-109527364D02*
X208534699Y-109527364D01*
X206198719Y-109216783D02*
X206201642Y-109216772D01*
X208501468Y-109533977D02*
X208502708Y-109534413D01*
X206245087Y-106198119D02*
X206242107Y-106198155D01*
X208002446Y-106193811D02*
X207999867Y-106194913D01*
X205589428Y-108617949D02*
X205588008Y-108620208D01*
X204810024Y-107988261D02*
X204810246Y-107989556D01*
X204816221Y-107384049D02*
X204815432Y-107385123D01*
X208025881Y-109216804D02*
X208028796Y-109216988D01*
X204809767Y-107985647D02*
X204809864Y-107986957D01*
X209411775Y-107997084D02*
X209412332Y-107995878D01*
X205592751Y-108610245D02*
X205591801Y-108612945D01*
D10*
X205433640Y-107238253D02*
X204834774Y-107372190D01*
D11*
X209414787Y-107985681D02*
X209414820Y-107984367D01*
X208814060Y-108131807D02*
X208816093Y-108129660D01*
X205408484Y-108129626D02*
X205410523Y-108131773D01*
X208835609Y-108117796D02*
X208836910Y-108117469D01*
X208951840Y-109080177D02*
X208951234Y-109079013D01*
X205721936Y-105852381D02*
X205719395Y-105851664D01*
X206667805Y-106025081D02*
X206665576Y-106027001D01*
X205275844Y-106273924D02*
X205275086Y-106274998D01*
X207999867Y-106194913D02*
X207997163Y-106195857D01*
X207997163Y-106195857D02*
X207994356Y-106196642D01*
X207994356Y-106196642D02*
X207991470Y-106197266D01*
X207991470Y-106197266D02*
X207988526Y-106197727D01*
X207988526Y-106197727D02*
X207985548Y-106198024D01*
X207985548Y-106198024D02*
X207982559Y-106198155D01*
X205711490Y-105850808D02*
X205708828Y-105850948D01*
X208004876Y-106192553D02*
X208002446Y-106193811D01*
X208499126Y-105853866D02*
X208497963Y-105854472D01*
X208497963Y-105854472D02*
X208496829Y-105855133D01*
X205689923Y-105859461D02*
X205689923Y-105859461D01*
X208496829Y-105855133D02*
X208495729Y-105855850D01*
X208495729Y-105855850D02*
X208495729Y-105855850D01*
D10*
X208495729Y-105855850D02*
X208007136Y-106191140D01*
D11*
X208007136Y-106191140D02*
X208007136Y-106191140D01*
X208007136Y-106191140D02*
X208004876Y-106192553D01*
X206222235Y-106193812D02*
X206219809Y-106192553D01*
X208500317Y-105853316D02*
X208499126Y-105853866D01*
X204829771Y-108013089D02*
X204831003Y-108013541D01*
X206217556Y-106191140D02*
X206217556Y-106191140D01*
X208510539Y-105850880D02*
X208507902Y-105851164D01*
X205714152Y-105850880D02*
X205711490Y-105850808D01*
X208507902Y-105851164D02*
X208506598Y-105851387D01*
X208506598Y-105851387D02*
X208505307Y-105851664D01*
X208505307Y-105851664D02*
X208504030Y-105851995D01*
X205273110Y-106278415D02*
X205272551Y-106279612D01*
X205272551Y-106279612D02*
X205272042Y-106280834D01*
X208504030Y-105851995D02*
X208502771Y-105852381D01*
X205719395Y-105851664D02*
X205716794Y-105851165D01*
X205276651Y-106272889D02*
X205275844Y-106273924D01*
X208502771Y-105852381D02*
X208501533Y-105852821D01*
X208501533Y-105852821D02*
X208500317Y-105853316D01*
X208513196Y-105850808D02*
X208510539Y-105850880D01*
X208527296Y-105854146D02*
X208526100Y-105853586D01*
X208526100Y-105853586D02*
X208524879Y-105853077D01*
X208524879Y-105853077D02*
X208523637Y-105852619D01*
X208950950Y-109109577D02*
X208951561Y-109108406D01*
X208523637Y-105852619D02*
X208521095Y-105851855D01*
X208521095Y-105851855D02*
X208518494Y-105851298D01*
X208518494Y-105851298D02*
X208515855Y-105850948D01*
X208515855Y-105850948D02*
X208513196Y-105850808D01*
X208528465Y-105854756D02*
X208527296Y-105854146D01*
X208534768Y-105859461D02*
X208534768Y-105859461D01*
X208534768Y-105859461D02*
X208533815Y-105858554D01*
X208533815Y-105858554D02*
X208532819Y-105857695D01*
X208532819Y-105857695D02*
X208531783Y-105856886D01*
X204813987Y-107387356D02*
X204813335Y-107388513D01*
X208953325Y-109083827D02*
X208952885Y-109082587D01*
X206439285Y-109327600D02*
X206440331Y-109327053D01*
X208952120Y-109107207D02*
X208952629Y-109105984D01*
X205270821Y-106284623D02*
X205270262Y-106287227D01*
X208953088Y-109104739D02*
X208953851Y-109102191D01*
X206421753Y-109328741D02*
X206422957Y-109329104D01*
X205728997Y-105855850D02*
X205728997Y-105855850D01*
X208531783Y-105856886D02*
X208530711Y-105856126D01*
X208530711Y-105856126D02*
X208529604Y-105855416D01*
X208529604Y-105855416D02*
X208528465Y-105854756D01*
X208954408Y-109099585D02*
X208954758Y-109096939D01*
D10*
X208946246Y-106270939D02*
X208534768Y-105859461D01*
D11*
X208950945Y-106277245D02*
X208950287Y-106276105D01*
X206424165Y-109329400D02*
X206425375Y-109329632D01*
X204809700Y-107402389D02*
X204809700Y-107402389D01*
X206430192Y-109329920D02*
X206431380Y-109329836D01*
X206665576Y-106027001D02*
X206663265Y-106028760D01*
X205727893Y-105855133D02*
X205726757Y-105854472D01*
X206428995Y-109329942D02*
X206430192Y-109329920D01*
X206425375Y-109329632D02*
X206426585Y-109329798D01*
X205273422Y-106307778D02*
X205274083Y-106308912D01*
X206426585Y-109329798D02*
X206427792Y-109329902D01*
X208042503Y-109220533D02*
X208044918Y-109221764D01*
X208011651Y-109218526D02*
X208014378Y-109217827D01*
X208499058Y-109532941D02*
X208500250Y-109533487D01*
X205271334Y-106302967D02*
X205271773Y-106304206D01*
X208022960Y-109216795D02*
X208025881Y-109216804D01*
X205272042Y-106280834D02*
X205271584Y-106282078D01*
X205272268Y-106305423D02*
X205272817Y-106306614D01*
X206678640Y-106011129D02*
X206677209Y-106013659D01*
X206440331Y-109327053D02*
X206441349Y-109326452D01*
X205401661Y-108123919D02*
X205404037Y-108125684D01*
X206792207Y-105412121D02*
X206791813Y-105413372D01*
X207795577Y-109329961D02*
X207796781Y-109329921D01*
X205272817Y-106306614D02*
X205273422Y-106307778D01*
X204820813Y-108007574D02*
X204822881Y-108009242D01*
X205695042Y-109531348D02*
X205696180Y-109532004D01*
X205273653Y-109109542D02*
X205274311Y-109110683D01*
X206187311Y-109218573D02*
X206190077Y-109217864D01*
X209412332Y-107995878D02*
X209412837Y-107994653D01*
X205386346Y-108117169D02*
X205386346Y-108117169D01*
X208949856Y-109076779D02*
X208949856Y-109076779D01*
X206434873Y-109329226D02*
X206436007Y-109328905D01*
X205691833Y-109529084D02*
X205692866Y-109529887D01*
X205595052Y-108592683D02*
X205595081Y-108595660D01*
X205406317Y-108127591D02*
X205408484Y-108129626D01*
X206449579Y-109317621D02*
X206450161Y-109316473D01*
X208950287Y-106276105D02*
X208949578Y-106274998D01*
X206177416Y-109223133D02*
X206177416Y-109223133D01*
X209414820Y-107984367D02*
X209414820Y-107984367D01*
X208031682Y-109217348D02*
X208034518Y-109217883D01*
X205594943Y-108598646D02*
X205594640Y-108601621D01*
X208635137Y-108617983D02*
X208633882Y-108615555D01*
X205724362Y-109533452D02*
X205725556Y-109532907D01*
X204823962Y-108010009D02*
X204825072Y-108010728D01*
X205728963Y-109530941D02*
X205728963Y-109530941D01*
X205270565Y-109086333D02*
X205270068Y-109088934D01*
X208505247Y-109535122D02*
X208507847Y-109535616D01*
X206450161Y-109316473D02*
X206450690Y-109315280D01*
X209409812Y-108000561D02*
X209410514Y-107999427D01*
X208949578Y-106274998D02*
X208948819Y-106273924D01*
X209411169Y-107998267D02*
X209411775Y-107997084D01*
X208822897Y-108123954D02*
X208825346Y-108122346D01*
X207783230Y-109326477D02*
X207784247Y-109327077D01*
X205699763Y-109533672D02*
X205701006Y-109534128D01*
X206436007Y-109328905D02*
X206437121Y-109328526D01*
X205592342Y-108578731D02*
X205593231Y-108581322D01*
X205272487Y-109107173D02*
X205273653Y-109109542D01*
X208948819Y-106273924D02*
X208948011Y-106272889D01*
X205386346Y-108117169D02*
X205387641Y-108117435D01*
X208948011Y-106272889D02*
X208947153Y-106271892D01*
X206663265Y-106028760D02*
X206660886Y-106030342D01*
X208947153Y-106271892D02*
X208946246Y-106270939D01*
D10*
X205606995Y-106833895D02*
X205433640Y-107238253D01*
D11*
X205728997Y-105855850D02*
X205727893Y-105855133D01*
X206227509Y-106195857D02*
X206224809Y-106194913D01*
X204828560Y-108012580D02*
X204829771Y-108013089D01*
X204809732Y-107401076D02*
X204809700Y-107402389D01*
X208946246Y-106270939D02*
X208946246Y-106270939D01*
X204809989Y-107398464D02*
X204809829Y-107399766D01*
X208952111Y-106279612D02*
X208950945Y-106277245D01*
X205271716Y-109082553D02*
X205271278Y-109083793D01*
X209403725Y-108007608D02*
X209404709Y-108006710D01*
X208808902Y-108138770D02*
X208810449Y-108136377D01*
X206256450Y-106196272D02*
X206253738Y-106196993D01*
X208954512Y-106297831D02*
X208954797Y-106295191D01*
X208518454Y-109535476D02*
X208521056Y-109534921D01*
X205690840Y-109528231D02*
X205691833Y-109529084D01*
X209389746Y-108014566D02*
X209391028Y-108014298D01*
X204810246Y-107989556D02*
X204810527Y-107990842D01*
X208523598Y-109534162D02*
X208526060Y-109533200D01*
X209398331Y-108011431D02*
X209399468Y-108010762D01*
X204815478Y-108001633D02*
X204817099Y-108003753D01*
X207773898Y-109315314D02*
X207773898Y-109315314D01*
D10*
X208534699Y-109527364D02*
X208946245Y-109115887D01*
D11*
X207774427Y-109316507D02*
X207775009Y-109317655D01*
X208827859Y-108120912D02*
X208830417Y-108119665D01*
X205593542Y-108607442D02*
X205592751Y-108610245D01*
X209389746Y-108014566D02*
X209389746Y-108014566D01*
X205269715Y-109094240D02*
X205269856Y-109096905D01*
X208017187Y-109217306D02*
X208020055Y-109216963D01*
X206190077Y-109217864D02*
X206192915Y-109217329D01*
X209393543Y-108013575D02*
X209394773Y-108013123D01*
X206215571Y-109219369D02*
X206218065Y-109220422D01*
X206418186Y-109327249D02*
X206418186Y-109327249D01*
X205725556Y-109532907D02*
X205726722Y-109532307D01*
X206448947Y-109318724D02*
X206449579Y-109317621D01*
X205277438Y-109114898D02*
X205278343Y-109115852D01*
X205410523Y-108131773D02*
X205412415Y-108134017D01*
X205269856Y-109096905D02*
X205270205Y-109099550D01*
X209409065Y-108001667D02*
X209409812Y-108000561D01*
X206682381Y-106000759D02*
X206681772Y-106003356D01*
X208805497Y-108146199D02*
X208805924Y-108144946D01*
D10*
X209414820Y-107984367D02*
X209414889Y-107402424D01*
D11*
X208629653Y-108598681D02*
X208629515Y-108595694D01*
X207784247Y-109327077D02*
X207785291Y-109327623D01*
X208629543Y-108592717D02*
X208629740Y-108589772D01*
X205689889Y-109527330D02*
X205690840Y-109528231D01*
X205726722Y-109532307D02*
X205727859Y-109531652D01*
X208954797Y-106295191D02*
X208954870Y-106292531D01*
X208954870Y-106292531D02*
X208954733Y-106289869D01*
X208954733Y-106289869D02*
X208954387Y-106287227D01*
X205274800Y-106310012D02*
X205274800Y-106310012D01*
X205270262Y-106287227D02*
X205269911Y-106289869D01*
X205414143Y-108136343D02*
X205415692Y-108138736D01*
X206444220Y-109324331D02*
X206445109Y-109323520D01*
X208805497Y-108146199D02*
X208805497Y-108146199D01*
X204829727Y-107373663D02*
X204828515Y-107374177D01*
X208954387Y-106287227D02*
X208953834Y-106284623D01*
X206438215Y-109328091D02*
X206439285Y-109327600D01*
X205274017Y-109077845D02*
X205273359Y-109078979D01*
X208953834Y-106284623D02*
X208953075Y-106282078D01*
X208953075Y-106282078D02*
X208952111Y-106279612D01*
X206858487Y-108329942D02*
X206858962Y-108328716D01*
X207806402Y-109327283D02*
X207806402Y-109327283D01*
D10*
X208949856Y-109076779D02*
X208636545Y-108620242D01*
X208838208Y-108117203D02*
X209389746Y-108014566D01*
D11*
X204810866Y-107992116D02*
X204811262Y-107993375D01*
X208954014Y-106300429D02*
X208954512Y-106297831D01*
X208838208Y-108117203D02*
X208838208Y-108117203D01*
X207794380Y-109329939D02*
X207795577Y-109329961D01*
X208952885Y-109082587D02*
X208952390Y-109081369D01*
X208496761Y-109531686D02*
X208497894Y-109532341D01*
X208949857Y-106310012D02*
X208950568Y-106308912D01*
X205692866Y-109529887D02*
X205693937Y-109530642D01*
X208629956Y-108601655D02*
X208629653Y-108598681D01*
X204810527Y-107990842D02*
X204810866Y-107992116D01*
X208631359Y-108581356D02*
X208632247Y-108578765D01*
X204825072Y-108010728D02*
X204826209Y-108011397D01*
X208950568Y-106308912D02*
X208951224Y-106307778D01*
X205271522Y-109104705D02*
X205272487Y-109107173D01*
X209392294Y-108013967D02*
X209393543Y-108013575D01*
X204818833Y-107381026D02*
X204817923Y-107381999D01*
X208951224Y-106307778D02*
X208951825Y-106306614D01*
X206859374Y-108327472D02*
X206859725Y-108326211D01*
X206798170Y-105401932D02*
X206796506Y-105404000D01*
X208631837Y-108610279D02*
X208631050Y-108607477D01*
X209395982Y-108012614D02*
X209397168Y-108012049D01*
X208632782Y-108612979D02*
X208631837Y-108610279D01*
X209402707Y-108008464D02*
X209403725Y-108007608D01*
X205269911Y-106289869D02*
X205269770Y-106292531D01*
X205727859Y-109531652D02*
X205728963Y-109530941D01*
X207786361Y-109328113D02*
X207787454Y-109328547D01*
X208951825Y-106306614D02*
X208952371Y-106305423D01*
X205417044Y-108141181D02*
X205418183Y-108143662D01*
X206658454Y-106031728D02*
X206655983Y-106032903D01*
X205716794Y-105851165D02*
X205714152Y-105850880D01*
X205274378Y-106276105D02*
X205273719Y-106277245D01*
X208952371Y-106305423D02*
X208952863Y-106304206D01*
X208014378Y-109217827D02*
X208017187Y-109217306D01*
X208951561Y-109108406D02*
X208952120Y-109107207D01*
X208952863Y-106304206D02*
X208953301Y-106302967D01*
X208953301Y-106302967D02*
X208954014Y-106300429D01*
X208632247Y-108578765D02*
X208633312Y-108576319D01*
X208833006Y-108118621D02*
X208834307Y-108118180D01*
X205591276Y-108576285D02*
X205592342Y-108578731D01*
X205723143Y-109533943D02*
X205724362Y-109533452D01*
X206248034Y-106197915D02*
X206245087Y-106198119D01*
X208636545Y-108620242D02*
X208636545Y-108620242D01*
X205714117Y-109535863D02*
X205716759Y-109535582D01*
X204821781Y-107378338D02*
X204820764Y-107379194D01*
X205271278Y-109083793D02*
X205270565Y-109086333D01*
X208949857Y-106310012D02*
X208949857Y-106310012D01*
X207777814Y-109321779D02*
X207778624Y-109322689D01*
X204822831Y-107377526D02*
X204821781Y-107378338D01*
X204820764Y-107379194D02*
X204819781Y-107380090D01*
X204818882Y-108005739D02*
X204820813Y-108007574D01*
X206682381Y-106000759D02*
X206682381Y-106000759D01*
X206210224Y-109217798D02*
X206212950Y-109218494D01*
X208950290Y-109110718D02*
X208950950Y-109109577D01*
D10*
X204834808Y-108014532D02*
X205386346Y-108117169D01*
D11*
X208510488Y-109535897D02*
X208513149Y-109535966D01*
X204833523Y-108014265D02*
X204834808Y-108014532D01*
X205590692Y-108615521D02*
X205589428Y-108617949D01*
X206195803Y-109216969D02*
X206198719Y-109216783D01*
X205391541Y-108118587D02*
X205394130Y-108119631D01*
X208004178Y-109221688D02*
X208004178Y-109221688D01*
X206261479Y-106194305D02*
X206259038Y-106195377D01*
X208951234Y-109079013D02*
X208950573Y-109077879D01*
X206242107Y-106198155D02*
X206239117Y-106198024D01*
X208954042Y-109086367D02*
X208953711Y-109085088D01*
X209414307Y-107989591D02*
X209414529Y-107988295D01*
X205720639Y-109534760D02*
X205721901Y-109534379D01*
X205272756Y-109080143D02*
X205272209Y-109081335D01*
X208513149Y-109535966D02*
X208515811Y-109535825D01*
X205697348Y-109532610D02*
X205698543Y-109533166D01*
D10*
X205419090Y-108146165D02*
X205591276Y-108576285D01*
D11*
X206445109Y-109323520D02*
X206445960Y-109322659D01*
X205270068Y-109088934D02*
X205269785Y-109091576D01*
X205594854Y-108589738D02*
X205595052Y-108592683D01*
X204825023Y-107376038D02*
X204823912Y-107376759D01*
X206192915Y-109217329D02*
X206195803Y-109216969D01*
X204827373Y-108012015D02*
X204828560Y-108012580D01*
X205594640Y-108601621D02*
X205594172Y-108604560D01*
X208820528Y-108125718D02*
X208822897Y-108123954D01*
X209414025Y-107990876D02*
X209414307Y-107989591D01*
X205594485Y-108586848D02*
X205594854Y-108589738D01*
X208950573Y-109077879D02*
X208949856Y-109076779D01*
X205394130Y-108119631D02*
X205396691Y-108120878D01*
X205593231Y-108581322D02*
X205593945Y-108584036D01*
X205275776Y-109112866D02*
X205276583Y-109113902D01*
X208630422Y-108604594D02*
X208629956Y-108601655D01*
X208630107Y-108586882D02*
X208630646Y-108584069D01*
X208949580Y-109111826D02*
X208950290Y-109110718D01*
X205274731Y-109076744D02*
X205274017Y-109077845D01*
X205412415Y-108134017D02*
X205414143Y-108136343D01*
X208533751Y-109528265D02*
X208534699Y-109527364D01*
X204822881Y-108009242D02*
X204823962Y-108010009D01*
X205278412Y-106270939D02*
X205277507Y-106271892D01*
X205273719Y-106277245D02*
X205273110Y-106278415D01*
X206673854Y-106018524D02*
X206671959Y-106020825D01*
X208825346Y-108122346D02*
X208827859Y-108120912D01*
X208006529Y-109220456D02*
X208009027Y-109219401D01*
X204812176Y-107390896D02*
X204811673Y-107392118D01*
X205271584Y-106282078D02*
X205270821Y-106284623D01*
X208948011Y-109113936D02*
X208948820Y-109112900D01*
X205703549Y-109534887D02*
X205706151Y-109535442D01*
X206671959Y-106020825D02*
X206669938Y-106023016D01*
X208636545Y-108620242D02*
X208635137Y-108617983D01*
X208034518Y-109217883D02*
X208037281Y-109218592D01*
X207785291Y-109327623D02*
X207786361Y-109328113D01*
X208816093Y-108129660D02*
X208818254Y-108127626D01*
X208531730Y-109529921D02*
X208532761Y-109529118D01*
D10*
X208620414Y-106790178D02*
X208949857Y-106310012D01*
D11*
X206795022Y-105406190D02*
X206794353Y-105407328D01*
X208521056Y-109534921D02*
X208523598Y-109534162D01*
X208948820Y-109112900D02*
X208949580Y-109111826D01*
X206655983Y-106032903D02*
X206653488Y-106033848D01*
X208807550Y-108141215D02*
X208808902Y-108138770D01*
X208497894Y-109532341D02*
X208499058Y-109532941D01*
X205272209Y-109081335D02*
X205271716Y-109082553D01*
X204814687Y-107386226D02*
X204813987Y-107387356D01*
D10*
X208047172Y-109223167D02*
X208495660Y-109530975D01*
D11*
X208037281Y-109218592D02*
X208039951Y-109219476D01*
X209406569Y-108004798D02*
X209407442Y-108003787D01*
X208530661Y-109530676D02*
X208531730Y-109529921D01*
X205388940Y-108117762D02*
X205391541Y-108118587D01*
X204817923Y-107381999D02*
X204817052Y-107383007D01*
X205591276Y-108576285D02*
X205591276Y-108576285D01*
X206681772Y-106003356D02*
X206680936Y-106005961D01*
X205698543Y-109533166D02*
X205699763Y-109533672D01*
X207802826Y-109328767D02*
X207804027Y-109328340D01*
X206201642Y-109216772D02*
X206204548Y-109216937D01*
X209414529Y-107988295D02*
X209414689Y-107986991D01*
X208953711Y-109085088D02*
X208953325Y-109083827D01*
D10*
X204809700Y-107402389D02*
X204809734Y-107984333D01*
D11*
X208806410Y-108143696D02*
X208807550Y-108141215D01*
X206858962Y-108328716D02*
X206859374Y-108327472D01*
X205418666Y-108144912D02*
X205419090Y-108146165D01*
X205716759Y-109535582D02*
X205718066Y-109535362D01*
X208952390Y-109081369D02*
X208951840Y-109080177D01*
X205269785Y-109091576D02*
X205269715Y-109094240D01*
X206239117Y-106198024D02*
X206236140Y-106197727D01*
X205718066Y-109535362D02*
X205719360Y-109535088D01*
X206250925Y-106197540D02*
X206248034Y-106197915D01*
X206212950Y-109218494D02*
X206215571Y-109219369D01*
X204811673Y-107392118D02*
X204811223Y-107393359D01*
X206446771Y-109321748D02*
X206447541Y-109320788D01*
D10*
X206791209Y-105415927D02*
X206682381Y-106000759D01*
X205728963Y-109530941D02*
X206177416Y-109223133D01*
D11*
X207800411Y-109329423D02*
X207801620Y-109329128D01*
X208047172Y-109223167D02*
X208047172Y-109223167D01*
X205588008Y-108620208D02*
X205588008Y-108620208D01*
X204810829Y-107394615D02*
X204810490Y-107395886D01*
D10*
X205278343Y-109115852D02*
X205689889Y-109527330D01*
D11*
X208044918Y-109221764D02*
X208047172Y-109223167D01*
X209407442Y-108003787D02*
X209408274Y-108002743D01*
X205593945Y-108584036D02*
X205594485Y-108586848D01*
X206793170Y-105409679D02*
X206792660Y-105410890D01*
X205269839Y-106295191D02*
X205270122Y-106297831D01*
X204827326Y-107374745D02*
X204826161Y-107375366D01*
X204834808Y-108014532D02*
X204834808Y-108014532D01*
X205269770Y-106292531D02*
X205269839Y-106295191D01*
X209400577Y-108010043D02*
X209401658Y-108009276D01*
X209414689Y-107986991D02*
X209414787Y-107985681D01*
X206443296Y-109325090D02*
X206444220Y-109324331D01*
X208495660Y-109530975D02*
X208495660Y-109530975D01*
X208526060Y-109533200D02*
X208528421Y-109532038D01*
X205270122Y-106297831D02*
X205270343Y-106299136D01*
X208495660Y-109530975D02*
X208496761Y-109531686D01*
X207793192Y-109329855D02*
X207794380Y-109329939D01*
X209413288Y-107993409D02*
X209413685Y-107992150D01*
X207801620Y-109329128D02*
X207802826Y-109328767D01*
X205591801Y-108612945D02*
X205590692Y-108615521D01*
X208009027Y-109219401D02*
X208011651Y-109218526D01*
X205689889Y-109527330D02*
X205689889Y-109527330D01*
X205701006Y-109534128D02*
X205703549Y-109534887D01*
X205595081Y-108595660D02*
X205594943Y-108598646D01*
X206791480Y-105414642D02*
X206791209Y-105415927D01*
X204809734Y-107984333D02*
X204809767Y-107985647D01*
X207787454Y-109328547D02*
X207788568Y-109328925D01*
X206431380Y-109329836D02*
X206432558Y-109329693D01*
X205278343Y-109115852D02*
X205278343Y-109115852D01*
X205708794Y-109535791D02*
X205711456Y-109535932D01*
X207788568Y-109328925D02*
X207789700Y-109329246D01*
X205270205Y-109099550D02*
X205270761Y-109102157D01*
X205711456Y-109535932D02*
X205714117Y-109535863D01*
X205594172Y-108604560D02*
X205593542Y-108607442D01*
X205396691Y-108120878D02*
X205399207Y-108122312D01*
X205721901Y-109534379D02*
X205723143Y-109533943D01*
X206793735Y-105408491D02*
X206793170Y-105409679D01*
X208954758Y-109096939D02*
X208954898Y-109094274D01*
X205719360Y-109535088D02*
X205720639Y-109534760D01*
X204834774Y-107372190D02*
X204833486Y-107372467D01*
X206233198Y-106197266D02*
X206230313Y-106196642D01*
X208502708Y-109534413D02*
X208505247Y-109535122D01*
X205275019Y-109111792D02*
X205275776Y-109112866D01*
X208631050Y-108607477D02*
X208630422Y-108604594D01*
X206182086Y-109220509D02*
X206184640Y-109219455D01*
X206450690Y-109315280D02*
X206450690Y-109315280D01*
X205696180Y-109532004D02*
X205697348Y-109532610D01*
X208836910Y-108117469D02*
X208838208Y-108117203D01*
X208954826Y-109091610D02*
X208954542Y-109088968D01*
X208818254Y-108127626D02*
X208820528Y-108125718D01*
D10*
X205588008Y-108620208D02*
X205274731Y-109076744D01*
D11*
X205270343Y-106299136D02*
X205270619Y-106300429D01*
X206419366Y-109327815D02*
X206420556Y-109328312D01*
X209401658Y-108009276D02*
X209402707Y-108008464D01*
X208004178Y-109221688D02*
X208006529Y-109220456D01*
D10*
X207366135Y-108329942D02*
X207773898Y-109315314D01*
D11*
X209405658Y-108005773D02*
X209406569Y-108004798D01*
X207790850Y-109329508D02*
X207792015Y-109329712D01*
X206184640Y-109219455D02*
X206187311Y-109218573D01*
X208954898Y-109094274D02*
X208954826Y-109091610D01*
X206660886Y-106030342D02*
X206658454Y-106031728D01*
X208630646Y-108584069D02*
X208631359Y-108581356D01*
X204826161Y-107375366D02*
X204825023Y-107376038D01*
X206677209Y-106013659D02*
X206675609Y-106016129D01*
X204814031Y-107999393D02*
X204815478Y-108001633D01*
X209397168Y-108012049D02*
X209398331Y-108011431D01*
X204809734Y-107984333D02*
X204809734Y-107984333D01*
X204811262Y-107993375D02*
X204811712Y-107994618D01*
X209399468Y-108010762D02*
X209400577Y-108010043D01*
X205274311Y-109110683D02*
X205275019Y-109111792D01*
X208528421Y-109532038D02*
X208529557Y-109531382D01*
X204817052Y-107383007D02*
X204816221Y-107384049D01*
X208947153Y-109114933D02*
X208948011Y-109113936D01*
X207781285Y-109325118D02*
X207782242Y-109325824D01*
X204811712Y-107994618D02*
X204812771Y-107997050D01*
X208946245Y-109115887D02*
X208947153Y-109114933D01*
X205419090Y-108146165D02*
X205419090Y-108146165D01*
X207796781Y-109329921D02*
X207797989Y-109329819D01*
X206858487Y-108329942D02*
X206858487Y-108329942D01*
X206224809Y-106194913D02*
X206222235Y-106193812D01*
X204831003Y-108013541D02*
X204832254Y-108013933D01*
X205418183Y-108143662D02*
X205418666Y-108144912D01*
X204810490Y-107395886D02*
X204810210Y-107397170D01*
D10*
X206220410Y-109221654D02*
X206418186Y-109327249D01*
D11*
X208507847Y-109535616D02*
X208510488Y-109535897D01*
X206179670Y-109221735D02*
X206182086Y-109220509D01*
X207782242Y-109325824D02*
X207783230Y-109326477D01*
X208629515Y-108595694D02*
X208629543Y-108592717D01*
X204813335Y-107388513D02*
X204812730Y-107389693D01*
X207792015Y-109329712D02*
X207793192Y-109329855D01*
X207799200Y-109329653D02*
X207800411Y-109329423D01*
X205271773Y-106304206D02*
X205272268Y-106305423D01*
D10*
X208790983Y-107238253D02*
X208617662Y-106800000D01*
D11*
X206420556Y-109328312D02*
X206421753Y-109328741D01*
X206675609Y-106016129D02*
X206673854Y-106018524D01*
X206796506Y-105404000D02*
X206795740Y-105405080D01*
X206432558Y-109329693D02*
X206433723Y-109329489D01*
X206422957Y-109329104D02*
X206424165Y-109329400D01*
X205278412Y-106270939D02*
X205278412Y-106270939D01*
D10*
X205689923Y-105859461D02*
X205278412Y-106270939D01*
X206217556Y-106191140D02*
X205728997Y-105855850D01*
D11*
X205723178Y-105852821D02*
X205721936Y-105852381D01*
X206795740Y-105405080D02*
X206795022Y-105406190D01*
X208532761Y-109529118D02*
X208533751Y-109528265D01*
X206259038Y-106195377D02*
X206256450Y-106196272D01*
D10*
X206653488Y-106033848D02*
X206261479Y-106194305D01*
D11*
X208020055Y-109216963D02*
X208022960Y-109216795D01*
X204819781Y-107380090D02*
X204818833Y-107381026D01*
X205693937Y-109530642D02*
X205695042Y-109531348D01*
X208529557Y-109531382D02*
X208530661Y-109530676D01*
X204809829Y-107399766D02*
X204809732Y-107401076D01*
X207777045Y-109320820D02*
X207777814Y-109321779D01*
X206218065Y-109220422D02*
X206220410Y-109221654D01*
X205415692Y-108138736D02*
X205417044Y-108141181D01*
X206261479Y-106194305D02*
X206261479Y-106194305D01*
X206445960Y-109322659D02*
X206446771Y-109321748D01*
D10*
X209414889Y-107402424D02*
X208824450Y-107267042D01*
D11*
X206253738Y-106196993D02*
X206250925Y-106197540D01*
X205270761Y-109102157D02*
X205271522Y-109104705D01*
X206800000Y-105400000D02*
X206798170Y-105401932D01*
D10*
X205876190Y-117852380D02*
X206209523Y-118852380D01*
X206542857Y-117852380D01*
X207400000Y-118852380D02*
X206828571Y-118852380D01*
X207114285Y-118852380D02*
X207114285Y-117852380D01*
X207019047Y-117995238D01*
X206923809Y-118090476D01*
X206828571Y-118138095D01*
X207828571Y-118757142D02*
X207876190Y-118804761D01*
X207828571Y-118852380D01*
X207780952Y-118804761D01*
X207828571Y-118757142D01*
X207828571Y-118852380D01*
X208495238Y-117852380D02*
X208590476Y-117852380D01*
X208685714Y-117900000D01*
X208733333Y-117947619D01*
X208780952Y-118042857D01*
X208828571Y-118233333D01*
X208828571Y-118471428D01*
X208780952Y-118661904D01*
X208733333Y-118757142D01*
X208685714Y-118804761D01*
X208590476Y-118852380D01*
X208495238Y-118852380D01*
X208400000Y-118804761D01*
X208352380Y-118757142D01*
X208304761Y-118661904D01*
X208257142Y-118471428D01*
X208257142Y-118233333D01*
X208304761Y-118042857D01*
X208352380Y-117947619D01*
X208400000Y-117900000D01*
X208495238Y-117852380D01*
D12*
X154000000Y-113800000D02*
X153000000Y-111800000D01*
D10*
X169050000Y-108278571D02*
X169050000Y-106778571D01*
X169764285Y-107278571D02*
X169764285Y-108278571D01*
X169764285Y-107421428D02*
X169835714Y-107350000D01*
X169978571Y-107278571D01*
X170192857Y-107278571D01*
X170335714Y-107350000D01*
X170407142Y-107492857D01*
X170407142Y-108278571D01*
X170907142Y-107278571D02*
X171478571Y-107278571D01*
X171121428Y-108278571D02*
X171121428Y-106992857D01*
X171192857Y-106850000D01*
X171335714Y-106778571D01*
X171478571Y-106778571D01*
X171978571Y-108278571D02*
X171978571Y-107278571D01*
X171978571Y-107564285D02*
X172050000Y-107421428D01*
X172121428Y-107350000D01*
X172264285Y-107278571D01*
X172407142Y-107278571D01*
X173550000Y-108278571D02*
X173550000Y-107492857D01*
X173478571Y-107350000D01*
X173335714Y-107278571D01*
X173050000Y-107278571D01*
X172907142Y-107350000D01*
X173550000Y-108207142D02*
X173407142Y-108278571D01*
X173050000Y-108278571D01*
X172907142Y-108207142D01*
X172835714Y-108064285D01*
X172835714Y-107921428D01*
X172907142Y-107778571D01*
X173050000Y-107707142D01*
X173407142Y-107707142D01*
X173550000Y-107635714D01*
X174264285Y-108278571D02*
X174264285Y-107278571D01*
X174264285Y-107564285D02*
X174335714Y-107421428D01*
X174407142Y-107350000D01*
X174550000Y-107278571D01*
X174692857Y-107278571D01*
X175764285Y-108207142D02*
X175621428Y-108278571D01*
X175335714Y-108278571D01*
X175192857Y-108207142D01*
X175121428Y-108064285D01*
X175121428Y-107492857D01*
X175192857Y-107350000D01*
X175335714Y-107278571D01*
X175621428Y-107278571D01*
X175764285Y-107350000D01*
X175835714Y-107492857D01*
X175835714Y-107635714D01*
X175121428Y-107778571D01*
X177121428Y-108278571D02*
X177121428Y-106778571D01*
X177121428Y-108207142D02*
X176978571Y-108278571D01*
X176692857Y-108278571D01*
X176550000Y-108207142D01*
X176478571Y-108135714D01*
X176407142Y-107992857D01*
X176407142Y-107564285D01*
X176478571Y-107421428D01*
X176550000Y-107350000D01*
X176692857Y-107278571D01*
X176978571Y-107278571D01*
X177121428Y-107350000D01*
X179835714Y-108278571D02*
X179335714Y-107564285D01*
X178978571Y-108278571D02*
X178978571Y-106778571D01*
X179550000Y-106778571D01*
X179692857Y-106850000D01*
X179764285Y-106921428D01*
X179835714Y-107064285D01*
X179835714Y-107278571D01*
X179764285Y-107421428D01*
X179692857Y-107492857D01*
X179550000Y-107564285D01*
X178978571Y-107564285D01*
X181050000Y-108207142D02*
X180907142Y-108278571D01*
X180621428Y-108278571D01*
X180478571Y-108207142D01*
X180407142Y-108064285D01*
X180407142Y-107492857D01*
X180478571Y-107350000D01*
X180621428Y-107278571D01*
X180907142Y-107278571D01*
X181050000Y-107350000D01*
X181121428Y-107492857D01*
X181121428Y-107635714D01*
X180407142Y-107778571D01*
X182407142Y-108207142D02*
X182264285Y-108278571D01*
X181978571Y-108278571D01*
X181835714Y-108207142D01*
X181764285Y-108135714D01*
X181692857Y-107992857D01*
X181692857Y-107564285D01*
X181764285Y-107421428D01*
X181835714Y-107350000D01*
X181978571Y-107278571D01*
X182264285Y-107278571D01*
X182407142Y-107350000D01*
X183621428Y-108207142D02*
X183478571Y-108278571D01*
X183192857Y-108278571D01*
X183050000Y-108207142D01*
X182978571Y-108064285D01*
X182978571Y-107492857D01*
X183050000Y-107350000D01*
X183192857Y-107278571D01*
X183478571Y-107278571D01*
X183621428Y-107350000D01*
X183692857Y-107492857D01*
X183692857Y-107635714D01*
X182978571Y-107778571D01*
X184335714Y-108278571D02*
X184335714Y-107278571D01*
X184335714Y-106778571D02*
X184264285Y-106850000D01*
X184335714Y-106921428D01*
X184407142Y-106850000D01*
X184335714Y-106778571D01*
X184335714Y-106921428D01*
X184907142Y-107278571D02*
X185264285Y-108278571D01*
X185621428Y-107278571D01*
X186764285Y-108207142D02*
X186621428Y-108278571D01*
X186335714Y-108278571D01*
X186192857Y-108207142D01*
X186121428Y-108064285D01*
X186121428Y-107492857D01*
X186192857Y-107350000D01*
X186335714Y-107278571D01*
X186621428Y-107278571D01*
X186764285Y-107350000D01*
X186835714Y-107492857D01*
X186835714Y-107635714D01*
X186121428Y-107778571D01*
X188550000Y-107850000D02*
X189264285Y-107850000D01*
X188407142Y-108278571D02*
X188907142Y-106778571D01*
X189407142Y-108278571D01*
X189907142Y-108278571D02*
X189907142Y-107278571D01*
X189907142Y-107564285D02*
X189978571Y-107421428D01*
X190050000Y-107350000D01*
X190192857Y-107278571D01*
X190335714Y-107278571D01*
X190835714Y-108278571D02*
X190835714Y-107278571D01*
X190835714Y-107564285D02*
X190907142Y-107421428D01*
X190978571Y-107350000D01*
X191121428Y-107278571D01*
X191264285Y-107278571D01*
X192407142Y-108278571D02*
X192407142Y-107492857D01*
X192335714Y-107350000D01*
X192192857Y-107278571D01*
X191907142Y-107278571D01*
X191764285Y-107350000D01*
X192407142Y-108207142D02*
X192264285Y-108278571D01*
X191907142Y-108278571D01*
X191764285Y-108207142D01*
X191692857Y-108064285D01*
X191692857Y-107921428D01*
X191764285Y-107778571D01*
X191907142Y-107707142D01*
X192264285Y-107707142D01*
X192407142Y-107635714D01*
X192978571Y-107278571D02*
X193335714Y-108278571D01*
X193692857Y-107278571D02*
X193335714Y-108278571D01*
X193192857Y-108635714D01*
X193121428Y-108707142D01*
X192978571Y-108778571D01*
D12*
X155000000Y-111800000D02*
X154000000Y-113800000D01*
X153000000Y-111800000D02*
X155000000Y-111800000D01*
X153000000Y-113800000D02*
X155000000Y-113800000D01*
X154000000Y-110800000D02*
X154000000Y-114800000D01*
X207090000Y-113061252D02*
X207090000Y-112538748D01*
X208510000Y-113061252D02*
X208510000Y-112538748D01*
X141270000Y-117850000D02*
X143930000Y-117850000D01*
X141270000Y-110170000D02*
X141270000Y-117850000D01*
X143930000Y-110170000D02*
X143930000Y-117850000D01*
X141270000Y-110170000D02*
X143930000Y-110170000D01*
X141270000Y-108900000D02*
X141270000Y-107570000D01*
X141270000Y-107570000D02*
X142600000Y-107570000D01*
X149010000Y-115461252D02*
X149010000Y-114938748D01*
X147590000Y-115461252D02*
X147590000Y-114938748D01*
D10*
X147825000Y-109500000D02*
X146575000Y-109500000D01*
X147825000Y-112675000D02*
X151175000Y-112675000D01*
X147825000Y-109325000D02*
X151175000Y-109325000D01*
X147825000Y-112675000D02*
X147825000Y-112425000D01*
X151175000Y-112675000D02*
X151175000Y-112425000D01*
X151175000Y-109325000D02*
X151175000Y-109575000D01*
X147825000Y-109325000D02*
X147825000Y-109500000D01*
D12*
X200500000Y-115960000D02*
X205500000Y-115960000D01*
X200500000Y-110750000D02*
X200500000Y-115960000D01*
X205500000Y-115960000D02*
X205500000Y-110750000D01*
X195500000Y-115960000D02*
X200500000Y-115960000D01*
X195500000Y-110750000D02*
X195500000Y-115960000D01*
X200500000Y-115960000D02*
X200500000Y-110750000D01*
X190500000Y-115960000D02*
X195500000Y-115960000D01*
X190500000Y-110750000D02*
X190500000Y-115960000D01*
X195500000Y-115960000D02*
X195500000Y-110750000D01*
X185500000Y-115960000D02*
X190500000Y-115960000D01*
X185500000Y-110750000D02*
X185500000Y-115960000D01*
X190500000Y-115960000D02*
X190500000Y-110750000D01*
X180500000Y-115960000D02*
X185500000Y-115960000D01*
X180500000Y-110750000D02*
X180500000Y-115960000D01*
X185500000Y-115960000D02*
X185500000Y-110750000D01*
X175500000Y-115960000D02*
X180500000Y-115960000D01*
X175500000Y-110750000D02*
X175500000Y-115960000D01*
X180500000Y-115960000D02*
X180500000Y-110750000D01*
X170500000Y-115960000D02*
X175500000Y-115960000D01*
X170500000Y-110750000D02*
X170500000Y-115960000D01*
X175500000Y-115960000D02*
X175500000Y-110750000D01*
X165500000Y-115960000D02*
X170500000Y-115960000D01*
X165500000Y-110750000D02*
X165500000Y-115960000D01*
X170500000Y-115960000D02*
X170500000Y-110750000D01*
X160500000Y-115960000D02*
X165500000Y-115960000D01*
X160500000Y-110750000D02*
X160500000Y-115960000D01*
X165500000Y-115960000D02*
X165500000Y-110750000D01*
X155500000Y-115960000D02*
X160500000Y-115960000D01*
X155500000Y-110750000D02*
X155500000Y-115960000D01*
X160500000Y-115960000D02*
X160500000Y-110750000D01*
X148397936Y-108310000D02*
X149602064Y-108310000D01*
X148397936Y-106490000D02*
X149602064Y-106490000D01*
X149590000Y-114938748D02*
X149590000Y-115461252D01*
X151010000Y-114938748D02*
X151010000Y-115461252D01*
D10*
X207633333Y-116157142D02*
X207585714Y-116204761D01*
X207442857Y-116252380D01*
X207347619Y-116252380D01*
X207204761Y-116204761D01*
X207109523Y-116109523D01*
X207061904Y-116014285D01*
X207014285Y-115823809D01*
X207014285Y-115680952D01*
X207061904Y-115490476D01*
X207109523Y-115395238D01*
X207204761Y-115300000D01*
X207347619Y-115252380D01*
X207442857Y-115252380D01*
X207585714Y-115300000D01*
X207633333Y-115347619D01*
X207966666Y-115252380D02*
X208585714Y-115252380D01*
X208252380Y-115633333D01*
X208395238Y-115633333D01*
X208490476Y-115680952D01*
X208538095Y-115728571D01*
X208585714Y-115823809D01*
X208585714Y-116061904D01*
X208538095Y-116157142D01*
X208490476Y-116204761D01*
X208395238Y-116252380D01*
X208109523Y-116252380D01*
X208014285Y-116204761D01*
X207966666Y-116157142D01*
X141790476Y-105652380D02*
X142457142Y-106652380D01*
X142457142Y-105652380D02*
X141790476Y-106652380D01*
X143361904Y-106652380D02*
X142790476Y-106652380D01*
X143076190Y-106652380D02*
X143076190Y-105652380D01*
X142980952Y-105795238D01*
X142885714Y-105890476D01*
X142790476Y-105938095D01*
X146952380Y-115366666D02*
X146476190Y-115700000D01*
X146952380Y-115938095D02*
X145952380Y-115938095D01*
X145952380Y-115557142D01*
X146000000Y-115461904D01*
X146047619Y-115414285D01*
X146142857Y-115366666D01*
X146285714Y-115366666D01*
X146380952Y-115414285D01*
X146428571Y-115461904D01*
X146476190Y-115557142D01*
X146476190Y-115938095D01*
X146952380Y-114414285D02*
X146952380Y-114985714D01*
X146952380Y-114700000D02*
X145952380Y-114700000D01*
X146095238Y-114795238D01*
X146190476Y-114890476D01*
X146238095Y-114985714D01*
X145852380Y-111876190D02*
X144852380Y-111876190D01*
X145757142Y-110828571D02*
X145804761Y-110876190D01*
X145852380Y-111019047D01*
X145852380Y-111114285D01*
X145804761Y-111257142D01*
X145709523Y-111352380D01*
X145614285Y-111400000D01*
X145423809Y-111447619D01*
X145280952Y-111447619D01*
X145090476Y-111400000D01*
X144995238Y-111352380D01*
X144900000Y-111257142D01*
X144852380Y-111114285D01*
X144852380Y-111019047D01*
X144900000Y-110876190D01*
X144947619Y-110828571D01*
X145852380Y-109876190D02*
X145852380Y-110447619D01*
X145852380Y-110161904D02*
X144852380Y-110161904D01*
X144995238Y-110257142D01*
X145090476Y-110352380D01*
X145138095Y-110447619D01*
X203952380Y-114214285D02*
X202952380Y-114214285D01*
X202952380Y-113976190D01*
X203000000Y-113833333D01*
X203095238Y-113738095D01*
X203190476Y-113690476D01*
X203380952Y-113642857D01*
X203523809Y-113642857D01*
X203714285Y-113690476D01*
X203809523Y-113738095D01*
X203904761Y-113833333D01*
X203952380Y-113976190D01*
X203952380Y-114214285D01*
X203952380Y-112690476D02*
X203952380Y-113261904D01*
X203952380Y-112976190D02*
X202952380Y-112976190D01*
X203095238Y-113071428D01*
X203190476Y-113166666D01*
X203238095Y-113261904D01*
X202952380Y-112071428D02*
X202952380Y-111976190D01*
X203000000Y-111880952D01*
X203047619Y-111833333D01*
X203142857Y-111785714D01*
X203333333Y-111738095D01*
X203571428Y-111738095D01*
X203761904Y-111785714D01*
X203857142Y-111833333D01*
X203904761Y-111880952D01*
X203952380Y-111976190D01*
X203952380Y-112071428D01*
X203904761Y-112166666D01*
X203857142Y-112214285D01*
X203761904Y-112261904D01*
X203571428Y-112309523D01*
X203333333Y-112309523D01*
X203142857Y-112261904D01*
X203047619Y-112214285D01*
X203000000Y-112166666D01*
X202952380Y-112071428D01*
X198952380Y-113738095D02*
X197952380Y-113738095D01*
X197952380Y-113500000D01*
X198000000Y-113357142D01*
X198095238Y-113261904D01*
X198190476Y-113214285D01*
X198380952Y-113166666D01*
X198523809Y-113166666D01*
X198714285Y-113214285D01*
X198809523Y-113261904D01*
X198904761Y-113357142D01*
X198952380Y-113500000D01*
X198952380Y-113738095D01*
X198952380Y-112690476D02*
X198952380Y-112500000D01*
X198904761Y-112404761D01*
X198857142Y-112357142D01*
X198714285Y-112261904D01*
X198523809Y-112214285D01*
X198142857Y-112214285D01*
X198047619Y-112261904D01*
X198000000Y-112309523D01*
X197952380Y-112404761D01*
X197952380Y-112595238D01*
X198000000Y-112690476D01*
X198047619Y-112738095D01*
X198142857Y-112785714D01*
X198380952Y-112785714D01*
X198476190Y-112738095D01*
X198523809Y-112690476D01*
X198571428Y-112595238D01*
X198571428Y-112404761D01*
X198523809Y-112309523D01*
X198476190Y-112261904D01*
X198380952Y-112214285D01*
X193952380Y-113738095D02*
X192952380Y-113738095D01*
X192952380Y-113500000D01*
X193000000Y-113357142D01*
X193095238Y-113261904D01*
X193190476Y-113214285D01*
X193380952Y-113166666D01*
X193523809Y-113166666D01*
X193714285Y-113214285D01*
X193809523Y-113261904D01*
X193904761Y-113357142D01*
X193952380Y-113500000D01*
X193952380Y-113738095D01*
X193380952Y-112595238D02*
X193333333Y-112690476D01*
X193285714Y-112738095D01*
X193190476Y-112785714D01*
X193142857Y-112785714D01*
X193047619Y-112738095D01*
X193000000Y-112690476D01*
X192952380Y-112595238D01*
X192952380Y-112404761D01*
X193000000Y-112309523D01*
X193047619Y-112261904D01*
X193142857Y-112214285D01*
X193190476Y-112214285D01*
X193285714Y-112261904D01*
X193333333Y-112309523D01*
X193380952Y-112404761D01*
X193380952Y-112595238D01*
X193428571Y-112690476D01*
X193476190Y-112738095D01*
X193571428Y-112785714D01*
X193761904Y-112785714D01*
X193857142Y-112738095D01*
X193904761Y-112690476D01*
X193952380Y-112595238D01*
X193952380Y-112404761D01*
X193904761Y-112309523D01*
X193857142Y-112261904D01*
X193761904Y-112214285D01*
X193571428Y-112214285D01*
X193476190Y-112261904D01*
X193428571Y-112309523D01*
X193380952Y-112404761D01*
X188952380Y-113738095D02*
X187952380Y-113738095D01*
X187952380Y-113500000D01*
X188000000Y-113357142D01*
X188095238Y-113261904D01*
X188190476Y-113214285D01*
X188380952Y-113166666D01*
X188523809Y-113166666D01*
X188714285Y-113214285D01*
X188809523Y-113261904D01*
X188904761Y-113357142D01*
X188952380Y-113500000D01*
X188952380Y-113738095D01*
X187952380Y-112833333D02*
X187952380Y-112166666D01*
X188952380Y-112595238D01*
X183952380Y-113738095D02*
X182952380Y-113738095D01*
X182952380Y-113500000D01*
X183000000Y-113357142D01*
X183095238Y-113261904D01*
X183190476Y-113214285D01*
X183380952Y-113166666D01*
X183523809Y-113166666D01*
X183714285Y-113214285D01*
X183809523Y-113261904D01*
X183904761Y-113357142D01*
X183952380Y-113500000D01*
X183952380Y-113738095D01*
X182952380Y-112309523D02*
X182952380Y-112500000D01*
X183000000Y-112595238D01*
X183047619Y-112642857D01*
X183190476Y-112738095D01*
X183380952Y-112785714D01*
X183761904Y-112785714D01*
X183857142Y-112738095D01*
X183904761Y-112690476D01*
X183952380Y-112595238D01*
X183952380Y-112404761D01*
X183904761Y-112309523D01*
X183857142Y-112261904D01*
X183761904Y-112214285D01*
X183523809Y-112214285D01*
X183428571Y-112261904D01*
X183380952Y-112309523D01*
X183333333Y-112404761D01*
X183333333Y-112595238D01*
X183380952Y-112690476D01*
X183428571Y-112738095D01*
X183523809Y-112785714D01*
X178952380Y-113738095D02*
X177952380Y-113738095D01*
X177952380Y-113500000D01*
X178000000Y-113357142D01*
X178095238Y-113261904D01*
X178190476Y-113214285D01*
X178380952Y-113166666D01*
X178523809Y-113166666D01*
X178714285Y-113214285D01*
X178809523Y-113261904D01*
X178904761Y-113357142D01*
X178952380Y-113500000D01*
X178952380Y-113738095D01*
X177952380Y-112261904D02*
X177952380Y-112738095D01*
X178428571Y-112785714D01*
X178380952Y-112738095D01*
X178333333Y-112642857D01*
X178333333Y-112404761D01*
X178380952Y-112309523D01*
X178428571Y-112261904D01*
X178523809Y-112214285D01*
X178761904Y-112214285D01*
X178857142Y-112261904D01*
X178904761Y-112309523D01*
X178952380Y-112404761D01*
X178952380Y-112642857D01*
X178904761Y-112738095D01*
X178857142Y-112785714D01*
X173952380Y-113738095D02*
X172952380Y-113738095D01*
X172952380Y-113500000D01*
X173000000Y-113357142D01*
X173095238Y-113261904D01*
X173190476Y-113214285D01*
X173380952Y-113166666D01*
X173523809Y-113166666D01*
X173714285Y-113214285D01*
X173809523Y-113261904D01*
X173904761Y-113357142D01*
X173952380Y-113500000D01*
X173952380Y-113738095D01*
X173285714Y-112309523D02*
X173952380Y-112309523D01*
X172904761Y-112547619D02*
X173619047Y-112785714D01*
X173619047Y-112166666D01*
X168952380Y-113738095D02*
X167952380Y-113738095D01*
X167952380Y-113500000D01*
X168000000Y-113357142D01*
X168095238Y-113261904D01*
X168190476Y-113214285D01*
X168380952Y-113166666D01*
X168523809Y-113166666D01*
X168714285Y-113214285D01*
X168809523Y-113261904D01*
X168904761Y-113357142D01*
X168952380Y-113500000D01*
X168952380Y-113738095D01*
X167952380Y-112833333D02*
X167952380Y-112214285D01*
X168333333Y-112547619D01*
X168333333Y-112404761D01*
X168380952Y-112309523D01*
X168428571Y-112261904D01*
X168523809Y-112214285D01*
X168761904Y-112214285D01*
X168857142Y-112261904D01*
X168904761Y-112309523D01*
X168952380Y-112404761D01*
X168952380Y-112690476D01*
X168904761Y-112785714D01*
X168857142Y-112833333D01*
X163952380Y-113738095D02*
X162952380Y-113738095D01*
X162952380Y-113500000D01*
X163000000Y-113357142D01*
X163095238Y-113261904D01*
X163190476Y-113214285D01*
X163380952Y-113166666D01*
X163523809Y-113166666D01*
X163714285Y-113214285D01*
X163809523Y-113261904D01*
X163904761Y-113357142D01*
X163952380Y-113500000D01*
X163952380Y-113738095D01*
X163047619Y-112785714D02*
X163000000Y-112738095D01*
X162952380Y-112642857D01*
X162952380Y-112404761D01*
X163000000Y-112309523D01*
X163047619Y-112261904D01*
X163142857Y-112214285D01*
X163238095Y-112214285D01*
X163380952Y-112261904D01*
X163952380Y-112833333D01*
X163952380Y-112214285D01*
X158952380Y-113738095D02*
X157952380Y-113738095D01*
X157952380Y-113500000D01*
X158000000Y-113357142D01*
X158095238Y-113261904D01*
X158190476Y-113214285D01*
X158380952Y-113166666D01*
X158523809Y-113166666D01*
X158714285Y-113214285D01*
X158809523Y-113261904D01*
X158904761Y-113357142D01*
X158952380Y-113500000D01*
X158952380Y-113738095D01*
X158952380Y-112214285D02*
X158952380Y-112785714D01*
X158952380Y-112500000D02*
X157952380Y-112500000D01*
X158095238Y-112595238D01*
X158190476Y-112690476D01*
X158238095Y-112785714D01*
X152633333Y-107757142D02*
X152585714Y-107804761D01*
X152442857Y-107852380D01*
X152347619Y-107852380D01*
X152204761Y-107804761D01*
X152109523Y-107709523D01*
X152061904Y-107614285D01*
X152014285Y-107423809D01*
X152014285Y-107280952D01*
X152061904Y-107090476D01*
X152109523Y-106995238D01*
X152204761Y-106900000D01*
X152347619Y-106852380D01*
X152442857Y-106852380D01*
X152585714Y-106900000D01*
X152633333Y-106947619D01*
X153014285Y-106947619D02*
X153061904Y-106900000D01*
X153157142Y-106852380D01*
X153395238Y-106852380D01*
X153490476Y-106900000D01*
X153538095Y-106947619D01*
X153585714Y-107042857D01*
X153585714Y-107138095D01*
X153538095Y-107280952D01*
X152966666Y-107852380D01*
X153585714Y-107852380D01*
X152557142Y-115366666D02*
X152604761Y-115414285D01*
X152652380Y-115557142D01*
X152652380Y-115652380D01*
X152604761Y-115795238D01*
X152509523Y-115890476D01*
X152414285Y-115938095D01*
X152223809Y-115985714D01*
X152080952Y-115985714D01*
X151890476Y-115938095D01*
X151795238Y-115890476D01*
X151700000Y-115795238D01*
X151652380Y-115652380D01*
X151652380Y-115557142D01*
X151700000Y-115414285D01*
X151747619Y-115366666D01*
X152652380Y-114414285D02*
X152652380Y-114985714D01*
X152652380Y-114700000D02*
X151652380Y-114700000D01*
X151795238Y-114795238D01*
X151890476Y-114890476D01*
X151938095Y-114985714D01*
M02*
