G04 #@! TF.GenerationSoftware,KiCad,Pcbnew,6.0.0-unknown-ea0edab~86~ubuntu18.04.1*
G04 #@! TF.CreationDate,2019-07-07T16:40:55+02:00*
G04 #@! TF.ProjectId,ir-receiver,69722d72-6563-4656-9976-65722e6b6963,rev?*
G04 #@! TF.SameCoordinates,Original*
G04 #@! TF.FileFunction,Paste,Top*
G04 #@! TF.FilePolarity,Positive*
%FSLAX46Y46*%
G04 Gerber Fmt 4.6, Leading zero omitted, Abs format (unit mm)*
G04 Created by KiCad (PCBNEW 6.0.0-unknown-ea0edab~86~ubuntu18.04.1) date 2019-07-07 16:40:55*
%MOMM*%
%LPD*%
G04 APERTURE LIST*
%ADD10C,0.100000*%
%ADD11C,1.150000*%
%ADD12R,1.450000X0.450000*%
%ADD13C,0.750000*%
%ADD14C,1.425000*%
G04 APERTURE END LIST*
D10*
G36*
X208345671Y-111219030D02*
G01*
X208426777Y-111273223D01*
X208480970Y-111354329D01*
X208500000Y-111449999D01*
X208500000Y-112100001D01*
X208480970Y-112195671D01*
X208426777Y-112276777D01*
X208345671Y-112330970D01*
X208250001Y-112350000D01*
X207349999Y-112350000D01*
X207254329Y-112330970D01*
X207173223Y-112276777D01*
X207119030Y-112195671D01*
X207100000Y-112100001D01*
X207100000Y-111449999D01*
X207119030Y-111354329D01*
X207173223Y-111273223D01*
X207254329Y-111219030D01*
X207349999Y-111200000D01*
X208250001Y-111200000D01*
X208345671Y-111219030D01*
X208345671Y-111219030D01*
G37*
D11*
X207800000Y-111775000D03*
D10*
G36*
X208345671Y-113269030D02*
G01*
X208426777Y-113323223D01*
X208480970Y-113404329D01*
X208500000Y-113499999D01*
X208500000Y-114150001D01*
X208480970Y-114245671D01*
X208426777Y-114326777D01*
X208345671Y-114380970D01*
X208250001Y-114400000D01*
X207349999Y-114400000D01*
X207254329Y-114380970D01*
X207173223Y-114326777D01*
X207119030Y-114245671D01*
X207100000Y-114150001D01*
X207100000Y-113499999D01*
X207119030Y-113404329D01*
X207173223Y-113323223D01*
X207254329Y-113269030D01*
X207349999Y-113250000D01*
X208250001Y-113250000D01*
X208345671Y-113269030D01*
X208345671Y-113269030D01*
G37*
D11*
X207800000Y-113825000D03*
D10*
G36*
X148845671Y-113619030D02*
G01*
X148926777Y-113673223D01*
X148980970Y-113754329D01*
X149000000Y-113849999D01*
X149000000Y-114500001D01*
X148980970Y-114595671D01*
X148926777Y-114676777D01*
X148845671Y-114730970D01*
X148750001Y-114750000D01*
X147849999Y-114750000D01*
X147754329Y-114730970D01*
X147673223Y-114676777D01*
X147619030Y-114595671D01*
X147600000Y-114500001D01*
X147600000Y-113849999D01*
X147619030Y-113754329D01*
X147673223Y-113673223D01*
X147754329Y-113619030D01*
X147849999Y-113600000D01*
X148750001Y-113600000D01*
X148845671Y-113619030D01*
X148845671Y-113619030D01*
G37*
D11*
X148300000Y-114175000D03*
D10*
G36*
X148845671Y-115669030D02*
G01*
X148926777Y-115723223D01*
X148980970Y-115804329D01*
X149000000Y-115899999D01*
X149000000Y-116550001D01*
X148980970Y-116645671D01*
X148926777Y-116726777D01*
X148845671Y-116780970D01*
X148750001Y-116800000D01*
X147849999Y-116800000D01*
X147754329Y-116780970D01*
X147673223Y-116726777D01*
X147619030Y-116645671D01*
X147600000Y-116550001D01*
X147600000Y-115899999D01*
X147619030Y-115804329D01*
X147673223Y-115723223D01*
X147754329Y-115669030D01*
X147849999Y-115650000D01*
X148750001Y-115650000D01*
X148845671Y-115669030D01*
X148845671Y-115669030D01*
G37*
D11*
X148300000Y-116225000D03*
D12*
X151700000Y-110025000D03*
X151700000Y-110675000D03*
X151700000Y-111325000D03*
X151700000Y-111975000D03*
X147300000Y-111975000D03*
X147300000Y-111325000D03*
X147300000Y-110675000D03*
X147300000Y-110025000D03*
D10*
G36*
X205172217Y-110387674D02*
G01*
X205226233Y-110423767D01*
X205262326Y-110477783D01*
X205275000Y-110541500D01*
X205275000Y-110958500D01*
X205262326Y-111022217D01*
X205226233Y-111076233D01*
X205172217Y-111112326D01*
X205108500Y-111125000D01*
X200891500Y-111125000D01*
X200827783Y-111112326D01*
X200773767Y-111076233D01*
X200737674Y-111022217D01*
X200725000Y-110958500D01*
X200725000Y-110541500D01*
X200737674Y-110477783D01*
X200773767Y-110423767D01*
X200827783Y-110387674D01*
X200891500Y-110375000D01*
X205108500Y-110375000D01*
X205172217Y-110387674D01*
X205172217Y-110387674D01*
G37*
D13*
X203000000Y-110750000D03*
D10*
G36*
X205172217Y-114887674D02*
G01*
X205226233Y-114923767D01*
X205262326Y-114977783D01*
X205275000Y-115041500D01*
X205275000Y-115458500D01*
X205262326Y-115522217D01*
X205226233Y-115576233D01*
X205172217Y-115612326D01*
X205108500Y-115625000D01*
X200891500Y-115625000D01*
X200827783Y-115612326D01*
X200773767Y-115576233D01*
X200737674Y-115522217D01*
X200725000Y-115458500D01*
X200725000Y-115041500D01*
X200737674Y-114977783D01*
X200773767Y-114923767D01*
X200827783Y-114887674D01*
X200891500Y-114875000D01*
X205108500Y-114875000D01*
X205172217Y-114887674D01*
X205172217Y-114887674D01*
G37*
D13*
X203000000Y-115250000D03*
D10*
G36*
X200172217Y-110387674D02*
G01*
X200226233Y-110423767D01*
X200262326Y-110477783D01*
X200275000Y-110541500D01*
X200275000Y-110958500D01*
X200262326Y-111022217D01*
X200226233Y-111076233D01*
X200172217Y-111112326D01*
X200108500Y-111125000D01*
X195891500Y-111125000D01*
X195827783Y-111112326D01*
X195773767Y-111076233D01*
X195737674Y-111022217D01*
X195725000Y-110958500D01*
X195725000Y-110541500D01*
X195737674Y-110477783D01*
X195773767Y-110423767D01*
X195827783Y-110387674D01*
X195891500Y-110375000D01*
X200108500Y-110375000D01*
X200172217Y-110387674D01*
X200172217Y-110387674D01*
G37*
D13*
X198000000Y-110750000D03*
D10*
G36*
X200172217Y-114887674D02*
G01*
X200226233Y-114923767D01*
X200262326Y-114977783D01*
X200275000Y-115041500D01*
X200275000Y-115458500D01*
X200262326Y-115522217D01*
X200226233Y-115576233D01*
X200172217Y-115612326D01*
X200108500Y-115625000D01*
X195891500Y-115625000D01*
X195827783Y-115612326D01*
X195773767Y-115576233D01*
X195737674Y-115522217D01*
X195725000Y-115458500D01*
X195725000Y-115041500D01*
X195737674Y-114977783D01*
X195773767Y-114923767D01*
X195827783Y-114887674D01*
X195891500Y-114875000D01*
X200108500Y-114875000D01*
X200172217Y-114887674D01*
X200172217Y-114887674D01*
G37*
D13*
X198000000Y-115250000D03*
D10*
G36*
X195172217Y-110387674D02*
G01*
X195226233Y-110423767D01*
X195262326Y-110477783D01*
X195275000Y-110541500D01*
X195275000Y-110958500D01*
X195262326Y-111022217D01*
X195226233Y-111076233D01*
X195172217Y-111112326D01*
X195108500Y-111125000D01*
X190891500Y-111125000D01*
X190827783Y-111112326D01*
X190773767Y-111076233D01*
X190737674Y-111022217D01*
X190725000Y-110958500D01*
X190725000Y-110541500D01*
X190737674Y-110477783D01*
X190773767Y-110423767D01*
X190827783Y-110387674D01*
X190891500Y-110375000D01*
X195108500Y-110375000D01*
X195172217Y-110387674D01*
X195172217Y-110387674D01*
G37*
D13*
X193000000Y-110750000D03*
D10*
G36*
X195172217Y-114887674D02*
G01*
X195226233Y-114923767D01*
X195262326Y-114977783D01*
X195275000Y-115041500D01*
X195275000Y-115458500D01*
X195262326Y-115522217D01*
X195226233Y-115576233D01*
X195172217Y-115612326D01*
X195108500Y-115625000D01*
X190891500Y-115625000D01*
X190827783Y-115612326D01*
X190773767Y-115576233D01*
X190737674Y-115522217D01*
X190725000Y-115458500D01*
X190725000Y-115041500D01*
X190737674Y-114977783D01*
X190773767Y-114923767D01*
X190827783Y-114887674D01*
X190891500Y-114875000D01*
X195108500Y-114875000D01*
X195172217Y-114887674D01*
X195172217Y-114887674D01*
G37*
D13*
X193000000Y-115250000D03*
D10*
G36*
X190172217Y-110387674D02*
G01*
X190226233Y-110423767D01*
X190262326Y-110477783D01*
X190275000Y-110541500D01*
X190275000Y-110958500D01*
X190262326Y-111022217D01*
X190226233Y-111076233D01*
X190172217Y-111112326D01*
X190108500Y-111125000D01*
X185891500Y-111125000D01*
X185827783Y-111112326D01*
X185773767Y-111076233D01*
X185737674Y-111022217D01*
X185725000Y-110958500D01*
X185725000Y-110541500D01*
X185737674Y-110477783D01*
X185773767Y-110423767D01*
X185827783Y-110387674D01*
X185891500Y-110375000D01*
X190108500Y-110375000D01*
X190172217Y-110387674D01*
X190172217Y-110387674D01*
G37*
D13*
X188000000Y-110750000D03*
D10*
G36*
X190172217Y-114887674D02*
G01*
X190226233Y-114923767D01*
X190262326Y-114977783D01*
X190275000Y-115041500D01*
X190275000Y-115458500D01*
X190262326Y-115522217D01*
X190226233Y-115576233D01*
X190172217Y-115612326D01*
X190108500Y-115625000D01*
X185891500Y-115625000D01*
X185827783Y-115612326D01*
X185773767Y-115576233D01*
X185737674Y-115522217D01*
X185725000Y-115458500D01*
X185725000Y-115041500D01*
X185737674Y-114977783D01*
X185773767Y-114923767D01*
X185827783Y-114887674D01*
X185891500Y-114875000D01*
X190108500Y-114875000D01*
X190172217Y-114887674D01*
X190172217Y-114887674D01*
G37*
D13*
X188000000Y-115250000D03*
D10*
G36*
X185172217Y-110387674D02*
G01*
X185226233Y-110423767D01*
X185262326Y-110477783D01*
X185275000Y-110541500D01*
X185275000Y-110958500D01*
X185262326Y-111022217D01*
X185226233Y-111076233D01*
X185172217Y-111112326D01*
X185108500Y-111125000D01*
X180891500Y-111125000D01*
X180827783Y-111112326D01*
X180773767Y-111076233D01*
X180737674Y-111022217D01*
X180725000Y-110958500D01*
X180725000Y-110541500D01*
X180737674Y-110477783D01*
X180773767Y-110423767D01*
X180827783Y-110387674D01*
X180891500Y-110375000D01*
X185108500Y-110375000D01*
X185172217Y-110387674D01*
X185172217Y-110387674D01*
G37*
D13*
X183000000Y-110750000D03*
D10*
G36*
X185172217Y-114887674D02*
G01*
X185226233Y-114923767D01*
X185262326Y-114977783D01*
X185275000Y-115041500D01*
X185275000Y-115458500D01*
X185262326Y-115522217D01*
X185226233Y-115576233D01*
X185172217Y-115612326D01*
X185108500Y-115625000D01*
X180891500Y-115625000D01*
X180827783Y-115612326D01*
X180773767Y-115576233D01*
X180737674Y-115522217D01*
X180725000Y-115458500D01*
X180725000Y-115041500D01*
X180737674Y-114977783D01*
X180773767Y-114923767D01*
X180827783Y-114887674D01*
X180891500Y-114875000D01*
X185108500Y-114875000D01*
X185172217Y-114887674D01*
X185172217Y-114887674D01*
G37*
D13*
X183000000Y-115250000D03*
D10*
G36*
X180172217Y-110387674D02*
G01*
X180226233Y-110423767D01*
X180262326Y-110477783D01*
X180275000Y-110541500D01*
X180275000Y-110958500D01*
X180262326Y-111022217D01*
X180226233Y-111076233D01*
X180172217Y-111112326D01*
X180108500Y-111125000D01*
X175891500Y-111125000D01*
X175827783Y-111112326D01*
X175773767Y-111076233D01*
X175737674Y-111022217D01*
X175725000Y-110958500D01*
X175725000Y-110541500D01*
X175737674Y-110477783D01*
X175773767Y-110423767D01*
X175827783Y-110387674D01*
X175891500Y-110375000D01*
X180108500Y-110375000D01*
X180172217Y-110387674D01*
X180172217Y-110387674D01*
G37*
D13*
X178000000Y-110750000D03*
D10*
G36*
X180172217Y-114887674D02*
G01*
X180226233Y-114923767D01*
X180262326Y-114977783D01*
X180275000Y-115041500D01*
X180275000Y-115458500D01*
X180262326Y-115522217D01*
X180226233Y-115576233D01*
X180172217Y-115612326D01*
X180108500Y-115625000D01*
X175891500Y-115625000D01*
X175827783Y-115612326D01*
X175773767Y-115576233D01*
X175737674Y-115522217D01*
X175725000Y-115458500D01*
X175725000Y-115041500D01*
X175737674Y-114977783D01*
X175773767Y-114923767D01*
X175827783Y-114887674D01*
X175891500Y-114875000D01*
X180108500Y-114875000D01*
X180172217Y-114887674D01*
X180172217Y-114887674D01*
G37*
D13*
X178000000Y-115250000D03*
D10*
G36*
X175172217Y-110387674D02*
G01*
X175226233Y-110423767D01*
X175262326Y-110477783D01*
X175275000Y-110541500D01*
X175275000Y-110958500D01*
X175262326Y-111022217D01*
X175226233Y-111076233D01*
X175172217Y-111112326D01*
X175108500Y-111125000D01*
X170891500Y-111125000D01*
X170827783Y-111112326D01*
X170773767Y-111076233D01*
X170737674Y-111022217D01*
X170725000Y-110958500D01*
X170725000Y-110541500D01*
X170737674Y-110477783D01*
X170773767Y-110423767D01*
X170827783Y-110387674D01*
X170891500Y-110375000D01*
X175108500Y-110375000D01*
X175172217Y-110387674D01*
X175172217Y-110387674D01*
G37*
D13*
X173000000Y-110750000D03*
D10*
G36*
X175172217Y-114887674D02*
G01*
X175226233Y-114923767D01*
X175262326Y-114977783D01*
X175275000Y-115041500D01*
X175275000Y-115458500D01*
X175262326Y-115522217D01*
X175226233Y-115576233D01*
X175172217Y-115612326D01*
X175108500Y-115625000D01*
X170891500Y-115625000D01*
X170827783Y-115612326D01*
X170773767Y-115576233D01*
X170737674Y-115522217D01*
X170725000Y-115458500D01*
X170725000Y-115041500D01*
X170737674Y-114977783D01*
X170773767Y-114923767D01*
X170827783Y-114887674D01*
X170891500Y-114875000D01*
X175108500Y-114875000D01*
X175172217Y-114887674D01*
X175172217Y-114887674D01*
G37*
D13*
X173000000Y-115250000D03*
D10*
G36*
X170172217Y-110387674D02*
G01*
X170226233Y-110423767D01*
X170262326Y-110477783D01*
X170275000Y-110541500D01*
X170275000Y-110958500D01*
X170262326Y-111022217D01*
X170226233Y-111076233D01*
X170172217Y-111112326D01*
X170108500Y-111125000D01*
X165891500Y-111125000D01*
X165827783Y-111112326D01*
X165773767Y-111076233D01*
X165737674Y-111022217D01*
X165725000Y-110958500D01*
X165725000Y-110541500D01*
X165737674Y-110477783D01*
X165773767Y-110423767D01*
X165827783Y-110387674D01*
X165891500Y-110375000D01*
X170108500Y-110375000D01*
X170172217Y-110387674D01*
X170172217Y-110387674D01*
G37*
D13*
X168000000Y-110750000D03*
D10*
G36*
X170172217Y-114887674D02*
G01*
X170226233Y-114923767D01*
X170262326Y-114977783D01*
X170275000Y-115041500D01*
X170275000Y-115458500D01*
X170262326Y-115522217D01*
X170226233Y-115576233D01*
X170172217Y-115612326D01*
X170108500Y-115625000D01*
X165891500Y-115625000D01*
X165827783Y-115612326D01*
X165773767Y-115576233D01*
X165737674Y-115522217D01*
X165725000Y-115458500D01*
X165725000Y-115041500D01*
X165737674Y-114977783D01*
X165773767Y-114923767D01*
X165827783Y-114887674D01*
X165891500Y-114875000D01*
X170108500Y-114875000D01*
X170172217Y-114887674D01*
X170172217Y-114887674D01*
G37*
D13*
X168000000Y-115250000D03*
D10*
G36*
X165172217Y-110387674D02*
G01*
X165226233Y-110423767D01*
X165262326Y-110477783D01*
X165275000Y-110541500D01*
X165275000Y-110958500D01*
X165262326Y-111022217D01*
X165226233Y-111076233D01*
X165172217Y-111112326D01*
X165108500Y-111125000D01*
X160891500Y-111125000D01*
X160827783Y-111112326D01*
X160773767Y-111076233D01*
X160737674Y-111022217D01*
X160725000Y-110958500D01*
X160725000Y-110541500D01*
X160737674Y-110477783D01*
X160773767Y-110423767D01*
X160827783Y-110387674D01*
X160891500Y-110375000D01*
X165108500Y-110375000D01*
X165172217Y-110387674D01*
X165172217Y-110387674D01*
G37*
D13*
X163000000Y-110750000D03*
D10*
G36*
X165172217Y-114887674D02*
G01*
X165226233Y-114923767D01*
X165262326Y-114977783D01*
X165275000Y-115041500D01*
X165275000Y-115458500D01*
X165262326Y-115522217D01*
X165226233Y-115576233D01*
X165172217Y-115612326D01*
X165108500Y-115625000D01*
X160891500Y-115625000D01*
X160827783Y-115612326D01*
X160773767Y-115576233D01*
X160737674Y-115522217D01*
X160725000Y-115458500D01*
X160725000Y-115041500D01*
X160737674Y-114977783D01*
X160773767Y-114923767D01*
X160827783Y-114887674D01*
X160891500Y-114875000D01*
X165108500Y-114875000D01*
X165172217Y-114887674D01*
X165172217Y-114887674D01*
G37*
D13*
X163000000Y-115250000D03*
D10*
G36*
X160172217Y-110387674D02*
G01*
X160226233Y-110423767D01*
X160262326Y-110477783D01*
X160275000Y-110541500D01*
X160275000Y-110958500D01*
X160262326Y-111022217D01*
X160226233Y-111076233D01*
X160172217Y-111112326D01*
X160108500Y-111125000D01*
X155891500Y-111125000D01*
X155827783Y-111112326D01*
X155773767Y-111076233D01*
X155737674Y-111022217D01*
X155725000Y-110958500D01*
X155725000Y-110541500D01*
X155737674Y-110477783D01*
X155773767Y-110423767D01*
X155827783Y-110387674D01*
X155891500Y-110375000D01*
X160108500Y-110375000D01*
X160172217Y-110387674D01*
X160172217Y-110387674D01*
G37*
D13*
X158000000Y-110750000D03*
D10*
G36*
X160172217Y-114887674D02*
G01*
X160226233Y-114923767D01*
X160262326Y-114977783D01*
X160275000Y-115041500D01*
X160275000Y-115458500D01*
X160262326Y-115522217D01*
X160226233Y-115576233D01*
X160172217Y-115612326D01*
X160108500Y-115625000D01*
X155891500Y-115625000D01*
X155827783Y-115612326D01*
X155773767Y-115576233D01*
X155737674Y-115522217D01*
X155725000Y-115458500D01*
X155725000Y-115041500D01*
X155737674Y-114977783D01*
X155773767Y-114923767D01*
X155827783Y-114887674D01*
X155891500Y-114875000D01*
X160108500Y-114875000D01*
X160172217Y-114887674D01*
X160172217Y-114887674D01*
G37*
D13*
X158000000Y-115250000D03*
D10*
G36*
X151045671Y-106544030D02*
G01*
X151126777Y-106598223D01*
X151180970Y-106679329D01*
X151200000Y-106775000D01*
X151200000Y-108025000D01*
X151180970Y-108120671D01*
X151126777Y-108201777D01*
X151045671Y-108255970D01*
X150950000Y-108275000D01*
X150025000Y-108275000D01*
X149929329Y-108255970D01*
X149848223Y-108201777D01*
X149794030Y-108120671D01*
X149775000Y-108025000D01*
X149775000Y-106775000D01*
X149794030Y-106679329D01*
X149848223Y-106598223D01*
X149929329Y-106544030D01*
X150025000Y-106525000D01*
X150950000Y-106525000D01*
X151045671Y-106544030D01*
X151045671Y-106544030D01*
G37*
D14*
X150487500Y-107400000D03*
D10*
G36*
X148070671Y-106544030D02*
G01*
X148151777Y-106598223D01*
X148205970Y-106679329D01*
X148225000Y-106775000D01*
X148225000Y-108025000D01*
X148205970Y-108120671D01*
X148151777Y-108201777D01*
X148070671Y-108255970D01*
X147975000Y-108275000D01*
X147050000Y-108275000D01*
X146954329Y-108255970D01*
X146873223Y-108201777D01*
X146819030Y-108120671D01*
X146800000Y-108025000D01*
X146800000Y-106775000D01*
X146819030Y-106679329D01*
X146873223Y-106598223D01*
X146954329Y-106544030D01*
X147050000Y-106525000D01*
X147975000Y-106525000D01*
X148070671Y-106544030D01*
X148070671Y-106544030D01*
G37*
D14*
X147512500Y-107400000D03*
D10*
G36*
X150845671Y-115669030D02*
G01*
X150926777Y-115723223D01*
X150980970Y-115804329D01*
X151000000Y-115899999D01*
X151000000Y-116550001D01*
X150980970Y-116645671D01*
X150926777Y-116726777D01*
X150845671Y-116780970D01*
X150750001Y-116800000D01*
X149849999Y-116800000D01*
X149754329Y-116780970D01*
X149673223Y-116726777D01*
X149619030Y-116645671D01*
X149600000Y-116550001D01*
X149600000Y-115899999D01*
X149619030Y-115804329D01*
X149673223Y-115723223D01*
X149754329Y-115669030D01*
X149849999Y-115650000D01*
X150750001Y-115650000D01*
X150845671Y-115669030D01*
X150845671Y-115669030D01*
G37*
D11*
X150300000Y-116225000D03*
D10*
G36*
X150845671Y-113619030D02*
G01*
X150926777Y-113673223D01*
X150980970Y-113754329D01*
X151000000Y-113849999D01*
X151000000Y-114500001D01*
X150980970Y-114595671D01*
X150926777Y-114676777D01*
X150845671Y-114730970D01*
X150750001Y-114750000D01*
X149849999Y-114750000D01*
X149754329Y-114730970D01*
X149673223Y-114676777D01*
X149619030Y-114595671D01*
X149600000Y-114500001D01*
X149600000Y-113849999D01*
X149619030Y-113754329D01*
X149673223Y-113673223D01*
X149754329Y-113619030D01*
X149849999Y-113600000D01*
X150750001Y-113600000D01*
X150845671Y-113619030D01*
X150845671Y-113619030D01*
G37*
D11*
X150300000Y-114175000D03*
M02*
