G04 #@! TF.GenerationSoftware,KiCad,Pcbnew,6.0.0-unknown-ea0edab~86~ubuntu18.04.1*
G04 #@! TF.CreationDate,2019-07-07T11:10:00+02:00*
G04 #@! TF.ProjectId,ir-receiver,69722d72-6563-4656-9976-65722e6b6963,rev?*
G04 #@! TF.SameCoordinates,Original*
G04 #@! TF.FileFunction,Soldermask,Top*
G04 #@! TF.FilePolarity,Negative*
%FSLAX46Y46*%
G04 Gerber Fmt 4.6, Leading zero omitted, Abs format (unit mm)*
G04 Created by KiCad (PCBNEW 6.0.0-unknown-ea0edab~86~ubuntu18.04.1) date 2019-07-07 11:10:00*
%MOMM*%
%LPD*%
G04 APERTURE LIST*
%ADD10C,0.100000*%
G04 APERTURE END LIST*
D10*
G36*
X142788360Y-115633835D02*
G01*
X142869397Y-115660166D01*
X142956663Y-115687848D01*
X142959655Y-115689493D01*
X142968488Y-115692363D01*
X143040466Y-115733919D01*
X143111499Y-115772970D01*
X143118986Y-115779253D01*
X143132511Y-115787061D01*
X143190259Y-115839057D01*
X143246857Y-115886549D01*
X143256962Y-115899118D01*
X143273261Y-115913793D01*
X143315454Y-115971867D01*
X143357579Y-116024260D01*
X143367994Y-116044182D01*
X143384586Y-116067019D01*
X143411297Y-116127012D01*
X143439439Y-116180843D01*
X143447582Y-116208510D01*
X143461621Y-116240042D01*
X143473992Y-116298241D01*
X143489328Y-116350349D01*
X143492518Y-116385401D01*
X143500999Y-116425301D01*
X143500999Y-116478592D01*
X143505343Y-116526324D01*
X143500999Y-116567653D01*
X143500999Y-116614699D01*
X143491217Y-116660721D01*
X143486873Y-116702047D01*
X143472702Y-116747827D01*
X143461621Y-116799958D01*
X143445028Y-116837226D01*
X143434622Y-116870843D01*
X143408789Y-116918620D01*
X143384586Y-116972981D01*
X143364298Y-117000905D01*
X143350580Y-117026276D01*
X143311859Y-117073082D01*
X143273261Y-117126207D01*
X143252284Y-117145095D01*
X143237952Y-117162419D01*
X143185845Y-117204917D01*
X143132511Y-117252939D01*
X143113524Y-117263901D01*
X143101025Y-117274095D01*
X143035780Y-117308786D01*
X142968488Y-117347637D01*
X142953636Y-117352463D01*
X142945003Y-117357053D01*
X142867430Y-117380473D01*
X142788360Y-117406165D01*
X142779114Y-117407137D01*
X142775851Y-117408122D01*
X142684710Y-117417059D01*
X142647211Y-117421000D01*
X142552789Y-117421000D01*
X142411640Y-117406165D01*
X142330603Y-117379834D01*
X142243337Y-117352152D01*
X142240345Y-117350507D01*
X142231512Y-117347637D01*
X142159534Y-117306081D01*
X142088501Y-117267030D01*
X142081014Y-117260747D01*
X142067489Y-117252939D01*
X142009741Y-117200943D01*
X141953143Y-117153451D01*
X141943038Y-117140882D01*
X141926739Y-117126207D01*
X141884546Y-117068133D01*
X141842421Y-117015740D01*
X141832006Y-116995818D01*
X141815414Y-116972981D01*
X141788703Y-116912988D01*
X141760561Y-116859157D01*
X141752418Y-116831490D01*
X141738379Y-116799958D01*
X141726008Y-116741759D01*
X141710672Y-116689651D01*
X141707482Y-116654599D01*
X141699001Y-116614699D01*
X141699001Y-116561408D01*
X141694657Y-116513676D01*
X141699001Y-116472347D01*
X141699001Y-116425301D01*
X141708783Y-116379279D01*
X141713127Y-116337953D01*
X141727298Y-116292173D01*
X141738379Y-116240042D01*
X141754972Y-116202774D01*
X141765378Y-116169157D01*
X141791211Y-116121380D01*
X141815414Y-116067019D01*
X141835702Y-116039095D01*
X141849420Y-116013724D01*
X141888141Y-115966918D01*
X141926739Y-115913793D01*
X141947716Y-115894905D01*
X141962048Y-115877581D01*
X142014155Y-115835083D01*
X142067489Y-115787061D01*
X142086476Y-115776099D01*
X142098975Y-115765905D01*
X142164220Y-115731214D01*
X142231512Y-115692363D01*
X142246364Y-115687537D01*
X142254997Y-115682947D01*
X142332570Y-115659527D01*
X142411640Y-115633835D01*
X142420886Y-115632863D01*
X142424149Y-115631878D01*
X142515290Y-115622941D01*
X142552789Y-115619000D01*
X142647211Y-115619000D01*
X142788360Y-115633835D01*
X142788360Y-115633835D01*
G37*
G36*
X150836756Y-115611764D02*
G01*
X150848227Y-115617288D01*
X150856287Y-115618795D01*
X150873547Y-115629482D01*
X150918638Y-115651197D01*
X150938738Y-115669847D01*
X150951964Y-115678036D01*
X150962265Y-115691676D01*
X150985264Y-115713016D01*
X151007614Y-115751727D01*
X151019781Y-115767839D01*
X151021751Y-115776213D01*
X151029506Y-115789646D01*
X151048419Y-115889601D01*
X151051883Y-115904330D01*
X151051883Y-115907909D01*
X151053194Y-115914838D01*
X151053194Y-116537517D01*
X151038236Y-116636756D01*
X151032712Y-116648227D01*
X151031205Y-116656287D01*
X151020518Y-116673547D01*
X150998803Y-116718638D01*
X150980153Y-116738738D01*
X150971964Y-116751964D01*
X150958324Y-116762265D01*
X150936984Y-116785264D01*
X150898273Y-116807614D01*
X150882161Y-116819781D01*
X150873787Y-116821751D01*
X150860354Y-116829506D01*
X150760399Y-116848419D01*
X150745670Y-116851883D01*
X150742091Y-116851883D01*
X150735162Y-116853194D01*
X149862483Y-116853194D01*
X149763244Y-116838236D01*
X149751773Y-116832712D01*
X149743713Y-116831205D01*
X149726453Y-116820518D01*
X149681362Y-116798803D01*
X149661262Y-116780153D01*
X149648036Y-116771964D01*
X149637735Y-116758324D01*
X149614736Y-116736984D01*
X149592386Y-116698273D01*
X149580219Y-116682161D01*
X149578249Y-116673787D01*
X149570494Y-116660354D01*
X149551581Y-116560399D01*
X149548117Y-116545670D01*
X149548117Y-116542091D01*
X149546806Y-116535162D01*
X149546806Y-115912483D01*
X149561764Y-115813244D01*
X149567288Y-115801773D01*
X149568795Y-115793713D01*
X149579482Y-115776453D01*
X149601197Y-115731362D01*
X149619847Y-115711262D01*
X149628036Y-115698036D01*
X149641676Y-115687735D01*
X149663016Y-115664736D01*
X149701727Y-115642386D01*
X149717839Y-115630219D01*
X149726213Y-115628249D01*
X149739646Y-115620494D01*
X149839601Y-115601581D01*
X149854330Y-115598117D01*
X149857909Y-115598117D01*
X149864838Y-115596806D01*
X150737517Y-115596806D01*
X150836756Y-115611764D01*
X150836756Y-115611764D01*
G37*
G36*
X148836756Y-115611764D02*
G01*
X148848227Y-115617288D01*
X148856287Y-115618795D01*
X148873547Y-115629482D01*
X148918638Y-115651197D01*
X148938738Y-115669847D01*
X148951964Y-115678036D01*
X148962265Y-115691676D01*
X148985264Y-115713016D01*
X149007614Y-115751727D01*
X149019781Y-115767839D01*
X149021751Y-115776213D01*
X149029506Y-115789646D01*
X149048419Y-115889601D01*
X149051883Y-115904330D01*
X149051883Y-115907909D01*
X149053194Y-115914838D01*
X149053194Y-116537517D01*
X149038236Y-116636756D01*
X149032712Y-116648227D01*
X149031205Y-116656287D01*
X149020518Y-116673547D01*
X148998803Y-116718638D01*
X148980153Y-116738738D01*
X148971964Y-116751964D01*
X148958324Y-116762265D01*
X148936984Y-116785264D01*
X148898273Y-116807614D01*
X148882161Y-116819781D01*
X148873787Y-116821751D01*
X148860354Y-116829506D01*
X148760399Y-116848419D01*
X148745670Y-116851883D01*
X148742091Y-116851883D01*
X148735162Y-116853194D01*
X147862483Y-116853194D01*
X147763244Y-116838236D01*
X147751773Y-116832712D01*
X147743713Y-116831205D01*
X147726453Y-116820518D01*
X147681362Y-116798803D01*
X147661262Y-116780153D01*
X147648036Y-116771964D01*
X147637735Y-116758324D01*
X147614736Y-116736984D01*
X147592386Y-116698273D01*
X147580219Y-116682161D01*
X147578249Y-116673787D01*
X147570494Y-116660354D01*
X147551581Y-116560399D01*
X147548117Y-116545670D01*
X147548117Y-116542091D01*
X147546806Y-116535162D01*
X147546806Y-115912483D01*
X147561764Y-115813244D01*
X147567288Y-115801773D01*
X147568795Y-115793713D01*
X147579482Y-115776453D01*
X147601197Y-115731362D01*
X147619847Y-115711262D01*
X147628036Y-115698036D01*
X147641676Y-115687735D01*
X147663016Y-115664736D01*
X147701727Y-115642386D01*
X147717839Y-115630219D01*
X147726213Y-115628249D01*
X147739646Y-115620494D01*
X147839601Y-115601581D01*
X147854330Y-115598117D01*
X147857909Y-115598117D01*
X147864838Y-115596806D01*
X148737517Y-115596806D01*
X148836756Y-115611764D01*
X148836756Y-115611764D01*
G37*
G36*
X185177707Y-114834991D02*
G01*
X185184794Y-114838826D01*
X185190102Y-114839882D01*
X185204405Y-114849439D01*
X185241707Y-114869625D01*
X185253037Y-114881933D01*
X185262047Y-114887953D01*
X185271229Y-114901696D01*
X185290990Y-114923162D01*
X185301344Y-114946767D01*
X185310118Y-114959898D01*
X185312619Y-114972470D01*
X185321286Y-114992229D01*
X185328715Y-115051828D01*
X185328715Y-115445574D01*
X185315009Y-115527707D01*
X185311174Y-115534794D01*
X185310118Y-115540102D01*
X185300561Y-115554405D01*
X185280375Y-115591707D01*
X185268067Y-115603037D01*
X185262047Y-115612047D01*
X185248304Y-115621229D01*
X185226838Y-115640990D01*
X185203233Y-115651344D01*
X185190102Y-115660118D01*
X185177530Y-115662619D01*
X185157771Y-115671286D01*
X185098172Y-115678715D01*
X180904426Y-115678715D01*
X180822293Y-115665009D01*
X180815206Y-115661174D01*
X180809898Y-115660118D01*
X180795595Y-115650561D01*
X180758293Y-115630375D01*
X180746963Y-115618067D01*
X180737953Y-115612047D01*
X180728771Y-115598304D01*
X180709010Y-115576838D01*
X180698656Y-115553233D01*
X180689882Y-115540102D01*
X180687381Y-115527530D01*
X180678714Y-115507771D01*
X180671285Y-115448172D01*
X180671285Y-115054426D01*
X180684991Y-114972293D01*
X180688826Y-114965206D01*
X180689882Y-114959898D01*
X180699439Y-114945595D01*
X180719625Y-114908293D01*
X180731933Y-114896963D01*
X180737953Y-114887953D01*
X180751696Y-114878771D01*
X180773162Y-114859010D01*
X180796767Y-114848656D01*
X180809898Y-114839882D01*
X180822470Y-114837381D01*
X180842229Y-114828714D01*
X180901828Y-114821285D01*
X185095574Y-114821285D01*
X185177707Y-114834991D01*
X185177707Y-114834991D01*
G37*
G36*
X205177707Y-114834991D02*
G01*
X205184794Y-114838826D01*
X205190102Y-114839882D01*
X205204405Y-114849439D01*
X205241707Y-114869625D01*
X205253037Y-114881933D01*
X205262047Y-114887953D01*
X205271229Y-114901696D01*
X205290990Y-114923162D01*
X205301344Y-114946767D01*
X205310118Y-114959898D01*
X205312619Y-114972470D01*
X205321286Y-114992229D01*
X205328715Y-115051828D01*
X205328715Y-115445574D01*
X205315009Y-115527707D01*
X205311174Y-115534794D01*
X205310118Y-115540102D01*
X205300561Y-115554405D01*
X205280375Y-115591707D01*
X205268067Y-115603037D01*
X205262047Y-115612047D01*
X205248304Y-115621229D01*
X205226838Y-115640990D01*
X205203233Y-115651344D01*
X205190102Y-115660118D01*
X205177530Y-115662619D01*
X205157771Y-115671286D01*
X205098172Y-115678715D01*
X200904426Y-115678715D01*
X200822293Y-115665009D01*
X200815206Y-115661174D01*
X200809898Y-115660118D01*
X200795595Y-115650561D01*
X200758293Y-115630375D01*
X200746963Y-115618067D01*
X200737953Y-115612047D01*
X200728771Y-115598304D01*
X200709010Y-115576838D01*
X200698656Y-115553233D01*
X200689882Y-115540102D01*
X200687381Y-115527530D01*
X200678714Y-115507771D01*
X200671285Y-115448172D01*
X200671285Y-115054426D01*
X200684991Y-114972293D01*
X200688826Y-114965206D01*
X200689882Y-114959898D01*
X200699439Y-114945595D01*
X200719625Y-114908293D01*
X200731933Y-114896963D01*
X200737953Y-114887953D01*
X200751696Y-114878771D01*
X200773162Y-114859010D01*
X200796767Y-114848656D01*
X200809898Y-114839882D01*
X200822470Y-114837381D01*
X200842229Y-114828714D01*
X200901828Y-114821285D01*
X205095574Y-114821285D01*
X205177707Y-114834991D01*
X205177707Y-114834991D01*
G37*
G36*
X200177707Y-114834991D02*
G01*
X200184794Y-114838826D01*
X200190102Y-114839882D01*
X200204405Y-114849439D01*
X200241707Y-114869625D01*
X200253037Y-114881933D01*
X200262047Y-114887953D01*
X200271229Y-114901696D01*
X200290990Y-114923162D01*
X200301344Y-114946767D01*
X200310118Y-114959898D01*
X200312619Y-114972470D01*
X200321286Y-114992229D01*
X200328715Y-115051828D01*
X200328715Y-115445574D01*
X200315009Y-115527707D01*
X200311174Y-115534794D01*
X200310118Y-115540102D01*
X200300561Y-115554405D01*
X200280375Y-115591707D01*
X200268067Y-115603037D01*
X200262047Y-115612047D01*
X200248304Y-115621229D01*
X200226838Y-115640990D01*
X200203233Y-115651344D01*
X200190102Y-115660118D01*
X200177530Y-115662619D01*
X200157771Y-115671286D01*
X200098172Y-115678715D01*
X195904426Y-115678715D01*
X195822293Y-115665009D01*
X195815206Y-115661174D01*
X195809898Y-115660118D01*
X195795595Y-115650561D01*
X195758293Y-115630375D01*
X195746963Y-115618067D01*
X195737953Y-115612047D01*
X195728771Y-115598304D01*
X195709010Y-115576838D01*
X195698656Y-115553233D01*
X195689882Y-115540102D01*
X195687381Y-115527530D01*
X195678714Y-115507771D01*
X195671285Y-115448172D01*
X195671285Y-115054426D01*
X195684991Y-114972293D01*
X195688826Y-114965206D01*
X195689882Y-114959898D01*
X195699439Y-114945595D01*
X195719625Y-114908293D01*
X195731933Y-114896963D01*
X195737953Y-114887953D01*
X195751696Y-114878771D01*
X195773162Y-114859010D01*
X195796767Y-114848656D01*
X195809898Y-114839882D01*
X195822470Y-114837381D01*
X195842229Y-114828714D01*
X195901828Y-114821285D01*
X200095574Y-114821285D01*
X200177707Y-114834991D01*
X200177707Y-114834991D01*
G37*
G36*
X195177707Y-114834991D02*
G01*
X195184794Y-114838826D01*
X195190102Y-114839882D01*
X195204405Y-114849439D01*
X195241707Y-114869625D01*
X195253037Y-114881933D01*
X195262047Y-114887953D01*
X195271229Y-114901696D01*
X195290990Y-114923162D01*
X195301344Y-114946767D01*
X195310118Y-114959898D01*
X195312619Y-114972470D01*
X195321286Y-114992229D01*
X195328715Y-115051828D01*
X195328715Y-115445574D01*
X195315009Y-115527707D01*
X195311174Y-115534794D01*
X195310118Y-115540102D01*
X195300561Y-115554405D01*
X195280375Y-115591707D01*
X195268067Y-115603037D01*
X195262047Y-115612047D01*
X195248304Y-115621229D01*
X195226838Y-115640990D01*
X195203233Y-115651344D01*
X195190102Y-115660118D01*
X195177530Y-115662619D01*
X195157771Y-115671286D01*
X195098172Y-115678715D01*
X190904426Y-115678715D01*
X190822293Y-115665009D01*
X190815206Y-115661174D01*
X190809898Y-115660118D01*
X190795595Y-115650561D01*
X190758293Y-115630375D01*
X190746963Y-115618067D01*
X190737953Y-115612047D01*
X190728771Y-115598304D01*
X190709010Y-115576838D01*
X190698656Y-115553233D01*
X190689882Y-115540102D01*
X190687381Y-115527530D01*
X190678714Y-115507771D01*
X190671285Y-115448172D01*
X190671285Y-115054426D01*
X190684991Y-114972293D01*
X190688826Y-114965206D01*
X190689882Y-114959898D01*
X190699439Y-114945595D01*
X190719625Y-114908293D01*
X190731933Y-114896963D01*
X190737953Y-114887953D01*
X190751696Y-114878771D01*
X190773162Y-114859010D01*
X190796767Y-114848656D01*
X190809898Y-114839882D01*
X190822470Y-114837381D01*
X190842229Y-114828714D01*
X190901828Y-114821285D01*
X195095574Y-114821285D01*
X195177707Y-114834991D01*
X195177707Y-114834991D01*
G37*
G36*
X160177707Y-114834991D02*
G01*
X160184794Y-114838826D01*
X160190102Y-114839882D01*
X160204405Y-114849439D01*
X160241707Y-114869625D01*
X160253037Y-114881933D01*
X160262047Y-114887953D01*
X160271229Y-114901696D01*
X160290990Y-114923162D01*
X160301344Y-114946767D01*
X160310118Y-114959898D01*
X160312619Y-114972470D01*
X160321286Y-114992229D01*
X160328715Y-115051828D01*
X160328715Y-115445574D01*
X160315009Y-115527707D01*
X160311174Y-115534794D01*
X160310118Y-115540102D01*
X160300561Y-115554405D01*
X160280375Y-115591707D01*
X160268067Y-115603037D01*
X160262047Y-115612047D01*
X160248304Y-115621229D01*
X160226838Y-115640990D01*
X160203233Y-115651344D01*
X160190102Y-115660118D01*
X160177530Y-115662619D01*
X160157771Y-115671286D01*
X160098172Y-115678715D01*
X155904426Y-115678715D01*
X155822293Y-115665009D01*
X155815206Y-115661174D01*
X155809898Y-115660118D01*
X155795595Y-115650561D01*
X155758293Y-115630375D01*
X155746963Y-115618067D01*
X155737953Y-115612047D01*
X155728771Y-115598304D01*
X155709010Y-115576838D01*
X155698656Y-115553233D01*
X155689882Y-115540102D01*
X155687381Y-115527530D01*
X155678714Y-115507771D01*
X155671285Y-115448172D01*
X155671285Y-115054426D01*
X155684991Y-114972293D01*
X155688826Y-114965206D01*
X155689882Y-114959898D01*
X155699439Y-114945595D01*
X155719625Y-114908293D01*
X155731933Y-114896963D01*
X155737953Y-114887953D01*
X155751696Y-114878771D01*
X155773162Y-114859010D01*
X155796767Y-114848656D01*
X155809898Y-114839882D01*
X155822470Y-114837381D01*
X155842229Y-114828714D01*
X155901828Y-114821285D01*
X160095574Y-114821285D01*
X160177707Y-114834991D01*
X160177707Y-114834991D01*
G37*
G36*
X170177707Y-114834991D02*
G01*
X170184794Y-114838826D01*
X170190102Y-114839882D01*
X170204405Y-114849439D01*
X170241707Y-114869625D01*
X170253037Y-114881933D01*
X170262047Y-114887953D01*
X170271229Y-114901696D01*
X170290990Y-114923162D01*
X170301344Y-114946767D01*
X170310118Y-114959898D01*
X170312619Y-114972470D01*
X170321286Y-114992229D01*
X170328715Y-115051828D01*
X170328715Y-115445574D01*
X170315009Y-115527707D01*
X170311174Y-115534794D01*
X170310118Y-115540102D01*
X170300561Y-115554405D01*
X170280375Y-115591707D01*
X170268067Y-115603037D01*
X170262047Y-115612047D01*
X170248304Y-115621229D01*
X170226838Y-115640990D01*
X170203233Y-115651344D01*
X170190102Y-115660118D01*
X170177530Y-115662619D01*
X170157771Y-115671286D01*
X170098172Y-115678715D01*
X165904426Y-115678715D01*
X165822293Y-115665009D01*
X165815206Y-115661174D01*
X165809898Y-115660118D01*
X165795595Y-115650561D01*
X165758293Y-115630375D01*
X165746963Y-115618067D01*
X165737953Y-115612047D01*
X165728771Y-115598304D01*
X165709010Y-115576838D01*
X165698656Y-115553233D01*
X165689882Y-115540102D01*
X165687381Y-115527530D01*
X165678714Y-115507771D01*
X165671285Y-115448172D01*
X165671285Y-115054426D01*
X165684991Y-114972293D01*
X165688826Y-114965206D01*
X165689882Y-114959898D01*
X165699439Y-114945595D01*
X165719625Y-114908293D01*
X165731933Y-114896963D01*
X165737953Y-114887953D01*
X165751696Y-114878771D01*
X165773162Y-114859010D01*
X165796767Y-114848656D01*
X165809898Y-114839882D01*
X165822470Y-114837381D01*
X165842229Y-114828714D01*
X165901828Y-114821285D01*
X170095574Y-114821285D01*
X170177707Y-114834991D01*
X170177707Y-114834991D01*
G37*
G36*
X190177707Y-114834991D02*
G01*
X190184794Y-114838826D01*
X190190102Y-114839882D01*
X190204405Y-114849439D01*
X190241707Y-114869625D01*
X190253037Y-114881933D01*
X190262047Y-114887953D01*
X190271229Y-114901696D01*
X190290990Y-114923162D01*
X190301344Y-114946767D01*
X190310118Y-114959898D01*
X190312619Y-114972470D01*
X190321286Y-114992229D01*
X190328715Y-115051828D01*
X190328715Y-115445574D01*
X190315009Y-115527707D01*
X190311174Y-115534794D01*
X190310118Y-115540102D01*
X190300561Y-115554405D01*
X190280375Y-115591707D01*
X190268067Y-115603037D01*
X190262047Y-115612047D01*
X190248304Y-115621229D01*
X190226838Y-115640990D01*
X190203233Y-115651344D01*
X190190102Y-115660118D01*
X190177530Y-115662619D01*
X190157771Y-115671286D01*
X190098172Y-115678715D01*
X185904426Y-115678715D01*
X185822293Y-115665009D01*
X185815206Y-115661174D01*
X185809898Y-115660118D01*
X185795595Y-115650561D01*
X185758293Y-115630375D01*
X185746963Y-115618067D01*
X185737953Y-115612047D01*
X185728771Y-115598304D01*
X185709010Y-115576838D01*
X185698656Y-115553233D01*
X185689882Y-115540102D01*
X185687381Y-115527530D01*
X185678714Y-115507771D01*
X185671285Y-115448172D01*
X185671285Y-115054426D01*
X185684991Y-114972293D01*
X185688826Y-114965206D01*
X185689882Y-114959898D01*
X185699439Y-114945595D01*
X185719625Y-114908293D01*
X185731933Y-114896963D01*
X185737953Y-114887953D01*
X185751696Y-114878771D01*
X185773162Y-114859010D01*
X185796767Y-114848656D01*
X185809898Y-114839882D01*
X185822470Y-114837381D01*
X185842229Y-114828714D01*
X185901828Y-114821285D01*
X190095574Y-114821285D01*
X190177707Y-114834991D01*
X190177707Y-114834991D01*
G37*
G36*
X180177707Y-114834991D02*
G01*
X180184794Y-114838826D01*
X180190102Y-114839882D01*
X180204405Y-114849439D01*
X180241707Y-114869625D01*
X180253037Y-114881933D01*
X180262047Y-114887953D01*
X180271229Y-114901696D01*
X180290990Y-114923162D01*
X180301344Y-114946767D01*
X180310118Y-114959898D01*
X180312619Y-114972470D01*
X180321286Y-114992229D01*
X180328715Y-115051828D01*
X180328715Y-115445574D01*
X180315009Y-115527707D01*
X180311174Y-115534794D01*
X180310118Y-115540102D01*
X180300561Y-115554405D01*
X180280375Y-115591707D01*
X180268067Y-115603037D01*
X180262047Y-115612047D01*
X180248304Y-115621229D01*
X180226838Y-115640990D01*
X180203233Y-115651344D01*
X180190102Y-115660118D01*
X180177530Y-115662619D01*
X180157771Y-115671286D01*
X180098172Y-115678715D01*
X175904426Y-115678715D01*
X175822293Y-115665009D01*
X175815206Y-115661174D01*
X175809898Y-115660118D01*
X175795595Y-115650561D01*
X175758293Y-115630375D01*
X175746963Y-115618067D01*
X175737953Y-115612047D01*
X175728771Y-115598304D01*
X175709010Y-115576838D01*
X175698656Y-115553233D01*
X175689882Y-115540102D01*
X175687381Y-115527530D01*
X175678714Y-115507771D01*
X175671285Y-115448172D01*
X175671285Y-115054426D01*
X175684991Y-114972293D01*
X175688826Y-114965206D01*
X175689882Y-114959898D01*
X175699439Y-114945595D01*
X175719625Y-114908293D01*
X175731933Y-114896963D01*
X175737953Y-114887953D01*
X175751696Y-114878771D01*
X175773162Y-114859010D01*
X175796767Y-114848656D01*
X175809898Y-114839882D01*
X175822470Y-114837381D01*
X175842229Y-114828714D01*
X175901828Y-114821285D01*
X180095574Y-114821285D01*
X180177707Y-114834991D01*
X180177707Y-114834991D01*
G37*
G36*
X175177707Y-114834991D02*
G01*
X175184794Y-114838826D01*
X175190102Y-114839882D01*
X175204405Y-114849439D01*
X175241707Y-114869625D01*
X175253037Y-114881933D01*
X175262047Y-114887953D01*
X175271229Y-114901696D01*
X175290990Y-114923162D01*
X175301344Y-114946767D01*
X175310118Y-114959898D01*
X175312619Y-114972470D01*
X175321286Y-114992229D01*
X175328715Y-115051828D01*
X175328715Y-115445574D01*
X175315009Y-115527707D01*
X175311174Y-115534794D01*
X175310118Y-115540102D01*
X175300561Y-115554405D01*
X175280375Y-115591707D01*
X175268067Y-115603037D01*
X175262047Y-115612047D01*
X175248304Y-115621229D01*
X175226838Y-115640990D01*
X175203233Y-115651344D01*
X175190102Y-115660118D01*
X175177530Y-115662619D01*
X175157771Y-115671286D01*
X175098172Y-115678715D01*
X170904426Y-115678715D01*
X170822293Y-115665009D01*
X170815206Y-115661174D01*
X170809898Y-115660118D01*
X170795595Y-115650561D01*
X170758293Y-115630375D01*
X170746963Y-115618067D01*
X170737953Y-115612047D01*
X170728771Y-115598304D01*
X170709010Y-115576838D01*
X170698656Y-115553233D01*
X170689882Y-115540102D01*
X170687381Y-115527530D01*
X170678714Y-115507771D01*
X170671285Y-115448172D01*
X170671285Y-115054426D01*
X170684991Y-114972293D01*
X170688826Y-114965206D01*
X170689882Y-114959898D01*
X170699439Y-114945595D01*
X170719625Y-114908293D01*
X170731933Y-114896963D01*
X170737953Y-114887953D01*
X170751696Y-114878771D01*
X170773162Y-114859010D01*
X170796767Y-114848656D01*
X170809898Y-114839882D01*
X170822470Y-114837381D01*
X170842229Y-114828714D01*
X170901828Y-114821285D01*
X175095574Y-114821285D01*
X175177707Y-114834991D01*
X175177707Y-114834991D01*
G37*
G36*
X165177707Y-114834991D02*
G01*
X165184794Y-114838826D01*
X165190102Y-114839882D01*
X165204405Y-114849439D01*
X165241707Y-114869625D01*
X165253037Y-114881933D01*
X165262047Y-114887953D01*
X165271229Y-114901696D01*
X165290990Y-114923162D01*
X165301344Y-114946767D01*
X165310118Y-114959898D01*
X165312619Y-114972470D01*
X165321286Y-114992229D01*
X165328715Y-115051828D01*
X165328715Y-115445574D01*
X165315009Y-115527707D01*
X165311174Y-115534794D01*
X165310118Y-115540102D01*
X165300561Y-115554405D01*
X165280375Y-115591707D01*
X165268067Y-115603037D01*
X165262047Y-115612047D01*
X165248304Y-115621229D01*
X165226838Y-115640990D01*
X165203233Y-115651344D01*
X165190102Y-115660118D01*
X165177530Y-115662619D01*
X165157771Y-115671286D01*
X165098172Y-115678715D01*
X160904426Y-115678715D01*
X160822293Y-115665009D01*
X160815206Y-115661174D01*
X160809898Y-115660118D01*
X160795595Y-115650561D01*
X160758293Y-115630375D01*
X160746963Y-115618067D01*
X160737953Y-115612047D01*
X160728771Y-115598304D01*
X160709010Y-115576838D01*
X160698656Y-115553233D01*
X160689882Y-115540102D01*
X160687381Y-115527530D01*
X160678714Y-115507771D01*
X160671285Y-115448172D01*
X160671285Y-115054426D01*
X160684991Y-114972293D01*
X160688826Y-114965206D01*
X160689882Y-114959898D01*
X160699439Y-114945595D01*
X160719625Y-114908293D01*
X160731933Y-114896963D01*
X160737953Y-114887953D01*
X160751696Y-114878771D01*
X160773162Y-114859010D01*
X160796767Y-114848656D01*
X160809898Y-114839882D01*
X160822470Y-114837381D01*
X160842229Y-114828714D01*
X160901828Y-114821285D01*
X165095574Y-114821285D01*
X165177707Y-114834991D01*
X165177707Y-114834991D01*
G37*
G36*
X142788360Y-113093835D02*
G01*
X142869397Y-113120166D01*
X142956663Y-113147848D01*
X142959655Y-113149493D01*
X142968488Y-113152363D01*
X143040466Y-113193919D01*
X143111499Y-113232970D01*
X143118986Y-113239253D01*
X143132511Y-113247061D01*
X143190259Y-113299057D01*
X143246857Y-113346549D01*
X143256962Y-113359118D01*
X143273261Y-113373793D01*
X143315454Y-113431867D01*
X143357579Y-113484260D01*
X143367994Y-113504182D01*
X143384586Y-113527019D01*
X143411297Y-113587012D01*
X143439439Y-113640843D01*
X143447582Y-113668510D01*
X143461621Y-113700042D01*
X143473992Y-113758241D01*
X143489328Y-113810349D01*
X143492518Y-113845401D01*
X143500999Y-113885301D01*
X143500999Y-113938592D01*
X143505343Y-113986324D01*
X143500999Y-114027653D01*
X143500999Y-114074699D01*
X143491217Y-114120721D01*
X143486873Y-114162047D01*
X143472702Y-114207827D01*
X143461621Y-114259958D01*
X143445028Y-114297226D01*
X143434622Y-114330843D01*
X143408789Y-114378620D01*
X143384586Y-114432981D01*
X143364298Y-114460905D01*
X143350580Y-114486276D01*
X143311859Y-114533082D01*
X143273261Y-114586207D01*
X143252284Y-114605095D01*
X143237952Y-114622419D01*
X143185845Y-114664917D01*
X143132511Y-114712939D01*
X143113524Y-114723901D01*
X143101025Y-114734095D01*
X143035780Y-114768786D01*
X142968488Y-114807637D01*
X142953636Y-114812463D01*
X142945003Y-114817053D01*
X142867430Y-114840473D01*
X142788360Y-114866165D01*
X142779114Y-114867137D01*
X142775851Y-114868122D01*
X142684710Y-114877059D01*
X142647211Y-114881000D01*
X142552789Y-114881000D01*
X142411640Y-114866165D01*
X142330603Y-114839834D01*
X142243337Y-114812152D01*
X142240345Y-114810507D01*
X142231512Y-114807637D01*
X142159534Y-114766081D01*
X142088501Y-114727030D01*
X142081014Y-114720747D01*
X142067489Y-114712939D01*
X142009741Y-114660943D01*
X141953143Y-114613451D01*
X141943038Y-114600882D01*
X141926739Y-114586207D01*
X141884546Y-114528133D01*
X141842421Y-114475740D01*
X141832006Y-114455818D01*
X141815414Y-114432981D01*
X141788703Y-114372988D01*
X141760561Y-114319157D01*
X141752418Y-114291490D01*
X141738379Y-114259958D01*
X141726008Y-114201759D01*
X141710672Y-114149651D01*
X141707482Y-114114599D01*
X141699001Y-114074699D01*
X141699001Y-114021408D01*
X141694657Y-113973676D01*
X141699001Y-113932347D01*
X141699001Y-113885301D01*
X141708783Y-113839279D01*
X141713127Y-113797953D01*
X141727298Y-113752173D01*
X141738379Y-113700042D01*
X141754972Y-113662774D01*
X141765378Y-113629157D01*
X141791211Y-113581380D01*
X141815414Y-113527019D01*
X141835702Y-113499095D01*
X141849420Y-113473724D01*
X141888141Y-113426918D01*
X141926739Y-113373793D01*
X141947716Y-113354905D01*
X141962048Y-113337581D01*
X142014155Y-113295083D01*
X142067489Y-113247061D01*
X142086476Y-113236099D01*
X142098975Y-113225905D01*
X142164220Y-113191214D01*
X142231512Y-113152363D01*
X142246364Y-113147537D01*
X142254997Y-113142947D01*
X142332570Y-113119527D01*
X142411640Y-113093835D01*
X142420886Y-113092863D01*
X142424149Y-113091878D01*
X142515290Y-113082941D01*
X142552789Y-113079000D01*
X142647211Y-113079000D01*
X142788360Y-113093835D01*
X142788360Y-113093835D01*
G37*
G36*
X148836756Y-113561764D02*
G01*
X148848227Y-113567288D01*
X148856287Y-113568795D01*
X148873547Y-113579482D01*
X148918638Y-113601197D01*
X148938738Y-113619847D01*
X148951964Y-113628036D01*
X148962265Y-113641676D01*
X148985264Y-113663016D01*
X149007614Y-113701727D01*
X149019781Y-113717839D01*
X149021751Y-113726213D01*
X149029506Y-113739646D01*
X149048419Y-113839601D01*
X149051883Y-113854330D01*
X149051883Y-113857909D01*
X149053194Y-113864838D01*
X149053194Y-114487517D01*
X149038236Y-114586756D01*
X149032712Y-114598227D01*
X149031205Y-114606287D01*
X149020518Y-114623547D01*
X148998803Y-114668638D01*
X148980153Y-114688738D01*
X148971964Y-114701964D01*
X148958324Y-114712265D01*
X148936984Y-114735264D01*
X148898273Y-114757614D01*
X148882161Y-114769781D01*
X148873787Y-114771751D01*
X148860354Y-114779506D01*
X148760399Y-114798419D01*
X148745670Y-114801883D01*
X148742091Y-114801883D01*
X148735162Y-114803194D01*
X147862483Y-114803194D01*
X147763244Y-114788236D01*
X147751773Y-114782712D01*
X147743713Y-114781205D01*
X147726453Y-114770518D01*
X147681362Y-114748803D01*
X147661262Y-114730153D01*
X147648036Y-114721964D01*
X147637735Y-114708324D01*
X147614736Y-114686984D01*
X147592386Y-114648273D01*
X147580219Y-114632161D01*
X147578249Y-114623787D01*
X147570494Y-114610354D01*
X147551581Y-114510399D01*
X147548117Y-114495670D01*
X147548117Y-114492091D01*
X147546806Y-114485162D01*
X147546806Y-113862483D01*
X147561764Y-113763244D01*
X147567288Y-113751773D01*
X147568795Y-113743713D01*
X147579482Y-113726453D01*
X147601197Y-113681362D01*
X147619847Y-113661262D01*
X147628036Y-113648036D01*
X147641676Y-113637735D01*
X147663016Y-113614736D01*
X147701727Y-113592386D01*
X147717839Y-113580219D01*
X147726213Y-113578249D01*
X147739646Y-113570494D01*
X147839601Y-113551581D01*
X147854330Y-113548117D01*
X147857909Y-113548117D01*
X147864838Y-113546806D01*
X148737517Y-113546806D01*
X148836756Y-113561764D01*
X148836756Y-113561764D01*
G37*
G36*
X150836756Y-113561764D02*
G01*
X150848227Y-113567288D01*
X150856287Y-113568795D01*
X150873547Y-113579482D01*
X150918638Y-113601197D01*
X150938738Y-113619847D01*
X150951964Y-113628036D01*
X150962265Y-113641676D01*
X150985264Y-113663016D01*
X151007614Y-113701727D01*
X151019781Y-113717839D01*
X151021751Y-113726213D01*
X151029506Y-113739646D01*
X151048419Y-113839601D01*
X151051883Y-113854330D01*
X151051883Y-113857909D01*
X151053194Y-113864838D01*
X151053194Y-114487517D01*
X151038236Y-114586756D01*
X151032712Y-114598227D01*
X151031205Y-114606287D01*
X151020518Y-114623547D01*
X150998803Y-114668638D01*
X150980153Y-114688738D01*
X150971964Y-114701964D01*
X150958324Y-114712265D01*
X150936984Y-114735264D01*
X150898273Y-114757614D01*
X150882161Y-114769781D01*
X150873787Y-114771751D01*
X150860354Y-114779506D01*
X150760399Y-114798419D01*
X150745670Y-114801883D01*
X150742091Y-114801883D01*
X150735162Y-114803194D01*
X149862483Y-114803194D01*
X149763244Y-114788236D01*
X149751773Y-114782712D01*
X149743713Y-114781205D01*
X149726453Y-114770518D01*
X149681362Y-114748803D01*
X149661262Y-114730153D01*
X149648036Y-114721964D01*
X149637735Y-114708324D01*
X149614736Y-114686984D01*
X149592386Y-114648273D01*
X149580219Y-114632161D01*
X149578249Y-114623787D01*
X149570494Y-114610354D01*
X149551581Y-114510399D01*
X149548117Y-114495670D01*
X149548117Y-114492091D01*
X149546806Y-114485162D01*
X149546806Y-113862483D01*
X149561764Y-113763244D01*
X149567288Y-113751773D01*
X149568795Y-113743713D01*
X149579482Y-113726453D01*
X149601197Y-113681362D01*
X149619847Y-113661262D01*
X149628036Y-113648036D01*
X149641676Y-113637735D01*
X149663016Y-113614736D01*
X149701727Y-113592386D01*
X149717839Y-113580219D01*
X149726213Y-113578249D01*
X149739646Y-113570494D01*
X149839601Y-113551581D01*
X149854330Y-113548117D01*
X149857909Y-113548117D01*
X149864838Y-113546806D01*
X150737517Y-113546806D01*
X150836756Y-113561764D01*
X150836756Y-113561764D01*
G37*
G36*
X142788360Y-110553835D02*
G01*
X142869397Y-110580166D01*
X142956663Y-110607848D01*
X142959655Y-110609493D01*
X142968488Y-110612363D01*
X143040466Y-110653919D01*
X143111499Y-110692970D01*
X143118986Y-110699253D01*
X143132511Y-110707061D01*
X143190259Y-110759057D01*
X143246857Y-110806549D01*
X143256962Y-110819118D01*
X143273261Y-110833793D01*
X143315454Y-110891867D01*
X143357579Y-110944260D01*
X143367994Y-110964182D01*
X143384586Y-110987019D01*
X143411297Y-111047012D01*
X143439439Y-111100843D01*
X143447582Y-111128510D01*
X143461621Y-111160042D01*
X143473992Y-111218241D01*
X143489328Y-111270349D01*
X143492518Y-111305401D01*
X143500999Y-111345301D01*
X143500999Y-111398592D01*
X143505343Y-111446324D01*
X143500999Y-111487653D01*
X143500999Y-111534699D01*
X143491217Y-111580721D01*
X143486873Y-111622047D01*
X143472702Y-111667827D01*
X143461621Y-111719958D01*
X143445028Y-111757226D01*
X143434622Y-111790843D01*
X143408789Y-111838620D01*
X143384586Y-111892981D01*
X143364298Y-111920905D01*
X143350580Y-111946276D01*
X143311859Y-111993082D01*
X143273261Y-112046207D01*
X143252284Y-112065095D01*
X143237952Y-112082419D01*
X143185845Y-112124917D01*
X143132511Y-112172939D01*
X143113524Y-112183901D01*
X143101025Y-112194095D01*
X143035780Y-112228786D01*
X142968488Y-112267637D01*
X142953636Y-112272463D01*
X142945003Y-112277053D01*
X142867430Y-112300473D01*
X142788360Y-112326165D01*
X142779114Y-112327137D01*
X142775851Y-112328122D01*
X142684710Y-112337059D01*
X142647211Y-112341000D01*
X142552789Y-112341000D01*
X142411640Y-112326165D01*
X142330603Y-112299834D01*
X142243337Y-112272152D01*
X142240345Y-112270507D01*
X142231512Y-112267637D01*
X142159534Y-112226081D01*
X142088501Y-112187030D01*
X142081014Y-112180747D01*
X142067489Y-112172939D01*
X142009741Y-112120943D01*
X141953143Y-112073451D01*
X141943038Y-112060882D01*
X141926739Y-112046207D01*
X141884546Y-111988133D01*
X141842421Y-111935740D01*
X141832006Y-111915818D01*
X141815414Y-111892981D01*
X141788703Y-111832988D01*
X141760561Y-111779157D01*
X141752418Y-111751490D01*
X141738379Y-111719958D01*
X141726008Y-111661759D01*
X141710672Y-111609651D01*
X141707482Y-111574599D01*
X141699001Y-111534699D01*
X141699001Y-111481408D01*
X141694657Y-111433676D01*
X141699001Y-111392347D01*
X141699001Y-111345301D01*
X141708783Y-111299279D01*
X141713127Y-111257953D01*
X141727298Y-111212173D01*
X141738379Y-111160042D01*
X141754972Y-111122774D01*
X141765378Y-111089157D01*
X141791211Y-111041380D01*
X141815414Y-110987019D01*
X141835702Y-110959095D01*
X141849420Y-110933724D01*
X141888141Y-110886918D01*
X141926739Y-110833793D01*
X141947716Y-110814905D01*
X141962048Y-110797581D01*
X142014155Y-110755083D01*
X142067489Y-110707061D01*
X142086476Y-110696099D01*
X142098975Y-110685905D01*
X142164220Y-110651214D01*
X142231512Y-110612363D01*
X142246364Y-110607537D01*
X142254997Y-110602947D01*
X142332570Y-110579527D01*
X142411640Y-110553835D01*
X142420886Y-110552863D01*
X142424149Y-110551878D01*
X142515290Y-110542941D01*
X142552789Y-110539000D01*
X142647211Y-110539000D01*
X142788360Y-110553835D01*
X142788360Y-110553835D01*
G37*
G36*
X152444899Y-109751959D02*
G01*
X152461769Y-109763231D01*
X152473041Y-109780101D01*
X152479448Y-109812312D01*
X152479448Y-110237688D01*
X152473041Y-110269900D01*
X152465921Y-110280555D01*
X152444875Y-110347770D01*
X152465921Y-110419445D01*
X152473041Y-110430100D01*
X152479448Y-110462312D01*
X152479448Y-110887688D01*
X152473041Y-110919900D01*
X152465921Y-110930555D01*
X152444875Y-110997770D01*
X152465921Y-111069445D01*
X152473041Y-111080100D01*
X152479448Y-111112312D01*
X152479448Y-111537688D01*
X152473041Y-111569900D01*
X152465921Y-111580555D01*
X152444875Y-111647770D01*
X152465921Y-111719445D01*
X152473041Y-111730100D01*
X152479448Y-111762312D01*
X152479448Y-112187688D01*
X152476999Y-112200000D01*
X152473041Y-112219899D01*
X152461769Y-112236769D01*
X152444899Y-112248041D01*
X152425000Y-112251999D01*
X152412688Y-112254448D01*
X150987312Y-112254448D01*
X150955101Y-112248041D01*
X150938231Y-112236769D01*
X150926959Y-112219899D01*
X150920552Y-112187688D01*
X150920552Y-111762312D01*
X150926959Y-111730100D01*
X150934079Y-111719445D01*
X150955125Y-111652230D01*
X150934079Y-111580555D01*
X150926959Y-111569900D01*
X150920552Y-111537688D01*
X150920552Y-111112312D01*
X150926959Y-111080100D01*
X150934079Y-111069445D01*
X150955125Y-111002230D01*
X150934079Y-110930555D01*
X150926959Y-110919900D01*
X150920552Y-110887688D01*
X150920552Y-110462312D01*
X150926959Y-110430100D01*
X150934079Y-110419445D01*
X150955125Y-110352230D01*
X150934079Y-110280555D01*
X150926959Y-110269900D01*
X150920552Y-110237688D01*
X150920552Y-109812312D01*
X150926959Y-109780101D01*
X150938231Y-109763231D01*
X150955101Y-109751959D01*
X150987312Y-109745552D01*
X152412688Y-109745552D01*
X152444899Y-109751959D01*
X152444899Y-109751959D01*
G37*
G36*
X148044899Y-109751959D02*
G01*
X148061769Y-109763231D01*
X148073041Y-109780101D01*
X148079448Y-109812312D01*
X148079448Y-110237688D01*
X148073041Y-110269900D01*
X148065921Y-110280555D01*
X148044875Y-110347770D01*
X148065921Y-110419445D01*
X148073041Y-110430100D01*
X148079448Y-110462312D01*
X148079448Y-110887688D01*
X148073041Y-110919900D01*
X148065921Y-110930555D01*
X148044875Y-110997770D01*
X148065921Y-111069445D01*
X148073041Y-111080100D01*
X148079448Y-111112312D01*
X148079448Y-111537688D01*
X148073041Y-111569900D01*
X148065921Y-111580555D01*
X148044875Y-111647770D01*
X148065921Y-111719445D01*
X148073041Y-111730100D01*
X148079448Y-111762312D01*
X148079448Y-112187688D01*
X148076999Y-112200000D01*
X148073041Y-112219899D01*
X148061769Y-112236769D01*
X148044899Y-112248041D01*
X148025000Y-112251999D01*
X148012688Y-112254448D01*
X146587312Y-112254448D01*
X146555101Y-112248041D01*
X146538231Y-112236769D01*
X146526959Y-112219899D01*
X146520552Y-112187688D01*
X146520552Y-111762312D01*
X146526959Y-111730100D01*
X146534079Y-111719445D01*
X146555125Y-111652230D01*
X146534079Y-111580555D01*
X146526959Y-111569900D01*
X146520552Y-111537688D01*
X146520552Y-111112312D01*
X146526959Y-111080100D01*
X146534079Y-111069445D01*
X146555125Y-111002230D01*
X146534079Y-110930555D01*
X146526959Y-110919900D01*
X146520552Y-110887688D01*
X146520552Y-110462312D01*
X146526959Y-110430100D01*
X146534079Y-110419445D01*
X146555125Y-110352230D01*
X146534079Y-110280555D01*
X146526959Y-110269900D01*
X146520552Y-110237688D01*
X146520552Y-109812312D01*
X146526959Y-109780101D01*
X146538231Y-109763231D01*
X146555101Y-109751959D01*
X146587312Y-109745552D01*
X148012688Y-109745552D01*
X148044899Y-109751959D01*
X148044899Y-109751959D01*
G37*
G36*
X175177707Y-110334991D02*
G01*
X175184794Y-110338826D01*
X175190102Y-110339882D01*
X175204405Y-110349439D01*
X175241707Y-110369625D01*
X175253037Y-110381933D01*
X175262047Y-110387953D01*
X175271229Y-110401696D01*
X175290990Y-110423162D01*
X175301344Y-110446767D01*
X175310118Y-110459898D01*
X175312619Y-110472470D01*
X175321286Y-110492229D01*
X175328715Y-110551828D01*
X175328715Y-110945574D01*
X175315009Y-111027707D01*
X175311174Y-111034794D01*
X175310118Y-111040102D01*
X175300561Y-111054405D01*
X175280375Y-111091707D01*
X175268067Y-111103037D01*
X175262047Y-111112047D01*
X175248304Y-111121229D01*
X175226838Y-111140990D01*
X175203233Y-111151344D01*
X175190102Y-111160118D01*
X175177530Y-111162619D01*
X175157771Y-111171286D01*
X175098172Y-111178715D01*
X170904426Y-111178715D01*
X170822293Y-111165009D01*
X170815206Y-111161174D01*
X170809898Y-111160118D01*
X170795595Y-111150561D01*
X170758293Y-111130375D01*
X170746963Y-111118067D01*
X170737953Y-111112047D01*
X170728771Y-111098304D01*
X170709010Y-111076838D01*
X170698656Y-111053233D01*
X170689882Y-111040102D01*
X170687381Y-111027530D01*
X170678714Y-111007771D01*
X170671285Y-110948172D01*
X170671285Y-110554426D01*
X170684991Y-110472293D01*
X170688826Y-110465206D01*
X170689882Y-110459898D01*
X170699439Y-110445595D01*
X170719625Y-110408293D01*
X170731933Y-110396963D01*
X170737953Y-110387953D01*
X170751696Y-110378771D01*
X170773162Y-110359010D01*
X170796767Y-110348656D01*
X170809898Y-110339882D01*
X170822470Y-110337381D01*
X170842229Y-110328714D01*
X170901828Y-110321285D01*
X175095574Y-110321285D01*
X175177707Y-110334991D01*
X175177707Y-110334991D01*
G37*
G36*
X205177707Y-110334991D02*
G01*
X205184794Y-110338826D01*
X205190102Y-110339882D01*
X205204405Y-110349439D01*
X205241707Y-110369625D01*
X205253037Y-110381933D01*
X205262047Y-110387953D01*
X205271229Y-110401696D01*
X205290990Y-110423162D01*
X205301344Y-110446767D01*
X205310118Y-110459898D01*
X205312619Y-110472470D01*
X205321286Y-110492229D01*
X205328715Y-110551828D01*
X205328715Y-110945574D01*
X205315009Y-111027707D01*
X205311174Y-111034794D01*
X205310118Y-111040102D01*
X205300561Y-111054405D01*
X205280375Y-111091707D01*
X205268067Y-111103037D01*
X205262047Y-111112047D01*
X205248304Y-111121229D01*
X205226838Y-111140990D01*
X205203233Y-111151344D01*
X205190102Y-111160118D01*
X205177530Y-111162619D01*
X205157771Y-111171286D01*
X205098172Y-111178715D01*
X200904426Y-111178715D01*
X200822293Y-111165009D01*
X200815206Y-111161174D01*
X200809898Y-111160118D01*
X200795595Y-111150561D01*
X200758293Y-111130375D01*
X200746963Y-111118067D01*
X200737953Y-111112047D01*
X200728771Y-111098304D01*
X200709010Y-111076838D01*
X200698656Y-111053233D01*
X200689882Y-111040102D01*
X200687381Y-111027530D01*
X200678714Y-111007771D01*
X200671285Y-110948172D01*
X200671285Y-110554426D01*
X200684991Y-110472293D01*
X200688826Y-110465206D01*
X200689882Y-110459898D01*
X200699439Y-110445595D01*
X200719625Y-110408293D01*
X200731933Y-110396963D01*
X200737953Y-110387953D01*
X200751696Y-110378771D01*
X200773162Y-110359010D01*
X200796767Y-110348656D01*
X200809898Y-110339882D01*
X200822470Y-110337381D01*
X200842229Y-110328714D01*
X200901828Y-110321285D01*
X205095574Y-110321285D01*
X205177707Y-110334991D01*
X205177707Y-110334991D01*
G37*
G36*
X200177707Y-110334991D02*
G01*
X200184794Y-110338826D01*
X200190102Y-110339882D01*
X200204405Y-110349439D01*
X200241707Y-110369625D01*
X200253037Y-110381933D01*
X200262047Y-110387953D01*
X200271229Y-110401696D01*
X200290990Y-110423162D01*
X200301344Y-110446767D01*
X200310118Y-110459898D01*
X200312619Y-110472470D01*
X200321286Y-110492229D01*
X200328715Y-110551828D01*
X200328715Y-110945574D01*
X200315009Y-111027707D01*
X200311174Y-111034794D01*
X200310118Y-111040102D01*
X200300561Y-111054405D01*
X200280375Y-111091707D01*
X200268067Y-111103037D01*
X200262047Y-111112047D01*
X200248304Y-111121229D01*
X200226838Y-111140990D01*
X200203233Y-111151344D01*
X200190102Y-111160118D01*
X200177530Y-111162619D01*
X200157771Y-111171286D01*
X200098172Y-111178715D01*
X195904426Y-111178715D01*
X195822293Y-111165009D01*
X195815206Y-111161174D01*
X195809898Y-111160118D01*
X195795595Y-111150561D01*
X195758293Y-111130375D01*
X195746963Y-111118067D01*
X195737953Y-111112047D01*
X195728771Y-111098304D01*
X195709010Y-111076838D01*
X195698656Y-111053233D01*
X195689882Y-111040102D01*
X195687381Y-111027530D01*
X195678714Y-111007771D01*
X195671285Y-110948172D01*
X195671285Y-110554426D01*
X195684991Y-110472293D01*
X195688826Y-110465206D01*
X195689882Y-110459898D01*
X195699439Y-110445595D01*
X195719625Y-110408293D01*
X195731933Y-110396963D01*
X195737953Y-110387953D01*
X195751696Y-110378771D01*
X195773162Y-110359010D01*
X195796767Y-110348656D01*
X195809898Y-110339882D01*
X195822470Y-110337381D01*
X195842229Y-110328714D01*
X195901828Y-110321285D01*
X200095574Y-110321285D01*
X200177707Y-110334991D01*
X200177707Y-110334991D01*
G37*
G36*
X195177707Y-110334991D02*
G01*
X195184794Y-110338826D01*
X195190102Y-110339882D01*
X195204405Y-110349439D01*
X195241707Y-110369625D01*
X195253037Y-110381933D01*
X195262047Y-110387953D01*
X195271229Y-110401696D01*
X195290990Y-110423162D01*
X195301344Y-110446767D01*
X195310118Y-110459898D01*
X195312619Y-110472470D01*
X195321286Y-110492229D01*
X195328715Y-110551828D01*
X195328715Y-110945574D01*
X195315009Y-111027707D01*
X195311174Y-111034794D01*
X195310118Y-111040102D01*
X195300561Y-111054405D01*
X195280375Y-111091707D01*
X195268067Y-111103037D01*
X195262047Y-111112047D01*
X195248304Y-111121229D01*
X195226838Y-111140990D01*
X195203233Y-111151344D01*
X195190102Y-111160118D01*
X195177530Y-111162619D01*
X195157771Y-111171286D01*
X195098172Y-111178715D01*
X190904426Y-111178715D01*
X190822293Y-111165009D01*
X190815206Y-111161174D01*
X190809898Y-111160118D01*
X190795595Y-111150561D01*
X190758293Y-111130375D01*
X190746963Y-111118067D01*
X190737953Y-111112047D01*
X190728771Y-111098304D01*
X190709010Y-111076838D01*
X190698656Y-111053233D01*
X190689882Y-111040102D01*
X190687381Y-111027530D01*
X190678714Y-111007771D01*
X190671285Y-110948172D01*
X190671285Y-110554426D01*
X190684991Y-110472293D01*
X190688826Y-110465206D01*
X190689882Y-110459898D01*
X190699439Y-110445595D01*
X190719625Y-110408293D01*
X190731933Y-110396963D01*
X190737953Y-110387953D01*
X190751696Y-110378771D01*
X190773162Y-110359010D01*
X190796767Y-110348656D01*
X190809898Y-110339882D01*
X190822470Y-110337381D01*
X190842229Y-110328714D01*
X190901828Y-110321285D01*
X195095574Y-110321285D01*
X195177707Y-110334991D01*
X195177707Y-110334991D01*
G37*
G36*
X190177707Y-110334991D02*
G01*
X190184794Y-110338826D01*
X190190102Y-110339882D01*
X190204405Y-110349439D01*
X190241707Y-110369625D01*
X190253037Y-110381933D01*
X190262047Y-110387953D01*
X190271229Y-110401696D01*
X190290990Y-110423162D01*
X190301344Y-110446767D01*
X190310118Y-110459898D01*
X190312619Y-110472470D01*
X190321286Y-110492229D01*
X190328715Y-110551828D01*
X190328715Y-110945574D01*
X190315009Y-111027707D01*
X190311174Y-111034794D01*
X190310118Y-111040102D01*
X190300561Y-111054405D01*
X190280375Y-111091707D01*
X190268067Y-111103037D01*
X190262047Y-111112047D01*
X190248304Y-111121229D01*
X190226838Y-111140990D01*
X190203233Y-111151344D01*
X190190102Y-111160118D01*
X190177530Y-111162619D01*
X190157771Y-111171286D01*
X190098172Y-111178715D01*
X185904426Y-111178715D01*
X185822293Y-111165009D01*
X185815206Y-111161174D01*
X185809898Y-111160118D01*
X185795595Y-111150561D01*
X185758293Y-111130375D01*
X185746963Y-111118067D01*
X185737953Y-111112047D01*
X185728771Y-111098304D01*
X185709010Y-111076838D01*
X185698656Y-111053233D01*
X185689882Y-111040102D01*
X185687381Y-111027530D01*
X185678714Y-111007771D01*
X185671285Y-110948172D01*
X185671285Y-110554426D01*
X185684991Y-110472293D01*
X185688826Y-110465206D01*
X185689882Y-110459898D01*
X185699439Y-110445595D01*
X185719625Y-110408293D01*
X185731933Y-110396963D01*
X185737953Y-110387953D01*
X185751696Y-110378771D01*
X185773162Y-110359010D01*
X185796767Y-110348656D01*
X185809898Y-110339882D01*
X185822470Y-110337381D01*
X185842229Y-110328714D01*
X185901828Y-110321285D01*
X190095574Y-110321285D01*
X190177707Y-110334991D01*
X190177707Y-110334991D01*
G37*
G36*
X185177707Y-110334991D02*
G01*
X185184794Y-110338826D01*
X185190102Y-110339882D01*
X185204405Y-110349439D01*
X185241707Y-110369625D01*
X185253037Y-110381933D01*
X185262047Y-110387953D01*
X185271229Y-110401696D01*
X185290990Y-110423162D01*
X185301344Y-110446767D01*
X185310118Y-110459898D01*
X185312619Y-110472470D01*
X185321286Y-110492229D01*
X185328715Y-110551828D01*
X185328715Y-110945574D01*
X185315009Y-111027707D01*
X185311174Y-111034794D01*
X185310118Y-111040102D01*
X185300561Y-111054405D01*
X185280375Y-111091707D01*
X185268067Y-111103037D01*
X185262047Y-111112047D01*
X185248304Y-111121229D01*
X185226838Y-111140990D01*
X185203233Y-111151344D01*
X185190102Y-111160118D01*
X185177530Y-111162619D01*
X185157771Y-111171286D01*
X185098172Y-111178715D01*
X180904426Y-111178715D01*
X180822293Y-111165009D01*
X180815206Y-111161174D01*
X180809898Y-111160118D01*
X180795595Y-111150561D01*
X180758293Y-111130375D01*
X180746963Y-111118067D01*
X180737953Y-111112047D01*
X180728771Y-111098304D01*
X180709010Y-111076838D01*
X180698656Y-111053233D01*
X180689882Y-111040102D01*
X180687381Y-111027530D01*
X180678714Y-111007771D01*
X180671285Y-110948172D01*
X180671285Y-110554426D01*
X180684991Y-110472293D01*
X180688826Y-110465206D01*
X180689882Y-110459898D01*
X180699439Y-110445595D01*
X180719625Y-110408293D01*
X180731933Y-110396963D01*
X180737953Y-110387953D01*
X180751696Y-110378771D01*
X180773162Y-110359010D01*
X180796767Y-110348656D01*
X180809898Y-110339882D01*
X180822470Y-110337381D01*
X180842229Y-110328714D01*
X180901828Y-110321285D01*
X185095574Y-110321285D01*
X185177707Y-110334991D01*
X185177707Y-110334991D01*
G37*
G36*
X180177707Y-110334991D02*
G01*
X180184794Y-110338826D01*
X180190102Y-110339882D01*
X180204405Y-110349439D01*
X180241707Y-110369625D01*
X180253037Y-110381933D01*
X180262047Y-110387953D01*
X180271229Y-110401696D01*
X180290990Y-110423162D01*
X180301344Y-110446767D01*
X180310118Y-110459898D01*
X180312619Y-110472470D01*
X180321286Y-110492229D01*
X180328715Y-110551828D01*
X180328715Y-110945574D01*
X180315009Y-111027707D01*
X180311174Y-111034794D01*
X180310118Y-111040102D01*
X180300561Y-111054405D01*
X180280375Y-111091707D01*
X180268067Y-111103037D01*
X180262047Y-111112047D01*
X180248304Y-111121229D01*
X180226838Y-111140990D01*
X180203233Y-111151344D01*
X180190102Y-111160118D01*
X180177530Y-111162619D01*
X180157771Y-111171286D01*
X180098172Y-111178715D01*
X175904426Y-111178715D01*
X175822293Y-111165009D01*
X175815206Y-111161174D01*
X175809898Y-111160118D01*
X175795595Y-111150561D01*
X175758293Y-111130375D01*
X175746963Y-111118067D01*
X175737953Y-111112047D01*
X175728771Y-111098304D01*
X175709010Y-111076838D01*
X175698656Y-111053233D01*
X175689882Y-111040102D01*
X175687381Y-111027530D01*
X175678714Y-111007771D01*
X175671285Y-110948172D01*
X175671285Y-110554426D01*
X175684991Y-110472293D01*
X175688826Y-110465206D01*
X175689882Y-110459898D01*
X175699439Y-110445595D01*
X175719625Y-110408293D01*
X175731933Y-110396963D01*
X175737953Y-110387953D01*
X175751696Y-110378771D01*
X175773162Y-110359010D01*
X175796767Y-110348656D01*
X175809898Y-110339882D01*
X175822470Y-110337381D01*
X175842229Y-110328714D01*
X175901828Y-110321285D01*
X180095574Y-110321285D01*
X180177707Y-110334991D01*
X180177707Y-110334991D01*
G37*
G36*
X170177707Y-110334991D02*
G01*
X170184794Y-110338826D01*
X170190102Y-110339882D01*
X170204405Y-110349439D01*
X170241707Y-110369625D01*
X170253037Y-110381933D01*
X170262047Y-110387953D01*
X170271229Y-110401696D01*
X170290990Y-110423162D01*
X170301344Y-110446767D01*
X170310118Y-110459898D01*
X170312619Y-110472470D01*
X170321286Y-110492229D01*
X170328715Y-110551828D01*
X170328715Y-110945574D01*
X170315009Y-111027707D01*
X170311174Y-111034794D01*
X170310118Y-111040102D01*
X170300561Y-111054405D01*
X170280375Y-111091707D01*
X170268067Y-111103037D01*
X170262047Y-111112047D01*
X170248304Y-111121229D01*
X170226838Y-111140990D01*
X170203233Y-111151344D01*
X170190102Y-111160118D01*
X170177530Y-111162619D01*
X170157771Y-111171286D01*
X170098172Y-111178715D01*
X165904426Y-111178715D01*
X165822293Y-111165009D01*
X165815206Y-111161174D01*
X165809898Y-111160118D01*
X165795595Y-111150561D01*
X165758293Y-111130375D01*
X165746963Y-111118067D01*
X165737953Y-111112047D01*
X165728771Y-111098304D01*
X165709010Y-111076838D01*
X165698656Y-111053233D01*
X165689882Y-111040102D01*
X165687381Y-111027530D01*
X165678714Y-111007771D01*
X165671285Y-110948172D01*
X165671285Y-110554426D01*
X165684991Y-110472293D01*
X165688826Y-110465206D01*
X165689882Y-110459898D01*
X165699439Y-110445595D01*
X165719625Y-110408293D01*
X165731933Y-110396963D01*
X165737953Y-110387953D01*
X165751696Y-110378771D01*
X165773162Y-110359010D01*
X165796767Y-110348656D01*
X165809898Y-110339882D01*
X165822470Y-110337381D01*
X165842229Y-110328714D01*
X165901828Y-110321285D01*
X170095574Y-110321285D01*
X170177707Y-110334991D01*
X170177707Y-110334991D01*
G37*
G36*
X165177707Y-110334991D02*
G01*
X165184794Y-110338826D01*
X165190102Y-110339882D01*
X165204405Y-110349439D01*
X165241707Y-110369625D01*
X165253037Y-110381933D01*
X165262047Y-110387953D01*
X165271229Y-110401696D01*
X165290990Y-110423162D01*
X165301344Y-110446767D01*
X165310118Y-110459898D01*
X165312619Y-110472470D01*
X165321286Y-110492229D01*
X165328715Y-110551828D01*
X165328715Y-110945574D01*
X165315009Y-111027707D01*
X165311174Y-111034794D01*
X165310118Y-111040102D01*
X165300561Y-111054405D01*
X165280375Y-111091707D01*
X165268067Y-111103037D01*
X165262047Y-111112047D01*
X165248304Y-111121229D01*
X165226838Y-111140990D01*
X165203233Y-111151344D01*
X165190102Y-111160118D01*
X165177530Y-111162619D01*
X165157771Y-111171286D01*
X165098172Y-111178715D01*
X160904426Y-111178715D01*
X160822293Y-111165009D01*
X160815206Y-111161174D01*
X160809898Y-111160118D01*
X160795595Y-111150561D01*
X160758293Y-111130375D01*
X160746963Y-111118067D01*
X160737953Y-111112047D01*
X160728771Y-111098304D01*
X160709010Y-111076838D01*
X160698656Y-111053233D01*
X160689882Y-111040102D01*
X160687381Y-111027530D01*
X160678714Y-111007771D01*
X160671285Y-110948172D01*
X160671285Y-110554426D01*
X160684991Y-110472293D01*
X160688826Y-110465206D01*
X160689882Y-110459898D01*
X160699439Y-110445595D01*
X160719625Y-110408293D01*
X160731933Y-110396963D01*
X160737953Y-110387953D01*
X160751696Y-110378771D01*
X160773162Y-110359010D01*
X160796767Y-110348656D01*
X160809898Y-110339882D01*
X160822470Y-110337381D01*
X160842229Y-110328714D01*
X160901828Y-110321285D01*
X165095574Y-110321285D01*
X165177707Y-110334991D01*
X165177707Y-110334991D01*
G37*
G36*
X160177707Y-110334991D02*
G01*
X160184794Y-110338826D01*
X160190102Y-110339882D01*
X160204405Y-110349439D01*
X160241707Y-110369625D01*
X160253037Y-110381933D01*
X160262047Y-110387953D01*
X160271229Y-110401696D01*
X160290990Y-110423162D01*
X160301344Y-110446767D01*
X160310118Y-110459898D01*
X160312619Y-110472470D01*
X160321286Y-110492229D01*
X160328715Y-110551828D01*
X160328715Y-110945574D01*
X160315009Y-111027707D01*
X160311174Y-111034794D01*
X160310118Y-111040102D01*
X160300561Y-111054405D01*
X160280375Y-111091707D01*
X160268067Y-111103037D01*
X160262047Y-111112047D01*
X160248304Y-111121229D01*
X160226838Y-111140990D01*
X160203233Y-111151344D01*
X160190102Y-111160118D01*
X160177530Y-111162619D01*
X160157771Y-111171286D01*
X160098172Y-111178715D01*
X155904426Y-111178715D01*
X155822293Y-111165009D01*
X155815206Y-111161174D01*
X155809898Y-111160118D01*
X155795595Y-111150561D01*
X155758293Y-111130375D01*
X155746963Y-111118067D01*
X155737953Y-111112047D01*
X155728771Y-111098304D01*
X155709010Y-111076838D01*
X155698656Y-111053233D01*
X155689882Y-111040102D01*
X155687381Y-111027530D01*
X155678714Y-111007771D01*
X155671285Y-110948172D01*
X155671285Y-110554426D01*
X155684991Y-110472293D01*
X155688826Y-110465206D01*
X155689882Y-110459898D01*
X155699439Y-110445595D01*
X155719625Y-110408293D01*
X155731933Y-110396963D01*
X155737953Y-110387953D01*
X155751696Y-110378771D01*
X155773162Y-110359010D01*
X155796767Y-110348656D01*
X155809898Y-110339882D01*
X155822470Y-110337381D01*
X155842229Y-110328714D01*
X155901828Y-110321285D01*
X160095574Y-110321285D01*
X160177707Y-110334991D01*
X160177707Y-110334991D01*
G37*
G36*
X143469899Y-108001959D02*
G01*
X143486769Y-108013231D01*
X143498041Y-108030101D01*
X143504448Y-108062312D01*
X143504448Y-109737688D01*
X143501999Y-109750000D01*
X143498041Y-109769899D01*
X143486769Y-109786769D01*
X143469899Y-109798041D01*
X143450000Y-109801999D01*
X143437688Y-109804448D01*
X141762312Y-109804448D01*
X141730101Y-109798041D01*
X141713231Y-109786769D01*
X141701959Y-109769899D01*
X141695552Y-109737688D01*
X141695552Y-108062312D01*
X141701959Y-108030101D01*
X141713231Y-108013231D01*
X141730101Y-108001959D01*
X141762312Y-107995552D01*
X143437688Y-107995552D01*
X143469899Y-108001959D01*
X143469899Y-108001959D01*
G37*
G36*
X155161756Y-106886764D02*
G01*
X155173228Y-106892289D01*
X155181286Y-106893795D01*
X155198543Y-106904480D01*
X155243638Y-106926197D01*
X155263738Y-106944847D01*
X155276964Y-106953036D01*
X155287264Y-106966676D01*
X155310265Y-106988017D01*
X155332617Y-107026732D01*
X155344781Y-107042840D01*
X155346750Y-107051212D01*
X155354506Y-107064646D01*
X155373419Y-107164603D01*
X155376883Y-107179331D01*
X155376883Y-107182910D01*
X155378194Y-107189839D01*
X155378194Y-108412516D01*
X155363236Y-108511756D01*
X155357711Y-108523228D01*
X155356205Y-108531286D01*
X155345520Y-108548543D01*
X155323803Y-108593638D01*
X155305153Y-108613738D01*
X155296964Y-108626964D01*
X155283324Y-108637264D01*
X155261983Y-108660265D01*
X155223268Y-108682617D01*
X155207160Y-108694781D01*
X155198788Y-108696750D01*
X155185354Y-108704506D01*
X155085397Y-108723419D01*
X155070669Y-108726883D01*
X155067090Y-108726883D01*
X155060161Y-108728194D01*
X154162484Y-108728194D01*
X154063244Y-108713236D01*
X154051772Y-108707711D01*
X154043714Y-108706205D01*
X154026457Y-108695520D01*
X153981362Y-108673803D01*
X153961262Y-108655153D01*
X153948036Y-108646964D01*
X153937736Y-108633324D01*
X153914735Y-108611983D01*
X153892383Y-108573268D01*
X153880219Y-108557160D01*
X153878250Y-108548788D01*
X153870494Y-108535354D01*
X153851581Y-108435397D01*
X153848117Y-108420669D01*
X153848117Y-108417090D01*
X153846806Y-108410161D01*
X153846806Y-107187484D01*
X153861764Y-107088244D01*
X153867289Y-107076772D01*
X153868795Y-107068714D01*
X153879480Y-107051457D01*
X153901197Y-107006362D01*
X153919847Y-106986262D01*
X153928036Y-106973036D01*
X153941676Y-106962736D01*
X153963017Y-106939735D01*
X154001732Y-106917383D01*
X154017840Y-106905219D01*
X154026212Y-106903250D01*
X154039646Y-106895494D01*
X154139603Y-106876581D01*
X154154331Y-106873117D01*
X154157910Y-106873117D01*
X154164839Y-106871806D01*
X155062516Y-106871806D01*
X155161756Y-106886764D01*
X155161756Y-106886764D01*
G37*
G36*
X158136756Y-106886764D02*
G01*
X158148228Y-106892289D01*
X158156286Y-106893795D01*
X158173543Y-106904480D01*
X158218638Y-106926197D01*
X158238738Y-106944847D01*
X158251964Y-106953036D01*
X158262264Y-106966676D01*
X158285265Y-106988017D01*
X158307617Y-107026732D01*
X158319781Y-107042840D01*
X158321750Y-107051212D01*
X158329506Y-107064646D01*
X158348419Y-107164603D01*
X158351883Y-107179331D01*
X158351883Y-107182910D01*
X158353194Y-107189839D01*
X158353194Y-108412516D01*
X158338236Y-108511756D01*
X158332711Y-108523228D01*
X158331205Y-108531286D01*
X158320520Y-108548543D01*
X158298803Y-108593638D01*
X158280153Y-108613738D01*
X158271964Y-108626964D01*
X158258324Y-108637264D01*
X158236983Y-108660265D01*
X158198268Y-108682617D01*
X158182160Y-108694781D01*
X158173788Y-108696750D01*
X158160354Y-108704506D01*
X158060397Y-108723419D01*
X158045669Y-108726883D01*
X158042090Y-108726883D01*
X158035161Y-108728194D01*
X157137484Y-108728194D01*
X157038244Y-108713236D01*
X157026772Y-108707711D01*
X157018714Y-108706205D01*
X157001457Y-108695520D01*
X156956362Y-108673803D01*
X156936262Y-108655153D01*
X156923036Y-108646964D01*
X156912736Y-108633324D01*
X156889735Y-108611983D01*
X156867383Y-108573268D01*
X156855219Y-108557160D01*
X156853250Y-108548788D01*
X156845494Y-108535354D01*
X156826581Y-108435397D01*
X156823117Y-108420669D01*
X156823117Y-108417090D01*
X156821806Y-108410161D01*
X156821806Y-107187484D01*
X156836764Y-107088244D01*
X156842289Y-107076772D01*
X156843795Y-107068714D01*
X156854480Y-107051457D01*
X156876197Y-107006362D01*
X156894847Y-106986262D01*
X156903036Y-106973036D01*
X156916676Y-106962736D01*
X156938017Y-106939735D01*
X156976732Y-106917383D01*
X156992840Y-106905219D01*
X157001212Y-106903250D01*
X157014646Y-106895494D01*
X157114603Y-106876581D01*
X157129331Y-106873117D01*
X157132910Y-106873117D01*
X157139839Y-106871806D01*
X158037516Y-106871806D01*
X158136756Y-106886764D01*
X158136756Y-106886764D01*
G37*
M02*
