G04 #@! TF.GenerationSoftware,KiCad,Pcbnew,6.0.0-unknown-ea0edab~86~ubuntu18.04.1*
G04 #@! TF.CreationDate,2019-07-07T14:50:01+02:00*
G04 #@! TF.ProjectId,interface,696e7465-7266-4616-9365-2e6b69636164,rev?*
G04 #@! TF.SameCoordinates,Original*
G04 #@! TF.FileFunction,Soldermask,Bot*
G04 #@! TF.FilePolarity,Negative*
%FSLAX46Y46*%
G04 Gerber Fmt 4.6, Leading zero omitted, Abs format (unit mm)*
G04 Created by KiCad (PCBNEW 6.0.0-unknown-ea0edab~86~ubuntu18.04.1) date 2019-07-07 14:50:01*
%MOMM*%
%LPD*%
G04 APERTURE LIST*
%ADD10C,0.100000*%
G04 APERTURE END LIST*
D10*
G36*
X106518491Y-116534050D02*
G01*
X106541201Y-116532621D01*
X106599044Y-116543655D01*
X106649598Y-116549683D01*
X106671466Y-116557470D01*
X106702768Y-116563441D01*
X106747974Y-116584713D01*
X106787188Y-116598677D01*
X106814553Y-116616043D01*
X106851595Y-116633474D01*
X106883137Y-116659568D01*
X106910505Y-116676936D01*
X106939839Y-116706476D01*
X106978330Y-116738318D01*
X106997060Y-116764097D01*
X107013417Y-116780569D01*
X107040395Y-116823743D01*
X107075010Y-116871386D01*
X107083387Y-116892545D01*
X107090814Y-116904430D01*
X107110685Y-116961490D01*
X107135559Y-117024316D01*
X107137265Y-117037817D01*
X107138846Y-117042358D01*
X107146828Y-117113517D01*
X107151000Y-117146544D01*
X107151000Y-117921248D01*
X107136606Y-118041963D01*
X107115809Y-118099102D01*
X107110095Y-118129054D01*
X107094742Y-118156981D01*
X107086803Y-118178793D01*
X107059225Y-118221586D01*
X107030856Y-118273189D01*
X107015280Y-118289776D01*
X107007687Y-118301558D01*
X106964517Y-118343833D01*
X106918261Y-118393091D01*
X106906769Y-118400384D01*
X106903335Y-118403747D01*
X106842346Y-118441268D01*
X106779385Y-118481224D01*
X106708506Y-118504254D01*
X106640679Y-118527344D01*
X106635894Y-118527847D01*
X106622955Y-118532051D01*
X106555535Y-118536293D01*
X106495429Y-118542610D01*
X106481509Y-118540950D01*
X106458799Y-118542379D01*
X106400956Y-118531345D01*
X106350402Y-118525317D01*
X106328534Y-118517530D01*
X106297232Y-118511559D01*
X106252026Y-118490287D01*
X106212812Y-118476323D01*
X106185448Y-118458957D01*
X106148405Y-118441526D01*
X106116861Y-118415430D01*
X106089496Y-118398064D01*
X106060163Y-118368526D01*
X106021671Y-118336682D01*
X106002941Y-118310903D01*
X105986584Y-118294431D01*
X105959605Y-118251255D01*
X105924991Y-118203614D01*
X105916614Y-118182457D01*
X105909187Y-118170571D01*
X105889318Y-118113515D01*
X105864441Y-118050684D01*
X105862735Y-118037180D01*
X105861154Y-118032640D01*
X105853173Y-117961489D01*
X105849000Y-117928456D01*
X105849000Y-117153753D01*
X105863394Y-117033038D01*
X105884191Y-116975899D01*
X105889905Y-116945947D01*
X105905258Y-116918020D01*
X105913197Y-116896208D01*
X105940775Y-116853415D01*
X105969144Y-116801812D01*
X105984720Y-116785225D01*
X105992313Y-116773443D01*
X106035481Y-116731169D01*
X106081739Y-116681909D01*
X106093231Y-116674616D01*
X106096665Y-116671253D01*
X106157654Y-116633732D01*
X106220615Y-116593776D01*
X106291494Y-116570746D01*
X106359321Y-116547656D01*
X106364106Y-116547153D01*
X106377045Y-116542949D01*
X106444465Y-116538707D01*
X106504571Y-116532390D01*
X106518491Y-116534050D01*
X106518491Y-116534050D01*
G37*
G36*
X99518492Y-116534050D02*
G01*
X99541202Y-116532621D01*
X99599045Y-116543655D01*
X99649599Y-116549683D01*
X99671467Y-116557470D01*
X99702769Y-116563441D01*
X99747975Y-116584713D01*
X99787189Y-116598677D01*
X99814553Y-116616043D01*
X99851596Y-116633474D01*
X99883140Y-116659570D01*
X99910505Y-116676936D01*
X99939838Y-116706474D01*
X99978330Y-116738318D01*
X99997060Y-116764097D01*
X100013417Y-116780569D01*
X100040395Y-116823743D01*
X100075010Y-116871386D01*
X100083387Y-116892545D01*
X100090814Y-116904430D01*
X100110685Y-116961490D01*
X100135559Y-117024316D01*
X100137265Y-117037817D01*
X100138846Y-117042358D01*
X100146828Y-117113517D01*
X100151000Y-117146544D01*
X100151000Y-117921248D01*
X100136606Y-118041963D01*
X100115809Y-118099102D01*
X100110095Y-118129054D01*
X100094742Y-118156981D01*
X100086803Y-118178793D01*
X100059227Y-118221583D01*
X100030856Y-118273189D01*
X100015278Y-118289777D01*
X100007685Y-118301560D01*
X99964509Y-118343841D01*
X99918260Y-118393091D01*
X99906771Y-118400382D01*
X99903337Y-118403745D01*
X99842349Y-118441265D01*
X99779384Y-118481224D01*
X99708505Y-118504254D01*
X99640678Y-118527344D01*
X99635893Y-118527847D01*
X99622954Y-118532051D01*
X99555534Y-118536293D01*
X99495428Y-118542610D01*
X99481508Y-118540950D01*
X99458798Y-118542379D01*
X99400955Y-118531345D01*
X99350401Y-118525317D01*
X99328533Y-118517530D01*
X99297231Y-118511559D01*
X99252025Y-118490287D01*
X99212811Y-118476323D01*
X99185447Y-118458957D01*
X99148404Y-118441526D01*
X99116861Y-118415431D01*
X99089495Y-118398064D01*
X99060158Y-118368522D01*
X99021670Y-118336681D01*
X99002943Y-118310906D01*
X98986583Y-118294431D01*
X98959602Y-118251252D01*
X98924990Y-118203613D01*
X98916613Y-118182454D01*
X98909186Y-118170569D01*
X98889315Y-118113509D01*
X98864441Y-118050683D01*
X98862735Y-118037182D01*
X98861154Y-118032641D01*
X98853172Y-117961482D01*
X98849000Y-117928455D01*
X98849000Y-117153752D01*
X98863395Y-117033035D01*
X98884191Y-116975898D01*
X98889905Y-116945946D01*
X98905257Y-116918022D01*
X98913196Y-116896209D01*
X98940776Y-116853413D01*
X98969145Y-116801811D01*
X98984721Y-116785225D01*
X98992314Y-116773442D01*
X99035484Y-116731167D01*
X99081740Y-116681909D01*
X99093232Y-116674616D01*
X99096666Y-116671253D01*
X99157655Y-116633732D01*
X99220616Y-116593776D01*
X99291495Y-116570746D01*
X99359322Y-116547656D01*
X99364107Y-116547153D01*
X99377046Y-116542949D01*
X99444466Y-116538707D01*
X99504572Y-116532390D01*
X99518492Y-116534050D01*
X99518492Y-116534050D01*
G37*
G36*
X100542921Y-114061737D02*
G01*
X100592463Y-114062083D01*
X100630019Y-114070892D01*
X100662227Y-114074277D01*
X100708365Y-114089268D01*
X100761957Y-114101838D01*
X100791701Y-114116345D01*
X100817366Y-114124684D01*
X100863992Y-114151604D01*
X100918433Y-114178156D01*
X100939957Y-114195462D01*
X100958634Y-114206245D01*
X101002552Y-114245790D01*
X101054111Y-114287244D01*
X101067868Y-114304601D01*
X101079858Y-114315397D01*
X101117627Y-114367382D01*
X101162249Y-114423681D01*
X101169449Y-114438709D01*
X101175736Y-114447362D01*
X101203861Y-114510531D01*
X101237473Y-114580685D01*
X101239950Y-114591590D01*
X101242085Y-114596384D01*
X101257266Y-114667804D01*
X101276043Y-114750453D01*
X101275968Y-114755793D01*
X101275999Y-114755937D01*
X101275999Y-114919063D01*
X101273526Y-114930696D01*
X101273310Y-114946182D01*
X101255445Y-115015764D01*
X101242085Y-115078616D01*
X101235523Y-115093354D01*
X101230015Y-115114807D01*
X101199768Y-115173661D01*
X101175736Y-115227638D01*
X101163064Y-115245080D01*
X101150437Y-115269649D01*
X101111496Y-115316057D01*
X101079858Y-115359603D01*
X101059807Y-115377657D01*
X101038531Y-115403013D01*
X100994688Y-115436291D01*
X100958634Y-115468755D01*
X100930578Y-115484953D01*
X100899859Y-115508270D01*
X100854748Y-115528733D01*
X100817366Y-115550316D01*
X100781432Y-115561992D01*
X100741314Y-115580190D01*
X100698157Y-115589049D01*
X100662227Y-115600723D01*
X100619307Y-115605234D01*
X100570776Y-115615196D01*
X100532213Y-115614388D01*
X100500000Y-115617774D01*
X100451751Y-115612703D01*
X100396720Y-115611550D01*
X100364607Y-115603543D01*
X100337773Y-115600723D01*
X100286574Y-115584088D01*
X100227797Y-115569433D01*
X100203144Y-115556980D01*
X100182634Y-115550316D01*
X100131451Y-115520766D01*
X100072402Y-115490938D01*
X100055339Y-115476822D01*
X100041366Y-115468755D01*
X99993621Y-115425765D01*
X99938260Y-115379966D01*
X99928089Y-115366759D01*
X99920142Y-115359603D01*
X99879503Y-115303669D01*
X99832037Y-115242032D01*
X99827346Y-115231881D01*
X99824264Y-115227638D01*
X99794587Y-115160982D01*
X99759013Y-115083993D01*
X99722817Y-114913703D01*
X99724001Y-114828920D01*
X99724001Y-114755937D01*
X99725092Y-114750805D01*
X99725248Y-114739626D01*
X99743535Y-114664037D01*
X99757915Y-114596384D01*
X99762266Y-114586611D01*
X99766185Y-114570413D01*
X99798129Y-114506061D01*
X99824264Y-114447362D01*
X99833747Y-114434310D01*
X99843593Y-114414475D01*
X99885406Y-114363207D01*
X99920142Y-114315397D01*
X99936167Y-114300968D01*
X99953626Y-114279561D01*
X100001359Y-114242268D01*
X100041366Y-114206245D01*
X100064736Y-114192752D01*
X100090814Y-114172378D01*
X100140618Y-114148942D01*
X100182634Y-114124684D01*
X100213438Y-114114675D01*
X100248339Y-114098252D01*
X100296728Y-114087613D01*
X100337773Y-114074277D01*
X100375347Y-114070328D01*
X100418373Y-114060868D01*
X100462424Y-114061175D01*
X100500000Y-114057226D01*
X100542921Y-114061737D01*
X100542921Y-114061737D01*
G37*
G36*
X105542921Y-114061737D02*
G01*
X105592463Y-114062083D01*
X105630019Y-114070892D01*
X105662227Y-114074277D01*
X105708365Y-114089268D01*
X105761957Y-114101838D01*
X105791701Y-114116345D01*
X105817366Y-114124684D01*
X105863992Y-114151604D01*
X105918433Y-114178156D01*
X105939957Y-114195462D01*
X105958634Y-114206245D01*
X106002552Y-114245790D01*
X106054111Y-114287244D01*
X106067868Y-114304601D01*
X106079858Y-114315397D01*
X106117627Y-114367382D01*
X106162249Y-114423681D01*
X106169449Y-114438709D01*
X106175736Y-114447362D01*
X106203861Y-114510531D01*
X106237473Y-114580685D01*
X106239950Y-114591590D01*
X106242085Y-114596384D01*
X106257266Y-114667804D01*
X106276043Y-114750453D01*
X106275968Y-114755793D01*
X106275999Y-114755937D01*
X106275999Y-114919063D01*
X106273526Y-114930696D01*
X106273310Y-114946182D01*
X106255445Y-115015764D01*
X106242085Y-115078616D01*
X106235523Y-115093354D01*
X106230015Y-115114807D01*
X106199768Y-115173661D01*
X106175736Y-115227638D01*
X106163064Y-115245080D01*
X106150437Y-115269649D01*
X106111496Y-115316057D01*
X106079858Y-115359603D01*
X106059807Y-115377657D01*
X106038531Y-115403013D01*
X105994688Y-115436291D01*
X105958634Y-115468755D01*
X105930578Y-115484953D01*
X105899859Y-115508270D01*
X105854748Y-115528733D01*
X105817366Y-115550316D01*
X105781432Y-115561992D01*
X105741314Y-115580190D01*
X105698157Y-115589049D01*
X105662227Y-115600723D01*
X105619307Y-115605234D01*
X105570776Y-115615196D01*
X105532213Y-115614388D01*
X105500000Y-115617774D01*
X105451751Y-115612703D01*
X105396720Y-115611550D01*
X105364607Y-115603543D01*
X105337773Y-115600723D01*
X105286574Y-115584088D01*
X105227797Y-115569433D01*
X105203144Y-115556980D01*
X105182634Y-115550316D01*
X105131451Y-115520766D01*
X105072402Y-115490938D01*
X105055339Y-115476822D01*
X105041366Y-115468755D01*
X104993621Y-115425765D01*
X104938260Y-115379966D01*
X104928089Y-115366759D01*
X104920142Y-115359603D01*
X104879503Y-115303669D01*
X104832037Y-115242032D01*
X104827346Y-115231881D01*
X104824264Y-115227638D01*
X104794587Y-115160982D01*
X104759013Y-115083993D01*
X104722817Y-114913703D01*
X104724001Y-114828920D01*
X104724001Y-114755937D01*
X104725092Y-114750805D01*
X104725248Y-114739626D01*
X104743535Y-114664037D01*
X104757915Y-114596384D01*
X104762266Y-114586611D01*
X104766185Y-114570413D01*
X104798129Y-114506061D01*
X104824264Y-114447362D01*
X104833747Y-114434310D01*
X104843593Y-114414475D01*
X104885406Y-114363207D01*
X104920142Y-114315397D01*
X104936167Y-114300968D01*
X104953626Y-114279561D01*
X105001359Y-114242268D01*
X105041366Y-114206245D01*
X105064736Y-114192752D01*
X105090814Y-114172378D01*
X105140618Y-114148942D01*
X105182634Y-114124684D01*
X105213438Y-114114675D01*
X105248339Y-114098252D01*
X105296728Y-114087613D01*
X105337773Y-114074277D01*
X105375347Y-114070328D01*
X105418373Y-114060868D01*
X105462424Y-114061175D01*
X105500000Y-114057226D01*
X105542921Y-114061737D01*
X105542921Y-114061737D01*
G37*
G36*
X125188360Y-109733835D02*
G01*
X125269397Y-109760166D01*
X125356663Y-109787848D01*
X125359655Y-109789493D01*
X125368488Y-109792363D01*
X125440466Y-109833919D01*
X125511499Y-109872970D01*
X125518986Y-109879253D01*
X125532511Y-109887061D01*
X125590259Y-109939057D01*
X125646857Y-109986549D01*
X125656962Y-109999118D01*
X125673261Y-110013793D01*
X125715454Y-110071867D01*
X125757579Y-110124260D01*
X125767994Y-110144182D01*
X125784586Y-110167019D01*
X125811297Y-110227012D01*
X125839439Y-110280843D01*
X125847582Y-110308510D01*
X125861621Y-110340042D01*
X125873992Y-110398241D01*
X125889328Y-110450349D01*
X125892518Y-110485401D01*
X125900999Y-110525301D01*
X125900999Y-110578592D01*
X125905343Y-110626324D01*
X125900999Y-110667653D01*
X125900999Y-110714699D01*
X125891217Y-110760721D01*
X125886873Y-110802047D01*
X125872702Y-110847827D01*
X125861621Y-110899958D01*
X125845028Y-110937226D01*
X125834622Y-110970843D01*
X125808789Y-111018620D01*
X125784586Y-111072981D01*
X125764298Y-111100905D01*
X125750580Y-111126276D01*
X125711859Y-111173082D01*
X125673261Y-111226207D01*
X125652284Y-111245095D01*
X125637952Y-111262419D01*
X125585845Y-111304917D01*
X125532511Y-111352939D01*
X125513524Y-111363901D01*
X125501025Y-111374095D01*
X125435780Y-111408786D01*
X125368488Y-111447637D01*
X125353636Y-111452463D01*
X125345003Y-111457053D01*
X125267430Y-111480473D01*
X125188360Y-111506165D01*
X125179114Y-111507137D01*
X125175851Y-111508122D01*
X125084710Y-111517059D01*
X125047211Y-111521000D01*
X124952789Y-111521000D01*
X124811640Y-111506165D01*
X124730603Y-111479834D01*
X124643337Y-111452152D01*
X124640345Y-111450507D01*
X124631512Y-111447637D01*
X124559534Y-111406081D01*
X124488501Y-111367030D01*
X124481014Y-111360747D01*
X124467489Y-111352939D01*
X124409741Y-111300943D01*
X124353143Y-111253451D01*
X124343038Y-111240882D01*
X124326739Y-111226207D01*
X124284546Y-111168133D01*
X124242421Y-111115740D01*
X124232006Y-111095818D01*
X124215414Y-111072981D01*
X124188703Y-111012988D01*
X124160561Y-110959157D01*
X124152418Y-110931490D01*
X124138379Y-110899958D01*
X124126008Y-110841759D01*
X124110672Y-110789651D01*
X124107482Y-110754599D01*
X124099001Y-110714699D01*
X124099001Y-110661408D01*
X124094657Y-110613676D01*
X124099001Y-110572347D01*
X124099001Y-110525301D01*
X124108783Y-110479279D01*
X124113127Y-110437953D01*
X124127298Y-110392173D01*
X124138379Y-110340042D01*
X124154972Y-110302774D01*
X124165378Y-110269157D01*
X124191211Y-110221380D01*
X124215414Y-110167019D01*
X124235702Y-110139095D01*
X124249420Y-110113724D01*
X124288141Y-110066918D01*
X124326739Y-110013793D01*
X124347716Y-109994905D01*
X124362048Y-109977581D01*
X124414155Y-109935083D01*
X124467489Y-109887061D01*
X124486476Y-109876099D01*
X124498975Y-109865905D01*
X124564220Y-109831214D01*
X124631512Y-109792363D01*
X124646364Y-109787537D01*
X124654997Y-109782947D01*
X124732570Y-109759527D01*
X124811640Y-109733835D01*
X124820886Y-109732863D01*
X124824149Y-109731878D01*
X124915290Y-109722941D01*
X124952789Y-109719000D01*
X125047211Y-109719000D01*
X125188360Y-109733835D01*
X125188360Y-109733835D01*
G37*
G36*
X125188360Y-107193835D02*
G01*
X125269397Y-107220166D01*
X125356663Y-107247848D01*
X125359655Y-107249493D01*
X125368488Y-107252363D01*
X125440466Y-107293919D01*
X125511499Y-107332970D01*
X125518986Y-107339253D01*
X125532511Y-107347061D01*
X125590259Y-107399057D01*
X125646857Y-107446549D01*
X125656962Y-107459118D01*
X125673261Y-107473793D01*
X125715454Y-107531867D01*
X125757579Y-107584260D01*
X125767994Y-107604182D01*
X125784586Y-107627019D01*
X125811297Y-107687012D01*
X125839439Y-107740843D01*
X125847582Y-107768510D01*
X125861621Y-107800042D01*
X125873992Y-107858241D01*
X125889328Y-107910349D01*
X125892518Y-107945401D01*
X125900999Y-107985301D01*
X125900999Y-108038592D01*
X125905343Y-108086324D01*
X125900999Y-108127653D01*
X125900999Y-108174699D01*
X125891217Y-108220721D01*
X125886873Y-108262047D01*
X125872702Y-108307827D01*
X125861621Y-108359958D01*
X125845028Y-108397226D01*
X125834622Y-108430843D01*
X125808789Y-108478620D01*
X125784586Y-108532981D01*
X125764298Y-108560905D01*
X125750580Y-108586276D01*
X125711859Y-108633082D01*
X125673261Y-108686207D01*
X125652284Y-108705095D01*
X125637952Y-108722419D01*
X125585845Y-108764917D01*
X125532511Y-108812939D01*
X125513524Y-108823901D01*
X125501025Y-108834095D01*
X125435780Y-108868786D01*
X125368488Y-108907637D01*
X125353636Y-108912463D01*
X125345003Y-108917053D01*
X125267430Y-108940473D01*
X125188360Y-108966165D01*
X125179114Y-108967137D01*
X125175851Y-108968122D01*
X125084710Y-108977059D01*
X125047211Y-108981000D01*
X124952789Y-108981000D01*
X124811640Y-108966165D01*
X124730603Y-108939834D01*
X124643337Y-108912152D01*
X124640345Y-108910507D01*
X124631512Y-108907637D01*
X124559534Y-108866081D01*
X124488501Y-108827030D01*
X124481014Y-108820747D01*
X124467489Y-108812939D01*
X124409741Y-108760943D01*
X124353143Y-108713451D01*
X124343038Y-108700882D01*
X124326739Y-108686207D01*
X124284546Y-108628133D01*
X124242421Y-108575740D01*
X124232006Y-108555818D01*
X124215414Y-108532981D01*
X124188703Y-108472988D01*
X124160561Y-108419157D01*
X124152418Y-108391490D01*
X124138379Y-108359958D01*
X124126008Y-108301759D01*
X124110672Y-108249651D01*
X124107482Y-108214599D01*
X124099001Y-108174699D01*
X124099001Y-108121408D01*
X124094657Y-108073676D01*
X124099001Y-108032347D01*
X124099001Y-107985301D01*
X124108783Y-107939279D01*
X124113127Y-107897953D01*
X124127298Y-107852173D01*
X124138379Y-107800042D01*
X124154972Y-107762774D01*
X124165378Y-107729157D01*
X124191211Y-107681380D01*
X124215414Y-107627019D01*
X124235702Y-107599095D01*
X124249420Y-107573724D01*
X124288141Y-107526918D01*
X124326739Y-107473793D01*
X124347716Y-107454905D01*
X124362048Y-107437581D01*
X124414155Y-107395083D01*
X124467489Y-107347061D01*
X124486476Y-107336099D01*
X124498975Y-107325905D01*
X124564220Y-107291214D01*
X124631512Y-107252363D01*
X124646364Y-107247537D01*
X124654997Y-107242947D01*
X124732570Y-107219527D01*
X124811640Y-107193835D01*
X124820886Y-107192863D01*
X124824149Y-107191878D01*
X124915290Y-107182941D01*
X124952789Y-107179000D01*
X125047211Y-107179000D01*
X125188360Y-107193835D01*
X125188360Y-107193835D01*
G37*
G36*
X125188360Y-104653835D02*
G01*
X125269397Y-104680166D01*
X125356663Y-104707848D01*
X125359655Y-104709493D01*
X125368488Y-104712363D01*
X125440466Y-104753919D01*
X125511499Y-104792970D01*
X125518986Y-104799253D01*
X125532511Y-104807061D01*
X125590259Y-104859057D01*
X125646857Y-104906549D01*
X125656962Y-104919118D01*
X125673261Y-104933793D01*
X125715454Y-104991867D01*
X125757579Y-105044260D01*
X125767994Y-105064182D01*
X125784586Y-105087019D01*
X125811297Y-105147012D01*
X125839439Y-105200843D01*
X125847582Y-105228510D01*
X125861621Y-105260042D01*
X125873992Y-105318241D01*
X125889328Y-105370349D01*
X125892518Y-105405401D01*
X125900999Y-105445301D01*
X125900999Y-105498592D01*
X125905343Y-105546324D01*
X125900999Y-105587653D01*
X125900999Y-105634699D01*
X125891217Y-105680721D01*
X125886873Y-105722047D01*
X125872702Y-105767827D01*
X125861621Y-105819958D01*
X125845028Y-105857226D01*
X125834622Y-105890843D01*
X125808789Y-105938620D01*
X125784586Y-105992981D01*
X125764298Y-106020905D01*
X125750580Y-106046276D01*
X125711859Y-106093082D01*
X125673261Y-106146207D01*
X125652284Y-106165095D01*
X125637952Y-106182419D01*
X125585845Y-106224917D01*
X125532511Y-106272939D01*
X125513524Y-106283901D01*
X125501025Y-106294095D01*
X125435780Y-106328786D01*
X125368488Y-106367637D01*
X125353636Y-106372463D01*
X125345003Y-106377053D01*
X125267430Y-106400473D01*
X125188360Y-106426165D01*
X125179114Y-106427137D01*
X125175851Y-106428122D01*
X125084710Y-106437059D01*
X125047211Y-106441000D01*
X124952789Y-106441000D01*
X124811640Y-106426165D01*
X124730603Y-106399834D01*
X124643337Y-106372152D01*
X124640345Y-106370507D01*
X124631512Y-106367637D01*
X124559534Y-106326081D01*
X124488501Y-106287030D01*
X124481014Y-106280747D01*
X124467489Y-106272939D01*
X124409741Y-106220943D01*
X124353143Y-106173451D01*
X124343038Y-106160882D01*
X124326739Y-106146207D01*
X124284546Y-106088133D01*
X124242421Y-106035740D01*
X124232006Y-106015818D01*
X124215414Y-105992981D01*
X124188703Y-105932988D01*
X124160561Y-105879157D01*
X124152418Y-105851490D01*
X124138379Y-105819958D01*
X124126008Y-105761759D01*
X124110672Y-105709651D01*
X124107482Y-105674599D01*
X124099001Y-105634699D01*
X124099001Y-105581408D01*
X124094657Y-105533676D01*
X124099001Y-105492347D01*
X124099001Y-105445301D01*
X124108783Y-105399279D01*
X124113127Y-105357953D01*
X124127298Y-105312173D01*
X124138379Y-105260042D01*
X124154972Y-105222774D01*
X124165378Y-105189157D01*
X124191211Y-105141380D01*
X124215414Y-105087019D01*
X124235702Y-105059095D01*
X124249420Y-105033724D01*
X124288141Y-104986918D01*
X124326739Y-104933793D01*
X124347716Y-104914905D01*
X124362048Y-104897581D01*
X124414155Y-104855083D01*
X124467489Y-104807061D01*
X124486476Y-104796099D01*
X124498975Y-104785905D01*
X124564220Y-104751214D01*
X124631512Y-104712363D01*
X124646364Y-104707537D01*
X124654997Y-104702947D01*
X124732570Y-104679527D01*
X124811640Y-104653835D01*
X124820886Y-104652863D01*
X124824149Y-104651878D01*
X124915290Y-104642941D01*
X124952789Y-104639000D01*
X125047211Y-104639000D01*
X125188360Y-104653835D01*
X125188360Y-104653835D01*
G37*
G36*
X125869899Y-102101959D02*
G01*
X125886769Y-102113231D01*
X125898041Y-102130101D01*
X125904448Y-102162312D01*
X125904448Y-103837688D01*
X125901999Y-103850000D01*
X125898041Y-103869899D01*
X125886769Y-103886769D01*
X125869899Y-103898041D01*
X125850000Y-103901999D01*
X125837688Y-103904448D01*
X124162312Y-103904448D01*
X124130101Y-103898041D01*
X124113231Y-103886769D01*
X124101959Y-103869899D01*
X124095552Y-103837688D01*
X124095552Y-102162312D01*
X124101959Y-102130101D01*
X124113231Y-102113231D01*
X124130101Y-102101959D01*
X124162312Y-102095552D01*
X125837688Y-102095552D01*
X125869899Y-102101959D01*
X125869899Y-102101959D01*
G37*
G36*
X95019899Y-98251959D02*
G01*
X95036769Y-98263231D01*
X95048041Y-98280101D01*
X95054448Y-98312312D01*
X95054448Y-99687688D01*
X95051999Y-99700000D01*
X95048041Y-99719899D01*
X95036769Y-99736769D01*
X95019899Y-99748041D01*
X95000000Y-99751999D01*
X94987688Y-99754448D01*
X93012312Y-99754448D01*
X92980101Y-99748041D01*
X92963231Y-99736769D01*
X92951959Y-99719899D01*
X92945552Y-99687688D01*
X92945552Y-98312312D01*
X92951959Y-98280101D01*
X92963231Y-98263231D01*
X92980101Y-98251959D01*
X93012312Y-98245552D01*
X94987688Y-98245552D01*
X95019899Y-98251959D01*
X95019899Y-98251959D01*
G37*
G36*
X87414655Y-98264518D02*
G01*
X87546661Y-98286371D01*
X87553290Y-98289462D01*
X87563560Y-98291310D01*
X87629934Y-98325202D01*
X87691336Y-98353835D01*
X87702051Y-98362028D01*
X87719525Y-98370950D01*
X87771716Y-98415290D01*
X87820957Y-98452937D01*
X87833499Y-98467778D01*
X87852985Y-98484333D01*
X87890045Y-98534692D01*
X87926280Y-98577570D01*
X87938104Y-98599997D01*
X87956783Y-98625378D01*
X87978935Y-98677437D01*
X88002382Y-98721909D01*
X88010687Y-98752060D01*
X88025349Y-98786518D01*
X88033925Y-98836425D01*
X88045712Y-98879219D01*
X88047657Y-98916345D01*
X88055006Y-98959110D01*
X88052237Y-99003738D01*
X88054251Y-99042168D01*
X88047217Y-99084658D01*
X88044162Y-99133896D01*
X88032921Y-99171011D01*
X88027600Y-99203152D01*
X88009419Y-99248609D01*
X87993400Y-99301499D01*
X87976909Y-99329890D01*
X87967005Y-99354653D01*
X87936184Y-99400005D01*
X87905443Y-99452929D01*
X87886946Y-99472455D01*
X87875288Y-99489609D01*
X87831206Y-99531295D01*
X87785008Y-99580063D01*
X87767491Y-99591548D01*
X87756734Y-99601720D01*
X87699765Y-99635951D01*
X87638556Y-99676081D01*
X87624465Y-99681196D01*
X87616864Y-99685763D01*
X87548490Y-99708773D01*
X87473943Y-99735832D01*
X87464979Y-99736877D01*
X87462219Y-99737806D01*
X87385845Y-99746103D01*
X87343846Y-99751000D01*
X86671589Y-99751000D01*
X86585345Y-99735482D01*
X86453339Y-99713629D01*
X86446710Y-99710538D01*
X86436440Y-99708690D01*
X86370066Y-99674798D01*
X86308664Y-99646165D01*
X86297949Y-99637972D01*
X86280475Y-99629050D01*
X86228284Y-99584710D01*
X86179043Y-99547063D01*
X86166501Y-99532222D01*
X86147015Y-99515667D01*
X86109955Y-99465308D01*
X86073720Y-99422430D01*
X86061896Y-99400003D01*
X86043217Y-99374622D01*
X86021065Y-99322563D01*
X85997618Y-99278091D01*
X85989313Y-99247940D01*
X85974651Y-99213482D01*
X85966075Y-99163575D01*
X85954288Y-99120781D01*
X85952343Y-99083655D01*
X85944994Y-99040890D01*
X85947763Y-98996262D01*
X85945749Y-98957832D01*
X85952783Y-98915342D01*
X85955838Y-98866104D01*
X85967079Y-98828989D01*
X85972400Y-98796848D01*
X85990581Y-98751391D01*
X86006600Y-98698501D01*
X86023091Y-98670110D01*
X86032995Y-98645347D01*
X86063816Y-98599995D01*
X86094557Y-98547071D01*
X86113054Y-98527545D01*
X86124712Y-98510391D01*
X86168794Y-98468705D01*
X86214992Y-98419937D01*
X86232509Y-98408452D01*
X86243266Y-98398280D01*
X86300235Y-98364049D01*
X86361444Y-98323919D01*
X86375535Y-98318804D01*
X86383136Y-98314237D01*
X86451510Y-98291227D01*
X86526057Y-98264168D01*
X86535021Y-98263123D01*
X86537781Y-98262194D01*
X86614155Y-98253897D01*
X86656154Y-98249000D01*
X87328411Y-98249000D01*
X87414655Y-98264518D01*
X87414655Y-98264518D01*
G37*
G36*
X90414655Y-98264518D02*
G01*
X90546661Y-98286371D01*
X90553290Y-98289462D01*
X90563560Y-98291310D01*
X90629934Y-98325202D01*
X90691336Y-98353835D01*
X90702051Y-98362028D01*
X90719525Y-98370950D01*
X90771716Y-98415290D01*
X90820957Y-98452937D01*
X90833499Y-98467778D01*
X90852985Y-98484333D01*
X90890045Y-98534692D01*
X90926280Y-98577570D01*
X90938104Y-98599997D01*
X90956783Y-98625378D01*
X90978935Y-98677437D01*
X91002382Y-98721909D01*
X91010687Y-98752060D01*
X91025349Y-98786518D01*
X91033925Y-98836425D01*
X91045712Y-98879219D01*
X91047657Y-98916345D01*
X91055006Y-98959110D01*
X91052237Y-99003738D01*
X91054251Y-99042168D01*
X91047217Y-99084658D01*
X91044162Y-99133896D01*
X91032921Y-99171011D01*
X91027600Y-99203152D01*
X91009419Y-99248609D01*
X90993400Y-99301499D01*
X90976909Y-99329890D01*
X90967005Y-99354653D01*
X90936184Y-99400005D01*
X90905443Y-99452929D01*
X90886946Y-99472455D01*
X90875288Y-99489609D01*
X90831206Y-99531295D01*
X90785008Y-99580063D01*
X90767491Y-99591548D01*
X90756734Y-99601720D01*
X90699765Y-99635951D01*
X90638556Y-99676081D01*
X90624465Y-99681196D01*
X90616864Y-99685763D01*
X90548490Y-99708773D01*
X90473943Y-99735832D01*
X90464979Y-99736877D01*
X90462219Y-99737806D01*
X90385845Y-99746103D01*
X90343846Y-99751000D01*
X89671589Y-99751000D01*
X89585345Y-99735482D01*
X89453339Y-99713629D01*
X89446710Y-99710538D01*
X89436440Y-99708690D01*
X89370066Y-99674798D01*
X89308664Y-99646165D01*
X89297949Y-99637972D01*
X89280475Y-99629050D01*
X89228284Y-99584710D01*
X89179043Y-99547063D01*
X89166501Y-99532222D01*
X89147015Y-99515667D01*
X89109955Y-99465308D01*
X89073720Y-99422430D01*
X89061896Y-99400003D01*
X89043217Y-99374622D01*
X89021065Y-99322563D01*
X88997618Y-99278091D01*
X88989313Y-99247940D01*
X88974651Y-99213482D01*
X88966075Y-99163575D01*
X88954288Y-99120781D01*
X88952343Y-99083655D01*
X88944994Y-99040890D01*
X88947763Y-98996262D01*
X88945749Y-98957832D01*
X88952783Y-98915342D01*
X88955838Y-98866104D01*
X88967079Y-98828989D01*
X88972400Y-98796848D01*
X88990581Y-98751391D01*
X89006600Y-98698501D01*
X89023091Y-98670110D01*
X89032995Y-98645347D01*
X89063816Y-98599995D01*
X89094557Y-98547071D01*
X89113054Y-98527545D01*
X89124712Y-98510391D01*
X89168794Y-98468705D01*
X89214992Y-98419937D01*
X89232509Y-98408452D01*
X89243266Y-98398280D01*
X89300235Y-98364049D01*
X89361444Y-98323919D01*
X89375535Y-98318804D01*
X89383136Y-98314237D01*
X89451510Y-98291227D01*
X89526057Y-98264168D01*
X89535021Y-98263123D01*
X89537781Y-98262194D01*
X89614155Y-98253897D01*
X89656154Y-98249000D01*
X90328411Y-98249000D01*
X90414655Y-98264518D01*
X90414655Y-98264518D01*
G37*
G36*
X125188360Y-96733835D02*
G01*
X125269397Y-96760166D01*
X125356663Y-96787848D01*
X125359655Y-96789493D01*
X125368488Y-96792363D01*
X125440466Y-96833919D01*
X125511499Y-96872970D01*
X125518986Y-96879253D01*
X125532511Y-96887061D01*
X125590259Y-96939057D01*
X125646857Y-96986549D01*
X125656962Y-96999118D01*
X125673261Y-97013793D01*
X125715454Y-97071867D01*
X125757579Y-97124260D01*
X125767994Y-97144182D01*
X125784586Y-97167019D01*
X125811297Y-97227012D01*
X125839439Y-97280843D01*
X125847582Y-97308510D01*
X125861621Y-97340042D01*
X125873992Y-97398241D01*
X125889328Y-97450349D01*
X125892518Y-97485401D01*
X125900999Y-97525301D01*
X125900999Y-97578592D01*
X125905343Y-97626324D01*
X125900999Y-97667653D01*
X125900999Y-97714699D01*
X125891217Y-97760721D01*
X125886873Y-97802047D01*
X125872702Y-97847827D01*
X125861621Y-97899958D01*
X125845028Y-97937226D01*
X125834622Y-97970843D01*
X125808789Y-98018620D01*
X125784586Y-98072981D01*
X125764298Y-98100905D01*
X125750580Y-98126276D01*
X125711859Y-98173082D01*
X125673261Y-98226207D01*
X125652284Y-98245095D01*
X125637952Y-98262419D01*
X125585845Y-98304917D01*
X125532511Y-98352939D01*
X125513524Y-98363901D01*
X125501025Y-98374095D01*
X125435780Y-98408786D01*
X125368488Y-98447637D01*
X125353636Y-98452463D01*
X125345003Y-98457053D01*
X125267430Y-98480473D01*
X125188360Y-98506165D01*
X125179114Y-98507137D01*
X125175851Y-98508122D01*
X125084710Y-98517059D01*
X125047211Y-98521000D01*
X124952789Y-98521000D01*
X124811640Y-98506165D01*
X124730603Y-98479834D01*
X124643337Y-98452152D01*
X124640345Y-98450507D01*
X124631512Y-98447637D01*
X124559534Y-98406081D01*
X124488501Y-98367030D01*
X124481014Y-98360747D01*
X124467489Y-98352939D01*
X124409741Y-98300943D01*
X124353143Y-98253451D01*
X124343038Y-98240882D01*
X124326739Y-98226207D01*
X124284546Y-98168133D01*
X124242421Y-98115740D01*
X124232006Y-98095818D01*
X124215414Y-98072981D01*
X124188703Y-98012988D01*
X124160561Y-97959157D01*
X124152418Y-97931490D01*
X124138379Y-97899958D01*
X124126008Y-97841759D01*
X124110672Y-97789651D01*
X124107482Y-97754599D01*
X124099001Y-97714699D01*
X124099001Y-97661408D01*
X124094657Y-97613676D01*
X124099001Y-97572347D01*
X124099001Y-97525301D01*
X124108783Y-97479279D01*
X124113127Y-97437953D01*
X124127298Y-97392173D01*
X124138379Y-97340042D01*
X124154972Y-97302774D01*
X124165378Y-97269157D01*
X124191211Y-97221380D01*
X124215414Y-97167019D01*
X124235702Y-97139095D01*
X124249420Y-97113724D01*
X124288141Y-97066918D01*
X124326739Y-97013793D01*
X124347716Y-96994905D01*
X124362048Y-96977581D01*
X124414155Y-96935083D01*
X124467489Y-96887061D01*
X124486476Y-96876099D01*
X124498975Y-96865905D01*
X124564220Y-96831214D01*
X124631512Y-96792363D01*
X124646364Y-96787537D01*
X124654997Y-96782947D01*
X124732570Y-96759527D01*
X124811640Y-96733835D01*
X124820886Y-96732863D01*
X124824149Y-96731878D01*
X124915290Y-96722941D01*
X124952789Y-96719000D01*
X125047211Y-96719000D01*
X125188360Y-96733835D01*
X125188360Y-96733835D01*
G37*
G36*
X95321945Y-96049094D02*
G01*
X95377571Y-96049482D01*
X95395701Y-96053734D01*
X95422955Y-96055449D01*
X95474718Y-96072268D01*
X95519763Y-96082833D01*
X95544764Y-96095027D01*
X95579385Y-96106276D01*
X95617764Y-96130632D01*
X95651034Y-96146859D01*
X95679882Y-96170053D01*
X95718261Y-96194409D01*
X95743181Y-96220946D01*
X95764857Y-96238374D01*
X95793591Y-96274627D01*
X95830856Y-96314311D01*
X95844016Y-96338249D01*
X95855579Y-96352838D01*
X95879610Y-96402994D01*
X95910095Y-96458446D01*
X95914617Y-96476059D01*
X95918685Y-96484549D01*
X95933192Y-96548404D01*
X95951000Y-96617760D01*
X95951000Y-96782240D01*
X95948533Y-96791850D01*
X95948530Y-96792034D01*
X95912429Y-96932640D01*
X95912339Y-96932816D01*
X95910095Y-96941554D01*
X95875611Y-97004280D01*
X95845670Y-97062539D01*
X95839617Y-97069752D01*
X95830856Y-97085689D01*
X95787535Y-97131822D01*
X95751787Y-97174424D01*
X95736960Y-97185678D01*
X95718261Y-97205591D01*
X95672297Y-97234761D01*
X95635454Y-97262726D01*
X95610125Y-97274216D01*
X95579385Y-97293724D01*
X95536157Y-97307770D01*
X95502443Y-97323063D01*
X95466179Y-97330507D01*
X95422955Y-97344551D01*
X95386621Y-97346837D01*
X95359378Y-97352429D01*
X95313132Y-97351461D01*
X95258798Y-97354879D01*
X95231967Y-97349761D01*
X95213354Y-97349371D01*
X95159393Y-97335917D01*
X95097231Y-97324059D01*
X95080773Y-97316314D01*
X95071639Y-97314037D01*
X95013184Y-97284509D01*
X94948404Y-97254026D01*
X94941452Y-97248275D01*
X94941276Y-97248186D01*
X94828743Y-97155091D01*
X94828621Y-97154932D01*
X94821670Y-97149182D01*
X94779599Y-97091276D01*
X94739627Y-97039372D01*
X94735677Y-97030823D01*
X94724990Y-97016114D01*
X94701699Y-96957288D01*
X94678368Y-96906794D01*
X94674497Y-96888583D01*
X94664441Y-96863184D01*
X94657617Y-96809168D01*
X94648001Y-96763927D01*
X94648389Y-96736122D01*
X94643826Y-96700000D01*
X94649523Y-96654902D01*
X94650040Y-96617890D01*
X94658744Y-96581912D01*
X94664441Y-96536816D01*
X94677843Y-96502966D01*
X94684383Y-96475933D01*
X94704951Y-96434499D01*
X94724990Y-96383886D01*
X94741044Y-96361789D01*
X94749323Y-96345112D01*
X94784479Y-96302007D01*
X94821670Y-96250818D01*
X94835682Y-96239226D01*
X94841631Y-96231932D01*
X94893222Y-96191624D01*
X94948404Y-96145974D01*
X94956572Y-96142131D01*
X94956726Y-96142010D01*
X95088874Y-96079826D01*
X95089064Y-96079784D01*
X95097231Y-96075941D01*
X95167577Y-96062522D01*
X95231521Y-96048463D01*
X95240934Y-96048529D01*
X95258798Y-96045121D01*
X95321945Y-96049094D01*
X95321945Y-96049094D01*
G37*
G36*
X88321945Y-96049094D02*
G01*
X88377571Y-96049482D01*
X88395701Y-96053734D01*
X88422955Y-96055449D01*
X88474718Y-96072268D01*
X88519763Y-96082833D01*
X88544764Y-96095027D01*
X88579385Y-96106276D01*
X88617764Y-96130632D01*
X88651034Y-96146859D01*
X88679882Y-96170053D01*
X88718261Y-96194409D01*
X88743181Y-96220946D01*
X88764857Y-96238374D01*
X88793591Y-96274627D01*
X88830856Y-96314311D01*
X88844016Y-96338249D01*
X88855579Y-96352838D01*
X88879610Y-96402994D01*
X88910095Y-96458446D01*
X88914617Y-96476059D01*
X88918685Y-96484549D01*
X88933192Y-96548404D01*
X88951000Y-96617760D01*
X88951000Y-96782240D01*
X88948533Y-96791850D01*
X88948530Y-96792034D01*
X88912429Y-96932640D01*
X88912339Y-96932816D01*
X88910095Y-96941554D01*
X88875611Y-97004280D01*
X88845670Y-97062539D01*
X88839617Y-97069752D01*
X88830856Y-97085689D01*
X88787535Y-97131822D01*
X88751787Y-97174424D01*
X88736960Y-97185678D01*
X88718261Y-97205591D01*
X88672297Y-97234761D01*
X88635454Y-97262726D01*
X88610125Y-97274216D01*
X88579385Y-97293724D01*
X88536157Y-97307770D01*
X88502443Y-97323063D01*
X88466179Y-97330507D01*
X88422955Y-97344551D01*
X88386621Y-97346837D01*
X88359378Y-97352429D01*
X88313132Y-97351461D01*
X88258798Y-97354879D01*
X88231967Y-97349761D01*
X88213354Y-97349371D01*
X88159393Y-97335917D01*
X88097231Y-97324059D01*
X88080773Y-97316314D01*
X88071639Y-97314037D01*
X88013184Y-97284509D01*
X87948404Y-97254026D01*
X87941452Y-97248275D01*
X87941276Y-97248186D01*
X87828743Y-97155091D01*
X87828621Y-97154932D01*
X87821670Y-97149182D01*
X87779599Y-97091276D01*
X87739627Y-97039372D01*
X87735677Y-97030823D01*
X87724990Y-97016114D01*
X87701699Y-96957288D01*
X87678368Y-96906794D01*
X87674497Y-96888583D01*
X87664441Y-96863184D01*
X87657617Y-96809168D01*
X87648001Y-96763927D01*
X87648389Y-96736122D01*
X87643826Y-96700000D01*
X87649523Y-96654902D01*
X87650040Y-96617890D01*
X87658744Y-96581912D01*
X87664441Y-96536816D01*
X87677843Y-96502966D01*
X87684383Y-96475933D01*
X87704951Y-96434499D01*
X87724990Y-96383886D01*
X87741044Y-96361789D01*
X87749323Y-96345112D01*
X87784479Y-96302007D01*
X87821670Y-96250818D01*
X87835682Y-96239226D01*
X87841631Y-96231932D01*
X87893222Y-96191624D01*
X87948404Y-96145974D01*
X87956572Y-96142131D01*
X87956726Y-96142010D01*
X88088874Y-96079826D01*
X88089064Y-96079784D01*
X88097231Y-96075941D01*
X88167577Y-96062522D01*
X88231521Y-96048463D01*
X88240934Y-96048529D01*
X88258798Y-96045121D01*
X88321945Y-96049094D01*
X88321945Y-96049094D01*
G37*
G36*
X125188360Y-94193835D02*
G01*
X125269397Y-94220166D01*
X125356663Y-94247848D01*
X125359655Y-94249493D01*
X125368488Y-94252363D01*
X125440466Y-94293919D01*
X125511499Y-94332970D01*
X125518986Y-94339253D01*
X125532511Y-94347061D01*
X125590259Y-94399057D01*
X125646857Y-94446549D01*
X125656962Y-94459118D01*
X125673261Y-94473793D01*
X125715454Y-94531867D01*
X125757579Y-94584260D01*
X125767994Y-94604182D01*
X125784586Y-94627019D01*
X125811297Y-94687012D01*
X125839439Y-94740843D01*
X125847582Y-94768510D01*
X125861621Y-94800042D01*
X125873992Y-94858241D01*
X125889328Y-94910349D01*
X125892518Y-94945401D01*
X125900999Y-94985301D01*
X125900999Y-95038592D01*
X125905343Y-95086324D01*
X125900999Y-95127653D01*
X125900999Y-95174699D01*
X125891217Y-95220721D01*
X125886873Y-95262047D01*
X125872702Y-95307827D01*
X125861621Y-95359958D01*
X125845028Y-95397226D01*
X125834622Y-95430843D01*
X125808789Y-95478620D01*
X125784586Y-95532981D01*
X125764298Y-95560905D01*
X125750580Y-95586276D01*
X125711859Y-95633082D01*
X125673261Y-95686207D01*
X125652284Y-95705095D01*
X125637952Y-95722419D01*
X125585845Y-95764917D01*
X125532511Y-95812939D01*
X125513524Y-95823901D01*
X125501025Y-95834095D01*
X125435780Y-95868786D01*
X125368488Y-95907637D01*
X125353636Y-95912463D01*
X125345003Y-95917053D01*
X125267430Y-95940473D01*
X125188360Y-95966165D01*
X125179114Y-95967137D01*
X125175851Y-95968122D01*
X125084710Y-95977059D01*
X125047211Y-95981000D01*
X124952789Y-95981000D01*
X124811640Y-95966165D01*
X124730603Y-95939834D01*
X124643337Y-95912152D01*
X124640345Y-95910507D01*
X124631512Y-95907637D01*
X124559534Y-95866081D01*
X124488501Y-95827030D01*
X124481014Y-95820747D01*
X124467489Y-95812939D01*
X124409741Y-95760943D01*
X124353143Y-95713451D01*
X124343038Y-95700882D01*
X124326739Y-95686207D01*
X124284546Y-95628133D01*
X124242421Y-95575740D01*
X124232006Y-95555818D01*
X124215414Y-95532981D01*
X124188703Y-95472988D01*
X124160561Y-95419157D01*
X124152418Y-95391490D01*
X124138379Y-95359958D01*
X124126008Y-95301759D01*
X124110672Y-95249651D01*
X124107482Y-95214599D01*
X124099001Y-95174699D01*
X124099001Y-95121408D01*
X124094657Y-95073676D01*
X124099001Y-95032347D01*
X124099001Y-94985301D01*
X124108783Y-94939279D01*
X124113127Y-94897953D01*
X124127298Y-94852173D01*
X124138379Y-94800042D01*
X124154972Y-94762774D01*
X124165378Y-94729157D01*
X124191211Y-94681380D01*
X124215414Y-94627019D01*
X124235702Y-94599095D01*
X124249420Y-94573724D01*
X124288141Y-94526918D01*
X124326739Y-94473793D01*
X124347716Y-94454905D01*
X124362048Y-94437581D01*
X124414155Y-94395083D01*
X124467489Y-94347061D01*
X124486476Y-94336099D01*
X124498975Y-94325905D01*
X124564220Y-94291214D01*
X124631512Y-94252363D01*
X124646364Y-94247537D01*
X124654997Y-94242947D01*
X124732570Y-94219527D01*
X124811640Y-94193835D01*
X124820886Y-94192863D01*
X124824149Y-94191878D01*
X124915290Y-94182941D01*
X124952789Y-94179000D01*
X125047211Y-94179000D01*
X125188360Y-94193835D01*
X125188360Y-94193835D01*
G37*
G36*
X95914655Y-93764518D02*
G01*
X96046661Y-93786371D01*
X96053290Y-93789462D01*
X96063560Y-93791310D01*
X96129934Y-93825202D01*
X96191336Y-93853835D01*
X96202051Y-93862028D01*
X96219525Y-93870950D01*
X96271716Y-93915290D01*
X96320957Y-93952937D01*
X96333499Y-93967778D01*
X96352985Y-93984333D01*
X96390045Y-94034692D01*
X96426280Y-94077570D01*
X96438104Y-94099997D01*
X96456783Y-94125378D01*
X96478935Y-94177437D01*
X96502382Y-94221909D01*
X96510687Y-94252060D01*
X96525349Y-94286518D01*
X96533925Y-94336425D01*
X96545712Y-94379219D01*
X96547657Y-94416345D01*
X96555006Y-94459110D01*
X96552237Y-94503738D01*
X96554251Y-94542168D01*
X96547217Y-94584658D01*
X96544162Y-94633896D01*
X96532921Y-94671011D01*
X96527600Y-94703152D01*
X96509419Y-94748609D01*
X96493400Y-94801499D01*
X96476909Y-94829890D01*
X96467005Y-94854653D01*
X96436184Y-94900005D01*
X96405443Y-94952929D01*
X96386946Y-94972455D01*
X96375288Y-94989609D01*
X96331206Y-95031295D01*
X96285008Y-95080063D01*
X96267491Y-95091548D01*
X96256734Y-95101720D01*
X96199765Y-95135951D01*
X96138556Y-95176081D01*
X96124465Y-95181196D01*
X96116864Y-95185763D01*
X96048490Y-95208773D01*
X95973943Y-95235832D01*
X95964979Y-95236877D01*
X95962219Y-95237806D01*
X95885845Y-95246103D01*
X95843846Y-95251000D01*
X95171589Y-95251000D01*
X95085345Y-95235482D01*
X94953339Y-95213629D01*
X94946710Y-95210538D01*
X94936440Y-95208690D01*
X94870066Y-95174798D01*
X94808664Y-95146165D01*
X94797949Y-95137972D01*
X94780475Y-95129050D01*
X94728284Y-95084710D01*
X94679043Y-95047063D01*
X94666501Y-95032222D01*
X94647015Y-95015667D01*
X94609955Y-94965308D01*
X94573720Y-94922430D01*
X94561896Y-94900003D01*
X94543217Y-94874622D01*
X94521065Y-94822563D01*
X94497618Y-94778091D01*
X94489313Y-94747940D01*
X94474651Y-94713482D01*
X94466075Y-94663575D01*
X94454288Y-94620781D01*
X94452343Y-94583655D01*
X94444994Y-94540890D01*
X94447763Y-94496262D01*
X94445749Y-94457832D01*
X94452783Y-94415342D01*
X94455838Y-94366104D01*
X94467079Y-94328989D01*
X94472400Y-94296848D01*
X94490581Y-94251391D01*
X94506600Y-94198501D01*
X94523091Y-94170110D01*
X94532995Y-94145347D01*
X94563816Y-94099995D01*
X94594557Y-94047071D01*
X94613054Y-94027545D01*
X94624712Y-94010391D01*
X94668794Y-93968705D01*
X94714992Y-93919937D01*
X94732509Y-93908452D01*
X94743266Y-93898280D01*
X94800235Y-93864049D01*
X94861444Y-93823919D01*
X94875535Y-93818804D01*
X94883136Y-93814237D01*
X94951510Y-93791227D01*
X95026057Y-93764168D01*
X95035021Y-93763123D01*
X95037781Y-93762194D01*
X95114155Y-93753897D01*
X95156154Y-93749000D01*
X95828411Y-93749000D01*
X95914655Y-93764518D01*
X95914655Y-93764518D01*
G37*
G36*
X87414655Y-92764518D02*
G01*
X87546661Y-92786371D01*
X87553290Y-92789462D01*
X87563560Y-92791310D01*
X87629934Y-92825202D01*
X87691336Y-92853835D01*
X87702051Y-92862028D01*
X87719525Y-92870950D01*
X87771716Y-92915290D01*
X87820957Y-92952937D01*
X87833499Y-92967778D01*
X87852985Y-92984333D01*
X87890045Y-93034692D01*
X87926280Y-93077570D01*
X87938104Y-93099997D01*
X87956783Y-93125378D01*
X87978935Y-93177437D01*
X88002382Y-93221909D01*
X88010687Y-93252060D01*
X88025349Y-93286518D01*
X88033925Y-93336425D01*
X88045712Y-93379219D01*
X88047657Y-93416345D01*
X88055006Y-93459110D01*
X88052237Y-93503738D01*
X88054251Y-93542168D01*
X88047217Y-93584658D01*
X88044162Y-93633896D01*
X88032921Y-93671011D01*
X88027600Y-93703152D01*
X88009419Y-93748609D01*
X87993400Y-93801499D01*
X87976909Y-93829890D01*
X87967005Y-93854653D01*
X87936184Y-93900005D01*
X87905443Y-93952929D01*
X87886946Y-93972455D01*
X87875288Y-93989609D01*
X87831206Y-94031295D01*
X87785008Y-94080063D01*
X87767491Y-94091548D01*
X87756734Y-94101720D01*
X87699765Y-94135951D01*
X87638556Y-94176081D01*
X87624465Y-94181196D01*
X87616864Y-94185763D01*
X87548490Y-94208773D01*
X87473943Y-94235832D01*
X87464979Y-94236877D01*
X87462219Y-94237806D01*
X87385845Y-94246103D01*
X87343846Y-94251000D01*
X86671589Y-94251000D01*
X86585345Y-94235482D01*
X86453339Y-94213629D01*
X86446710Y-94210538D01*
X86436440Y-94208690D01*
X86370066Y-94174798D01*
X86308664Y-94146165D01*
X86297949Y-94137972D01*
X86280475Y-94129050D01*
X86228284Y-94084710D01*
X86179043Y-94047063D01*
X86166501Y-94032222D01*
X86147015Y-94015667D01*
X86109955Y-93965308D01*
X86073720Y-93922430D01*
X86061896Y-93900003D01*
X86043217Y-93874622D01*
X86021065Y-93822563D01*
X85997618Y-93778091D01*
X85989313Y-93747940D01*
X85974651Y-93713482D01*
X85966075Y-93663575D01*
X85954288Y-93620781D01*
X85952343Y-93583655D01*
X85944994Y-93540890D01*
X85947763Y-93496262D01*
X85945749Y-93457832D01*
X85952783Y-93415342D01*
X85955838Y-93366104D01*
X85967079Y-93328989D01*
X85972400Y-93296848D01*
X85990581Y-93251391D01*
X86006600Y-93198501D01*
X86023091Y-93170110D01*
X86032995Y-93145347D01*
X86063816Y-93099995D01*
X86094557Y-93047071D01*
X86113054Y-93027545D01*
X86124712Y-93010391D01*
X86168794Y-92968705D01*
X86214992Y-92919937D01*
X86232509Y-92908452D01*
X86243266Y-92898280D01*
X86300235Y-92864049D01*
X86361444Y-92823919D01*
X86375535Y-92818804D01*
X86383136Y-92814237D01*
X86451510Y-92791227D01*
X86526057Y-92764168D01*
X86535021Y-92763123D01*
X86537781Y-92762194D01*
X86614155Y-92753897D01*
X86656154Y-92749000D01*
X87328411Y-92749000D01*
X87414655Y-92764518D01*
X87414655Y-92764518D01*
G37*
G36*
X125188360Y-91653835D02*
G01*
X125269397Y-91680166D01*
X125356663Y-91707848D01*
X125359655Y-91709493D01*
X125368488Y-91712363D01*
X125440466Y-91753919D01*
X125511499Y-91792970D01*
X125518986Y-91799253D01*
X125532511Y-91807061D01*
X125590259Y-91859057D01*
X125646857Y-91906549D01*
X125656962Y-91919118D01*
X125673261Y-91933793D01*
X125715454Y-91991867D01*
X125757579Y-92044260D01*
X125767994Y-92064182D01*
X125784586Y-92087019D01*
X125811297Y-92147012D01*
X125839439Y-92200843D01*
X125847582Y-92228510D01*
X125861621Y-92260042D01*
X125873992Y-92318241D01*
X125889328Y-92370349D01*
X125892518Y-92405401D01*
X125900999Y-92445301D01*
X125900999Y-92498592D01*
X125905343Y-92546324D01*
X125900999Y-92587653D01*
X125900999Y-92634699D01*
X125891217Y-92680721D01*
X125886873Y-92722047D01*
X125872702Y-92767827D01*
X125861621Y-92819958D01*
X125845028Y-92857226D01*
X125834622Y-92890843D01*
X125808789Y-92938620D01*
X125784586Y-92992981D01*
X125764298Y-93020905D01*
X125750580Y-93046276D01*
X125711859Y-93093082D01*
X125673261Y-93146207D01*
X125652284Y-93165095D01*
X125637952Y-93182419D01*
X125585845Y-93224917D01*
X125532511Y-93272939D01*
X125513524Y-93283901D01*
X125501025Y-93294095D01*
X125435780Y-93328786D01*
X125368488Y-93367637D01*
X125353636Y-93372463D01*
X125345003Y-93377053D01*
X125267430Y-93400473D01*
X125188360Y-93426165D01*
X125179114Y-93427137D01*
X125175851Y-93428122D01*
X125084710Y-93437059D01*
X125047211Y-93441000D01*
X124952789Y-93441000D01*
X124811640Y-93426165D01*
X124730603Y-93399834D01*
X124643337Y-93372152D01*
X124640345Y-93370507D01*
X124631512Y-93367637D01*
X124559534Y-93326081D01*
X124488501Y-93287030D01*
X124481014Y-93280747D01*
X124467489Y-93272939D01*
X124409741Y-93220943D01*
X124353143Y-93173451D01*
X124343038Y-93160882D01*
X124326739Y-93146207D01*
X124284546Y-93088133D01*
X124242421Y-93035740D01*
X124232006Y-93015818D01*
X124215414Y-92992981D01*
X124188703Y-92932988D01*
X124160561Y-92879157D01*
X124152418Y-92851490D01*
X124138379Y-92819958D01*
X124126008Y-92761759D01*
X124110672Y-92709651D01*
X124107482Y-92674599D01*
X124099001Y-92634699D01*
X124099001Y-92581408D01*
X124094657Y-92533676D01*
X124099001Y-92492347D01*
X124099001Y-92445301D01*
X124108783Y-92399279D01*
X124113127Y-92357953D01*
X124127298Y-92312173D01*
X124138379Y-92260042D01*
X124154972Y-92222774D01*
X124165378Y-92189157D01*
X124191211Y-92141380D01*
X124215414Y-92087019D01*
X124235702Y-92059095D01*
X124249420Y-92033724D01*
X124288141Y-91986918D01*
X124326739Y-91933793D01*
X124347716Y-91914905D01*
X124362048Y-91897581D01*
X124414155Y-91855083D01*
X124467489Y-91807061D01*
X124486476Y-91796099D01*
X124498975Y-91785905D01*
X124564220Y-91751214D01*
X124631512Y-91712363D01*
X124646364Y-91707537D01*
X124654997Y-91702947D01*
X124732570Y-91679527D01*
X124811640Y-91653835D01*
X124820886Y-91652863D01*
X124824149Y-91651878D01*
X124915290Y-91642941D01*
X124952789Y-91639000D01*
X125047211Y-91639000D01*
X125188360Y-91653835D01*
X125188360Y-91653835D01*
G37*
G36*
X125869899Y-89101959D02*
G01*
X125886769Y-89113231D01*
X125898041Y-89130101D01*
X125904448Y-89162312D01*
X125904448Y-90837688D01*
X125901999Y-90850000D01*
X125898041Y-90869899D01*
X125886769Y-90886769D01*
X125869899Y-90898041D01*
X125850000Y-90901999D01*
X125837688Y-90904448D01*
X124162312Y-90904448D01*
X124130101Y-90898041D01*
X124113231Y-90886769D01*
X124101959Y-90869899D01*
X124095552Y-90837688D01*
X124095552Y-89162312D01*
X124101959Y-89130101D01*
X124113231Y-89113231D01*
X124130101Y-89101959D01*
X124162312Y-89095552D01*
X125837688Y-89095552D01*
X125869899Y-89101959D01*
X125869899Y-89101959D01*
G37*
G36*
X125188360Y-83273835D02*
G01*
X125269397Y-83300166D01*
X125356663Y-83327848D01*
X125359655Y-83329493D01*
X125368488Y-83332363D01*
X125440466Y-83373919D01*
X125511499Y-83412970D01*
X125518986Y-83419253D01*
X125532511Y-83427061D01*
X125590259Y-83479057D01*
X125646857Y-83526549D01*
X125656962Y-83539118D01*
X125673261Y-83553793D01*
X125715454Y-83611867D01*
X125757579Y-83664260D01*
X125767994Y-83684182D01*
X125784586Y-83707019D01*
X125811297Y-83767012D01*
X125839439Y-83820843D01*
X125847582Y-83848510D01*
X125861621Y-83880042D01*
X125873992Y-83938241D01*
X125889328Y-83990349D01*
X125892518Y-84025401D01*
X125900999Y-84065301D01*
X125900999Y-84118592D01*
X125905343Y-84166324D01*
X125900999Y-84207653D01*
X125900999Y-84254699D01*
X125891217Y-84300721D01*
X125886873Y-84342047D01*
X125872702Y-84387827D01*
X125861621Y-84439958D01*
X125845028Y-84477226D01*
X125834622Y-84510843D01*
X125808789Y-84558620D01*
X125784586Y-84612981D01*
X125764298Y-84640905D01*
X125750580Y-84666276D01*
X125711859Y-84713082D01*
X125673261Y-84766207D01*
X125652284Y-84785095D01*
X125637952Y-84802419D01*
X125585845Y-84844917D01*
X125532511Y-84892939D01*
X125513524Y-84903901D01*
X125501025Y-84914095D01*
X125435780Y-84948786D01*
X125368488Y-84987637D01*
X125353636Y-84992463D01*
X125345003Y-84997053D01*
X125267430Y-85020473D01*
X125188360Y-85046165D01*
X125179114Y-85047137D01*
X125175851Y-85048122D01*
X125084710Y-85057059D01*
X125047211Y-85061000D01*
X124952789Y-85061000D01*
X124811640Y-85046165D01*
X124730603Y-85019834D01*
X124643337Y-84992152D01*
X124640345Y-84990507D01*
X124631512Y-84987637D01*
X124559534Y-84946081D01*
X124488501Y-84907030D01*
X124481014Y-84900747D01*
X124467489Y-84892939D01*
X124409741Y-84840943D01*
X124353143Y-84793451D01*
X124343038Y-84780882D01*
X124326739Y-84766207D01*
X124284546Y-84708133D01*
X124242421Y-84655740D01*
X124232006Y-84635818D01*
X124215414Y-84612981D01*
X124188703Y-84552988D01*
X124160561Y-84499157D01*
X124152418Y-84471490D01*
X124138379Y-84439958D01*
X124126008Y-84381759D01*
X124110672Y-84329651D01*
X124107482Y-84294599D01*
X124099001Y-84254699D01*
X124099001Y-84201408D01*
X124094657Y-84153676D01*
X124099001Y-84112347D01*
X124099001Y-84065301D01*
X124108783Y-84019279D01*
X124113127Y-83977953D01*
X124127298Y-83932173D01*
X124138379Y-83880042D01*
X124154972Y-83842774D01*
X124165378Y-83809157D01*
X124191211Y-83761380D01*
X124215414Y-83707019D01*
X124235702Y-83679095D01*
X124249420Y-83653724D01*
X124288141Y-83606918D01*
X124326739Y-83553793D01*
X124347716Y-83534905D01*
X124362048Y-83517581D01*
X124414155Y-83475083D01*
X124467489Y-83427061D01*
X124486476Y-83416099D01*
X124498975Y-83405905D01*
X124564220Y-83371214D01*
X124631512Y-83332363D01*
X124646364Y-83327537D01*
X124654997Y-83322947D01*
X124732570Y-83299527D01*
X124811640Y-83273835D01*
X124820886Y-83272863D01*
X124824149Y-83271878D01*
X124915290Y-83262941D01*
X124952789Y-83259000D01*
X125047211Y-83259000D01*
X125188360Y-83273835D01*
X125188360Y-83273835D01*
G37*
G36*
X125188360Y-80733835D02*
G01*
X125269397Y-80760166D01*
X125356663Y-80787848D01*
X125359655Y-80789493D01*
X125368488Y-80792363D01*
X125440466Y-80833919D01*
X125511499Y-80872970D01*
X125518986Y-80879253D01*
X125532511Y-80887061D01*
X125590259Y-80939057D01*
X125646857Y-80986549D01*
X125656962Y-80999118D01*
X125673261Y-81013793D01*
X125715454Y-81071867D01*
X125757579Y-81124260D01*
X125767994Y-81144182D01*
X125784586Y-81167019D01*
X125811297Y-81227012D01*
X125839439Y-81280843D01*
X125847582Y-81308510D01*
X125861621Y-81340042D01*
X125873992Y-81398241D01*
X125889328Y-81450349D01*
X125892518Y-81485401D01*
X125900999Y-81525301D01*
X125900999Y-81578592D01*
X125905343Y-81626324D01*
X125900999Y-81667653D01*
X125900999Y-81714699D01*
X125891217Y-81760721D01*
X125886873Y-81802047D01*
X125872702Y-81847827D01*
X125861621Y-81899958D01*
X125845028Y-81937226D01*
X125834622Y-81970843D01*
X125808789Y-82018620D01*
X125784586Y-82072981D01*
X125764298Y-82100905D01*
X125750580Y-82126276D01*
X125711859Y-82173082D01*
X125673261Y-82226207D01*
X125652284Y-82245095D01*
X125637952Y-82262419D01*
X125585845Y-82304917D01*
X125532511Y-82352939D01*
X125513524Y-82363901D01*
X125501025Y-82374095D01*
X125435780Y-82408786D01*
X125368488Y-82447637D01*
X125353636Y-82452463D01*
X125345003Y-82457053D01*
X125267430Y-82480473D01*
X125188360Y-82506165D01*
X125179114Y-82507137D01*
X125175851Y-82508122D01*
X125084710Y-82517059D01*
X125047211Y-82521000D01*
X124952789Y-82521000D01*
X124811640Y-82506165D01*
X124730603Y-82479834D01*
X124643337Y-82452152D01*
X124640345Y-82450507D01*
X124631512Y-82447637D01*
X124559534Y-82406081D01*
X124488501Y-82367030D01*
X124481014Y-82360747D01*
X124467489Y-82352939D01*
X124409741Y-82300943D01*
X124353143Y-82253451D01*
X124343038Y-82240882D01*
X124326739Y-82226207D01*
X124284546Y-82168133D01*
X124242421Y-82115740D01*
X124232006Y-82095818D01*
X124215414Y-82072981D01*
X124188703Y-82012988D01*
X124160561Y-81959157D01*
X124152418Y-81931490D01*
X124138379Y-81899958D01*
X124126008Y-81841759D01*
X124110672Y-81789651D01*
X124107482Y-81754599D01*
X124099001Y-81714699D01*
X124099001Y-81661408D01*
X124094657Y-81613676D01*
X124099001Y-81572347D01*
X124099001Y-81525301D01*
X124108783Y-81479279D01*
X124113127Y-81437953D01*
X124127298Y-81392173D01*
X124138379Y-81340042D01*
X124154972Y-81302774D01*
X124165378Y-81269157D01*
X124191211Y-81221380D01*
X124215414Y-81167019D01*
X124235702Y-81139095D01*
X124249420Y-81113724D01*
X124288141Y-81066918D01*
X124326739Y-81013793D01*
X124347716Y-80994905D01*
X124362048Y-80977581D01*
X124414155Y-80935083D01*
X124467489Y-80887061D01*
X124486476Y-80876099D01*
X124498975Y-80865905D01*
X124564220Y-80831214D01*
X124631512Y-80792363D01*
X124646364Y-80787537D01*
X124654997Y-80782947D01*
X124732570Y-80759527D01*
X124811640Y-80733835D01*
X124820886Y-80732863D01*
X124824149Y-80731878D01*
X124915290Y-80722941D01*
X124952789Y-80719000D01*
X125047211Y-80719000D01*
X125188360Y-80733835D01*
X125188360Y-80733835D01*
G37*
G36*
X118059591Y-79949345D02*
G01*
X118110391Y-79949700D01*
X118161051Y-79960099D01*
X118206828Y-79964951D01*
X118256287Y-79979648D01*
X118312293Y-79991145D01*
X118354069Y-80008706D01*
X118391981Y-80019972D01*
X118443722Y-80046392D01*
X118502300Y-80071016D01*
X118534564Y-80092779D01*
X118564015Y-80107817D01*
X118615254Y-80147205D01*
X118673174Y-80186273D01*
X118696070Y-80209330D01*
X118717158Y-80225540D01*
X118764764Y-80278504D01*
X118818407Y-80332523D01*
X118832831Y-80354233D01*
X118846284Y-80369200D01*
X118886922Y-80435646D01*
X118932468Y-80504198D01*
X118939950Y-80522350D01*
X118947065Y-80533984D01*
X118977378Y-80613158D01*
X119011011Y-80694758D01*
X119013572Y-80707693D01*
X119016132Y-80714379D01*
X119032931Y-80805461D01*
X119051045Y-80896944D01*
X119047757Y-81132363D01*
X119044234Y-81147869D01*
X119044069Y-81153973D01*
X119022745Y-81242453D01*
X119002094Y-81333352D01*
X118999358Y-81339497D01*
X118999199Y-81340157D01*
X118941914Y-81468518D01*
X118918261Y-81521645D01*
X118864257Y-81598200D01*
X118810932Y-81675643D01*
X118806520Y-81680048D01*
X118799451Y-81690068D01*
X118734969Y-81751474D01*
X118674227Y-81812109D01*
X118663742Y-81819302D01*
X118650191Y-81832206D01*
X118579960Y-81876776D01*
X118514942Y-81921378D01*
X118497400Y-81929170D01*
X118476165Y-81942646D01*
X118404347Y-81970503D01*
X118338410Y-81999791D01*
X118313446Y-82005761D01*
X118284002Y-82017182D01*
X118214304Y-82029471D01*
X118150543Y-82044720D01*
X118118438Y-82046375D01*
X118081022Y-82052972D01*
X118016608Y-82051623D01*
X117957641Y-82054662D01*
X117919342Y-82049586D01*
X117874955Y-82048656D01*
X117818223Y-82036183D01*
X117766152Y-82029281D01*
X117723267Y-82015306D01*
X117673652Y-82004397D01*
X117626265Y-81983694D01*
X117582498Y-81969431D01*
X117537176Y-81944772D01*
X117484779Y-81921880D01*
X117447565Y-81896016D01*
X117412825Y-81877114D01*
X117367703Y-81840510D01*
X117315530Y-81804249D01*
X117288502Y-81776260D01*
X117262814Y-81755422D01*
X117220877Y-81706233D01*
X117172353Y-81655985D01*
X117154751Y-81628672D01*
X117137495Y-81608432D01*
X117101942Y-81546728D01*
X117060701Y-81482734D01*
X117051105Y-81458498D01*
X117041060Y-81441064D01*
X117015127Y-81367628D01*
X116984826Y-81291096D01*
X116981282Y-81271785D01*
X116976739Y-81258921D01*
X116963546Y-81175152D01*
X116947619Y-81088371D01*
X116947803Y-81075188D01*
X116946689Y-81068114D01*
X116949196Y-80975460D01*
X116950497Y-80882279D01*
X116951895Y-80875703D01*
X116951913Y-80875026D01*
X116981406Y-80736863D01*
X116993350Y-80680672D01*
X117030226Y-80594635D01*
X117066315Y-80507722D01*
X117069718Y-80502492D01*
X117074546Y-80491227D01*
X117124828Y-80417791D01*
X117171658Y-80345818D01*
X117180423Y-80336598D01*
X117190992Y-80321162D01*
X117250409Y-80262977D01*
X117304745Y-80205818D01*
X117320286Y-80194547D01*
X117338253Y-80176953D01*
X117402701Y-80134780D01*
X117461118Y-80092415D01*
X117484301Y-80081382D01*
X117510720Y-80064094D01*
X117576316Y-80037591D01*
X117635532Y-80009410D01*
X117666596Y-80001116D01*
X117701823Y-79986883D01*
X117765128Y-79974807D01*
X117822159Y-79959579D01*
X117860663Y-79956582D01*
X117904284Y-79948261D01*
X117962370Y-79948667D01*
X118014735Y-79944591D01*
X118059591Y-79949345D01*
X118059591Y-79949345D01*
G37*
G36*
X95019899Y-80251959D02*
G01*
X95036769Y-80263231D01*
X95048041Y-80280101D01*
X95054448Y-80312312D01*
X95054448Y-81687688D01*
X95051999Y-81700000D01*
X95048041Y-81719899D01*
X95036769Y-81736769D01*
X95019899Y-81748041D01*
X95000000Y-81751999D01*
X94987688Y-81754448D01*
X93012312Y-81754448D01*
X92980101Y-81748041D01*
X92963231Y-81736769D01*
X92951959Y-81719899D01*
X92945552Y-81687688D01*
X92945552Y-80312312D01*
X92951959Y-80280101D01*
X92963231Y-80263231D01*
X92980101Y-80251959D01*
X93012312Y-80245552D01*
X94987688Y-80245552D01*
X95019899Y-80251959D01*
X95019899Y-80251959D01*
G37*
G36*
X90414655Y-80264518D02*
G01*
X90546661Y-80286371D01*
X90553290Y-80289462D01*
X90563560Y-80291310D01*
X90629934Y-80325202D01*
X90691336Y-80353835D01*
X90702051Y-80362028D01*
X90719525Y-80370950D01*
X90771716Y-80415290D01*
X90820957Y-80452937D01*
X90833499Y-80467778D01*
X90852985Y-80484333D01*
X90890045Y-80534692D01*
X90926280Y-80577570D01*
X90938104Y-80599997D01*
X90956783Y-80625378D01*
X90978935Y-80677437D01*
X91002382Y-80721909D01*
X91010687Y-80752060D01*
X91025349Y-80786518D01*
X91033925Y-80836425D01*
X91045712Y-80879219D01*
X91047657Y-80916345D01*
X91055006Y-80959110D01*
X91052237Y-81003738D01*
X91054251Y-81042168D01*
X91047217Y-81084658D01*
X91044162Y-81133896D01*
X91032921Y-81171011D01*
X91027600Y-81203152D01*
X91009419Y-81248609D01*
X90993400Y-81301499D01*
X90976909Y-81329890D01*
X90967005Y-81354653D01*
X90936184Y-81400005D01*
X90905443Y-81452929D01*
X90886946Y-81472455D01*
X90875288Y-81489609D01*
X90831206Y-81531295D01*
X90785008Y-81580063D01*
X90767491Y-81591548D01*
X90756734Y-81601720D01*
X90699765Y-81635951D01*
X90638556Y-81676081D01*
X90624465Y-81681196D01*
X90616864Y-81685763D01*
X90548490Y-81708773D01*
X90473943Y-81735832D01*
X90464979Y-81736877D01*
X90462219Y-81737806D01*
X90385845Y-81746103D01*
X90343846Y-81751000D01*
X89671589Y-81751000D01*
X89585345Y-81735482D01*
X89453339Y-81713629D01*
X89446710Y-81710538D01*
X89436440Y-81708690D01*
X89370066Y-81674798D01*
X89308664Y-81646165D01*
X89297949Y-81637972D01*
X89280475Y-81629050D01*
X89228284Y-81584710D01*
X89179043Y-81547063D01*
X89166501Y-81532222D01*
X89147015Y-81515667D01*
X89109955Y-81465308D01*
X89073720Y-81422430D01*
X89061896Y-81400003D01*
X89043217Y-81374622D01*
X89021065Y-81322563D01*
X88997618Y-81278091D01*
X88989313Y-81247940D01*
X88974651Y-81213482D01*
X88966075Y-81163575D01*
X88954288Y-81120781D01*
X88952343Y-81083655D01*
X88944994Y-81040890D01*
X88947763Y-80996262D01*
X88945749Y-80957832D01*
X88952783Y-80915342D01*
X88955838Y-80866104D01*
X88967079Y-80828989D01*
X88972400Y-80796848D01*
X88990581Y-80751391D01*
X89006600Y-80698501D01*
X89023091Y-80670110D01*
X89032995Y-80645347D01*
X89063816Y-80599995D01*
X89094557Y-80547071D01*
X89113054Y-80527545D01*
X89124712Y-80510391D01*
X89168794Y-80468705D01*
X89214992Y-80419937D01*
X89232509Y-80408452D01*
X89243266Y-80398280D01*
X89300235Y-80364049D01*
X89361444Y-80323919D01*
X89375535Y-80318804D01*
X89383136Y-80314237D01*
X89451510Y-80291227D01*
X89526057Y-80264168D01*
X89535021Y-80263123D01*
X89537781Y-80262194D01*
X89614155Y-80253897D01*
X89656154Y-80249000D01*
X90328411Y-80249000D01*
X90414655Y-80264518D01*
X90414655Y-80264518D01*
G37*
G36*
X87414655Y-80264518D02*
G01*
X87546661Y-80286371D01*
X87553290Y-80289462D01*
X87563560Y-80291310D01*
X87629934Y-80325202D01*
X87691336Y-80353835D01*
X87702051Y-80362028D01*
X87719525Y-80370950D01*
X87771716Y-80415290D01*
X87820957Y-80452937D01*
X87833499Y-80467778D01*
X87852985Y-80484333D01*
X87890045Y-80534692D01*
X87926280Y-80577570D01*
X87938104Y-80599997D01*
X87956783Y-80625378D01*
X87978935Y-80677437D01*
X88002382Y-80721909D01*
X88010687Y-80752060D01*
X88025349Y-80786518D01*
X88033925Y-80836425D01*
X88045712Y-80879219D01*
X88047657Y-80916345D01*
X88055006Y-80959110D01*
X88052237Y-81003738D01*
X88054251Y-81042168D01*
X88047217Y-81084658D01*
X88044162Y-81133896D01*
X88032921Y-81171011D01*
X88027600Y-81203152D01*
X88009419Y-81248609D01*
X87993400Y-81301499D01*
X87976909Y-81329890D01*
X87967005Y-81354653D01*
X87936184Y-81400005D01*
X87905443Y-81452929D01*
X87886946Y-81472455D01*
X87875288Y-81489609D01*
X87831206Y-81531295D01*
X87785008Y-81580063D01*
X87767491Y-81591548D01*
X87756734Y-81601720D01*
X87699765Y-81635951D01*
X87638556Y-81676081D01*
X87624465Y-81681196D01*
X87616864Y-81685763D01*
X87548490Y-81708773D01*
X87473943Y-81735832D01*
X87464979Y-81736877D01*
X87462219Y-81737806D01*
X87385845Y-81746103D01*
X87343846Y-81751000D01*
X86671589Y-81751000D01*
X86585345Y-81735482D01*
X86453339Y-81713629D01*
X86446710Y-81710538D01*
X86436440Y-81708690D01*
X86370066Y-81674798D01*
X86308664Y-81646165D01*
X86297949Y-81637972D01*
X86280475Y-81629050D01*
X86228284Y-81584710D01*
X86179043Y-81547063D01*
X86166501Y-81532222D01*
X86147015Y-81515667D01*
X86109955Y-81465308D01*
X86073720Y-81422430D01*
X86061896Y-81400003D01*
X86043217Y-81374622D01*
X86021065Y-81322563D01*
X85997618Y-81278091D01*
X85989313Y-81247940D01*
X85974651Y-81213482D01*
X85966075Y-81163575D01*
X85954288Y-81120781D01*
X85952343Y-81083655D01*
X85944994Y-81040890D01*
X85947763Y-80996262D01*
X85945749Y-80957832D01*
X85952783Y-80915342D01*
X85955838Y-80866104D01*
X85967079Y-80828989D01*
X85972400Y-80796848D01*
X85990581Y-80751391D01*
X86006600Y-80698501D01*
X86023091Y-80670110D01*
X86032995Y-80645347D01*
X86063816Y-80599995D01*
X86094557Y-80547071D01*
X86113054Y-80527545D01*
X86124712Y-80510391D01*
X86168794Y-80468705D01*
X86214992Y-80419937D01*
X86232509Y-80408452D01*
X86243266Y-80398280D01*
X86300235Y-80364049D01*
X86361444Y-80323919D01*
X86375535Y-80318804D01*
X86383136Y-80314237D01*
X86451510Y-80291227D01*
X86526057Y-80264168D01*
X86535021Y-80263123D01*
X86537781Y-80262194D01*
X86614155Y-80253897D01*
X86656154Y-80249000D01*
X87328411Y-80249000D01*
X87414655Y-80264518D01*
X87414655Y-80264518D01*
G37*
G36*
X125188360Y-78193835D02*
G01*
X125269397Y-78220166D01*
X125356663Y-78247848D01*
X125359655Y-78249493D01*
X125368488Y-78252363D01*
X125440466Y-78293919D01*
X125511499Y-78332970D01*
X125518986Y-78339253D01*
X125532511Y-78347061D01*
X125590259Y-78399057D01*
X125646857Y-78446549D01*
X125656962Y-78459118D01*
X125673261Y-78473793D01*
X125715454Y-78531867D01*
X125757579Y-78584260D01*
X125767994Y-78604182D01*
X125784586Y-78627019D01*
X125811297Y-78687012D01*
X125839439Y-78740843D01*
X125847582Y-78768510D01*
X125861621Y-78800042D01*
X125873992Y-78858241D01*
X125889328Y-78910349D01*
X125892518Y-78945401D01*
X125900999Y-78985301D01*
X125900999Y-79038592D01*
X125905343Y-79086324D01*
X125900999Y-79127653D01*
X125900999Y-79174699D01*
X125891217Y-79220721D01*
X125886873Y-79262047D01*
X125872702Y-79307827D01*
X125861621Y-79359958D01*
X125845028Y-79397226D01*
X125834622Y-79430843D01*
X125808789Y-79478620D01*
X125784586Y-79532981D01*
X125764298Y-79560905D01*
X125750580Y-79586276D01*
X125711859Y-79633082D01*
X125673261Y-79686207D01*
X125652284Y-79705095D01*
X125637952Y-79722419D01*
X125585845Y-79764917D01*
X125532511Y-79812939D01*
X125513524Y-79823901D01*
X125501025Y-79834095D01*
X125435780Y-79868786D01*
X125368488Y-79907637D01*
X125353636Y-79912463D01*
X125345003Y-79917053D01*
X125267430Y-79940473D01*
X125188360Y-79966165D01*
X125179114Y-79967137D01*
X125175851Y-79968122D01*
X125084710Y-79977059D01*
X125047211Y-79981000D01*
X124952789Y-79981000D01*
X124811640Y-79966165D01*
X124730603Y-79939834D01*
X124643337Y-79912152D01*
X124640345Y-79910507D01*
X124631512Y-79907637D01*
X124559534Y-79866081D01*
X124488501Y-79827030D01*
X124481014Y-79820747D01*
X124467489Y-79812939D01*
X124409741Y-79760943D01*
X124353143Y-79713451D01*
X124343038Y-79700882D01*
X124326739Y-79686207D01*
X124284546Y-79628133D01*
X124242421Y-79575740D01*
X124232006Y-79555818D01*
X124215414Y-79532981D01*
X124188703Y-79472988D01*
X124160561Y-79419157D01*
X124152418Y-79391490D01*
X124138379Y-79359958D01*
X124126008Y-79301759D01*
X124110672Y-79249651D01*
X124107482Y-79214599D01*
X124099001Y-79174699D01*
X124099001Y-79121408D01*
X124094657Y-79073676D01*
X124099001Y-79032347D01*
X124099001Y-78985301D01*
X124108783Y-78939279D01*
X124113127Y-78897953D01*
X124127298Y-78852173D01*
X124138379Y-78800042D01*
X124154972Y-78762774D01*
X124165378Y-78729157D01*
X124191211Y-78681380D01*
X124215414Y-78627019D01*
X124235702Y-78599095D01*
X124249420Y-78573724D01*
X124288141Y-78526918D01*
X124326739Y-78473793D01*
X124347716Y-78454905D01*
X124362048Y-78437581D01*
X124414155Y-78395083D01*
X124467489Y-78347061D01*
X124486476Y-78336099D01*
X124498975Y-78325905D01*
X124564220Y-78291214D01*
X124631512Y-78252363D01*
X124646364Y-78247537D01*
X124654997Y-78242947D01*
X124732570Y-78219527D01*
X124811640Y-78193835D01*
X124820886Y-78192863D01*
X124824149Y-78191878D01*
X124915290Y-78182941D01*
X124952789Y-78179000D01*
X125047211Y-78179000D01*
X125188360Y-78193835D01*
X125188360Y-78193835D01*
G37*
G36*
X88321945Y-78049094D02*
G01*
X88377571Y-78049482D01*
X88395701Y-78053734D01*
X88422955Y-78055449D01*
X88474718Y-78072268D01*
X88519763Y-78082833D01*
X88544764Y-78095027D01*
X88579385Y-78106276D01*
X88617764Y-78130632D01*
X88651034Y-78146859D01*
X88679882Y-78170053D01*
X88718261Y-78194409D01*
X88743181Y-78220946D01*
X88764857Y-78238374D01*
X88793591Y-78274627D01*
X88830856Y-78314311D01*
X88844016Y-78338249D01*
X88855579Y-78352838D01*
X88879610Y-78402994D01*
X88910095Y-78458446D01*
X88914617Y-78476059D01*
X88918685Y-78484549D01*
X88933192Y-78548404D01*
X88951000Y-78617760D01*
X88951000Y-78782240D01*
X88948533Y-78791850D01*
X88948530Y-78792034D01*
X88912429Y-78932640D01*
X88912339Y-78932816D01*
X88910095Y-78941554D01*
X88875611Y-79004280D01*
X88845670Y-79062539D01*
X88839617Y-79069752D01*
X88830856Y-79085689D01*
X88787535Y-79131822D01*
X88751787Y-79174424D01*
X88736960Y-79185678D01*
X88718261Y-79205591D01*
X88672297Y-79234761D01*
X88635454Y-79262726D01*
X88610125Y-79274216D01*
X88579385Y-79293724D01*
X88536157Y-79307770D01*
X88502443Y-79323063D01*
X88466179Y-79330507D01*
X88422955Y-79344551D01*
X88386621Y-79346837D01*
X88359378Y-79352429D01*
X88313132Y-79351461D01*
X88258798Y-79354879D01*
X88231967Y-79349761D01*
X88213354Y-79349371D01*
X88159393Y-79335917D01*
X88097231Y-79324059D01*
X88080773Y-79316314D01*
X88071639Y-79314037D01*
X88013184Y-79284509D01*
X87948404Y-79254026D01*
X87941452Y-79248275D01*
X87941276Y-79248186D01*
X87828743Y-79155091D01*
X87828621Y-79154932D01*
X87821670Y-79149182D01*
X87779599Y-79091276D01*
X87739627Y-79039372D01*
X87735677Y-79030823D01*
X87724990Y-79016114D01*
X87701699Y-78957288D01*
X87678368Y-78906794D01*
X87674497Y-78888583D01*
X87664441Y-78863184D01*
X87657617Y-78809168D01*
X87648001Y-78763927D01*
X87648389Y-78736122D01*
X87643826Y-78700000D01*
X87649523Y-78654902D01*
X87650040Y-78617890D01*
X87658744Y-78581912D01*
X87664441Y-78536816D01*
X87677843Y-78502966D01*
X87684383Y-78475933D01*
X87704951Y-78434499D01*
X87724990Y-78383886D01*
X87741044Y-78361789D01*
X87749323Y-78345112D01*
X87784479Y-78302007D01*
X87821670Y-78250818D01*
X87835682Y-78239226D01*
X87841631Y-78231932D01*
X87893222Y-78191624D01*
X87948404Y-78145974D01*
X87956572Y-78142131D01*
X87956726Y-78142010D01*
X88088874Y-78079826D01*
X88089064Y-78079784D01*
X88097231Y-78075941D01*
X88167577Y-78062522D01*
X88231521Y-78048463D01*
X88240934Y-78048529D01*
X88258798Y-78045121D01*
X88321945Y-78049094D01*
X88321945Y-78049094D01*
G37*
G36*
X95321945Y-78049094D02*
G01*
X95377571Y-78049482D01*
X95395701Y-78053734D01*
X95422955Y-78055449D01*
X95474718Y-78072268D01*
X95519763Y-78082833D01*
X95544764Y-78095027D01*
X95579385Y-78106276D01*
X95617764Y-78130632D01*
X95651034Y-78146859D01*
X95679882Y-78170053D01*
X95718261Y-78194409D01*
X95743181Y-78220946D01*
X95764857Y-78238374D01*
X95793591Y-78274627D01*
X95830856Y-78314311D01*
X95844016Y-78338249D01*
X95855579Y-78352838D01*
X95879610Y-78402994D01*
X95910095Y-78458446D01*
X95914617Y-78476059D01*
X95918685Y-78484549D01*
X95933192Y-78548404D01*
X95951000Y-78617760D01*
X95951000Y-78782240D01*
X95948533Y-78791850D01*
X95948530Y-78792034D01*
X95912429Y-78932640D01*
X95912339Y-78932816D01*
X95910095Y-78941554D01*
X95875611Y-79004280D01*
X95845670Y-79062539D01*
X95839617Y-79069752D01*
X95830856Y-79085689D01*
X95787535Y-79131822D01*
X95751787Y-79174424D01*
X95736960Y-79185678D01*
X95718261Y-79205591D01*
X95672297Y-79234761D01*
X95635454Y-79262726D01*
X95610125Y-79274216D01*
X95579385Y-79293724D01*
X95536157Y-79307770D01*
X95502443Y-79323063D01*
X95466179Y-79330507D01*
X95422955Y-79344551D01*
X95386621Y-79346837D01*
X95359378Y-79352429D01*
X95313132Y-79351461D01*
X95258798Y-79354879D01*
X95231967Y-79349761D01*
X95213354Y-79349371D01*
X95159393Y-79335917D01*
X95097231Y-79324059D01*
X95080773Y-79316314D01*
X95071639Y-79314037D01*
X95013184Y-79284509D01*
X94948404Y-79254026D01*
X94941452Y-79248275D01*
X94941276Y-79248186D01*
X94828743Y-79155091D01*
X94828621Y-79154932D01*
X94821670Y-79149182D01*
X94779599Y-79091276D01*
X94739627Y-79039372D01*
X94735677Y-79030823D01*
X94724990Y-79016114D01*
X94701699Y-78957288D01*
X94678368Y-78906794D01*
X94674497Y-78888583D01*
X94664441Y-78863184D01*
X94657617Y-78809168D01*
X94648001Y-78763927D01*
X94648389Y-78736122D01*
X94643826Y-78700000D01*
X94649523Y-78654902D01*
X94650040Y-78617890D01*
X94658744Y-78581912D01*
X94664441Y-78536816D01*
X94677843Y-78502966D01*
X94684383Y-78475933D01*
X94704951Y-78434499D01*
X94724990Y-78383886D01*
X94741044Y-78361789D01*
X94749323Y-78345112D01*
X94784479Y-78302007D01*
X94821670Y-78250818D01*
X94835682Y-78239226D01*
X94841631Y-78231932D01*
X94893222Y-78191624D01*
X94948404Y-78145974D01*
X94956572Y-78142131D01*
X94956726Y-78142010D01*
X95088874Y-78079826D01*
X95089064Y-78079784D01*
X95097231Y-78075941D01*
X95167577Y-78062522D01*
X95231521Y-78048463D01*
X95240934Y-78048529D01*
X95258798Y-78045121D01*
X95321945Y-78049094D01*
X95321945Y-78049094D01*
G37*
G36*
X125188360Y-75653835D02*
G01*
X125269397Y-75680166D01*
X125356663Y-75707848D01*
X125359655Y-75709493D01*
X125368488Y-75712363D01*
X125440466Y-75753919D01*
X125511499Y-75792970D01*
X125518986Y-75799253D01*
X125532511Y-75807061D01*
X125590259Y-75859057D01*
X125646857Y-75906549D01*
X125656962Y-75919118D01*
X125673261Y-75933793D01*
X125715454Y-75991867D01*
X125757579Y-76044260D01*
X125767994Y-76064182D01*
X125784586Y-76087019D01*
X125811297Y-76147012D01*
X125839439Y-76200843D01*
X125847582Y-76228510D01*
X125861621Y-76260042D01*
X125873992Y-76318241D01*
X125889328Y-76370349D01*
X125892518Y-76405401D01*
X125900999Y-76445301D01*
X125900999Y-76498592D01*
X125905343Y-76546324D01*
X125900999Y-76587653D01*
X125900999Y-76634699D01*
X125891217Y-76680721D01*
X125886873Y-76722047D01*
X125872702Y-76767827D01*
X125861621Y-76819958D01*
X125845028Y-76857226D01*
X125834622Y-76890843D01*
X125808789Y-76938620D01*
X125784586Y-76992981D01*
X125764298Y-77020905D01*
X125750580Y-77046276D01*
X125711859Y-77093082D01*
X125673261Y-77146207D01*
X125652284Y-77165095D01*
X125637952Y-77182419D01*
X125585845Y-77224917D01*
X125532511Y-77272939D01*
X125513524Y-77283901D01*
X125501025Y-77294095D01*
X125435780Y-77328786D01*
X125368488Y-77367637D01*
X125353636Y-77372463D01*
X125345003Y-77377053D01*
X125267430Y-77400473D01*
X125188360Y-77426165D01*
X125179114Y-77427137D01*
X125175851Y-77428122D01*
X125084710Y-77437059D01*
X125047211Y-77441000D01*
X124952789Y-77441000D01*
X124811640Y-77426165D01*
X124730603Y-77399834D01*
X124643337Y-77372152D01*
X124640345Y-77370507D01*
X124631512Y-77367637D01*
X124559534Y-77326081D01*
X124488501Y-77287030D01*
X124481014Y-77280747D01*
X124467489Y-77272939D01*
X124409741Y-77220943D01*
X124353143Y-77173451D01*
X124343038Y-77160882D01*
X124326739Y-77146207D01*
X124284546Y-77088133D01*
X124242421Y-77035740D01*
X124232006Y-77015818D01*
X124215414Y-76992981D01*
X124188703Y-76932988D01*
X124160561Y-76879157D01*
X124152418Y-76851490D01*
X124138379Y-76819958D01*
X124126008Y-76761759D01*
X124110672Y-76709651D01*
X124107482Y-76674599D01*
X124099001Y-76634699D01*
X124099001Y-76581408D01*
X124094657Y-76533676D01*
X124099001Y-76492347D01*
X124099001Y-76445301D01*
X124108783Y-76399279D01*
X124113127Y-76357953D01*
X124127298Y-76312173D01*
X124138379Y-76260042D01*
X124154972Y-76222774D01*
X124165378Y-76189157D01*
X124191211Y-76141380D01*
X124215414Y-76087019D01*
X124235702Y-76059095D01*
X124249420Y-76033724D01*
X124288141Y-75986918D01*
X124326739Y-75933793D01*
X124347716Y-75914905D01*
X124362048Y-75897581D01*
X124414155Y-75855083D01*
X124467489Y-75807061D01*
X124486476Y-75796099D01*
X124498975Y-75785905D01*
X124564220Y-75751214D01*
X124631512Y-75712363D01*
X124646364Y-75707537D01*
X124654997Y-75702947D01*
X124732570Y-75679527D01*
X124811640Y-75653835D01*
X124820886Y-75652863D01*
X124824149Y-75651878D01*
X124915290Y-75642941D01*
X124952789Y-75639000D01*
X125047211Y-75639000D01*
X125188360Y-75653835D01*
X125188360Y-75653835D01*
G37*
G36*
X95914655Y-75764518D02*
G01*
X96046661Y-75786371D01*
X96053290Y-75789462D01*
X96063560Y-75791310D01*
X96129934Y-75825202D01*
X96191336Y-75853835D01*
X96202051Y-75862028D01*
X96219525Y-75870950D01*
X96271716Y-75915290D01*
X96320957Y-75952937D01*
X96333499Y-75967778D01*
X96352985Y-75984333D01*
X96390045Y-76034692D01*
X96426280Y-76077570D01*
X96438104Y-76099997D01*
X96456783Y-76125378D01*
X96478935Y-76177437D01*
X96502382Y-76221909D01*
X96510687Y-76252060D01*
X96525349Y-76286518D01*
X96533925Y-76336425D01*
X96545712Y-76379219D01*
X96547657Y-76416345D01*
X96555006Y-76459110D01*
X96552237Y-76503738D01*
X96554251Y-76542168D01*
X96547217Y-76584658D01*
X96544162Y-76633896D01*
X96532921Y-76671011D01*
X96527600Y-76703152D01*
X96509419Y-76748609D01*
X96493400Y-76801499D01*
X96476909Y-76829890D01*
X96467005Y-76854653D01*
X96436184Y-76900005D01*
X96405443Y-76952929D01*
X96386946Y-76972455D01*
X96375288Y-76989609D01*
X96331206Y-77031295D01*
X96285008Y-77080063D01*
X96267491Y-77091548D01*
X96256734Y-77101720D01*
X96199765Y-77135951D01*
X96138556Y-77176081D01*
X96124465Y-77181196D01*
X96116864Y-77185763D01*
X96048490Y-77208773D01*
X95973943Y-77235832D01*
X95964979Y-77236877D01*
X95962219Y-77237806D01*
X95885845Y-77246103D01*
X95843846Y-77251000D01*
X95171589Y-77251000D01*
X95085345Y-77235482D01*
X94953339Y-77213629D01*
X94946710Y-77210538D01*
X94936440Y-77208690D01*
X94870066Y-77174798D01*
X94808664Y-77146165D01*
X94797949Y-77137972D01*
X94780475Y-77129050D01*
X94728284Y-77084710D01*
X94679043Y-77047063D01*
X94666501Y-77032222D01*
X94647015Y-77015667D01*
X94609955Y-76965308D01*
X94573720Y-76922430D01*
X94561896Y-76900003D01*
X94543217Y-76874622D01*
X94521065Y-76822563D01*
X94497618Y-76778091D01*
X94489313Y-76747940D01*
X94474651Y-76713482D01*
X94466075Y-76663575D01*
X94454288Y-76620781D01*
X94452343Y-76583655D01*
X94444994Y-76540890D01*
X94447763Y-76496262D01*
X94445749Y-76457832D01*
X94452783Y-76415342D01*
X94455838Y-76366104D01*
X94467079Y-76328989D01*
X94472400Y-76296848D01*
X94490581Y-76251391D01*
X94506600Y-76198501D01*
X94523091Y-76170110D01*
X94532995Y-76145347D01*
X94563816Y-76099995D01*
X94594557Y-76047071D01*
X94613054Y-76027545D01*
X94624712Y-76010391D01*
X94668794Y-75968705D01*
X94714992Y-75919937D01*
X94732509Y-75908452D01*
X94743266Y-75898280D01*
X94800235Y-75864049D01*
X94861444Y-75823919D01*
X94875535Y-75818804D01*
X94883136Y-75814237D01*
X94951510Y-75791227D01*
X95026057Y-75764168D01*
X95035021Y-75763123D01*
X95037781Y-75762194D01*
X95114155Y-75753897D01*
X95156154Y-75749000D01*
X95828411Y-75749000D01*
X95914655Y-75764518D01*
X95914655Y-75764518D01*
G37*
G36*
X87414655Y-74764518D02*
G01*
X87546661Y-74786371D01*
X87553290Y-74789462D01*
X87563560Y-74791310D01*
X87629934Y-74825202D01*
X87691336Y-74853835D01*
X87702051Y-74862028D01*
X87719525Y-74870950D01*
X87771716Y-74915290D01*
X87820957Y-74952937D01*
X87833499Y-74967778D01*
X87852985Y-74984333D01*
X87890045Y-75034692D01*
X87926280Y-75077570D01*
X87938104Y-75099997D01*
X87956783Y-75125378D01*
X87978935Y-75177437D01*
X88002382Y-75221909D01*
X88010687Y-75252060D01*
X88025349Y-75286518D01*
X88033925Y-75336425D01*
X88045712Y-75379219D01*
X88047657Y-75416345D01*
X88055006Y-75459110D01*
X88052237Y-75503738D01*
X88054251Y-75542168D01*
X88047217Y-75584658D01*
X88044162Y-75633896D01*
X88032921Y-75671011D01*
X88027600Y-75703152D01*
X88009419Y-75748609D01*
X87993400Y-75801499D01*
X87976909Y-75829890D01*
X87967005Y-75854653D01*
X87936184Y-75900005D01*
X87905443Y-75952929D01*
X87886946Y-75972455D01*
X87875288Y-75989609D01*
X87831206Y-76031295D01*
X87785008Y-76080063D01*
X87767491Y-76091548D01*
X87756734Y-76101720D01*
X87699765Y-76135951D01*
X87638556Y-76176081D01*
X87624465Y-76181196D01*
X87616864Y-76185763D01*
X87548490Y-76208773D01*
X87473943Y-76235832D01*
X87464979Y-76236877D01*
X87462219Y-76237806D01*
X87385845Y-76246103D01*
X87343846Y-76251000D01*
X86671589Y-76251000D01*
X86585345Y-76235482D01*
X86453339Y-76213629D01*
X86446710Y-76210538D01*
X86436440Y-76208690D01*
X86370066Y-76174798D01*
X86308664Y-76146165D01*
X86297949Y-76137972D01*
X86280475Y-76129050D01*
X86228284Y-76084710D01*
X86179043Y-76047063D01*
X86166501Y-76032222D01*
X86147015Y-76015667D01*
X86109955Y-75965308D01*
X86073720Y-75922430D01*
X86061896Y-75900003D01*
X86043217Y-75874622D01*
X86021065Y-75822563D01*
X85997618Y-75778091D01*
X85989313Y-75747940D01*
X85974651Y-75713482D01*
X85966075Y-75663575D01*
X85954288Y-75620781D01*
X85952343Y-75583655D01*
X85944994Y-75540890D01*
X85947763Y-75496262D01*
X85945749Y-75457832D01*
X85952783Y-75415342D01*
X85955838Y-75366104D01*
X85967079Y-75328989D01*
X85972400Y-75296848D01*
X85990581Y-75251391D01*
X86006600Y-75198501D01*
X86023091Y-75170110D01*
X86032995Y-75145347D01*
X86063816Y-75099995D01*
X86094557Y-75047071D01*
X86113054Y-75027545D01*
X86124712Y-75010391D01*
X86168794Y-74968705D01*
X86214992Y-74919937D01*
X86232509Y-74908452D01*
X86243266Y-74898280D01*
X86300235Y-74864049D01*
X86361444Y-74823919D01*
X86375535Y-74818804D01*
X86383136Y-74814237D01*
X86451510Y-74791227D01*
X86526057Y-74764168D01*
X86535021Y-74763123D01*
X86537781Y-74762194D01*
X86614155Y-74753897D01*
X86656154Y-74749000D01*
X87328411Y-74749000D01*
X87414655Y-74764518D01*
X87414655Y-74764518D01*
G37*
G36*
X118059591Y-73949345D02*
G01*
X118110391Y-73949700D01*
X118161051Y-73960099D01*
X118206828Y-73964951D01*
X118256287Y-73979648D01*
X118312293Y-73991145D01*
X118354069Y-74008706D01*
X118391981Y-74019972D01*
X118443722Y-74046392D01*
X118502300Y-74071016D01*
X118534564Y-74092779D01*
X118564015Y-74107817D01*
X118615254Y-74147205D01*
X118673174Y-74186273D01*
X118696070Y-74209330D01*
X118717158Y-74225540D01*
X118764764Y-74278504D01*
X118818407Y-74332523D01*
X118832831Y-74354233D01*
X118846284Y-74369200D01*
X118886922Y-74435646D01*
X118932468Y-74504198D01*
X118939950Y-74522350D01*
X118947065Y-74533984D01*
X118977378Y-74613158D01*
X119011011Y-74694758D01*
X119013572Y-74707693D01*
X119016132Y-74714379D01*
X119032931Y-74805461D01*
X119051045Y-74896944D01*
X119047757Y-75132363D01*
X119044234Y-75147869D01*
X119044069Y-75153973D01*
X119022745Y-75242453D01*
X119002094Y-75333352D01*
X118999358Y-75339497D01*
X118999199Y-75340157D01*
X118941914Y-75468518D01*
X118918261Y-75521645D01*
X118864257Y-75598200D01*
X118810932Y-75675643D01*
X118806520Y-75680048D01*
X118799451Y-75690068D01*
X118734969Y-75751474D01*
X118674227Y-75812109D01*
X118663742Y-75819302D01*
X118650191Y-75832206D01*
X118579960Y-75876776D01*
X118514942Y-75921378D01*
X118497400Y-75929170D01*
X118476165Y-75942646D01*
X118404347Y-75970503D01*
X118338410Y-75999791D01*
X118313446Y-76005761D01*
X118284002Y-76017182D01*
X118214304Y-76029471D01*
X118150543Y-76044720D01*
X118118438Y-76046375D01*
X118081022Y-76052972D01*
X118016608Y-76051623D01*
X117957641Y-76054662D01*
X117919342Y-76049586D01*
X117874955Y-76048656D01*
X117818223Y-76036183D01*
X117766152Y-76029281D01*
X117723267Y-76015306D01*
X117673652Y-76004397D01*
X117626265Y-75983694D01*
X117582498Y-75969431D01*
X117537176Y-75944772D01*
X117484779Y-75921880D01*
X117447565Y-75896016D01*
X117412825Y-75877114D01*
X117367703Y-75840510D01*
X117315530Y-75804249D01*
X117288502Y-75776260D01*
X117262814Y-75755422D01*
X117220877Y-75706233D01*
X117172353Y-75655985D01*
X117154751Y-75628672D01*
X117137495Y-75608432D01*
X117101942Y-75546728D01*
X117060701Y-75482734D01*
X117051105Y-75458498D01*
X117041060Y-75441064D01*
X117015127Y-75367628D01*
X116984826Y-75291096D01*
X116981282Y-75271785D01*
X116976739Y-75258921D01*
X116963546Y-75175152D01*
X116947619Y-75088371D01*
X116947803Y-75075188D01*
X116946689Y-75068114D01*
X116949196Y-74975460D01*
X116950497Y-74882279D01*
X116951895Y-74875703D01*
X116951913Y-74875026D01*
X116981406Y-74736863D01*
X116993350Y-74680672D01*
X117030226Y-74594635D01*
X117066315Y-74507722D01*
X117069718Y-74502492D01*
X117074546Y-74491227D01*
X117124828Y-74417791D01*
X117171658Y-74345818D01*
X117180423Y-74336598D01*
X117190992Y-74321162D01*
X117250409Y-74262977D01*
X117304745Y-74205818D01*
X117320286Y-74194547D01*
X117338253Y-74176953D01*
X117402701Y-74134780D01*
X117461118Y-74092415D01*
X117484301Y-74081382D01*
X117510720Y-74064094D01*
X117576316Y-74037591D01*
X117635532Y-74009410D01*
X117666596Y-74001116D01*
X117701823Y-73986883D01*
X117765128Y-73974807D01*
X117822159Y-73959579D01*
X117860663Y-73956582D01*
X117904284Y-73948261D01*
X117962370Y-73948667D01*
X118014735Y-73944591D01*
X118059591Y-73949345D01*
X118059591Y-73949345D01*
G37*
G36*
X125869899Y-73101959D02*
G01*
X125886769Y-73113231D01*
X125898041Y-73130101D01*
X125904448Y-73162312D01*
X125904448Y-74837688D01*
X125901999Y-74850000D01*
X125898041Y-74869899D01*
X125886769Y-74886769D01*
X125869899Y-74898041D01*
X125850000Y-74901999D01*
X125837688Y-74904448D01*
X124162312Y-74904448D01*
X124130101Y-74898041D01*
X124113231Y-74886769D01*
X124101959Y-74869899D01*
X124095552Y-74837688D01*
X124095552Y-73162312D01*
X124101959Y-73130101D01*
X124113231Y-73113231D01*
X124130101Y-73101959D01*
X124162312Y-73095552D01*
X125837688Y-73095552D01*
X125869899Y-73101959D01*
X125869899Y-73101959D01*
G37*
G36*
X111059591Y-68949345D02*
G01*
X111110391Y-68949700D01*
X111161051Y-68960099D01*
X111206828Y-68964951D01*
X111256287Y-68979648D01*
X111312293Y-68991145D01*
X111354069Y-69008706D01*
X111391981Y-69019972D01*
X111443722Y-69046392D01*
X111502300Y-69071016D01*
X111534564Y-69092779D01*
X111564015Y-69107817D01*
X111615254Y-69147205D01*
X111673174Y-69186273D01*
X111696070Y-69209330D01*
X111717158Y-69225540D01*
X111764764Y-69278504D01*
X111818407Y-69332523D01*
X111832831Y-69354233D01*
X111846284Y-69369200D01*
X111886922Y-69435646D01*
X111932468Y-69504198D01*
X111939950Y-69522350D01*
X111947065Y-69533984D01*
X111977378Y-69613158D01*
X112011011Y-69694758D01*
X112013572Y-69707693D01*
X112016132Y-69714379D01*
X112032931Y-69805461D01*
X112051045Y-69896944D01*
X112047757Y-70132363D01*
X112044234Y-70147869D01*
X112044069Y-70153973D01*
X112022745Y-70242453D01*
X112002094Y-70333352D01*
X111999358Y-70339497D01*
X111999199Y-70340157D01*
X111941914Y-70468518D01*
X111918261Y-70521645D01*
X111864257Y-70598200D01*
X111810932Y-70675643D01*
X111806520Y-70680048D01*
X111799451Y-70690068D01*
X111734969Y-70751474D01*
X111674227Y-70812109D01*
X111663742Y-70819302D01*
X111650191Y-70832206D01*
X111579960Y-70876776D01*
X111514942Y-70921378D01*
X111497400Y-70929170D01*
X111476165Y-70942646D01*
X111404347Y-70970503D01*
X111338410Y-70999791D01*
X111313446Y-71005761D01*
X111284002Y-71017182D01*
X111214304Y-71029471D01*
X111150543Y-71044720D01*
X111118438Y-71046375D01*
X111081022Y-71052972D01*
X111016608Y-71051623D01*
X110957641Y-71054662D01*
X110919342Y-71049586D01*
X110874955Y-71048656D01*
X110818223Y-71036183D01*
X110766152Y-71029281D01*
X110723267Y-71015306D01*
X110673652Y-71004397D01*
X110626265Y-70983694D01*
X110582498Y-70969431D01*
X110537176Y-70944772D01*
X110484779Y-70921880D01*
X110447565Y-70896016D01*
X110412825Y-70877114D01*
X110367703Y-70840510D01*
X110315530Y-70804249D01*
X110288502Y-70776260D01*
X110262814Y-70755422D01*
X110220877Y-70706233D01*
X110172353Y-70655985D01*
X110154751Y-70628672D01*
X110137495Y-70608432D01*
X110101942Y-70546728D01*
X110060701Y-70482734D01*
X110051105Y-70458498D01*
X110041060Y-70441064D01*
X110015127Y-70367628D01*
X109984826Y-70291096D01*
X109981282Y-70271785D01*
X109976739Y-70258921D01*
X109963546Y-70175152D01*
X109947619Y-70088371D01*
X109947803Y-70075188D01*
X109946689Y-70068114D01*
X109949196Y-69975460D01*
X109950497Y-69882279D01*
X109951895Y-69875703D01*
X109951913Y-69875026D01*
X109981406Y-69736863D01*
X109993350Y-69680672D01*
X110030226Y-69594635D01*
X110066315Y-69507722D01*
X110069718Y-69502492D01*
X110074546Y-69491227D01*
X110124828Y-69417791D01*
X110171658Y-69345818D01*
X110180423Y-69336598D01*
X110190992Y-69321162D01*
X110250409Y-69262977D01*
X110304745Y-69205818D01*
X110320286Y-69194547D01*
X110338253Y-69176953D01*
X110402701Y-69134780D01*
X110461118Y-69092415D01*
X110484301Y-69081382D01*
X110510720Y-69064094D01*
X110576316Y-69037591D01*
X110635532Y-69009410D01*
X110666596Y-69001116D01*
X110701823Y-68986883D01*
X110765128Y-68974807D01*
X110822159Y-68959579D01*
X110860663Y-68956582D01*
X110904284Y-68948261D01*
X110962370Y-68948667D01*
X111014735Y-68944591D01*
X111059591Y-68949345D01*
X111059591Y-68949345D01*
G37*
G36*
X107059591Y-68949345D02*
G01*
X107110391Y-68949700D01*
X107161051Y-68960099D01*
X107206828Y-68964951D01*
X107256287Y-68979648D01*
X107312293Y-68991145D01*
X107354069Y-69008706D01*
X107391981Y-69019972D01*
X107443722Y-69046392D01*
X107502300Y-69071016D01*
X107534564Y-69092779D01*
X107564015Y-69107817D01*
X107615254Y-69147205D01*
X107673174Y-69186273D01*
X107696070Y-69209330D01*
X107717158Y-69225540D01*
X107764764Y-69278504D01*
X107818407Y-69332523D01*
X107832831Y-69354233D01*
X107846284Y-69369200D01*
X107886922Y-69435646D01*
X107932468Y-69504198D01*
X107939950Y-69522350D01*
X107947065Y-69533984D01*
X107977378Y-69613158D01*
X108011011Y-69694758D01*
X108013572Y-69707693D01*
X108016132Y-69714379D01*
X108032931Y-69805461D01*
X108051045Y-69896944D01*
X108047757Y-70132363D01*
X108044234Y-70147869D01*
X108044069Y-70153973D01*
X108022745Y-70242453D01*
X108002094Y-70333352D01*
X107999358Y-70339497D01*
X107999199Y-70340157D01*
X107941914Y-70468518D01*
X107918261Y-70521645D01*
X107864257Y-70598200D01*
X107810932Y-70675643D01*
X107806520Y-70680048D01*
X107799451Y-70690068D01*
X107734969Y-70751474D01*
X107674227Y-70812109D01*
X107663742Y-70819302D01*
X107650191Y-70832206D01*
X107579960Y-70876776D01*
X107514942Y-70921378D01*
X107497400Y-70929170D01*
X107476165Y-70942646D01*
X107404347Y-70970503D01*
X107338410Y-70999791D01*
X107313446Y-71005761D01*
X107284002Y-71017182D01*
X107214304Y-71029471D01*
X107150543Y-71044720D01*
X107118438Y-71046375D01*
X107081022Y-71052972D01*
X107016608Y-71051623D01*
X106957641Y-71054662D01*
X106919342Y-71049586D01*
X106874955Y-71048656D01*
X106818223Y-71036183D01*
X106766152Y-71029281D01*
X106723267Y-71015306D01*
X106673652Y-71004397D01*
X106626265Y-70983694D01*
X106582498Y-70969431D01*
X106537176Y-70944772D01*
X106484779Y-70921880D01*
X106447565Y-70896016D01*
X106412825Y-70877114D01*
X106367703Y-70840510D01*
X106315530Y-70804249D01*
X106288502Y-70776260D01*
X106262814Y-70755422D01*
X106220877Y-70706233D01*
X106172353Y-70655985D01*
X106154751Y-70628672D01*
X106137495Y-70608432D01*
X106101942Y-70546728D01*
X106060701Y-70482734D01*
X106051105Y-70458498D01*
X106041060Y-70441064D01*
X106015127Y-70367628D01*
X105984826Y-70291096D01*
X105981282Y-70271785D01*
X105976739Y-70258921D01*
X105963546Y-70175152D01*
X105947619Y-70088371D01*
X105947803Y-70075188D01*
X105946689Y-70068114D01*
X105949196Y-69975460D01*
X105950497Y-69882279D01*
X105951895Y-69875703D01*
X105951913Y-69875026D01*
X105981406Y-69736863D01*
X105993350Y-69680672D01*
X106030226Y-69594635D01*
X106066315Y-69507722D01*
X106069718Y-69502492D01*
X106074546Y-69491227D01*
X106124828Y-69417791D01*
X106171658Y-69345818D01*
X106180423Y-69336598D01*
X106190992Y-69321162D01*
X106250409Y-69262977D01*
X106304745Y-69205818D01*
X106320286Y-69194547D01*
X106338253Y-69176953D01*
X106402701Y-69134780D01*
X106461118Y-69092415D01*
X106484301Y-69081382D01*
X106510720Y-69064094D01*
X106576316Y-69037591D01*
X106635532Y-69009410D01*
X106666596Y-69001116D01*
X106701823Y-68986883D01*
X106765128Y-68974807D01*
X106822159Y-68959579D01*
X106860663Y-68956582D01*
X106904284Y-68948261D01*
X106962370Y-68948667D01*
X107014735Y-68944591D01*
X107059591Y-68949345D01*
X107059591Y-68949345D01*
G37*
M02*
