G04 #@! TF.GenerationSoftware,KiCad,Pcbnew,6.0.0-unknown-ea0edab~86~ubuntu18.04.1*
G04 #@! TF.CreationDate,2019-07-07T14:50:01+02:00*
G04 #@! TF.ProjectId,interface,696e7465-7266-4616-9365-2e6b69636164,rev?*
G04 #@! TF.SameCoordinates,Original*
G04 #@! TF.FileFunction,Legend,Top*
G04 #@! TF.FilePolarity,Positive*
%FSLAX46Y46*%
G04 Gerber Fmt 4.6, Leading zero omitted, Abs format (unit mm)*
G04 Created by KiCad (PCBNEW 6.0.0-unknown-ea0edab~86~ubuntu18.04.1) date 2019-07-07 14:50:01*
%MOMM*%
%LPD*%
G04 APERTURE LIST*
%ADD10C,0.150000*%
%ADD11C,0.034395*%
%ADD12C,0.200000*%
%ADD13C,0.120000*%
G04 APERTURE END LIST*
D10*
X112778571Y-112800000D02*
X112778571Y-112514285D01*
X112850000Y-112371428D01*
X112992857Y-112228571D01*
X113278571Y-112157142D01*
X113778571Y-112157142D01*
X114064285Y-112228571D01*
X114207142Y-112371428D01*
X114278571Y-112514285D01*
X114278571Y-112800000D01*
X114207142Y-112942857D01*
X114064285Y-113085714D01*
X113778571Y-113157142D01*
X113278571Y-113157142D01*
X112992857Y-113085714D01*
X112850000Y-112942857D01*
X112778571Y-112800000D01*
X113278571Y-111514285D02*
X114778571Y-111514285D01*
X113350000Y-111514285D02*
X113278571Y-111371428D01*
X113278571Y-111085714D01*
X113350000Y-110942857D01*
X113421428Y-110871428D01*
X113564285Y-110800000D01*
X113992857Y-110800000D01*
X114135714Y-110871428D01*
X114207142Y-110942857D01*
X114278571Y-111085714D01*
X114278571Y-111371428D01*
X114207142Y-111514285D01*
X113278571Y-110371428D02*
X113278571Y-109800000D01*
X112778571Y-110157142D02*
X114064285Y-110157142D01*
X114207142Y-110085714D01*
X114278571Y-109942857D01*
X114278571Y-109800000D01*
X114278571Y-109085714D02*
X114207142Y-109228571D01*
X114135714Y-109300000D01*
X113992857Y-109371428D01*
X113564285Y-109371428D01*
X113421428Y-109300000D01*
X113350000Y-109228571D01*
X113278571Y-109085714D01*
X113278571Y-108871428D01*
X113350000Y-108728571D01*
X113421428Y-108657142D01*
X113564285Y-108585714D01*
X113992857Y-108585714D01*
X114135714Y-108657142D01*
X114207142Y-108728571D01*
X114278571Y-108871428D01*
X114278571Y-109085714D01*
X114278571Y-107300000D02*
X113492857Y-107300000D01*
X113350000Y-107371428D01*
X113278571Y-107514285D01*
X113278571Y-107800000D01*
X113350000Y-107942857D01*
X114207142Y-107300000D02*
X114278571Y-107442857D01*
X114278571Y-107800000D01*
X114207142Y-107942857D01*
X114064285Y-108014285D01*
X113921428Y-108014285D01*
X113778571Y-107942857D01*
X113707142Y-107800000D01*
X113707142Y-107442857D01*
X113635714Y-107300000D01*
X114207142Y-105942857D02*
X114278571Y-106085714D01*
X114278571Y-106371428D01*
X114207142Y-106514285D01*
X114135714Y-106585714D01*
X113992857Y-106657142D01*
X113564285Y-106657142D01*
X113421428Y-106585714D01*
X113350000Y-106514285D01*
X113278571Y-106371428D01*
X113278571Y-106085714D01*
X113350000Y-105942857D01*
X114278571Y-105085714D02*
X114207142Y-105228571D01*
X114135714Y-105300000D01*
X113992857Y-105371428D01*
X113564285Y-105371428D01*
X113421428Y-105300000D01*
X113350000Y-105228571D01*
X113278571Y-105085714D01*
X113278571Y-104871428D01*
X113350000Y-104728571D01*
X113421428Y-104657142D01*
X113564285Y-104585714D01*
X113992857Y-104585714D01*
X114135714Y-104657142D01*
X114207142Y-104728571D01*
X114278571Y-104871428D01*
X114278571Y-105085714D01*
X113278571Y-103300000D02*
X114278571Y-103300000D01*
X113278571Y-103942857D02*
X114064285Y-103942857D01*
X114207142Y-103871428D01*
X114278571Y-103728571D01*
X114278571Y-103514285D01*
X114207142Y-103371428D01*
X114135714Y-103300000D01*
X114207142Y-102657142D02*
X114278571Y-102514285D01*
X114278571Y-102228571D01*
X114207142Y-102085714D01*
X114064285Y-102014285D01*
X113992857Y-102014285D01*
X113850000Y-102085714D01*
X113778571Y-102228571D01*
X113778571Y-102442857D01*
X113707142Y-102585714D01*
X113564285Y-102657142D01*
X113492857Y-102657142D01*
X113350000Y-102585714D01*
X113278571Y-102442857D01*
X113278571Y-102228571D01*
X113350000Y-102085714D01*
X113278571Y-101585714D02*
X113278571Y-101014285D01*
X112778571Y-101371428D02*
X114064285Y-101371428D01*
X114207142Y-101300000D01*
X114278571Y-101157142D01*
X114278571Y-101014285D01*
X114278571Y-100514285D02*
X113278571Y-100514285D01*
X112778571Y-100514285D02*
X112850000Y-100585714D01*
X112921428Y-100514285D01*
X112850000Y-100442857D01*
X112778571Y-100514285D01*
X112921428Y-100514285D01*
X114207142Y-99157142D02*
X114278571Y-99300000D01*
X114278571Y-99585714D01*
X114207142Y-99728571D01*
X114135714Y-99800000D01*
X113992857Y-99871428D01*
X113564285Y-99871428D01*
X113421428Y-99800000D01*
X113350000Y-99728571D01*
X113278571Y-99585714D01*
X113278571Y-99300000D01*
X113350000Y-99157142D01*
X114207142Y-97442857D02*
X114278571Y-97228571D01*
X114278571Y-96871428D01*
X114207142Y-96728571D01*
X114135714Y-96657142D01*
X113992857Y-96585714D01*
X113850000Y-96585714D01*
X113707142Y-96657142D01*
X113635714Y-96728571D01*
X113564285Y-96871428D01*
X113492857Y-97157142D01*
X113421428Y-97300000D01*
X113350000Y-97371428D01*
X113207142Y-97442857D01*
X113064285Y-97442857D01*
X112921428Y-97371428D01*
X112850000Y-97300000D01*
X112778571Y-97157142D01*
X112778571Y-96800000D01*
X112850000Y-96585714D01*
X114207142Y-95371428D02*
X114278571Y-95514285D01*
X114278571Y-95800000D01*
X114207142Y-95942857D01*
X114064285Y-96014285D01*
X113492857Y-96014285D01*
X113350000Y-95942857D01*
X113278571Y-95800000D01*
X113278571Y-95514285D01*
X113350000Y-95371428D01*
X113492857Y-95300000D01*
X113635714Y-95300000D01*
X113778571Y-96014285D01*
X113278571Y-94657142D02*
X114278571Y-94657142D01*
X113421428Y-94657142D02*
X113350000Y-94585714D01*
X113278571Y-94442857D01*
X113278571Y-94228571D01*
X113350000Y-94085714D01*
X113492857Y-94014285D01*
X114278571Y-94014285D01*
X114207142Y-93371428D02*
X114278571Y-93228571D01*
X114278571Y-92942857D01*
X114207142Y-92800000D01*
X114064285Y-92728571D01*
X113992857Y-92728571D01*
X113850000Y-92800000D01*
X113778571Y-92942857D01*
X113778571Y-93157142D01*
X113707142Y-93300000D01*
X113564285Y-93371428D01*
X113492857Y-93371428D01*
X113350000Y-93300000D01*
X113278571Y-93157142D01*
X113278571Y-92942857D01*
X113350000Y-92800000D01*
X114278571Y-91871428D02*
X114207142Y-92014285D01*
X114135714Y-92085714D01*
X113992857Y-92157142D01*
X113564285Y-92157142D01*
X113421428Y-92085714D01*
X113350000Y-92014285D01*
X113278571Y-91871428D01*
X113278571Y-91657142D01*
X113350000Y-91514285D01*
X113421428Y-91442857D01*
X113564285Y-91371428D01*
X113992857Y-91371428D01*
X114135714Y-91442857D01*
X114207142Y-91514285D01*
X114278571Y-91657142D01*
X114278571Y-91871428D01*
X114278571Y-90728571D02*
X113278571Y-90728571D01*
X113564285Y-90728571D02*
X113421428Y-90657142D01*
X113350000Y-90585714D01*
X113278571Y-90442857D01*
X113278571Y-90300000D01*
X115652380Y-113123809D02*
X116652380Y-112790476D01*
X115652380Y-112457142D01*
X116652380Y-111600000D02*
X116652380Y-112171428D01*
X116652380Y-111885714D02*
X115652380Y-111885714D01*
X115795238Y-111980952D01*
X115890476Y-112076190D01*
X115938095Y-112171428D01*
X116557142Y-111171428D02*
X116604761Y-111123809D01*
X116652380Y-111171428D01*
X116604761Y-111219047D01*
X116557142Y-111171428D01*
X116652380Y-111171428D01*
X115652380Y-110504761D02*
X115652380Y-110409523D01*
X115700000Y-110314285D01*
X115747619Y-110266666D01*
X115842857Y-110219047D01*
X116033333Y-110171428D01*
X116271428Y-110171428D01*
X116461904Y-110219047D01*
X116557142Y-110266666D01*
X116604761Y-110314285D01*
X116652380Y-110409523D01*
X116652380Y-110504761D01*
X116604761Y-110600000D01*
X116557142Y-110647619D01*
X116461904Y-110695238D01*
X116271428Y-110742857D01*
X116033333Y-110742857D01*
X115842857Y-110695238D01*
X115747619Y-110647619D01*
X115700000Y-110600000D01*
X115652380Y-110504761D01*
D11*
X86412730Y-111789693D02*
X86412176Y-111790896D01*
X90994773Y-112413123D02*
X90995982Y-112412614D01*
X87824809Y-110594913D02*
X87822235Y-110593812D01*
X90101533Y-110252821D02*
X90100317Y-110253316D01*
X86420813Y-112407574D02*
X86422881Y-112409242D01*
X90233882Y-113015555D02*
X90232782Y-113012979D01*
X87192751Y-113010245D02*
X87191801Y-113012945D01*
X88041349Y-113726452D02*
X88042338Y-113725798D01*
X89024689Y-109800000D02*
X89023716Y-109799090D01*
X89385291Y-113727623D02*
X89386361Y-113728113D01*
X89171238Y-110433848D02*
X89171238Y-110433848D01*
D10*
X89142346Y-110400759D02*
X89033482Y-109815927D01*
D11*
X86409734Y-112384333D02*
X86409767Y-112385647D01*
X88050690Y-113715280D02*
X88050690Y-113715280D01*
X86870761Y-113502157D02*
X86871522Y-113504705D01*
X87194854Y-112989738D02*
X87195052Y-112992683D01*
X89606529Y-113620456D02*
X89609027Y-113619401D01*
X88408661Y-109793890D02*
X88406326Y-109795149D01*
X87836140Y-110597727D02*
X87833198Y-110597266D01*
X86419781Y-111780090D02*
X86418833Y-111781026D01*
X87323178Y-110252821D02*
X87321936Y-110252381D01*
X86417099Y-112403753D02*
X86418882Y-112405739D01*
X90550290Y-113510718D02*
X90550950Y-113509577D01*
D10*
X87289923Y-110259461D02*
X86878412Y-110670939D01*
D11*
X88278640Y-110411129D02*
X88277209Y-110413659D01*
X90100317Y-110253316D02*
X90099126Y-110253866D01*
X87008484Y-112529626D02*
X87010523Y-112531773D01*
X90405924Y-112544946D02*
X90406410Y-112543696D01*
X87784640Y-113619455D02*
X87787311Y-113618573D01*
X86870949Y-110701707D02*
X86871334Y-110702967D01*
X89392015Y-113729712D02*
X89393192Y-113729855D01*
X90096829Y-110255133D02*
X90095729Y-110255850D01*
X87193231Y-112981322D02*
X87193945Y-112984036D01*
X90102771Y-110252381D02*
X90101533Y-110252821D01*
X90549856Y-113476779D02*
X90549856Y-113476779D01*
X89570938Y-110596993D02*
X89568230Y-110596272D01*
X88396506Y-109804000D02*
X88395740Y-109805080D01*
X87195052Y-112992683D02*
X87195081Y-112995660D01*
X89384247Y-113727077D02*
X89385291Y-113727623D01*
X89381285Y-113725118D02*
X89382242Y-113725824D01*
X87017044Y-112541181D02*
X87018183Y-112543662D01*
X87296180Y-113932004D02*
X87297348Y-113932610D01*
X86410024Y-112388261D02*
X86410246Y-112389556D01*
D10*
X87033640Y-111638253D02*
X86434774Y-111772190D01*
D11*
X87291833Y-113929084D02*
X87292866Y-113929887D01*
X89017200Y-109794496D02*
X89016019Y-109793890D01*
X88412323Y-109792380D02*
X88411084Y-109792831D01*
D10*
X111650000Y-113028571D02*
X111650000Y-112314285D01*
X112078571Y-113171428D02*
X110578571Y-112671428D01*
X112078571Y-112171428D01*
X111078571Y-111028571D02*
X112078571Y-111028571D01*
X111078571Y-111671428D02*
X111864285Y-111671428D01*
X112007142Y-111600000D01*
X112078571Y-111457142D01*
X112078571Y-111242857D01*
X112007142Y-111100000D01*
X111935714Y-111028571D01*
X112078571Y-109671428D02*
X110578571Y-109671428D01*
X112007142Y-109671428D02*
X112078571Y-109814285D01*
X112078571Y-110100000D01*
X112007142Y-110242857D01*
X111935714Y-110314285D01*
X111792857Y-110385714D01*
X111364285Y-110385714D01*
X111221428Y-110314285D01*
X111150000Y-110242857D01*
X111078571Y-110100000D01*
X111078571Y-109814285D01*
X111150000Y-109671428D01*
X112078571Y-108957142D02*
X111078571Y-108957142D01*
X110578571Y-108957142D02*
X110650000Y-109028571D01*
X110721428Y-108957142D01*
X110650000Y-108885714D01*
X110578571Y-108957142D01*
X110721428Y-108957142D01*
X112078571Y-108028571D02*
X112007142Y-108171428D01*
X111935714Y-108242857D01*
X111792857Y-108314285D01*
X111364285Y-108314285D01*
X111221428Y-108242857D01*
X111150000Y-108171428D01*
X111078571Y-108028571D01*
X111078571Y-107814285D01*
X111150000Y-107671428D01*
X111221428Y-107600000D01*
X111364285Y-107528571D01*
X111792857Y-107528571D01*
X111935714Y-107600000D01*
X112007142Y-107671428D01*
X112078571Y-107814285D01*
X112078571Y-108028571D01*
X112078571Y-105742857D02*
X110578571Y-105742857D01*
X111078571Y-105028571D02*
X112078571Y-105028571D01*
X111221428Y-105028571D02*
X111150000Y-104957142D01*
X111078571Y-104814285D01*
X111078571Y-104600000D01*
X111150000Y-104457142D01*
X111292857Y-104385714D01*
X112078571Y-104385714D01*
X111078571Y-103885714D02*
X111078571Y-103314285D01*
X110578571Y-103671428D02*
X111864285Y-103671428D01*
X112007142Y-103600000D01*
X112078571Y-103457142D01*
X112078571Y-103314285D01*
X112007142Y-102242857D02*
X112078571Y-102385714D01*
X112078571Y-102671428D01*
X112007142Y-102814285D01*
X111864285Y-102885714D01*
X111292857Y-102885714D01*
X111150000Y-102814285D01*
X111078571Y-102671428D01*
X111078571Y-102385714D01*
X111150000Y-102242857D01*
X111292857Y-102171428D01*
X111435714Y-102171428D01*
X111578571Y-102885714D01*
X112078571Y-101528571D02*
X111078571Y-101528571D01*
X111364285Y-101528571D02*
X111221428Y-101457142D01*
X111150000Y-101385714D01*
X111078571Y-101242857D01*
X111078571Y-101100000D01*
X111078571Y-100814285D02*
X111078571Y-100242857D01*
X112078571Y-100600000D02*
X110792857Y-100600000D01*
X110650000Y-100528571D01*
X110578571Y-100385714D01*
X110578571Y-100242857D01*
X112078571Y-99100000D02*
X111292857Y-99100000D01*
X111150000Y-99171428D01*
X111078571Y-99314285D01*
X111078571Y-99600000D01*
X111150000Y-99742857D01*
X112007142Y-99100000D02*
X112078571Y-99242857D01*
X112078571Y-99600000D01*
X112007142Y-99742857D01*
X111864285Y-99814285D01*
X111721428Y-99814285D01*
X111578571Y-99742857D01*
X111507142Y-99600000D01*
X111507142Y-99242857D01*
X111435714Y-99100000D01*
X112007142Y-97742857D02*
X112078571Y-97885714D01*
X112078571Y-98171428D01*
X112007142Y-98314285D01*
X111935714Y-98385714D01*
X111792857Y-98457142D01*
X111364285Y-98457142D01*
X111221428Y-98385714D01*
X111150000Y-98314285D01*
X111078571Y-98171428D01*
X111078571Y-97885714D01*
X111150000Y-97742857D01*
X112007142Y-96528571D02*
X112078571Y-96671428D01*
X112078571Y-96957142D01*
X112007142Y-97100000D01*
X111864285Y-97171428D01*
X111292857Y-97171428D01*
X111150000Y-97100000D01*
X111078571Y-96957142D01*
X111078571Y-96671428D01*
X111150000Y-96528571D01*
X111292857Y-96457142D01*
X111435714Y-96457142D01*
X111578571Y-97171428D01*
X111078571Y-94885714D02*
X111078571Y-94314285D01*
X112078571Y-94671428D02*
X110792857Y-94671428D01*
X110650000Y-94600000D01*
X110578571Y-94457142D01*
X110578571Y-94314285D01*
X112078571Y-93600000D02*
X112007142Y-93742857D01*
X111935714Y-93814285D01*
X111792857Y-93885714D01*
X111364285Y-93885714D01*
X111221428Y-93814285D01*
X111150000Y-93742857D01*
X111078571Y-93600000D01*
X111078571Y-93385714D01*
X111150000Y-93242857D01*
X111221428Y-93171428D01*
X111364285Y-93100000D01*
X111792857Y-93100000D01*
X111935714Y-93171428D01*
X112007142Y-93242857D01*
X112078571Y-93385714D01*
X112078571Y-93600000D01*
X112078571Y-92457142D02*
X111078571Y-92457142D01*
X111364285Y-92457142D02*
X111221428Y-92385714D01*
X111150000Y-92314285D01*
X111078571Y-92171428D01*
X111078571Y-92028571D01*
D11*
X90231050Y-113007477D02*
X90230422Y-113004594D01*
D10*
X87188008Y-113020208D02*
X86874731Y-113476744D01*
D11*
X91014307Y-112389591D02*
X91014529Y-112388295D01*
X87328963Y-113930941D02*
X87328963Y-113930941D01*
X90434307Y-112518180D02*
X90435609Y-112517796D01*
X86411712Y-112394618D02*
X86412771Y-112397050D01*
X87301041Y-110252619D02*
X87298578Y-110253586D01*
X90995982Y-112412614D02*
X90997168Y-112412049D01*
X90554733Y-110689869D02*
X90554387Y-110687227D01*
X86428560Y-112412580D02*
X86429771Y-112413089D01*
X86426161Y-111775366D02*
X86425023Y-111776038D01*
X86873110Y-110678415D02*
X86872551Y-110679612D01*
X90992294Y-112413967D02*
X90993543Y-112413575D01*
X86410866Y-112392116D02*
X86411262Y-112393375D01*
X86416221Y-111784049D02*
X86415432Y-111785123D01*
X87324362Y-113933452D02*
X87325556Y-113932907D01*
X90230646Y-112984069D02*
X90231359Y-112981356D01*
X88394353Y-109807328D02*
X88393735Y-109808491D01*
X90121056Y-113934921D02*
X90123598Y-113934162D01*
X89393192Y-113729855D02*
X89394380Y-113729939D01*
X88018186Y-113727249D02*
X88019366Y-113727815D01*
X90131783Y-110256886D02*
X90130711Y-110256126D01*
X88026585Y-113729798D02*
X88027792Y-113729902D01*
X89033482Y-109815927D02*
X89033482Y-109815927D01*
X87194943Y-112998646D02*
X87194640Y-113001621D01*
X86431003Y-112413541D02*
X86432254Y-112413933D01*
X90554319Y-113487661D02*
X90554042Y-113486367D01*
D10*
X86434808Y-112414532D02*
X86986346Y-112517169D01*
D11*
X88401979Y-109798218D02*
X88400000Y-109800000D01*
X88395022Y-109806190D02*
X88394353Y-109807328D01*
X87195081Y-112995660D02*
X87194943Y-112998646D01*
X90554387Y-110687227D02*
X90553834Y-110684623D01*
X90127296Y-110254146D02*
X90126100Y-110253586D01*
X90554797Y-110695191D02*
X90554870Y-110692531D01*
X89604876Y-110592553D02*
X89602446Y-110593811D01*
X87850925Y-110597540D02*
X87848034Y-110597915D01*
X86432214Y-111772806D02*
X86430960Y-111773205D01*
X90106598Y-110251387D02*
X90105307Y-110251664D01*
X90123637Y-110252619D02*
X90121095Y-110251855D01*
D10*
X89563213Y-110594305D02*
X89171238Y-110433848D01*
D11*
X90229956Y-113001655D02*
X90229653Y-112998681D01*
X89156936Y-110425081D02*
X89154803Y-110423016D01*
X86434808Y-112414532D02*
X86434808Y-112414532D01*
X87308828Y-110250948D02*
X87306186Y-110251298D01*
X87191801Y-113012945D02*
X87190692Y-113015521D01*
X87801642Y-113616772D02*
X87804548Y-113616937D01*
X88420029Y-109790885D02*
X88418722Y-109790983D01*
X87296215Y-110254756D02*
X87295077Y-110255416D01*
X90551561Y-113508406D02*
X90552120Y-113507207D01*
X90095660Y-113930975D02*
X90095660Y-113930975D01*
X87779670Y-113621735D02*
X87782086Y-113620509D01*
X90551825Y-110706614D02*
X90552371Y-110705423D01*
D10*
X89406402Y-113727283D02*
X89604178Y-113621688D01*
D11*
X89395577Y-113729961D02*
X89396781Y-113729921D01*
X88459725Y-112726211D02*
X88460014Y-112724936D01*
X90118494Y-110251298D02*
X90115855Y-110250948D01*
X86870068Y-113488934D02*
X86869785Y-113491576D01*
X87833198Y-110597266D02*
X87830313Y-110596642D01*
X87861479Y-110594305D02*
X87859038Y-110595377D01*
D10*
X86409700Y-111802389D02*
X86409734Y-112384333D01*
D11*
X87289923Y-110259461D02*
X87289923Y-110259461D01*
X88400000Y-109800000D02*
X88398170Y-109801932D01*
X87298543Y-113933166D02*
X87299763Y-113933672D01*
X90231837Y-113010279D02*
X90231050Y-113007477D01*
X87015692Y-112538736D02*
X87017044Y-112541181D01*
X89007244Y-109791143D02*
X89005941Y-109790983D01*
D10*
X88960741Y-112716805D02*
G75*
G03X88460014Y-112724936I-260741J634987D01*
G01*
D11*
X86872551Y-110679612D02*
X86872042Y-110680834D01*
D10*
X90546246Y-110670939D02*
X90134768Y-110259461D01*
D11*
X89631682Y-113617348D02*
X89634518Y-113617883D01*
X87318066Y-113935362D02*
X87319360Y-113935088D01*
X90548011Y-113513936D02*
X90548820Y-113512900D01*
X86874731Y-113476744D02*
X86874017Y-113477845D01*
X90232782Y-113012979D02*
X90231837Y-113010279D01*
X89373898Y-113715314D02*
X89373898Y-113715314D01*
X91008274Y-112402743D02*
X91009065Y-112401667D01*
X90552111Y-110679612D02*
X90550945Y-110677245D01*
X86871278Y-113483793D02*
X86870565Y-113486333D01*
X91004709Y-112406710D02*
X91005658Y-112405773D01*
X88036007Y-113728905D02*
X88037121Y-113728526D01*
X90553851Y-113502191D02*
X90554408Y-113499585D01*
X87790077Y-113617864D02*
X87792915Y-113617329D01*
X90989746Y-112414566D02*
X90989746Y-112414566D01*
X91005658Y-112405773D02*
X91006569Y-112404798D01*
X90438208Y-112517203D02*
X90438208Y-112517203D01*
X87004037Y-112525684D02*
X87006317Y-112527591D01*
X89625881Y-113616804D02*
X89628796Y-113616988D01*
X89019489Y-109795850D02*
X89018358Y-109795149D01*
X87830313Y-110596642D02*
X87827509Y-110595857D01*
X86874378Y-110676105D02*
X86873719Y-110677245D01*
X86996691Y-112520878D02*
X86999207Y-112522312D01*
X86414687Y-111786226D02*
X86413987Y-111787356D01*
X87194172Y-113004560D02*
X87193542Y-113007442D01*
X89607136Y-110591140D02*
X89604876Y-110592553D01*
X86873359Y-113478979D02*
X86872756Y-113480143D01*
X88263265Y-110428760D02*
X88260886Y-110430342D01*
X90554512Y-110697831D02*
X90554797Y-110695191D01*
X89026520Y-109801932D02*
X89025624Y-109800948D01*
X86410210Y-111797170D02*
X86409989Y-111798464D01*
X90553088Y-113504739D02*
X90553851Y-113502191D01*
X90552120Y-113507207D02*
X90552629Y-113505984D01*
X89637281Y-113618592D02*
X89639951Y-113619476D01*
X88024165Y-113729400D02*
X88025375Y-113729632D01*
X89142955Y-110403356D02*
X89142621Y-110402055D01*
X86878343Y-113515852D02*
X86878343Y-113515852D01*
X88421340Y-109790853D02*
X88420029Y-109790885D01*
X86871334Y-110702967D02*
X86871773Y-110704206D01*
X88417422Y-109791143D02*
X88416130Y-109791364D01*
D10*
X88966135Y-112729942D02*
X89373898Y-113715314D01*
D11*
X89591470Y-110597266D02*
X89588526Y-110597727D01*
X88282381Y-110400759D02*
X88281772Y-110403356D01*
X90095660Y-113930975D02*
X90096761Y-113931686D01*
X90998331Y-112411431D02*
X90999468Y-112410762D01*
X89161475Y-110428760D02*
X89159165Y-110427001D01*
X89602446Y-110593811D02*
X89599867Y-110594913D01*
X87019090Y-112546165D02*
X87019090Y-112546165D01*
X90550573Y-113477879D02*
X90549856Y-113476779D01*
X89400411Y-113729423D02*
X89401620Y-113729128D01*
X86410527Y-112390842D02*
X86410866Y-112392116D01*
X90554898Y-113494274D02*
X90554826Y-113491610D01*
X89023716Y-109799090D02*
X89022708Y-109798218D01*
X89568230Y-110596272D02*
X89565648Y-110595377D01*
X87295042Y-113931348D02*
X87296180Y-113932004D01*
X91002707Y-112408464D02*
X91003725Y-112407608D01*
X90552863Y-110704206D02*
X90553301Y-110702967D01*
X90548819Y-110673924D02*
X90548011Y-110672889D01*
D10*
X90095729Y-110255850D02*
X89607136Y-110591140D01*
D11*
X90427859Y-112520912D02*
X90430417Y-112519665D01*
X86994130Y-112519631D02*
X86996691Y-112520878D01*
X89388568Y-113728925D02*
X89389700Y-113729246D01*
X88048267Y-113719779D02*
X88048947Y-113718724D01*
X89594356Y-110596642D02*
X89591470Y-110597266D01*
X90126100Y-110253586D02*
X90124879Y-110253077D01*
X90131730Y-113929921D02*
X90132761Y-113929118D01*
X86413987Y-111787356D02*
X86413335Y-111788513D01*
X89012352Y-109792380D02*
X89011094Y-109791985D01*
X87018666Y-112544912D02*
X87019090Y-112546165D01*
X87292901Y-110256886D02*
X87291867Y-110257695D01*
X90553834Y-110684623D02*
X90553075Y-110682078D01*
X88032558Y-113729693D02*
X88033723Y-113729489D01*
X88395740Y-109805080D02*
X88395022Y-109806190D01*
X89159165Y-110427001D02*
X89156936Y-110425081D01*
X89573747Y-110597540D02*
X89570938Y-110596993D01*
X87001661Y-112523919D02*
X87004037Y-112525684D01*
X87012415Y-112534017D02*
X87014143Y-112536343D01*
X87306186Y-110251298D02*
X87303584Y-110251855D01*
X89152780Y-110420825D02*
X89150883Y-110418524D01*
X89376320Y-113719812D02*
X89377045Y-113720820D01*
X86872042Y-110680834D02*
X86871584Y-110682078D01*
X88260886Y-110430342D02*
X88258454Y-110431728D01*
X91012332Y-112395878D02*
X91012837Y-112394653D01*
X90229740Y-112989772D02*
X90230107Y-112986882D01*
X90113196Y-110250808D02*
X90110539Y-110250880D01*
X87319395Y-110251664D02*
X87316794Y-110251165D01*
X90420528Y-112525718D02*
X90422897Y-112523954D01*
X86422881Y-112409242D02*
X86423962Y-112410009D01*
X88050161Y-113716473D02*
X88050690Y-113715280D01*
X86420764Y-111779194D02*
X86419781Y-111780090D01*
X89033212Y-109814642D02*
X89032878Y-109813372D01*
X87795803Y-113616969D02*
X87798719Y-113616783D01*
D10*
X90220414Y-111190178D02*
X90549857Y-110710012D01*
D11*
X87192342Y-112978731D02*
X87193231Y-112981322D01*
X91010514Y-112399427D02*
X91011169Y-112398267D01*
X89563213Y-110594305D02*
X89563213Y-110594305D01*
X87326757Y-110254472D02*
X87325591Y-110253866D01*
X90554042Y-113486367D02*
X90553711Y-113485088D01*
X86876651Y-110672889D02*
X86875844Y-110673924D01*
X90550950Y-113509577D02*
X90551561Y-113508406D01*
X87293937Y-113930642D02*
X87295042Y-113931348D01*
X87303549Y-113934887D02*
X87306151Y-113935442D01*
X88022957Y-113729104D02*
X88024165Y-113729400D01*
X89402826Y-113728767D02*
X89404027Y-113728340D01*
X88273854Y-110418524D02*
X88271959Y-110420825D01*
X88253488Y-110433848D02*
X88253488Y-110433848D01*
X86874311Y-113510683D02*
X86875019Y-113511792D01*
X88034873Y-113729226D02*
X88036007Y-113728905D01*
X86869785Y-113491576D02*
X86869715Y-113494240D01*
X88269938Y-110423016D02*
X88267805Y-110425081D01*
X91014025Y-112390876D02*
X91014307Y-112389591D01*
X87819809Y-110592553D02*
X87817556Y-110591140D01*
X89378624Y-113722689D02*
X89379475Y-113723549D01*
X87299763Y-113933672D02*
X87301006Y-113934128D01*
X89016019Y-109793890D02*
X89014816Y-109793335D01*
X91001658Y-112409276D02*
X91002707Y-112408464D01*
X86988940Y-112517762D02*
X86991541Y-112518587D01*
X87190692Y-113015521D02*
X87189428Y-113017949D01*
X91011775Y-112397084D02*
X91012332Y-112395878D01*
X90554870Y-110692531D02*
X90554733Y-110689869D01*
X89617187Y-113617306D02*
X89620055Y-113616963D01*
X90546245Y-113515887D02*
X90546245Y-113515887D01*
X86986346Y-112517169D02*
X86987641Y-112517435D01*
X89399200Y-113729653D02*
X89400411Y-113729423D01*
X90554758Y-113496939D02*
X90554898Y-113494274D01*
X87314117Y-113935863D02*
X87316759Y-113935582D01*
X90405497Y-112546199D02*
X90405497Y-112546199D01*
X90549857Y-110710012D02*
X90550568Y-110708912D01*
X90229515Y-112995694D02*
X90229543Y-112992717D01*
X86871584Y-110682078D02*
X86870821Y-110684623D01*
X88030192Y-113729920D02*
X88031380Y-113729836D01*
X90129604Y-110255416D02*
X90128465Y-110254756D01*
X87326722Y-113932307D02*
X87327859Y-113931652D01*
X88040331Y-113727053D02*
X88041349Y-113726452D01*
X87319360Y-113935088D02*
X87320639Y-113934760D01*
X89149126Y-110416129D02*
X89147524Y-110413659D01*
X89620055Y-113616963D02*
X89622960Y-113616795D01*
X86415478Y-112401633D02*
X86417099Y-112403753D01*
X87303584Y-110251855D02*
X87301041Y-110252619D01*
X89644918Y-113621764D02*
X89647172Y-113623167D01*
X91014787Y-112385681D02*
X91014820Y-112384367D01*
X87321901Y-113934379D02*
X87323143Y-113933943D01*
X89397989Y-113729819D02*
X89399200Y-113729653D01*
X89008538Y-109791364D02*
X89007244Y-109791143D01*
X87194485Y-112986848D02*
X87194854Y-112989738D01*
D10*
X90233312Y-112976319D02*
X90405497Y-112546199D01*
D11*
X88020556Y-113728312D02*
X88021753Y-113728741D01*
X87295077Y-110255416D02*
X87293971Y-110256126D01*
X87014143Y-112536343D02*
X87015692Y-112538736D01*
X89576635Y-110597915D02*
X89573747Y-110597540D01*
X86871522Y-113504705D02*
X86872487Y-113507173D01*
X89143792Y-110405961D02*
X89142955Y-110403356D01*
X89382242Y-113725824D02*
X89383230Y-113726477D01*
X86409734Y-112384333D02*
X86409734Y-112384333D01*
X89405219Y-113727846D02*
X89406402Y-113727283D01*
X91009812Y-112400561D02*
X91010514Y-112399427D01*
X86991541Y-112518587D02*
X86994130Y-112519631D01*
X86412176Y-111790896D02*
X86411673Y-111792118D01*
X90095729Y-110255850D02*
X90095729Y-110255850D01*
X87316794Y-110251165D02*
X87314152Y-110250880D01*
X88391480Y-109814642D02*
X88391209Y-109815927D01*
X89628796Y-113616988D02*
X89631682Y-113617348D01*
X86415432Y-111785123D02*
X86414687Y-111786226D01*
X87845087Y-110598119D02*
X87842107Y-110598155D01*
X91007442Y-112403787D02*
X91008274Y-112402743D01*
X90128465Y-110254756D02*
X90127296Y-110254146D01*
X90548011Y-110672889D02*
X90547153Y-110671892D01*
X89032484Y-109812121D02*
X89032031Y-109810890D01*
X87787311Y-113618573D02*
X87790077Y-113617864D01*
X90547153Y-113514933D02*
X90548011Y-113513936D01*
X89377814Y-113721779D02*
X89378624Y-113722689D01*
X91012837Y-112394653D02*
X91013288Y-112393409D01*
D10*
X89647172Y-113623167D02*
X90095660Y-113930975D01*
D11*
X90430417Y-112519665D02*
X90433006Y-112518621D01*
X86410490Y-111795886D02*
X86410210Y-111797170D01*
X89004631Y-109790885D02*
X89003317Y-109790853D01*
X89163853Y-110430342D02*
X89161475Y-110428760D01*
X88280936Y-110405961D02*
X88279887Y-110408557D01*
X90229653Y-112998681D02*
X90229515Y-112995694D01*
X88459374Y-112727472D02*
X88459725Y-112726211D01*
X86870205Y-113499550D02*
X86870761Y-113502157D01*
D10*
X90438208Y-112517203D02*
X90989746Y-112414566D01*
D11*
X89404027Y-113728340D02*
X89405219Y-113727846D01*
X89144842Y-110408557D02*
X89143792Y-110405961D01*
X90230422Y-113004594D02*
X90229956Y-113001655D01*
X88413579Y-109791985D02*
X88412323Y-109792380D01*
X88267805Y-110425081D02*
X88265576Y-110427001D01*
X91009065Y-112401667D02*
X91009812Y-112400561D01*
X87297348Y-113932610D02*
X87298543Y-113933166D01*
X88037121Y-113728526D02*
X88038215Y-113728091D01*
X87817556Y-110591140D02*
X87817556Y-110591140D01*
X88033723Y-113729489D02*
X88034873Y-113729226D01*
X89027374Y-109802950D02*
X89026520Y-109801932D01*
X90412174Y-112534051D02*
X90414060Y-112531807D01*
X86410829Y-111794615D02*
X86410490Y-111795886D01*
X88392207Y-109812121D02*
X88391813Y-109813372D01*
X89031521Y-109809679D02*
X89030956Y-109808491D01*
X87298578Y-110253586D02*
X87296215Y-110254756D01*
X89396781Y-113729921D02*
X89397989Y-113729819D01*
X88018186Y-113727249D02*
X88018186Y-113727249D01*
D10*
X88050690Y-113715280D02*
X88458487Y-112729942D01*
D11*
X89609027Y-113619401D02*
X89611651Y-113618526D01*
X86870821Y-110684623D02*
X86870262Y-110687227D01*
X86433523Y-112414265D02*
X86434808Y-112414532D01*
X86987641Y-112517435D02*
X86988940Y-112517762D01*
X89028185Y-109804000D02*
X89027374Y-109802950D01*
X90099126Y-110253866D02*
X90097963Y-110254472D01*
X88414849Y-109791645D02*
X88413579Y-109791985D01*
X89168749Y-110432903D02*
X89167512Y-110432343D01*
X87798719Y-113616783D02*
X87801642Y-113616772D01*
X88038215Y-113728091D02*
X88039285Y-113727600D01*
X90997168Y-112412049D02*
X90998331Y-112411431D01*
X87807416Y-113617279D02*
X87810224Y-113617798D01*
X86875019Y-113511792D02*
X86875776Y-113512866D01*
X90134768Y-110259461D02*
X90133815Y-110258554D01*
X87191276Y-112976285D02*
X87192342Y-112978731D01*
D10*
X87206995Y-111233895D02*
X87033640Y-111638253D01*
D11*
X90235137Y-113017983D02*
X90233882Y-113015555D01*
X86872487Y-113507173D02*
X86873653Y-113509542D01*
X89375641Y-113718757D02*
X89376320Y-113719812D01*
X89030338Y-109807328D02*
X89029669Y-109806190D01*
X90548820Y-113512900D02*
X90549580Y-113511826D01*
X91011169Y-112398267D02*
X91011775Y-112397084D01*
X86409829Y-111799766D02*
X86409732Y-111801076D01*
D10*
X87817556Y-110591140D02*
X87328997Y-110255850D01*
D11*
X91013685Y-112392150D02*
X91014025Y-112390876D01*
X87827509Y-110595857D02*
X87824809Y-110594913D01*
X90554826Y-113491610D02*
X90554542Y-113488968D01*
X90097894Y-113932341D02*
X90099058Y-113932941D01*
X86875776Y-113512866D02*
X86876583Y-113513902D01*
X87323143Y-113933943D02*
X87324362Y-113933452D01*
X87812950Y-113618494D02*
X87815571Y-113619369D01*
D10*
X87019090Y-112546165D02*
X87191276Y-112976285D01*
D11*
X89022708Y-109798218D02*
X89021666Y-109797386D01*
X87861479Y-110594305D02*
X87861479Y-110594305D01*
X90231359Y-112981356D02*
X90232247Y-112978765D01*
X89387454Y-113728547D02*
X89388568Y-113728925D01*
X87818065Y-113620422D02*
X87820410Y-113621654D01*
X89030956Y-109808491D02*
X89030338Y-109807328D01*
X87325556Y-113932907D02*
X87326722Y-113932307D01*
X90991028Y-112414298D02*
X90992294Y-112413967D01*
X88255983Y-110432903D02*
X88253488Y-110433848D01*
X87327893Y-110255133D02*
X87326757Y-110254472D01*
X88025375Y-113729632D02*
X88026585Y-113729798D01*
D10*
X86874800Y-110710012D02*
X87206995Y-111233895D01*
D11*
X86421781Y-111778338D02*
X86420764Y-111779194D01*
X88281772Y-110403356D02*
X88280936Y-110405961D01*
D10*
X87820410Y-113621654D02*
X88018186Y-113727249D01*
D11*
X86869839Y-110695191D02*
X86870122Y-110697831D01*
X86423962Y-112410009D02*
X86425072Y-112410728D01*
X86409700Y-111802389D02*
X86409700Y-111802389D01*
X86425023Y-111776038D02*
X86423912Y-111776759D01*
X90129557Y-113931382D02*
X90130661Y-113930676D01*
X87290840Y-113928231D02*
X87291833Y-113929084D01*
X87293971Y-110256126D02*
X87292901Y-110256886D01*
X88045109Y-113723520D02*
X88045960Y-113722659D01*
X86870262Y-110687227D02*
X86869911Y-110689869D01*
X88019366Y-113727815D02*
X88020556Y-113728312D01*
X89401620Y-113729128D02*
X89402826Y-113728767D01*
X90126060Y-113933200D02*
X90128421Y-113932038D01*
X90552390Y-113481369D02*
X90551840Y-113480177D01*
X90433006Y-112518621D02*
X90434307Y-112518180D01*
X87782086Y-113620509D02*
X87784640Y-113619455D01*
X90115855Y-110250948D02*
X90113196Y-110250808D01*
X88046771Y-113721748D02*
X88047541Y-113720788D01*
X88458962Y-112728716D02*
X88459374Y-112727472D01*
X90110488Y-113935897D02*
X90113149Y-113935966D01*
X90132761Y-113929118D02*
X90133751Y-113928265D01*
X86869856Y-113496905D02*
X86870205Y-113499550D01*
X90554014Y-110700429D02*
X90554512Y-110697831D01*
X89622960Y-113616795D02*
X89625881Y-113616804D01*
X88409863Y-109793335D02*
X88408661Y-109793890D01*
X88392660Y-109810890D02*
X88392207Y-109812121D01*
X87316759Y-113935582D02*
X87318066Y-113935362D01*
X87804548Y-113616937D02*
X87807416Y-113617279D01*
X86878412Y-110670939D02*
X86877507Y-110671892D01*
X89028950Y-109805080D02*
X89028185Y-109804000D01*
X88021753Y-113728741D02*
X88022957Y-113729104D01*
X89389700Y-113729246D02*
X89390850Y-113729508D01*
X89604178Y-113621688D02*
X89606529Y-113620456D01*
X87328997Y-110255850D02*
X87328997Y-110255850D01*
D10*
X86878343Y-113515852D02*
X87289889Y-113927330D01*
D11*
X86874017Y-113477845D02*
X86873359Y-113478979D01*
X88258454Y-110431728D02*
X88255983Y-110432903D01*
X87853738Y-110596993D02*
X87850925Y-110597540D01*
X88421340Y-109790853D02*
X88421340Y-109790853D01*
X86999207Y-112522312D02*
X87001661Y-112523919D01*
X88044220Y-113724331D02*
X88045109Y-113723520D01*
X88275609Y-110416129D02*
X88273854Y-110418524D01*
X86418882Y-112405739D02*
X86420813Y-112407574D01*
X89014816Y-109793335D02*
X89013593Y-109792831D01*
X86427326Y-111774745D02*
X86426161Y-111775366D01*
X88406326Y-109795149D02*
X88404093Y-109796596D01*
X89147524Y-110413659D02*
X89146091Y-110411129D01*
D10*
X90134699Y-113927364D02*
X90546245Y-113515887D01*
D11*
X87328997Y-110255850D02*
X87327893Y-110255133D01*
X86427373Y-112412015D02*
X86428560Y-112412580D01*
X90096761Y-113931686D02*
X90097894Y-113932341D01*
X89579580Y-110598119D02*
X89576635Y-110597915D01*
X86429727Y-111773663D02*
X86428515Y-111774177D01*
X90115811Y-113935825D02*
X90118454Y-113935476D01*
X88042338Y-113725798D02*
X88043296Y-113725090D01*
X90553711Y-113485088D02*
X90553325Y-113483827D01*
X86876583Y-113513902D02*
X86877438Y-113514898D01*
X89373898Y-113715314D02*
X89374427Y-113716507D01*
X91013288Y-112393409D02*
X91013685Y-112392150D01*
X86871716Y-113482553D02*
X86871278Y-113483793D01*
X90236545Y-113020242D02*
X90235137Y-113017983D01*
X90107847Y-113935616D02*
X90110488Y-113935897D01*
X89033482Y-109815927D02*
X89033212Y-109814642D01*
X90552629Y-113505984D02*
X90553088Y-113504739D01*
X88458487Y-112729942D02*
X88458962Y-112728716D01*
X87839117Y-110598024D02*
X87836140Y-110597727D01*
X87308794Y-113935791D02*
X87311456Y-113935932D01*
X90101468Y-113933977D02*
X90102708Y-113934413D01*
X90134768Y-110259461D02*
X90134768Y-110259461D01*
X90123598Y-113934162D02*
X90126060Y-113933200D01*
X89169991Y-110433405D02*
X89168749Y-110432903D01*
X87010523Y-112531773D02*
X87012415Y-112534017D01*
X90553301Y-110702967D02*
X90554014Y-110700429D01*
X90546246Y-110670939D02*
X90546246Y-110670939D01*
X89025624Y-109800948D02*
X89024689Y-109800000D01*
X87321936Y-110252381D02*
X87319395Y-110251664D01*
X89607136Y-110591140D02*
X89607136Y-110591140D01*
X89021666Y-109797386D02*
X89020592Y-109796596D01*
X87822235Y-110593812D02*
X87819809Y-110592553D01*
X88279887Y-110408557D02*
X88278640Y-110411129D01*
X87291867Y-110257695D02*
X87290874Y-110258554D01*
X89029669Y-109806190D02*
X89028950Y-109805080D01*
X89599867Y-110594913D02*
X89597163Y-110595857D01*
X87292866Y-113929887D02*
X87293937Y-113930642D01*
X87842107Y-110598155D02*
X87839117Y-110598024D01*
X87289889Y-113927330D02*
X87289889Y-113927330D01*
X89011094Y-109791985D02*
X89009822Y-109791645D01*
X88027792Y-113729902D02*
X88028995Y-113729942D01*
X90229543Y-112992717D02*
X90229740Y-112989772D01*
X86409864Y-112386957D02*
X86410024Y-112388261D01*
X87311490Y-110250808D02*
X87308828Y-110250948D01*
X90425346Y-112522346D02*
X90427859Y-112520912D01*
X86422831Y-111777526D02*
X86421781Y-111778338D01*
X86417923Y-111781999D02*
X86417052Y-111783007D01*
X90422897Y-112523954D02*
X90425346Y-112522346D01*
X86410246Y-112389556D02*
X86410527Y-112390842D01*
X87018183Y-112543662D02*
X87018666Y-112544912D01*
X89142346Y-110400759D02*
X89142346Y-110400759D01*
X86423912Y-111776759D02*
X86422831Y-111777526D01*
X90414060Y-112531807D02*
X90416093Y-112529660D01*
X89167512Y-110432343D02*
X89166282Y-110431728D01*
X86869911Y-110689869D02*
X86869770Y-110692531D01*
X87193945Y-112984036D02*
X87194485Y-112986848D01*
X87820410Y-113621654D02*
X87820410Y-113621654D01*
X88043296Y-113725090D02*
X88044220Y-113724331D01*
X89171238Y-110433848D02*
X89169991Y-110433405D01*
X86986346Y-112517169D02*
X86986346Y-112517169D01*
X89585548Y-110598024D02*
X89582559Y-110598155D01*
X90121095Y-110251855D02*
X90118494Y-110251298D01*
X86870565Y-113486333D02*
X86870068Y-113488934D01*
X86877507Y-110671892D02*
X86876651Y-110672889D01*
X89614378Y-113617827D02*
X89617187Y-113617306D01*
X90550287Y-110676105D02*
X90549578Y-110674998D01*
X90133751Y-113928265D02*
X90134699Y-113927364D01*
X90436910Y-112517469D02*
X90438208Y-112517203D01*
X90554542Y-113488968D02*
X90554319Y-113487661D01*
X90553325Y-113483827D02*
X90552885Y-113482587D01*
X86433486Y-111772467D02*
X86432214Y-111772806D01*
X86875086Y-110674998D02*
X86874378Y-110676105D01*
X89379475Y-113723549D02*
X89380362Y-113724359D01*
X90989746Y-112414566D02*
X90991028Y-112414298D01*
X91003725Y-112407608D02*
X91004709Y-112406710D01*
X90553075Y-110682078D02*
X90552111Y-110679612D01*
X89634518Y-113617883D02*
X89637281Y-113618592D01*
X86412771Y-112397050D02*
X86414031Y-112399393D01*
X86434774Y-111772190D02*
X86433486Y-111772467D01*
X86870122Y-110697831D02*
X86870343Y-110699136D01*
X87290874Y-110258554D02*
X87289923Y-110259461D01*
X88393735Y-109808491D02*
X88393170Y-109809679D01*
X88265576Y-110427001D02*
X88263265Y-110428760D01*
X86874731Y-113476744D02*
X86874731Y-113476744D01*
X90408902Y-112538770D02*
X90410449Y-112536377D01*
X87859038Y-110595377D02*
X87856450Y-110596272D01*
X90113149Y-113935966D02*
X90115811Y-113935825D01*
X86413335Y-111788513D02*
X86412730Y-111789693D01*
X90232247Y-112978765D02*
X90233312Y-112976319D01*
X87194640Y-113001621D02*
X87194172Y-113004560D01*
X90134699Y-113927364D02*
X90134699Y-113927364D01*
X89142621Y-110402055D02*
X89142346Y-110400759D01*
X90549578Y-110674998D02*
X90548819Y-110673924D01*
D10*
X90390983Y-111638253D02*
X90217662Y-111200000D01*
X90549856Y-113476779D02*
X90236545Y-113020242D01*
D11*
X87815571Y-113619369D02*
X87818065Y-113620422D01*
X87324397Y-110253316D02*
X87323178Y-110252821D01*
X90100250Y-113933487D02*
X90101468Y-113933977D01*
X90551840Y-113480177D02*
X90551234Y-113479013D01*
X86878412Y-110670939D02*
X86878412Y-110670939D01*
X89032878Y-109813372D02*
X89032484Y-109812121D01*
X87327859Y-113931652D02*
X87328963Y-113930941D01*
X89374427Y-113716507D02*
X89375009Y-113717655D01*
X90230107Y-112986882D02*
X90230646Y-112984069D01*
X86432254Y-112413933D02*
X86433523Y-112414265D01*
X86869770Y-110692531D02*
X86869839Y-110695191D01*
X86871773Y-110704206D02*
X86872268Y-110705423D01*
X87188008Y-113020208D02*
X87188008Y-113020208D01*
X89383230Y-113726477D02*
X89384247Y-113727077D01*
X88047541Y-113720788D02*
X88048267Y-113719779D01*
X90128421Y-113932038D02*
X90129557Y-113931382D01*
X86872817Y-110706614D02*
X86873422Y-110707778D01*
X88393170Y-109809679D02*
X88392660Y-109810890D01*
X89005941Y-109790983D02*
X89004631Y-109790885D01*
X90107902Y-110251164D02*
X90106598Y-110251387D01*
X89020592Y-109796596D02*
X89019489Y-109795850D01*
X87193542Y-113007442D02*
X87192751Y-113010245D01*
X89588526Y-110597727D02*
X89585548Y-110598024D01*
X87320639Y-113934760D02*
X87321901Y-113934379D01*
X90999468Y-112410762D02*
X91000577Y-112410043D01*
X87314152Y-110250880D02*
X87311490Y-110250808D01*
X87191276Y-112976285D02*
X87191276Y-112976285D01*
X87189428Y-113017949D02*
X87188008Y-113020208D01*
X87777416Y-113623133D02*
X87779670Y-113621735D01*
X88049579Y-113717621D02*
X88050161Y-113716473D01*
X86417052Y-111783007D02*
X86416221Y-111784049D01*
X86874083Y-110708912D02*
X86874800Y-110710012D01*
D10*
X89003317Y-109790853D02*
X88421340Y-109790853D01*
X91014889Y-111802424D02*
X90424450Y-111667042D01*
D11*
X89154803Y-110423016D02*
X89152780Y-110420825D01*
X88282381Y-110400759D02*
X88282381Y-110400759D01*
X86434774Y-111772190D02*
X86434774Y-111772190D01*
X88045960Y-113722659D02*
X88046771Y-113721748D01*
X86874800Y-110710012D02*
X86874800Y-110710012D01*
X90130661Y-113930676D02*
X90131730Y-113929921D01*
X86875844Y-110673924D02*
X86875086Y-110674998D01*
X89018358Y-109795149D02*
X89017200Y-109794496D01*
D10*
X88253488Y-110433848D02*
X87861479Y-110594305D01*
D11*
X91014529Y-112388295D02*
X91014689Y-112386991D01*
X90236545Y-113020242D02*
X90236545Y-113020242D01*
X89375009Y-113717655D02*
X89375641Y-113718757D01*
X87792915Y-113617329D02*
X87795803Y-113616969D01*
X90105247Y-113935122D02*
X90107847Y-113935616D01*
X89642503Y-113620533D02*
X89644918Y-113621764D01*
X90416093Y-112529660D02*
X90418254Y-112527626D01*
X89032031Y-109810890D02*
X89031521Y-109809679D01*
X91014820Y-112384367D02*
X91014820Y-112384367D01*
X89406402Y-113727283D02*
X89406402Y-113727283D01*
X86411223Y-111793359D02*
X86410829Y-111794615D01*
X89565648Y-110595377D02*
X89563213Y-110594305D01*
X86873653Y-113509542D02*
X86874311Y-113510683D01*
X86409767Y-112385647D02*
X86409864Y-112386957D01*
X88039285Y-113727600D02*
X88040331Y-113727053D01*
X90105307Y-110251664D02*
X90104030Y-110251995D01*
X89150883Y-110418524D02*
X89149126Y-110416129D01*
X87311456Y-113935932D02*
X87314117Y-113935863D01*
D10*
X91014820Y-112384367D02*
X91014889Y-111802424D01*
D11*
X88458487Y-112729942D02*
X88458487Y-112729942D01*
X88391209Y-109815927D02*
X88391209Y-109815927D01*
X90547153Y-110671892D02*
X90546246Y-110670939D01*
X89597163Y-110595857D02*
X89594356Y-110596642D01*
X86418833Y-111781026D02*
X86417923Y-111781999D01*
X86428515Y-111774177D02*
X86427326Y-111774745D01*
X87289889Y-113927330D02*
X87290840Y-113928231D01*
X88028995Y-113729942D02*
X88030192Y-113729920D01*
X90552371Y-110705423D02*
X90552863Y-110704206D01*
X86411262Y-112393375D02*
X86411712Y-112394618D01*
X88418722Y-109790983D02*
X88417422Y-109791143D01*
X90410449Y-112536377D02*
X90412174Y-112534051D01*
X88031380Y-113729836D02*
X88032558Y-113729693D01*
X89639951Y-113619476D02*
X89642503Y-113620533D01*
X87301006Y-113934128D02*
X87303549Y-113934887D01*
X89582559Y-110598155D02*
X89579580Y-110598119D01*
X90118454Y-113935476D02*
X90121056Y-113934921D01*
X90406410Y-112543696D02*
X90407550Y-112541215D01*
X90551224Y-110707778D02*
X90551825Y-110706614D01*
X89013593Y-109792831D02*
X89012352Y-109792380D01*
X90551234Y-113479013D02*
X90550573Y-113477879D01*
X90405497Y-112546199D02*
X90405924Y-112544946D01*
X89146091Y-110411129D02*
X89144842Y-110408557D01*
X90099058Y-113932941D02*
X90100250Y-113933487D01*
X86870343Y-110699136D02*
X86870619Y-110700429D01*
X90435609Y-112517796D02*
X90436910Y-112517469D01*
X86409989Y-111798464D02*
X86409829Y-111799766D01*
X87848034Y-110597915D02*
X87845087Y-110598119D01*
X90993543Y-112413575D02*
X90994773Y-112413123D01*
X86414031Y-112399393D02*
X86415478Y-112401633D01*
X88277209Y-110413659D02*
X88275609Y-110416129D01*
X90418254Y-112527626D02*
X90420528Y-112525718D01*
X89394380Y-113729939D02*
X89395577Y-113729961D01*
X88404093Y-109796596D02*
X88401979Y-109798218D01*
X86425072Y-112410728D02*
X86426209Y-112411397D01*
X89611651Y-113618526D02*
X89614378Y-113617827D01*
X88416130Y-109791364D02*
X88414849Y-109791645D01*
X89003317Y-109790853D02*
X89003317Y-109790853D01*
X89647172Y-113623167D02*
X89647172Y-113623167D01*
D10*
X87328963Y-113930941D02*
X87777416Y-113623133D01*
D11*
X90102708Y-113934413D02*
X90105247Y-113935122D01*
X91014689Y-112386991D02*
X91014787Y-112385681D01*
X89380362Y-113724359D02*
X89381285Y-113725118D01*
X90552885Y-113482587D02*
X90552390Y-113481369D01*
X86411673Y-111792118D02*
X86411223Y-111793359D01*
X86426209Y-112411397D02*
X86427373Y-112412015D01*
X86877438Y-113514898D02*
X86878343Y-113515852D01*
X90549857Y-110710012D02*
X90549857Y-110710012D01*
X89009822Y-109791645D02*
X89008538Y-109791364D01*
D10*
X88391209Y-109815927D02*
X88282381Y-110400759D01*
D11*
X89166282Y-110431728D02*
X89163853Y-110430342D01*
X91000577Y-112410043D02*
X91001658Y-112409276D01*
X90550568Y-110708912D02*
X90551224Y-110707778D01*
X88271959Y-110420825D02*
X88269938Y-110423016D01*
X86430960Y-111773205D02*
X86429727Y-111773663D01*
X90110539Y-110250880D02*
X90107902Y-110251164D01*
X88411084Y-109792831D02*
X88409863Y-109793335D01*
X86870619Y-110700429D02*
X86870949Y-110701707D01*
X86872756Y-113480143D02*
X86872209Y-113481335D01*
X87306151Y-113935442D02*
X87308794Y-113935791D01*
X87856450Y-110596272D02*
X87853738Y-110596993D01*
X86872268Y-110705423D02*
X86872817Y-110706614D01*
X90130711Y-110256126D02*
X90129604Y-110255416D01*
X90097963Y-110254472D02*
X90096829Y-110255133D01*
X86869715Y-113494240D02*
X86869856Y-113496905D01*
X89377045Y-113720820D02*
X89377814Y-113721779D01*
X90407550Y-112541215D02*
X90408902Y-112538770D01*
X90104030Y-110251995D02*
X90102771Y-110252381D01*
X89604178Y-113621688D02*
X89604178Y-113621688D01*
X87810224Y-113617798D02*
X87812950Y-113618494D01*
X90550945Y-110677245D02*
X90550287Y-110676105D01*
X90124879Y-110253077D02*
X90123637Y-110252619D01*
X90546245Y-113515887D02*
X90547153Y-113514933D01*
X86429771Y-112413089D02*
X86431003Y-112413541D01*
X88391813Y-109813372D02*
X88391480Y-109814642D01*
X90554408Y-113499585D02*
X90554758Y-113496939D01*
X87006317Y-112527591D02*
X87008484Y-112529626D01*
X90133815Y-110258554D02*
X90132819Y-110257695D01*
X91006569Y-112404798D02*
X91007442Y-112403787D01*
X89390850Y-113729508D02*
X89392015Y-113729712D01*
X87325591Y-110253866D02*
X87324397Y-110253316D01*
X86409732Y-111801076D02*
X86409700Y-111802389D01*
X88398170Y-109801932D02*
X88396506Y-109804000D01*
X90132819Y-110257695D02*
X90131783Y-110256886D01*
X89386361Y-113728113D02*
X89387454Y-113728547D01*
X86873719Y-110677245D02*
X86873110Y-110678415D01*
X88048947Y-113718724D02*
X88049579Y-113717621D01*
X86872209Y-113481335D02*
X86871716Y-113482553D01*
X86873422Y-110707778D02*
X86874083Y-110708912D01*
X90549580Y-113511826D02*
X90550290Y-113510718D01*
X87777416Y-113623133D02*
X87777416Y-113623133D01*
X90233312Y-112976319D02*
X90233312Y-112976319D01*
D12*
X84800000Y-71000000D02*
X88800000Y-73000000D01*
X94800000Y-72000000D02*
X86800000Y-72000000D01*
X94800000Y-72000000D02*
X94800000Y-70000000D01*
X84800000Y-71000000D02*
X88800000Y-69000000D01*
X94800000Y-70000000D02*
X86800000Y-70000000D01*
X95400000Y-104000000D02*
X91400000Y-106000000D01*
X95400000Y-104000000D02*
X91400000Y-102000000D01*
X85400000Y-103000000D02*
X85400000Y-105000000D01*
X85400000Y-105000000D02*
X93400000Y-105000000D01*
X85400000Y-103000000D02*
X93400000Y-103000000D01*
D13*
X123670000Y-111950000D02*
X126330000Y-111950000D01*
X123670000Y-104270000D02*
X123670000Y-111950000D01*
X126330000Y-104270000D02*
X126330000Y-111950000D01*
X123670000Y-104270000D02*
X126330000Y-104270000D01*
X123670000Y-103000000D02*
X123670000Y-101670000D01*
X123670000Y-101670000D02*
X125000000Y-101670000D01*
X108200000Y-70000000D02*
G75*
G03X108200000Y-70000000I-1200000J0D01*
G01*
X112200000Y-70000000D02*
G75*
G03X112200000Y-70000000I-1200000J0D01*
G01*
X119200000Y-81000000D02*
G75*
G03X119200000Y-81000000I-1200000J0D01*
G01*
X119200000Y-75000000D02*
G75*
G03X119200000Y-75000000I-1200000J0D01*
G01*
X94500000Y-100700000D02*
X94000000Y-100200000D01*
X93500000Y-100700000D02*
X94500000Y-100700000D01*
X94000000Y-100200000D02*
X93500000Y-100700000D01*
X84700000Y-99900000D02*
X96100000Y-99900000D01*
X96100000Y-99900000D02*
X96100000Y-95300000D01*
X96100000Y-92600000D02*
X96100000Y-93700000D01*
X84700000Y-93800000D02*
X84700000Y-92600000D01*
X84700000Y-99900000D02*
X84700000Y-99600000D01*
X81900000Y-93800000D02*
X81900000Y-99600000D01*
X84700000Y-92600000D02*
X96100000Y-92600000D01*
X84700000Y-93800000D02*
X81900000Y-93800000D01*
X84700000Y-99600000D02*
X81900000Y-99600000D01*
X94500000Y-82700000D02*
X94000000Y-82200000D01*
X93500000Y-82700000D02*
X94500000Y-82700000D01*
X94000000Y-82200000D02*
X93500000Y-82700000D01*
X84700000Y-81900000D02*
X96100000Y-81900000D01*
X96100000Y-81900000D02*
X96100000Y-77300000D01*
X96100000Y-74600000D02*
X96100000Y-75700000D01*
X84700000Y-75800000D02*
X84700000Y-74600000D01*
X84700000Y-81900000D02*
X84700000Y-81600000D01*
X81900000Y-75800000D02*
X81900000Y-81600000D01*
X84700000Y-74600000D02*
X96100000Y-74600000D01*
X84700000Y-75800000D02*
X81900000Y-75800000D01*
X84700000Y-81600000D02*
X81900000Y-81600000D01*
X103202064Y-95510000D02*
X101997936Y-95510000D01*
X103202064Y-93690000D02*
X101997936Y-93690000D01*
X101300000Y-113987500D02*
X101300000Y-114437500D01*
X101300000Y-113987500D02*
X101750000Y-113987500D01*
X106900000Y-114537500D02*
X106450000Y-114537500D01*
X106900000Y-116387500D02*
X106900000Y-114537500D01*
X99100000Y-118937500D02*
X99100000Y-118687500D01*
X106900000Y-118937500D02*
X106900000Y-118687500D01*
X99100000Y-116387500D02*
X99100000Y-114537500D01*
X99100000Y-114537500D02*
X99550000Y-114537500D01*
X123670000Y-88670000D02*
X125000000Y-88670000D01*
X123670000Y-90000000D02*
X123670000Y-88670000D01*
X123670000Y-91270000D02*
X126330000Y-91270000D01*
X126330000Y-91270000D02*
X126330000Y-98950000D01*
X123670000Y-91270000D02*
X123670000Y-98950000D01*
X123670000Y-98950000D02*
X126330000Y-98950000D01*
X123670000Y-72670000D02*
X125000000Y-72670000D01*
X123670000Y-74000000D02*
X123670000Y-72670000D01*
X123670000Y-75270000D02*
X126330000Y-75270000D01*
X126330000Y-75270000D02*
X126330000Y-85490000D01*
X123670000Y-75270000D02*
X123670000Y-85490000D01*
X123670000Y-85490000D02*
X126330000Y-85490000D01*
X108738748Y-81710000D02*
X109261252Y-81710000D01*
X108738748Y-80290000D02*
X109261252Y-80290000D01*
X109236252Y-82890000D02*
X108713748Y-82890000D01*
X109236252Y-84310000D02*
X108713748Y-84310000D01*
X108713748Y-78310000D02*
X109236252Y-78310000D01*
X108713748Y-76890000D02*
X109236252Y-76890000D01*
X109261252Y-74290000D02*
X108738748Y-74290000D01*
X109261252Y-75710000D02*
X108738748Y-75710000D01*
X102397936Y-108910000D02*
X103602064Y-108910000D01*
X102397936Y-107090000D02*
X103602064Y-107090000D01*
X102738748Y-111710000D02*
X103261252Y-111710000D01*
X102738748Y-110290000D02*
X103261252Y-110290000D01*
X103202064Y-90090000D02*
X101997936Y-90090000D01*
X103202064Y-91910000D02*
X101997936Y-91910000D01*
X104202064Y-82690000D02*
X102997936Y-82690000D01*
X104202064Y-84510000D02*
X102997936Y-84510000D01*
X104002064Y-76690000D02*
X102797936Y-76690000D01*
X104002064Y-78510000D02*
X102797936Y-78510000D01*
D10*
X124190476Y-100122380D02*
X124857142Y-101122380D01*
X124857142Y-100122380D02*
X124190476Y-101122380D01*
X125666666Y-100455714D02*
X125666666Y-101122380D01*
X125428571Y-100074761D02*
X125190476Y-100789047D01*
X125809523Y-100789047D01*
X105738095Y-67454380D02*
X106309523Y-67454380D01*
X106023809Y-68454380D02*
X106023809Y-67454380D01*
X106642857Y-68454380D02*
X106642857Y-67454380D01*
X107023809Y-67454380D01*
X107119047Y-67502000D01*
X107166666Y-67549619D01*
X107214285Y-67644857D01*
X107214285Y-67787714D01*
X107166666Y-67882952D01*
X107119047Y-67930571D01*
X107023809Y-67978190D01*
X106642857Y-67978190D01*
X108071428Y-67787714D02*
X108071428Y-68454380D01*
X107833333Y-67406761D02*
X107595238Y-68121047D01*
X108214285Y-68121047D01*
X109738095Y-67454380D02*
X110309523Y-67454380D01*
X110023809Y-68454380D02*
X110023809Y-67454380D01*
X110642857Y-68454380D02*
X110642857Y-67454380D01*
X111023809Y-67454380D01*
X111119047Y-67502000D01*
X111166666Y-67549619D01*
X111214285Y-67644857D01*
X111214285Y-67787714D01*
X111166666Y-67882952D01*
X111119047Y-67930571D01*
X111023809Y-67978190D01*
X110642857Y-67978190D01*
X111547619Y-67454380D02*
X112166666Y-67454380D01*
X111833333Y-67835333D01*
X111976190Y-67835333D01*
X112071428Y-67882952D01*
X112119047Y-67930571D01*
X112166666Y-68025809D01*
X112166666Y-68263904D01*
X112119047Y-68359142D01*
X112071428Y-68406761D01*
X111976190Y-68454380D01*
X111690476Y-68454380D01*
X111595238Y-68406761D01*
X111547619Y-68359142D01*
X116738095Y-78454380D02*
X117309523Y-78454380D01*
X117023809Y-79454380D02*
X117023809Y-78454380D01*
X117642857Y-79454380D02*
X117642857Y-78454380D01*
X118023809Y-78454380D01*
X118119047Y-78502000D01*
X118166666Y-78549619D01*
X118214285Y-78644857D01*
X118214285Y-78787714D01*
X118166666Y-78882952D01*
X118119047Y-78930571D01*
X118023809Y-78978190D01*
X117642857Y-78978190D01*
X118595238Y-78549619D02*
X118642857Y-78502000D01*
X118738095Y-78454380D01*
X118976190Y-78454380D01*
X119071428Y-78502000D01*
X119119047Y-78549619D01*
X119166666Y-78644857D01*
X119166666Y-78740095D01*
X119119047Y-78882952D01*
X118547619Y-79454380D01*
X119166666Y-79454380D01*
X116738095Y-72454380D02*
X117309523Y-72454380D01*
X117023809Y-73454380D02*
X117023809Y-72454380D01*
X117642857Y-73454380D02*
X117642857Y-72454380D01*
X118023809Y-72454380D01*
X118119047Y-72502000D01*
X118166666Y-72549619D01*
X118214285Y-72644857D01*
X118214285Y-72787714D01*
X118166666Y-72882952D01*
X118119047Y-72930571D01*
X118023809Y-72978190D01*
X117642857Y-72978190D01*
X119166666Y-73454380D02*
X118595238Y-73454380D01*
X118880952Y-73454380D02*
X118880952Y-72454380D01*
X118785714Y-72597238D01*
X118690476Y-72692476D01*
X118595238Y-72740095D01*
X82223809Y-91652380D02*
X82223809Y-90652380D01*
X83271428Y-91557142D02*
X83223809Y-91604761D01*
X83080952Y-91652380D01*
X82985714Y-91652380D01*
X82842857Y-91604761D01*
X82747619Y-91509523D01*
X82700000Y-91414285D01*
X82652380Y-91223809D01*
X82652380Y-91080952D01*
X82700000Y-90890476D01*
X82747619Y-90795238D01*
X82842857Y-90700000D01*
X82985714Y-90652380D01*
X83080952Y-90652380D01*
X83223809Y-90700000D01*
X83271428Y-90747619D01*
X83652380Y-90747619D02*
X83700000Y-90700000D01*
X83795238Y-90652380D01*
X84033333Y-90652380D01*
X84128571Y-90700000D01*
X84176190Y-90747619D01*
X84223809Y-90842857D01*
X84223809Y-90938095D01*
X84176190Y-91080952D01*
X83604761Y-91652380D01*
X84223809Y-91652380D01*
X82223809Y-73852380D02*
X82223809Y-72852380D01*
X83271428Y-73757142D02*
X83223809Y-73804761D01*
X83080952Y-73852380D01*
X82985714Y-73852380D01*
X82842857Y-73804761D01*
X82747619Y-73709523D01*
X82700000Y-73614285D01*
X82652380Y-73423809D01*
X82652380Y-73280952D01*
X82700000Y-73090476D01*
X82747619Y-72995238D01*
X82842857Y-72900000D01*
X82985714Y-72852380D01*
X83080952Y-72852380D01*
X83223809Y-72900000D01*
X83271428Y-72947619D01*
X84223809Y-73852380D02*
X83652380Y-73852380D01*
X83938095Y-73852380D02*
X83938095Y-72852380D01*
X83842857Y-72995238D01*
X83747619Y-73090476D01*
X83652380Y-73138095D01*
X106233333Y-95157142D02*
X106185714Y-95204761D01*
X106042857Y-95252380D01*
X105947619Y-95252380D01*
X105804761Y-95204761D01*
X105709523Y-95109523D01*
X105661904Y-95014285D01*
X105614285Y-94823809D01*
X105614285Y-94680952D01*
X105661904Y-94490476D01*
X105709523Y-94395238D01*
X105804761Y-94300000D01*
X105947619Y-94252380D01*
X106042857Y-94252380D01*
X106185714Y-94300000D01*
X106233333Y-94347619D01*
X107090476Y-94252380D02*
X106900000Y-94252380D01*
X106804761Y-94300000D01*
X106757142Y-94347619D01*
X106661904Y-94490476D01*
X106614285Y-94680952D01*
X106614285Y-95061904D01*
X106661904Y-95157142D01*
X106709523Y-95204761D01*
X106804761Y-95252380D01*
X106995238Y-95252380D01*
X107090476Y-95204761D01*
X107138095Y-95157142D01*
X107185714Y-95061904D01*
X107185714Y-94823809D01*
X107138095Y-94728571D01*
X107090476Y-94680952D01*
X106995238Y-94633333D01*
X106804761Y-94633333D01*
X106709523Y-94680952D01*
X106661904Y-94728571D01*
X106614285Y-94823809D01*
X96190476Y-115752380D02*
X96857142Y-116752380D01*
X96857142Y-115752380D02*
X96190476Y-116752380D01*
X97142857Y-115752380D02*
X97761904Y-115752380D01*
X97428571Y-116133333D01*
X97571428Y-116133333D01*
X97666666Y-116180952D01*
X97714285Y-116228571D01*
X97761904Y-116323809D01*
X97761904Y-116561904D01*
X97714285Y-116657142D01*
X97666666Y-116704761D01*
X97571428Y-116752380D01*
X97285714Y-116752380D01*
X97190476Y-116704761D01*
X97142857Y-116657142D01*
X124190476Y-87122380D02*
X124857142Y-88122380D01*
X124857142Y-87122380D02*
X124190476Y-88122380D01*
X125190476Y-87217619D02*
X125238095Y-87170000D01*
X125333333Y-87122380D01*
X125571428Y-87122380D01*
X125666666Y-87170000D01*
X125714285Y-87217619D01*
X125761904Y-87312857D01*
X125761904Y-87408095D01*
X125714285Y-87550952D01*
X125142857Y-88122380D01*
X125761904Y-88122380D01*
X124190476Y-71122380D02*
X124857142Y-72122380D01*
X124857142Y-71122380D02*
X124190476Y-72122380D01*
X125761904Y-72122380D02*
X125190476Y-72122380D01*
X125476190Y-72122380D02*
X125476190Y-71122380D01*
X125380952Y-71265238D01*
X125285714Y-71360476D01*
X125190476Y-71408095D01*
X111833333Y-81452380D02*
X111500000Y-80976190D01*
X111261904Y-81452380D02*
X111261904Y-80452380D01*
X111642857Y-80452380D01*
X111738095Y-80500000D01*
X111785714Y-80547619D01*
X111833333Y-80642857D01*
X111833333Y-80785714D01*
X111785714Y-80880952D01*
X111738095Y-80928571D01*
X111642857Y-80976190D01*
X111261904Y-80976190D01*
X112690476Y-80785714D02*
X112690476Y-81452380D01*
X112452380Y-80404761D02*
X112214285Y-81119047D01*
X112833333Y-81119047D01*
X111833333Y-84052380D02*
X111500000Y-83576190D01*
X111261904Y-84052380D02*
X111261904Y-83052380D01*
X111642857Y-83052380D01*
X111738095Y-83100000D01*
X111785714Y-83147619D01*
X111833333Y-83242857D01*
X111833333Y-83385714D01*
X111785714Y-83480952D01*
X111738095Y-83528571D01*
X111642857Y-83576190D01*
X111261904Y-83576190D01*
X112166666Y-83052380D02*
X112785714Y-83052380D01*
X112452380Y-83433333D01*
X112595238Y-83433333D01*
X112690476Y-83480952D01*
X112738095Y-83528571D01*
X112785714Y-83623809D01*
X112785714Y-83861904D01*
X112738095Y-83957142D01*
X112690476Y-84004761D01*
X112595238Y-84052380D01*
X112309523Y-84052380D01*
X112214285Y-84004761D01*
X112166666Y-83957142D01*
X112033333Y-78052380D02*
X111700000Y-77576190D01*
X111461904Y-78052380D02*
X111461904Y-77052380D01*
X111842857Y-77052380D01*
X111938095Y-77100000D01*
X111985714Y-77147619D01*
X112033333Y-77242857D01*
X112033333Y-77385714D01*
X111985714Y-77480952D01*
X111938095Y-77528571D01*
X111842857Y-77576190D01*
X111461904Y-77576190D01*
X112414285Y-77147619D02*
X112461904Y-77100000D01*
X112557142Y-77052380D01*
X112795238Y-77052380D01*
X112890476Y-77100000D01*
X112938095Y-77147619D01*
X112985714Y-77242857D01*
X112985714Y-77338095D01*
X112938095Y-77480952D01*
X112366666Y-78052380D01*
X112985714Y-78052380D01*
X108833333Y-73652380D02*
X108500000Y-73176190D01*
X108261904Y-73652380D02*
X108261904Y-72652380D01*
X108642857Y-72652380D01*
X108738095Y-72700000D01*
X108785714Y-72747619D01*
X108833333Y-72842857D01*
X108833333Y-72985714D01*
X108785714Y-73080952D01*
X108738095Y-73128571D01*
X108642857Y-73176190D01*
X108261904Y-73176190D01*
X109785714Y-73652380D02*
X109214285Y-73652380D01*
X109500000Y-73652380D02*
X109500000Y-72652380D01*
X109404761Y-72795238D01*
X109309523Y-72890476D01*
X109214285Y-72938095D01*
X106833333Y-108357142D02*
X106785714Y-108404761D01*
X106642857Y-108452380D01*
X106547619Y-108452380D01*
X106404761Y-108404761D01*
X106309523Y-108309523D01*
X106261904Y-108214285D01*
X106214285Y-108023809D01*
X106214285Y-107880952D01*
X106261904Y-107690476D01*
X106309523Y-107595238D01*
X106404761Y-107500000D01*
X106547619Y-107452380D01*
X106642857Y-107452380D01*
X106785714Y-107500000D01*
X106833333Y-107547619D01*
X107738095Y-107452380D02*
X107261904Y-107452380D01*
X107214285Y-107928571D01*
X107261904Y-107880952D01*
X107357142Y-107833333D01*
X107595238Y-107833333D01*
X107690476Y-107880952D01*
X107738095Y-107928571D01*
X107785714Y-108023809D01*
X107785714Y-108261904D01*
X107738095Y-108357142D01*
X107690476Y-108404761D01*
X107595238Y-108452380D01*
X107357142Y-108452380D01*
X107261904Y-108404761D01*
X107214285Y-108357142D01*
X105833333Y-111357142D02*
X105785714Y-111404761D01*
X105642857Y-111452380D01*
X105547619Y-111452380D01*
X105404761Y-111404761D01*
X105309523Y-111309523D01*
X105261904Y-111214285D01*
X105214285Y-111023809D01*
X105214285Y-110880952D01*
X105261904Y-110690476D01*
X105309523Y-110595238D01*
X105404761Y-110500000D01*
X105547619Y-110452380D01*
X105642857Y-110452380D01*
X105785714Y-110500000D01*
X105833333Y-110547619D01*
X106690476Y-110785714D02*
X106690476Y-111452380D01*
X106452380Y-110404761D02*
X106214285Y-111119047D01*
X106833333Y-111119047D01*
X106233333Y-91557142D02*
X106185714Y-91604761D01*
X106042857Y-91652380D01*
X105947619Y-91652380D01*
X105804761Y-91604761D01*
X105709523Y-91509523D01*
X105661904Y-91414285D01*
X105614285Y-91223809D01*
X105614285Y-91080952D01*
X105661904Y-90890476D01*
X105709523Y-90795238D01*
X105804761Y-90700000D01*
X105947619Y-90652380D01*
X106042857Y-90652380D01*
X106185714Y-90700000D01*
X106233333Y-90747619D01*
X106566666Y-90652380D02*
X107185714Y-90652380D01*
X106852380Y-91033333D01*
X106995238Y-91033333D01*
X107090476Y-91080952D01*
X107138095Y-91128571D01*
X107185714Y-91223809D01*
X107185714Y-91461904D01*
X107138095Y-91557142D01*
X107090476Y-91604761D01*
X106995238Y-91652380D01*
X106709523Y-91652380D01*
X106614285Y-91604761D01*
X106566666Y-91557142D01*
X99833333Y-83957142D02*
X99785714Y-84004761D01*
X99642857Y-84052380D01*
X99547619Y-84052380D01*
X99404761Y-84004761D01*
X99309523Y-83909523D01*
X99261904Y-83814285D01*
X99214285Y-83623809D01*
X99214285Y-83480952D01*
X99261904Y-83290476D01*
X99309523Y-83195238D01*
X99404761Y-83100000D01*
X99547619Y-83052380D01*
X99642857Y-83052380D01*
X99785714Y-83100000D01*
X99833333Y-83147619D01*
X100214285Y-83147619D02*
X100261904Y-83100000D01*
X100357142Y-83052380D01*
X100595238Y-83052380D01*
X100690476Y-83100000D01*
X100738095Y-83147619D01*
X100785714Y-83242857D01*
X100785714Y-83338095D01*
X100738095Y-83480952D01*
X100166666Y-84052380D01*
X100785714Y-84052380D01*
X99833333Y-77757142D02*
X99785714Y-77804761D01*
X99642857Y-77852380D01*
X99547619Y-77852380D01*
X99404761Y-77804761D01*
X99309523Y-77709523D01*
X99261904Y-77614285D01*
X99214285Y-77423809D01*
X99214285Y-77280952D01*
X99261904Y-77090476D01*
X99309523Y-76995238D01*
X99404761Y-76900000D01*
X99547619Y-76852380D01*
X99642857Y-76852380D01*
X99785714Y-76900000D01*
X99833333Y-76947619D01*
X100785714Y-77852380D02*
X100214285Y-77852380D01*
X100500000Y-77852380D02*
X100500000Y-76852380D01*
X100404761Y-76995238D01*
X100309523Y-77090476D01*
X100214285Y-77138095D01*
M02*
