G04 #@! TF.GenerationSoftware,KiCad,Pcbnew,6.0.0-unknown-ea0edab~86~ubuntu18.04.1*
G04 #@! TF.CreationDate,2019-07-07T14:50:01+02:00*
G04 #@! TF.ProjectId,interface,696e7465-7266-4616-9365-2e6b69636164,rev?*
G04 #@! TF.SameCoordinates,Original*
G04 #@! TF.FileFunction,Copper,L2,Bot*
G04 #@! TF.FilePolarity,Positive*
%FSLAX46Y46*%
G04 Gerber Fmt 4.6, Leading zero omitted, Abs format (unit mm)*
G04 Created by KiCad (PCBNEW 6.0.0-unknown-ea0edab~86~ubuntu18.04.1) date 2019-07-07 14:50:01*
%MOMM*%
%LPD*%
G04 APERTURE LIST*
%ADD10O,1.700000X1.700000*%
%ADD11R,1.700000X1.700000*%
%ADD12C,2.000000*%
%ADD13O,2.000000X1.400000*%
%ADD14R,2.000000X1.400000*%
%ADD15O,1.200000X1.900000*%
%ADD16C,1.450000*%
%ADD17C,0.800000*%
%ADD18C,0.250000*%
%ADD19C,0.254000*%
G04 APERTURE END LIST*
D10*
X125000000Y-110620000D03*
X125000000Y-108080000D03*
X125000000Y-105540000D03*
D11*
X125000000Y-103000000D03*
D12*
X107000000Y-70000000D03*
X111000000Y-70000000D03*
X118000000Y-81000000D03*
X118000000Y-75000000D03*
D13*
X87000000Y-99000000D03*
X90000000Y-99000000D03*
D14*
X94000000Y-99000000D03*
D13*
X95500000Y-94500000D03*
X87000000Y-93500000D03*
X87000000Y-81000000D03*
X90000000Y-81000000D03*
D14*
X94000000Y-81000000D03*
D13*
X95500000Y-76500000D03*
X87000000Y-75500000D03*
D15*
X106500000Y-117537500D03*
X99500000Y-117537500D03*
D16*
X105500000Y-114837500D03*
X100500000Y-114837500D03*
D10*
X125000000Y-97620000D03*
X125000000Y-95080000D03*
X125000000Y-92540000D03*
D11*
X125000000Y-90000000D03*
D10*
X125000000Y-84160000D03*
X125000000Y-81620000D03*
X125000000Y-79080000D03*
X125000000Y-76540000D03*
D11*
X125000000Y-74000000D03*
D17*
X111800000Y-77600000D03*
X111800000Y-81000000D03*
X106400000Y-108000000D03*
D18*
X100500000Y-117087500D02*
X105500000Y-117087500D01*
X100500000Y-114537500D02*
X100500000Y-117087500D01*
X100350000Y-117237500D02*
X99500000Y-117237500D01*
X100500000Y-117087500D02*
X100350000Y-117237500D01*
X105500000Y-114537500D02*
X105500000Y-117087500D01*
X105500000Y-117087500D02*
X105650000Y-117237500D01*
X105650000Y-117237500D02*
X106500000Y-117237500D01*
D19*
G36*
X124257269Y-65673815D02*
G01*
X124242445Y-65682687D01*
X124006428Y-65846723D01*
X123992946Y-65857525D01*
X123781375Y-66052074D01*
X123769483Y-66064605D01*
X123586273Y-66286068D01*
X123576191Y-66300098D01*
X123424733Y-66544376D01*
X123416650Y-66559643D01*
X123299744Y-66822217D01*
X123293807Y-66838441D01*
X123213619Y-67114451D01*
X123209938Y-67131330D01*
X123167950Y-67415669D01*
X123166595Y-67432892D01*
X123164899Y-67594841D01*
X123163586Y-67720298D01*
X123164580Y-67737545D01*
X123200603Y-68022701D01*
X123203929Y-68039654D01*
X123278320Y-68317283D01*
X123283916Y-68333627D01*
X123395296Y-68598591D01*
X123403059Y-68614025D01*
X123549369Y-68861422D01*
X123559154Y-68875660D01*
X123737686Y-69100911D01*
X123749313Y-69113689D01*
X123956763Y-69312626D01*
X123970016Y-69323707D01*
X124202546Y-69492650D01*
X124217181Y-69501830D01*
X124470487Y-69637652D01*
X124486233Y-69644762D01*
X124755629Y-69744949D01*
X124772193Y-69749855D01*
X125052693Y-69812554D01*
X125069770Y-69815168D01*
X125356185Y-69839219D01*
X125373458Y-69839490D01*
X125660486Y-69824448D01*
X125677638Y-69822372D01*
X125959970Y-69768514D01*
X125976680Y-69764131D01*
X126249089Y-69672455D01*
X126265050Y-69665843D01*
X126522498Y-69538045D01*
X126537413Y-69529329D01*
X126775135Y-69367774D01*
X126788731Y-69357114D01*
X127002327Y-69164791D01*
X127014349Y-69152385D01*
X127199868Y-68932852D01*
X127210095Y-68918929D01*
X127364104Y-68676251D01*
X127365001Y-68674599D01*
X127365000Y-116330091D01*
X127237320Y-116119267D01*
X127227386Y-116105133D01*
X127046505Y-115881764D01*
X127034745Y-115869109D01*
X126825223Y-115672355D01*
X126811855Y-115661413D01*
X126577569Y-115494914D01*
X126562839Y-115485887D01*
X126308125Y-115352726D01*
X126292306Y-115345782D01*
X126021875Y-115248421D01*
X126005260Y-115243688D01*
X125724119Y-115183929D01*
X125707015Y-115181495D01*
X125420364Y-115160445D01*
X125403089Y-115160355D01*
X125116234Y-115178402D01*
X125099105Y-115180657D01*
X124817353Y-115237469D01*
X124800690Y-115242027D01*
X124529255Y-115336550D01*
X124513364Y-115343328D01*
X124257269Y-115473815D01*
X124242445Y-115482687D01*
X124006428Y-115646723D01*
X123992946Y-115657525D01*
X123781375Y-115852074D01*
X123769483Y-115864605D01*
X123586273Y-116086068D01*
X123576191Y-116100098D01*
X123424733Y-116344376D01*
X123416650Y-116359643D01*
X123299744Y-116622217D01*
X123293807Y-116638441D01*
X123213619Y-116914451D01*
X123209938Y-116931330D01*
X123167950Y-117215669D01*
X123166595Y-117232892D01*
X123164899Y-117394841D01*
X123163586Y-117520298D01*
X123164580Y-117537545D01*
X123200603Y-117822701D01*
X123203929Y-117839654D01*
X123278320Y-118117283D01*
X123283916Y-118133627D01*
X123395296Y-118398591D01*
X123403059Y-118414025D01*
X123549369Y-118661422D01*
X123559154Y-118675660D01*
X123737686Y-118900911D01*
X123749313Y-118913689D01*
X123956763Y-119112626D01*
X123970016Y-119123707D01*
X124202546Y-119292650D01*
X124217181Y-119301830D01*
X124334992Y-119365000D01*
X85168197Y-119365000D01*
X85222498Y-119338045D01*
X85237413Y-119329329D01*
X85475135Y-119167774D01*
X85488731Y-119157114D01*
X85702327Y-118964791D01*
X85714349Y-118952385D01*
X85899868Y-118732852D01*
X85910095Y-118718929D01*
X86064104Y-118476251D01*
X86072348Y-118461068D01*
X86191996Y-118199733D01*
X86198103Y-118183573D01*
X86281177Y-117908418D01*
X86285033Y-117891578D01*
X86329996Y-117607694D01*
X86331553Y-117589157D01*
X86335025Y-117257619D01*
X86333857Y-117239053D01*
X86322035Y-117152746D01*
X98265000Y-117152746D01*
X98265000Y-117940313D01*
X98265574Y-117952375D01*
X98280616Y-118110032D01*
X98285178Y-118133721D01*
X98344695Y-118336597D01*
X98353654Y-118358996D01*
X98450461Y-118546959D01*
X98463494Y-118567260D01*
X98594096Y-118733524D01*
X98610732Y-118750994D01*
X98770419Y-118889563D01*
X98790059Y-118903572D01*
X98973067Y-119009445D01*
X98995002Y-119019487D01*
X99194729Y-119088844D01*
X99218166Y-119094558D01*
X99427404Y-119124896D01*
X99451500Y-119126074D01*
X99662700Y-119116299D01*
X99686583Y-119112900D01*
X99892124Y-119063364D01*
X99914934Y-119055510D01*
X100107400Y-118968001D01*
X100128313Y-118955976D01*
X100300761Y-118833651D01*
X100319023Y-118817887D01*
X100465227Y-118665160D01*
X100480179Y-118646228D01*
X100594865Y-118468610D01*
X100605967Y-118447192D01*
X100684998Y-118251092D01*
X100692890Y-118221844D01*
X100733686Y-117940478D01*
X100735000Y-117922254D01*
X100735000Y-117897192D01*
X100748325Y-117887511D01*
X100784364Y-117869148D01*
X100814161Y-117847500D01*
X105185839Y-117847500D01*
X105215636Y-117869148D01*
X105251675Y-117887511D01*
X105265000Y-117897192D01*
X105265000Y-117940314D01*
X105265574Y-117952376D01*
X105280616Y-118110033D01*
X105285178Y-118133722D01*
X105344696Y-118336598D01*
X105353655Y-118358997D01*
X105450462Y-118546959D01*
X105463495Y-118567260D01*
X105594097Y-118733524D01*
X105610733Y-118750994D01*
X105770420Y-118889563D01*
X105790060Y-118903572D01*
X105973068Y-119009445D01*
X105995003Y-119019487D01*
X106194730Y-119088844D01*
X106218167Y-119094558D01*
X106427405Y-119124896D01*
X106451501Y-119126074D01*
X106662701Y-119116299D01*
X106686584Y-119112900D01*
X106892125Y-119063364D01*
X106914935Y-119055510D01*
X107107401Y-118968001D01*
X107128314Y-118955975D01*
X107300761Y-118833650D01*
X107319023Y-118817887D01*
X107465227Y-118665160D01*
X107480179Y-118646228D01*
X107594865Y-118468610D01*
X107605967Y-118447192D01*
X107684998Y-118251091D01*
X107692890Y-118221843D01*
X107733686Y-117940477D01*
X107735000Y-117922253D01*
X107735000Y-117134686D01*
X107734426Y-117122624D01*
X107719384Y-116964967D01*
X107714822Y-116941278D01*
X107655305Y-116738402D01*
X107646346Y-116716003D01*
X107549539Y-116528041D01*
X107536506Y-116507740D01*
X107405904Y-116341476D01*
X107389268Y-116324006D01*
X107229581Y-116185437D01*
X107209941Y-116171428D01*
X107026932Y-116065555D01*
X107004997Y-116055513D01*
X106805270Y-115986156D01*
X106781833Y-115980442D01*
X106572595Y-115950104D01*
X106548499Y-115948926D01*
X106337299Y-115958701D01*
X106313416Y-115962100D01*
X106260000Y-115974973D01*
X106260000Y-115966481D01*
X106388468Y-115873144D01*
X106405482Y-115858301D01*
X106557823Y-115699442D01*
X106571941Y-115681821D01*
X106693742Y-115498495D01*
X106704516Y-115478652D01*
X106791928Y-115276655D01*
X106799018Y-115255217D01*
X106849277Y-115040933D01*
X106852588Y-115015258D01*
X106860038Y-114730775D01*
X106858075Y-114704960D01*
X106819099Y-114488340D01*
X106813141Y-114466561D01*
X106736420Y-114260266D01*
X106726699Y-114239887D01*
X106614660Y-114050438D01*
X106601484Y-114032101D01*
X106457666Y-113865487D01*
X106441452Y-113849775D01*
X106270403Y-113711262D01*
X106251662Y-113698668D01*
X106058788Y-113592634D01*
X106038112Y-113583558D01*
X105829508Y-113513356D01*
X105807554Y-113508085D01*
X105589816Y-113475932D01*
X105567274Y-113474633D01*
X105347284Y-113481546D01*
X105324868Y-113484258D01*
X105109578Y-113530019D01*
X105087997Y-113536659D01*
X104884214Y-113619822D01*
X104864150Y-113630177D01*
X104678314Y-113748112D01*
X104660401Y-113761858D01*
X104498386Y-113910838D01*
X104483190Y-113927538D01*
X104350118Y-114102854D01*
X104338119Y-114121981D01*
X104238196Y-114318090D01*
X104229774Y-114339040D01*
X104166159Y-114549746D01*
X104161581Y-114571856D01*
X104136283Y-114790496D01*
X104135692Y-114813067D01*
X104149512Y-115032732D01*
X104152927Y-115055052D01*
X104205428Y-115268798D01*
X104212742Y-115290160D01*
X104302265Y-115491231D01*
X104313246Y-115510959D01*
X104436960Y-115692999D01*
X104451261Y-115710472D01*
X104605256Y-115867727D01*
X104622425Y-115882391D01*
X104740001Y-115965948D01*
X104740001Y-116327500D01*
X101260000Y-116327500D01*
X101260000Y-115966481D01*
X101388468Y-115873144D01*
X101405482Y-115858301D01*
X101557823Y-115699442D01*
X101571941Y-115681821D01*
X101693742Y-115498495D01*
X101704516Y-115478652D01*
X101791928Y-115276655D01*
X101799018Y-115255217D01*
X101849277Y-115040933D01*
X101852588Y-115015258D01*
X101860038Y-114730775D01*
X101858075Y-114704960D01*
X101819099Y-114488340D01*
X101813141Y-114466561D01*
X101736420Y-114260266D01*
X101726699Y-114239887D01*
X101614660Y-114050438D01*
X101601484Y-114032101D01*
X101457666Y-113865487D01*
X101441452Y-113849775D01*
X101270403Y-113711262D01*
X101251662Y-113698668D01*
X101058788Y-113592634D01*
X101038112Y-113583558D01*
X100829508Y-113513356D01*
X100807554Y-113508085D01*
X100589816Y-113475932D01*
X100567274Y-113474633D01*
X100347284Y-113481546D01*
X100324868Y-113484258D01*
X100109578Y-113530019D01*
X100087997Y-113536659D01*
X99884214Y-113619822D01*
X99864150Y-113630177D01*
X99678314Y-113748112D01*
X99660401Y-113761858D01*
X99498386Y-113910838D01*
X99483190Y-113927538D01*
X99350118Y-114102854D01*
X99338119Y-114121981D01*
X99238196Y-114318090D01*
X99229774Y-114339040D01*
X99166159Y-114549746D01*
X99161581Y-114571856D01*
X99136283Y-114790496D01*
X99135692Y-114813067D01*
X99149512Y-115032732D01*
X99152927Y-115055052D01*
X99205428Y-115268798D01*
X99212742Y-115290160D01*
X99302265Y-115491231D01*
X99313246Y-115510959D01*
X99436960Y-115692999D01*
X99451261Y-115710472D01*
X99605256Y-115867727D01*
X99622425Y-115882391D01*
X99740001Y-115965948D01*
X99740001Y-115974377D01*
X99572596Y-115950104D01*
X99548500Y-115948926D01*
X99337300Y-115958701D01*
X99313417Y-115962100D01*
X99107876Y-116011636D01*
X99085066Y-116019490D01*
X98892600Y-116106999D01*
X98871687Y-116119025D01*
X98699240Y-116241350D01*
X98680978Y-116257113D01*
X98534774Y-116409840D01*
X98519822Y-116428772D01*
X98405136Y-116606390D01*
X98394034Y-116627807D01*
X98315002Y-116823907D01*
X98307110Y-116853156D01*
X98266314Y-117134522D01*
X98265000Y-117152746D01*
X86322035Y-117152746D01*
X86294849Y-116954290D01*
X86291346Y-116937373D01*
X86214053Y-116660538D01*
X86208286Y-116644253D01*
X86094137Y-116380470D01*
X86086213Y-116365118D01*
X85937320Y-116119267D01*
X85927386Y-116105133D01*
X85746505Y-115881764D01*
X85734745Y-115869109D01*
X85525223Y-115672355D01*
X85511855Y-115661413D01*
X85277569Y-115494914D01*
X85262839Y-115485887D01*
X85008125Y-115352726D01*
X84992306Y-115345782D01*
X84721875Y-115248421D01*
X84705260Y-115243688D01*
X84424119Y-115183929D01*
X84407015Y-115181495D01*
X84120364Y-115160445D01*
X84103089Y-115160355D01*
X83816234Y-115178402D01*
X83799105Y-115180657D01*
X83517353Y-115237469D01*
X83500690Y-115242027D01*
X83229255Y-115336550D01*
X83213364Y-115343328D01*
X82957269Y-115473815D01*
X82942445Y-115482687D01*
X82706428Y-115646723D01*
X82692946Y-115657525D01*
X82481375Y-115852074D01*
X82469483Y-115864605D01*
X82286273Y-116086068D01*
X82276191Y-116100098D01*
X82135000Y-116327817D01*
X82135000Y-110900079D01*
X123541401Y-110900079D01*
X123570282Y-111037725D01*
X123576453Y-111058295D01*
X123661104Y-111272646D01*
X123670652Y-111291881D01*
X123790209Y-111488905D01*
X123802862Y-111506257D01*
X123953906Y-111680320D01*
X123969302Y-111695292D01*
X124147515Y-111841417D01*
X124165213Y-111853580D01*
X124365498Y-111967589D01*
X124384993Y-111976597D01*
X124601624Y-112055230D01*
X124628269Y-112061750D01*
X124729313Y-112075143D01*
X124800028Y-112064179D01*
X124853589Y-112016724D01*
X124873000Y-111949244D01*
X124873000Y-110874000D01*
X125127000Y-110874000D01*
X125127000Y-111957100D01*
X125147161Y-112025761D01*
X125201242Y-112072623D01*
X125285905Y-112080027D01*
X125484610Y-112028454D01*
X125504866Y-112021321D01*
X125714992Y-111926666D01*
X125733757Y-111916222D01*
X125924930Y-111787517D01*
X125941666Y-111774060D01*
X126108420Y-111614984D01*
X126122650Y-111598901D01*
X126260218Y-111414003D01*
X126271534Y-111395751D01*
X126375982Y-111190317D01*
X126384062Y-111170420D01*
X126452403Y-110950326D01*
X126457014Y-110929353D01*
X126462139Y-110890688D01*
X126451175Y-110819973D01*
X126403720Y-110766411D01*
X126336240Y-110747000D01*
X125254000Y-110747000D01*
X125185339Y-110767161D01*
X125138477Y-110821242D01*
X125127000Y-110874000D01*
X124873000Y-110874000D01*
X124852839Y-110805339D01*
X124798758Y-110758477D01*
X124746000Y-110747000D01*
X123665694Y-110747000D01*
X123597033Y-110767161D01*
X123550171Y-110821242D01*
X123541401Y-110900079D01*
X82135000Y-110900079D01*
X82135000Y-102150000D01*
X123507163Y-102150000D01*
X123507163Y-103850000D01*
X123511490Y-103882870D01*
X123580599Y-104140789D01*
X123605984Y-104189553D01*
X123721138Y-104326788D01*
X123754926Y-104355139D01*
X123910073Y-104444713D01*
X123951520Y-104459799D01*
X123976325Y-104464173D01*
X123891580Y-104545016D01*
X123877350Y-104561099D01*
X123739782Y-104745997D01*
X123728466Y-104764249D01*
X123624018Y-104969683D01*
X123615938Y-104989580D01*
X123547597Y-105209674D01*
X123542986Y-105230648D01*
X123512705Y-105459111D01*
X123511693Y-105480563D01*
X123520339Y-105710862D01*
X123522957Y-105732176D01*
X123570282Y-105957725D01*
X123576453Y-105978295D01*
X123661104Y-106192646D01*
X123670652Y-106211881D01*
X123790209Y-106408905D01*
X123802862Y-106426257D01*
X123953906Y-106600320D01*
X123969302Y-106615292D01*
X124147515Y-106761417D01*
X124165213Y-106773580D01*
X124228164Y-106809414D01*
X124075070Y-106912483D01*
X124058334Y-106925940D01*
X123891580Y-107085016D01*
X123877350Y-107101099D01*
X123739782Y-107285997D01*
X123728466Y-107304249D01*
X123624018Y-107509683D01*
X123615938Y-107529580D01*
X123547597Y-107749674D01*
X123542986Y-107770648D01*
X123512705Y-107999111D01*
X123511693Y-108020563D01*
X123520339Y-108250862D01*
X123522957Y-108272176D01*
X123570282Y-108497725D01*
X123576453Y-108518295D01*
X123661104Y-108732646D01*
X123670652Y-108751881D01*
X123790209Y-108948905D01*
X123802862Y-108966257D01*
X123953906Y-109140320D01*
X123969302Y-109155292D01*
X124147515Y-109301417D01*
X124165213Y-109313580D01*
X124228164Y-109349414D01*
X124075070Y-109452483D01*
X124058334Y-109465940D01*
X123891580Y-109625016D01*
X123877350Y-109641099D01*
X123739782Y-109825997D01*
X123728466Y-109844249D01*
X123624018Y-110049683D01*
X123615938Y-110069580D01*
X123547597Y-110289674D01*
X123542986Y-110310647D01*
X123537861Y-110349312D01*
X123548825Y-110420027D01*
X123596280Y-110473589D01*
X123663760Y-110493000D01*
X126334306Y-110493000D01*
X126402967Y-110472839D01*
X126449829Y-110418758D01*
X126458599Y-110339921D01*
X126429718Y-110202275D01*
X126423547Y-110181705D01*
X126338896Y-109967354D01*
X126329348Y-109948119D01*
X126209791Y-109751095D01*
X126197138Y-109733743D01*
X126046094Y-109559680D01*
X126030698Y-109544708D01*
X125852485Y-109398583D01*
X125834787Y-109386420D01*
X125771836Y-109350586D01*
X125924930Y-109247517D01*
X125941666Y-109234060D01*
X126108420Y-109074984D01*
X126122650Y-109058901D01*
X126260218Y-108874003D01*
X126271534Y-108855751D01*
X126375982Y-108650317D01*
X126384062Y-108630420D01*
X126452403Y-108410326D01*
X126457014Y-108389352D01*
X126487295Y-108160889D01*
X126488307Y-108139437D01*
X126479661Y-107909138D01*
X126477043Y-107887824D01*
X126429718Y-107662275D01*
X126423547Y-107641705D01*
X126338896Y-107427354D01*
X126329348Y-107408119D01*
X126209791Y-107211095D01*
X126197138Y-107193743D01*
X126046094Y-107019680D01*
X126030698Y-107004708D01*
X125852485Y-106858583D01*
X125834787Y-106846420D01*
X125771836Y-106810586D01*
X125924930Y-106707517D01*
X125941666Y-106694060D01*
X126108420Y-106534984D01*
X126122650Y-106518901D01*
X126260218Y-106334003D01*
X126271534Y-106315751D01*
X126375982Y-106110317D01*
X126384062Y-106090420D01*
X126452403Y-105870326D01*
X126457014Y-105849352D01*
X126487295Y-105620889D01*
X126488307Y-105599437D01*
X126479661Y-105369138D01*
X126477043Y-105347824D01*
X126429718Y-105122275D01*
X126423547Y-105101705D01*
X126338896Y-104887354D01*
X126329348Y-104868119D01*
X126209791Y-104671095D01*
X126197138Y-104653743D01*
X126046094Y-104479680D01*
X126030698Y-104464708D01*
X126016167Y-104452793D01*
X126140789Y-104419401D01*
X126189553Y-104394016D01*
X126326788Y-104278862D01*
X126355139Y-104245074D01*
X126444713Y-104089927D01*
X126459799Y-104048480D01*
X126490908Y-103872053D01*
X126492837Y-103850000D01*
X126492837Y-102150000D01*
X126488510Y-102117130D01*
X126419401Y-101859212D01*
X126394016Y-101810448D01*
X126278862Y-101673212D01*
X126245074Y-101644861D01*
X126089927Y-101555287D01*
X126048480Y-101540201D01*
X125872053Y-101509092D01*
X125850000Y-101507163D01*
X124150000Y-101507163D01*
X124117130Y-101511490D01*
X123859212Y-101580599D01*
X123810448Y-101605984D01*
X123673212Y-101721138D01*
X123644861Y-101754926D01*
X123555287Y-101910073D01*
X123540201Y-101951520D01*
X123509092Y-102127947D01*
X123507163Y-102150000D01*
X82135000Y-102150000D01*
X82135000Y-99030787D01*
X85360927Y-99030787D01*
X85361636Y-99053355D01*
X85387542Y-99267429D01*
X85392236Y-99289515D01*
X85455642Y-99495619D01*
X85464174Y-99516525D01*
X85563076Y-99708144D01*
X85575174Y-99727208D01*
X85706445Y-99898284D01*
X85721729Y-99914904D01*
X85881221Y-100060030D01*
X85899205Y-100073681D01*
X86081875Y-100188270D01*
X86101994Y-100198521D01*
X86302070Y-100278951D01*
X86330887Y-100286754D01*
X86648387Y-100333638D01*
X86666939Y-100335000D01*
X87354701Y-100335000D01*
X87365991Y-100334497D01*
X87526073Y-100320210D01*
X87548295Y-100316212D01*
X87756289Y-100259311D01*
X87777452Y-100251441D01*
X87972082Y-100158608D01*
X87991517Y-100147114D01*
X88166632Y-100021281D01*
X88183724Y-100006527D01*
X88333788Y-99851672D01*
X88347997Y-99834125D01*
X88468268Y-99655144D01*
X88479146Y-99635357D01*
X88500454Y-99586816D01*
X88563076Y-99708144D01*
X88575174Y-99727208D01*
X88706445Y-99898284D01*
X88721729Y-99914904D01*
X88881221Y-100060030D01*
X88899205Y-100073681D01*
X89081875Y-100188270D01*
X89101994Y-100198521D01*
X89302070Y-100278951D01*
X89330887Y-100286754D01*
X89648387Y-100333638D01*
X89666939Y-100335000D01*
X89746000Y-100335000D01*
X89814661Y-100314839D01*
X89861523Y-100260758D01*
X89873000Y-100208000D01*
X89873000Y-99254000D01*
X90127000Y-99254000D01*
X90127000Y-100208000D01*
X90147161Y-100276661D01*
X90201242Y-100323523D01*
X90254000Y-100335000D01*
X90354701Y-100335000D01*
X90365991Y-100334497D01*
X90526073Y-100320210D01*
X90548295Y-100316212D01*
X90756289Y-100259311D01*
X90777452Y-100251441D01*
X90972082Y-100158608D01*
X90991517Y-100147114D01*
X91166632Y-100021281D01*
X91183724Y-100006527D01*
X91333788Y-99851672D01*
X91347997Y-99834125D01*
X91468268Y-99655144D01*
X91479146Y-99635357D01*
X91565820Y-99437907D01*
X91573022Y-99416508D01*
X91604919Y-99283648D01*
X91601344Y-99212177D01*
X91559696Y-99153985D01*
X91481428Y-99127000D01*
X90254000Y-99127000D01*
X90185339Y-99147161D01*
X90138477Y-99201242D01*
X90127000Y-99254000D01*
X89873000Y-99254000D01*
X89873000Y-97792000D01*
X90127000Y-97792000D01*
X90127000Y-98746000D01*
X90147161Y-98814661D01*
X90201242Y-98861523D01*
X90254000Y-98873000D01*
X91485816Y-98873000D01*
X91554477Y-98852839D01*
X91601339Y-98798758D01*
X91607202Y-98708657D01*
X91544358Y-98504381D01*
X91535826Y-98483475D01*
X91441128Y-98300000D01*
X92357163Y-98300000D01*
X92357163Y-99700000D01*
X92361490Y-99732870D01*
X92430599Y-99990789D01*
X92455984Y-100039553D01*
X92571138Y-100176788D01*
X92604926Y-100205139D01*
X92760073Y-100294713D01*
X92801520Y-100309799D01*
X92977947Y-100340908D01*
X93000000Y-100342837D01*
X95000000Y-100342837D01*
X95032870Y-100338510D01*
X95290789Y-100269401D01*
X95339553Y-100244016D01*
X95476788Y-100128862D01*
X95505139Y-100095074D01*
X95594713Y-99939927D01*
X95609799Y-99898480D01*
X95640908Y-99722053D01*
X95642837Y-99700000D01*
X95642837Y-98300000D01*
X95638510Y-98267130D01*
X95569401Y-98009212D01*
X95544016Y-97960448D01*
X95509694Y-97919544D01*
X95591717Y-97900079D01*
X123541401Y-97900079D01*
X123570282Y-98037725D01*
X123576453Y-98058295D01*
X123661104Y-98272646D01*
X123670652Y-98291881D01*
X123790209Y-98488905D01*
X123802862Y-98506257D01*
X123953906Y-98680320D01*
X123969302Y-98695292D01*
X124147515Y-98841417D01*
X124165213Y-98853580D01*
X124365498Y-98967589D01*
X124384993Y-98976597D01*
X124601624Y-99055230D01*
X124628269Y-99061750D01*
X124729313Y-99075143D01*
X124800028Y-99064179D01*
X124853589Y-99016724D01*
X124873000Y-98949244D01*
X124873000Y-97874000D01*
X125127000Y-97874000D01*
X125127000Y-98957100D01*
X125147161Y-99025761D01*
X125201242Y-99072623D01*
X125285905Y-99080027D01*
X125484610Y-99028454D01*
X125504866Y-99021321D01*
X125714992Y-98926666D01*
X125733757Y-98916222D01*
X125924930Y-98787517D01*
X125941666Y-98774060D01*
X126108420Y-98614984D01*
X126122650Y-98598901D01*
X126260218Y-98414003D01*
X126271534Y-98395751D01*
X126375982Y-98190317D01*
X126384062Y-98170420D01*
X126452403Y-97950326D01*
X126457014Y-97929353D01*
X126462139Y-97890688D01*
X126451175Y-97819973D01*
X126403720Y-97766411D01*
X126336240Y-97747000D01*
X125254000Y-97747000D01*
X125185339Y-97767161D01*
X125138477Y-97821242D01*
X125127000Y-97874000D01*
X124873000Y-97874000D01*
X124852839Y-97805339D01*
X124798758Y-97758477D01*
X124746000Y-97747000D01*
X123665694Y-97747000D01*
X123597033Y-97767161D01*
X123550171Y-97821242D01*
X123541401Y-97900079D01*
X95591717Y-97900079D01*
X95688018Y-97877226D01*
X95710855Y-97869452D01*
X95903626Y-97782615D01*
X95924581Y-97770662D01*
X96097453Y-97648940D01*
X96115770Y-97633241D01*
X96262506Y-97481025D01*
X96277524Y-97462145D01*
X96392830Y-97284929D01*
X96404006Y-97263550D01*
X96483721Y-97067726D01*
X96490654Y-97044619D01*
X96531901Y-96837256D01*
X96534340Y-96812923D01*
X96535098Y-96595697D01*
X96532829Y-96571348D01*
X96493031Y-96363701D01*
X96486260Y-96340546D01*
X96407914Y-96144171D01*
X96396887Y-96122715D01*
X96282821Y-95944698D01*
X96267935Y-95925714D01*
X96139993Y-95791126D01*
X96256289Y-95759311D01*
X96277452Y-95751441D01*
X96472082Y-95658608D01*
X96491517Y-95647114D01*
X96666632Y-95521281D01*
X96683724Y-95506527D01*
X96833788Y-95351672D01*
X96847997Y-95334125D01*
X96968268Y-95155144D01*
X96979146Y-95135357D01*
X97065820Y-94937907D01*
X97073022Y-94916508D01*
X97123362Y-94706829D01*
X97126660Y-94684492D01*
X97139073Y-94469213D01*
X97138364Y-94446645D01*
X97112458Y-94232571D01*
X97107764Y-94210485D01*
X97044358Y-94004381D01*
X97035826Y-93983475D01*
X96936924Y-93791856D01*
X96924826Y-93772792D01*
X96793555Y-93601716D01*
X96778271Y-93585096D01*
X96618779Y-93439970D01*
X96600795Y-93426319D01*
X96418125Y-93311730D01*
X96398006Y-93301479D01*
X96197930Y-93221049D01*
X96169113Y-93213246D01*
X95851613Y-93166362D01*
X95833061Y-93165000D01*
X95145299Y-93165000D01*
X95134009Y-93165503D01*
X94973927Y-93179790D01*
X94951705Y-93183788D01*
X94743711Y-93240689D01*
X94722548Y-93248559D01*
X94527918Y-93341392D01*
X94508483Y-93352886D01*
X94333368Y-93478719D01*
X94316276Y-93493473D01*
X94166212Y-93648328D01*
X94152003Y-93665875D01*
X94031732Y-93844856D01*
X94020854Y-93864643D01*
X93934180Y-94062093D01*
X93926978Y-94083492D01*
X93876638Y-94293171D01*
X93873340Y-94315508D01*
X93860927Y-94530787D01*
X93861636Y-94553355D01*
X93887542Y-94767429D01*
X93892236Y-94789515D01*
X93955642Y-94995619D01*
X93964174Y-95016525D01*
X94063076Y-95208144D01*
X94075174Y-95227208D01*
X94206445Y-95398284D01*
X94221729Y-95414904D01*
X94381221Y-95560030D01*
X94399205Y-95573681D01*
X94581875Y-95688270D01*
X94583102Y-95688895D01*
X94573921Y-95695396D01*
X94413752Y-95833407D01*
X94397055Y-95850819D01*
X94265872Y-96016627D01*
X94252769Y-96036882D01*
X94155307Y-96224504D01*
X94146269Y-96246872D01*
X94086044Y-96449540D01*
X94081400Y-96473213D01*
X94060585Y-96683612D01*
X94060501Y-96707736D01*
X94079847Y-96918275D01*
X94084326Y-96941979D01*
X94143135Y-97145062D01*
X94152015Y-97167492D01*
X94248164Y-97355790D01*
X94261126Y-97376137D01*
X94391148Y-97542857D01*
X94407724Y-97560385D01*
X94518467Y-97657163D01*
X93000000Y-97657163D01*
X92967130Y-97661490D01*
X92709212Y-97730599D01*
X92660448Y-97755984D01*
X92523212Y-97871138D01*
X92494861Y-97904926D01*
X92405287Y-98060073D01*
X92390201Y-98101520D01*
X92359092Y-98277947D01*
X92357163Y-98300000D01*
X91441128Y-98300000D01*
X91436924Y-98291856D01*
X91424826Y-98272792D01*
X91293555Y-98101716D01*
X91278271Y-98085096D01*
X91118779Y-97939970D01*
X91100795Y-97926319D01*
X90918125Y-97811730D01*
X90898006Y-97801479D01*
X90697930Y-97721049D01*
X90669113Y-97713246D01*
X90351613Y-97666362D01*
X90333061Y-97665000D01*
X90254000Y-97665000D01*
X90185339Y-97685161D01*
X90138477Y-97739242D01*
X90127000Y-97792000D01*
X89873000Y-97792000D01*
X89852839Y-97723339D01*
X89798758Y-97676477D01*
X89746000Y-97665000D01*
X89645299Y-97665000D01*
X89634009Y-97665503D01*
X89473927Y-97679790D01*
X89451705Y-97683788D01*
X89243711Y-97740689D01*
X89222548Y-97748559D01*
X89027918Y-97841392D01*
X89008483Y-97852886D01*
X88833368Y-97978719D01*
X88816276Y-97993473D01*
X88666212Y-98148328D01*
X88652003Y-98165875D01*
X88531732Y-98344856D01*
X88520854Y-98364643D01*
X88499546Y-98413184D01*
X88436924Y-98291856D01*
X88424826Y-98272792D01*
X88293555Y-98101716D01*
X88278271Y-98085096D01*
X88118779Y-97939970D01*
X88100795Y-97926319D01*
X88085439Y-97916686D01*
X88223085Y-97937135D01*
X88247177Y-97938398D01*
X88458410Y-97929360D01*
X88482305Y-97926044D01*
X88688018Y-97877226D01*
X88710855Y-97869452D01*
X88903626Y-97782615D01*
X88924581Y-97770662D01*
X89097453Y-97648940D01*
X89115770Y-97633241D01*
X89262506Y-97481025D01*
X89277524Y-97462145D01*
X89392830Y-97284929D01*
X89404006Y-97263550D01*
X89483721Y-97067726D01*
X89490654Y-97044619D01*
X89531901Y-96837256D01*
X89534340Y-96812923D01*
X89535098Y-96595697D01*
X89532829Y-96571348D01*
X89493031Y-96363701D01*
X89486260Y-96340546D01*
X89407914Y-96144171D01*
X89396887Y-96122715D01*
X89282821Y-95944698D01*
X89267935Y-95925714D01*
X89122265Y-95772478D01*
X89104059Y-95756651D01*
X88932041Y-95633725D01*
X88911170Y-95621626D01*
X88719010Y-95533445D01*
X88696227Y-95525512D01*
X88490860Y-95475259D01*
X88466988Y-95471776D01*
X88255823Y-95461264D01*
X88231725Y-95462358D01*
X88022382Y-95491965D01*
X87998923Y-95497597D01*
X87798956Y-95566257D01*
X87776987Y-95576223D01*
X87593610Y-95681456D01*
X87573921Y-95695396D01*
X87413752Y-95833407D01*
X87397055Y-95850819D01*
X87265872Y-96016627D01*
X87252769Y-96036882D01*
X87155307Y-96224504D01*
X87146269Y-96246872D01*
X87086044Y-96449540D01*
X87081400Y-96473213D01*
X87060585Y-96683612D01*
X87060501Y-96707736D01*
X87079847Y-96918275D01*
X87084326Y-96941979D01*
X87143135Y-97145062D01*
X87152015Y-97167492D01*
X87248164Y-97355790D01*
X87261126Y-97376137D01*
X87391148Y-97542857D01*
X87407724Y-97560385D01*
X87565061Y-97697881D01*
X87351613Y-97666362D01*
X87333061Y-97665000D01*
X86645299Y-97665000D01*
X86634009Y-97665503D01*
X86473927Y-97679790D01*
X86451705Y-97683788D01*
X86243711Y-97740689D01*
X86222548Y-97748559D01*
X86027918Y-97841392D01*
X86008483Y-97852886D01*
X85833368Y-97978719D01*
X85816276Y-97993473D01*
X85666212Y-98148328D01*
X85652003Y-98165875D01*
X85531732Y-98344856D01*
X85520854Y-98364643D01*
X85434180Y-98562093D01*
X85426978Y-98583492D01*
X85376638Y-98793171D01*
X85373340Y-98815508D01*
X85360927Y-99030787D01*
X82135000Y-99030787D01*
X82135000Y-93530787D01*
X85360927Y-93530787D01*
X85361636Y-93553355D01*
X85387542Y-93767429D01*
X85392236Y-93789515D01*
X85455642Y-93995619D01*
X85464174Y-94016525D01*
X85563076Y-94208144D01*
X85575174Y-94227208D01*
X85706445Y-94398284D01*
X85721729Y-94414904D01*
X85881221Y-94560030D01*
X85899205Y-94573681D01*
X86081875Y-94688270D01*
X86101994Y-94698521D01*
X86302070Y-94778951D01*
X86330887Y-94786754D01*
X86648387Y-94833638D01*
X86666939Y-94835000D01*
X87354701Y-94835000D01*
X87365991Y-94834497D01*
X87526073Y-94820210D01*
X87548295Y-94816212D01*
X87756289Y-94759311D01*
X87777452Y-94751441D01*
X87972082Y-94658608D01*
X87991517Y-94647114D01*
X88166632Y-94521281D01*
X88183724Y-94506527D01*
X88333788Y-94351672D01*
X88347997Y-94334125D01*
X88468268Y-94155144D01*
X88479146Y-94135357D01*
X88565820Y-93937907D01*
X88573022Y-93916508D01*
X88623362Y-93706829D01*
X88626660Y-93684492D01*
X88639073Y-93469213D01*
X88638364Y-93446645D01*
X88612458Y-93232571D01*
X88607764Y-93210485D01*
X88544358Y-93004381D01*
X88535826Y-92983475D01*
X88436924Y-92791856D01*
X88424826Y-92772792D01*
X88293555Y-92601716D01*
X88278271Y-92585096D01*
X88118779Y-92439970D01*
X88100795Y-92426319D01*
X87918125Y-92311730D01*
X87898006Y-92301479D01*
X87697930Y-92221049D01*
X87669113Y-92213246D01*
X87351613Y-92166362D01*
X87333061Y-92165000D01*
X86645299Y-92165000D01*
X86634009Y-92165503D01*
X86473927Y-92179790D01*
X86451705Y-92183788D01*
X86243711Y-92240689D01*
X86222548Y-92248559D01*
X86027918Y-92341392D01*
X86008483Y-92352886D01*
X85833368Y-92478719D01*
X85816276Y-92493473D01*
X85666212Y-92648328D01*
X85652003Y-92665875D01*
X85531732Y-92844856D01*
X85520854Y-92864643D01*
X85434180Y-93062093D01*
X85426978Y-93083492D01*
X85376638Y-93293171D01*
X85373340Y-93315508D01*
X85360927Y-93530787D01*
X82135000Y-93530787D01*
X82135000Y-89150000D01*
X123507163Y-89150000D01*
X123507163Y-90850000D01*
X123511490Y-90882870D01*
X123580599Y-91140789D01*
X123605984Y-91189553D01*
X123721138Y-91326788D01*
X123754926Y-91355139D01*
X123910073Y-91444713D01*
X123951520Y-91459799D01*
X123976325Y-91464173D01*
X123891580Y-91545016D01*
X123877350Y-91561099D01*
X123739782Y-91745997D01*
X123728466Y-91764249D01*
X123624018Y-91969683D01*
X123615938Y-91989580D01*
X123547597Y-92209674D01*
X123542986Y-92230648D01*
X123512705Y-92459111D01*
X123511693Y-92480563D01*
X123520339Y-92710862D01*
X123522957Y-92732176D01*
X123570282Y-92957725D01*
X123576453Y-92978295D01*
X123661104Y-93192646D01*
X123670652Y-93211881D01*
X123790209Y-93408905D01*
X123802862Y-93426257D01*
X123953906Y-93600320D01*
X123969302Y-93615292D01*
X124147515Y-93761417D01*
X124165213Y-93773580D01*
X124228164Y-93809414D01*
X124075070Y-93912483D01*
X124058334Y-93925940D01*
X123891580Y-94085016D01*
X123877350Y-94101099D01*
X123739782Y-94285997D01*
X123728466Y-94304249D01*
X123624018Y-94509683D01*
X123615938Y-94529580D01*
X123547597Y-94749674D01*
X123542986Y-94770648D01*
X123512705Y-94999111D01*
X123511693Y-95020563D01*
X123520339Y-95250862D01*
X123522957Y-95272176D01*
X123570282Y-95497725D01*
X123576453Y-95518295D01*
X123661104Y-95732646D01*
X123670652Y-95751881D01*
X123790209Y-95948905D01*
X123802862Y-95966257D01*
X123953906Y-96140320D01*
X123969302Y-96155292D01*
X124147515Y-96301417D01*
X124165213Y-96313580D01*
X124228164Y-96349414D01*
X124075070Y-96452483D01*
X124058334Y-96465940D01*
X123891580Y-96625016D01*
X123877350Y-96641099D01*
X123739782Y-96825997D01*
X123728466Y-96844249D01*
X123624018Y-97049683D01*
X123615938Y-97069580D01*
X123547597Y-97289674D01*
X123542986Y-97310647D01*
X123537861Y-97349312D01*
X123548825Y-97420027D01*
X123596280Y-97473589D01*
X123663760Y-97493000D01*
X126334306Y-97493000D01*
X126402967Y-97472839D01*
X126449829Y-97418758D01*
X126458599Y-97339921D01*
X126429718Y-97202275D01*
X126423547Y-97181705D01*
X126338896Y-96967354D01*
X126329348Y-96948119D01*
X126209791Y-96751095D01*
X126197138Y-96733743D01*
X126046094Y-96559680D01*
X126030698Y-96544708D01*
X125852485Y-96398583D01*
X125834787Y-96386420D01*
X125771836Y-96350586D01*
X125924930Y-96247517D01*
X125941666Y-96234060D01*
X126108420Y-96074984D01*
X126122650Y-96058901D01*
X126260218Y-95874003D01*
X126271534Y-95855751D01*
X126375982Y-95650317D01*
X126384062Y-95630420D01*
X126452403Y-95410326D01*
X126457014Y-95389352D01*
X126487295Y-95160889D01*
X126488307Y-95139437D01*
X126479661Y-94909138D01*
X126477043Y-94887824D01*
X126429718Y-94662275D01*
X126423547Y-94641705D01*
X126338896Y-94427354D01*
X126329348Y-94408119D01*
X126209791Y-94211095D01*
X126197138Y-94193743D01*
X126046094Y-94019680D01*
X126030698Y-94004708D01*
X125852485Y-93858583D01*
X125834787Y-93846420D01*
X125771836Y-93810586D01*
X125924930Y-93707517D01*
X125941666Y-93694060D01*
X126108420Y-93534984D01*
X126122650Y-93518901D01*
X126260218Y-93334003D01*
X126271534Y-93315751D01*
X126375982Y-93110317D01*
X126384062Y-93090420D01*
X126452403Y-92870326D01*
X126457014Y-92849352D01*
X126487295Y-92620889D01*
X126488307Y-92599437D01*
X126479661Y-92369138D01*
X126477043Y-92347824D01*
X126429718Y-92122275D01*
X126423547Y-92101705D01*
X126338896Y-91887354D01*
X126329348Y-91868119D01*
X126209791Y-91671095D01*
X126197138Y-91653743D01*
X126046094Y-91479680D01*
X126030698Y-91464708D01*
X126016167Y-91452793D01*
X126140789Y-91419401D01*
X126189553Y-91394016D01*
X126326788Y-91278862D01*
X126355139Y-91245074D01*
X126444713Y-91089927D01*
X126459799Y-91048480D01*
X126490908Y-90872053D01*
X126492837Y-90850000D01*
X126492837Y-89150000D01*
X126488510Y-89117130D01*
X126419401Y-88859212D01*
X126394016Y-88810448D01*
X126278862Y-88673212D01*
X126245074Y-88644861D01*
X126089927Y-88555287D01*
X126048480Y-88540201D01*
X125872053Y-88509092D01*
X125850000Y-88507163D01*
X124150000Y-88507163D01*
X124117130Y-88511490D01*
X123859212Y-88580599D01*
X123810448Y-88605984D01*
X123673212Y-88721138D01*
X123644861Y-88754926D01*
X123555287Y-88910073D01*
X123540201Y-88951520D01*
X123509092Y-89127947D01*
X123507163Y-89150000D01*
X82135000Y-89150000D01*
X82135000Y-84440079D01*
X123541401Y-84440079D01*
X123570282Y-84577725D01*
X123576453Y-84598295D01*
X123661104Y-84812646D01*
X123670652Y-84831881D01*
X123790209Y-85028905D01*
X123802862Y-85046257D01*
X123953906Y-85220320D01*
X123969302Y-85235292D01*
X124147515Y-85381417D01*
X124165213Y-85393580D01*
X124365498Y-85507589D01*
X124384993Y-85516597D01*
X124601624Y-85595230D01*
X124628269Y-85601750D01*
X124729313Y-85615143D01*
X124800028Y-85604179D01*
X124853589Y-85556724D01*
X124873000Y-85489244D01*
X124873000Y-84414000D01*
X125127000Y-84414000D01*
X125127000Y-85497100D01*
X125147161Y-85565761D01*
X125201242Y-85612623D01*
X125285905Y-85620027D01*
X125484610Y-85568454D01*
X125504866Y-85561321D01*
X125714992Y-85466666D01*
X125733757Y-85456222D01*
X125924930Y-85327517D01*
X125941666Y-85314060D01*
X126108420Y-85154984D01*
X126122650Y-85138901D01*
X126260218Y-84954003D01*
X126271534Y-84935751D01*
X126375982Y-84730317D01*
X126384062Y-84710420D01*
X126452403Y-84490326D01*
X126457014Y-84469353D01*
X126462139Y-84430688D01*
X126451175Y-84359973D01*
X126403720Y-84306411D01*
X126336240Y-84287000D01*
X125254000Y-84287000D01*
X125185339Y-84307161D01*
X125138477Y-84361242D01*
X125127000Y-84414000D01*
X124873000Y-84414000D01*
X124852839Y-84345339D01*
X124798758Y-84298477D01*
X124746000Y-84287000D01*
X123665694Y-84287000D01*
X123597033Y-84307161D01*
X123550171Y-84361242D01*
X123541401Y-84440079D01*
X82135000Y-84440079D01*
X82135000Y-81030787D01*
X85360927Y-81030787D01*
X85361636Y-81053355D01*
X85387542Y-81267429D01*
X85392236Y-81289515D01*
X85455642Y-81495619D01*
X85464174Y-81516525D01*
X85563076Y-81708144D01*
X85575174Y-81727208D01*
X85706445Y-81898284D01*
X85721729Y-81914904D01*
X85881221Y-82060030D01*
X85899205Y-82073681D01*
X86081875Y-82188270D01*
X86101994Y-82198521D01*
X86302070Y-82278951D01*
X86330887Y-82286754D01*
X86648387Y-82333638D01*
X86666939Y-82335000D01*
X87354701Y-82335000D01*
X87365991Y-82334497D01*
X87526073Y-82320210D01*
X87548295Y-82316212D01*
X87756289Y-82259311D01*
X87777452Y-82251441D01*
X87972082Y-82158608D01*
X87991517Y-82147114D01*
X88166632Y-82021281D01*
X88183724Y-82006527D01*
X88333788Y-81851672D01*
X88347997Y-81834125D01*
X88468268Y-81655144D01*
X88479146Y-81635357D01*
X88500454Y-81586816D01*
X88563076Y-81708144D01*
X88575174Y-81727208D01*
X88706445Y-81898284D01*
X88721729Y-81914904D01*
X88881221Y-82060030D01*
X88899205Y-82073681D01*
X89081875Y-82188270D01*
X89101994Y-82198521D01*
X89302070Y-82278951D01*
X89330887Y-82286754D01*
X89648387Y-82333638D01*
X89666939Y-82335000D01*
X89746000Y-82335000D01*
X89814661Y-82314839D01*
X89861523Y-82260758D01*
X89873000Y-82208000D01*
X89873000Y-81254000D01*
X90127000Y-81254000D01*
X90127000Y-82208000D01*
X90147161Y-82276661D01*
X90201242Y-82323523D01*
X90254000Y-82335000D01*
X90354701Y-82335000D01*
X90365991Y-82334497D01*
X90526073Y-82320210D01*
X90548295Y-82316212D01*
X90756289Y-82259311D01*
X90777452Y-82251441D01*
X90972082Y-82158608D01*
X90991517Y-82147114D01*
X91166632Y-82021281D01*
X91183724Y-82006527D01*
X91333788Y-81851672D01*
X91347997Y-81834125D01*
X91468268Y-81655144D01*
X91479146Y-81635357D01*
X91565820Y-81437907D01*
X91573022Y-81416508D01*
X91604919Y-81283648D01*
X91601344Y-81212177D01*
X91559696Y-81153985D01*
X91481428Y-81127000D01*
X90254000Y-81127000D01*
X90185339Y-81147161D01*
X90138477Y-81201242D01*
X90127000Y-81254000D01*
X89873000Y-81254000D01*
X89873000Y-79792000D01*
X90127000Y-79792000D01*
X90127000Y-80746000D01*
X90147161Y-80814661D01*
X90201242Y-80861523D01*
X90254000Y-80873000D01*
X91485816Y-80873000D01*
X91554477Y-80852839D01*
X91601339Y-80798758D01*
X91607202Y-80708657D01*
X91544358Y-80504381D01*
X91535826Y-80483475D01*
X91441128Y-80300000D01*
X92357163Y-80300000D01*
X92357163Y-81700000D01*
X92361490Y-81732870D01*
X92430599Y-81990789D01*
X92455984Y-82039553D01*
X92571138Y-82176788D01*
X92604926Y-82205139D01*
X92760073Y-82294713D01*
X92801520Y-82309799D01*
X92977947Y-82340908D01*
X93000000Y-82342837D01*
X95000000Y-82342837D01*
X95032870Y-82338510D01*
X95290789Y-82269401D01*
X95339553Y-82244016D01*
X95476788Y-82128862D01*
X95505139Y-82095074D01*
X95594713Y-81939927D01*
X95609799Y-81898480D01*
X95640908Y-81722053D01*
X95642837Y-81700000D01*
X95642837Y-80993016D01*
X116360487Y-80993016D01*
X116377415Y-81235092D01*
X116380461Y-81255234D01*
X116435874Y-81491489D01*
X116442102Y-81510884D01*
X116534575Y-81735240D01*
X116543823Y-81753390D01*
X116670977Y-81960076D01*
X116683007Y-81976514D01*
X116841570Y-82160212D01*
X116856075Y-82174516D01*
X117041969Y-82330499D01*
X117058573Y-82342299D01*
X117267014Y-82466555D01*
X117285292Y-82475549D01*
X117510917Y-82564880D01*
X117530398Y-82570835D01*
X117767404Y-82622944D01*
X117787586Y-82625709D01*
X118029875Y-82639255D01*
X118050239Y-82638757D01*
X118291576Y-82613392D01*
X118311599Y-82609645D01*
X118545776Y-82546020D01*
X118564942Y-82539120D01*
X118785935Y-82438874D01*
X118803752Y-82428998D01*
X119005874Y-82294708D01*
X119021882Y-82282111D01*
X119199934Y-82117233D01*
X119213722Y-82102238D01*
X119363123Y-81911014D01*
X119374337Y-81894008D01*
X119491242Y-81681358D01*
X119499592Y-81662777D01*
X119580995Y-81434171D01*
X119586268Y-81414495D01*
X119630074Y-81175815D01*
X119632153Y-81154219D01*
X119635025Y-80879997D01*
X119633398Y-80858362D01*
X119594600Y-80618817D01*
X119589741Y-80599034D01*
X119513143Y-80368773D01*
X119505184Y-80350023D01*
X119392758Y-80134971D01*
X119381903Y-80117733D01*
X119236540Y-79923422D01*
X119223068Y-79908142D01*
X119048508Y-79739572D01*
X119032768Y-79726642D01*
X118833502Y-79588148D01*
X118815896Y-79577901D01*
X118597052Y-79473049D01*
X118578034Y-79465749D01*
X118345240Y-79397234D01*
X118325301Y-79393068D01*
X118084548Y-79362653D01*
X118064198Y-79361729D01*
X117821679Y-79370198D01*
X117801443Y-79372540D01*
X117563398Y-79419675D01*
X117543798Y-79425221D01*
X117316351Y-79509807D01*
X117297888Y-79518416D01*
X117086890Y-79638280D01*
X117070042Y-79649730D01*
X116880923Y-79801786D01*
X116866123Y-79815782D01*
X116703747Y-79996118D01*
X116691374Y-80012301D01*
X116559920Y-80216279D01*
X116550294Y-80234231D01*
X116453142Y-80456601D01*
X116446510Y-80475862D01*
X116386161Y-80710905D01*
X116382694Y-80730979D01*
X116360701Y-80972647D01*
X116360487Y-80993016D01*
X95642837Y-80993016D01*
X95642837Y-80300000D01*
X95638510Y-80267130D01*
X95569401Y-80009212D01*
X95544016Y-79960448D01*
X95509694Y-79919544D01*
X95688018Y-79877226D01*
X95710855Y-79869452D01*
X95903626Y-79782615D01*
X95924581Y-79770662D01*
X96097453Y-79648940D01*
X96115770Y-79633241D01*
X96262506Y-79481025D01*
X96277524Y-79462145D01*
X96392830Y-79284929D01*
X96404006Y-79263550D01*
X96483721Y-79067726D01*
X96490654Y-79044619D01*
X96531901Y-78837256D01*
X96534340Y-78812923D01*
X96535098Y-78595697D01*
X96532829Y-78571348D01*
X96493031Y-78363701D01*
X96486260Y-78340546D01*
X96407914Y-78144171D01*
X96396887Y-78122715D01*
X96282821Y-77944698D01*
X96267935Y-77925714D01*
X96139993Y-77791126D01*
X96256289Y-77759311D01*
X96277452Y-77751441D01*
X96472082Y-77658608D01*
X96491517Y-77647114D01*
X96666632Y-77521281D01*
X96683724Y-77506527D01*
X96833788Y-77351672D01*
X96847997Y-77334125D01*
X96968268Y-77155144D01*
X96979146Y-77135357D01*
X97065820Y-76937907D01*
X97073022Y-76916508D01*
X97123362Y-76706829D01*
X97126660Y-76684492D01*
X97139073Y-76469213D01*
X97138364Y-76446645D01*
X97112458Y-76232571D01*
X97107764Y-76210485D01*
X97044358Y-76004381D01*
X97035826Y-75983475D01*
X96936924Y-75791856D01*
X96924826Y-75772792D01*
X96793555Y-75601716D01*
X96778271Y-75585096D01*
X96618779Y-75439970D01*
X96600795Y-75426319D01*
X96418125Y-75311730D01*
X96398006Y-75301479D01*
X96197930Y-75221049D01*
X96169113Y-75213246D01*
X95851613Y-75166362D01*
X95833061Y-75165000D01*
X95145299Y-75165000D01*
X95134009Y-75165503D01*
X94973927Y-75179790D01*
X94951705Y-75183788D01*
X94743711Y-75240689D01*
X94722548Y-75248559D01*
X94527918Y-75341392D01*
X94508483Y-75352886D01*
X94333368Y-75478719D01*
X94316276Y-75493473D01*
X94166212Y-75648328D01*
X94152003Y-75665875D01*
X94031732Y-75844856D01*
X94020854Y-75864643D01*
X93934180Y-76062093D01*
X93926978Y-76083492D01*
X93876638Y-76293171D01*
X93873340Y-76315508D01*
X93860927Y-76530787D01*
X93861636Y-76553355D01*
X93887542Y-76767429D01*
X93892236Y-76789515D01*
X93955642Y-76995619D01*
X93964174Y-77016525D01*
X94063076Y-77208144D01*
X94075174Y-77227208D01*
X94206445Y-77398284D01*
X94221729Y-77414904D01*
X94381221Y-77560030D01*
X94399205Y-77573681D01*
X94581875Y-77688270D01*
X94583102Y-77688895D01*
X94573921Y-77695396D01*
X94413752Y-77833407D01*
X94397055Y-77850819D01*
X94265872Y-78016627D01*
X94252769Y-78036882D01*
X94155307Y-78224504D01*
X94146269Y-78246872D01*
X94086044Y-78449540D01*
X94081400Y-78473213D01*
X94060585Y-78683612D01*
X94060501Y-78707736D01*
X94079847Y-78918275D01*
X94084326Y-78941979D01*
X94143135Y-79145062D01*
X94152015Y-79167492D01*
X94248164Y-79355790D01*
X94261126Y-79376137D01*
X94391148Y-79542857D01*
X94407724Y-79560385D01*
X94518467Y-79657163D01*
X93000000Y-79657163D01*
X92967130Y-79661490D01*
X92709212Y-79730599D01*
X92660448Y-79755984D01*
X92523212Y-79871138D01*
X92494861Y-79904926D01*
X92405287Y-80060073D01*
X92390201Y-80101520D01*
X92359092Y-80277947D01*
X92357163Y-80300000D01*
X91441128Y-80300000D01*
X91436924Y-80291856D01*
X91424826Y-80272792D01*
X91293555Y-80101716D01*
X91278271Y-80085096D01*
X91118779Y-79939970D01*
X91100795Y-79926319D01*
X90918125Y-79811730D01*
X90898006Y-79801479D01*
X90697930Y-79721049D01*
X90669113Y-79713246D01*
X90351613Y-79666362D01*
X90333061Y-79665000D01*
X90254000Y-79665000D01*
X90185339Y-79685161D01*
X90138477Y-79739242D01*
X90127000Y-79792000D01*
X89873000Y-79792000D01*
X89852839Y-79723339D01*
X89798758Y-79676477D01*
X89746000Y-79665000D01*
X89645299Y-79665000D01*
X89634009Y-79665503D01*
X89473927Y-79679790D01*
X89451705Y-79683788D01*
X89243711Y-79740689D01*
X89222548Y-79748559D01*
X89027918Y-79841392D01*
X89008483Y-79852886D01*
X88833368Y-79978719D01*
X88816276Y-79993473D01*
X88666212Y-80148328D01*
X88652003Y-80165875D01*
X88531732Y-80344856D01*
X88520854Y-80364643D01*
X88499546Y-80413184D01*
X88436924Y-80291856D01*
X88424826Y-80272792D01*
X88293555Y-80101716D01*
X88278271Y-80085096D01*
X88118779Y-79939970D01*
X88100795Y-79926319D01*
X88085439Y-79916686D01*
X88223085Y-79937135D01*
X88247177Y-79938398D01*
X88458410Y-79929360D01*
X88482305Y-79926044D01*
X88688018Y-79877226D01*
X88710855Y-79869452D01*
X88903626Y-79782615D01*
X88924581Y-79770662D01*
X89097453Y-79648940D01*
X89115770Y-79633241D01*
X89262506Y-79481025D01*
X89277524Y-79462145D01*
X89392830Y-79284929D01*
X89404006Y-79263550D01*
X89483721Y-79067726D01*
X89490654Y-79044619D01*
X89531901Y-78837256D01*
X89534340Y-78812923D01*
X89535098Y-78595697D01*
X89532829Y-78571348D01*
X89493031Y-78363701D01*
X89486260Y-78340546D01*
X89407914Y-78144171D01*
X89396887Y-78122715D01*
X89282821Y-77944698D01*
X89267935Y-77925714D01*
X89122265Y-77772478D01*
X89104059Y-77756651D01*
X88932041Y-77633725D01*
X88911170Y-77621626D01*
X88719010Y-77533445D01*
X88696227Y-77525512D01*
X88490860Y-77475259D01*
X88466988Y-77471776D01*
X88255823Y-77461264D01*
X88231725Y-77462358D01*
X88022382Y-77491965D01*
X87998923Y-77497597D01*
X87798956Y-77566257D01*
X87776987Y-77576223D01*
X87593610Y-77681456D01*
X87573921Y-77695396D01*
X87413752Y-77833407D01*
X87397055Y-77850819D01*
X87265872Y-78016627D01*
X87252769Y-78036882D01*
X87155307Y-78224504D01*
X87146269Y-78246872D01*
X87086044Y-78449540D01*
X87081400Y-78473213D01*
X87060585Y-78683612D01*
X87060501Y-78707736D01*
X87079847Y-78918275D01*
X87084326Y-78941979D01*
X87143135Y-79145062D01*
X87152015Y-79167492D01*
X87248164Y-79355790D01*
X87261126Y-79376137D01*
X87391148Y-79542857D01*
X87407724Y-79560385D01*
X87565061Y-79697881D01*
X87351613Y-79666362D01*
X87333061Y-79665000D01*
X86645299Y-79665000D01*
X86634009Y-79665503D01*
X86473927Y-79679790D01*
X86451705Y-79683788D01*
X86243711Y-79740689D01*
X86222548Y-79748559D01*
X86027918Y-79841392D01*
X86008483Y-79852886D01*
X85833368Y-79978719D01*
X85816276Y-79993473D01*
X85666212Y-80148328D01*
X85652003Y-80165875D01*
X85531732Y-80344856D01*
X85520854Y-80364643D01*
X85434180Y-80562093D01*
X85426978Y-80583492D01*
X85376638Y-80793171D01*
X85373340Y-80815508D01*
X85360927Y-81030787D01*
X82135000Y-81030787D01*
X82135000Y-75530787D01*
X85360927Y-75530787D01*
X85361636Y-75553355D01*
X85387542Y-75767429D01*
X85392236Y-75789515D01*
X85455642Y-75995619D01*
X85464174Y-76016525D01*
X85563076Y-76208144D01*
X85575174Y-76227208D01*
X85706445Y-76398284D01*
X85721729Y-76414904D01*
X85881221Y-76560030D01*
X85899205Y-76573681D01*
X86081875Y-76688270D01*
X86101994Y-76698521D01*
X86302070Y-76778951D01*
X86330887Y-76786754D01*
X86648387Y-76833638D01*
X86666939Y-76835000D01*
X87354701Y-76835000D01*
X87365991Y-76834497D01*
X87526073Y-76820210D01*
X87548295Y-76816212D01*
X87756289Y-76759311D01*
X87777452Y-76751441D01*
X87972082Y-76658608D01*
X87991517Y-76647114D01*
X88166632Y-76521281D01*
X88183724Y-76506527D01*
X88333788Y-76351672D01*
X88347997Y-76334125D01*
X88468268Y-76155144D01*
X88479146Y-76135357D01*
X88565820Y-75937907D01*
X88573022Y-75916508D01*
X88623362Y-75706829D01*
X88626660Y-75684492D01*
X88639073Y-75469213D01*
X88638364Y-75446645D01*
X88612458Y-75232571D01*
X88607764Y-75210485D01*
X88544358Y-75004381D01*
X88539720Y-74993016D01*
X116360487Y-74993016D01*
X116377415Y-75235092D01*
X116380461Y-75255234D01*
X116435874Y-75491489D01*
X116442102Y-75510884D01*
X116534575Y-75735240D01*
X116543823Y-75753390D01*
X116670977Y-75960076D01*
X116683007Y-75976514D01*
X116841570Y-76160212D01*
X116856075Y-76174516D01*
X117041969Y-76330499D01*
X117058573Y-76342299D01*
X117267014Y-76466555D01*
X117285292Y-76475549D01*
X117510917Y-76564880D01*
X117530398Y-76570835D01*
X117767404Y-76622944D01*
X117787586Y-76625709D01*
X118029875Y-76639255D01*
X118050239Y-76638757D01*
X118291576Y-76613392D01*
X118311599Y-76609645D01*
X118545776Y-76546020D01*
X118564942Y-76539120D01*
X118785935Y-76438874D01*
X118803752Y-76428998D01*
X119005874Y-76294708D01*
X119021882Y-76282111D01*
X119199934Y-76117233D01*
X119213722Y-76102238D01*
X119363123Y-75911014D01*
X119374337Y-75894008D01*
X119491242Y-75681358D01*
X119499592Y-75662777D01*
X119580995Y-75434171D01*
X119586268Y-75414495D01*
X119630074Y-75175815D01*
X119632153Y-75154219D01*
X119635025Y-74879997D01*
X119633398Y-74858362D01*
X119594600Y-74618817D01*
X119589741Y-74599034D01*
X119513143Y-74368773D01*
X119505184Y-74350023D01*
X119392758Y-74134971D01*
X119381903Y-74117733D01*
X119236540Y-73923422D01*
X119223068Y-73908142D01*
X119048508Y-73739572D01*
X119032768Y-73726642D01*
X118833502Y-73588148D01*
X118815896Y-73577901D01*
X118597052Y-73473049D01*
X118578034Y-73465749D01*
X118345240Y-73397234D01*
X118325301Y-73393068D01*
X118084548Y-73362653D01*
X118064198Y-73361729D01*
X117821679Y-73370198D01*
X117801443Y-73372540D01*
X117563398Y-73419675D01*
X117543798Y-73425221D01*
X117316351Y-73509807D01*
X117297888Y-73518416D01*
X117086890Y-73638280D01*
X117070042Y-73649730D01*
X116880923Y-73801786D01*
X116866123Y-73815782D01*
X116703747Y-73996118D01*
X116691374Y-74012301D01*
X116559920Y-74216279D01*
X116550294Y-74234231D01*
X116453142Y-74456601D01*
X116446510Y-74475862D01*
X116386161Y-74710905D01*
X116382694Y-74730979D01*
X116360701Y-74972647D01*
X116360487Y-74993016D01*
X88539720Y-74993016D01*
X88535826Y-74983475D01*
X88436924Y-74791856D01*
X88424826Y-74772792D01*
X88293555Y-74601716D01*
X88278271Y-74585096D01*
X88118779Y-74439970D01*
X88100795Y-74426319D01*
X87918125Y-74311730D01*
X87898006Y-74301479D01*
X87697930Y-74221049D01*
X87669113Y-74213246D01*
X87351613Y-74166362D01*
X87333061Y-74165000D01*
X86645299Y-74165000D01*
X86634009Y-74165503D01*
X86473927Y-74179790D01*
X86451705Y-74183788D01*
X86243711Y-74240689D01*
X86222548Y-74248559D01*
X86027918Y-74341392D01*
X86008483Y-74352886D01*
X85833368Y-74478719D01*
X85816276Y-74493473D01*
X85666212Y-74648328D01*
X85652003Y-74665875D01*
X85531732Y-74844856D01*
X85520854Y-74864643D01*
X85434180Y-75062093D01*
X85426978Y-75083492D01*
X85376638Y-75293171D01*
X85373340Y-75315508D01*
X85360927Y-75530787D01*
X82135000Y-75530787D01*
X82135000Y-73150000D01*
X123507163Y-73150000D01*
X123507163Y-74850000D01*
X123511490Y-74882870D01*
X123580599Y-75140789D01*
X123605984Y-75189553D01*
X123721138Y-75326788D01*
X123754926Y-75355139D01*
X123910073Y-75444713D01*
X123951520Y-75459799D01*
X123976325Y-75464173D01*
X123891580Y-75545016D01*
X123877350Y-75561099D01*
X123739782Y-75745997D01*
X123728466Y-75764249D01*
X123624018Y-75969683D01*
X123615938Y-75989580D01*
X123547597Y-76209674D01*
X123542986Y-76230648D01*
X123512705Y-76459111D01*
X123511693Y-76480563D01*
X123520339Y-76710862D01*
X123522957Y-76732176D01*
X123570282Y-76957725D01*
X123576453Y-76978295D01*
X123661104Y-77192646D01*
X123670652Y-77211881D01*
X123790209Y-77408905D01*
X123802862Y-77426257D01*
X123953906Y-77600320D01*
X123969302Y-77615292D01*
X124147515Y-77761417D01*
X124165213Y-77773580D01*
X124228164Y-77809414D01*
X124075070Y-77912483D01*
X124058334Y-77925940D01*
X123891580Y-78085016D01*
X123877350Y-78101099D01*
X123739782Y-78285997D01*
X123728466Y-78304249D01*
X123624018Y-78509683D01*
X123615938Y-78529580D01*
X123547597Y-78749674D01*
X123542986Y-78770648D01*
X123512705Y-78999111D01*
X123511693Y-79020563D01*
X123520339Y-79250862D01*
X123522957Y-79272176D01*
X123570282Y-79497725D01*
X123576453Y-79518295D01*
X123661104Y-79732646D01*
X123670652Y-79751881D01*
X123790209Y-79948905D01*
X123802862Y-79966257D01*
X123953906Y-80140320D01*
X123969302Y-80155292D01*
X124147515Y-80301417D01*
X124165213Y-80313580D01*
X124228164Y-80349414D01*
X124075070Y-80452483D01*
X124058334Y-80465940D01*
X123891580Y-80625016D01*
X123877350Y-80641099D01*
X123739782Y-80825997D01*
X123728466Y-80844249D01*
X123624018Y-81049683D01*
X123615938Y-81069580D01*
X123547597Y-81289674D01*
X123542986Y-81310648D01*
X123512705Y-81539111D01*
X123511693Y-81560563D01*
X123520339Y-81790862D01*
X123522957Y-81812176D01*
X123570282Y-82037725D01*
X123576453Y-82058295D01*
X123661104Y-82272646D01*
X123670652Y-82291881D01*
X123790209Y-82488905D01*
X123802862Y-82506257D01*
X123953906Y-82680320D01*
X123969302Y-82695292D01*
X124147515Y-82841417D01*
X124165213Y-82853580D01*
X124228164Y-82889414D01*
X124075070Y-82992483D01*
X124058334Y-83005940D01*
X123891580Y-83165016D01*
X123877350Y-83181099D01*
X123739782Y-83365997D01*
X123728466Y-83384249D01*
X123624018Y-83589683D01*
X123615938Y-83609580D01*
X123547597Y-83829674D01*
X123542986Y-83850647D01*
X123537861Y-83889312D01*
X123548825Y-83960027D01*
X123596280Y-84013589D01*
X123663760Y-84033000D01*
X126334306Y-84033000D01*
X126402967Y-84012839D01*
X126449829Y-83958758D01*
X126458599Y-83879921D01*
X126429718Y-83742275D01*
X126423547Y-83721705D01*
X126338896Y-83507354D01*
X126329348Y-83488119D01*
X126209791Y-83291095D01*
X126197138Y-83273743D01*
X126046094Y-83099680D01*
X126030698Y-83084708D01*
X125852485Y-82938583D01*
X125834787Y-82926420D01*
X125771836Y-82890586D01*
X125924930Y-82787517D01*
X125941666Y-82774060D01*
X126108420Y-82614984D01*
X126122650Y-82598901D01*
X126260218Y-82414003D01*
X126271534Y-82395751D01*
X126375982Y-82190317D01*
X126384062Y-82170420D01*
X126452403Y-81950326D01*
X126457014Y-81929352D01*
X126487295Y-81700889D01*
X126488307Y-81679437D01*
X126479661Y-81449138D01*
X126477043Y-81427824D01*
X126429718Y-81202275D01*
X126423547Y-81181705D01*
X126338896Y-80967354D01*
X126329348Y-80948119D01*
X126209791Y-80751095D01*
X126197138Y-80733743D01*
X126046094Y-80559680D01*
X126030698Y-80544708D01*
X125852485Y-80398583D01*
X125834787Y-80386420D01*
X125771836Y-80350586D01*
X125924930Y-80247517D01*
X125941666Y-80234060D01*
X126108420Y-80074984D01*
X126122650Y-80058901D01*
X126260218Y-79874003D01*
X126271534Y-79855751D01*
X126375982Y-79650317D01*
X126384062Y-79630420D01*
X126452403Y-79410326D01*
X126457014Y-79389352D01*
X126487295Y-79160889D01*
X126488307Y-79139437D01*
X126479661Y-78909138D01*
X126477043Y-78887824D01*
X126429718Y-78662275D01*
X126423547Y-78641705D01*
X126338896Y-78427354D01*
X126329348Y-78408119D01*
X126209791Y-78211095D01*
X126197138Y-78193743D01*
X126046094Y-78019680D01*
X126030698Y-78004708D01*
X125852485Y-77858583D01*
X125834787Y-77846420D01*
X125771836Y-77810586D01*
X125924930Y-77707517D01*
X125941666Y-77694060D01*
X126108420Y-77534984D01*
X126122650Y-77518901D01*
X126260218Y-77334003D01*
X126271534Y-77315751D01*
X126375982Y-77110317D01*
X126384062Y-77090420D01*
X126452403Y-76870326D01*
X126457014Y-76849352D01*
X126487295Y-76620889D01*
X126488307Y-76599437D01*
X126479661Y-76369138D01*
X126477043Y-76347824D01*
X126429718Y-76122275D01*
X126423547Y-76101705D01*
X126338896Y-75887354D01*
X126329348Y-75868119D01*
X126209791Y-75671095D01*
X126197138Y-75653743D01*
X126046094Y-75479680D01*
X126030698Y-75464708D01*
X126016167Y-75452793D01*
X126140789Y-75419401D01*
X126189553Y-75394016D01*
X126326788Y-75278862D01*
X126355139Y-75245074D01*
X126444713Y-75089927D01*
X126459799Y-75048480D01*
X126490908Y-74872053D01*
X126492837Y-74850000D01*
X126492837Y-73150000D01*
X126488510Y-73117130D01*
X126419401Y-72859212D01*
X126394016Y-72810448D01*
X126278862Y-72673212D01*
X126245074Y-72644861D01*
X126089927Y-72555287D01*
X126048480Y-72540201D01*
X125872053Y-72509092D01*
X125850000Y-72507163D01*
X124150000Y-72507163D01*
X124117130Y-72511490D01*
X123859212Y-72580599D01*
X123810448Y-72605984D01*
X123673212Y-72721138D01*
X123644861Y-72754926D01*
X123555287Y-72910073D01*
X123540201Y-72951520D01*
X123509092Y-73127947D01*
X123507163Y-73150000D01*
X82135000Y-73150000D01*
X82135000Y-71207110D01*
X106001006Y-71207110D01*
X106006111Y-71278488D01*
X106060075Y-71343194D01*
X106267015Y-71466555D01*
X106285292Y-71475549D01*
X106510917Y-71564880D01*
X106530398Y-71570835D01*
X106767404Y-71622944D01*
X106787586Y-71625709D01*
X107029875Y-71639255D01*
X107050239Y-71638757D01*
X107291576Y-71613392D01*
X107311599Y-71609645D01*
X107545776Y-71546020D01*
X107564942Y-71539120D01*
X107785935Y-71438874D01*
X107803752Y-71428998D01*
X107942262Y-71336972D01*
X107988294Y-71282183D01*
X107997398Y-71211204D01*
X107961784Y-71141388D01*
X107089803Y-70269407D01*
X107026996Y-70235112D01*
X106955618Y-70240217D01*
X106910197Y-70269407D01*
X106035301Y-71144303D01*
X106001006Y-71207110D01*
X82135000Y-71207110D01*
X82135000Y-69993016D01*
X105360487Y-69993016D01*
X105377415Y-70235092D01*
X105380461Y-70255234D01*
X105435874Y-70491489D01*
X105442102Y-70510884D01*
X105534575Y-70735240D01*
X105543823Y-70753390D01*
X105658832Y-70940335D01*
X105711981Y-70988252D01*
X105782598Y-70999828D01*
X105856804Y-70963592D01*
X106730593Y-70089803D01*
X106764888Y-70026996D01*
X106761027Y-69973004D01*
X107235112Y-69973004D01*
X107240217Y-70044382D01*
X107269407Y-70089803D01*
X108142097Y-70962493D01*
X108204904Y-70996788D01*
X108276282Y-70991683D01*
X108331977Y-70950879D01*
X108363123Y-70911014D01*
X108374337Y-70894008D01*
X108491242Y-70681358D01*
X108499592Y-70662777D01*
X108580995Y-70434171D01*
X108586268Y-70414495D01*
X108630074Y-70175815D01*
X108632153Y-70154219D01*
X108633841Y-69993016D01*
X109360487Y-69993016D01*
X109377415Y-70235092D01*
X109380461Y-70255234D01*
X109435874Y-70491489D01*
X109442102Y-70510884D01*
X109534575Y-70735240D01*
X109543823Y-70753390D01*
X109670977Y-70960076D01*
X109683007Y-70976514D01*
X109841570Y-71160212D01*
X109856075Y-71174516D01*
X110041969Y-71330499D01*
X110058573Y-71342299D01*
X110267014Y-71466555D01*
X110285292Y-71475549D01*
X110510917Y-71564880D01*
X110530398Y-71570835D01*
X110767404Y-71622944D01*
X110787586Y-71625709D01*
X111029875Y-71639255D01*
X111050239Y-71638757D01*
X111291576Y-71613392D01*
X111311599Y-71609645D01*
X111545776Y-71546020D01*
X111564942Y-71539120D01*
X111785935Y-71438874D01*
X111803752Y-71428998D01*
X112005874Y-71294708D01*
X112021882Y-71282111D01*
X112199934Y-71117233D01*
X112213722Y-71102238D01*
X112363123Y-70911014D01*
X112374337Y-70894008D01*
X112491242Y-70681358D01*
X112499592Y-70662777D01*
X112580995Y-70434171D01*
X112586268Y-70414495D01*
X112630074Y-70175815D01*
X112632153Y-70154219D01*
X112635025Y-69879997D01*
X112633398Y-69858362D01*
X112594600Y-69618817D01*
X112589741Y-69599034D01*
X112513143Y-69368773D01*
X112505184Y-69350023D01*
X112392758Y-69134971D01*
X112381903Y-69117733D01*
X112236540Y-68923422D01*
X112223068Y-68908142D01*
X112048508Y-68739572D01*
X112032768Y-68726642D01*
X111833502Y-68588148D01*
X111815896Y-68577901D01*
X111597052Y-68473049D01*
X111578034Y-68465749D01*
X111345240Y-68397234D01*
X111325301Y-68393068D01*
X111084548Y-68362653D01*
X111064198Y-68361729D01*
X110821679Y-68370198D01*
X110801443Y-68372540D01*
X110563398Y-68419675D01*
X110543798Y-68425221D01*
X110316351Y-68509807D01*
X110297888Y-68518416D01*
X110086890Y-68638280D01*
X110070042Y-68649730D01*
X109880923Y-68801786D01*
X109866123Y-68815782D01*
X109703747Y-68996118D01*
X109691374Y-69012301D01*
X109559920Y-69216279D01*
X109550294Y-69234231D01*
X109453142Y-69456601D01*
X109446510Y-69475862D01*
X109386161Y-69710905D01*
X109382694Y-69730979D01*
X109360701Y-69972647D01*
X109360487Y-69993016D01*
X108633841Y-69993016D01*
X108635025Y-69879997D01*
X108633398Y-69858362D01*
X108594600Y-69618817D01*
X108589741Y-69599034D01*
X108513143Y-69368773D01*
X108505184Y-69350023D01*
X108392758Y-69134971D01*
X108381903Y-69117734D01*
X108332771Y-69052057D01*
X108275498Y-69009154D01*
X108204122Y-69004026D01*
X108141275Y-69038329D01*
X107269407Y-69910197D01*
X107235112Y-69973004D01*
X106761027Y-69973004D01*
X106759783Y-69955618D01*
X106730593Y-69910197D01*
X105858052Y-69037656D01*
X105795245Y-69003361D01*
X105723867Y-69008466D01*
X105661497Y-69058662D01*
X105559920Y-69216279D01*
X105550294Y-69234231D01*
X105453142Y-69456601D01*
X105446510Y-69475862D01*
X105386161Y-69710905D01*
X105382694Y-69730979D01*
X105360701Y-69972647D01*
X105360487Y-69993016D01*
X82135000Y-69993016D01*
X82135000Y-68155612D01*
X82178320Y-68317283D01*
X82183916Y-68333627D01*
X82295296Y-68598591D01*
X82303059Y-68614025D01*
X82449369Y-68861422D01*
X82459154Y-68875660D01*
X82637686Y-69100911D01*
X82649313Y-69113689D01*
X82856763Y-69312626D01*
X82870016Y-69323707D01*
X83102546Y-69492650D01*
X83117181Y-69501830D01*
X83370487Y-69637652D01*
X83386233Y-69644762D01*
X83655629Y-69744949D01*
X83672193Y-69749855D01*
X83952693Y-69812554D01*
X83969770Y-69815168D01*
X84256185Y-69839219D01*
X84273458Y-69839490D01*
X84560486Y-69824448D01*
X84577638Y-69822372D01*
X84859970Y-69768514D01*
X84876680Y-69764131D01*
X85149089Y-69672455D01*
X85165050Y-69665843D01*
X85422498Y-69538045D01*
X85437413Y-69529329D01*
X85675135Y-69367774D01*
X85688731Y-69357114D01*
X85902327Y-69164791D01*
X85914349Y-69152385D01*
X86099868Y-68932852D01*
X86110095Y-68918929D01*
X86186482Y-68798563D01*
X106003413Y-68798563D01*
X106036700Y-68857096D01*
X106910197Y-69730593D01*
X106973004Y-69764888D01*
X107044382Y-69759783D01*
X107089803Y-69730593D01*
X107961345Y-68859051D01*
X107995640Y-68796244D01*
X107990535Y-68724866D01*
X107944023Y-68664962D01*
X107833502Y-68588148D01*
X107815896Y-68577901D01*
X107597052Y-68473049D01*
X107578034Y-68465749D01*
X107345240Y-68397234D01*
X107325301Y-68393068D01*
X107084548Y-68362653D01*
X107064198Y-68361729D01*
X106821679Y-68370198D01*
X106801443Y-68372540D01*
X106563398Y-68419675D01*
X106543798Y-68425221D01*
X106316351Y-68509807D01*
X106297888Y-68518416D01*
X106086890Y-68638280D01*
X106070043Y-68649729D01*
X106046925Y-68668316D01*
X106006047Y-68727052D01*
X106003413Y-68798563D01*
X86186482Y-68798563D01*
X86264104Y-68676251D01*
X86272348Y-68661068D01*
X86391996Y-68399733D01*
X86398103Y-68383573D01*
X86481177Y-68108418D01*
X86485033Y-68091578D01*
X86529996Y-67807694D01*
X86531553Y-67789157D01*
X86535025Y-67457619D01*
X86533857Y-67439053D01*
X86494849Y-67154290D01*
X86491346Y-67137373D01*
X86414053Y-66860538D01*
X86408286Y-66844253D01*
X86294137Y-66580470D01*
X86286213Y-66565118D01*
X86137320Y-66319267D01*
X86127386Y-66305133D01*
X85946505Y-66081764D01*
X85934745Y-66069109D01*
X85725223Y-65872355D01*
X85711855Y-65861413D01*
X85477569Y-65694914D01*
X85462839Y-65685887D01*
X85365501Y-65635000D01*
X124333448Y-65635000D01*
X124257269Y-65673815D01*
X124257269Y-65673815D01*
G37*
X124257269Y-65673815D02*
X124242445Y-65682687D01*
X124006428Y-65846723D01*
X123992946Y-65857525D01*
X123781375Y-66052074D01*
X123769483Y-66064605D01*
X123586273Y-66286068D01*
X123576191Y-66300098D01*
X123424733Y-66544376D01*
X123416650Y-66559643D01*
X123299744Y-66822217D01*
X123293807Y-66838441D01*
X123213619Y-67114451D01*
X123209938Y-67131330D01*
X123167950Y-67415669D01*
X123166595Y-67432892D01*
X123164899Y-67594841D01*
X123163586Y-67720298D01*
X123164580Y-67737545D01*
X123200603Y-68022701D01*
X123203929Y-68039654D01*
X123278320Y-68317283D01*
X123283916Y-68333627D01*
X123395296Y-68598591D01*
X123403059Y-68614025D01*
X123549369Y-68861422D01*
X123559154Y-68875660D01*
X123737686Y-69100911D01*
X123749313Y-69113689D01*
X123956763Y-69312626D01*
X123970016Y-69323707D01*
X124202546Y-69492650D01*
X124217181Y-69501830D01*
X124470487Y-69637652D01*
X124486233Y-69644762D01*
X124755629Y-69744949D01*
X124772193Y-69749855D01*
X125052693Y-69812554D01*
X125069770Y-69815168D01*
X125356185Y-69839219D01*
X125373458Y-69839490D01*
X125660486Y-69824448D01*
X125677638Y-69822372D01*
X125959970Y-69768514D01*
X125976680Y-69764131D01*
X126249089Y-69672455D01*
X126265050Y-69665843D01*
X126522498Y-69538045D01*
X126537413Y-69529329D01*
X126775135Y-69367774D01*
X126788731Y-69357114D01*
X127002327Y-69164791D01*
X127014349Y-69152385D01*
X127199868Y-68932852D01*
X127210095Y-68918929D01*
X127364104Y-68676251D01*
X127365001Y-68674599D01*
X127365000Y-116330091D01*
X127237320Y-116119267D01*
X127227386Y-116105133D01*
X127046505Y-115881764D01*
X127034745Y-115869109D01*
X126825223Y-115672355D01*
X126811855Y-115661413D01*
X126577569Y-115494914D01*
X126562839Y-115485887D01*
X126308125Y-115352726D01*
X126292306Y-115345782D01*
X126021875Y-115248421D01*
X126005260Y-115243688D01*
X125724119Y-115183929D01*
X125707015Y-115181495D01*
X125420364Y-115160445D01*
X125403089Y-115160355D01*
X125116234Y-115178402D01*
X125099105Y-115180657D01*
X124817353Y-115237469D01*
X124800690Y-115242027D01*
X124529255Y-115336550D01*
X124513364Y-115343328D01*
X124257269Y-115473815D01*
X124242445Y-115482687D01*
X124006428Y-115646723D01*
X123992946Y-115657525D01*
X123781375Y-115852074D01*
X123769483Y-115864605D01*
X123586273Y-116086068D01*
X123576191Y-116100098D01*
X123424733Y-116344376D01*
X123416650Y-116359643D01*
X123299744Y-116622217D01*
X123293807Y-116638441D01*
X123213619Y-116914451D01*
X123209938Y-116931330D01*
X123167950Y-117215669D01*
X123166595Y-117232892D01*
X123164899Y-117394841D01*
X123163586Y-117520298D01*
X123164580Y-117537545D01*
X123200603Y-117822701D01*
X123203929Y-117839654D01*
X123278320Y-118117283D01*
X123283916Y-118133627D01*
X123395296Y-118398591D01*
X123403059Y-118414025D01*
X123549369Y-118661422D01*
X123559154Y-118675660D01*
X123737686Y-118900911D01*
X123749313Y-118913689D01*
X123956763Y-119112626D01*
X123970016Y-119123707D01*
X124202546Y-119292650D01*
X124217181Y-119301830D01*
X124334992Y-119365000D01*
X85168197Y-119365000D01*
X85222498Y-119338045D01*
X85237413Y-119329329D01*
X85475135Y-119167774D01*
X85488731Y-119157114D01*
X85702327Y-118964791D01*
X85714349Y-118952385D01*
X85899868Y-118732852D01*
X85910095Y-118718929D01*
X86064104Y-118476251D01*
X86072348Y-118461068D01*
X86191996Y-118199733D01*
X86198103Y-118183573D01*
X86281177Y-117908418D01*
X86285033Y-117891578D01*
X86329996Y-117607694D01*
X86331553Y-117589157D01*
X86335025Y-117257619D01*
X86333857Y-117239053D01*
X86322035Y-117152746D01*
X98265000Y-117152746D01*
X98265000Y-117940313D01*
X98265574Y-117952375D01*
X98280616Y-118110032D01*
X98285178Y-118133721D01*
X98344695Y-118336597D01*
X98353654Y-118358996D01*
X98450461Y-118546959D01*
X98463494Y-118567260D01*
X98594096Y-118733524D01*
X98610732Y-118750994D01*
X98770419Y-118889563D01*
X98790059Y-118903572D01*
X98973067Y-119009445D01*
X98995002Y-119019487D01*
X99194729Y-119088844D01*
X99218166Y-119094558D01*
X99427404Y-119124896D01*
X99451500Y-119126074D01*
X99662700Y-119116299D01*
X99686583Y-119112900D01*
X99892124Y-119063364D01*
X99914934Y-119055510D01*
X100107400Y-118968001D01*
X100128313Y-118955976D01*
X100300761Y-118833651D01*
X100319023Y-118817887D01*
X100465227Y-118665160D01*
X100480179Y-118646228D01*
X100594865Y-118468610D01*
X100605967Y-118447192D01*
X100684998Y-118251092D01*
X100692890Y-118221844D01*
X100733686Y-117940478D01*
X100735000Y-117922254D01*
X100735000Y-117897192D01*
X100748325Y-117887511D01*
X100784364Y-117869148D01*
X100814161Y-117847500D01*
X105185839Y-117847500D01*
X105215636Y-117869148D01*
X105251675Y-117887511D01*
X105265000Y-117897192D01*
X105265000Y-117940314D01*
X105265574Y-117952376D01*
X105280616Y-118110033D01*
X105285178Y-118133722D01*
X105344696Y-118336598D01*
X105353655Y-118358997D01*
X105450462Y-118546959D01*
X105463495Y-118567260D01*
X105594097Y-118733524D01*
X105610733Y-118750994D01*
X105770420Y-118889563D01*
X105790060Y-118903572D01*
X105973068Y-119009445D01*
X105995003Y-119019487D01*
X106194730Y-119088844D01*
X106218167Y-119094558D01*
X106427405Y-119124896D01*
X106451501Y-119126074D01*
X106662701Y-119116299D01*
X106686584Y-119112900D01*
X106892125Y-119063364D01*
X106914935Y-119055510D01*
X107107401Y-118968001D01*
X107128314Y-118955975D01*
X107300761Y-118833650D01*
X107319023Y-118817887D01*
X107465227Y-118665160D01*
X107480179Y-118646228D01*
X107594865Y-118468610D01*
X107605967Y-118447192D01*
X107684998Y-118251091D01*
X107692890Y-118221843D01*
X107733686Y-117940477D01*
X107735000Y-117922253D01*
X107735000Y-117134686D01*
X107734426Y-117122624D01*
X107719384Y-116964967D01*
X107714822Y-116941278D01*
X107655305Y-116738402D01*
X107646346Y-116716003D01*
X107549539Y-116528041D01*
X107536506Y-116507740D01*
X107405904Y-116341476D01*
X107389268Y-116324006D01*
X107229581Y-116185437D01*
X107209941Y-116171428D01*
X107026932Y-116065555D01*
X107004997Y-116055513D01*
X106805270Y-115986156D01*
X106781833Y-115980442D01*
X106572595Y-115950104D01*
X106548499Y-115948926D01*
X106337299Y-115958701D01*
X106313416Y-115962100D01*
X106260000Y-115974973D01*
X106260000Y-115966481D01*
X106388468Y-115873144D01*
X106405482Y-115858301D01*
X106557823Y-115699442D01*
X106571941Y-115681821D01*
X106693742Y-115498495D01*
X106704516Y-115478652D01*
X106791928Y-115276655D01*
X106799018Y-115255217D01*
X106849277Y-115040933D01*
X106852588Y-115015258D01*
X106860038Y-114730775D01*
X106858075Y-114704960D01*
X106819099Y-114488340D01*
X106813141Y-114466561D01*
X106736420Y-114260266D01*
X106726699Y-114239887D01*
X106614660Y-114050438D01*
X106601484Y-114032101D01*
X106457666Y-113865487D01*
X106441452Y-113849775D01*
X106270403Y-113711262D01*
X106251662Y-113698668D01*
X106058788Y-113592634D01*
X106038112Y-113583558D01*
X105829508Y-113513356D01*
X105807554Y-113508085D01*
X105589816Y-113475932D01*
X105567274Y-113474633D01*
X105347284Y-113481546D01*
X105324868Y-113484258D01*
X105109578Y-113530019D01*
X105087997Y-113536659D01*
X104884214Y-113619822D01*
X104864150Y-113630177D01*
X104678314Y-113748112D01*
X104660401Y-113761858D01*
X104498386Y-113910838D01*
X104483190Y-113927538D01*
X104350118Y-114102854D01*
X104338119Y-114121981D01*
X104238196Y-114318090D01*
X104229774Y-114339040D01*
X104166159Y-114549746D01*
X104161581Y-114571856D01*
X104136283Y-114790496D01*
X104135692Y-114813067D01*
X104149512Y-115032732D01*
X104152927Y-115055052D01*
X104205428Y-115268798D01*
X104212742Y-115290160D01*
X104302265Y-115491231D01*
X104313246Y-115510959D01*
X104436960Y-115692999D01*
X104451261Y-115710472D01*
X104605256Y-115867727D01*
X104622425Y-115882391D01*
X104740001Y-115965948D01*
X104740001Y-116327500D01*
X101260000Y-116327500D01*
X101260000Y-115966481D01*
X101388468Y-115873144D01*
X101405482Y-115858301D01*
X101557823Y-115699442D01*
X101571941Y-115681821D01*
X101693742Y-115498495D01*
X101704516Y-115478652D01*
X101791928Y-115276655D01*
X101799018Y-115255217D01*
X101849277Y-115040933D01*
X101852588Y-115015258D01*
X101860038Y-114730775D01*
X101858075Y-114704960D01*
X101819099Y-114488340D01*
X101813141Y-114466561D01*
X101736420Y-114260266D01*
X101726699Y-114239887D01*
X101614660Y-114050438D01*
X101601484Y-114032101D01*
X101457666Y-113865487D01*
X101441452Y-113849775D01*
X101270403Y-113711262D01*
X101251662Y-113698668D01*
X101058788Y-113592634D01*
X101038112Y-113583558D01*
X100829508Y-113513356D01*
X100807554Y-113508085D01*
X100589816Y-113475932D01*
X100567274Y-113474633D01*
X100347284Y-113481546D01*
X100324868Y-113484258D01*
X100109578Y-113530019D01*
X100087997Y-113536659D01*
X99884214Y-113619822D01*
X99864150Y-113630177D01*
X99678314Y-113748112D01*
X99660401Y-113761858D01*
X99498386Y-113910838D01*
X99483190Y-113927538D01*
X99350118Y-114102854D01*
X99338119Y-114121981D01*
X99238196Y-114318090D01*
X99229774Y-114339040D01*
X99166159Y-114549746D01*
X99161581Y-114571856D01*
X99136283Y-114790496D01*
X99135692Y-114813067D01*
X99149512Y-115032732D01*
X99152927Y-115055052D01*
X99205428Y-115268798D01*
X99212742Y-115290160D01*
X99302265Y-115491231D01*
X99313246Y-115510959D01*
X99436960Y-115692999D01*
X99451261Y-115710472D01*
X99605256Y-115867727D01*
X99622425Y-115882391D01*
X99740001Y-115965948D01*
X99740001Y-115974377D01*
X99572596Y-115950104D01*
X99548500Y-115948926D01*
X99337300Y-115958701D01*
X99313417Y-115962100D01*
X99107876Y-116011636D01*
X99085066Y-116019490D01*
X98892600Y-116106999D01*
X98871687Y-116119025D01*
X98699240Y-116241350D01*
X98680978Y-116257113D01*
X98534774Y-116409840D01*
X98519822Y-116428772D01*
X98405136Y-116606390D01*
X98394034Y-116627807D01*
X98315002Y-116823907D01*
X98307110Y-116853156D01*
X98266314Y-117134522D01*
X98265000Y-117152746D01*
X86322035Y-117152746D01*
X86294849Y-116954290D01*
X86291346Y-116937373D01*
X86214053Y-116660538D01*
X86208286Y-116644253D01*
X86094137Y-116380470D01*
X86086213Y-116365118D01*
X85937320Y-116119267D01*
X85927386Y-116105133D01*
X85746505Y-115881764D01*
X85734745Y-115869109D01*
X85525223Y-115672355D01*
X85511855Y-115661413D01*
X85277569Y-115494914D01*
X85262839Y-115485887D01*
X85008125Y-115352726D01*
X84992306Y-115345782D01*
X84721875Y-115248421D01*
X84705260Y-115243688D01*
X84424119Y-115183929D01*
X84407015Y-115181495D01*
X84120364Y-115160445D01*
X84103089Y-115160355D01*
X83816234Y-115178402D01*
X83799105Y-115180657D01*
X83517353Y-115237469D01*
X83500690Y-115242027D01*
X83229255Y-115336550D01*
X83213364Y-115343328D01*
X82957269Y-115473815D01*
X82942445Y-115482687D01*
X82706428Y-115646723D01*
X82692946Y-115657525D01*
X82481375Y-115852074D01*
X82469483Y-115864605D01*
X82286273Y-116086068D01*
X82276191Y-116100098D01*
X82135000Y-116327817D01*
X82135000Y-110900079D01*
X123541401Y-110900079D01*
X123570282Y-111037725D01*
X123576453Y-111058295D01*
X123661104Y-111272646D01*
X123670652Y-111291881D01*
X123790209Y-111488905D01*
X123802862Y-111506257D01*
X123953906Y-111680320D01*
X123969302Y-111695292D01*
X124147515Y-111841417D01*
X124165213Y-111853580D01*
X124365498Y-111967589D01*
X124384993Y-111976597D01*
X124601624Y-112055230D01*
X124628269Y-112061750D01*
X124729313Y-112075143D01*
X124800028Y-112064179D01*
X124853589Y-112016724D01*
X124873000Y-111949244D01*
X124873000Y-110874000D01*
X125127000Y-110874000D01*
X125127000Y-111957100D01*
X125147161Y-112025761D01*
X125201242Y-112072623D01*
X125285905Y-112080027D01*
X125484610Y-112028454D01*
X125504866Y-112021321D01*
X125714992Y-111926666D01*
X125733757Y-111916222D01*
X125924930Y-111787517D01*
X125941666Y-111774060D01*
X126108420Y-111614984D01*
X126122650Y-111598901D01*
X126260218Y-111414003D01*
X126271534Y-111395751D01*
X126375982Y-111190317D01*
X126384062Y-111170420D01*
X126452403Y-110950326D01*
X126457014Y-110929353D01*
X126462139Y-110890688D01*
X126451175Y-110819973D01*
X126403720Y-110766411D01*
X126336240Y-110747000D01*
X125254000Y-110747000D01*
X125185339Y-110767161D01*
X125138477Y-110821242D01*
X125127000Y-110874000D01*
X124873000Y-110874000D01*
X124852839Y-110805339D01*
X124798758Y-110758477D01*
X124746000Y-110747000D01*
X123665694Y-110747000D01*
X123597033Y-110767161D01*
X123550171Y-110821242D01*
X123541401Y-110900079D01*
X82135000Y-110900079D01*
X82135000Y-102150000D01*
X123507163Y-102150000D01*
X123507163Y-103850000D01*
X123511490Y-103882870D01*
X123580599Y-104140789D01*
X123605984Y-104189553D01*
X123721138Y-104326788D01*
X123754926Y-104355139D01*
X123910073Y-104444713D01*
X123951520Y-104459799D01*
X123976325Y-104464173D01*
X123891580Y-104545016D01*
X123877350Y-104561099D01*
X123739782Y-104745997D01*
X123728466Y-104764249D01*
X123624018Y-104969683D01*
X123615938Y-104989580D01*
X123547597Y-105209674D01*
X123542986Y-105230648D01*
X123512705Y-105459111D01*
X123511693Y-105480563D01*
X123520339Y-105710862D01*
X123522957Y-105732176D01*
X123570282Y-105957725D01*
X123576453Y-105978295D01*
X123661104Y-106192646D01*
X123670652Y-106211881D01*
X123790209Y-106408905D01*
X123802862Y-106426257D01*
X123953906Y-106600320D01*
X123969302Y-106615292D01*
X124147515Y-106761417D01*
X124165213Y-106773580D01*
X124228164Y-106809414D01*
X124075070Y-106912483D01*
X124058334Y-106925940D01*
X123891580Y-107085016D01*
X123877350Y-107101099D01*
X123739782Y-107285997D01*
X123728466Y-107304249D01*
X123624018Y-107509683D01*
X123615938Y-107529580D01*
X123547597Y-107749674D01*
X123542986Y-107770648D01*
X123512705Y-107999111D01*
X123511693Y-108020563D01*
X123520339Y-108250862D01*
X123522957Y-108272176D01*
X123570282Y-108497725D01*
X123576453Y-108518295D01*
X123661104Y-108732646D01*
X123670652Y-108751881D01*
X123790209Y-108948905D01*
X123802862Y-108966257D01*
X123953906Y-109140320D01*
X123969302Y-109155292D01*
X124147515Y-109301417D01*
X124165213Y-109313580D01*
X124228164Y-109349414D01*
X124075070Y-109452483D01*
X124058334Y-109465940D01*
X123891580Y-109625016D01*
X123877350Y-109641099D01*
X123739782Y-109825997D01*
X123728466Y-109844249D01*
X123624018Y-110049683D01*
X123615938Y-110069580D01*
X123547597Y-110289674D01*
X123542986Y-110310647D01*
X123537861Y-110349312D01*
X123548825Y-110420027D01*
X123596280Y-110473589D01*
X123663760Y-110493000D01*
X126334306Y-110493000D01*
X126402967Y-110472839D01*
X126449829Y-110418758D01*
X126458599Y-110339921D01*
X126429718Y-110202275D01*
X126423547Y-110181705D01*
X126338896Y-109967354D01*
X126329348Y-109948119D01*
X126209791Y-109751095D01*
X126197138Y-109733743D01*
X126046094Y-109559680D01*
X126030698Y-109544708D01*
X125852485Y-109398583D01*
X125834787Y-109386420D01*
X125771836Y-109350586D01*
X125924930Y-109247517D01*
X125941666Y-109234060D01*
X126108420Y-109074984D01*
X126122650Y-109058901D01*
X126260218Y-108874003D01*
X126271534Y-108855751D01*
X126375982Y-108650317D01*
X126384062Y-108630420D01*
X126452403Y-108410326D01*
X126457014Y-108389352D01*
X126487295Y-108160889D01*
X126488307Y-108139437D01*
X126479661Y-107909138D01*
X126477043Y-107887824D01*
X126429718Y-107662275D01*
X126423547Y-107641705D01*
X126338896Y-107427354D01*
X126329348Y-107408119D01*
X126209791Y-107211095D01*
X126197138Y-107193743D01*
X126046094Y-107019680D01*
X126030698Y-107004708D01*
X125852485Y-106858583D01*
X125834787Y-106846420D01*
X125771836Y-106810586D01*
X125924930Y-106707517D01*
X125941666Y-106694060D01*
X126108420Y-106534984D01*
X126122650Y-106518901D01*
X126260218Y-106334003D01*
X126271534Y-106315751D01*
X126375982Y-106110317D01*
X126384062Y-106090420D01*
X126452403Y-105870326D01*
X126457014Y-105849352D01*
X126487295Y-105620889D01*
X126488307Y-105599437D01*
X126479661Y-105369138D01*
X126477043Y-105347824D01*
X126429718Y-105122275D01*
X126423547Y-105101705D01*
X126338896Y-104887354D01*
X126329348Y-104868119D01*
X126209791Y-104671095D01*
X126197138Y-104653743D01*
X126046094Y-104479680D01*
X126030698Y-104464708D01*
X126016167Y-104452793D01*
X126140789Y-104419401D01*
X126189553Y-104394016D01*
X126326788Y-104278862D01*
X126355139Y-104245074D01*
X126444713Y-104089927D01*
X126459799Y-104048480D01*
X126490908Y-103872053D01*
X126492837Y-103850000D01*
X126492837Y-102150000D01*
X126488510Y-102117130D01*
X126419401Y-101859212D01*
X126394016Y-101810448D01*
X126278862Y-101673212D01*
X126245074Y-101644861D01*
X126089927Y-101555287D01*
X126048480Y-101540201D01*
X125872053Y-101509092D01*
X125850000Y-101507163D01*
X124150000Y-101507163D01*
X124117130Y-101511490D01*
X123859212Y-101580599D01*
X123810448Y-101605984D01*
X123673212Y-101721138D01*
X123644861Y-101754926D01*
X123555287Y-101910073D01*
X123540201Y-101951520D01*
X123509092Y-102127947D01*
X123507163Y-102150000D01*
X82135000Y-102150000D01*
X82135000Y-99030787D01*
X85360927Y-99030787D01*
X85361636Y-99053355D01*
X85387542Y-99267429D01*
X85392236Y-99289515D01*
X85455642Y-99495619D01*
X85464174Y-99516525D01*
X85563076Y-99708144D01*
X85575174Y-99727208D01*
X85706445Y-99898284D01*
X85721729Y-99914904D01*
X85881221Y-100060030D01*
X85899205Y-100073681D01*
X86081875Y-100188270D01*
X86101994Y-100198521D01*
X86302070Y-100278951D01*
X86330887Y-100286754D01*
X86648387Y-100333638D01*
X86666939Y-100335000D01*
X87354701Y-100335000D01*
X87365991Y-100334497D01*
X87526073Y-100320210D01*
X87548295Y-100316212D01*
X87756289Y-100259311D01*
X87777452Y-100251441D01*
X87972082Y-100158608D01*
X87991517Y-100147114D01*
X88166632Y-100021281D01*
X88183724Y-100006527D01*
X88333788Y-99851672D01*
X88347997Y-99834125D01*
X88468268Y-99655144D01*
X88479146Y-99635357D01*
X88500454Y-99586816D01*
X88563076Y-99708144D01*
X88575174Y-99727208D01*
X88706445Y-99898284D01*
X88721729Y-99914904D01*
X88881221Y-100060030D01*
X88899205Y-100073681D01*
X89081875Y-100188270D01*
X89101994Y-100198521D01*
X89302070Y-100278951D01*
X89330887Y-100286754D01*
X89648387Y-100333638D01*
X89666939Y-100335000D01*
X89746000Y-100335000D01*
X89814661Y-100314839D01*
X89861523Y-100260758D01*
X89873000Y-100208000D01*
X89873000Y-99254000D01*
X90127000Y-99254000D01*
X90127000Y-100208000D01*
X90147161Y-100276661D01*
X90201242Y-100323523D01*
X90254000Y-100335000D01*
X90354701Y-100335000D01*
X90365991Y-100334497D01*
X90526073Y-100320210D01*
X90548295Y-100316212D01*
X90756289Y-100259311D01*
X90777452Y-100251441D01*
X90972082Y-100158608D01*
X90991517Y-100147114D01*
X91166632Y-100021281D01*
X91183724Y-100006527D01*
X91333788Y-99851672D01*
X91347997Y-99834125D01*
X91468268Y-99655144D01*
X91479146Y-99635357D01*
X91565820Y-99437907D01*
X91573022Y-99416508D01*
X91604919Y-99283648D01*
X91601344Y-99212177D01*
X91559696Y-99153985D01*
X91481428Y-99127000D01*
X90254000Y-99127000D01*
X90185339Y-99147161D01*
X90138477Y-99201242D01*
X90127000Y-99254000D01*
X89873000Y-99254000D01*
X89873000Y-97792000D01*
X90127000Y-97792000D01*
X90127000Y-98746000D01*
X90147161Y-98814661D01*
X90201242Y-98861523D01*
X90254000Y-98873000D01*
X91485816Y-98873000D01*
X91554477Y-98852839D01*
X91601339Y-98798758D01*
X91607202Y-98708657D01*
X91544358Y-98504381D01*
X91535826Y-98483475D01*
X91441128Y-98300000D01*
X92357163Y-98300000D01*
X92357163Y-99700000D01*
X92361490Y-99732870D01*
X92430599Y-99990789D01*
X92455984Y-100039553D01*
X92571138Y-100176788D01*
X92604926Y-100205139D01*
X92760073Y-100294713D01*
X92801520Y-100309799D01*
X92977947Y-100340908D01*
X93000000Y-100342837D01*
X95000000Y-100342837D01*
X95032870Y-100338510D01*
X95290789Y-100269401D01*
X95339553Y-100244016D01*
X95476788Y-100128862D01*
X95505139Y-100095074D01*
X95594713Y-99939927D01*
X95609799Y-99898480D01*
X95640908Y-99722053D01*
X95642837Y-99700000D01*
X95642837Y-98300000D01*
X95638510Y-98267130D01*
X95569401Y-98009212D01*
X95544016Y-97960448D01*
X95509694Y-97919544D01*
X95591717Y-97900079D01*
X123541401Y-97900079D01*
X123570282Y-98037725D01*
X123576453Y-98058295D01*
X123661104Y-98272646D01*
X123670652Y-98291881D01*
X123790209Y-98488905D01*
X123802862Y-98506257D01*
X123953906Y-98680320D01*
X123969302Y-98695292D01*
X124147515Y-98841417D01*
X124165213Y-98853580D01*
X124365498Y-98967589D01*
X124384993Y-98976597D01*
X124601624Y-99055230D01*
X124628269Y-99061750D01*
X124729313Y-99075143D01*
X124800028Y-99064179D01*
X124853589Y-99016724D01*
X124873000Y-98949244D01*
X124873000Y-97874000D01*
X125127000Y-97874000D01*
X125127000Y-98957100D01*
X125147161Y-99025761D01*
X125201242Y-99072623D01*
X125285905Y-99080027D01*
X125484610Y-99028454D01*
X125504866Y-99021321D01*
X125714992Y-98926666D01*
X125733757Y-98916222D01*
X125924930Y-98787517D01*
X125941666Y-98774060D01*
X126108420Y-98614984D01*
X126122650Y-98598901D01*
X126260218Y-98414003D01*
X126271534Y-98395751D01*
X126375982Y-98190317D01*
X126384062Y-98170420D01*
X126452403Y-97950326D01*
X126457014Y-97929353D01*
X126462139Y-97890688D01*
X126451175Y-97819973D01*
X126403720Y-97766411D01*
X126336240Y-97747000D01*
X125254000Y-97747000D01*
X125185339Y-97767161D01*
X125138477Y-97821242D01*
X125127000Y-97874000D01*
X124873000Y-97874000D01*
X124852839Y-97805339D01*
X124798758Y-97758477D01*
X124746000Y-97747000D01*
X123665694Y-97747000D01*
X123597033Y-97767161D01*
X123550171Y-97821242D01*
X123541401Y-97900079D01*
X95591717Y-97900079D01*
X95688018Y-97877226D01*
X95710855Y-97869452D01*
X95903626Y-97782615D01*
X95924581Y-97770662D01*
X96097453Y-97648940D01*
X96115770Y-97633241D01*
X96262506Y-97481025D01*
X96277524Y-97462145D01*
X96392830Y-97284929D01*
X96404006Y-97263550D01*
X96483721Y-97067726D01*
X96490654Y-97044619D01*
X96531901Y-96837256D01*
X96534340Y-96812923D01*
X96535098Y-96595697D01*
X96532829Y-96571348D01*
X96493031Y-96363701D01*
X96486260Y-96340546D01*
X96407914Y-96144171D01*
X96396887Y-96122715D01*
X96282821Y-95944698D01*
X96267935Y-95925714D01*
X96139993Y-95791126D01*
X96256289Y-95759311D01*
X96277452Y-95751441D01*
X96472082Y-95658608D01*
X96491517Y-95647114D01*
X96666632Y-95521281D01*
X96683724Y-95506527D01*
X96833788Y-95351672D01*
X96847997Y-95334125D01*
X96968268Y-95155144D01*
X96979146Y-95135357D01*
X97065820Y-94937907D01*
X97073022Y-94916508D01*
X97123362Y-94706829D01*
X97126660Y-94684492D01*
X97139073Y-94469213D01*
X97138364Y-94446645D01*
X97112458Y-94232571D01*
X97107764Y-94210485D01*
X97044358Y-94004381D01*
X97035826Y-93983475D01*
X96936924Y-93791856D01*
X96924826Y-93772792D01*
X96793555Y-93601716D01*
X96778271Y-93585096D01*
X96618779Y-93439970D01*
X96600795Y-93426319D01*
X96418125Y-93311730D01*
X96398006Y-93301479D01*
X96197930Y-93221049D01*
X96169113Y-93213246D01*
X95851613Y-93166362D01*
X95833061Y-93165000D01*
X95145299Y-93165000D01*
X95134009Y-93165503D01*
X94973927Y-93179790D01*
X94951705Y-93183788D01*
X94743711Y-93240689D01*
X94722548Y-93248559D01*
X94527918Y-93341392D01*
X94508483Y-93352886D01*
X94333368Y-93478719D01*
X94316276Y-93493473D01*
X94166212Y-93648328D01*
X94152003Y-93665875D01*
X94031732Y-93844856D01*
X94020854Y-93864643D01*
X93934180Y-94062093D01*
X93926978Y-94083492D01*
X93876638Y-94293171D01*
X93873340Y-94315508D01*
X93860927Y-94530787D01*
X93861636Y-94553355D01*
X93887542Y-94767429D01*
X93892236Y-94789515D01*
X93955642Y-94995619D01*
X93964174Y-95016525D01*
X94063076Y-95208144D01*
X94075174Y-95227208D01*
X94206445Y-95398284D01*
X94221729Y-95414904D01*
X94381221Y-95560030D01*
X94399205Y-95573681D01*
X94581875Y-95688270D01*
X94583102Y-95688895D01*
X94573921Y-95695396D01*
X94413752Y-95833407D01*
X94397055Y-95850819D01*
X94265872Y-96016627D01*
X94252769Y-96036882D01*
X94155307Y-96224504D01*
X94146269Y-96246872D01*
X94086044Y-96449540D01*
X94081400Y-96473213D01*
X94060585Y-96683612D01*
X94060501Y-96707736D01*
X94079847Y-96918275D01*
X94084326Y-96941979D01*
X94143135Y-97145062D01*
X94152015Y-97167492D01*
X94248164Y-97355790D01*
X94261126Y-97376137D01*
X94391148Y-97542857D01*
X94407724Y-97560385D01*
X94518467Y-97657163D01*
X93000000Y-97657163D01*
X92967130Y-97661490D01*
X92709212Y-97730599D01*
X92660448Y-97755984D01*
X92523212Y-97871138D01*
X92494861Y-97904926D01*
X92405287Y-98060073D01*
X92390201Y-98101520D01*
X92359092Y-98277947D01*
X92357163Y-98300000D01*
X91441128Y-98300000D01*
X91436924Y-98291856D01*
X91424826Y-98272792D01*
X91293555Y-98101716D01*
X91278271Y-98085096D01*
X91118779Y-97939970D01*
X91100795Y-97926319D01*
X90918125Y-97811730D01*
X90898006Y-97801479D01*
X90697930Y-97721049D01*
X90669113Y-97713246D01*
X90351613Y-97666362D01*
X90333061Y-97665000D01*
X90254000Y-97665000D01*
X90185339Y-97685161D01*
X90138477Y-97739242D01*
X90127000Y-97792000D01*
X89873000Y-97792000D01*
X89852839Y-97723339D01*
X89798758Y-97676477D01*
X89746000Y-97665000D01*
X89645299Y-97665000D01*
X89634009Y-97665503D01*
X89473927Y-97679790D01*
X89451705Y-97683788D01*
X89243711Y-97740689D01*
X89222548Y-97748559D01*
X89027918Y-97841392D01*
X89008483Y-97852886D01*
X88833368Y-97978719D01*
X88816276Y-97993473D01*
X88666212Y-98148328D01*
X88652003Y-98165875D01*
X88531732Y-98344856D01*
X88520854Y-98364643D01*
X88499546Y-98413184D01*
X88436924Y-98291856D01*
X88424826Y-98272792D01*
X88293555Y-98101716D01*
X88278271Y-98085096D01*
X88118779Y-97939970D01*
X88100795Y-97926319D01*
X88085439Y-97916686D01*
X88223085Y-97937135D01*
X88247177Y-97938398D01*
X88458410Y-97929360D01*
X88482305Y-97926044D01*
X88688018Y-97877226D01*
X88710855Y-97869452D01*
X88903626Y-97782615D01*
X88924581Y-97770662D01*
X89097453Y-97648940D01*
X89115770Y-97633241D01*
X89262506Y-97481025D01*
X89277524Y-97462145D01*
X89392830Y-97284929D01*
X89404006Y-97263550D01*
X89483721Y-97067726D01*
X89490654Y-97044619D01*
X89531901Y-96837256D01*
X89534340Y-96812923D01*
X89535098Y-96595697D01*
X89532829Y-96571348D01*
X89493031Y-96363701D01*
X89486260Y-96340546D01*
X89407914Y-96144171D01*
X89396887Y-96122715D01*
X89282821Y-95944698D01*
X89267935Y-95925714D01*
X89122265Y-95772478D01*
X89104059Y-95756651D01*
X88932041Y-95633725D01*
X88911170Y-95621626D01*
X88719010Y-95533445D01*
X88696227Y-95525512D01*
X88490860Y-95475259D01*
X88466988Y-95471776D01*
X88255823Y-95461264D01*
X88231725Y-95462358D01*
X88022382Y-95491965D01*
X87998923Y-95497597D01*
X87798956Y-95566257D01*
X87776987Y-95576223D01*
X87593610Y-95681456D01*
X87573921Y-95695396D01*
X87413752Y-95833407D01*
X87397055Y-95850819D01*
X87265872Y-96016627D01*
X87252769Y-96036882D01*
X87155307Y-96224504D01*
X87146269Y-96246872D01*
X87086044Y-96449540D01*
X87081400Y-96473213D01*
X87060585Y-96683612D01*
X87060501Y-96707736D01*
X87079847Y-96918275D01*
X87084326Y-96941979D01*
X87143135Y-97145062D01*
X87152015Y-97167492D01*
X87248164Y-97355790D01*
X87261126Y-97376137D01*
X87391148Y-97542857D01*
X87407724Y-97560385D01*
X87565061Y-97697881D01*
X87351613Y-97666362D01*
X87333061Y-97665000D01*
X86645299Y-97665000D01*
X86634009Y-97665503D01*
X86473927Y-97679790D01*
X86451705Y-97683788D01*
X86243711Y-97740689D01*
X86222548Y-97748559D01*
X86027918Y-97841392D01*
X86008483Y-97852886D01*
X85833368Y-97978719D01*
X85816276Y-97993473D01*
X85666212Y-98148328D01*
X85652003Y-98165875D01*
X85531732Y-98344856D01*
X85520854Y-98364643D01*
X85434180Y-98562093D01*
X85426978Y-98583492D01*
X85376638Y-98793171D01*
X85373340Y-98815508D01*
X85360927Y-99030787D01*
X82135000Y-99030787D01*
X82135000Y-93530787D01*
X85360927Y-93530787D01*
X85361636Y-93553355D01*
X85387542Y-93767429D01*
X85392236Y-93789515D01*
X85455642Y-93995619D01*
X85464174Y-94016525D01*
X85563076Y-94208144D01*
X85575174Y-94227208D01*
X85706445Y-94398284D01*
X85721729Y-94414904D01*
X85881221Y-94560030D01*
X85899205Y-94573681D01*
X86081875Y-94688270D01*
X86101994Y-94698521D01*
X86302070Y-94778951D01*
X86330887Y-94786754D01*
X86648387Y-94833638D01*
X86666939Y-94835000D01*
X87354701Y-94835000D01*
X87365991Y-94834497D01*
X87526073Y-94820210D01*
X87548295Y-94816212D01*
X87756289Y-94759311D01*
X87777452Y-94751441D01*
X87972082Y-94658608D01*
X87991517Y-94647114D01*
X88166632Y-94521281D01*
X88183724Y-94506527D01*
X88333788Y-94351672D01*
X88347997Y-94334125D01*
X88468268Y-94155144D01*
X88479146Y-94135357D01*
X88565820Y-93937907D01*
X88573022Y-93916508D01*
X88623362Y-93706829D01*
X88626660Y-93684492D01*
X88639073Y-93469213D01*
X88638364Y-93446645D01*
X88612458Y-93232571D01*
X88607764Y-93210485D01*
X88544358Y-93004381D01*
X88535826Y-92983475D01*
X88436924Y-92791856D01*
X88424826Y-92772792D01*
X88293555Y-92601716D01*
X88278271Y-92585096D01*
X88118779Y-92439970D01*
X88100795Y-92426319D01*
X87918125Y-92311730D01*
X87898006Y-92301479D01*
X87697930Y-92221049D01*
X87669113Y-92213246D01*
X87351613Y-92166362D01*
X87333061Y-92165000D01*
X86645299Y-92165000D01*
X86634009Y-92165503D01*
X86473927Y-92179790D01*
X86451705Y-92183788D01*
X86243711Y-92240689D01*
X86222548Y-92248559D01*
X86027918Y-92341392D01*
X86008483Y-92352886D01*
X85833368Y-92478719D01*
X85816276Y-92493473D01*
X85666212Y-92648328D01*
X85652003Y-92665875D01*
X85531732Y-92844856D01*
X85520854Y-92864643D01*
X85434180Y-93062093D01*
X85426978Y-93083492D01*
X85376638Y-93293171D01*
X85373340Y-93315508D01*
X85360927Y-93530787D01*
X82135000Y-93530787D01*
X82135000Y-89150000D01*
X123507163Y-89150000D01*
X123507163Y-90850000D01*
X123511490Y-90882870D01*
X123580599Y-91140789D01*
X123605984Y-91189553D01*
X123721138Y-91326788D01*
X123754926Y-91355139D01*
X123910073Y-91444713D01*
X123951520Y-91459799D01*
X123976325Y-91464173D01*
X123891580Y-91545016D01*
X123877350Y-91561099D01*
X123739782Y-91745997D01*
X123728466Y-91764249D01*
X123624018Y-91969683D01*
X123615938Y-91989580D01*
X123547597Y-92209674D01*
X123542986Y-92230648D01*
X123512705Y-92459111D01*
X123511693Y-92480563D01*
X123520339Y-92710862D01*
X123522957Y-92732176D01*
X123570282Y-92957725D01*
X123576453Y-92978295D01*
X123661104Y-93192646D01*
X123670652Y-93211881D01*
X123790209Y-93408905D01*
X123802862Y-93426257D01*
X123953906Y-93600320D01*
X123969302Y-93615292D01*
X124147515Y-93761417D01*
X124165213Y-93773580D01*
X124228164Y-93809414D01*
X124075070Y-93912483D01*
X124058334Y-93925940D01*
X123891580Y-94085016D01*
X123877350Y-94101099D01*
X123739782Y-94285997D01*
X123728466Y-94304249D01*
X123624018Y-94509683D01*
X123615938Y-94529580D01*
X123547597Y-94749674D01*
X123542986Y-94770648D01*
X123512705Y-94999111D01*
X123511693Y-95020563D01*
X123520339Y-95250862D01*
X123522957Y-95272176D01*
X123570282Y-95497725D01*
X123576453Y-95518295D01*
X123661104Y-95732646D01*
X123670652Y-95751881D01*
X123790209Y-95948905D01*
X123802862Y-95966257D01*
X123953906Y-96140320D01*
X123969302Y-96155292D01*
X124147515Y-96301417D01*
X124165213Y-96313580D01*
X124228164Y-96349414D01*
X124075070Y-96452483D01*
X124058334Y-96465940D01*
X123891580Y-96625016D01*
X123877350Y-96641099D01*
X123739782Y-96825997D01*
X123728466Y-96844249D01*
X123624018Y-97049683D01*
X123615938Y-97069580D01*
X123547597Y-97289674D01*
X123542986Y-97310647D01*
X123537861Y-97349312D01*
X123548825Y-97420027D01*
X123596280Y-97473589D01*
X123663760Y-97493000D01*
X126334306Y-97493000D01*
X126402967Y-97472839D01*
X126449829Y-97418758D01*
X126458599Y-97339921D01*
X126429718Y-97202275D01*
X126423547Y-97181705D01*
X126338896Y-96967354D01*
X126329348Y-96948119D01*
X126209791Y-96751095D01*
X126197138Y-96733743D01*
X126046094Y-96559680D01*
X126030698Y-96544708D01*
X125852485Y-96398583D01*
X125834787Y-96386420D01*
X125771836Y-96350586D01*
X125924930Y-96247517D01*
X125941666Y-96234060D01*
X126108420Y-96074984D01*
X126122650Y-96058901D01*
X126260218Y-95874003D01*
X126271534Y-95855751D01*
X126375982Y-95650317D01*
X126384062Y-95630420D01*
X126452403Y-95410326D01*
X126457014Y-95389352D01*
X126487295Y-95160889D01*
X126488307Y-95139437D01*
X126479661Y-94909138D01*
X126477043Y-94887824D01*
X126429718Y-94662275D01*
X126423547Y-94641705D01*
X126338896Y-94427354D01*
X126329348Y-94408119D01*
X126209791Y-94211095D01*
X126197138Y-94193743D01*
X126046094Y-94019680D01*
X126030698Y-94004708D01*
X125852485Y-93858583D01*
X125834787Y-93846420D01*
X125771836Y-93810586D01*
X125924930Y-93707517D01*
X125941666Y-93694060D01*
X126108420Y-93534984D01*
X126122650Y-93518901D01*
X126260218Y-93334003D01*
X126271534Y-93315751D01*
X126375982Y-93110317D01*
X126384062Y-93090420D01*
X126452403Y-92870326D01*
X126457014Y-92849352D01*
X126487295Y-92620889D01*
X126488307Y-92599437D01*
X126479661Y-92369138D01*
X126477043Y-92347824D01*
X126429718Y-92122275D01*
X126423547Y-92101705D01*
X126338896Y-91887354D01*
X126329348Y-91868119D01*
X126209791Y-91671095D01*
X126197138Y-91653743D01*
X126046094Y-91479680D01*
X126030698Y-91464708D01*
X126016167Y-91452793D01*
X126140789Y-91419401D01*
X126189553Y-91394016D01*
X126326788Y-91278862D01*
X126355139Y-91245074D01*
X126444713Y-91089927D01*
X126459799Y-91048480D01*
X126490908Y-90872053D01*
X126492837Y-90850000D01*
X126492837Y-89150000D01*
X126488510Y-89117130D01*
X126419401Y-88859212D01*
X126394016Y-88810448D01*
X126278862Y-88673212D01*
X126245074Y-88644861D01*
X126089927Y-88555287D01*
X126048480Y-88540201D01*
X125872053Y-88509092D01*
X125850000Y-88507163D01*
X124150000Y-88507163D01*
X124117130Y-88511490D01*
X123859212Y-88580599D01*
X123810448Y-88605984D01*
X123673212Y-88721138D01*
X123644861Y-88754926D01*
X123555287Y-88910073D01*
X123540201Y-88951520D01*
X123509092Y-89127947D01*
X123507163Y-89150000D01*
X82135000Y-89150000D01*
X82135000Y-84440079D01*
X123541401Y-84440079D01*
X123570282Y-84577725D01*
X123576453Y-84598295D01*
X123661104Y-84812646D01*
X123670652Y-84831881D01*
X123790209Y-85028905D01*
X123802862Y-85046257D01*
X123953906Y-85220320D01*
X123969302Y-85235292D01*
X124147515Y-85381417D01*
X124165213Y-85393580D01*
X124365498Y-85507589D01*
X124384993Y-85516597D01*
X124601624Y-85595230D01*
X124628269Y-85601750D01*
X124729313Y-85615143D01*
X124800028Y-85604179D01*
X124853589Y-85556724D01*
X124873000Y-85489244D01*
X124873000Y-84414000D01*
X125127000Y-84414000D01*
X125127000Y-85497100D01*
X125147161Y-85565761D01*
X125201242Y-85612623D01*
X125285905Y-85620027D01*
X125484610Y-85568454D01*
X125504866Y-85561321D01*
X125714992Y-85466666D01*
X125733757Y-85456222D01*
X125924930Y-85327517D01*
X125941666Y-85314060D01*
X126108420Y-85154984D01*
X126122650Y-85138901D01*
X126260218Y-84954003D01*
X126271534Y-84935751D01*
X126375982Y-84730317D01*
X126384062Y-84710420D01*
X126452403Y-84490326D01*
X126457014Y-84469353D01*
X126462139Y-84430688D01*
X126451175Y-84359973D01*
X126403720Y-84306411D01*
X126336240Y-84287000D01*
X125254000Y-84287000D01*
X125185339Y-84307161D01*
X125138477Y-84361242D01*
X125127000Y-84414000D01*
X124873000Y-84414000D01*
X124852839Y-84345339D01*
X124798758Y-84298477D01*
X124746000Y-84287000D01*
X123665694Y-84287000D01*
X123597033Y-84307161D01*
X123550171Y-84361242D01*
X123541401Y-84440079D01*
X82135000Y-84440079D01*
X82135000Y-81030787D01*
X85360927Y-81030787D01*
X85361636Y-81053355D01*
X85387542Y-81267429D01*
X85392236Y-81289515D01*
X85455642Y-81495619D01*
X85464174Y-81516525D01*
X85563076Y-81708144D01*
X85575174Y-81727208D01*
X85706445Y-81898284D01*
X85721729Y-81914904D01*
X85881221Y-82060030D01*
X85899205Y-82073681D01*
X86081875Y-82188270D01*
X86101994Y-82198521D01*
X86302070Y-82278951D01*
X86330887Y-82286754D01*
X86648387Y-82333638D01*
X86666939Y-82335000D01*
X87354701Y-82335000D01*
X87365991Y-82334497D01*
X87526073Y-82320210D01*
X87548295Y-82316212D01*
X87756289Y-82259311D01*
X87777452Y-82251441D01*
X87972082Y-82158608D01*
X87991517Y-82147114D01*
X88166632Y-82021281D01*
X88183724Y-82006527D01*
X88333788Y-81851672D01*
X88347997Y-81834125D01*
X88468268Y-81655144D01*
X88479146Y-81635357D01*
X88500454Y-81586816D01*
X88563076Y-81708144D01*
X88575174Y-81727208D01*
X88706445Y-81898284D01*
X88721729Y-81914904D01*
X88881221Y-82060030D01*
X88899205Y-82073681D01*
X89081875Y-82188270D01*
X89101994Y-82198521D01*
X89302070Y-82278951D01*
X89330887Y-82286754D01*
X89648387Y-82333638D01*
X89666939Y-82335000D01*
X89746000Y-82335000D01*
X89814661Y-82314839D01*
X89861523Y-82260758D01*
X89873000Y-82208000D01*
X89873000Y-81254000D01*
X90127000Y-81254000D01*
X90127000Y-82208000D01*
X90147161Y-82276661D01*
X90201242Y-82323523D01*
X90254000Y-82335000D01*
X90354701Y-82335000D01*
X90365991Y-82334497D01*
X90526073Y-82320210D01*
X90548295Y-82316212D01*
X90756289Y-82259311D01*
X90777452Y-82251441D01*
X90972082Y-82158608D01*
X90991517Y-82147114D01*
X91166632Y-82021281D01*
X91183724Y-82006527D01*
X91333788Y-81851672D01*
X91347997Y-81834125D01*
X91468268Y-81655144D01*
X91479146Y-81635357D01*
X91565820Y-81437907D01*
X91573022Y-81416508D01*
X91604919Y-81283648D01*
X91601344Y-81212177D01*
X91559696Y-81153985D01*
X91481428Y-81127000D01*
X90254000Y-81127000D01*
X90185339Y-81147161D01*
X90138477Y-81201242D01*
X90127000Y-81254000D01*
X89873000Y-81254000D01*
X89873000Y-79792000D01*
X90127000Y-79792000D01*
X90127000Y-80746000D01*
X90147161Y-80814661D01*
X90201242Y-80861523D01*
X90254000Y-80873000D01*
X91485816Y-80873000D01*
X91554477Y-80852839D01*
X91601339Y-80798758D01*
X91607202Y-80708657D01*
X91544358Y-80504381D01*
X91535826Y-80483475D01*
X91441128Y-80300000D01*
X92357163Y-80300000D01*
X92357163Y-81700000D01*
X92361490Y-81732870D01*
X92430599Y-81990789D01*
X92455984Y-82039553D01*
X92571138Y-82176788D01*
X92604926Y-82205139D01*
X92760073Y-82294713D01*
X92801520Y-82309799D01*
X92977947Y-82340908D01*
X93000000Y-82342837D01*
X95000000Y-82342837D01*
X95032870Y-82338510D01*
X95290789Y-82269401D01*
X95339553Y-82244016D01*
X95476788Y-82128862D01*
X95505139Y-82095074D01*
X95594713Y-81939927D01*
X95609799Y-81898480D01*
X95640908Y-81722053D01*
X95642837Y-81700000D01*
X95642837Y-80993016D01*
X116360487Y-80993016D01*
X116377415Y-81235092D01*
X116380461Y-81255234D01*
X116435874Y-81491489D01*
X116442102Y-81510884D01*
X116534575Y-81735240D01*
X116543823Y-81753390D01*
X116670977Y-81960076D01*
X116683007Y-81976514D01*
X116841570Y-82160212D01*
X116856075Y-82174516D01*
X117041969Y-82330499D01*
X117058573Y-82342299D01*
X117267014Y-82466555D01*
X117285292Y-82475549D01*
X117510917Y-82564880D01*
X117530398Y-82570835D01*
X117767404Y-82622944D01*
X117787586Y-82625709D01*
X118029875Y-82639255D01*
X118050239Y-82638757D01*
X118291576Y-82613392D01*
X118311599Y-82609645D01*
X118545776Y-82546020D01*
X118564942Y-82539120D01*
X118785935Y-82438874D01*
X118803752Y-82428998D01*
X119005874Y-82294708D01*
X119021882Y-82282111D01*
X119199934Y-82117233D01*
X119213722Y-82102238D01*
X119363123Y-81911014D01*
X119374337Y-81894008D01*
X119491242Y-81681358D01*
X119499592Y-81662777D01*
X119580995Y-81434171D01*
X119586268Y-81414495D01*
X119630074Y-81175815D01*
X119632153Y-81154219D01*
X119635025Y-80879997D01*
X119633398Y-80858362D01*
X119594600Y-80618817D01*
X119589741Y-80599034D01*
X119513143Y-80368773D01*
X119505184Y-80350023D01*
X119392758Y-80134971D01*
X119381903Y-80117733D01*
X119236540Y-79923422D01*
X119223068Y-79908142D01*
X119048508Y-79739572D01*
X119032768Y-79726642D01*
X118833502Y-79588148D01*
X118815896Y-79577901D01*
X118597052Y-79473049D01*
X118578034Y-79465749D01*
X118345240Y-79397234D01*
X118325301Y-79393068D01*
X118084548Y-79362653D01*
X118064198Y-79361729D01*
X117821679Y-79370198D01*
X117801443Y-79372540D01*
X117563398Y-79419675D01*
X117543798Y-79425221D01*
X117316351Y-79509807D01*
X117297888Y-79518416D01*
X117086890Y-79638280D01*
X117070042Y-79649730D01*
X116880923Y-79801786D01*
X116866123Y-79815782D01*
X116703747Y-79996118D01*
X116691374Y-80012301D01*
X116559920Y-80216279D01*
X116550294Y-80234231D01*
X116453142Y-80456601D01*
X116446510Y-80475862D01*
X116386161Y-80710905D01*
X116382694Y-80730979D01*
X116360701Y-80972647D01*
X116360487Y-80993016D01*
X95642837Y-80993016D01*
X95642837Y-80300000D01*
X95638510Y-80267130D01*
X95569401Y-80009212D01*
X95544016Y-79960448D01*
X95509694Y-79919544D01*
X95688018Y-79877226D01*
X95710855Y-79869452D01*
X95903626Y-79782615D01*
X95924581Y-79770662D01*
X96097453Y-79648940D01*
X96115770Y-79633241D01*
X96262506Y-79481025D01*
X96277524Y-79462145D01*
X96392830Y-79284929D01*
X96404006Y-79263550D01*
X96483721Y-79067726D01*
X96490654Y-79044619D01*
X96531901Y-78837256D01*
X96534340Y-78812923D01*
X96535098Y-78595697D01*
X96532829Y-78571348D01*
X96493031Y-78363701D01*
X96486260Y-78340546D01*
X96407914Y-78144171D01*
X96396887Y-78122715D01*
X96282821Y-77944698D01*
X96267935Y-77925714D01*
X96139993Y-77791126D01*
X96256289Y-77759311D01*
X96277452Y-77751441D01*
X96472082Y-77658608D01*
X96491517Y-77647114D01*
X96666632Y-77521281D01*
X96683724Y-77506527D01*
X96833788Y-77351672D01*
X96847997Y-77334125D01*
X96968268Y-77155144D01*
X96979146Y-77135357D01*
X97065820Y-76937907D01*
X97073022Y-76916508D01*
X97123362Y-76706829D01*
X97126660Y-76684492D01*
X97139073Y-76469213D01*
X97138364Y-76446645D01*
X97112458Y-76232571D01*
X97107764Y-76210485D01*
X97044358Y-76004381D01*
X97035826Y-75983475D01*
X96936924Y-75791856D01*
X96924826Y-75772792D01*
X96793555Y-75601716D01*
X96778271Y-75585096D01*
X96618779Y-75439970D01*
X96600795Y-75426319D01*
X96418125Y-75311730D01*
X96398006Y-75301479D01*
X96197930Y-75221049D01*
X96169113Y-75213246D01*
X95851613Y-75166362D01*
X95833061Y-75165000D01*
X95145299Y-75165000D01*
X95134009Y-75165503D01*
X94973927Y-75179790D01*
X94951705Y-75183788D01*
X94743711Y-75240689D01*
X94722548Y-75248559D01*
X94527918Y-75341392D01*
X94508483Y-75352886D01*
X94333368Y-75478719D01*
X94316276Y-75493473D01*
X94166212Y-75648328D01*
X94152003Y-75665875D01*
X94031732Y-75844856D01*
X94020854Y-75864643D01*
X93934180Y-76062093D01*
X93926978Y-76083492D01*
X93876638Y-76293171D01*
X93873340Y-76315508D01*
X93860927Y-76530787D01*
X93861636Y-76553355D01*
X93887542Y-76767429D01*
X93892236Y-76789515D01*
X93955642Y-76995619D01*
X93964174Y-77016525D01*
X94063076Y-77208144D01*
X94075174Y-77227208D01*
X94206445Y-77398284D01*
X94221729Y-77414904D01*
X94381221Y-77560030D01*
X94399205Y-77573681D01*
X94581875Y-77688270D01*
X94583102Y-77688895D01*
X94573921Y-77695396D01*
X94413752Y-77833407D01*
X94397055Y-77850819D01*
X94265872Y-78016627D01*
X94252769Y-78036882D01*
X94155307Y-78224504D01*
X94146269Y-78246872D01*
X94086044Y-78449540D01*
X94081400Y-78473213D01*
X94060585Y-78683612D01*
X94060501Y-78707736D01*
X94079847Y-78918275D01*
X94084326Y-78941979D01*
X94143135Y-79145062D01*
X94152015Y-79167492D01*
X94248164Y-79355790D01*
X94261126Y-79376137D01*
X94391148Y-79542857D01*
X94407724Y-79560385D01*
X94518467Y-79657163D01*
X93000000Y-79657163D01*
X92967130Y-79661490D01*
X92709212Y-79730599D01*
X92660448Y-79755984D01*
X92523212Y-79871138D01*
X92494861Y-79904926D01*
X92405287Y-80060073D01*
X92390201Y-80101520D01*
X92359092Y-80277947D01*
X92357163Y-80300000D01*
X91441128Y-80300000D01*
X91436924Y-80291856D01*
X91424826Y-80272792D01*
X91293555Y-80101716D01*
X91278271Y-80085096D01*
X91118779Y-79939970D01*
X91100795Y-79926319D01*
X90918125Y-79811730D01*
X90898006Y-79801479D01*
X90697930Y-79721049D01*
X90669113Y-79713246D01*
X90351613Y-79666362D01*
X90333061Y-79665000D01*
X90254000Y-79665000D01*
X90185339Y-79685161D01*
X90138477Y-79739242D01*
X90127000Y-79792000D01*
X89873000Y-79792000D01*
X89852839Y-79723339D01*
X89798758Y-79676477D01*
X89746000Y-79665000D01*
X89645299Y-79665000D01*
X89634009Y-79665503D01*
X89473927Y-79679790D01*
X89451705Y-79683788D01*
X89243711Y-79740689D01*
X89222548Y-79748559D01*
X89027918Y-79841392D01*
X89008483Y-79852886D01*
X88833368Y-79978719D01*
X88816276Y-79993473D01*
X88666212Y-80148328D01*
X88652003Y-80165875D01*
X88531732Y-80344856D01*
X88520854Y-80364643D01*
X88499546Y-80413184D01*
X88436924Y-80291856D01*
X88424826Y-80272792D01*
X88293555Y-80101716D01*
X88278271Y-80085096D01*
X88118779Y-79939970D01*
X88100795Y-79926319D01*
X88085439Y-79916686D01*
X88223085Y-79937135D01*
X88247177Y-79938398D01*
X88458410Y-79929360D01*
X88482305Y-79926044D01*
X88688018Y-79877226D01*
X88710855Y-79869452D01*
X88903626Y-79782615D01*
X88924581Y-79770662D01*
X89097453Y-79648940D01*
X89115770Y-79633241D01*
X89262506Y-79481025D01*
X89277524Y-79462145D01*
X89392830Y-79284929D01*
X89404006Y-79263550D01*
X89483721Y-79067726D01*
X89490654Y-79044619D01*
X89531901Y-78837256D01*
X89534340Y-78812923D01*
X89535098Y-78595697D01*
X89532829Y-78571348D01*
X89493031Y-78363701D01*
X89486260Y-78340546D01*
X89407914Y-78144171D01*
X89396887Y-78122715D01*
X89282821Y-77944698D01*
X89267935Y-77925714D01*
X89122265Y-77772478D01*
X89104059Y-77756651D01*
X88932041Y-77633725D01*
X88911170Y-77621626D01*
X88719010Y-77533445D01*
X88696227Y-77525512D01*
X88490860Y-77475259D01*
X88466988Y-77471776D01*
X88255823Y-77461264D01*
X88231725Y-77462358D01*
X88022382Y-77491965D01*
X87998923Y-77497597D01*
X87798956Y-77566257D01*
X87776987Y-77576223D01*
X87593610Y-77681456D01*
X87573921Y-77695396D01*
X87413752Y-77833407D01*
X87397055Y-77850819D01*
X87265872Y-78016627D01*
X87252769Y-78036882D01*
X87155307Y-78224504D01*
X87146269Y-78246872D01*
X87086044Y-78449540D01*
X87081400Y-78473213D01*
X87060585Y-78683612D01*
X87060501Y-78707736D01*
X87079847Y-78918275D01*
X87084326Y-78941979D01*
X87143135Y-79145062D01*
X87152015Y-79167492D01*
X87248164Y-79355790D01*
X87261126Y-79376137D01*
X87391148Y-79542857D01*
X87407724Y-79560385D01*
X87565061Y-79697881D01*
X87351613Y-79666362D01*
X87333061Y-79665000D01*
X86645299Y-79665000D01*
X86634009Y-79665503D01*
X86473927Y-79679790D01*
X86451705Y-79683788D01*
X86243711Y-79740689D01*
X86222548Y-79748559D01*
X86027918Y-79841392D01*
X86008483Y-79852886D01*
X85833368Y-79978719D01*
X85816276Y-79993473D01*
X85666212Y-80148328D01*
X85652003Y-80165875D01*
X85531732Y-80344856D01*
X85520854Y-80364643D01*
X85434180Y-80562093D01*
X85426978Y-80583492D01*
X85376638Y-80793171D01*
X85373340Y-80815508D01*
X85360927Y-81030787D01*
X82135000Y-81030787D01*
X82135000Y-75530787D01*
X85360927Y-75530787D01*
X85361636Y-75553355D01*
X85387542Y-75767429D01*
X85392236Y-75789515D01*
X85455642Y-75995619D01*
X85464174Y-76016525D01*
X85563076Y-76208144D01*
X85575174Y-76227208D01*
X85706445Y-76398284D01*
X85721729Y-76414904D01*
X85881221Y-76560030D01*
X85899205Y-76573681D01*
X86081875Y-76688270D01*
X86101994Y-76698521D01*
X86302070Y-76778951D01*
X86330887Y-76786754D01*
X86648387Y-76833638D01*
X86666939Y-76835000D01*
X87354701Y-76835000D01*
X87365991Y-76834497D01*
X87526073Y-76820210D01*
X87548295Y-76816212D01*
X87756289Y-76759311D01*
X87777452Y-76751441D01*
X87972082Y-76658608D01*
X87991517Y-76647114D01*
X88166632Y-76521281D01*
X88183724Y-76506527D01*
X88333788Y-76351672D01*
X88347997Y-76334125D01*
X88468268Y-76155144D01*
X88479146Y-76135357D01*
X88565820Y-75937907D01*
X88573022Y-75916508D01*
X88623362Y-75706829D01*
X88626660Y-75684492D01*
X88639073Y-75469213D01*
X88638364Y-75446645D01*
X88612458Y-75232571D01*
X88607764Y-75210485D01*
X88544358Y-75004381D01*
X88539720Y-74993016D01*
X116360487Y-74993016D01*
X116377415Y-75235092D01*
X116380461Y-75255234D01*
X116435874Y-75491489D01*
X116442102Y-75510884D01*
X116534575Y-75735240D01*
X116543823Y-75753390D01*
X116670977Y-75960076D01*
X116683007Y-75976514D01*
X116841570Y-76160212D01*
X116856075Y-76174516D01*
X117041969Y-76330499D01*
X117058573Y-76342299D01*
X117267014Y-76466555D01*
X117285292Y-76475549D01*
X117510917Y-76564880D01*
X117530398Y-76570835D01*
X117767404Y-76622944D01*
X117787586Y-76625709D01*
X118029875Y-76639255D01*
X118050239Y-76638757D01*
X118291576Y-76613392D01*
X118311599Y-76609645D01*
X118545776Y-76546020D01*
X118564942Y-76539120D01*
X118785935Y-76438874D01*
X118803752Y-76428998D01*
X119005874Y-76294708D01*
X119021882Y-76282111D01*
X119199934Y-76117233D01*
X119213722Y-76102238D01*
X119363123Y-75911014D01*
X119374337Y-75894008D01*
X119491242Y-75681358D01*
X119499592Y-75662777D01*
X119580995Y-75434171D01*
X119586268Y-75414495D01*
X119630074Y-75175815D01*
X119632153Y-75154219D01*
X119635025Y-74879997D01*
X119633398Y-74858362D01*
X119594600Y-74618817D01*
X119589741Y-74599034D01*
X119513143Y-74368773D01*
X119505184Y-74350023D01*
X119392758Y-74134971D01*
X119381903Y-74117733D01*
X119236540Y-73923422D01*
X119223068Y-73908142D01*
X119048508Y-73739572D01*
X119032768Y-73726642D01*
X118833502Y-73588148D01*
X118815896Y-73577901D01*
X118597052Y-73473049D01*
X118578034Y-73465749D01*
X118345240Y-73397234D01*
X118325301Y-73393068D01*
X118084548Y-73362653D01*
X118064198Y-73361729D01*
X117821679Y-73370198D01*
X117801443Y-73372540D01*
X117563398Y-73419675D01*
X117543798Y-73425221D01*
X117316351Y-73509807D01*
X117297888Y-73518416D01*
X117086890Y-73638280D01*
X117070042Y-73649730D01*
X116880923Y-73801786D01*
X116866123Y-73815782D01*
X116703747Y-73996118D01*
X116691374Y-74012301D01*
X116559920Y-74216279D01*
X116550294Y-74234231D01*
X116453142Y-74456601D01*
X116446510Y-74475862D01*
X116386161Y-74710905D01*
X116382694Y-74730979D01*
X116360701Y-74972647D01*
X116360487Y-74993016D01*
X88539720Y-74993016D01*
X88535826Y-74983475D01*
X88436924Y-74791856D01*
X88424826Y-74772792D01*
X88293555Y-74601716D01*
X88278271Y-74585096D01*
X88118779Y-74439970D01*
X88100795Y-74426319D01*
X87918125Y-74311730D01*
X87898006Y-74301479D01*
X87697930Y-74221049D01*
X87669113Y-74213246D01*
X87351613Y-74166362D01*
X87333061Y-74165000D01*
X86645299Y-74165000D01*
X86634009Y-74165503D01*
X86473927Y-74179790D01*
X86451705Y-74183788D01*
X86243711Y-74240689D01*
X86222548Y-74248559D01*
X86027918Y-74341392D01*
X86008483Y-74352886D01*
X85833368Y-74478719D01*
X85816276Y-74493473D01*
X85666212Y-74648328D01*
X85652003Y-74665875D01*
X85531732Y-74844856D01*
X85520854Y-74864643D01*
X85434180Y-75062093D01*
X85426978Y-75083492D01*
X85376638Y-75293171D01*
X85373340Y-75315508D01*
X85360927Y-75530787D01*
X82135000Y-75530787D01*
X82135000Y-73150000D01*
X123507163Y-73150000D01*
X123507163Y-74850000D01*
X123511490Y-74882870D01*
X123580599Y-75140789D01*
X123605984Y-75189553D01*
X123721138Y-75326788D01*
X123754926Y-75355139D01*
X123910073Y-75444713D01*
X123951520Y-75459799D01*
X123976325Y-75464173D01*
X123891580Y-75545016D01*
X123877350Y-75561099D01*
X123739782Y-75745997D01*
X123728466Y-75764249D01*
X123624018Y-75969683D01*
X123615938Y-75989580D01*
X123547597Y-76209674D01*
X123542986Y-76230648D01*
X123512705Y-76459111D01*
X123511693Y-76480563D01*
X123520339Y-76710862D01*
X123522957Y-76732176D01*
X123570282Y-76957725D01*
X123576453Y-76978295D01*
X123661104Y-77192646D01*
X123670652Y-77211881D01*
X123790209Y-77408905D01*
X123802862Y-77426257D01*
X123953906Y-77600320D01*
X123969302Y-77615292D01*
X124147515Y-77761417D01*
X124165213Y-77773580D01*
X124228164Y-77809414D01*
X124075070Y-77912483D01*
X124058334Y-77925940D01*
X123891580Y-78085016D01*
X123877350Y-78101099D01*
X123739782Y-78285997D01*
X123728466Y-78304249D01*
X123624018Y-78509683D01*
X123615938Y-78529580D01*
X123547597Y-78749674D01*
X123542986Y-78770648D01*
X123512705Y-78999111D01*
X123511693Y-79020563D01*
X123520339Y-79250862D01*
X123522957Y-79272176D01*
X123570282Y-79497725D01*
X123576453Y-79518295D01*
X123661104Y-79732646D01*
X123670652Y-79751881D01*
X123790209Y-79948905D01*
X123802862Y-79966257D01*
X123953906Y-80140320D01*
X123969302Y-80155292D01*
X124147515Y-80301417D01*
X124165213Y-80313580D01*
X124228164Y-80349414D01*
X124075070Y-80452483D01*
X124058334Y-80465940D01*
X123891580Y-80625016D01*
X123877350Y-80641099D01*
X123739782Y-80825997D01*
X123728466Y-80844249D01*
X123624018Y-81049683D01*
X123615938Y-81069580D01*
X123547597Y-81289674D01*
X123542986Y-81310648D01*
X123512705Y-81539111D01*
X123511693Y-81560563D01*
X123520339Y-81790862D01*
X123522957Y-81812176D01*
X123570282Y-82037725D01*
X123576453Y-82058295D01*
X123661104Y-82272646D01*
X123670652Y-82291881D01*
X123790209Y-82488905D01*
X123802862Y-82506257D01*
X123953906Y-82680320D01*
X123969302Y-82695292D01*
X124147515Y-82841417D01*
X124165213Y-82853580D01*
X124228164Y-82889414D01*
X124075070Y-82992483D01*
X124058334Y-83005940D01*
X123891580Y-83165016D01*
X123877350Y-83181099D01*
X123739782Y-83365997D01*
X123728466Y-83384249D01*
X123624018Y-83589683D01*
X123615938Y-83609580D01*
X123547597Y-83829674D01*
X123542986Y-83850647D01*
X123537861Y-83889312D01*
X123548825Y-83960027D01*
X123596280Y-84013589D01*
X123663760Y-84033000D01*
X126334306Y-84033000D01*
X126402967Y-84012839D01*
X126449829Y-83958758D01*
X126458599Y-83879921D01*
X126429718Y-83742275D01*
X126423547Y-83721705D01*
X126338896Y-83507354D01*
X126329348Y-83488119D01*
X126209791Y-83291095D01*
X126197138Y-83273743D01*
X126046094Y-83099680D01*
X126030698Y-83084708D01*
X125852485Y-82938583D01*
X125834787Y-82926420D01*
X125771836Y-82890586D01*
X125924930Y-82787517D01*
X125941666Y-82774060D01*
X126108420Y-82614984D01*
X126122650Y-82598901D01*
X126260218Y-82414003D01*
X126271534Y-82395751D01*
X126375982Y-82190317D01*
X126384062Y-82170420D01*
X126452403Y-81950326D01*
X126457014Y-81929352D01*
X126487295Y-81700889D01*
X126488307Y-81679437D01*
X126479661Y-81449138D01*
X126477043Y-81427824D01*
X126429718Y-81202275D01*
X126423547Y-81181705D01*
X126338896Y-80967354D01*
X126329348Y-80948119D01*
X126209791Y-80751095D01*
X126197138Y-80733743D01*
X126046094Y-80559680D01*
X126030698Y-80544708D01*
X125852485Y-80398583D01*
X125834787Y-80386420D01*
X125771836Y-80350586D01*
X125924930Y-80247517D01*
X125941666Y-80234060D01*
X126108420Y-80074984D01*
X126122650Y-80058901D01*
X126260218Y-79874003D01*
X126271534Y-79855751D01*
X126375982Y-79650317D01*
X126384062Y-79630420D01*
X126452403Y-79410326D01*
X126457014Y-79389352D01*
X126487295Y-79160889D01*
X126488307Y-79139437D01*
X126479661Y-78909138D01*
X126477043Y-78887824D01*
X126429718Y-78662275D01*
X126423547Y-78641705D01*
X126338896Y-78427354D01*
X126329348Y-78408119D01*
X126209791Y-78211095D01*
X126197138Y-78193743D01*
X126046094Y-78019680D01*
X126030698Y-78004708D01*
X125852485Y-77858583D01*
X125834787Y-77846420D01*
X125771836Y-77810586D01*
X125924930Y-77707517D01*
X125941666Y-77694060D01*
X126108420Y-77534984D01*
X126122650Y-77518901D01*
X126260218Y-77334003D01*
X126271534Y-77315751D01*
X126375982Y-77110317D01*
X126384062Y-77090420D01*
X126452403Y-76870326D01*
X126457014Y-76849352D01*
X126487295Y-76620889D01*
X126488307Y-76599437D01*
X126479661Y-76369138D01*
X126477043Y-76347824D01*
X126429718Y-76122275D01*
X126423547Y-76101705D01*
X126338896Y-75887354D01*
X126329348Y-75868119D01*
X126209791Y-75671095D01*
X126197138Y-75653743D01*
X126046094Y-75479680D01*
X126030698Y-75464708D01*
X126016167Y-75452793D01*
X126140789Y-75419401D01*
X126189553Y-75394016D01*
X126326788Y-75278862D01*
X126355139Y-75245074D01*
X126444713Y-75089927D01*
X126459799Y-75048480D01*
X126490908Y-74872053D01*
X126492837Y-74850000D01*
X126492837Y-73150000D01*
X126488510Y-73117130D01*
X126419401Y-72859212D01*
X126394016Y-72810448D01*
X126278862Y-72673212D01*
X126245074Y-72644861D01*
X126089927Y-72555287D01*
X126048480Y-72540201D01*
X125872053Y-72509092D01*
X125850000Y-72507163D01*
X124150000Y-72507163D01*
X124117130Y-72511490D01*
X123859212Y-72580599D01*
X123810448Y-72605984D01*
X123673212Y-72721138D01*
X123644861Y-72754926D01*
X123555287Y-72910073D01*
X123540201Y-72951520D01*
X123509092Y-73127947D01*
X123507163Y-73150000D01*
X82135000Y-73150000D01*
X82135000Y-71207110D01*
X106001006Y-71207110D01*
X106006111Y-71278488D01*
X106060075Y-71343194D01*
X106267015Y-71466555D01*
X106285292Y-71475549D01*
X106510917Y-71564880D01*
X106530398Y-71570835D01*
X106767404Y-71622944D01*
X106787586Y-71625709D01*
X107029875Y-71639255D01*
X107050239Y-71638757D01*
X107291576Y-71613392D01*
X107311599Y-71609645D01*
X107545776Y-71546020D01*
X107564942Y-71539120D01*
X107785935Y-71438874D01*
X107803752Y-71428998D01*
X107942262Y-71336972D01*
X107988294Y-71282183D01*
X107997398Y-71211204D01*
X107961784Y-71141388D01*
X107089803Y-70269407D01*
X107026996Y-70235112D01*
X106955618Y-70240217D01*
X106910197Y-70269407D01*
X106035301Y-71144303D01*
X106001006Y-71207110D01*
X82135000Y-71207110D01*
X82135000Y-69993016D01*
X105360487Y-69993016D01*
X105377415Y-70235092D01*
X105380461Y-70255234D01*
X105435874Y-70491489D01*
X105442102Y-70510884D01*
X105534575Y-70735240D01*
X105543823Y-70753390D01*
X105658832Y-70940335D01*
X105711981Y-70988252D01*
X105782598Y-70999828D01*
X105856804Y-70963592D01*
X106730593Y-70089803D01*
X106764888Y-70026996D01*
X106761027Y-69973004D01*
X107235112Y-69973004D01*
X107240217Y-70044382D01*
X107269407Y-70089803D01*
X108142097Y-70962493D01*
X108204904Y-70996788D01*
X108276282Y-70991683D01*
X108331977Y-70950879D01*
X108363123Y-70911014D01*
X108374337Y-70894008D01*
X108491242Y-70681358D01*
X108499592Y-70662777D01*
X108580995Y-70434171D01*
X108586268Y-70414495D01*
X108630074Y-70175815D01*
X108632153Y-70154219D01*
X108633841Y-69993016D01*
X109360487Y-69993016D01*
X109377415Y-70235092D01*
X109380461Y-70255234D01*
X109435874Y-70491489D01*
X109442102Y-70510884D01*
X109534575Y-70735240D01*
X109543823Y-70753390D01*
X109670977Y-70960076D01*
X109683007Y-70976514D01*
X109841570Y-71160212D01*
X109856075Y-71174516D01*
X110041969Y-71330499D01*
X110058573Y-71342299D01*
X110267014Y-71466555D01*
X110285292Y-71475549D01*
X110510917Y-71564880D01*
X110530398Y-71570835D01*
X110767404Y-71622944D01*
X110787586Y-71625709D01*
X111029875Y-71639255D01*
X111050239Y-71638757D01*
X111291576Y-71613392D01*
X111311599Y-71609645D01*
X111545776Y-71546020D01*
X111564942Y-71539120D01*
X111785935Y-71438874D01*
X111803752Y-71428998D01*
X112005874Y-71294708D01*
X112021882Y-71282111D01*
X112199934Y-71117233D01*
X112213722Y-71102238D01*
X112363123Y-70911014D01*
X112374337Y-70894008D01*
X112491242Y-70681358D01*
X112499592Y-70662777D01*
X112580995Y-70434171D01*
X112586268Y-70414495D01*
X112630074Y-70175815D01*
X112632153Y-70154219D01*
X112635025Y-69879997D01*
X112633398Y-69858362D01*
X112594600Y-69618817D01*
X112589741Y-69599034D01*
X112513143Y-69368773D01*
X112505184Y-69350023D01*
X112392758Y-69134971D01*
X112381903Y-69117733D01*
X112236540Y-68923422D01*
X112223068Y-68908142D01*
X112048508Y-68739572D01*
X112032768Y-68726642D01*
X111833502Y-68588148D01*
X111815896Y-68577901D01*
X111597052Y-68473049D01*
X111578034Y-68465749D01*
X111345240Y-68397234D01*
X111325301Y-68393068D01*
X111084548Y-68362653D01*
X111064198Y-68361729D01*
X110821679Y-68370198D01*
X110801443Y-68372540D01*
X110563398Y-68419675D01*
X110543798Y-68425221D01*
X110316351Y-68509807D01*
X110297888Y-68518416D01*
X110086890Y-68638280D01*
X110070042Y-68649730D01*
X109880923Y-68801786D01*
X109866123Y-68815782D01*
X109703747Y-68996118D01*
X109691374Y-69012301D01*
X109559920Y-69216279D01*
X109550294Y-69234231D01*
X109453142Y-69456601D01*
X109446510Y-69475862D01*
X109386161Y-69710905D01*
X109382694Y-69730979D01*
X109360701Y-69972647D01*
X109360487Y-69993016D01*
X108633841Y-69993016D01*
X108635025Y-69879997D01*
X108633398Y-69858362D01*
X108594600Y-69618817D01*
X108589741Y-69599034D01*
X108513143Y-69368773D01*
X108505184Y-69350023D01*
X108392758Y-69134971D01*
X108381903Y-69117734D01*
X108332771Y-69052057D01*
X108275498Y-69009154D01*
X108204122Y-69004026D01*
X108141275Y-69038329D01*
X107269407Y-69910197D01*
X107235112Y-69973004D01*
X106761027Y-69973004D01*
X106759783Y-69955618D01*
X106730593Y-69910197D01*
X105858052Y-69037656D01*
X105795245Y-69003361D01*
X105723867Y-69008466D01*
X105661497Y-69058662D01*
X105559920Y-69216279D01*
X105550294Y-69234231D01*
X105453142Y-69456601D01*
X105446510Y-69475862D01*
X105386161Y-69710905D01*
X105382694Y-69730979D01*
X105360701Y-69972647D01*
X105360487Y-69993016D01*
X82135000Y-69993016D01*
X82135000Y-68155612D01*
X82178320Y-68317283D01*
X82183916Y-68333627D01*
X82295296Y-68598591D01*
X82303059Y-68614025D01*
X82449369Y-68861422D01*
X82459154Y-68875660D01*
X82637686Y-69100911D01*
X82649313Y-69113689D01*
X82856763Y-69312626D01*
X82870016Y-69323707D01*
X83102546Y-69492650D01*
X83117181Y-69501830D01*
X83370487Y-69637652D01*
X83386233Y-69644762D01*
X83655629Y-69744949D01*
X83672193Y-69749855D01*
X83952693Y-69812554D01*
X83969770Y-69815168D01*
X84256185Y-69839219D01*
X84273458Y-69839490D01*
X84560486Y-69824448D01*
X84577638Y-69822372D01*
X84859970Y-69768514D01*
X84876680Y-69764131D01*
X85149089Y-69672455D01*
X85165050Y-69665843D01*
X85422498Y-69538045D01*
X85437413Y-69529329D01*
X85675135Y-69367774D01*
X85688731Y-69357114D01*
X85902327Y-69164791D01*
X85914349Y-69152385D01*
X86099868Y-68932852D01*
X86110095Y-68918929D01*
X86186482Y-68798563D01*
X106003413Y-68798563D01*
X106036700Y-68857096D01*
X106910197Y-69730593D01*
X106973004Y-69764888D01*
X107044382Y-69759783D01*
X107089803Y-69730593D01*
X107961345Y-68859051D01*
X107995640Y-68796244D01*
X107990535Y-68724866D01*
X107944023Y-68664962D01*
X107833502Y-68588148D01*
X107815896Y-68577901D01*
X107597052Y-68473049D01*
X107578034Y-68465749D01*
X107345240Y-68397234D01*
X107325301Y-68393068D01*
X107084548Y-68362653D01*
X107064198Y-68361729D01*
X106821679Y-68370198D01*
X106801443Y-68372540D01*
X106563398Y-68419675D01*
X106543798Y-68425221D01*
X106316351Y-68509807D01*
X106297888Y-68518416D01*
X106086890Y-68638280D01*
X106070043Y-68649729D01*
X106046925Y-68668316D01*
X106006047Y-68727052D01*
X106003413Y-68798563D01*
X86186482Y-68798563D01*
X86264104Y-68676251D01*
X86272348Y-68661068D01*
X86391996Y-68399733D01*
X86398103Y-68383573D01*
X86481177Y-68108418D01*
X86485033Y-68091578D01*
X86529996Y-67807694D01*
X86531553Y-67789157D01*
X86535025Y-67457619D01*
X86533857Y-67439053D01*
X86494849Y-67154290D01*
X86491346Y-67137373D01*
X86414053Y-66860538D01*
X86408286Y-66844253D01*
X86294137Y-66580470D01*
X86286213Y-66565118D01*
X86137320Y-66319267D01*
X86127386Y-66305133D01*
X85946505Y-66081764D01*
X85934745Y-66069109D01*
X85725223Y-65872355D01*
X85711855Y-65861413D01*
X85477569Y-65694914D01*
X85462839Y-65685887D01*
X85365501Y-65635000D01*
X124333448Y-65635000D01*
X124257269Y-65673815D01*
M02*
