M48
; DRILL file {KiCad 6.0.0-unknown-ea0edab~86~ubuntu18.04.1} date So 07 Jul 2019 14:49:59 CEST
; FORMAT={-:-/ absolute / inch / decimal}
; #@! TF.CreationDate,2019-07-07T14:49:59+02:00
; #@! TF.GenerationSoftware,Kicad,Pcbnew,6.0.0-unknown-ea0edab~86~ubuntu18.04.1
; #@! TF.FileFunction,Plated,1,2,PTH
FMAT,2
INCH
T1C0.0157
T2C0.0236
T3C0.0335
T4C0.0394
%
G90
G05
T1
X4.189Y-4.252
X4.4016Y-3.0551
X4.4016Y-3.189
T3
X3.9567Y-4.5212
X4.1535Y-4.5212
T4
X4.2126Y-2.7559
X4.9213Y-4.0551
X4.9213Y-4.1551
X4.9213Y-4.2551
X4.9213Y-4.3551
X4.3701Y-2.7559
X4.6457Y-3.189
X4.9213Y-3.5433
X4.9213Y-3.6433
X4.9213Y-3.7433
X4.9213Y-3.8433
X4.6457Y-2.9528
X4.9213Y-2.9134
X4.9213Y-3.0134
X4.9213Y-3.1134
X4.9213Y-3.2134
X4.9213Y-3.3134
T2
G00X3.4134Y-2.9724
M15
G01X3.437Y-2.9724
M16
G05
G00X3.4134Y-3.189
M15
G01X3.437Y-3.189
M16
G05
G00X3.5315Y-3.189
M15
G01X3.5551Y-3.189
M16
G05
G00X3.4134Y-3.6811
M15
G01X3.437Y-3.6811
M16
G05
G00X3.4134Y-3.8976
M15
G01X3.437Y-3.8976
M16
G05
G00X3.5315Y-3.8976
M15
G01X3.5551Y-3.8976
M16
G05
G00X3.689Y-3.8976
M15
G01X3.7126Y-3.8976
M16
G05
G00X3.748Y-3.7205
M15
G01X3.7717Y-3.7205
M16
G05
G00X3.689Y-3.189
M15
G01X3.7126Y-3.189
M16
G05
G00X3.748Y-3.0118
M15
G01X3.7717Y-3.0118
M16
G05
G00X3.9173Y-4.6412
M15
G01X3.9173Y-4.6137
M16
G05
G00X4.1929Y-4.6137
M15
G01X4.1929Y-4.6412
M16
G05
T0
M30
